<?xml version="1.0" encoding="UTF-8"?>
<!DOCTYPE svg PUBLIC "-//W3C//DTD SVG 1.1//EN" "http://www.w3.org/Graphics/SVG/1.1/DTD/svg11.dtd">
<!-- Creator: CorelDRAW 2020 (64 Bit) -->
<svg xmlns="http://www.w3.org/2000/svg" xml:space="preserve" width="42.3332mm" height="42.3332mm" version="1.1" style="shape-rendering:geometricPrecision; text-rendering:geometricPrecision; image-rendering:optimizeQuality; fill-rule:evenodd; clip-rule:evenodd"
viewBox="0 0 4233.32 4233.32"
 xmlns:xlink="http://www.w3.org/1999/xlink"
 xmlns:xodm="http://www.corel.com/coreldraw/odm/2003">
 <defs>
  <style type="text/css">
   <![CDATA[
    .fil0 {fill:black}
   ]]>
  </style>
 </defs>
 <g id="Camada_x0020_1">
  <metadata id="CorelCorpID_0Corel-Layer"/>
  <g id="_2550735378832">
   <path class="fil0" d="M718.94 2771.46l162.57 0.01 1.14 -163.11 2460.22 -0.54 7.65 0.54 0.23 162.68 162.43 0.52 1.14 -1309.81 -2794.27 0 -1.11 1309.71zm2359.44 -656.22l-1.79 163.99c-19.24,5.12 -145.55,4.96 -165.95,0.21l-1.26 -163.63 -271.25 0.91 2.61 325.71 708.93 1.65 0.92 -326.98 -272.21 -1.86zm-4.07 -324.91l-159.49 -0.87c-4.04,-3.47 -6.39,0.53 -7.03,-19.25 -1.16,-35.57 4.46,-118.17 -1.01,-143.19l-264.57 0.55 0 322.8 705.79 0 0.05 -320.7 -266.11 0.05 -0.8 151.62c-5.17,13.63 2.58,1.58 -6.83,8.99zm-1310.73 651.76l13.82 0.14 670.92 -0.02 7.45 0.02 13.82 -0.11 0 -814.56 -705.23 -0.12 -0.78 814.65zm-174.15 2.65c3.68,-11.19 8.25,-784.3 1.61,-817.78l-709.04 1.8 0.6 814.95 706.83 1.03z"/>
   <polygon class="fil0" points="1269.05,1952.6 1432.62,1952.63 1432.83,1790.75 1270.25,1789.11 "/>
   <path class="fil0" d="M1930.2 1952.53l150.84 0.54c6.99,-28.48 2.68,-125.71 2.68,-161.52l-155.7 -0.01 2.18 160.99z"/>
  </g>
 </g>
</svg>
