<?xml version="1.0" encoding="UTF-8"?>
<!DOCTYPE svg PUBLIC "-//W3C//DTD SVG 1.1//EN" "http://www.w3.org/Graphics/SVG/1.1/DTD/svg11.dtd">
<!-- Creator: CorelDRAW 2020 (64 Bit) -->
<svg xmlns="http://www.w3.org/2000/svg" xml:space="preserve" width="42.3332mm" height="42.3332mm" version="1.1" style="shape-rendering:geometricPrecision; text-rendering:geometricPrecision; image-rendering:optimizeQuality; fill-rule:evenodd; clip-rule:evenodd"
viewBox="0 0 4233.32 4233.32"
 xmlns:xlink="http://www.w3.org/1999/xlink"
 xmlns:xodm="http://www.corel.com/coreldraw/odm/2003">
 <defs>
  <style type="text/css">
   <![CDATA[
    .fil1 {fill:black}
    .fil2 {fill:#9B938C}
    .fil0 {fill:black;fill-rule:nonzero}
   ]]>
  </style>
 </defs>
 <g id="Camada_x0020_1">
  <metadata id="CorelCorpID_0Corel-Layer"/>
  <g id="_2550995198704">
   <g>
    <path class="fil0" d="M3256.51 1492.39l-2279.71 0 0 -50.8 2279.71 0 0 0 0 50.8zm465.21 414.5l-50.62 0 0 0 -0.55 -21.25 -1.6 -20.97 -2.64 -20.67 -3.67 -20.34 -4.64 -19.99 -5.6 -19.62 -6.53 -19.21 -7.45 -18.8 -8.33 -18.34 -9.18 -17.86 -10.01 -17.36 -10.82 -16.83 -11.58 -16.27 -12.34 -15.68 -13.07 -15.07 -13.75 -14.43 -14.44 -13.76 -15.06 -13.07 -15.7 -12.33 -16.26 -11.6 -16.84 -10.82 -17.37 -10.02 -17.86 -9.18 -18.35 -8.33 -18.8 -7.44 -19.23 -6.55 -19.62 -5.6 -20.02 -4.65 -20.35 -3.66 -20.68 -2.65 -20.98 -1.6 -21.27 -0.55 0 -50.8 23.83 0.61 23.54 1.8 23.22 2.97 22.87 4.12 22.46 5.21 22.06 6.3 21.59 7.35 21.1 8.36 20.59 9.35 20.06 10.3 19.47 11.24 18.88 12.12 18.24 13 17.58 13.83 16.9 14.65 16.16 15.42 15.43 16.17 14.63 16.89 13.84 17.58 13 18.25 12.12 18.87 11.25 19.48 10.3 20.06 9.35 20.6 8.37 21.12 7.35 21.61 6.3 22.06 5.22 22.47 4.11 22.88 2.98 23.23 1.8 23.55 0.61 23.85 0 0zm-50.62 927.56l0 -927.56 50.62 0 0 927.56 0 0 -50.62 0zm-414.59 465.3l0 -50.8 0 0 21.27 -0.55 20.98 -1.6 20.68 -2.65 20.35 -3.66 20.02 -4.65 19.62 -5.6 19.23 -6.55 18.8 -7.44 18.35 -8.33 17.86 -9.18 17.37 -10.02 16.84 -10.82 16.26 -11.6 15.7 -12.33 15.06 -13.07 14.44 -13.76 13.75 -14.43 13.07 -15.07 12.34 -15.68 11.58 -16.27 10.82 -16.83 10.01 -17.36 9.18 -17.86 8.33 -18.34 7.45 -18.8 6.53 -19.21 5.6 -19.62 4.64 -19.99 3.67 -20.34 2.64 -20.67 1.6 -20.97 0.55 -21.25 50.62 0 -0.61 23.85 -1.8 23.55 -2.98 23.23 -4.11 22.88 -5.22 22.47 -6.3 22.06 -7.35 21.61 -8.37 21.12 -9.35 20.6 -10.3 20.06 -11.25 19.48 -12.12 18.87 -13 18.25 -13.84 17.58 -14.63 16.89 -15.43 16.17 -16.16 15.42 -16.9 14.65 -17.58 13.83 -18.24 13 -18.88 12.12 -19.47 11.24 -20.06 10.3 -20.59 9.35 -21.1 8.36 -21.59 7.35 -22.06 6.3 -22.46 5.21 -22.87 4.12 -23.22 2.97 -23.54 1.8 -23.83 0.61 0 0zm-2279.71 -50.8l2279.71 0 0 50.8 -2279.71 0 0 0 0 -50.8zm-465.21 -414.5l50.62 0 0 0 0.55 21.25 1.6 20.97 2.64 20.67 3.67 20.34 4.64 19.99 5.6 19.61 6.54 19.22 7.44 18.8 8.33 18.34 9.18 17.86 10.01 17.36 10.82 16.83 11.59 16.27 12.33 15.68 13.07 15.07 13.76 14.43 14.44 13.76 15.07 13.07 15.68 12.33 16.27 11.6 16.84 10.82 17.36 10.02 17.86 9.18 18.35 8.33 18.81 7.44 19.23 6.55 19.63 5.6 20 4.65 20.35 3.66 20.68 2.65 20.98 1.6 21.27 0.55 0 50.8 -23.83 -0.61 -23.54 -1.8 -23.22 -2.97 -22.87 -4.12 -22.46 -5.21 -22.05 -6.3 -21.59 -7.35 -21.11 -8.36 -20.59 -9.35 -20.06 -10.3 -19.48 -11.24 -18.86 -12.12 -18.25 -13 -17.58 -13.83 -16.89 -14.65 -16.16 -15.42 -15.42 -16.17 -14.65 -16.89 -13.83 -17.58 -13.01 -18.25 -12.12 -18.87 -11.25 -19.48 -10.3 -20.06 -9.35 -20.6 -8.36 -21.12 -7.36 -21.6 -6.3 -22.07 -5.22 -22.47 -4.11 -22.88 -2.98 -23.23 -1.8 -23.55 -0.61 -23.85 0 0zm50.62 -927.56l0 927.56 -50.62 0 0 -927.56 0 0 50.62 0zm414.59 -465.3l0 50.8 0 0 -21.27 0.55 -20.98 1.6 -20.68 2.65 -20.35 3.66 -20 4.65 -19.63 5.6 -19.23 6.55 -18.81 7.44 -18.35 8.33 -17.86 9.18 -17.36 10.02 -16.84 10.82 -16.27 11.6 -15.68 12.33 -15.07 13.07 -14.44 13.76 -13.76 14.43 -13.07 15.07 -12.33 15.68 -11.59 16.27 -10.82 16.83 -10.01 17.36 -9.18 17.86 -8.33 18.34 -7.44 18.8 -6.54 19.22 -5.6 19.61 -4.64 19.99 -3.67 20.34 -2.64 20.67 -1.6 20.97 -0.55 21.25 -50.62 0 0.61 -23.85 1.8 -23.55 2.98 -23.23 4.11 -22.88 5.22 -22.47 6.3 -22.07 7.36 -21.6 8.36 -21.12 9.35 -20.6 10.3 -20.06 11.25 -19.48 12.12 -18.87 13.01 -18.25 13.83 -17.58 14.65 -16.89 15.42 -16.17 16.16 -15.42 16.89 -14.65 17.58 -13.83 18.25 -13 18.86 -12.12 19.48 -11.24 20.06 -10.3 20.59 -9.35 21.11 -8.36 21.59 -7.35 22.05 -6.3 22.46 -5.21 22.87 -4.12 23.22 -2.97 23.54 -1.8 23.83 -0.61 0 0z"/>
   </g>
   <g>
    <path class="fil0" d="M3808.24 1884.15l-75.86 0 0 -50.32 75.86 0 0 0 0 50.32zm61.37 10.81l-50.8 0 0 0 -0.02 -0.55 -0.04 -0.59 -0.08 -0.58 -0.08 -0.49 -0.13 -0.51 -0.15 -0.55 -0.14 -0.42 -0.21 -0.51 -0.21 -0.49 -0.25 -0.46 -0.3 -0.52 -0.26 -0.42 -0.28 -0.39 -0.37 -0.47 -0.35 -0.41 -0.34 -0.35 -0.35 -0.33 -0.41 -0.35 -0.46 -0.37 -0.38 -0.27 -0.4 -0.25 -0.51 -0.3 -0.44 -0.23 -0.47 -0.21 -0.48 -0.19 -0.39 -0.14 -0.53 -0.14 -0.48 -0.12 -0.45 -0.07 -0.55 -0.08 -0.55 -0.04 -0.51 -0.01 0 -50.32 3.17 0.09 3.11 0.24 3.03 0.38 3.09 0.55 2.98 0.7 2.89 0.82 2.95 1 2.78 1.11 2.71 1.23 2.66 1.37 2.51 1.44 2.52 1.61 2.44 1.75 2.26 1.77 2.21 1.91 2.15 2.05 2.04 2.15 1.91 2.21 1.77 2.25 1.74 2.43 1.6 2.5 1.44 2.5 1.35 2.64 1.23 2.69 1.09 2.75 1 2.92 0.81 2.87 0.69 2.95 0.54 3.05 0.38 3 0.24 3.07 0.08 3.13 0 0zm-50.8 276.57l0 -276.57 50.8 0 0 276.57 0 0 -50.8 0zm-10.57 61.13l0 -50.32 0 0 0.51 -0.01 0.55 -0.04 0.55 -0.08 0.45 -0.07 0.48 -0.12 0.53 -0.14 0.39 -0.14 0.48 -0.19 0.47 -0.21 0.44 -0.23 0.51 -0.3 0.4 -0.25 0.38 -0.27 0.46 -0.37 0.41 -0.35 0.35 -0.33 0.34 -0.35 0.35 -0.41 0.37 -0.47 0.28 -0.39 0.26 -0.42 0.3 -0.52 0.25 -0.46 0.21 -0.49 0.21 -0.51 0.14 -0.42 0.15 -0.55 0.13 -0.51 0.08 -0.49 0.08 -0.58 0.04 -0.59 0.02 -0.55 50.8 0 -0.08 3.13 -0.24 3.07 -0.38 3 -0.54 3.05 -0.69 2.95 -0.81 2.87 -1 2.92 -1.09 2.75 -1.23 2.69 -1.35 2.64 -1.44 2.5 -1.6 2.5 -1.74 2.43 -1.77 2.25 -1.91 2.21 -2.04 2.15 -2.15 2.05 -2.21 1.91 -2.26 1.77 -2.44 1.75 -2.52 1.61 -2.51 1.44 -2.66 1.37 -2.71 1.23 -2.78 1.11 -2.95 1 -2.89 0.82 -2.98 0.7 -3.09 0.55 -3.03 0.38 -3.11 0.24 -3.17 0.09 0 0zm-75.86 -50.32l75.86 0 0 50.32 -75.86 0 0 0 0 -50.32zm-61.37 -10.81l50.8 0 0 0 0.02 0.55 0.04 0.59 0.08 0.58 0.08 0.49 0.13 0.51 0.15 0.55 0.14 0.42 0.21 0.51 0.21 0.49 0.25 0.46 0.3 0.52 0.26 0.42 0.28 0.39 0.37 0.47 0.35 0.41 0.34 0.35 0.35 0.33 0.41 0.35 0.46 0.37 0.38 0.27 0.4 0.25 0.51 0.3 0.44 0.23 0.47 0.21 0.48 0.19 0.39 0.14 0.53 0.14 0.48 0.12 0.45 0.07 0.55 0.08 0.55 0.04 0.51 0.01 0 50.32 -3.17 -0.09 -3.11 -0.24 -3.03 -0.38 -3.09 -0.55 -2.98 -0.7 -2.89 -0.82 -2.95 -1 -2.78 -1.11 -2.71 -1.23 -2.66 -1.37 -2.51 -1.44 -2.52 -1.61 -2.44 -1.75 -2.26 -1.77 -2.21 -1.91 -2.15 -2.05 -2.04 -2.15 -1.91 -2.21 -1.77 -2.25 -1.74 -2.43 -1.6 -2.5 -1.44 -2.5 -1.35 -2.64 -1.23 -2.69 -1.09 -2.75 -1 -2.92 -0.81 -2.87 -0.69 -2.95 -0.54 -3.05 -0.38 -3 -0.24 -3.07 -0.08 -3.13 0 0zm50.8 -276.57l0 276.57 -50.8 0 0 -276.57 0 0 50.8 0zm10.57 -61.13l0 50.32 0 0 -0.51 0.01 -0.55 0.04 -0.55 0.08 -0.45 0.07 -0.48 0.12 -0.53 0.14 -0.39 0.14 -0.48 0.19 -0.47 0.21 -0.44 0.23 -0.51 0.3 -0.4 0.25 -0.38 0.27 -0.46 0.37 -0.41 0.35 -0.35 0.33 -0.34 0.35 -0.35 0.41 -0.37 0.47 -0.28 0.39 -0.26 0.42 -0.3 0.52 -0.25 0.46 -0.21 0.49 -0.21 0.51 -0.14 0.42 -0.15 0.55 -0.13 0.51 -0.08 0.49 -0.08 0.58 -0.04 0.59 -0.02 0.55 -50.8 0 0.08 -3.13 0.24 -3.07 0.38 -3 0.54 -3.05 0.69 -2.95 0.81 -2.87 1 -2.92 1.09 -2.75 1.23 -2.69 1.35 -2.64 1.44 -2.5 1.6 -2.5 1.74 -2.43 1.77 -2.25 1.91 -2.21 2.04 -2.15 2.15 -2.05 2.21 -1.91 2.26 -1.77 2.44 -1.75 2.52 -1.61 2.51 -1.44 2.66 -1.37 2.71 -1.23 2.78 -1.11 2.95 -1 2.89 -0.82 2.98 -0.7 3.09 -0.55 3.03 -0.38 3.11 -0.24 3.17 -0.09 0 0z"/>
   </g>
   <g>
    <path class="fil0" d="M425.07 1884.15l0 -50.32 75.86 0 0 50.32 -75.86 0zm-61.37 10.81l0 0 0.08 -3.13 0.24 -3.07 0.38 -3 0.54 -3.05 0.69 -2.95 0.81 -2.87 1 -2.92 1.09 -2.75 1.23 -2.69 1.35 -2.64 1.44 -2.5 1.6 -2.5 1.74 -2.43 1.77 -2.25 1.91 -2.21 2.04 -2.15 2.15 -2.05 2.21 -1.91 2.26 -1.77 2.44 -1.75 2.52 -1.61 2.51 -1.44 2.66 -1.37 2.71 -1.23 2.78 -1.11 2.95 -1 2.89 -0.82 2.98 -0.7 3.09 -0.55 3.03 -0.38 3.11 -0.24 3.17 -0.09 0 50.32 -0.51 0.01 -0.55 0.04 -0.55 0.08 -0.45 0.07 -0.48 0.12 -0.53 0.14 -0.39 0.14 -0.48 0.19 -0.47 0.21 -0.44 0.23 -0.51 0.3 -0.4 0.25 -0.38 0.27 -0.46 0.37 -0.41 0.35 -0.35 0.33 -0.34 0.35 -0.35 0.41 -0.37 0.47 -0.28 0.39 -0.26 0.42 -0.3 0.52 -0.25 0.46 -0.21 0.49 -0.21 0.51 -0.14 0.42 -0.15 0.55 -0.13 0.51 -0.08 0.49 -0.08 0.58 -0.04 0.59 -0.02 0.55 0 0 -50.8 0zm50.8 276.57l-50.8 0 0 -276.57 50.8 0 0 276.57zm10.57 61.13l0 0 -3.17 -0.09 -3.11 -0.24 -3.03 -0.38 -3.09 -0.55 -2.98 -0.7 -2.89 -0.82 -2.95 -1 -2.78 -1.11 -2.71 -1.23 -2.66 -1.37 -2.51 -1.44 -2.52 -1.61 -2.44 -1.75 -2.26 -1.77 -2.21 -1.91 -2.15 -2.05 -2.04 -2.15 -1.91 -2.21 -1.77 -2.25 -1.74 -2.43 -1.6 -2.5 -1.44 -2.5 -1.35 -2.64 -1.23 -2.69 -1.09 -2.75 -1 -2.92 -0.81 -2.87 -0.69 -2.95 -0.54 -3.05 -0.38 -3 -0.24 -3.07 -0.08 -3.13 50.8 0 0.02 0.55 0.04 0.59 0.08 0.58 0.08 0.49 0.13 0.51 0.15 0.55 0.14 0.42 0.21 0.51 0.21 0.49 0.25 0.46 0.3 0.52 0.26 0.42 0.28 0.39 0.37 0.47 0.35 0.41 0.34 0.35 0.35 0.33 0.41 0.35 0.46 0.37 0.38 0.27 0.4 0.25 0.51 0.3 0.44 0.23 0.47 0.21 0.48 0.19 0.39 0.14 0.53 0.14 0.48 0.12 0.45 0.07 0.55 0.08 0.55 0.04 0.51 0.01 0 0 0 50.32zm75.86 -50.32l0 50.32 -75.86 0 0 -50.32 75.86 0zm61.37 -10.81l0 0 -0.08 3.13 -0.24 3.07 -0.38 3 -0.54 3.05 -0.69 2.95 -0.81 2.87 -1 2.92 -1.09 2.75 -1.23 2.69 -1.35 2.64 -1.44 2.5 -1.6 2.5 -1.74 2.43 -1.77 2.25 -1.91 2.21 -2.04 2.15 -2.15 2.05 -2.21 1.91 -2.26 1.77 -2.44 1.75 -2.52 1.61 -2.51 1.44 -2.66 1.37 -2.71 1.23 -2.78 1.11 -2.95 1 -2.89 0.82 -2.98 0.7 -3.09 0.55 -3.03 0.38 -3.11 0.24 -3.17 0.09 0 -50.32 0.51 -0.01 0.55 -0.04 0.55 -0.08 0.45 -0.07 0.48 -0.12 0.53 -0.14 0.39 -0.14 0.48 -0.19 0.47 -0.21 0.44 -0.23 0.51 -0.3 0.4 -0.25 0.38 -0.27 0.46 -0.37 0.41 -0.35 0.35 -0.33 0.34 -0.35 0.35 -0.41 0.37 -0.47 0.28 -0.39 0.26 -0.42 0.3 -0.52 0.25 -0.46 0.21 -0.49 0.21 -0.51 0.14 -0.42 0.15 -0.55 0.13 -0.51 0.08 -0.49 0.08 -0.58 0.04 -0.59 0.02 -0.55 0 0 50.8 0zm-50.8 -276.57l50.8 0 0 276.57 -50.8 0 0 -276.57zm-10.57 -61.13l0 0 3.17 0.09 3.11 0.24 3.03 0.38 3.09 0.55 2.98 0.7 2.89 0.82 2.95 1 2.78 1.11 2.71 1.23 2.66 1.37 2.51 1.44 2.52 1.61 2.44 1.75 2.26 1.77 2.21 1.91 2.15 2.05 2.04 2.15 1.91 2.21 1.77 2.25 1.74 2.43 1.6 2.5 1.44 2.5 1.35 2.64 1.23 2.69 1.09 2.75 1 2.92 0.81 2.87 0.69 2.95 0.54 3.05 0.38 3 0.24 3.07 0.08 3.13 -50.8 0 -0.02 -0.55 -0.04 -0.59 -0.08 -0.58 -0.08 -0.49 -0.13 -0.51 -0.15 -0.55 -0.14 -0.42 -0.21 -0.51 -0.21 -0.49 -0.25 -0.46 -0.3 -0.52 -0.26 -0.42 -0.28 -0.39 -0.37 -0.47 -0.35 -0.41 -0.34 -0.35 -0.35 -0.33 -0.41 -0.35 -0.46 -0.37 -0.38 -0.27 -0.4 -0.25 -0.51 -0.3 -0.44 -0.23 -0.47 -0.21 -0.48 -0.19 -0.39 -0.14 -0.53 -0.14 -0.48 -0.12 -0.45 -0.07 -0.55 -0.08 -0.55 -0.04 -0.51 -0.01 0 0 0 -50.32z"/>
   </g>
   <g>
    <path class="fil0" d="M3808.24 2576.48l-75.86 0 0 -50.32 75.86 0 0 0 0 50.32zm61.37 10.81l-50.8 0 0 0 -0.02 -0.55 -0.04 -0.59 -0.08 -0.58 -0.08 -0.49 -0.13 -0.51 -0.15 -0.55 -0.14 -0.42 -0.21 -0.51 -0.21 -0.49 -0.25 -0.46 -0.3 -0.52 -0.26 -0.42 -0.28 -0.39 -0.37 -0.47 -0.35 -0.41 -0.34 -0.35 -0.35 -0.33 -0.41 -0.35 -0.46 -0.37 -0.38 -0.27 -0.4 -0.25 -0.51 -0.3 -0.44 -0.23 -0.47 -0.21 -0.48 -0.19 -0.39 -0.14 -0.53 -0.14 -0.48 -0.12 -0.45 -0.07 -0.55 -0.08 -0.55 -0.04 -0.51 -0.01 0 -50.32 3.17 0.09 3.11 0.24 3.03 0.38 3.09 0.55 2.98 0.7 2.89 0.82 2.95 1 2.78 1.11 2.71 1.23 2.66 1.37 2.51 1.44 2.52 1.61 2.44 1.75 2.26 1.77 2.21 1.91 2.15 2.05 2.04 2.15 1.91 2.21 1.77 2.25 1.74 2.43 1.6 2.5 1.44 2.5 1.35 2.64 1.23 2.69 1.09 2.75 1 2.92 0.81 2.87 0.69 2.95 0.54 3.05 0.38 3 0.24 3.07 0.08 3.13 0 0zm-50.8 276.57l0 -276.57 50.8 0 0 276.57 0 0 -50.8 0zm-10.57 61.13l0 -50.32 0 0 0.51 -0.01 0.55 -0.04 0.55 -0.08 0.45 -0.07 0.48 -0.12 0.53 -0.14 0.39 -0.14 0.48 -0.19 0.47 -0.21 0.44 -0.23 0.51 -0.3 0.4 -0.25 0.38 -0.27 0.46 -0.37 0.41 -0.35 0.35 -0.33 0.34 -0.35 0.35 -0.41 0.37 -0.47 0.28 -0.39 0.26 -0.42 0.3 -0.52 0.25 -0.46 0.21 -0.49 0.21 -0.51 0.14 -0.42 0.15 -0.55 0.13 -0.51 0.08 -0.49 0.08 -0.58 0.04 -0.59 0.02 -0.55 50.8 0 -0.08 3.13 -0.24 3.07 -0.38 3 -0.54 3.05 -0.69 2.95 -0.81 2.87 -1 2.92 -1.09 2.75 -1.23 2.69 -1.35 2.64 -1.44 2.5 -1.6 2.5 -1.74 2.43 -1.77 2.25 -1.91 2.21 -2.04 2.15 -2.15 2.05 -2.21 1.91 -2.26 1.77 -2.44 1.75 -2.52 1.61 -2.51 1.44 -2.66 1.37 -2.71 1.23 -2.78 1.11 -2.95 1 -2.89 0.82 -2.98 0.7 -3.09 0.55 -3.03 0.38 -3.11 0.24 -3.17 0.09 0 0zm-75.86 -50.32l75.86 0 0 50.32 -75.86 0 0 0 0 -50.32zm-61.37 -10.81l50.8 0 0 0 0.02 0.55 0.04 0.59 0.08 0.58 0.08 0.49 0.13 0.51 0.15 0.55 0.14 0.42 0.21 0.51 0.21 0.49 0.25 0.46 0.3 0.52 0.26 0.42 0.28 0.39 0.37 0.47 0.35 0.41 0.34 0.35 0.35 0.33 0.41 0.35 0.46 0.37 0.38 0.27 0.4 0.25 0.51 0.3 0.44 0.23 0.47 0.21 0.48 0.19 0.39 0.14 0.53 0.14 0.48 0.12 0.45 0.07 0.55 0.08 0.55 0.04 0.51 0.01 0 50.32 -3.17 -0.09 -3.11 -0.24 -3.03 -0.38 -3.09 -0.55 -2.98 -0.7 -2.89 -0.82 -2.95 -1 -2.78 -1.11 -2.71 -1.23 -2.66 -1.37 -2.51 -1.44 -2.52 -1.61 -2.44 -1.75 -2.26 -1.77 -2.21 -1.91 -2.15 -2.05 -2.04 -2.15 -1.91 -2.21 -1.77 -2.25 -1.74 -2.43 -1.6 -2.5 -1.44 -2.5 -1.35 -2.64 -1.23 -2.69 -1.09 -2.75 -1 -2.92 -0.81 -2.87 -0.69 -2.95 -0.54 -3.05 -0.38 -3 -0.24 -3.07 -0.08 -3.13 0 0zm50.8 -276.57l0 276.57 -50.8 0 0 -276.57 0 0 50.8 0zm10.57 -61.13l0 50.32 0 0 -0.51 0.01 -0.55 0.04 -0.55 0.08 -0.45 0.07 -0.48 0.12 -0.53 0.14 -0.39 0.14 -0.48 0.19 -0.47 0.21 -0.44 0.23 -0.51 0.3 -0.4 0.25 -0.38 0.27 -0.46 0.37 -0.41 0.35 -0.35 0.33 -0.34 0.35 -0.35 0.41 -0.37 0.47 -0.28 0.39 -0.26 0.42 -0.3 0.52 -0.25 0.46 -0.21 0.49 -0.21 0.51 -0.14 0.42 -0.15 0.55 -0.13 0.51 -0.08 0.49 -0.08 0.58 -0.04 0.59 -0.02 0.55 -50.8 0 0.08 -3.13 0.24 -3.07 0.38 -3 0.54 -3.05 0.69 -2.95 0.81 -2.87 1 -2.92 1.09 -2.75 1.23 -2.69 1.35 -2.64 1.44 -2.5 1.6 -2.5 1.74 -2.43 1.77 -2.25 1.91 -2.21 2.04 -2.15 2.15 -2.05 2.21 -1.91 2.26 -1.77 2.44 -1.75 2.52 -1.61 2.51 -1.44 2.66 -1.37 2.71 -1.23 2.78 -1.11 2.95 -1 2.89 -0.82 2.98 -0.7 3.09 -0.55 3.03 -0.38 3.11 -0.24 3.17 -0.09 0 0z"/>
   </g>
   <g>
    <path class="fil0" d="M425.07 2576.48l0 -50.32 75.86 0 0 50.32 -75.86 0zm-61.37 10.81l0 0 0.08 -3.13 0.24 -3.07 0.38 -3 0.54 -3.05 0.69 -2.95 0.81 -2.87 1 -2.92 1.09 -2.75 1.23 -2.69 1.35 -2.64 1.44 -2.5 1.6 -2.5 1.74 -2.43 1.77 -2.25 1.91 -2.21 2.04 -2.15 2.15 -2.05 2.21 -1.91 2.26 -1.77 2.44 -1.75 2.52 -1.61 2.51 -1.44 2.66 -1.37 2.71 -1.23 2.78 -1.11 2.95 -1 2.89 -0.82 2.98 -0.7 3.09 -0.55 3.03 -0.38 3.11 -0.24 3.17 -0.09 0 50.32 -0.51 0.01 -0.55 0.04 -0.55 0.08 -0.45 0.07 -0.48 0.12 -0.53 0.14 -0.39 0.14 -0.48 0.19 -0.47 0.21 -0.44 0.23 -0.51 0.3 -0.4 0.25 -0.38 0.27 -0.46 0.37 -0.41 0.35 -0.35 0.33 -0.34 0.35 -0.35 0.41 -0.37 0.47 -0.28 0.39 -0.26 0.42 -0.3 0.52 -0.25 0.46 -0.21 0.49 -0.21 0.51 -0.14 0.42 -0.15 0.55 -0.13 0.51 -0.08 0.49 -0.08 0.58 -0.04 0.59 -0.02 0.55 0 0 -50.8 0zm50.8 276.57l-50.8 0 0 -276.57 50.8 0 0 276.57zm10.57 61.13l0 0 -3.17 -0.09 -3.11 -0.24 -3.03 -0.38 -3.09 -0.55 -2.98 -0.7 -2.89 -0.82 -2.95 -1 -2.78 -1.11 -2.71 -1.23 -2.66 -1.37 -2.51 -1.44 -2.52 -1.61 -2.44 -1.75 -2.26 -1.77 -2.21 -1.91 -2.15 -2.05 -2.04 -2.15 -1.91 -2.21 -1.77 -2.25 -1.74 -2.43 -1.6 -2.5 -1.44 -2.5 -1.35 -2.64 -1.23 -2.69 -1.09 -2.75 -1 -2.92 -0.81 -2.87 -0.69 -2.95 -0.54 -3.05 -0.38 -3 -0.24 -3.07 -0.08 -3.13 50.8 0 0.02 0.55 0.04 0.59 0.08 0.58 0.08 0.49 0.13 0.51 0.15 0.55 0.14 0.42 0.21 0.51 0.21 0.49 0.25 0.46 0.3 0.52 0.26 0.42 0.28 0.39 0.37 0.47 0.35 0.41 0.34 0.35 0.35 0.33 0.41 0.35 0.46 0.37 0.38 0.27 0.4 0.25 0.51 0.3 0.44 0.23 0.47 0.21 0.48 0.19 0.39 0.14 0.53 0.14 0.48 0.12 0.45 0.07 0.55 0.08 0.55 0.04 0.51 0.01 0 0 0 50.32zm75.86 -50.32l0 50.32 -75.86 0 0 -50.32 75.86 0zm61.37 -10.81l0 0 -0.08 3.13 -0.24 3.07 -0.38 3 -0.54 3.05 -0.69 2.95 -0.81 2.87 -1 2.92 -1.09 2.75 -1.23 2.69 -1.35 2.64 -1.44 2.5 -1.6 2.5 -1.74 2.43 -1.77 2.25 -1.91 2.21 -2.04 2.15 -2.15 2.05 -2.21 1.91 -2.26 1.77 -2.44 1.75 -2.52 1.61 -2.51 1.44 -2.66 1.37 -2.71 1.23 -2.78 1.11 -2.95 1 -2.89 0.82 -2.98 0.7 -3.09 0.55 -3.03 0.38 -3.11 0.24 -3.17 0.09 0 -50.32 0.51 -0.01 0.55 -0.04 0.55 -0.08 0.45 -0.07 0.48 -0.12 0.53 -0.14 0.39 -0.14 0.48 -0.19 0.47 -0.21 0.44 -0.23 0.51 -0.3 0.4 -0.25 0.38 -0.27 0.46 -0.37 0.41 -0.35 0.35 -0.33 0.34 -0.35 0.35 -0.41 0.37 -0.47 0.28 -0.39 0.26 -0.42 0.3 -0.52 0.25 -0.46 0.21 -0.49 0.21 -0.51 0.14 -0.42 0.15 -0.55 0.13 -0.51 0.08 -0.49 0.08 -0.58 0.04 -0.59 0.02 -0.55 0 0 50.8 0zm-50.8 -276.57l50.8 0 0 276.57 -50.8 0 0 -276.57zm-10.57 -61.13l0 0 3.17 0.09 3.11 0.24 3.03 0.38 3.09 0.55 2.98 0.7 2.89 0.82 2.95 1 2.78 1.11 2.71 1.23 2.66 1.37 2.51 1.44 2.52 1.61 2.44 1.75 2.26 1.77 2.21 1.91 2.15 2.05 2.04 2.15 1.91 2.21 1.77 2.25 1.74 2.43 1.6 2.5 1.44 2.5 1.35 2.64 1.23 2.69 1.09 2.75 1 2.92 0.81 2.87 0.69 2.95 0.54 3.05 0.38 3 0.24 3.07 0.08 3.13 -50.8 0 -0.02 -0.55 -0.04 -0.59 -0.08 -0.58 -0.08 -0.49 -0.13 -0.51 -0.15 -0.55 -0.14 -0.42 -0.21 -0.51 -0.21 -0.49 -0.25 -0.46 -0.3 -0.52 -0.26 -0.42 -0.28 -0.39 -0.37 -0.47 -0.35 -0.41 -0.34 -0.35 -0.35 -0.33 -0.41 -0.35 -0.46 -0.37 -0.38 -0.27 -0.4 -0.25 -0.51 -0.3 -0.44 -0.23 -0.47 -0.21 -0.48 -0.19 -0.39 -0.14 -0.53 -0.14 -0.48 -0.12 -0.45 -0.07 -0.55 -0.08 -0.55 -0.04 -0.51 -0.01 0 0 0 -50.32z"/>
   </g>
   <g>
    <path class="fil0" d="M2177.9 1761.25l-91.62 0 0 -50.58 91.62 0 0 0 0 50.58zm68.85 18.16l-50.8 0 0 0 -0.03 -0.92 -0.07 -0.98 -0.11 -0.87 -0.17 -0.9 -0.19 -0.87 -0.23 -0.78 -0.3 -0.87 -0.34 -0.87 -0.36 -0.81 -0.39 -0.75 -0.41 -0.72 -0.51 -0.77 -0.54 -0.77 -0.52 -0.66 -0.58 -0.67 -0.61 -0.64 -0.64 -0.61 -0.67 -0.58 -0.66 -0.52 -0.76 -0.53 -0.77 -0.51 -0.71 -0.41 -0.74 -0.38 -0.8 -0.36 -0.86 -0.34 -0.85 -0.29 -0.77 -0.22 -0.86 -0.19 -0.88 -0.17 -0.85 -0.1 -0.96 -0.08 -0.91 -0.02 0 -50.58 3.55 0.1 3.44 0.26 3.47 0.44 3.4 0.61 3.34 0.77 3.33 0.96 3.19 1.09 3.08 1.22 3.06 1.38 3 1.54 2.93 1.69 2.75 1.77 2.66 1.89 2.62 2.06 2.49 2.16 2.38 2.27 2.27 2.38 2.16 2.49 2.06 2.62 1.88 2.65 1.77 2.75 1.69 2.92 1.53 2.99 1.38 3.05 1.22 3.07 1.08 3.17 0.95 3.32 0.77 3.33 0.61 3.38 0.43 3.45 0.27 3.42 0.09 3.54 0 0zm-50.8 1182.52l0 -1182.52 50.8 0 0 1182.52 0 0 -50.8 0zm-18.05 68.74l0 -50.58 0 0 0.91 -0.02 0.96 -0.08 0.85 -0.1 0.88 -0.17 0.86 -0.19 0.77 -0.22 0.85 -0.29 0.86 -0.34 0.8 -0.36 0.74 -0.38 0.71 -0.41 0.77 -0.51 0.76 -0.53 0.66 -0.52 0.67 -0.58 0.64 -0.61 0.61 -0.64 0.58 -0.67 0.52 -0.66 0.54 -0.77 0.51 -0.77 0.41 -0.72 0.39 -0.75 0.36 -0.81 0.34 -0.87 0.3 -0.87 0.23 -0.78 0.19 -0.87 0.17 -0.9 0.11 -0.87 0.07 -0.98 0.03 -0.92 50.8 0 -0.09 3.54 -0.27 3.42 -0.43 3.45 -0.61 3.38 -0.77 3.33 -0.95 3.32 -1.08 3.17 -1.22 3.07 -1.38 3.05 -1.53 2.99 -1.69 2.92 -1.77 2.75 -1.88 2.65 -2.06 2.62 -2.16 2.49 -2.27 2.38 -2.38 2.27 -2.49 2.16 -2.62 2.06 -2.66 1.89 -2.75 1.77 -2.93 1.69 -3 1.54 -3.06 1.38 -3.08 1.22 -3.19 1.09 -3.33 0.96 -3.34 0.77 -3.4 0.61 -3.47 0.44 -3.44 0.26 -3.55 0.1 0 0zm-91.62 -50.58l91.62 0 0 50.58 -91.62 0 0 0 0 -50.58zm-68.85 -18.16l50.8 0 0 0 0.03 0.92 0.07 0.98 0.11 0.87 0.17 0.9 0.19 0.87 0.23 0.78 0.3 0.87 0.34 0.87 0.36 0.81 0.39 0.75 0.41 0.72 0.51 0.77 0.54 0.77 0.52 0.66 0.58 0.67 0.61 0.64 0.64 0.61 0.67 0.58 0.66 0.52 0.76 0.53 0.77 0.51 0.71 0.41 0.74 0.38 0.8 0.36 0.86 0.34 0.85 0.29 0.77 0.22 0.86 0.19 0.88 0.17 0.85 0.1 0.96 0.08 0.91 0.02 0 50.58 -3.55 -0.1 -3.44 -0.26 -3.47 -0.44 -3.4 -0.61 -3.34 -0.77 -3.33 -0.96 -3.19 -1.09 -3.08 -1.22 -3.06 -1.38 -3 -1.54 -2.93 -1.69 -2.75 -1.77 -2.66 -1.89 -2.62 -2.06 -2.49 -2.16 -2.38 -2.27 -2.27 -2.38 -2.16 -2.49 -2.06 -2.62 -1.88 -2.65 -1.77 -2.75 -1.69 -2.92 -1.53 -2.99 -1.38 -3.05 -1.22 -3.07 -1.08 -3.17 -0.95 -3.32 -0.77 -3.33 -0.61 -3.38 -0.43 -3.45 -0.27 -3.42 -0.09 -3.54 0 0zm50.8 -1182.52l0 1182.52 -50.8 0 0 -1182.52 0 0 50.8 0zm18.05 -68.74l0 50.58 0 0 -0.91 0.02 -0.96 0.08 -0.85 0.1 -0.88 0.17 -0.86 0.19 -0.77 0.22 -0.85 0.29 -0.86 0.34 -0.8 0.36 -0.74 0.38 -0.71 0.41 -0.77 0.51 -0.76 0.53 -0.66 0.52 -0.67 0.58 -0.64 0.61 -0.61 0.64 -0.58 0.67 -0.52 0.66 -0.54 0.77 -0.51 0.77 -0.41 0.72 -0.39 0.75 -0.36 0.81 -0.34 0.87 -0.3 0.87 -0.23 0.78 -0.19 0.87 -0.17 0.9 -0.11 0.87 -0.07 0.98 -0.03 0.92 -50.8 0 0.09 -3.54 0.27 -3.42 0.43 -3.45 0.61 -3.38 0.77 -3.33 0.95 -3.32 1.08 -3.17 1.22 -3.07 1.38 -3.05 1.53 -2.99 1.69 -2.92 1.77 -2.75 1.88 -2.65 2.06 -2.62 2.16 -2.49 2.27 -2.38 2.38 -2.27 2.49 -2.16 2.62 -2.06 2.66 -1.89 2.75 -1.77 2.93 -1.69 3 -1.54 3.06 -1.38 3.08 -1.22 3.19 -1.09 3.33 -0.96 3.34 -0.77 3.4 -0.61 3.47 -0.44 3.44 -0.26 3.55 -0.1 0 0z"/>
   </g>
   <g>
    <path class="fil0" d="M2574.04 1761.25l-91.62 0 0 -50.58 91.62 0 0 0 0 50.58zm68.85 18.16l-50.8 0 0 0 -0.03 -0.92 -0.07 -0.98 -0.11 -0.87 -0.17 -0.9 -0.19 -0.87 -0.23 -0.78 -0.3 -0.87 -0.34 -0.87 -0.36 -0.81 -0.39 -0.75 -0.41 -0.72 -0.51 -0.77 -0.54 -0.77 -0.52 -0.66 -0.58 -0.67 -0.61 -0.64 -0.64 -0.61 -0.67 -0.58 -0.66 -0.52 -0.76 -0.53 -0.77 -0.51 -0.71 -0.41 -0.74 -0.38 -0.8 -0.36 -0.86 -0.34 -0.85 -0.29 -0.77 -0.22 -0.86 -0.19 -0.88 -0.17 -0.85 -0.1 -0.96 -0.08 -0.91 -0.02 0 -50.58 3.55 0.1 3.44 0.26 3.47 0.44 3.4 0.61 3.34 0.77 3.33 0.96 3.19 1.09 3.08 1.22 3.06 1.38 3 1.54 2.93 1.69 2.75 1.77 2.66 1.89 2.62 2.06 2.49 2.16 2.38 2.27 2.27 2.38 2.16 2.49 2.06 2.62 1.88 2.65 1.77 2.75 1.69 2.92 1.53 2.99 1.38 3.05 1.22 3.07 1.08 3.17 0.95 3.32 0.77 3.33 0.61 3.38 0.43 3.45 0.27 3.42 0.09 3.54 0 0zm-50.8 1182.52l0 -1182.52 50.8 0 0 1182.52 0 0 -50.8 0zm-18.05 68.74l0 -50.58 0 0 0.91 -0.02 0.96 -0.08 0.85 -0.1 0.88 -0.17 0.86 -0.19 0.77 -0.22 0.85 -0.29 0.86 -0.34 0.8 -0.36 0.74 -0.38 0.71 -0.41 0.77 -0.51 0.76 -0.53 0.66 -0.52 0.67 -0.58 0.64 -0.61 0.61 -0.64 0.58 -0.67 0.52 -0.66 0.54 -0.77 0.51 -0.77 0.41 -0.72 0.39 -0.75 0.36 -0.81 0.34 -0.87 0.3 -0.87 0.23 -0.78 0.19 -0.87 0.17 -0.9 0.11 -0.87 0.07 -0.98 0.03 -0.92 50.8 0 -0.09 3.54 -0.27 3.42 -0.43 3.45 -0.61 3.38 -0.77 3.33 -0.95 3.32 -1.08 3.17 -1.22 3.07 -1.38 3.05 -1.53 2.99 -1.69 2.92 -1.77 2.75 -1.88 2.65 -2.06 2.62 -2.16 2.49 -2.27 2.38 -2.38 2.27 -2.49 2.16 -2.62 2.06 -2.66 1.89 -2.75 1.77 -2.93 1.69 -3 1.54 -3.06 1.38 -3.08 1.22 -3.19 1.09 -3.33 0.96 -3.34 0.77 -3.4 0.61 -3.47 0.44 -3.44 0.26 -3.55 0.1 0 0zm-91.62 -50.58l91.62 0 0 50.58 -91.62 0 0 0 0 -50.58zm-68.85 -18.16l50.8 0 0 0 0.03 0.92 0.07 0.98 0.11 0.87 0.17 0.9 0.19 0.87 0.23 0.78 0.3 0.87 0.34 0.87 0.36 0.81 0.39 0.75 0.41 0.72 0.51 0.77 0.54 0.77 0.52 0.66 0.58 0.67 0.61 0.64 0.64 0.61 0.67 0.58 0.66 0.52 0.76 0.53 0.77 0.51 0.71 0.41 0.74 0.38 0.8 0.36 0.86 0.34 0.85 0.29 0.77 0.22 0.86 0.19 0.88 0.17 0.85 0.1 0.96 0.08 0.91 0.02 0 50.58 -3.55 -0.1 -3.44 -0.26 -3.47 -0.44 -3.4 -0.61 -3.34 -0.77 -3.33 -0.96 -3.19 -1.09 -3.08 -1.22 -3.06 -1.38 -3 -1.54 -2.93 -1.69 -2.75 -1.77 -2.66 -1.89 -2.62 -2.06 -2.49 -2.16 -2.38 -2.27 -2.27 -2.38 -2.16 -2.49 -2.06 -2.62 -1.88 -2.65 -1.77 -2.75 -1.69 -2.92 -1.53 -2.99 -1.38 -3.05 -1.22 -3.07 -1.08 -3.17 -0.95 -3.32 -0.77 -3.33 -0.61 -3.38 -0.43 -3.45 -0.27 -3.42 -0.09 -3.54 0 0zm50.8 -1182.52l0 1182.52 -50.8 0 0 -1182.52 0 0 50.8 0zm18.05 -68.74l0 50.58 0 0 -0.91 0.02 -0.96 0.08 -0.85 0.1 -0.88 0.17 -0.86 0.19 -0.77 0.22 -0.85 0.29 -0.86 0.34 -0.8 0.36 -0.74 0.38 -0.71 0.41 -0.77 0.51 -0.76 0.53 -0.66 0.52 -0.67 0.58 -0.64 0.61 -0.61 0.64 -0.58 0.67 -0.52 0.66 -0.54 0.77 -0.51 0.77 -0.41 0.72 -0.39 0.75 -0.36 0.81 -0.34 0.87 -0.3 0.87 -0.23 0.78 -0.19 0.87 -0.17 0.9 -0.11 0.87 -0.07 0.98 -0.03 0.92 -50.8 0 0.09 -3.54 0.27 -3.42 0.43 -3.45 0.61 -3.38 0.77 -3.33 0.95 -3.32 1.08 -3.17 1.22 -3.07 1.38 -3.05 1.53 -2.99 1.69 -2.92 1.77 -2.75 1.88 -2.65 2.06 -2.62 2.16 -2.49 2.27 -2.38 2.38 -2.27 2.49 -2.16 2.62 -2.06 2.66 -1.89 2.75 -1.77 2.93 -1.69 3 -1.54 3.06 -1.38 3.08 -1.22 3.19 -1.09 3.33 -0.96 3.34 -0.77 3.4 -0.61 3.47 -0.44 3.44 -0.26 3.55 -0.1 0 0z"/>
   </g>
   <g>
    <path class="fil0" d="M989.48 1761.25l-91.62 0 0 -50.58 91.62 0 0 0 0 50.58zm68.85 18.16l-50.8 0 0 0 -0.03 -0.92 -0.07 -0.98 -0.11 -0.87 -0.17 -0.9 -0.19 -0.87 -0.23 -0.78 -0.3 -0.87 -0.34 -0.87 -0.36 -0.81 -0.39 -0.75 -0.41 -0.72 -0.51 -0.77 -0.54 -0.77 -0.52 -0.66 -0.58 -0.67 -0.61 -0.64 -0.64 -0.61 -0.67 -0.58 -0.66 -0.52 -0.76 -0.53 -0.77 -0.51 -0.71 -0.41 -0.74 -0.38 -0.8 -0.36 -0.86 -0.34 -0.85 -0.29 -0.77 -0.22 -0.86 -0.19 -0.88 -0.17 -0.85 -0.1 -0.96 -0.08 -0.91 -0.02 0 -50.58 3.55 0.1 3.44 0.26 3.47 0.44 3.4 0.61 3.34 0.77 3.33 0.96 3.19 1.09 3.08 1.22 3.06 1.38 3 1.54 2.93 1.69 2.75 1.77 2.66 1.89 2.62 2.06 2.49 2.16 2.38 2.27 2.27 2.38 2.16 2.49 2.06 2.62 1.88 2.65 1.77 2.75 1.69 2.92 1.53 2.99 1.38 3.05 1.22 3.07 1.08 3.17 0.95 3.32 0.77 3.33 0.61 3.38 0.43 3.45 0.27 3.42 0.09 3.54 0 0zm-50.8 1182.52l0 -1182.52 50.8 0 0 1182.52 0 0 -50.8 0zm-18.05 68.74l0 -50.58 0 0 0.91 -0.02 0.96 -0.08 0.85 -0.1 0.88 -0.17 0.86 -0.19 0.77 -0.22 0.85 -0.29 0.86 -0.34 0.8 -0.36 0.74 -0.38 0.71 -0.41 0.77 -0.51 0.76 -0.53 0.66 -0.52 0.67 -0.58 0.64 -0.61 0.61 -0.64 0.58 -0.67 0.52 -0.66 0.54 -0.77 0.51 -0.77 0.41 -0.72 0.39 -0.75 0.36 -0.81 0.34 -0.87 0.3 -0.87 0.23 -0.78 0.19 -0.87 0.17 -0.9 0.11 -0.87 0.07 -0.98 0.03 -0.92 50.8 0 -0.09 3.54 -0.27 3.42 -0.43 3.45 -0.61 3.38 -0.77 3.33 -0.95 3.32 -1.08 3.17 -1.22 3.07 -1.38 3.05 -1.53 2.99 -1.69 2.92 -1.77 2.75 -1.88 2.65 -2.06 2.62 -2.16 2.49 -2.27 2.38 -2.38 2.27 -2.49 2.16 -2.62 2.06 -2.66 1.89 -2.75 1.77 -2.93 1.69 -3 1.54 -3.06 1.38 -3.08 1.22 -3.19 1.09 -3.33 0.96 -3.34 0.77 -3.4 0.61 -3.47 0.44 -3.44 0.26 -3.55 0.1 0 0zm-91.62 -50.58l91.62 0 0 50.58 -91.62 0 0 0 0 -50.58zm-68.85 -18.16l50.8 0 0 0 0.03 0.92 0.07 0.98 0.11 0.87 0.17 0.9 0.19 0.87 0.23 0.78 0.3 0.87 0.34 0.87 0.36 0.81 0.39 0.75 0.41 0.72 0.51 0.77 0.54 0.77 0.52 0.66 0.58 0.67 0.61 0.64 0.64 0.61 0.67 0.58 0.66 0.52 0.76 0.53 0.77 0.51 0.71 0.41 0.74 0.38 0.8 0.36 0.86 0.34 0.85 0.29 0.77 0.22 0.86 0.19 0.88 0.17 0.85 0.1 0.96 0.08 0.91 0.02 0 50.58 -3.55 -0.1 -3.44 -0.26 -3.47 -0.44 -3.4 -0.61 -3.34 -0.77 -3.33 -0.96 -3.19 -1.09 -3.08 -1.22 -3.06 -1.38 -3 -1.54 -2.93 -1.69 -2.75 -1.77 -2.66 -1.89 -2.62 -2.06 -2.49 -2.16 -2.38 -2.27 -2.27 -2.38 -2.16 -2.49 -2.06 -2.62 -1.88 -2.65 -1.77 -2.75 -1.69 -2.92 -1.53 -2.99 -1.38 -3.05 -1.22 -3.07 -1.08 -3.17 -0.95 -3.32 -0.77 -3.33 -0.61 -3.38 -0.43 -3.45 -0.27 -3.42 -0.09 -3.54 0 0zm50.8 -1182.52l0 1182.52 -50.8 0 0 -1182.52 0 0 50.8 0zm18.05 -68.74l0 50.58 0 0 -0.91 0.02 -0.96 0.08 -0.85 0.1 -0.88 0.17 -0.86 0.19 -0.77 0.22 -0.85 0.29 -0.86 0.34 -0.8 0.36 -0.74 0.38 -0.71 0.41 -0.77 0.51 -0.76 0.53 -0.66 0.52 -0.67 0.58 -0.64 0.61 -0.61 0.64 -0.58 0.67 -0.52 0.66 -0.54 0.77 -0.51 0.77 -0.41 0.72 -0.39 0.75 -0.36 0.81 -0.34 0.87 -0.3 0.87 -0.23 0.78 -0.19 0.87 -0.17 0.9 -0.11 0.87 -0.07 0.98 -0.03 0.92 -50.8 0 0.09 -3.54 0.27 -3.42 0.43 -3.45 0.61 -3.38 0.77 -3.33 0.95 -3.32 1.08 -3.17 1.22 -3.07 1.38 -3.05 1.53 -2.99 1.69 -2.92 1.77 -2.75 1.88 -2.65 2.06 -2.62 2.16 -2.49 2.27 -2.38 2.38 -2.27 2.49 -2.16 2.62 -2.06 2.66 -1.89 2.75 -1.77 2.93 -1.69 3 -1.54 3.06 -1.38 3.08 -1.22 3.19 -1.09 3.33 -0.96 3.34 -0.77 3.4 -0.61 3.47 -0.44 3.44 -0.26 3.55 -0.1 0 0z"/>
   </g>
   <g>
    <path class="fil0" d="M2970.18 1761.25l-91.62 0 0 -50.58 91.62 0 0 0 0 50.58zm68.85 18.16l-50.8 0 0 0 -0.03 -0.92 -0.07 -0.98 -0.11 -0.87 -0.17 -0.9 -0.19 -0.87 -0.23 -0.78 -0.3 -0.87 -0.34 -0.87 -0.36 -0.81 -0.39 -0.75 -0.41 -0.72 -0.51 -0.77 -0.54 -0.77 -0.52 -0.66 -0.58 -0.67 -0.61 -0.64 -0.64 -0.61 -0.67 -0.58 -0.66 -0.52 -0.76 -0.53 -0.77 -0.51 -0.71 -0.41 -0.74 -0.38 -0.8 -0.36 -0.86 -0.34 -0.85 -0.29 -0.77 -0.22 -0.86 -0.19 -0.88 -0.17 -0.85 -0.1 -0.96 -0.08 -0.91 -0.02 0 -50.58 3.55 0.1 3.44 0.26 3.47 0.44 3.4 0.61 3.34 0.77 3.33 0.96 3.19 1.09 3.08 1.22 3.06 1.38 3 1.54 2.93 1.69 2.75 1.77 2.66 1.89 2.62 2.06 2.49 2.16 2.38 2.27 2.27 2.38 2.16 2.49 2.06 2.62 1.88 2.65 1.77 2.75 1.69 2.92 1.53 2.99 1.38 3.05 1.22 3.07 1.08 3.17 0.95 3.32 0.77 3.33 0.61 3.38 0.43 3.45 0.27 3.42 0.09 3.54 0 0zm-50.8 1182.52l0 -1182.52 50.8 0 0 1182.52 0 0 -50.8 0zm-18.05 68.74l0 -50.58 0 0 0.91 -0.02 0.96 -0.08 0.85 -0.1 0.88 -0.17 0.86 -0.19 0.77 -0.22 0.85 -0.29 0.86 -0.34 0.8 -0.36 0.74 -0.38 0.71 -0.41 0.77 -0.51 0.76 -0.53 0.66 -0.52 0.67 -0.58 0.64 -0.61 0.61 -0.64 0.58 -0.67 0.52 -0.66 0.54 -0.77 0.51 -0.77 0.41 -0.72 0.39 -0.75 0.36 -0.81 0.34 -0.87 0.3 -0.87 0.23 -0.78 0.19 -0.87 0.17 -0.9 0.11 -0.87 0.07 -0.98 0.03 -0.92 50.8 0 -0.09 3.54 -0.27 3.42 -0.43 3.45 -0.61 3.38 -0.77 3.33 -0.95 3.32 -1.08 3.17 -1.22 3.07 -1.38 3.05 -1.53 2.99 -1.69 2.92 -1.77 2.75 -1.88 2.65 -2.06 2.62 -2.16 2.49 -2.27 2.38 -2.38 2.27 -2.49 2.16 -2.62 2.06 -2.66 1.89 -2.75 1.77 -2.93 1.69 -3 1.54 -3.06 1.38 -3.08 1.22 -3.19 1.09 -3.33 0.96 -3.34 0.77 -3.4 0.61 -3.47 0.44 -3.44 0.26 -3.55 0.1 0 0zm-91.62 -50.58l91.62 0 0 50.58 -91.62 0 0 0 0 -50.58zm-68.85 -18.16l50.8 0 0 0 0.03 0.92 0.07 0.98 0.11 0.87 0.17 0.9 0.19 0.87 0.23 0.78 0.3 0.87 0.34 0.87 0.36 0.81 0.39 0.75 0.41 0.72 0.51 0.77 0.54 0.77 0.52 0.66 0.58 0.67 0.61 0.64 0.64 0.61 0.67 0.58 0.66 0.52 0.76 0.53 0.77 0.51 0.71 0.41 0.74 0.38 0.8 0.36 0.86 0.34 0.85 0.29 0.77 0.22 0.86 0.19 0.88 0.17 0.85 0.1 0.96 0.08 0.91 0.02 0 50.58 -3.55 -0.1 -3.44 -0.26 -3.47 -0.44 -3.4 -0.61 -3.34 -0.77 -3.33 -0.96 -3.19 -1.09 -3.08 -1.22 -3.06 -1.38 -3 -1.54 -2.93 -1.69 -2.75 -1.77 -2.66 -1.89 -2.62 -2.06 -2.49 -2.16 -2.38 -2.27 -2.27 -2.38 -2.16 -2.49 -2.06 -2.62 -1.88 -2.65 -1.77 -2.75 -1.69 -2.92 -1.53 -2.99 -1.38 -3.05 -1.22 -3.07 -1.08 -3.17 -0.95 -3.32 -0.77 -3.33 -0.61 -3.38 -0.43 -3.45 -0.27 -3.42 -0.09 -3.54 0 0zm50.8 -1182.52l0 1182.52 -50.8 0 0 -1182.52 0 0 50.8 0zm18.05 -68.74l0 50.58 0 0 -0.91 0.02 -0.96 0.08 -0.85 0.1 -0.88 0.17 -0.86 0.19 -0.77 0.22 -0.85 0.29 -0.86 0.34 -0.8 0.36 -0.74 0.38 -0.71 0.41 -0.77 0.51 -0.76 0.53 -0.66 0.52 -0.67 0.58 -0.64 0.61 -0.61 0.64 -0.58 0.67 -0.52 0.66 -0.54 0.77 -0.51 0.77 -0.41 0.72 -0.39 0.75 -0.36 0.81 -0.34 0.87 -0.3 0.87 -0.23 0.78 -0.19 0.87 -0.17 0.9 -0.11 0.87 -0.07 0.98 -0.03 0.92 -50.8 0 0.09 -3.54 0.27 -3.42 0.43 -3.45 0.61 -3.38 0.77 -3.33 0.95 -3.32 1.08 -3.17 1.22 -3.07 1.38 -3.05 1.53 -2.99 1.69 -2.92 1.77 -2.75 1.88 -2.65 2.06 -2.62 2.16 -2.49 2.27 -2.38 2.38 -2.27 2.49 -2.16 2.62 -2.06 2.66 -1.89 2.75 -1.77 2.93 -1.69 3 -1.54 3.06 -1.38 3.08 -1.22 3.19 -1.09 3.33 -0.96 3.34 -0.77 3.4 -0.61 3.47 -0.44 3.44 -0.26 3.55 -0.1 0 0z"/>
   </g>
   <g>
    <path class="fil0" d="M1385.62 1761.25l-91.62 0 0 -50.58 91.62 0 0 0 0 50.58zm68.85 18.16l-50.8 0 0 0 -0.03 -0.92 -0.07 -0.98 -0.11 -0.87 -0.17 -0.9 -0.19 -0.87 -0.23 -0.78 -0.3 -0.87 -0.34 -0.87 -0.36 -0.81 -0.39 -0.75 -0.41 -0.72 -0.51 -0.77 -0.54 -0.77 -0.52 -0.66 -0.58 -0.67 -0.61 -0.64 -0.64 -0.61 -0.67 -0.58 -0.66 -0.52 -0.76 -0.53 -0.77 -0.51 -0.71 -0.41 -0.74 -0.38 -0.8 -0.36 -0.86 -0.34 -0.85 -0.29 -0.77 -0.22 -0.86 -0.19 -0.88 -0.17 -0.85 -0.1 -0.96 -0.08 -0.91 -0.02 0 -50.58 3.55 0.1 3.44 0.26 3.47 0.44 3.4 0.61 3.34 0.77 3.33 0.96 3.19 1.09 3.08 1.22 3.06 1.38 3 1.54 2.93 1.69 2.75 1.77 2.66 1.89 2.62 2.06 2.49 2.16 2.38 2.27 2.27 2.38 2.16 2.49 2.06 2.62 1.88 2.65 1.77 2.75 1.69 2.92 1.53 2.99 1.38 3.05 1.22 3.07 1.08 3.17 0.95 3.32 0.77 3.33 0.61 3.38 0.43 3.45 0.27 3.42 0.09 3.54 0 0zm-50.8 1182.52l0 -1182.52 50.8 0 0 1182.52 0 0 -50.8 0zm-18.05 68.74l0 -50.58 0 0 0.91 -0.02 0.96 -0.08 0.85 -0.1 0.88 -0.17 0.86 -0.19 0.77 -0.22 0.85 -0.29 0.86 -0.34 0.8 -0.36 0.74 -0.38 0.71 -0.41 0.77 -0.51 0.76 -0.53 0.66 -0.52 0.67 -0.58 0.64 -0.61 0.61 -0.64 0.58 -0.67 0.52 -0.66 0.54 -0.77 0.51 -0.77 0.41 -0.72 0.39 -0.75 0.36 -0.81 0.34 -0.87 0.3 -0.87 0.23 -0.78 0.19 -0.87 0.17 -0.9 0.11 -0.87 0.07 -0.98 0.03 -0.92 50.8 0 -0.09 3.54 -0.27 3.42 -0.43 3.45 -0.61 3.38 -0.77 3.33 -0.95 3.32 -1.08 3.17 -1.22 3.07 -1.38 3.05 -1.53 2.99 -1.69 2.92 -1.77 2.75 -1.88 2.65 -2.06 2.62 -2.16 2.49 -2.27 2.38 -2.38 2.27 -2.49 2.16 -2.62 2.06 -2.66 1.89 -2.75 1.77 -2.93 1.69 -3 1.54 -3.06 1.38 -3.08 1.22 -3.19 1.09 -3.33 0.96 -3.34 0.77 -3.4 0.61 -3.47 0.44 -3.44 0.26 -3.55 0.1 0 0zm-91.62 -50.58l91.62 0 0 50.58 -91.62 0 0 0 0 -50.58zm-68.85 -18.16l50.8 0 0 0 0.03 0.92 0.07 0.98 0.11 0.87 0.17 0.9 0.19 0.87 0.23 0.78 0.3 0.87 0.34 0.87 0.36 0.81 0.39 0.75 0.41 0.72 0.51 0.77 0.54 0.77 0.52 0.66 0.58 0.67 0.61 0.64 0.64 0.61 0.67 0.58 0.66 0.52 0.76 0.53 0.77 0.51 0.71 0.41 0.74 0.38 0.8 0.36 0.86 0.34 0.85 0.29 0.77 0.22 0.86 0.19 0.88 0.17 0.85 0.1 0.96 0.08 0.91 0.02 0 50.58 -3.55 -0.1 -3.44 -0.26 -3.47 -0.44 -3.4 -0.61 -3.34 -0.77 -3.33 -0.96 -3.19 -1.09 -3.08 -1.22 -3.06 -1.38 -3 -1.54 -2.93 -1.69 -2.75 -1.77 -2.66 -1.89 -2.62 -2.06 -2.49 -2.16 -2.38 -2.27 -2.27 -2.38 -2.16 -2.49 -2.06 -2.62 -1.88 -2.65 -1.77 -2.75 -1.69 -2.92 -1.53 -2.99 -1.38 -3.05 -1.22 -3.07 -1.08 -3.17 -0.95 -3.32 -0.77 -3.33 -0.61 -3.38 -0.43 -3.45 -0.27 -3.42 -0.09 -3.54 0 0zm50.8 -1182.52l0 1182.52 -50.8 0 0 -1182.52 0 0 50.8 0zm18.05 -68.74l0 50.58 0 0 -0.91 0.02 -0.96 0.08 -0.85 0.1 -0.88 0.17 -0.86 0.19 -0.77 0.22 -0.85 0.29 -0.86 0.34 -0.8 0.36 -0.74 0.38 -0.71 0.41 -0.77 0.51 -0.76 0.53 -0.66 0.52 -0.67 0.58 -0.64 0.61 -0.61 0.64 -0.58 0.67 -0.52 0.66 -0.54 0.77 -0.51 0.77 -0.41 0.72 -0.39 0.75 -0.36 0.81 -0.34 0.87 -0.3 0.87 -0.23 0.78 -0.19 0.87 -0.17 0.9 -0.11 0.87 -0.07 0.98 -0.03 0.92 -50.8 0 0.09 -3.54 0.27 -3.42 0.43 -3.45 0.61 -3.38 0.77 -3.33 0.95 -3.32 1.08 -3.17 1.22 -3.07 1.38 -3.05 1.53 -2.99 1.69 -2.92 1.77 -2.75 1.88 -2.65 2.06 -2.62 2.16 -2.49 2.27 -2.38 2.38 -2.27 2.49 -2.16 2.62 -2.06 2.66 -1.89 2.75 -1.77 2.93 -1.69 3 -1.54 3.06 -1.38 3.08 -1.22 3.19 -1.09 3.33 -0.96 3.34 -0.77 3.4 -0.61 3.47 -0.44 3.44 -0.26 3.55 -0.1 0 0z"/>
   </g>
   <g>
    <path class="fil0" d="M3366.33 1761.25l-91.62 0 0 -50.58 91.62 0 0 0 0 50.58zm68.85 18.16l-50.8 0 0 0 -0.03 -0.92 -0.07 -0.98 -0.11 -0.87 -0.17 -0.9 -0.19 -0.87 -0.23 -0.78 -0.3 -0.87 -0.34 -0.87 -0.36 -0.81 -0.39 -0.75 -0.41 -0.72 -0.51 -0.77 -0.54 -0.77 -0.52 -0.66 -0.58 -0.67 -0.61 -0.64 -0.64 -0.61 -0.67 -0.58 -0.66 -0.52 -0.76 -0.53 -0.77 -0.51 -0.71 -0.41 -0.74 -0.38 -0.8 -0.36 -0.86 -0.34 -0.85 -0.29 -0.77 -0.22 -0.86 -0.19 -0.88 -0.17 -0.85 -0.1 -0.96 -0.08 -0.91 -0.02 0 -50.58 3.55 0.1 3.44 0.26 3.47 0.44 3.4 0.61 3.34 0.77 3.33 0.96 3.19 1.09 3.08 1.22 3.06 1.38 3 1.54 2.93 1.69 2.75 1.77 2.66 1.89 2.62 2.06 2.49 2.16 2.38 2.27 2.27 2.38 2.16 2.49 2.06 2.62 1.88 2.65 1.77 2.75 1.69 2.92 1.53 2.99 1.38 3.05 1.22 3.07 1.08 3.17 0.95 3.32 0.77 3.33 0.61 3.38 0.43 3.45 0.27 3.42 0.09 3.54 0 0zm-50.8 1182.52l0 -1182.52 50.8 0 0 1182.52 0 0 -50.8 0zm-18.05 68.74l0 -50.58 0 0 0.91 -0.02 0.96 -0.08 0.85 -0.1 0.88 -0.17 0.86 -0.19 0.77 -0.22 0.85 -0.29 0.86 -0.34 0.8 -0.36 0.74 -0.38 0.71 -0.41 0.77 -0.51 0.76 -0.53 0.66 -0.52 0.67 -0.58 0.64 -0.61 0.61 -0.64 0.58 -0.67 0.52 -0.66 0.54 -0.77 0.51 -0.77 0.41 -0.72 0.39 -0.75 0.36 -0.81 0.34 -0.87 0.3 -0.87 0.23 -0.78 0.19 -0.87 0.17 -0.9 0.11 -0.87 0.07 -0.98 0.03 -0.92 50.8 0 -0.09 3.54 -0.27 3.42 -0.43 3.45 -0.61 3.38 -0.77 3.33 -0.95 3.32 -1.08 3.17 -1.22 3.07 -1.38 3.05 -1.53 2.99 -1.69 2.92 -1.77 2.75 -1.88 2.65 -2.06 2.62 -2.16 2.49 -2.27 2.38 -2.38 2.27 -2.49 2.16 -2.62 2.06 -2.66 1.89 -2.75 1.77 -2.93 1.69 -3 1.54 -3.06 1.38 -3.08 1.22 -3.19 1.09 -3.33 0.96 -3.34 0.77 -3.4 0.61 -3.47 0.44 -3.44 0.26 -3.55 0.1 0 0zm-91.62 -50.58l91.62 0 0 50.58 -91.62 0 0 0 0 -50.58zm-68.85 -18.16l50.8 0 0 0 0.03 0.92 0.07 0.98 0.11 0.87 0.17 0.9 0.19 0.87 0.23 0.78 0.3 0.87 0.34 0.87 0.36 0.81 0.39 0.75 0.41 0.72 0.51 0.77 0.54 0.77 0.52 0.66 0.58 0.67 0.61 0.64 0.64 0.61 0.67 0.58 0.66 0.52 0.76 0.53 0.77 0.51 0.71 0.41 0.74 0.38 0.8 0.36 0.86 0.34 0.85 0.29 0.77 0.22 0.86 0.19 0.88 0.17 0.85 0.1 0.96 0.08 0.91 0.02 0 50.58 -3.55 -0.1 -3.44 -0.26 -3.47 -0.44 -3.4 -0.61 -3.34 -0.77 -3.33 -0.96 -3.19 -1.09 -3.08 -1.22 -3.06 -1.38 -3 -1.54 -2.93 -1.69 -2.75 -1.77 -2.66 -1.89 -2.62 -2.06 -2.49 -2.16 -2.38 -2.27 -2.27 -2.38 -2.16 -2.49 -2.06 -2.62 -1.88 -2.65 -1.77 -2.75 -1.69 -2.92 -1.53 -2.99 -1.38 -3.05 -1.22 -3.07 -1.08 -3.17 -0.95 -3.32 -0.77 -3.33 -0.61 -3.38 -0.43 -3.45 -0.27 -3.42 -0.09 -3.54 0 0zm50.8 -1182.52l0 1182.52 -50.8 0 0 -1182.52 0 0 50.8 0zm18.05 -68.74l0 50.58 0 0 -0.91 0.02 -0.96 0.08 -0.85 0.1 -0.88 0.17 -0.86 0.19 -0.77 0.22 -0.85 0.29 -0.86 0.34 -0.8 0.36 -0.74 0.38 -0.71 0.41 -0.77 0.51 -0.76 0.53 -0.66 0.52 -0.67 0.58 -0.64 0.61 -0.61 0.64 -0.58 0.67 -0.52 0.66 -0.54 0.77 -0.51 0.77 -0.41 0.72 -0.39 0.75 -0.36 0.81 -0.34 0.87 -0.3 0.87 -0.23 0.78 -0.19 0.87 -0.17 0.9 -0.11 0.87 -0.07 0.98 -0.03 0.92 -50.8 0 0.09 -3.54 0.27 -3.42 0.43 -3.45 0.61 -3.38 0.77 -3.33 0.95 -3.32 1.08 -3.17 1.22 -3.07 1.38 -3.05 1.53 -2.99 1.69 -2.92 1.77 -2.75 1.88 -2.65 2.06 -2.62 2.16 -2.49 2.27 -2.38 2.38 -2.27 2.49 -2.16 2.62 -2.06 2.66 -1.89 2.75 -1.77 2.93 -1.69 3 -1.54 3.06 -1.38 3.08 -1.22 3.19 -1.09 3.33 -0.96 3.34 -0.77 3.4 -0.61 3.47 -0.44 3.44 -0.26 3.55 -0.1 0 0z"/>
   </g>
   <g>
    <path class="fil0" d="M1781.76 1761.25l-91.62 0 0 -50.58 91.62 0 0 0 0 50.58zm68.85 18.16l-50.8 0 0 0 -0.03 -0.92 -0.07 -0.98 -0.11 -0.87 -0.17 -0.9 -0.19 -0.87 -0.23 -0.78 -0.3 -0.87 -0.34 -0.87 -0.36 -0.81 -0.39 -0.75 -0.41 -0.72 -0.51 -0.77 -0.54 -0.77 -0.52 -0.66 -0.58 -0.67 -0.61 -0.64 -0.64 -0.61 -0.67 -0.58 -0.66 -0.52 -0.76 -0.53 -0.77 -0.51 -0.71 -0.41 -0.74 -0.38 -0.8 -0.36 -0.86 -0.34 -0.85 -0.29 -0.77 -0.22 -0.86 -0.19 -0.88 -0.17 -0.85 -0.1 -0.96 -0.08 -0.91 -0.02 0 -50.58 3.55 0.1 3.44 0.26 3.47 0.44 3.4 0.61 3.34 0.77 3.33 0.96 3.19 1.09 3.08 1.22 3.06 1.38 3 1.54 2.93 1.69 2.75 1.77 2.66 1.89 2.62 2.06 2.49 2.16 2.38 2.27 2.27 2.38 2.16 2.49 2.06 2.62 1.88 2.65 1.77 2.75 1.69 2.92 1.53 2.99 1.38 3.05 1.22 3.07 1.08 3.17 0.95 3.32 0.77 3.33 0.61 3.38 0.43 3.45 0.27 3.42 0.09 3.54 0 0zm-50.8 1182.52l0 -1182.52 50.8 0 0 1182.52 0 0 -50.8 0zm-18.05 68.74l0 -50.58 0 0 0.91 -0.02 0.96 -0.08 0.85 -0.1 0.88 -0.17 0.86 -0.19 0.77 -0.22 0.85 -0.29 0.86 -0.34 0.8 -0.36 0.74 -0.38 0.71 -0.41 0.77 -0.51 0.76 -0.53 0.66 -0.52 0.67 -0.58 0.64 -0.61 0.61 -0.64 0.58 -0.67 0.52 -0.66 0.54 -0.77 0.51 -0.77 0.41 -0.72 0.39 -0.75 0.36 -0.81 0.34 -0.87 0.3 -0.87 0.23 -0.78 0.19 -0.87 0.17 -0.9 0.11 -0.87 0.07 -0.98 0.03 -0.92 50.8 0 -0.09 3.54 -0.27 3.42 -0.43 3.45 -0.61 3.38 -0.77 3.33 -0.95 3.32 -1.08 3.17 -1.22 3.07 -1.38 3.05 -1.53 2.99 -1.69 2.92 -1.77 2.75 -1.88 2.65 -2.06 2.62 -2.16 2.49 -2.27 2.38 -2.38 2.27 -2.49 2.16 -2.62 2.06 -2.66 1.89 -2.75 1.77 -2.93 1.69 -3 1.54 -3.06 1.38 -3.08 1.22 -3.19 1.09 -3.33 0.96 -3.34 0.77 -3.4 0.61 -3.47 0.44 -3.44 0.26 -3.55 0.1 0 0zm-91.62 -50.58l91.62 0 0 50.58 -91.62 0 0 0 0 -50.58zm-68.85 -18.16l50.8 0 0 0 0.03 0.92 0.07 0.98 0.11 0.87 0.17 0.9 0.19 0.87 0.23 0.78 0.3 0.87 0.34 0.87 0.36 0.81 0.39 0.75 0.41 0.72 0.51 0.77 0.54 0.77 0.52 0.66 0.58 0.67 0.61 0.64 0.64 0.61 0.67 0.58 0.66 0.52 0.76 0.53 0.77 0.51 0.71 0.41 0.74 0.38 0.8 0.36 0.86 0.34 0.85 0.29 0.77 0.22 0.86 0.19 0.88 0.17 0.85 0.1 0.96 0.08 0.91 0.02 0 50.58 -3.55 -0.1 -3.44 -0.26 -3.47 -0.44 -3.4 -0.61 -3.34 -0.77 -3.33 -0.96 -3.19 -1.09 -3.08 -1.22 -3.06 -1.38 -3 -1.54 -2.93 -1.69 -2.75 -1.77 -2.66 -1.89 -2.62 -2.06 -2.49 -2.16 -2.38 -2.27 -2.27 -2.38 -2.16 -2.49 -2.06 -2.62 -1.88 -2.65 -1.77 -2.75 -1.69 -2.92 -1.53 -2.99 -1.38 -3.05 -1.22 -3.07 -1.08 -3.17 -0.95 -3.32 -0.77 -3.33 -0.61 -3.38 -0.43 -3.45 -0.27 -3.42 -0.09 -3.54 0 0zm50.8 -1182.52l0 1182.52 -50.8 0 0 -1182.52 0 0 50.8 0zm18.05 -68.74l0 50.58 0 0 -0.91 0.02 -0.96 0.08 -0.85 0.1 -0.88 0.17 -0.86 0.19 -0.77 0.22 -0.85 0.29 -0.86 0.34 -0.8 0.36 -0.74 0.38 -0.71 0.41 -0.77 0.51 -0.76 0.53 -0.66 0.52 -0.67 0.58 -0.64 0.61 -0.61 0.64 -0.58 0.67 -0.52 0.66 -0.54 0.77 -0.51 0.77 -0.41 0.72 -0.39 0.75 -0.36 0.81 -0.34 0.87 -0.3 0.87 -0.23 0.78 -0.19 0.87 -0.17 0.9 -0.11 0.87 -0.07 0.98 -0.03 0.92 -50.8 0 0.09 -3.54 0.27 -3.42 0.43 -3.45 0.61 -3.38 0.77 -3.33 0.95 -3.32 1.08 -3.17 1.22 -3.07 1.38 -3.05 1.53 -2.99 1.69 -2.92 1.77 -2.75 1.88 -2.65 2.06 -2.62 2.16 -2.49 2.27 -2.38 2.38 -2.27 2.49 -2.16 2.62 -2.06 2.66 -1.89 2.75 -1.77 2.93 -1.69 3 -1.54 3.06 -1.38 3.08 -1.22 3.19 -1.09 3.33 -0.96 3.34 -0.77 3.4 -0.61 3.47 -0.44 3.44 -0.26 3.55 -0.1 0 0z"/>
   </g>
   <g>
    <path class="fil1" d="M2077.12 499.24c-26.6,130.16 141.13,117.74 -8.46,380.44 -106.39,186.84 -4.19,390.76 70.72,343.33 53.21,-33.69 -32.15,-104.37 -31.83,-187.21 0.27,-70.77 48.24,-131.86 75.78,-186.26 66.04,-130.42 4.45,-401.28 -106.21,-350.3z"/>
    <path class="fil1" d="M1415.58 499.21c-27.89,140.14 147.94,104.57 -13.01,388.22 -75.48,133.02 -47.77,366.53 90.42,338.65 10.98,-92.88 -52.24,-98.86 -46.49,-203.01 3.33,-60.31 56.1,-134.17 79.66,-182.7 60.71,-125.04 -1.82,-390.64 -110.58,-341.16z"/>
    <path class="fil1" d="M2739.26 499.68c-21.56,129.43 138.78,127.2 -7.56,380.98 -78.81,136.66 -29.12,403.24 68.53,342.27 52.67,-32.88 -32.05,-108.61 -32.45,-187.26 -0.32,-62.65 50.59,-135.93 75.94,-185.71 62.66,-123.06 17.31,-387.27 -104.46,-350.28z"/>
   </g>
  </g>
  <path class="fil2" d="M-2001.88 10759.89c-267.25,116.17 -56.65,568.63 226.39,380.15 157.99,-105.21 92.06,-518.58 -226.39,-380.15z"/>
 </g>
</svg>
