<?xml version="1.0" encoding="UTF-8"?>
<!DOCTYPE svg PUBLIC "-//W3C//DTD SVG 1.1//EN" "http://www.w3.org/Graphics/SVG/1.1/DTD/svg11.dtd">
<!-- Creator: CorelDRAW 2020 (64 Bit) -->
<svg xmlns="http://www.w3.org/2000/svg" xml:space="preserve" width="42.3332mm" height="42.3332mm" version="1.1" style="shape-rendering:geometricPrecision; text-rendering:geometricPrecision; image-rendering:optimizeQuality; fill-rule:evenodd; clip-rule:evenodd"
viewBox="0 0 4233.32 4233.32"
 xmlns:xlink="http://www.w3.org/1999/xlink"
 xmlns:xodm="http://www.corel.com/coreldraw/odm/2003">
 <defs>
  <style type="text/css">
   <![CDATA[
    .str0 {stroke:black;stroke-width:33.87;stroke-miterlimit:22.9256}
    .fil1 {fill:none}
    .fil0 {fill:black;fill-rule:nonzero}
   ]]>
  </style>
 </defs>
 <g id="Camada_x0020_1">
  <metadata id="CorelCorpID_0Corel-Layer"/>
  <g id="_2550995177872">
   <g>
    <path class="fil0" d="M3568.94 2474.51l-2904.56 0 0 -33.88 2904.56 0 0 0 0 33.88zm117.45 83.78l-33.48 0 0 0 -0.11 -4.29 -0.32 -4.22 -0.54 -4.17 -0.74 -4.11 -0.93 -4.03 -1.13 -3.93 -1.32 -3.88 -1.5 -3.8 -1.68 -3.71 -1.85 -3.6 -2.02 -3.5 -2.19 -3.39 -2.36 -3.32 -2.49 -3.16 -2.64 -3.06 -2.79 -2.92 -2.94 -2.8 -3.04 -2.64 -3.18 -2.5 -3.31 -2.36 -3.4 -2.19 -3.52 -2.03 -3.62 -1.86 -3.73 -1.68 -3.8 -1.52 -3.91 -1.32 -3.97 -1.14 -4.03 -0.93 -4.16 -0.75 -4.18 -0.54 -4.25 -0.33 -4.32 -0.1 0 -33.88 6 0.16 5.95 0.45 5.86 0.76 5.74 1.03 5.69 1.31 5.57 1.6 5.45 1.86 5.32 2.1 5.19 2.36 5.06 2.6 4.92 2.83 4.78 3.07 4.59 3.28 4.44 3.48 4.26 3.7 4.08 3.9 3.89 4.08 3.7 4.26 3.49 4.44 3.28 4.6 3.07 4.77 2.84 4.94 2.61 5.08 2.36 5.21 2.12 5.34 1.86 5.46 1.61 5.61 1.31 5.71 1.04 5.77 0.76 5.89 0.46 5.98 0.15 6.03 0 0zm-33.48 904.7l0 -904.7 33.48 0 0 904.7 -16.74 16.94 -16.74 -16.94zm33.48 0l0 16.94 -16.74 0 16.74 -16.94zm-3122.73 -16.94l3105.99 0 0 33.88 -3105.99 0 -16.74 -16.94 16.74 -16.94zm0 33.88l-16.74 0 0 -16.94 16.74 16.94zm16.74 -921.64l0 904.7 -33.48 0 0 -904.7 0 0 33.48 0zm83.98 -117.66l0 33.88 0 0 -4.32 0.1 -4.25 0.33 -4.19 0.54 -4.15 0.75 -4.05 0.93 -3.95 1.14 -3.91 1.32 -3.82 1.52 -3.72 1.68 -3.62 1.86 -3.51 2.02 -3.4 2.2 -3.32 2.36 -3.17 2.5 -3.06 2.64 -2.93 2.8 -2.79 2.92 -2.64 3.06 -2.49 3.16 -2.36 3.32 -2.19 3.39 -2.02 3.5 -1.85 3.6 -1.68 3.71 -1.5 3.8 -1.32 3.88 -1.13 3.93 -0.93 4.03 -0.74 4.11 -0.54 4.17 -0.32 4.22 -0.11 4.29 -33.48 0 0.15 -6.03 0.46 -5.98 0.76 -5.89 1.04 -5.77 1.31 -5.71 1.61 -5.61 1.86 -5.46 2.12 -5.34 2.36 -5.21 2.61 -5.08 2.84 -4.94 3.07 -4.77 3.28 -4.6 3.49 -4.44 3.7 -4.26 3.89 -4.08 4.09 -3.9 4.26 -3.7 4.43 -3.48 4.6 -3.28 4.76 -3.06 4.93 -2.84 5.06 -2.6 5.2 -2.36 5.32 -2.1 5.43 -1.86 5.59 -1.6 5.69 -1.31 5.73 -1.03 5.87 -0.76 5.95 -0.45 6 -0.16 0 0z"/>
   </g>
   <path class="fil1 str0" d="M775.32 2457.57l2682.68 0 0 -1268.52c0,-92.99 -76.09,-169.07 -169.08,-169.07l-368.97 0 0 -55.81c0,-55.69 -45.56,-101.25 -101.25,-101.25l-1404.09 0c-55.69,0 -101.25,45.56 -101.25,101.25l0 55.81 -368.96 0c-92.99,0 -169.08,76.08 -169.08,169.07l0 1268.52z"/>
   <g>
    <path class="fil0" d="M3281.57 2474.48l-2329.82 0 0 -33.82 2329.82 0 16.94 16.91 -16.94 16.91zm16.94 -16.91l0 16.91 -16.94 0 16.94 -16.91zm0 -1111.43l0 1111.43 -33.88 0 0 -1111.43 0 0 33.88 0zm-163.78 -131.23l0 -33.82 0 0 8.4 0.21 8.3 0.65 8.17 1.05 8.08 1.46 7.92 1.86 7.78 2.24 7.6 2.62 7.44 2.97 7.25 3.32 7.06 3.66 6.86 3.98 6.65 4.32 6.42 4.61 6.18 4.91 5.94 5.18 5.7 5.48 5.42 5.75 5.14 5.98 4.86 6.24 4.57 6.46 4.26 6.69 3.95 6.92 3.63 7.11 3.28 7.3 2.94 7.49 2.59 7.65 2.22 7.84 1.83 7.97 1.44 8.1 1.05 8.24 0.63 8.35 0.22 8.44 -33.88 0 -0.16 -6.74 -0.51 -6.65 -0.83 -6.54 -1.16 -6.46 -1.45 -6.33 -1.76 -6.2 -2.05 -6.09 -2.34 -5.95 -2.62 -5.82 -2.87 -5.65 -3.15 -5.5 -3.4 -5.33 -3.63 -5.16 -3.88 -4.96 -4.1 -4.78 -4.32 -4.57 -4.52 -4.34 -4.74 -4.14 -4.92 -3.91 -5.1 -3.67 -5.27 -3.42 -5.44 -3.16 -5.6 -2.9 -5.75 -2.64 -5.88 -2.35 -6.02 -2.06 -6.14 -1.78 -6.24 -1.46 -6.36 -1.16 -6.47 -0.83 -6.56 -0.51 -6.66 -0.17 0 0zm-320.44 -33.82l320.44 0 0 33.82 -320.44 0 -16.94 -16.91 16.94 -16.91zm0 33.82l-16.94 0 0 -16.91 16.94 16.91zm16.94 -65.8l0 48.89 -33.88 0 0 -48.89 0 0 33.88 0zm-104.87 -71.81l0 -33.82 0 0 5.38 0.14 5.32 0.41 5.24 0.68 5.17 0.93 5.09 1.2 4.97 1.43 4.87 1.67 4.77 1.9 4.66 2.13 4.51 2.35 4.4 2.55 4.25 2.76 4.1 2.95 3.98 3.15 3.79 3.33 3.63 3.49 3.47 3.67 3.3 3.83 3.1 3.99 2.93 4.13 2.72 4.28 2.54 4.43 2.31 4.55 2.1 4.67 1.88 4.79 1.66 4.91 1.41 5 1.19 5.12 0.91 5.19 0.67 5.25 0.41 5.34 0.14 5.41 -33.88 0 -0.08 -3.69 -0.29 -3.64 -0.45 -3.61 -0.63 -3.51 -0.79 -3.46 -0.97 -3.4 -1.12 -3.33 -1.28 -3.25 -1.44 -3.19 -1.57 -3.09 -1.72 -3.01 -1.86 -2.92 -1.99 -2.83 -2.12 -2.71 -2.24 -2.61 -2.37 -2.51 -2.49 -2.39 -2.59 -2.27 -2.68 -2.13 -2.8 -2.01 -2.87 -1.86 -2.98 -1.73 -3.07 -1.59 -3.12 -1.43 -3.21 -1.28 -3.29 -1.13 -3.35 -0.97 -3.41 -0.8 -3.47 -0.63 -3.52 -0.46 -3.58 -0.27 -3.64 -0.1 0 0zm-1219.41 -33.82l1219.41 0 0 33.82 -1219.41 0 0 0 0 -33.82zm-70.99 105.63l-33.88 0 0 0 0.14 -5.41 0.41 -5.34 0.67 -5.25 0.91 -5.19 1.19 -5.12 1.41 -5 1.66 -4.91 1.88 -4.79 2.1 -4.67 2.31 -4.55 2.54 -4.43 2.72 -4.28 2.93 -4.13 3.1 -3.99 3.3 -3.83 3.47 -3.67 3.63 -3.49 3.79 -3.33 3.98 -3.15 4.1 -2.95 4.25 -2.76 4.4 -2.55 4.51 -2.35 4.66 -2.13 4.77 -1.9 4.87 -1.67 4.97 -1.43 5.09 -1.2 5.17 -0.93 5.24 -0.68 5.32 -0.41 5.38 -0.14 0 33.82 -3.64 0.1 -3.58 0.27 -3.52 0.46 -3.47 0.63 -3.41 0.8 -3.35 0.97 -3.29 1.13 -3.21 1.28 -3.12 1.43 -3.07 1.59 -2.98 1.73 -2.87 1.86 -2.8 2.01 -2.68 2.13 -2.59 2.27 -2.49 2.39 -2.37 2.51 -2.24 2.61 -2.12 2.71 -1.99 2.83 -1.86 2.92 -1.72 3.01 -1.57 3.09 -1.44 3.19 -1.28 3.25 -1.12 3.33 -0.97 3.4 -0.79 3.46 -0.63 3.51 -0.45 3.61 -0.29 3.64 -0.08 3.69 0 0zm-33.88 48.89l0 -48.89 33.88 0 0 48.89 -16.94 16.91 -16.94 -16.91zm33.88 0l0 16.91 -16.94 0 16.94 -16.91zm-337.37 -16.91l320.43 0 0 33.82 -320.43 0 0 0 0 -33.82zm-129.9 165.05l-33.88 0 0 0 0.22 -8.44 0.63 -8.35 1.05 -8.24 1.44 -8.1 1.83 -7.97 2.22 -7.84 2.59 -7.65 2.94 -7.49 3.28 -7.3 3.63 -7.11 3.95 -6.92 4.26 -6.69 4.57 -6.46 4.86 -6.24 5.14 -5.98 5.42 -5.75 5.7 -5.48 5.94 -5.18 6.18 -4.91 6.42 -4.61 6.65 -4.32 6.86 -3.98 7.06 -3.66 7.25 -3.32 7.44 -2.97 7.6 -2.62 7.78 -2.24 7.92 -1.86 8.08 -1.46 8.17 -1.05 8.3 -0.65 8.4 -0.21 0 33.82 -6.66 0.17 -6.56 0.51 -6.47 0.83 -6.36 1.16 -6.24 1.46 -6.14 1.78 -6.02 2.06 -5.88 2.35 -5.75 2.64 -5.6 2.9 -5.44 3.16 -5.27 3.42 -5.1 3.67 -4.92 3.91 -4.74 4.14 -4.52 4.34 -4.32 4.57 -4.1 4.78 -3.88 4.96 -3.63 5.16 -3.4 5.33 -3.15 5.5 -2.87 5.65 -2.62 5.82 -2.34 5.95 -2.05 6.09 -1.76 6.2 -1.45 6.33 -1.16 6.46 -0.83 6.54 -0.51 6.65 -0.16 6.74 0 0zm-33.88 1111.43l0 -1111.43 33.88 0 0 1111.43 -16.94 16.91 -16.94 -16.91zm16.94 16.91l-16.94 0 0 -16.91 16.94 16.91z"/>
   </g>
   <g>
    <path class="fil0" d="M1434.62 2606.79l-646.76 0 0 -33.88 646.76 0 0 0 0 33.88zm108.79 74.95l-33.8 0 0 0 -0.09 -3.84 -0.3 -3.8 -0.47 -3.73 -0.66 -3.65 -0.85 -3.63 -1.01 -3.54 -1.17 -3.46 -1.35 -3.4 -1.51 -3.32 -1.65 -3.23 -1.8 -3.12 -1.97 -3.04 -2.11 -2.97 -2.23 -2.84 -2.37 -2.73 -2.48 -2.61 -2.62 -2.49 -2.73 -2.37 -2.84 -2.23 -2.97 -2.11 -3.04 -1.97 -3.12 -1.8 -3.24 -1.65 -3.32 -1.52 -3.4 -1.34 -3.46 -1.18 -3.56 -1.01 -3.63 -0.84 -3.65 -0.67 -3.74 -0.47 -3.8 -0.3 -3.85 -0.09 0 -33.88 5.57 0.15 5.5 0.42 5.44 0.69 5.37 0.97 5.23 1.22 5.16 1.47 5.06 1.72 4.94 1.96 4.82 2.18 4.68 2.41 4.58 2.64 4.4 2.83 4.25 3.03 4.1 3.23 3.95 3.41 3.78 3.61 3.62 3.79 3.41 3.95 3.23 4.1 3.03 4.25 2.83 4.4 2.64 4.58 2.41 4.69 2.19 4.82 1.95 4.94 1.73 5.06 1.47 5.18 1.21 5.23 0.98 5.37 0.69 5.45 0.42 5.5 0.15 5.58 0 0zm-33.8 557.08l0 -557.08 33.8 0 0 557.08 0 0 -33.8 0zm-74.99 108.83l0 -33.88 0 0 3.85 -0.09 3.8 -0.3 3.74 -0.47 3.65 -0.67 3.63 -0.84 3.56 -1.01 3.46 -1.18 3.4 -1.34 3.32 -1.52 3.24 -1.65 3.12 -1.8 3.04 -1.97 2.97 -2.11 2.84 -2.23 2.73 -2.37 2.62 -2.49 2.48 -2.61 2.37 -2.73 2.23 -2.84 2.11 -2.97 1.97 -3.04 1.8 -3.12 1.65 -3.23 1.51 -3.32 1.35 -3.4 1.17 -3.46 1.01 -3.54 0.85 -3.63 0.66 -3.65 0.47 -3.73 0.3 -3.8 0.09 -3.84 33.8 0 -0.15 5.58 -0.42 5.5 -0.69 5.45 -0.98 5.37 -1.21 5.23 -1.47 5.18 -1.73 5.06 -1.95 4.94 -2.19 4.82 -2.41 4.69 -2.64 4.58 -2.83 4.4 -3.03 4.25 -3.23 4.1 -3.41 3.95 -3.62 3.79 -3.78 3.61 -3.95 3.41 -4.1 3.23 -4.25 3.03 -4.4 2.83 -4.58 2.64 -4.68 2.41 -4.82 2.18 -4.94 1.96 -5.06 1.72 -5.16 1.47 -5.23 1.22 -5.37 0.97 -5.44 0.69 -5.5 0.42 -5.57 0.15 0 0zm-646.76 -33.88l646.76 0 0 33.88 -646.76 0 0 0 0 -33.88zm-108.79 -74.95l33.8 0 0 0 0.09 3.84 0.3 3.8 0.47 3.73 0.66 3.65 0.85 3.63 1.01 3.54 1.17 3.46 1.35 3.4 1.51 3.32 1.65 3.23 1.8 3.12 1.97 3.04 2.11 2.97 2.23 2.84 2.37 2.73 2.48 2.61 2.62 2.49 2.73 2.37 2.84 2.23 2.97 2.11 3.04 1.97 3.12 1.8 3.24 1.65 3.32 1.52 3.4 1.34 3.46 1.18 3.56 1.01 3.63 0.84 3.65 0.67 3.74 0.47 3.8 0.3 3.85 0.09 0 33.88 -5.57 -0.15 -5.5 -0.42 -5.44 -0.69 -5.37 -0.97 -5.23 -1.22 -5.16 -1.47 -5.06 -1.72 -4.94 -1.96 -4.82 -2.18 -4.68 -2.41 -4.58 -2.64 -4.4 -2.83 -4.25 -3.03 -4.1 -3.23 -3.95 -3.41 -3.78 -3.61 -3.62 -3.79 -3.41 -3.95 -3.23 -4.1 -3.03 -4.25 -2.83 -4.4 -2.64 -4.58 -2.41 -4.69 -2.19 -4.82 -1.95 -4.94 -1.73 -5.06 -1.47 -5.18 -1.21 -5.23 -0.98 -5.37 -0.69 -5.45 -0.42 -5.5 -0.15 -5.58 0 0zm33.8 -557.08l0 557.08 -33.8 0 0 -557.08 0 0 33.8 0zm74.99 -108.83l0 33.88 0 0 -3.85 0.09 -3.8 0.3 -3.74 0.47 -3.65 0.67 -3.63 0.84 -3.56 1.01 -3.46 1.18 -3.4 1.34 -3.32 1.52 -3.24 1.65 -3.12 1.8 -3.04 1.97 -2.97 2.11 -2.84 2.23 -2.73 2.37 -2.62 2.49 -2.48 2.61 -2.37 2.73 -2.23 2.84 -2.11 2.97 -1.97 3.04 -1.8 3.12 -1.65 3.23 -1.51 3.32 -1.35 3.4 -1.17 3.46 -1.01 3.54 -0.85 3.63 -0.66 3.65 -0.47 3.73 -0.3 3.8 -0.09 3.84 -33.8 0 0.15 -5.58 0.42 -5.5 0.69 -5.45 0.98 -5.37 1.21 -5.23 1.47 -5.18 1.73 -5.06 1.95 -4.94 2.19 -4.82 2.41 -4.69 2.64 -4.58 2.83 -4.4 3.03 -4.25 3.23 -4.1 3.41 -3.95 3.62 -3.79 3.78 -3.61 3.95 -3.41 4.1 -3.23 4.25 -3.03 4.4 -2.83 4.58 -2.64 4.68 -2.41 4.82 -2.18 4.94 -1.96 5.06 -1.72 5.16 -1.47 5.23 -1.22 5.37 -0.97 5.44 -0.69 5.5 -0.42 5.57 -0.15 0 0z"/>
   </g>
   <g>
    <path class="fil0" d="M912.57 2911.07l-114.2 0 0 -33.86 114.2 0 0 0 0 33.86zm33.34 -0.53l-33.88 0 0 0 0.01 0.07 -0.01 0 0 -0.08 0.02 0.14 0.01 0.06 0.01 0.02 -0.01 -0.03 0.01 0.03 0.07 0.14 -0.05 -0.07 0.02 0.02 0.04 0.07 -0.01 -0.03 0.01 0.03 0.05 0.04 -0.03 -0.02 -0.02 -0.02 0.05 0.04 0.02 0.02 -0.02 -0.01 0.07 0.03 0.02 0.02 -0.08 -0.04 0.15 0.06 0.03 0.02 -0.03 -0.01 0.02 0.01 0.06 0.01 0.14 0.02 -0.08 0 0 -0.01 0.07 0 0 -33.86 1.75 0.04 1.66 0.13 1.56 0.2 1.74 0.3 1.66 0.39 1.56 0.45 1.49 0.51 1.53 0.6 1.59 0.72 1.34 0.7 1.4 0.8 1.39 0.89 1.28 0.91 1.26 1 1.23 1.06 1.12 1.08 1.07 1.12 1.07 1.22 0.99 1.27 0.91 1.27 0.9 1.39 0.8 1.4 0.69 1.35 0.73 1.58 0.59 1.53 0.51 1.49 0.45 1.56 0.39 1.66 0.3 1.74 0.2 1.56 0.13 1.66 0.05 1.75 0 0zm-33.88 99.48l0 -99.48 33.88 0 0 99.48 0 0 -33.88 0zm0.54 33.33l0 -33.86 0 0 -0.07 0 0 -0.01 0.08 0 -0.14 0.02 -0.06 0.01 -0.02 0.01 0.03 -0.01 -0.03 0.02 -0.15 0.06 0.08 -0.04 -0.02 0.02 -0.07 0.03 0.02 -0.01 -0.02 0.02 -0.05 0.04 0.02 -0.02 0.03 -0.02 -0.05 0.04 -0.01 0.03 0.01 -0.03 -0.04 0.07 -0.02 0.02 0.05 -0.07 -0.07 0.14 -0.01 0.03 0.01 -0.03 -0.01 0.02 -0.01 0.06 -0.02 0.14 0 -0.08 0.01 0 -0.01 0.07 33.88 0 -0.05 1.75 -0.13 1.66 -0.2 1.56 -0.3 1.74 -0.39 1.66 -0.45 1.56 -0.51 1.49 -0.59 1.53 -0.73 1.58 -0.69 1.35 -0.8 1.4 -0.9 1.39 -0.91 1.27 -0.99 1.27 -1.07 1.22 -1.07 1.12 -1.12 1.08 -1.23 1.06 -1.26 1 -1.28 0.91 -1.39 0.89 -1.4 0.8 -1.34 0.7 -1.59 0.72 -1.53 0.6 -1.49 0.51 -1.56 0.45 -1.66 0.39 -1.74 0.3 -1.56 0.2 -1.66 0.13 -1.75 0.04 0 0zm-114.2 -33.86l114.2 0 0 33.86 -114.2 0 0 0 0 -33.86zm-33.34 0.53l33.88 0 0 0 -0.01 -0.07 0.01 0 0 0.08 -0.02 -0.14 -0.01 -0.06 -0.01 -0.02 0.01 0.03 -0.01 -0.03 -0.07 -0.14 0.05 0.07 -0.02 -0.02 -0.04 -0.07 0.01 0.03 -0.01 -0.03 -0.05 -0.04 0.03 0.02 0.02 0.02 -0.05 -0.04 -0.02 -0.02 0.02 0.01 -0.07 -0.03 -0.02 -0.02 0.08 0.04 -0.15 -0.06 -0.03 -0.02 0.03 0.01 -0.02 -0.01 -0.06 -0.01 -0.14 -0.02 0.08 0 0 0.01 -0.07 0 0 33.86 -1.75 -0.04 -1.66 -0.13 -1.56 -0.2 -1.74 -0.3 -1.66 -0.39 -1.56 -0.45 -1.49 -0.51 -1.53 -0.6 -1.59 -0.72 -1.34 -0.7 -1.4 -0.8 -1.39 -0.89 -1.28 -0.91 -1.26 -1 -1.23 -1.06 -1.12 -1.08 -1.07 -1.12 -1.07 -1.22 -0.99 -1.27 -0.91 -1.27 -0.9 -1.39 -0.8 -1.4 -0.69 -1.35 -0.73 -1.58 -0.59 -1.53 -0.51 -1.49 -0.45 -1.56 -0.39 -1.66 -0.3 -1.74 -0.2 -1.56 -0.13 -1.66 -0.05 -1.75 0 0zm33.88 -99.48l0 99.48 -33.88 0 0 -99.48 0 0 33.88 0zm-0.54 -33.33l0 33.86 0 0 0.07 0 0 0.01 -0.08 0 0.14 -0.02 0.06 -0.01 0.02 -0.01 -0.03 0.01 0.03 -0.02 0.15 -0.06 -0.08 0.04 0.02 -0.02 0.07 -0.03 -0.02 0.01 0.02 -0.02 0.05 -0.04 -0.02 0.02 -0.03 0.02 0.05 -0.04 0.01 -0.03 -0.01 0.03 0.04 -0.07 0.02 -0.02 -0.05 0.07 0.07 -0.14 0.01 -0.03 -0.01 0.03 0.01 -0.02 0.01 -0.06 0.02 -0.14 0 0.08 -0.01 0 0.01 -0.07 -33.88 0 0.05 -1.75 0.13 -1.66 0.2 -1.56 0.3 -1.74 0.39 -1.66 0.45 -1.56 0.51 -1.49 0.59 -1.53 0.73 -1.58 0.69 -1.35 0.8 -1.4 0.9 -1.39 0.91 -1.27 0.99 -1.27 1.07 -1.22 1.07 -1.12 1.12 -1.08 1.23 -1.06 1.26 -1 1.28 -0.91 1.39 -0.89 1.4 -0.8 1.34 -0.7 1.59 -0.72 1.53 -0.6 1.49 -0.51 1.56 -0.45 1.66 -0.39 1.74 -0.3 1.56 -0.2 1.66 -0.13 1.75 -0.04 0 0z"/>
   </g>
   <g>
    <path class="fil0" d="M1887.86 2911.07l-114.2 0 0 -33.86 114.2 0 0 0 0 33.86zm33.34 -0.53l-33.88 0 0 0 0.01 0.07 -0.01 0 0 -0.08 0.02 0.14 0.01 0.06 0.01 0.02 -0.01 -0.03 0.01 0.03 0.07 0.14 -0.05 -0.07 0.02 0.02 0.04 0.07 -0.01 -0.03 0.01 0.03 0.05 0.04 -0.03 -0.02 -0.02 -0.02 0.05 0.04 0.02 0.02 -0.02 -0.01 0.07 0.03 0.02 0.02 -0.08 -0.04 0.15 0.06 0.03 0.02 -0.03 -0.01 0.02 0.01 0.06 0.01 0.14 0.02 -0.08 0 0 -0.01 0.07 0 0 -33.86 1.75 0.04 1.66 0.13 1.56 0.2 1.74 0.3 1.66 0.39 1.56 0.45 1.49 0.51 1.53 0.6 1.59 0.72 1.34 0.7 1.4 0.8 1.39 0.89 1.28 0.91 1.26 1 1.23 1.06 1.12 1.08 1.07 1.12 1.07 1.22 0.99 1.27 0.91 1.27 0.9 1.39 0.8 1.4 0.69 1.35 0.73 1.58 0.59 1.53 0.51 1.49 0.45 1.56 0.39 1.66 0.3 1.74 0.2 1.56 0.13 1.66 0.05 1.75 0 0zm-33.88 99.48l0 -99.48 33.88 0 0 99.48 0 0 -33.88 0zm0.54 33.33l0 -33.86 0 0 -0.07 0 0 -0.01 0.08 0 -0.14 0.02 -0.06 0.01 -0.02 0.01 0.03 -0.01 -0.03 0.02 -0.15 0.06 0.08 -0.04 -0.02 0.02 -0.07 0.03 0.02 -0.01 -0.02 0.02 -0.05 0.04 0.02 -0.02 0.03 -0.02 -0.05 0.04 -0.01 0.03 0.01 -0.03 -0.04 0.07 -0.02 0.02 0.05 -0.07 -0.07 0.14 -0.01 0.03 0.01 -0.03 -0.01 0.02 -0.01 0.06 -0.02 0.14 0 -0.08 0.01 0 -0.01 0.07 33.88 0 -0.05 1.75 -0.13 1.66 -0.2 1.56 -0.3 1.74 -0.39 1.66 -0.45 1.56 -0.51 1.49 -0.59 1.53 -0.73 1.58 -0.69 1.35 -0.8 1.4 -0.9 1.39 -0.91 1.27 -0.99 1.27 -1.07 1.22 -1.07 1.12 -1.12 1.08 -1.23 1.06 -1.26 1 -1.28 0.91 -1.39 0.89 -1.4 0.8 -1.34 0.7 -1.59 0.72 -1.53 0.6 -1.49 0.51 -1.56 0.45 -1.66 0.39 -1.74 0.3 -1.56 0.2 -1.66 0.13 -1.75 0.04 0 0zm-114.2 -33.86l114.2 0 0 33.86 -114.2 0 0 0 0 -33.86zm-33.34 0.53l33.88 0 0 0 -0.01 -0.07 0.01 0 0 0.08 -0.02 -0.14 -0.01 -0.06 -0.01 -0.02 0.01 0.03 -0.01 -0.03 -0.07 -0.14 0.05 0.07 -0.02 -0.02 -0.04 -0.07 0.01 0.03 -0.01 -0.03 -0.05 -0.04 0.03 0.02 0.02 0.02 -0.05 -0.04 -0.02 -0.02 0.02 0.01 -0.07 -0.03 -0.02 -0.02 0.08 0.04 -0.15 -0.06 -0.03 -0.02 0.03 0.01 -0.02 -0.01 -0.06 -0.01 -0.14 -0.02 0.08 0 0 0.01 -0.07 0 0 33.86 -1.75 -0.04 -1.66 -0.13 -1.56 -0.2 -1.74 -0.3 -1.66 -0.39 -1.56 -0.45 -1.49 -0.51 -1.53 -0.6 -1.59 -0.72 -1.34 -0.7 -1.4 -0.8 -1.39 -0.89 -1.28 -0.91 -1.26 -1 -1.23 -1.06 -1.12 -1.08 -1.07 -1.12 -1.07 -1.22 -0.99 -1.27 -0.91 -1.27 -0.9 -1.39 -0.8 -1.4 -0.69 -1.35 -0.73 -1.58 -0.59 -1.53 -0.51 -1.49 -0.45 -1.56 -0.39 -1.66 -0.3 -1.74 -0.2 -1.56 -0.13 -1.66 -0.05 -1.75 0 0zm33.88 -99.48l0 99.48 -33.88 0 0 -99.48 0 0 33.88 0zm-0.54 -33.33l0 33.86 0 0 0.07 0 0 0.01 -0.08 0 0.14 -0.02 0.06 -0.01 0.02 -0.01 -0.03 0.01 0.03 -0.02 0.15 -0.06 -0.08 0.04 0.02 -0.02 0.07 -0.03 -0.02 0.01 0.02 -0.02 0.05 -0.04 -0.02 0.02 -0.03 0.02 0.05 -0.04 0.01 -0.03 -0.01 0.03 0.04 -0.07 0.02 -0.02 -0.05 0.07 0.07 -0.14 0.01 -0.03 -0.01 0.03 0.01 -0.02 0.01 -0.06 0.02 -0.14 0 0.08 -0.01 0 0.01 -0.07 -33.88 0 0.05 -1.75 0.13 -1.66 0.2 -1.56 0.3 -1.74 0.39 -1.66 0.45 -1.56 0.51 -1.49 0.59 -1.53 0.73 -1.58 0.69 -1.35 0.8 -1.4 0.9 -1.39 0.91 -1.27 0.99 -1.27 1.07 -1.22 1.07 -1.12 1.12 -1.08 1.23 -1.06 1.26 -1 1.28 -0.91 1.39 -0.89 1.4 -0.8 1.34 -0.7 1.59 -0.72 1.53 -0.6 1.49 -0.51 1.56 -0.45 1.66 -0.39 1.74 -0.3 1.56 -0.2 1.66 -0.13 1.75 -0.04 0 0z"/>
   </g>
   <g>
    <path class="fil0" d="M2895.48 2911.07l-114.2 0 0 -33.86 114.2 0 0 0 0 33.86zm33.34 -0.53l-33.88 0 0 0 0.01 0.07 -0.01 0 0 -0.08 0.02 0.14 0.01 0.06 0.01 0.02 -0.01 -0.03 0.01 0.03 0.07 0.14 -0.05 -0.07 0.02 0.02 0.04 0.07 -0.01 -0.03 0.01 0.03 0.05 0.04 -0.03 -0.02 -0.02 -0.02 0.05 0.04 0.02 0.02 -0.02 -0.01 0.07 0.03 0.02 0.02 -0.08 -0.04 0.15 0.06 0.03 0.02 -0.03 -0.01 0.02 0.01 0.06 0.01 0.14 0.02 -0.08 0 0 -0.01 0.07 0 0 -33.86 1.75 0.04 1.66 0.13 1.56 0.2 1.74 0.3 1.66 0.39 1.56 0.45 1.49 0.51 1.53 0.6 1.59 0.72 1.34 0.7 1.4 0.8 1.39 0.89 1.28 0.91 1.26 1 1.23 1.06 1.12 1.08 1.07 1.12 1.07 1.22 0.99 1.27 0.91 1.27 0.9 1.39 0.8 1.4 0.69 1.35 0.73 1.58 0.59 1.53 0.51 1.49 0.45 1.56 0.39 1.66 0.3 1.74 0.2 1.56 0.13 1.66 0.05 1.75 0 0zm-33.88 99.48l0 -99.48 33.88 0 0 99.48 0 0 -33.88 0zm0.54 33.33l0 -33.86 0 0 -0.07 0 0 -0.01 0.08 0 -0.14 0.02 -0.06 0.01 -0.02 0.01 0.03 -0.01 -0.03 0.02 -0.15 0.06 0.08 -0.04 -0.02 0.02 -0.07 0.03 0.02 -0.01 -0.02 0.02 -0.05 0.04 0.02 -0.02 0.03 -0.02 -0.05 0.04 -0.01 0.03 0.01 -0.03 -0.04 0.07 -0.02 0.02 0.05 -0.07 -0.07 0.14 -0.01 0.03 0.01 -0.03 -0.01 0.02 -0.01 0.06 -0.02 0.14 0 -0.08 0.01 0 -0.01 0.07 33.88 0 -0.05 1.75 -0.13 1.66 -0.2 1.56 -0.3 1.74 -0.39 1.66 -0.45 1.56 -0.51 1.49 -0.59 1.53 -0.73 1.58 -0.69 1.35 -0.8 1.4 -0.9 1.39 -0.91 1.27 -0.99 1.27 -1.07 1.22 -1.07 1.12 -1.12 1.08 -1.23 1.06 -1.26 1 -1.28 0.91 -1.39 0.89 -1.4 0.8 -1.34 0.7 -1.59 0.72 -1.53 0.6 -1.49 0.51 -1.56 0.45 -1.66 0.39 -1.74 0.3 -1.56 0.2 -1.66 0.13 -1.75 0.04 0 0zm-114.2 -33.86l114.2 0 0 33.86 -114.2 0 0 0 0 -33.86zm-33.34 0.53l33.88 0 0 0 -0.01 -0.07 0.01 0 0 0.08 -0.02 -0.14 -0.01 -0.06 -0.01 -0.02 0.01 0.03 -0.01 -0.03 -0.07 -0.14 0.05 0.07 -0.02 -0.02 -0.04 -0.07 0.01 0.03 -0.01 -0.03 -0.05 -0.04 0.03 0.02 0.02 0.02 -0.05 -0.04 -0.02 -0.02 0.02 0.01 -0.07 -0.03 -0.02 -0.02 0.08 0.04 -0.15 -0.06 -0.03 -0.02 0.03 0.01 -0.02 -0.01 -0.06 -0.01 -0.14 -0.02 0.08 0 0 0.01 -0.07 0 0 33.86 -1.75 -0.04 -1.66 -0.13 -1.56 -0.2 -1.74 -0.3 -1.66 -0.39 -1.56 -0.45 -1.49 -0.51 -1.53 -0.6 -1.59 -0.72 -1.34 -0.7 -1.4 -0.8 -1.39 -0.89 -1.28 -0.91 -1.26 -1 -1.23 -1.06 -1.12 -1.08 -1.07 -1.12 -1.07 -1.22 -0.99 -1.27 -0.91 -1.27 -0.9 -1.39 -0.8 -1.4 -0.69 -1.35 -0.73 -1.58 -0.59 -1.53 -0.51 -1.49 -0.45 -1.56 -0.39 -1.66 -0.3 -1.74 -0.2 -1.56 -0.13 -1.66 -0.05 -1.75 0 0zm33.88 -99.48l0 99.48 -33.88 0 0 -99.48 0 0 33.88 0zm-0.54 -33.33l0 33.86 0 0 0.07 0 0 0.01 -0.08 0 0.14 -0.02 0.06 -0.01 0.02 -0.01 -0.03 0.01 0.03 -0.02 0.15 -0.06 -0.08 0.04 0.02 -0.02 0.07 -0.03 -0.02 0.01 0.02 -0.02 0.05 -0.04 -0.02 0.02 -0.03 0.02 0.05 -0.04 0.01 -0.03 -0.01 0.03 0.04 -0.07 0.02 -0.02 -0.05 0.07 0.07 -0.14 0.01 -0.03 -0.01 0.03 0.01 -0.02 0.01 -0.06 0.02 -0.14 0 0.08 -0.01 0 0.01 -0.07 -33.88 0 0.05 -1.75 0.13 -1.66 0.2 -1.56 0.3 -1.74 0.39 -1.66 0.45 -1.56 0.51 -1.49 0.59 -1.53 0.73 -1.58 0.69 -1.35 0.8 -1.4 0.9 -1.39 0.91 -1.27 0.99 -1.27 1.07 -1.22 1.07 -1.12 1.12 -1.08 1.23 -1.06 1.26 -1 1.28 -0.91 1.39 -0.89 1.4 -0.8 1.34 -0.7 1.59 -0.72 1.53 -0.6 1.49 -0.51 1.56 -0.45 1.66 -0.39 1.74 -0.3 1.56 -0.2 1.66 -0.13 1.75 -0.04 0 0z"/>
   </g>
   <g>
    <path class="fil0" d="M3413.12 2606.79l-646.76 0 0 -33.88 646.76 0 0 0 0 33.88zm108.79 74.95l-33.8 0 0 0 -0.09 -3.84 -0.3 -3.8 -0.47 -3.73 -0.66 -3.65 -0.85 -3.63 -1.01 -3.54 -1.17 -3.46 -1.35 -3.4 -1.51 -3.32 -1.65 -3.23 -1.8 -3.12 -1.97 -3.04 -2.11 -2.97 -2.23 -2.84 -2.37 -2.73 -2.48 -2.61 -2.62 -2.49 -2.73 -2.37 -2.84 -2.23 -2.97 -2.11 -3.04 -1.97 -3.12 -1.8 -3.24 -1.65 -3.32 -1.52 -3.4 -1.34 -3.46 -1.18 -3.56 -1.01 -3.63 -0.84 -3.65 -0.67 -3.74 -0.47 -3.8 -0.3 -3.85 -0.09 0 -33.88 5.57 0.15 5.5 0.42 5.44 0.69 5.37 0.97 5.23 1.22 5.16 1.47 5.06 1.72 4.94 1.96 4.82 2.18 4.68 2.41 4.58 2.64 4.4 2.83 4.25 3.03 4.1 3.23 3.95 3.41 3.78 3.61 3.62 3.79 3.41 3.95 3.23 4.1 3.03 4.25 2.83 4.4 2.64 4.58 2.41 4.69 2.19 4.82 1.95 4.94 1.73 5.06 1.47 5.18 1.21 5.23 0.98 5.37 0.69 5.45 0.42 5.5 0.15 5.58 0 0zm-33.8 557.08l0 -557.08 33.8 0 0 557.08 0 0 -33.8 0zm-74.99 108.83l0 -33.88 0 0 3.85 -0.09 3.8 -0.3 3.74 -0.47 3.65 -0.67 3.63 -0.84 3.56 -1.01 3.46 -1.18 3.4 -1.34 3.32 -1.52 3.24 -1.65 3.12 -1.8 3.04 -1.97 2.97 -2.11 2.84 -2.23 2.73 -2.37 2.62 -2.49 2.48 -2.61 2.37 -2.73 2.23 -2.84 2.11 -2.97 1.97 -3.04 1.8 -3.12 1.65 -3.23 1.51 -3.32 1.35 -3.4 1.17 -3.46 1.01 -3.54 0.85 -3.63 0.66 -3.65 0.47 -3.73 0.3 -3.8 0.09 -3.84 33.8 0 -0.15 5.58 -0.42 5.5 -0.69 5.45 -0.98 5.37 -1.21 5.23 -1.47 5.18 -1.73 5.06 -1.95 4.94 -2.19 4.82 -2.41 4.69 -2.64 4.58 -2.83 4.4 -3.03 4.25 -3.23 4.1 -3.41 3.95 -3.62 3.79 -3.78 3.61 -3.95 3.41 -4.1 3.23 -4.25 3.03 -4.4 2.83 -4.58 2.64 -4.68 2.41 -4.82 2.18 -4.94 1.96 -5.06 1.72 -5.16 1.47 -5.23 1.22 -5.37 0.97 -5.44 0.69 -5.5 0.42 -5.57 0.15 0 0zm-646.76 -33.88l646.76 0 0 33.88 -646.76 0 0 0 0 -33.88zm-108.79 -74.95l33.8 0 0 0 0.09 3.84 0.3 3.8 0.47 3.73 0.66 3.65 0.85 3.63 1.01 3.54 1.17 3.46 1.35 3.4 1.51 3.32 1.65 3.23 1.8 3.12 1.97 3.04 2.11 2.97 2.23 2.84 2.37 2.73 2.48 2.61 2.62 2.49 2.73 2.37 2.84 2.23 2.97 2.11 3.04 1.97 3.12 1.8 3.24 1.65 3.32 1.52 3.4 1.34 3.46 1.18 3.56 1.01 3.63 0.84 3.65 0.67 3.74 0.47 3.8 0.3 3.85 0.09 0 33.88 -5.57 -0.15 -5.5 -0.42 -5.44 -0.69 -5.37 -0.97 -5.23 -1.22 -5.16 -1.47 -5.06 -1.72 -4.94 -1.96 -4.82 -2.18 -4.68 -2.41 -4.58 -2.64 -4.4 -2.83 -4.25 -3.03 -4.1 -3.23 -3.95 -3.41 -3.78 -3.61 -3.62 -3.79 -3.41 -3.95 -3.23 -4.1 -3.03 -4.25 -2.83 -4.4 -2.64 -4.58 -2.41 -4.69 -2.19 -4.82 -1.95 -4.94 -1.73 -5.06 -1.47 -5.18 -1.21 -5.23 -0.98 -5.37 -0.69 -5.45 -0.42 -5.5 -0.15 -5.58 0 0zm33.8 -557.08l0 557.08 -33.8 0 0 -557.08 0 0 33.8 0zm74.99 -108.83l0 33.88 0 0 -3.85 0.09 -3.8 0.3 -3.74 0.47 -3.65 0.67 -3.63 0.84 -3.56 1.01 -3.46 1.18 -3.4 1.34 -3.32 1.52 -3.24 1.65 -3.12 1.8 -3.04 1.97 -2.97 2.11 -2.84 2.23 -2.73 2.37 -2.62 2.49 -2.48 2.61 -2.37 2.73 -2.23 2.84 -2.11 2.97 -1.97 3.04 -1.8 3.12 -1.65 3.23 -1.51 3.32 -1.35 3.4 -1.17 3.46 -1.01 3.54 -0.85 3.63 -0.66 3.65 -0.47 3.73 -0.3 3.8 -0.09 3.84 -33.8 0 0.15 -5.58 0.42 -5.5 0.69 -5.45 0.98 -5.37 1.21 -5.23 1.47 -5.18 1.73 -5.06 1.95 -4.94 2.19 -4.82 2.41 -4.69 2.64 -4.58 2.83 -4.4 3.03 -4.25 3.23 -4.1 3.41 -3.95 3.62 -3.79 3.78 -3.61 3.95 -3.41 4.1 -3.23 4.25 -3.03 4.4 -2.83 4.58 -2.64 4.68 -2.41 4.82 -2.18 4.94 -1.96 5.06 -1.72 5.16 -1.47 5.23 -1.22 5.37 -0.97 5.44 -0.69 5.5 -0.42 5.57 -0.15 0 0z"/>
   </g>
   <g>
    <path class="fil0" d="M2423.87 2606.79l-646.76 0 0 -33.88 646.76 0 0 0 0 33.88zm108.79 74.95l-33.8 0 0 0 -0.09 -3.84 -0.3 -3.8 -0.47 -3.73 -0.66 -3.65 -0.85 -3.63 -1.01 -3.54 -1.17 -3.46 -1.35 -3.4 -1.51 -3.32 -1.65 -3.23 -1.8 -3.12 -1.97 -3.04 -2.11 -2.97 -2.23 -2.84 -2.37 -2.73 -2.48 -2.61 -2.62 -2.49 -2.73 -2.37 -2.84 -2.23 -2.97 -2.11 -3.04 -1.97 -3.12 -1.8 -3.24 -1.65 -3.32 -1.52 -3.4 -1.34 -3.46 -1.18 -3.56 -1.01 -3.63 -0.84 -3.65 -0.67 -3.74 -0.47 -3.8 -0.3 -3.85 -0.09 0 -33.88 5.57 0.15 5.5 0.42 5.44 0.69 5.37 0.97 5.23 1.22 5.16 1.47 5.06 1.72 4.94 1.96 4.82 2.18 4.68 2.41 4.58 2.64 4.4 2.83 4.25 3.03 4.1 3.23 3.95 3.41 3.78 3.61 3.62 3.79 3.41 3.95 3.23 4.1 3.03 4.25 2.83 4.4 2.64 4.58 2.41 4.69 2.19 4.82 1.95 4.94 1.73 5.06 1.47 5.18 1.21 5.23 0.98 5.37 0.69 5.45 0.42 5.5 0.15 5.58 0 0zm-33.8 557.08l0 -557.08 33.8 0 0 557.08 0 0 -33.8 0zm-74.99 108.83l0 -33.88 0 0 3.85 -0.09 3.8 -0.3 3.74 -0.47 3.65 -0.67 3.63 -0.84 3.56 -1.01 3.46 -1.18 3.4 -1.34 3.32 -1.52 3.24 -1.65 3.12 -1.8 3.04 -1.97 2.97 -2.11 2.84 -2.23 2.73 -2.37 2.62 -2.49 2.48 -2.61 2.37 -2.73 2.23 -2.84 2.11 -2.97 1.97 -3.04 1.8 -3.12 1.65 -3.23 1.51 -3.32 1.35 -3.4 1.17 -3.46 1.01 -3.54 0.85 -3.63 0.66 -3.65 0.47 -3.73 0.3 -3.8 0.09 -3.84 33.8 0 -0.15 5.58 -0.42 5.5 -0.69 5.45 -0.98 5.37 -1.21 5.23 -1.47 5.18 -1.73 5.06 -1.95 4.94 -2.19 4.82 -2.41 4.69 -2.64 4.58 -2.83 4.4 -3.03 4.25 -3.23 4.1 -3.41 3.95 -3.62 3.79 -3.78 3.61 -3.95 3.41 -4.1 3.23 -4.25 3.03 -4.4 2.83 -4.58 2.64 -4.68 2.41 -4.82 2.18 -4.94 1.96 -5.06 1.72 -5.16 1.47 -5.23 1.22 -5.37 0.97 -5.44 0.69 -5.5 0.42 -5.57 0.15 0 0zm-646.76 -33.88l646.76 0 0 33.88 -646.76 0 0 0 0 -33.88zm-108.79 -74.95l33.8 0 0 0 0.09 3.84 0.3 3.8 0.47 3.73 0.66 3.65 0.85 3.63 1.01 3.54 1.17 3.46 1.35 3.4 1.51 3.32 1.65 3.23 1.8 3.12 1.97 3.04 2.11 2.97 2.23 2.84 2.37 2.73 2.48 2.61 2.62 2.49 2.73 2.37 2.84 2.23 2.97 2.11 3.04 1.97 3.12 1.8 3.24 1.65 3.32 1.52 3.4 1.34 3.46 1.18 3.56 1.01 3.63 0.84 3.65 0.67 3.74 0.47 3.8 0.3 3.85 0.09 0 33.88 -5.57 -0.15 -5.5 -0.42 -5.44 -0.69 -5.37 -0.97 -5.23 -1.22 -5.16 -1.47 -5.06 -1.72 -4.94 -1.96 -4.82 -2.18 -4.68 -2.41 -4.58 -2.64 -4.4 -2.83 -4.25 -3.03 -4.1 -3.23 -3.95 -3.41 -3.78 -3.61 -3.62 -3.79 -3.41 -3.95 -3.23 -4.1 -3.03 -4.25 -2.83 -4.4 -2.64 -4.58 -2.41 -4.69 -2.19 -4.82 -1.95 -4.94 -1.73 -5.06 -1.47 -5.18 -1.21 -5.23 -0.98 -5.37 -0.69 -5.45 -0.42 -5.5 -0.15 -5.58 0 0zm33.8 -557.08l0 557.08 -33.8 0 0 -557.08 0 0 33.8 0zm74.99 -108.83l0 33.88 0 0 -3.85 0.09 -3.8 0.3 -3.74 0.47 -3.65 0.67 -3.63 0.84 -3.56 1.01 -3.46 1.18 -3.4 1.34 -3.32 1.52 -3.24 1.65 -3.12 1.8 -3.04 1.97 -2.97 2.11 -2.84 2.23 -2.73 2.37 -2.62 2.49 -2.48 2.61 -2.37 2.73 -2.23 2.84 -2.11 2.97 -1.97 3.04 -1.8 3.12 -1.65 3.23 -1.51 3.32 -1.35 3.4 -1.17 3.46 -1.01 3.54 -0.85 3.63 -0.66 3.65 -0.47 3.73 -0.3 3.8 -0.09 3.84 -33.8 0 0.15 -5.58 0.42 -5.5 0.69 -5.45 0.98 -5.37 1.21 -5.23 1.47 -5.18 1.73 -5.06 1.95 -4.94 2.19 -4.82 2.41 -4.69 2.64 -4.58 2.83 -4.4 3.03 -4.25 3.23 -4.1 3.41 -3.95 3.62 -3.79 3.78 -3.61 3.95 -3.41 4.1 -3.23 4.25 -3.03 4.4 -2.83 4.58 -2.64 4.68 -2.41 4.82 -2.18 4.94 -1.96 5.06 -1.72 5.16 -1.47 5.23 -1.22 5.37 -0.97 5.44 -0.69 5.5 -0.42 5.57 -0.15 0 0z"/>
   </g>
  </g>
 </g>
</svg>
