<?xml version="1.0" encoding="UTF-8"?>
<!DOCTYPE svg PUBLIC "-//W3C//DTD SVG 1.1//EN" "http://www.w3.org/Graphics/SVG/1.1/DTD/svg11.dtd">
<!-- Creator: CorelDRAW 2020 (64 Bit) -->
<svg xmlns="http://www.w3.org/2000/svg" xml:space="preserve" width="42.3332mm" height="42.3332mm" version="1.1" style="shape-rendering:geometricPrecision; text-rendering:geometricPrecision; image-rendering:optimizeQuality; fill-rule:evenodd; clip-rule:evenodd"
viewBox="0 0 4233.32 4233.32"
 xmlns:xlink="http://www.w3.org/1999/xlink"
 xmlns:xodm="http://www.corel.com/coreldraw/odm/2003">
 <defs>
  <style type="text/css">
   <![CDATA[
    .fil0 {fill:#010101}
    .fil1 {fill:#3D3D3D}
    .fil4 {fill:#5C5C5C}
    .fil3 {fill:#8F8F8F}
    .fil2 {fill:#AEAEAE}
   ]]>
  </style>
 </defs>
 <g id="Camada_x0020_1">
  <metadata id="CorelCorpID_0Corel-Layer"/>
  <g id="_2551029857328">
   <path class="fil0" d="M850.23 1254.97l0 837.26c0.02,29.94 1.88,15.17 4.08,27.2 0.44,2.36 0.39,5.02 0.83,7.02 1.82,8.29 0.28,1.22 3.19,5.74 1.95,3.04 2.12,17.83 14.16,34.04 2.89,3.89 4.78,5 7.58,8.83 2.59,3.55 4.12,6.05 7.31,9.24 3.18,3.16 4.51,4.68 8.31,6.95 9.8,5.84 14.77,13.68 29.77,19.5 20.11,7.8 28.95,9.86 55.24,9.86l2273.66 0c30.7,0 56.18,-6.59 78.92,-24.21l13.19 -12.05c6.2,-5.23 9.92,-9.76 14.52,-17.12l16.41 -31.57c1.48,-4.33 1.36,-8.83 3.02,-13.59 2.86,-8.22 2.66,-19.68 2.66,-29.84l0.01 -839.8c-0.01,-9.28 0.2,-21.39 -2.31,-29.03 -3.94,-12.01 -6.9,-23.96 -13.08,-35.06l-6 -10.37c-2.32,-2.88 -5.3,-5.46 -8.12,-8.32 -6.88,-6.99 -17.31,-18.93 -26.11,-22.38 -3.02,-1.18 -2.74,-0.37 -5.63,-1.89l-9.19 -6.87c-12.4,-9.26 -40.75,-13.19 -60.83,-13.19l-2271.12 0c-8.13,0 -22.18,0.67 -30.46,1.64l-26.69 10c-4.85,2.7 -2.24,2.78 -6.54,4.57 -10.37,4.32 -9.31,3.22 -20.75,12.51l-12.36 10.44c-0.18,0.2 -0.42,0.49 -0.6,0.68l-4.57 4.38c-0.18,0.18 -0.46,0.44 -0.64,0.62 -0.18,0.17 -0.45,0.43 -0.62,0.61 -0.98,1.03 -0.39,0.17 -1.7,1.94 -7.97,10.68 -4.84,4.13 -7.82,12.16 -5.18,13.97 -9.36,13.3 -13.38,32.22 -2.93,13.75 -4.34,-4.31 -4.34,37.88zm295.43 806.86l0 68.4c0,5.78 1.52,7.31 7.31,7.31l1927.86 0c5.78,0 7.3,-1.53 7.3,-7.31l0 -68.4c0,-7.2 0.08,-9.77 -7.3,-9.77l-1927.86 0c-7.39,0 -7.31,2.57 -7.31,9.77zm0.8 -168.47l0 68.4c0,5.88 0.67,6.38 6.51,6.38l1927.86 0c5.83,0 6.5,-0.5 6.5,-6.38l0 -68.4c0,-8.07 1.25,-9.14 -7.77,-9.14l-1926.59 0c-7.79,0 -6.51,1.97 -6.51,9.14zm-212.29 -638.39l0 835.99c0,18.88 10.11,35.37 27.1,43.46 8.43,4.02 77.31,2.32 90.37,2.32 13.37,0 10.1,-3 10.1,-33.11l0 -215.33c0,-28.42 -1.11,-59.14 0.15,-87.27 15.66,-1.98 40.2,-0.81 56.88,-0.78l2052.24 0.37 0.21 335.26c9.12,5.79 25.71,3.66 41.34,3.66 9.04,0 38.35,1.52 44.42,-0.7 17.17,-6.27 9.12,0.97 21.13,-6.59 3.5,-2.2 0.03,0.64 3.45,-2.66 10.93,-10.52 18.06,-21.57 18.06,-38.63l0.01 -835.99c0,-11.8 -7.64,-30.68 -13.25,-34.5 -2.12,-1.45 -4.63,-2.36 -7.38,-4.13 -9.99,-6.44 -1.39,-3.19 -12.81,-6.13 -5.77,-1.49 -4.24,-2.93 -15.63,-2.93l-2267.32 0c-9.35,0 -19.71,3.1 -27.69,7.46 -8.6,4.69 -19.32,20.68 -20.75,28.14 -0.74,3.87 -0.63,8.08 -0.63,12.09z"/>
   <path class="fil1" d="M1693.89 1429.76l0 67.14c0,6.73 2.08,7.63 8.81,7.63l829.03 0c6.09,0 8.17,-0.9 8.17,-7.63l0 -67.14c0,-15.42 -2.26,-11.34 -41.74,-11.34l-761.26 0c-38.88,0 -43.01,-4.32 -43.01,11.34z"/>
   <path class="fil0" d="M2919.43 2354.43l0 65.86c0,20.19 3.6,43.37 3.86,67.14 0.41,37.42 4.42,35.46 4.99,48.11 0.31,6.92 0.32,11.71 2,17.23 3.75,12.29 2.66,17.56 3.5,32.25l13.85 57.07c1.3,4.83 4.72,7.15 5.56,11.5 0.45,2.34 0.71,5.84 0.93,7.82 0.17,1.54 0.23,3.21 0.52,4.69 0.84,4.24 0.47,2.1 1.33,4.15 2.99,7.14 1.67,11.78 4.63,17.15l13.51 39.89c2.48,4.19 3.08,4.24 3.72,9.68 0.16,1.35 0.14,2.3 0.54,3.62 0.85,2.78 0.57,1.37 1.94,3.25 3.7,5.14 1.11,5.17 5.94,11.72 2.87,3.87 2.15,8.6 4.99,12.68 2.94,4.2 1.52,4.16 3.7,8.73 3.73,7.82 2.88,8.46 7.84,16.3 1.41,2.21 -0.6,-0.99 1.3,2.43 0.14,0.25 0.3,0.59 0.45,0.84 2.9,5.13 7.12,11.06 8.31,16.57 1.6,7.41 -1.87,-5.86 0.42,2.31 0.11,0.39 0.19,0.72 0.32,1.09 0.12,0.34 0.26,0.66 0.4,0.98 2.01,4.73 1.39,0.07 2.85,5.82 3.73,14.59 16.33,34.76 24.97,47.65l26.85 44.08c2.61,4.29 4.84,6.21 7.45,10.39l12.79 18.91c0.16,0.22 0.39,0.52 0.55,0.74 0.21,0.3 0.84,1.19 1.07,1.48 5.26,7.07 11.75,13.43 15.67,21.24 4.81,9.58 21.87,23.14 29.04,32.71l79.06 81.76c1.87,2.01 0.33,0.59 1.95,1.98 6.14,5.23 0.02,-1.74 6.56,7.14 2.52,3.42 6.39,5.71 9.9,7.97 8.29,5.33 10.8,6.56 21.66,6.69 11.56,0.15 18.23,-1.34 27.74,-8.19 5.84,-4.2 12.38,-13.35 14.65,-20.69 2.88,-9.32 2.32,-20.61 -2.71,-29.04 -6.87,-11.53 -10.21,-15.25 -20.65,-24.95 -2.36,-2.19 -2.05,-1.53 -4.61,-4.21l-20.48 -20.12c-0.2,-0.17 -0.49,-0.41 -0.68,-0.59l-54.3 -59.69c-3.41,-3.55 -2.49,-4.53 -6.7,-8.32 -6.04,-5.43 2.09,2.03 -1.38,-1.22 -4.2,-3.94 -6.36,-8.92 -9.85,-13.12l-10.7 -12.01c-0.17,-0.2 -0.42,-0.49 -0.59,-0.69l-1.18 -1.32c-2.48,-3.18 -1.24,-2.04 -3.14,-5.63 -5.42,-10.2 -20.63,-24.4 -23.8,-30.55l-7.74 -12.63c-0.14,-0.23 -0.36,-0.53 -0.5,-0.76l-61.9 -116.88c-2.43,-3.9 -3.5,-4.25 -4.48,-8.81 -1.8,-8.35 -2.94,-5.41 -4.46,-13.48 -0.4,-2.08 -0.61,-4.76 -1.56,-7.56 -1.25,-3.7 -1.86,-3.03 -3.13,-6.95 -1.38,-4.25 -0.25,-2.85 -2.36,-6.64 -3.9,-6.96 -11.49,-32.18 -13.12,-40.04 -1.51,-7.35 -0.47,-2.46 -2.43,-6.46 -2.62,-5.36 -1.62,-8.61 -2.87,-14.8l-7.64 -27.86c-2.9,-8.34 0.37,-6.46 -4.48,-14.49 -3.38,-5.57 -1.75,-7.78 -2.43,-14.91 -1.08,-11.41 -4.22,1.88 -4.92,-30.31 -0.29,-13.34 -5.07,-27.84 -5.41,-48.06 -0.22,-12.38 -2.3,-22.87 -2.57,-34.2l-1.31 -105.18c-0.03,-17.21 0.92,-19.51 -6.81,-30.28 -12.07,-16.82 -29.83,-21.57 -50.06,-16.83 -6.45,1.51 -15.64,10.9 -19.01,15.81 -4,5.82 -7.35,22.23 -7.35,30.04z"/>
   <path class="fil0" d="M1255.08 2311.36c-9.25,6.63 -12.85,5.09 -19.09,17.16 -7.98,15.42 -4.78,83.09 -4.95,105.71 -0.09,13.33 -2.79,20.52 -3.3,32.89 -0.92,22.54 -0.2,46.42 -5.59,68.12 -1.33,5.38 -0.67,10.5 -1.41,16.56 -0.68,5.63 -3.18,10.37 -3.96,14.53 -1.32,7.01 -0.13,8.65 -2.75,14.94 -3.02,7.23 -2.04,7.64 -2.84,16.37 -0.63,6.8 -6.38,22.62 -8.09,28.49 -1.62,5.59 -0.72,9.48 -2.71,15.13 -2.7,7.66 -2.74,4.96 -4.35,14.45 -0.95,5.66 -2.91,7.68 -4.09,14.14 -1.46,7.97 -8.06,17.97 -10.37,25.91l-9.12 28.07c-1.59,6.43 -2.65,7.61 -6.13,12.62l-6.22 11.35c-1.91,3.53 -1.27,0.9 -3.13,5.5l-1.84 4.66c-0.13,0.26 -0.33,0.57 -0.47,0.83l-11.83 27.67c-1.09,3.43 -0.77,3.31 -2.32,6.59l-22.82 42.2c-2.46,7.17 1.83,-1.69 -1.07,2.34 -1.96,2.73 -4.79,3.96 -6.73,7.11l-7.15 11.88c-8.06,14.74 -22.97,28.27 -30.74,42.58 -5.43,10 -23.29,33.5 -32.3,41.12 -7.19,6.08 -10.88,12.71 -17.9,19 -3.19,2.85 -1.46,0.8 -4.33,4.38 -1.76,2.19 -2,2.38 -4.16,4.76 -2.05,2.26 -2.04,2.43 -4.27,4.62 -0.91,0.89 -1.82,1.69 -2.68,2.44l-38.28 40.18c-16.13,16.38 -37.72,30.67 -32.93,58.14 0.24,1.4 4.24,11.3 5.47,13.49 3.63,6.5 11.4,16.14 18.74,18.01 10.72,2.74 22.16,4.26 32.71,0.29l8.17 -4.59c2.87,-2.27 0.32,-0.13 2.63,-2.54l63.66 -64.15c0.19,-0.19 0.43,-0.48 0.61,-0.68 0.33,-0.35 1.64,-1.89 1.78,-2.05 0.17,-0.2 0.43,-0.48 0.6,-0.68 0.18,-0.2 0.44,-0.46 0.62,-0.67l8.39 -11.86c4.13,-4.95 10.26,-8.64 14.34,-13.5l31.11 -37.26c0.16,-0.19 0.43,-0.46 0.59,-0.65l4.03 -4.79c0.17,-0.19 0.46,-0.42 0.64,-0.61 0.18,-0.19 0.47,-0.43 0.65,-0.63l35.95 -48.93c4.82,-5.33 19.65,-32.39 23.66,-39.99 3.74,-7.1 2.37,-5.77 7.46,-11.16l17.02 -32.46c3.14,-4.6 0.82,-5.82 5.04,-9.84l3.97 -5.3c3.87,-6.27 6.76,-17.37 10.35,-22.51l1.67 -2.06c5,-7.22 10.58,-22.73 14.54,-31.13 4.7,-9.95 6.21,-21.77 10.39,-30.17 6.07,-12.16 8.29,-26.37 13.73,-38.23 2.61,-5.7 0.65,-10 2.53,-15.65 1.89,-5.69 3.28,-5.53 5.11,-13.58 1.1,-4.79 3.03,-8.38 3.72,-14.26 1.71,-14.62 9.18,-26.8 11.15,-44.23 0.74,-6.58 2.7,-6.67 3.67,-13.97l4.41 -32.46c0.88,-5.3 0.6,-11.75 1.41,-17.79 1.47,-11.02 4.55,-20.51 4.65,-32.04 0.1,-11.19 -0.52,-25.64 0.51,-36.44 2.49,-26.22 8.78,-117.9 -1.55,-138.82l-7.59 -10.3c-3.79,-3.27 -9.05,-7.77 -13.47,-9.37 -5.38,-1.95 -22.88,-1.76 -28.84,-0.51 -8.65,1.8 5.98,-2.09 -2.25,0.66l-2.06 0.97z"/>
   <path class="fil0" d="M1697.98 1500.49c11.16,2.44 704.28,0.69 784.98,0.69 12.05,0 43.01,1.46 52.84,-0.69l-0.02 -75.81c-8.95,-2.22 -828.82,-2.22 -837.54,0l-0.26 75.81z"/>
   <path class="fil0" d="M2496.25 2439.29l0 112.74c0,17.32 1.25,34.83 1.33,53.24 0.13,28.08 2.45,22.47 4.45,36.76 0.59,4.28 0.31,8.85 0.85,13.26l6.74 47.64c4,10.31 1.96,12.75 5.69,22.14l6.22 21.5c1.21,3.97 0.7,7.15 1.62,11.29 0.97,4.38 2.49,5.65 3.73,9.96l14.73 40.7c1.49,3.82 1.13,7.19 2.99,11.11 6.64,13.94 8.25,28.46 19.67,48.75l4.97 9.13c4.75,6.31 1.32,2.72 4.24,9.44 3.37,7.74 6.74,10.54 9.25,18.37 1.35,4.24 2.93,4.31 4.43,8.19 4.91,12.7 14.44,24.02 21.03,36.16l4.33 8.32c3.03,6.89 6.73,11.11 10.4,17.63l22.62 31.94c2.65,3.39 3.74,4.41 5.87,8.05l23.23 31.36c4.1,5.31 9.66,8.48 13.78,13.94 8.41,11.17 15.11,16.14 23.23,23.77 7.43,6.97 3.77,7.66 18.96,17.75 11.2,7.44 35.49,4.83 45.76,-3.74l11.54 -16.28c4.31,-8.94 3.32,-29.28 -1.11,-36.32 -13.75,-21.87 -19.86,-22.91 -26,-29.6 -3.99,-4.34 -7.25,-10.58 -12.25,-15.64 -6.77,-6.85 -14.29,-13.41 -19.07,-21.44 -8.01,-13.47 -23.11,-29.34 -34.38,-48.14l-32 -51.45c-1.24,-2.27 -0.87,-1.93 -2.04,-4.37 -1.36,-2.85 -1.41,-2.25 -2.78,-4.73 -3.44,-6.17 -1.44,-7.95 -5.89,-14.32 -0.82,-1.19 -2,-3.44 -2.81,-4.91l-6.02 -14.33c-2.58,-4.97 -5.92,-15.33 -8.7,-19.03 -2.75,-3.69 -3.77,-8.5 -6.58,-15.05 -2.56,-5.97 -1.07,-8.11 -4.74,-15.69l-10.58 -23.23c-1.34,-3.3 -1.82,-7.82 -2.94,-11.02 -3.96,-11.34 -6.66,-37.03 -10.52,-45.46 -6.05,-13.25 -5.91,-31.19 -8.95,-45.38 -1.77,-8.28 -2.9,-14.06 -3.81,-24.04 -0.86,-9.34 -3.44,-13.92 -3.53,-24.12l-0.79 -165.98c0.01,-41.5 -8.55,-30.64 -9.46,-45.68 -6.82,-0.69 -4.12,-1.07 -6.2,-2.47 -6.68,-4.5 -9.58,-6.18 -17.9,-8.42 -13.72,-3.7 -8.69,-2.15 -20.46,0.87 -4.25,1.09 -7.69,1.17 -10.63,3.18l-5.72 4.44c-11.14,9.34 -15.8,23.99 -15.8,39.21z"/>
   <path class="fil0" d="M1735.99 2553.29l0 -115.26c0,-14.38 -2.62,-22.79 -10.63,-32.74 -4.46,-5.53 -2.13,-3.66 -9.19,-6.44 -10.25,-4.03 -0.05,-6.08 -23.61,-5.78 -10.47,0.13 -14.97,1.11 -23.49,7.51 -0.96,0.72 -3.12,2.42 -3.54,2.77 -3.52,2.9 -1.34,0.41 -3.55,4.13l-8.68 21.87 -1.89 191.11c-0.31,8.7 -3.6,14.88 -4.5,24.25 -0.54,5.67 -0.31,9.15 -1.5,13.68 -2.04,7.78 -2.43,18 -3.65,25.57 -0.96,6 -2.21,6.92 -3.43,11.61 -1.17,4.45 -0.79,10.09 -1.92,13.41 -1.52,4.45 -3.27,4.77 -4.44,10.38l-11.08 47.49c-1.25,2.42 -0.85,-0.59 -2.24,4.36 -0.74,2.61 -0.47,4.36 -0.92,7.02 -1.07,6.27 -7.58,8.53 -10.41,18.94 -0.9,3.31 -0.46,3.19 -1.75,6.01l-22.6 50.86c-1.76,4.25 0.07,1.57 -2.4,5.3 -5.55,8.34 -8.96,21.88 -15.52,30.03 -3.84,4.76 -7.68,13.99 -10.61,18.53l-0.95 1.69c-0.68,1.29 -0.57,1.47 -1.19,2.7 -1.2,2.38 -1.25,1.96 -2.88,4.64l-17.48 25.44c-7.71,12.02 -16.9,22.74 -26.35,33.22 -0.16,0.19 -0.42,0.46 -0.58,0.64 -2,2.42 -4.02,6.6 -5.87,9.3l-13.1 16.17c-0.17,0.2 -0.41,0.5 -0.58,0.7l-35.05 38.34c-11.1,14.02 -10.73,35.27 -4.97,46.01 3.49,6.51 9.62,11.91 16.11,14.52 9.92,4 2.78,5.34 24.56,5.06 10.56,-0.14 15.65,-1.84 22.79,-8.4 3.8,-3.51 4.79,-2.31 7.77,-6.31l9.43 -10.7c0.18,-0.19 0.44,-0.45 0.63,-0.64 6.28,-6.59 13.11,-12.07 18.66,-19.35l20.65 -23.58c5.53,-6.14 8.54,-13.25 13.56,-19.45l11.32 -13.94c0.19,-0.19 0.45,-0.46 0.62,-0.66 2.28,-2.58 3.79,-5.32 6.04,-7.99l20.88 -31c2.94,-4.34 0.84,-0.05 2.95,-4.66l16.28 -29.45c3.09,-5.63 5.73,-8.03 10.91,-18.18 3.01,-5.9 5.37,-14.06 9.65,-19.43l11.42 -25.61c1.09,-3.09 0.66,-3.73 1.44,-6.49 1.35,-4.79 2.66,-3.29 5.26,-9.56 1.82,-4.39 3.09,-5.44 4.38,-9.57l12.71 -32.58c3.57,-6.09 1.52,-3.49 3.32,-10.71l8.39 -21.93c1.16,-4.06 0.93,-8.74 2.4,-12.85 3.56,-9.96 5.84,-24.72 8.73,-35.75 1.25,-4.77 2.92,-6.04 4,-10.98 3.73,-17.08 4.63,-34.5 7.97,-51.62 2.7,-13.82 5.79,-38.92 6.17,-53.43 0.49,-18.44 1.55,-38.43 1.55,-58.22z"/>
   <path class="fil0" d="M2054.42 2354.15c-2.91,4.97 -0.36,2.67 -5.59,5.44 -4.56,2.42 -4.83,4.54 -9.75,10.65 -4.36,5.41 -6.12,18.38 -6.12,27.25l0 663.73c0,19.93 4.56,31.96 23.72,42.49 6.05,3.32 17.35,3.81 24.7,3.09 2.16,-0.2 4.06,-0.46 5.56,-0.79 6.56,-1.45 15.67,-7.35 19.73,-14.75 3.33,-6.09 3.11,-1.92 5.14,-7.41 7.19,-19.43 4.47,-42.21 4.47,-64.43l0 -595.33c0,-8.84 0.2,-17.86 0.1,-26.67 -0.21,-18.21 -4.26,2.58 -4.95,-23.74 -3.1,-1.62 -3.26,-1.75 -4.63,-4.85 -2.02,-4.54 -1.36,-4.95 -9.52,-11.31 -7.03,-5.48 -6.02,-1.46 -15.7,-6.01 -11.19,-5.28 -8.68,1.25 -27.16,2.64z"/>
   <path class="fil2" d="M2957.9 1300.57l0 67.13c0,9.38 1.89,12.64 11.46,12.64l67.13 0c11.46,0 12.09,-0.87 12.09,-12.64l0 -67.13c0,-12.06 -6.55,-10.87 -17.14,-10.8l-55.75 0c-10.26,-0.09 -17.79,-0.25 -17.79,10.8z"/>
   <path class="fil3" d="M3128.78 1300.57l0 67.13c0,10.13 -1.18,12.29 9.05,12.29l67.13 0c11.96,0 11.61,0.07 11.61,-12.29l0 -67.13c0,-6.99 -1.05,-6.31 -3.24,-10.77l-81.25 0.01c-2.44,3.4 -3.3,4.38 -3.3,10.76z"/>
   <path class="fil4" d="M2961.51 1300.57l0 67.13c0,5.41 -0.02,4.74 2.21,9.32 12.8,2.54 56.75,0.94 72.75,0.92 8.97,0 9.77,-1.74 9.77,-10.24l0 -67.13c0,-7.04 -3.35,-7.53 -9.75,-7.53l-67.17 0c-5.63,0 -7.81,1.6 -7.81,7.53z"/>
   <path class="fil0" d="M3212.73 1372.93c2.79,-5.91 1.03,-45.51 1.04,-58.43 0.01,-4.92 1.73,-16.22 -1.8,-18.48 -2.26,-1.44 -74.86,-1.38 -79.69,0.13 -1.31,8.4 -1.96,76.2 1.29,78.49 1.82,1.27 72,1.22 74.97,0.52 3,-0.71 2.24,-0.58 4.19,-2.23z"/>
   <path class="fil0" d="M3043.41 1372.11l0.19 -74.71c-8.24,-2.74 -67.29,-2.72 -78.59,-1.19 -1.34,4.1 -2.76,75.89 1.34,78.13l60.02 0.46c10.64,0.05 9.41,1.09 17.04,-2.69z"/>
  </g>
 </g>
</svg>
