<?xml version="1.0" encoding="UTF-8"?>
<!DOCTYPE svg PUBLIC "-//W3C//DTD SVG 1.1//EN" "http://www.w3.org/Graphics/SVG/1.1/DTD/svg11.dtd">
<!-- Creator: CorelDRAW 2020 (64 Bit) -->
<svg xmlns="http://www.w3.org/2000/svg" xml:space="preserve" width="42.3332mm" height="42.3332mm" version="1.1" style="shape-rendering:geometricPrecision; text-rendering:geometricPrecision; image-rendering:optimizeQuality; fill-rule:evenodd; clip-rule:evenodd"
viewBox="0 0 4233.32 4233.32"
 xmlns:xlink="http://www.w3.org/1999/xlink"
 xmlns:xodm="http://www.corel.com/coreldraw/odm/2003">
 <defs>
  <style type="text/css">
   <![CDATA[
    .str0 {stroke:black;stroke-width:42.33;stroke-miterlimit:22.9256}
    .fil1 {fill:none}
    .fil0 {fill:black;fill-rule:nonzero}
   ]]>
  </style>
 </defs>
 <g id="Camada_x0020_1">
  <metadata id="CorelCorpID_0Corel-Layer"/>
  <g id="_2550776044752">
   <g>
    <path class="fil0" d="M3110.31 756.53l-1987.31 0 0 -42.4 1987.31 0 0 0 0 42.4zm84.39 42.03l-42.34 0 0 0 -0.05 -2.15 -0.17 -2.13 -0.26 -2.1 -0.37 -2.03 -0.47 -2.05 -0.56 -1.96 -0.65 -1.91 -0.76 -1.92 -0.86 -1.87 -0.91 -1.8 -1.02 -1.74 -1.12 -1.76 -1.17 -1.65 -1.26 -1.59 -1.32 -1.53 -1.39 -1.45 -1.48 -1.41 -1.56 -1.36 -1.57 -1.23 -1.67 -1.19 -1.73 -1.11 -1.76 -1.02 -1.8 -0.92 -1.86 -0.85 -1.92 -0.76 -1.91 -0.65 -1.98 -0.56 -2.04 -0.48 -2.04 -0.37 -2.1 -0.26 -2.13 -0.17 -2.16 -0.05 0 -42.4 4.32 0.11 4.27 0.33 4.2 0.54 4.18 0.75 4.06 0.94 4.02 1.14 3.95 1.35 3.82 1.52 3.74 1.69 3.64 1.88 3.54 2.04 3.39 2.19 3.29 2.33 3.21 2.53 3.04 2.64 2.92 2.77 2.81 2.95 2.66 3.07 2.5 3.19 2.35 3.31 2.18 3.38 2.04 3.54 1.89 3.66 1.68 3.73 1.52 3.82 1.35 3.95 1.14 4.02 0.95 4.07 0.75 4.17 0.54 4.22 0.33 4.27 0.11 4.33 0 0zm-42.34 2423.99l0 -2423.99 42.34 0 0 2423.99 0 0 -42.34 0zm-42.05 84.43l0 -42.4 0 0 2.16 -0.05 2.13 -0.17 2.1 -0.26 2.04 -0.37 2.04 -0.48 1.98 -0.56 1.91 -0.65 1.92 -0.76 1.86 -0.85 1.8 -0.92 1.76 -1.02 1.73 -1.11 1.67 -1.19 1.57 -1.23 1.56 -1.36 1.48 -1.41 1.39 -1.45 1.32 -1.53 1.26 -1.59 1.17 -1.65 1.12 -1.76 1.02 -1.74 0.91 -1.8 0.86 -1.87 0.76 -1.92 0.65 -1.91 0.56 -1.96 0.47 -2.05 0.37 -2.03 0.26 -2.1 0.17 -2.13 0.05 -2.15 42.34 0 -0.11 4.33 -0.33 4.27 -0.54 4.22 -0.75 4.17 -0.95 4.07 -1.14 4.02 -1.35 3.95 -1.52 3.82 -1.68 3.73 -1.89 3.66 -2.04 3.54 -2.18 3.38 -2.35 3.31 -2.5 3.19 -2.66 3.07 -2.81 2.95 -2.92 2.77 -3.04 2.64 -3.21 2.53 -3.29 2.33 -3.39 2.19 -3.54 2.04 -3.64 1.88 -3.74 1.69 -3.82 1.52 -3.95 1.35 -4.02 1.14 -4.06 0.94 -4.18 0.75 -4.2 0.54 -4.27 0.33 -4.32 0.11 0 0zm-1987.31 -42.4l1987.31 0 0 42.4 -1987.31 0 0 0 0 -42.4zm-84.39 -42.03l42.34 0 0 0 0.05 2.15 0.17 2.13 0.26 2.1 0.37 2.03 0.47 2.05 0.56 1.96 0.65 1.91 0.76 1.92 0.86 1.87 0.91 1.8 1.02 1.74 1.12 1.76 1.17 1.65 1.26 1.59 1.32 1.53 1.39 1.45 1.48 1.41 1.56 1.36 1.57 1.23 1.67 1.19 1.73 1.11 1.76 1.02 1.8 0.92 1.86 0.85 1.92 0.76 1.91 0.65 1.98 0.56 2.04 0.48 2.04 0.37 2.1 0.26 2.13 0.17 2.16 0.05 0 42.4 -4.32 -0.11 -4.27 -0.33 -4.2 -0.54 -4.18 -0.75 -4.06 -0.94 -4.02 -1.14 -3.95 -1.35 -3.82 -1.52 -3.74 -1.69 -3.64 -1.88 -3.54 -2.04 -3.39 -2.19 -3.29 -2.33 -3.21 -2.53 -3.04 -2.64 -2.92 -2.77 -2.81 -2.95 -2.66 -3.07 -2.5 -3.19 -2.35 -3.31 -2.18 -3.38 -2.04 -3.54 -1.89 -3.66 -1.68 -3.73 -1.52 -3.82 -1.35 -3.95 -1.14 -4.02 -0.95 -4.07 -0.75 -4.17 -0.54 -4.22 -0.33 -4.27 -0.11 -4.33 0 0zm42.34 -2423.99l0 2423.99 -42.34 0 0 -2423.99 0 0 42.34 0zm42.05 -84.43l0 42.4 0 0 -2.16 0.05 -2.13 0.17 -2.1 0.26 -2.04 0.37 -2.04 0.48 -1.98 0.56 -1.91 0.65 -1.92 0.76 -1.86 0.85 -1.8 0.92 -1.76 1.02 -1.73 1.11 -1.67 1.19 -1.57 1.23 -1.56 1.36 -1.48 1.41 -1.39 1.45 -1.32 1.53 -1.26 1.59 -1.17 1.65 -1.12 1.76 -1.02 1.74 -0.91 1.8 -0.86 1.87 -0.76 1.92 -0.65 1.91 -0.56 1.96 -0.47 2.05 -0.37 2.03 -0.26 2.1 -0.17 2.13 -0.05 2.15 -42.34 0 0.11 -4.33 0.33 -4.27 0.54 -4.22 0.75 -4.17 0.95 -4.07 1.14 -4.02 1.35 -3.95 1.52 -3.82 1.68 -3.73 1.89 -3.66 2.04 -3.54 2.18 -3.38 2.35 -3.31 2.5 -3.19 2.66 -3.07 2.81 -2.95 2.92 -2.77 3.04 -2.64 3.21 -2.53 3.29 -2.33 3.39 -2.19 3.54 -2.04 3.64 -1.88 3.74 -1.69 3.82 -1.52 3.95 -1.35 4.02 -1.14 4.06 -0.94 4.18 -0.75 4.2 -0.54 4.27 -0.33 4.32 -0.11 0 0z"/>
   </g>
   <g>
    <path class="fil0" d="M2116.66 910.58l-928.99 0 0 -41.88 928.99 0 21.16 20.94 -21.16 20.94zm0 -41.88l21.16 0 0 20.94 -21.16 -20.94zm-21.16 2262.76l0 -2241.82 42.32 0 0 2241.82 -21.16 20.94 -21.16 -20.94zm42.32 0l0 20.94 -21.16 0 21.16 -20.94zm-950.15 -20.94l928.99 0 0 41.88 -928.99 0 -21.16 -20.94 21.16 -20.94zm0 41.88l-21.16 0 0 -20.94 21.16 20.94zm21.16 -2262.76l0 2241.82 -42.32 0 0 -2241.82 21.16 -20.94 21.16 20.94zm-42.32 0l0 -20.94 21.16 0 -21.16 20.94z"/>
   </g>
   <g>
    <path class="fil0" d="M2116.66 910.58l-21.16 -20.94 21.16 -20.94 928.99 0 0 41.88 -928.99 0zm-21.16 -20.94l0 -20.94 21.16 0 -21.16 20.94zm42.32 2241.82l-21.16 20.94 -21.16 -20.94 0 -2241.82 42.32 0 0 2241.82zm-21.16 20.94l-21.16 0 0 -20.94 21.16 20.94zm928.99 -41.88l21.16 20.94 -21.16 20.94 -928.99 0 0 -41.88 928.99 0zm21.16 20.94l0 20.94 -21.16 0 21.16 -20.94zm-42.32 -2241.82l21.16 -20.94 21.16 20.94 0 2241.82 -42.32 0 0 -2241.82zm21.16 -20.94l21.16 0 0 20.94 -21.16 -20.94z"/>
   </g>
   <circle class="fil1 str0" cx="1896.92" cy="2007.53" r="68.35"/>
   <circle class="fil1 str0" cx="2296" cy="2007.53" r="68.35"/>
   <rect class="fil1 str0" x="1189.15" y="3285.78" width="189.62" height="212.22"/>
   <rect class="fil1 str0" x="2862.65" y="3285.78" width="189.62" height="212.22"/>
  </g>
 </g>
</svg>
