<?xml version="1.0" encoding="UTF-8"?>
<!DOCTYPE svg PUBLIC "-//W3C//DTD SVG 1.1//EN" "http://www.w3.org/Graphics/SVG/1.1/DTD/svg11.dtd">
<!-- Creator: CorelDRAW 2020 (64 Bit) -->
<svg xmlns="http://www.w3.org/2000/svg" xml:space="preserve" width="42.3332mm" height="42.3332mm" version="1.1" style="shape-rendering:geometricPrecision; text-rendering:geometricPrecision; image-rendering:optimizeQuality; fill-rule:evenodd; clip-rule:evenodd"
viewBox="0 0 4233.32 4233.32"
 xmlns:xlink="http://www.w3.org/1999/xlink"
 xmlns:xodm="http://www.corel.com/coreldraw/odm/2003">
 <defs>
  <style type="text/css">
   <![CDATA[
    .str0 {stroke:black;stroke-width:42.33;stroke-miterlimit:22.9256}
    .str1 {stroke:black;stroke-width:50.8;stroke-miterlimit:22.9256}
    .fil2 {fill:none}
    .fil1 {fill:none;fill-rule:nonzero}
    .fil0 {fill:black;fill-rule:nonzero}
   ]]>
  </style>
 </defs>
 <g id="Camada_x0020_1">
  <metadata id="CorelCorpID_0Corel-Layer"/>
  <g id="_2550591693696">
   <path class="fil0" d="M1658.34 916.18l-928.98 0 0 -41.88 928.98 0 21.16 20.94 -21.16 20.94zm0 -41.88l21.16 0 0 20.94 -21.16 -20.94zm-21.15 2262.75l0 -2241.81 42.31 0 0 2241.81 -21.16 20.94 -21.15 -20.94zm42.31 0l0 20.94 -21.16 0 21.16 -20.94zm-950.14 -20.94l928.98 0 0 41.88 -928.98 0 -21.16 -20.94 21.16 -20.94zm0 41.88l-21.16 0 0 -20.94 21.16 20.94zm21.16 -2262.75l0 2241.81 -42.32 0 0 -2241.81 21.16 -20.94 21.16 20.94zm-42.32 0l0 -20.94 21.16 0 -21.16 20.94z"/>
   <path class="fil0" d="M1658.34 916.18l-21.15 -20.94 21.15 -20.94 928.99 0 0 41.88 -928.99 0zm-21.15 -20.94l0 -20.94 21.15 0 -21.15 20.94zm42.31 2241.81l-21.16 20.94 -21.15 -20.94 0 -2241.81 42.31 0 0 2241.81zm-21.16 20.94l-21.15 0 0 -20.94 21.15 20.94zm928.99 -41.88l21.16 20.94 -21.16 20.94 -928.99 0 0 -41.88 928.99 0zm21.16 20.94l0 20.94 -21.16 0 21.16 -20.94zm-42.32 -2241.81l21.16 -20.94 21.16 20.94 0 2241.81 -42.32 0 0 -2241.81zm21.16 -20.94l21.16 0 0 20.94 -21.16 -20.94z"/>
   <path class="fil0" d="M3514.54 916.18l21.15 -20.94 -21.15 -20.94 -928.99 0 0 41.88 928.99 0zm21.15 -20.94l0 -20.94 -21.15 0 21.15 20.94zm-42.31 2241.81l21.16 20.94 21.15 -20.94 0 -2241.81 -42.31 0 0 2241.81zm21.16 20.94l21.15 0 0 -20.94 -21.15 20.94zm-928.99 -41.88l-21.16 20.94 21.16 20.94 928.99 0 0 -41.88 -928.99 0zm-21.16 20.94l0 20.94 21.16 0 -21.16 -20.94zm42.32 -2241.81l-21.16 -20.94 -21.16 20.94 0 2241.81 42.32 0 0 -2241.81zm-21.16 -20.94l-21.16 0 0 20.94 21.16 -20.94z"/>
   <circle class="fil1 str0" cx="887.8" cy="2013.12" r="68.35"/>
   <circle class="fil1 str0" cx="1837.68" cy="2013.12" r="68.35"/>
   <circle class="fil1 str0" cx="2753.46" cy="2013.12" r="68.35"/>
   <rect class="fil1 str0" x="3332.06" y="3265.95" width="189.62" height="212.22"/>
   <rect class="fil1 str0" x="713.61" y="3265.95" width="189.62" height="212.22"/>
   <rect class="fil2 str1" x="557.89" y="755.16" width="3117.53" height="2511.5" rx="102.79" ry="102.79"/>
  </g>
 </g>
</svg>
