<?xml version="1.0" encoding="UTF-8"?>
<!DOCTYPE svg PUBLIC "-//W3C//DTD SVG 1.1//EN" "http://www.w3.org/Graphics/SVG/1.1/DTD/svg11.dtd">
<!-- Creator: CorelDRAW 2020 (64 Bit) -->
<svg xmlns="http://www.w3.org/2000/svg" xml:space="preserve" width="42.3332mm" height="42.3332mm" version="1.1" style="shape-rendering:geometricPrecision; text-rendering:geometricPrecision; image-rendering:optimizeQuality; fill-rule:evenodd; clip-rule:evenodd"
viewBox="0 0 4233.32 4233.32"
 xmlns:xlink="http://www.w3.org/1999/xlink"
 xmlns:xodm="http://www.corel.com/coreldraw/odm/2003">
 <defs>
  <style type="text/css">
   <![CDATA[
    .fil0 {fill:black;fill-rule:nonzero}
   ]]>
  </style>
 </defs>
 <g id="Camada_x0020_1">
  <metadata id="CorelCorpID_0Corel-Layer"/>
  <g id="_2551005734752">
   <g>
    <path class="fil0" d="M3840.02 1214.35l-3446.73 0 0 -50.8 3446.73 0 25.48 25.4 -25.48 25.4zm0 -50.8l25.48 0 0 25.4 -25.48 -25.4zm-25.48 1880.82l0 -1855.42 50.96 0 0 1855.42 -25.48 25.4 -25.48 -25.4zm50.96 0l0 25.4 -25.48 0 25.48 -25.4zm-3472.21 -25.4l3446.73 0 0 50.8 -3446.73 0 -25.48 -25.4 25.48 -25.4zm0 50.8l-25.48 0 0 -25.4 25.48 25.4zm25.48 -1880.82l0 1855.42 -50.96 0 0 -1855.42 25.48 -25.4 25.48 25.4zm-50.96 0l0 -25.4 25.48 0 -25.48 25.4z"/>
   </g>
   <g>
    <path class="fil0" d="M2116.66 1316.45l-25.4 -25.43 25.4 -25.43 1489.66 0 0 50.86 -1489.66 0zm-25.4 -25.43l0 -25.43 25.4 0 -25.4 25.43zm50.8 1651.28l-25.4 25.43 -25.4 -25.43 0 -1651.28 50.8 0 0 1651.28zm-25.4 25.43l-25.4 0 0 -25.43 25.4 25.43zm1489.66 -50.86l0 50.86 -1489.66 0 0 -50.86 1489.66 0zm135.65 -84.82l0 0 -0.17 6.94 -0.53 6.9 -0.88 6.76 -1.19 6.68 -1.53 6.57 -1.84 6.43 -2.14 6.31 -2.44 6.16 -2.73 6.03 -3.02 5.85 -3.26 5.66 -3.54 5.51 -3.79 5.32 -4.03 5.12 -4.25 4.9 -4.49 4.72 -4.72 4.5 -4.9 4.24 -5.12 4.03 -5.32 3.79 -5.51 3.54 -5.66 3.26 -5.85 3.02 -6.02 2.73 -6.16 2.43 -6.3 2.15 -6.43 1.83 -6.57 1.53 -6.67 1.19 -6.76 0.88 -6.89 0.53 -6.94 0.17 0 -50.86 4.36 -0.11 4.27 -0.33 4.24 -0.54 4.17 -0.75 4.07 -0.95 4.01 -1.15 3.94 -1.33 3.84 -1.53 3.74 -1.69 3.65 -1.88 3.58 -2.06 3.43 -2.2 3.34 -2.39 3.22 -2.53 3.1 -2.7 2.96 -2.8 2.81 -2.96 2.69 -3.1 2.53 -3.22 2.39 -3.34 2.2 -3.43 2.06 -3.58 1.88 -3.65 1.69 -3.73 1.52 -3.84 1.34 -3.93 1.14 -4.01 0.95 -4.07 0.75 -4.16 0.54 -4.24 0.33 -4.26 0.11 -4.36 0 0 50.8 0zm-50.8 -1430.78l50.8 0 0 1430.78 -50.8 0 0 -1430.78zm-84.85 -135.68l0 0 6.94 0.17 6.89 0.53 6.76 0.88 6.67 1.19 6.57 1.53 6.43 1.83 6.3 2.15 6.16 2.43 6.02 2.73 5.85 3.02 5.66 3.26 5.51 3.54 5.32 3.79 5.12 4.03 4.9 4.24 4.72 4.5 4.49 4.72 4.25 4.9 4.03 5.12 3.79 5.32 3.54 5.51 3.26 5.66 3.02 5.85 2.73 6.03 2.44 6.16 2.14 6.31 1.84 6.43 1.53 6.57 1.19 6.68 0.88 6.76 0.53 6.9 0.17 6.94 -50.8 0 -0.11 -4.36 -0.33 -4.26 -0.54 -4.24 -0.75 -4.16 -0.95 -4.07 -1.14 -4.01 -1.34 -3.93 -1.52 -3.84 -1.69 -3.73 -1.88 -3.65 -2.06 -3.58 -2.2 -3.43 -2.39 -3.34 -2.53 -3.22 -2.69 -3.1 -2.81 -2.96 -2.96 -2.8 -3.1 -2.7 -3.22 -2.53 -3.34 -2.39 -3.43 -2.2 -3.58 -2.06 -3.65 -1.88 -3.74 -1.69 -3.84 -1.53 -3.94 -1.33 -4.01 -1.15 -4.07 -0.95 -4.17 -0.75 -4.24 -0.54 -4.27 -0.33 -4.36 -0.11 0 0 0 -50.86z"/>
   </g>
   <g>
    <path class="fil0" d="M2116.66 1316.45l-1489.66 0 0 -50.86 1489.66 0 25.4 25.43 -25.4 25.43zm0 -50.86l25.4 0 0 25.43 -25.4 -25.43zm-25.4 1676.71l0 -1651.28 50.8 0 0 1651.28 -25.4 25.43 -25.4 -25.43zm50.8 0l0 25.43 -25.4 0 25.4 -25.43zm-1515.06 -25.43l1489.66 0 0 50.86 -1489.66 0 0 0 0 -50.86zm-135.65 -84.82l50.8 0 0 0 0.11 4.36 0.33 4.26 0.54 4.24 0.75 4.16 0.95 4.07 1.14 4.01 1.34 3.93 1.52 3.84 1.69 3.73 1.88 3.65 2.06 3.58 2.2 3.43 2.39 3.34 2.53 3.22 2.69 3.1 2.81 2.96 2.96 2.8 3.1 2.7 3.22 2.53 3.34 2.39 3.43 2.2 3.58 2.06 3.65 1.88 3.74 1.69 3.84 1.53 3.94 1.33 4.01 1.15 4.07 0.95 4.17 0.75 4.24 0.54 4.27 0.33 4.36 0.11 0 50.86 -6.94 -0.17 -6.89 -0.53 -6.76 -0.88 -6.67 -1.19 -6.57 -1.53 -6.43 -1.83 -6.3 -2.15 -6.16 -2.43 -6.02 -2.73 -5.85 -3.02 -5.66 -3.26 -5.51 -3.54 -5.32 -3.79 -5.12 -4.03 -4.9 -4.24 -4.72 -4.5 -4.49 -4.72 -4.25 -4.9 -4.03 -5.12 -3.79 -5.32 -3.54 -5.51 -3.26 -5.66 -3.02 -5.85 -2.73 -6.03 -2.44 -6.16 -2.14 -6.31 -1.84 -6.43 -1.53 -6.57 -1.19 -6.68 -0.88 -6.76 -0.53 -6.9 -0.17 -6.94 0 0zm50.8 -1430.78l0 1430.78 -50.8 0 0 -1430.78 0 0 50.8 0zm84.85 -135.68l0 50.86 0 0 -4.36 0.11 -4.27 0.33 -4.24 0.54 -4.17 0.75 -4.07 0.95 -4.01 1.15 -3.94 1.33 -3.84 1.53 -3.74 1.69 -3.65 1.88 -3.58 2.06 -3.43 2.2 -3.34 2.39 -3.22 2.53 -3.1 2.7 -2.96 2.8 -2.81 2.96 -2.69 3.1 -2.53 3.22 -2.39 3.34 -2.2 3.43 -2.06 3.58 -1.88 3.65 -1.69 3.73 -1.52 3.84 -1.34 3.93 -1.14 4.01 -0.95 4.07 -0.75 4.16 -0.54 4.24 -0.33 4.26 -0.11 4.36 -50.8 0 0.17 -6.94 0.53 -6.9 0.88 -6.76 1.19 -6.68 1.53 -6.57 1.84 -6.43 2.14 -6.31 2.44 -6.16 2.73 -6.03 3.02 -5.85 3.26 -5.66 3.54 -5.51 3.79 -5.32 4.03 -5.12 4.25 -4.9 4.49 -4.72 4.72 -4.5 4.9 -4.24 5.12 -4.03 5.32 -3.79 5.51 -3.54 5.66 -3.26 5.85 -3.02 6.02 -2.73 6.16 -2.43 6.3 -2.15 6.43 -1.83 6.57 -1.53 6.67 -1.19 6.76 -0.88 6.89 -0.53 6.94 -0.17 0 0z"/>
   </g>
   <g>
    <path class="fil0" d="M1973.76 1950.59l-107.64 0 0 -50.44 107.64 0 25.4 25.22 -25.4 25.22zm0 -50.44l25.4 0 0 25.22 -25.4 -25.22zm-25.4 407.8l0 -382.58 50.8 0 0 382.58 -25.4 25.22 -25.4 -25.22zm50.8 0l0 25.22 -25.4 0 25.4 -25.22zm-133.04 -25.22l107.64 0 0 50.44 -107.64 0 0 0 0 -50.44zm-33.36 17.26l50.8 0 0 0 -0.02 -0.82 -0.06 -0.86 -0.11 -0.87 -0.17 -0.95 -0.21 -0.89 -0.17 -0.6 -0.34 -0.97 -0.39 -0.98 -0.14 -0.31 -0.48 -0.95 -0.48 -0.83 -0.34 -0.52 -0.45 -0.65 -0.46 -0.59 -0.84 -0.95 -0.38 -0.41 -0.4 -0.38 -0.96 -0.84 -0.6 -0.46 -0.64 -0.46 -0.54 -0.34 -0.84 -0.48 -0.97 -0.5 -0.31 -0.14 -1 -0.4 -1 -0.34 -0.61 -0.18 -0.93 -0.21 -0.97 -0.18 -0.89 -0.11 -0.89 -0.07 -0.85 -0.02 0 50.44 -1.67 -0.04 -1.69 -0.13 -1.69 -0.21 -1.75 -0.32 -1.69 -0.39 -1.37 -0.4 -1.74 -0.58 -1.72 -0.7 -1.01 -0.46 -1.67 -0.84 -1.5 -0.88 -1.18 -0.74 -1.28 -0.92 -1.2 -0.92 -1.54 -1.34 -0.94 -0.92 -0.92 -0.95 -1.34 -1.53 -0.92 -1.19 -0.91 -1.29 -0.74 -1.16 -0.88 -1.49 -0.82 -1.65 -0.46 -1.01 -0.69 -1.7 -0.58 -1.71 -0.39 -1.36 -0.39 -1.65 -0.31 -1.73 -0.21 -1.67 -0.12 -1.66 -0.04 -1.64 0 0zm50.8 -366.66l0 366.66 -50.8 0 0 -366.66 0 0 50.8 0zm-17.44 -33.18l0 50.44 0 0 0.85 -0.02 0.89 -0.07 0.89 -0.11 0.97 -0.18 0.93 -0.21 0.61 -0.18 1 -0.34 1 -0.4 0.31 -0.14 0.97 -0.5 0.84 -0.48 0.54 -0.34 0.64 -0.46 0.6 -0.46 0.96 -0.84 0.4 -0.38 0.38 -0.41 0.84 -0.95 0.46 -0.59 0.45 -0.65 0.34 -0.52 0.48 -0.83 0.48 -0.95 0.14 -0.31 0.39 -0.98 0.34 -0.97 0.17 -0.6 0.21 -0.89 0.17 -0.95 0.11 -0.87 0.06 -0.86 0.02 -0.82 -50.8 0 0.04 -1.64 0.12 -1.66 0.21 -1.67 0.31 -1.73 0.39 -1.65 0.39 -1.36 0.58 -1.71 0.69 -1.7 0.46 -1.01 0.82 -1.65 0.88 -1.49 0.74 -1.16 0.91 -1.29 0.92 -1.19 1.34 -1.53 0.92 -0.95 0.94 -0.92 1.54 -1.34 1.2 -0.92 1.28 -0.92 1.18 -0.74 1.5 -0.88 1.67 -0.84 1.01 -0.46 1.72 -0.7 1.74 -0.58 1.37 -0.4 1.69 -0.39 1.75 -0.32 1.69 -0.21 1.69 -0.13 1.67 -0.04 0 0z"/>
   </g>
   <g>
    <path class="fil0" d="M2267.89 1950.59l-25.4 -25.22 25.4 -25.22 107.64 0 0 50.44 -107.64 0zm-25.4 -25.22l0 -25.22 25.4 0 -25.4 25.22zm50.8 382.58l-25.4 25.22 -25.4 -25.22 0 -382.58 50.8 0 0 382.58zm-25.4 25.22l-25.4 0 0 -25.22 25.4 25.22zm107.64 -50.44l0 50.44 -107.64 0 0 -50.44 107.64 0zm33.36 17.26l0 0 -0.04 1.64 -0.12 1.66 -0.21 1.67 -0.31 1.73 -0.39 1.65 -0.39 1.36 -0.58 1.71 -0.69 1.7 -0.46 1.01 -0.82 1.65 -0.88 1.49 -0.74 1.16 -0.91 1.29 -0.92 1.19 -1.34 1.53 -0.92 0.95 -0.94 0.92 -1.54 1.34 -1.2 0.92 -1.28 0.92 -1.18 0.74 -1.5 0.88 -1.67 0.84 -1.01 0.46 -1.72 0.7 -1.74 0.58 -1.37 0.4 -1.69 0.39 -1.75 0.32 -1.69 0.21 -1.69 0.13 -1.67 0.04 0 -50.44 -0.85 0.02 -0.89 0.07 -0.89 0.11 -0.97 0.18 -0.93 0.21 -0.61 0.18 -1 0.34 -1 0.4 -0.31 0.14 -0.97 0.5 -0.84 0.48 -0.54 0.34 -0.64 0.46 -0.6 0.46 -0.96 0.84 -0.4 0.38 -0.38 0.41 -0.84 0.95 -0.46 0.59 -0.45 0.65 -0.34 0.52 -0.48 0.83 -0.48 0.95 -0.14 0.31 -0.39 0.98 -0.34 0.97 -0.17 0.6 -0.21 0.89 -0.17 0.95 -0.11 0.87 -0.06 0.86 -0.02 0.82 0 0 50.8 0zm-50.8 -366.66l50.8 0 0 366.66 -50.8 0 0 -366.66zm17.44 -33.18l0 0 1.67 0.04 1.69 0.13 1.69 0.21 1.75 0.32 1.69 0.39 1.37 0.4 1.74 0.58 1.72 0.7 1.01 0.46 1.67 0.84 1.5 0.88 1.18 0.74 1.28 0.92 1.2 0.92 1.54 1.34 0.94 0.92 0.92 0.95 1.34 1.53 0.92 1.19 0.91 1.29 0.74 1.16 0.88 1.49 0.82 1.65 0.46 1.01 0.69 1.7 0.58 1.71 0.39 1.36 0.39 1.65 0.31 1.73 0.21 1.67 0.12 1.66 0.04 1.64 -50.8 0 0.02 0.82 0.06 0.86 0.11 0.87 0.17 0.95 0.21 0.89 0.17 0.6 0.34 0.97 0.39 0.98 0.14 0.31 0.48 0.95 0.48 0.83 0.34 0.52 0.45 0.65 0.46 0.59 0.84 0.95 0.38 0.41 0.4 0.38 0.96 0.84 0.6 0.46 0.64 0.46 0.54 0.34 0.84 0.48 0.97 0.5 0.31 0.14 1 0.4 1 0.34 0.61 0.18 0.93 0.21 0.97 0.18 0.89 0.11 0.89 0.07 0.85 0.02 0 0 0 -50.44z"/>
   </g>
  </g>
 </g>
</svg>
