<?xml version="1.0" encoding="UTF-8"?>
<!DOCTYPE svg PUBLIC "-//W3C//DTD SVG 1.1//EN" "http://www.w3.org/Graphics/SVG/1.1/DTD/svg11.dtd">
<!-- Creator: CorelDRAW 2020 (64 Bit) -->
<svg xmlns="http://www.w3.org/2000/svg" xml:space="preserve" width="42.3332mm" height="42.3332mm" version="1.1" style="shape-rendering:geometricPrecision; text-rendering:geometricPrecision; image-rendering:optimizeQuality; fill-rule:evenodd; clip-rule:evenodd"
viewBox="0 0 4233.32 4233.32"
 xmlns:xlink="http://www.w3.org/1999/xlink"
 xmlns:xodm="http://www.corel.com/coreldraw/odm/2003">
 <defs>
  <style type="text/css">
   <![CDATA[
    .str0 {stroke:black;stroke-width:33.87;stroke-miterlimit:22.9256}
    .fil1 {fill:none}
    .fil0 {fill:black;fill-rule:nonzero}
   ]]>
  </style>
 </defs>
 <g id="Camada_x0020_1">
  <metadata id="CorelCorpID_0Corel-Layer"/>
  <g id="_2551003198080">
   <g>
    <path class="fil0" d="M2771.96 693.88l-1310.6 0 0 -33.96 1310.6 0 16.93 16.98 -16.93 16.98zm0 -33.96l16.93 0 0 16.98 -16.93 -16.98zm-16.93 2755.17l0 -2738.19 33.86 0 0 2738.19 -16.93 16.98 -16.93 -16.98zm33.86 0l0 16.98 -16.93 0 16.93 -16.98zm-1327.53 -16.98l1310.6 0 0 33.96 -1310.6 0 -16.93 -16.98 16.93 -16.98zm0 33.96l-16.93 0 0 -16.98 16.93 16.98zm16.93 -2755.17l0 2738.19 -33.86 0 0 -2738.19 16.93 -16.98 16.93 16.98zm-33.86 0l0 -16.98 16.93 0 -16.93 16.98z"/>
   </g>
   <g>
    <path class="fil0" d="M2116.66 786.38l-580.32 0 0 -33.72 580.32 0 16.93 16.86 -16.93 16.86zm0 -33.72l16.93 0 0 16.86 -16.93 -16.86zm-16.93 866.46l0 -849.6 33.86 0 0 849.6 -16.93 16.86 -16.93 -16.86zm33.86 0l0 16.86 -16.93 0 16.93 -16.86zm-597.25 -16.86l580.32 0 0 33.72 -580.32 0 -16.93 -16.86 16.93 -16.86zm0 33.72l-16.93 0 0 -16.86 16.93 16.86zm16.93 -866.46l0 849.6 -33.86 0 0 -849.6 16.93 -16.86 16.93 16.86zm-33.86 0l0 -16.86 16.93 0 -16.93 16.86z"/>
   </g>
   <g>
    <path class="fil0" d="M2116.66 2451.87l16.93 16.86 -16.93 16.86 -580.32 0 0 -33.72 580.32 0zm16.93 16.86l0 16.86 -16.93 0 16.93 -16.86zm-33.86 -849.61l16.93 -16.86 16.93 16.86 0 849.61 -33.86 0 0 -849.61zm16.93 -16.86l16.93 0 0 16.86 -16.93 -16.86zm-580.32 33.72l-16.93 -16.86 16.93 -16.86 580.32 0 0 33.72 -580.32 0zm-16.93 -16.86l0 -16.86 16.93 0 -16.93 16.86zm33.86 849.61l-16.93 16.86 -16.93 -16.86 0 -849.61 33.86 0 0 849.61zm-16.93 16.86l-16.93 0 0 -16.86 16.93 16.86z"/>
   </g>
   <g>
    <path class="fil0" d="M2116.66 2485.59l-580.32 0 0 -33.72 580.32 0 16.93 16.86 -16.93 16.86zm0 -33.72l16.93 0 0 16.86 -16.93 -16.86zm-16.93 866.46l0 -849.6 33.86 0 0 849.6 -16.93 16.86 -16.93 -16.86zm33.86 0l0 16.86 -16.93 0 16.93 -16.86zm-597.25 -16.86l580.32 0 0 33.72 -580.32 0 -16.93 -16.86 16.93 -16.86zm0 33.72l-16.93 0 0 -16.86 16.93 16.86zm16.93 -866.46l0 849.6 -33.86 0 0 -849.6 16.93 -16.86 16.93 16.86zm-33.86 0l0 -16.86 16.93 0 -16.93 16.86z"/>
   </g>
   <g>
    <path class="fil0" d="M2044.33 2596.64l-435.66 0 0 -33.86 435.66 0 17.51 16.93 -17.51 16.93zm0 -33.86l17.51 0 0 16.93 -17.51 -16.93zm-17.51 80.13l0 -63.2 35.02 0 0 63.2 -17.51 16.93 -17.51 -16.93zm35.02 0l0 16.93 -17.51 0 17.51 -16.93zm-453.17 -16.93l435.66 0 0 33.86 -435.66 0 -17.51 -16.93 17.51 -16.93zm0 33.86l-17.51 0 0 -16.93 17.51 16.93zm17.51 -80.13l0 63.2 -35.02 0 0 -63.2 17.51 -16.93 17.51 16.93zm-35.02 0l0 -16.93 17.51 0 -17.51 16.93z"/>
   </g>
   <g>
    <path class="fil0" d="M2044.33 2343.04l-435.66 0 0 -33.86 435.66 0 17.51 16.93 -17.51 16.93zm0 -33.86l17.51 0 0 16.93 -17.51 -16.93zm-17.51 80.13l0 -63.2 35.02 0 0 63.2 -17.51 16.93 -17.51 -16.93zm35.02 0l0 16.93 -17.51 0 17.51 -16.93zm-453.17 -16.93l435.66 0 0 33.86 -435.66 0 -17.51 -16.93 17.51 -16.93zm0 33.86l-17.51 0 0 -16.93 17.51 16.93zm17.51 -80.13l0 63.2 -35.02 0 0 -63.2 17.51 -16.93 17.51 16.93zm-35.02 0l0 -16.93 17.51 0 -17.51 16.93z"/>
   </g>
   <g>
    <path class="fil0" d="M2044.33 1487.58l-435.66 0 0 -33.86 435.66 0 17.51 16.93 -17.51 16.93zm0 -33.86l17.51 0 0 16.93 -17.51 -16.93zm-17.51 80.13l0 -63.2 35.02 0 0 63.2 -17.51 16.93 -17.51 -16.93zm35.02 0l0 16.93 -17.51 0 17.51 -16.93zm-453.17 -16.93l435.66 0 0 33.86 -435.66 0 -17.51 -16.93 17.51 -16.93zm0 33.86l-17.51 0 0 -16.93 17.51 16.93zm17.51 -80.13l0 63.2 -35.02 0 0 -63.2 17.51 -16.93 17.51 16.93zm-35.02 0l0 -16.93 17.51 0 -17.51 16.93z"/>
   </g>
   <g>
    <path class="fil0" d="M2632.58 2596.64l-435.66 0 0 -33.86 435.66 0 17.51 16.93 -17.51 16.93zm0 -33.86l17.51 0 0 16.93 -17.51 -16.93zm-17.51 80.13l0 -63.2 35.02 0 0 63.2 -17.51 16.93 -17.51 -16.93zm35.02 0l0 16.93 -17.51 0 17.51 -16.93zm-453.17 -16.93l435.66 0 0 33.86 -435.66 0 -17.51 -16.93 17.51 -16.93zm0 33.86l-17.51 0 0 -16.93 17.51 16.93zm17.51 -80.13l0 63.2 -35.02 0 0 -63.2 17.51 -16.93 17.51 16.93zm-35.02 0l0 -16.93 17.51 0 -17.51 16.93z"/>
   </g>
   <g>
    <path class="fil0" d="M2632.58 2343.04l-435.66 0 0 -33.86 435.66 0 17.51 16.93 -17.51 16.93zm0 -33.86l17.51 0 0 16.93 -17.51 -16.93zm-17.51 80.13l0 -63.2 35.02 0 0 63.2 -17.51 16.93 -17.51 -16.93zm35.02 0l0 16.93 -17.51 0 17.51 -16.93zm-453.17 -16.93l435.66 0 0 33.86 -435.66 0 -17.51 -16.93 17.51 -16.93zm0 33.86l-17.51 0 0 -16.93 17.51 16.93zm17.51 -80.13l0 63.2 -35.02 0 0 -63.2 17.51 -16.93 17.51 16.93zm-35.02 0l0 -16.93 17.51 0 -17.51 16.93z"/>
   </g>
   <g>
    <path class="fil0" d="M2632.58 1487.58l-435.66 0 0 -33.86 435.66 0 17.51 16.93 -17.51 16.93zm0 -33.86l17.51 0 0 16.93 -17.51 -16.93zm-17.51 80.13l0 -63.2 35.02 0 0 63.2 -17.51 16.93 -17.51 -16.93zm35.02 0l0 16.93 -17.51 0 17.51 -16.93zm-453.17 -16.93l435.66 0 0 33.86 -435.66 0 -17.51 -16.93 17.51 -16.93zm0 33.86l-17.51 0 0 -16.93 17.51 16.93zm17.51 -80.13l0 63.2 -35.02 0 0 -63.2 17.51 -16.93 17.51 16.93zm-35.02 0l0 -16.93 17.51 0 -17.51 16.93z"/>
   </g>
   <g>
    <path class="fil0" d="M2116.66 786.38l-16.93 -16.86 16.93 -16.86 580.32 0 0 33.72 -580.32 0zm-16.93 -16.86l0 -16.86 16.93 0 -16.93 16.86zm33.86 849.6l-16.93 16.86 -16.93 -16.86 0 -849.6 33.86 0 0 849.6zm-16.93 16.86l-16.93 0 0 -16.86 16.93 16.86zm580.32 -33.72l16.93 16.86 -16.93 16.86 -580.32 0 0 -33.72 580.32 0zm16.93 16.86l0 16.86 -16.93 0 16.93 -16.86zm-33.86 -849.6l16.93 -16.86 16.93 16.86 0 849.6 -33.86 0 0 -849.6zm16.93 -16.86l16.93 0 0 16.86 -16.93 -16.86z"/>
   </g>
   <g>
    <path class="fil0" d="M2116.66 2451.87l580.32 0 0 33.72 -580.32 0 -16.93 -16.86 16.93 -16.86zm0 33.72l-16.93 0 0 -16.86 16.93 16.86zm16.93 -866.47l0 849.61 -33.86 0 0 -849.61 16.93 -16.86 16.93 16.86zm-33.86 0l0 -16.86 16.93 0 -16.93 16.86zm597.25 16.86l-580.32 0 0 -33.72 580.32 0 16.93 16.86 -16.93 16.86zm0 -33.72l16.93 0 0 16.86 -16.93 -16.86zm-16.93 866.47l0 -849.61 33.86 0 0 849.61 -16.93 16.86 -16.93 -16.86zm33.86 0l0 16.86 -16.93 0 16.93 -16.86z"/>
   </g>
   <g>
    <path class="fil0" d="M2116.66 2485.59l-16.93 -16.86 16.93 -16.86 580.32 0 0 33.72 -580.32 0zm-16.93 -16.86l0 -16.86 16.93 0 -16.93 16.86zm33.86 849.6l-16.93 16.86 -16.93 -16.86 0 -849.6 33.86 0 0 849.6zm-16.93 16.86l-16.93 0 0 -16.86 16.93 16.86zm580.32 -33.72l16.93 16.86 -16.93 16.86 -580.32 0 0 -33.72 580.32 0zm16.93 16.86l0 16.86 -16.93 0 16.93 -16.86zm-33.86 -849.6l16.93 -16.86 16.93 16.86 0 849.6 -33.86 0 0 -849.6zm16.93 -16.86l16.93 0 0 16.86 -16.93 -16.86z"/>
   </g>
   <rect class="fil1 str0" x="1535.08" y="3415.09" width="90.4" height="141.34"/>
   <rect class="fil1 str0" x="2606.58" y="3415.09" width="90.4" height="141.34"/>
  </g>
 </g>
</svg>
