<?xml version="1.0" encoding="UTF-8"?>
<!DOCTYPE svg PUBLIC "-//W3C//DTD SVG 1.1//EN" "http://www.w3.org/Graphics/SVG/1.1/DTD/svg11.dtd">
<!-- Creator: CorelDRAW 2020 (64 Bit) -->
<svg xmlns="http://www.w3.org/2000/svg" xml:space="preserve" width="42.3332mm" height="42.3332mm" version="1.1" style="shape-rendering:geometricPrecision; text-rendering:geometricPrecision; image-rendering:optimizeQuality; fill-rule:evenodd; clip-rule:evenodd"
viewBox="0 0 4233.32 4233.32"
 xmlns:xlink="http://www.w3.org/1999/xlink"
 xmlns:xodm="http://www.corel.com/coreldraw/odm/2003">
 <defs>
  <style type="text/css">
   <![CDATA[
    .fil0 {fill:black}
    .fil1 {fill:#434343}
    .fil2 {fill:#717171}
   ]]>
  </style>
 </defs>
 <g id="Camada_x0020_1">
  <metadata id="CorelCorpID_0Corel-Layer"/>
  <g id="_2551003120608">
   <path class="fil0" d="M819.13 1719.66c-0.77,1.68 -0.86,2.41 -1.76,4.1 -1.46,2.77 -0.02,0.06 -1.46,2.39 -0.14,0.22 -0.4,0.52 -0.52,0.74 -0.13,0.21 -0.38,0.51 -0.49,0.74 -0.12,0.22 -0.33,0.54 -0.43,0.78 -3.5,8.2 -1.43,1148.46 -1.43,1219.4 0,82.02 -1.14,164.83 0.04,246.76 0.07,4.43 -0.1,10.29 0.27,14.55 0.7,8.01 2.13,3.14 3.34,11.83 1.59,11.39 3.82,14.28 6.54,23.77l9.62 20.95c3.01,5.97 23.19,30.8 27.6,34.46l17.37 14.26c14.47,12.41 30.46,13.62 46.78,21.55l9.74 1.11c5.8,1.84 6.87,1.16 12.9,2.61l27.7 1.65c2.24,-0.2 -0.41,-0.2 1.83,0 0.1,0.01 0.46,0.11 0.55,0.12 0.08,0.01 0.42,0.11 0.5,0.11l4.78 -0.11c0.08,0.01 0.41,0.11 0.49,0.11l4.24 -0.23c0.09,0.01 0.45,0.11 0.55,0.12 0.08,0.01 0.41,0.11 0.49,0.11l11.92 0c0.08,0 0.41,-0.1 0.49,-0.11l2.93 0c0.09,0.01 0.42,0.11 0.5,0.11l6.63 0c0.08,0 0.41,-0.1 0.5,-0.11 0.09,-0.01 0.45,-0.11 0.55,-0.12 2.24,-0.2 -0.41,-0.2 1.83,0 0.1,0.01 0.46,0.11 0.55,0.12l0.95 0.18c0.07,0 0.38,0 0.44,0l7.39 -0.38c2.09,-0.07 -3.41,-0.4 1.78,0.2 0.08,0.01 0.41,0.11 0.49,0.11l1.36 0c0.08,0 0.41,-0.1 0.49,-0.11l8.71 0.11c0.07,0.01 0.39,0.07 0.46,0.07l6.17 -0.07c0.21,-0.02 1.42,-0.3 1.65,-0.31l19.96 0.2c5.25,-0.61 -0.32,-0.27 1.78,-0.2l3 0.31c6.31,-0.62 13.25,0.86 21.61,-0.11 5.25,-0.61 -0.32,-0.27 1.78,-0.2l13.56 0.31c0.21,-0.02 1.42,-0.3 1.65,-0.31l8.91 0.31c0.08,-0.01 0.41,-0.11 0.5,-0.12l10.06 0.12c0.08,-0.01 0.41,-0.11 0.49,-0.12 0.1,-0.01 0.46,-0.11 0.55,-0.12l9.06 0.31c0.07,0 0.38,-0.06 0.45,-0.07l8.71 -0.12c0.08,0.01 0.41,0.11 0.49,0.12l11.46 0.07c0.07,0 0.38,-0.06 0.46,-0.07l2.87 -0.24c0.1,0.01 0.46,0.11 0.55,0.12l17.69 0.12c0.21,-0.02 1.41,-0.31 1.65,-0.31 2.11,-0.07 -3.52,-0.42 1.78,0.19l4.72 -0.12c0.1,0.01 0.46,0.11 0.55,0.12l1.4 0.19c0.07,-0.01 0.38,-0.07 0.46,-0.07l10.55 0c0.08,-0.01 0.42,-0.11 0.5,-0.12 0.09,-0.01 0.45,-0.11 0.55,-0.12l2.88 0.24c6.15,0.6 -4.8,0.6 1.35,0 0.21,-0.02 1.42,-0.31 1.65,-0.32l11.18 0c0.24,0.01 1.44,0.3 1.65,0.32l4.78 -0.12c0.09,0.01 0.42,0.11 0.5,0.12l18.84 -0.32c2.09,-0.07 -3.48,-0.41 1.78,0.2l2.89 -0.12c2.34,-0.21 -0.5,-0.21 1.83,0l1.05 0.24c6.16,0.6 -4.8,0.6 1.36,0 0.2,-0.02 1.41,-0.31 1.65,-0.32l4.12 0.2c0.09,-0.01 0.45,-0.11 0.55,-0.12 2.34,-0.21 -0.5,-0.21 1.83,0l1.95 0.3c0.07,0 0.38,-0.06 0.45,-0.06 0.08,-0.01 0.42,-0.11 0.5,-0.12l3.43 0.11c6.16,0.61 -4.82,0.61 1.35,0l5.78 -0.11c0.09,-0.01 0.45,-0.11 0.55,-0.12l10 0.12c0.09,-0.01 0.46,-0.11 0.55,-0.12l34.55 0.23c6.17,0.61 -4.81,0.61 1.36,0l5.77 -0.11c5.3,-0.62 -0.33,-0.27 1.78,-0.2 0.23,0.01 1.44,0.29 1.65,0.31l6.63 0c0.08,-0.01 0.41,-0.1 0.5,-0.11l5.27 0c5.35,-0.63 -0.33,-0.28 1.78,-0.21l10.56 0c0.23,0.01 1.44,0.3 1.65,0.32 6.18,0.61 -4.83,0.61 1.35,0 0.21,-0.02 1.42,-0.31 1.65,-0.32 2.12,-0.07 -3.57,-0.42 1.78,0.21l13.45 -0.13c2.43,-0.22 -0.59,-0.22 1.84,0l6.32 0.24c6.18,0.61 -4.83,0.61 1.36,0 0.2,-0.02 1.41,-0.31 1.64,-0.32 2.12,-0.07 -3.56,-0.42 1.78,0.21l581.57 0.16c0.07,0 0.38,0 0.44,0l4.84 0c0.07,0 0.38,0 0.44,0l31.23 0c0.07,0 0.38,0 0.44,0l11.01 -0.07c0.21,-0.02 1.42,-0.31 1.66,-0.32l19.46 0.32c0.21,-0.02 1.41,-0.32 1.65,-0.33l18.56 0.4c0.07,0 0.38,0 0.45,0l20.67 0c0.06,0 0.37,0 0.44,0l4.84 0c0.2,0 3.13,-0.4 3.17,-0.4 0.23,0.01 1.44,0.3 1.65,0.33 6.15,0.62 -4.8,0.62 1.35,0l4.38 0.07c0.07,0 0.38,0 0.44,0l13.9 -0.32c0.09,0.01 0.45,0.12 0.55,0.13l0.95 0.19c0.06,0 0.37,0 0.44,0 0.07,-0.01 0.38,-0.07 0.46,-0.07l2.27 -0.33c0.24,0.01 1.45,0.3 1.65,0.32l11.91 0c0.21,-0.02 1.42,-0.31 1.65,-0.32l19.46 0.32c0.21,-0.02 1.42,-0.31 1.65,-0.32l77.53 0.32c0.21,-0.02 1.41,-0.31 1.65,-0.32 0.02,0 2.97,0.4 3.17,0.39l8.01 -0.39c0.24,0.01 1.45,0.3 1.65,0.32l11.91 0c0.21,-0.02 1.42,-0.31 1.65,-0.32 2.1,-0.07 -3.71,-0.45 1.78,0.2l2.34 0c0.1,-0.01 0.46,-0.11 0.55,-0.12l14.34 0.31c0.07,0 0.38,-0.07 0.45,-0.07l2.28 -0.33c0.24,0.01 1.44,0.31 1.65,0.33 6.16,0.62 -4.81,0.62 1.35,0 0.21,-0.02 1.42,-0.32 1.65,-0.33l9.4 0.21c5.53,-0.66 -0.32,-0.28 1.79,-0.21l2.1 0.4c0.07,0 0.37,0 0.44,0l4.84 0c0.2,0.01 3.16,-0.4 3.17,-0.4l3 0.33c0.21,-0.02 1.42,-0.32 1.65,-0.33l3.63 0.33c0.08,-0.01 0.41,-0.11 0.5,-0.12l2.38 -0.13c0.1,0.01 0.46,0.12 0.55,0.13l7.13 0.12c0.08,-0.01 0.41,-0.11 0.49,-0.12 0.1,-0.01 0.46,-0.12 0.55,-0.13l4.24 0.25c0.08,-0.01 0.41,-0.11 0.49,-0.12l16.39 -0.13c2.71,-0.25 -0.87,-0.25 1.83,0l13.45 0.12c0.09,-0.01 0.45,-0.11 0.55,-0.12 2.71,-0.25 -0.87,-0.25 1.84,0l12.06 0.32c8.37,0.33 5.28,-1.15 14.33,-0.32l49.01 0.31c0.06,0.01 0.37,0.01 0.44,0l4.83 0c0.07,0.01 0.38,0.01 0.45,0l15.39 0c0.07,0.01 0.37,0.01 0.44,0l16.79 -0.19c5.52,-0.66 -0.31,-0.27 1.78,-0.2l7.82 0.39c0.07,0 0.39,-0.06 0.46,-0.07l2.88 -0.24c0.1,0.01 0.46,0.11 0.55,0.12l11.05 0.12c0.07,0 0.39,0.07 0.46,0.07l14.88 -0.19c0.08,0.01 0.42,0.11 0.5,0.12 0.07,0 0.38,0.07 0.45,0.07l5.72 0c0.07,0 0.38,-0.07 0.46,-0.07l3.43 -0.12c0.08,0.01 0.41,0.11 0.49,0.12l10.06 -0.12c0.09,0.01 0.42,0.11 0.5,0.12 0.07,0 0.39,0.07 0.45,0.07l5.72 0c0.07,0 0.39,-0.07 0.46,-0.07l3.43 -0.12c0.08,0.01 0.42,0.11 0.5,0.12l11.45 0.07c0.07,0 0.38,-0.07 0.45,-0.07l24.55 -0.12c0.08,0.01 0.42,0.11 0.49,0.12 0.08,0 0.39,0.06 0.46,0.07 0.07,0 0.37,0 0.44,0 0.07,-0.01 0.38,-0.07 0.46,-0.07l14.48 0c0.07,0 0.39,0.06 0.45,0.07 0.07,0 0.38,0 0.45,0 0.07,-0.01 0.38,-0.07 0.45,-0.07 0.08,-0.01 0.41,-0.11 0.5,-0.12 5.51,-0.67 -0.29,-0.28 1.78,-0.21l17.48 0.33c0.07,0 0.39,0.06 0.46,0.07 0.06,0 0.37,0 0.44,0 0.07,-0.01 0.38,-0.07 0.45,-0.07l14.94 0.07c0.07,0 0.38,0 0.44,0 0.07,-0.01 0.39,-0.07 0.46,-0.07l10.56 0c0.07,-0.01 0.41,-0.11 0.49,-0.12l25 0.18c0.07,0.01 0.38,0.01 0.44,0l16.79 -0.19c5.55,-0.66 -0.29,-0.27 1.78,-0.2 0.24,0.01 1.44,0.3 1.65,0.32l11.01 0.07c0.07,0.01 0.38,0.01 0.44,0l19.73 -0.19c6.68,0.81 -4.36,0.81 2.34,0 5.58,-0.68 -0.29,-0.27 1.78,-0.21 0.23,0.01 1.44,0.31 1.65,0.33l10.56 0c6.14,0.63 -4.8,0.63 1.35,0 0.2,-0.02 1.41,-0.32 1.65,-0.33l6.51 0.08c0.09,0.01 0.45,0.12 0.55,0.13l5.77 0.12c6.15,0.63 -4.8,0.63 1.35,0 0.21,-0.02 1.42,-0.32 1.65,-0.33l7.56 0.33c6.14,0.63 -4.8,0.63 1.35,0l8.16 -0.25c0.1,0.01 0.46,0.12 0.55,0.13l5.77 0.12c6.15,0.63 -4.79,0.63 1.35,0l10.56 0c0.21,-0.02 1.41,-0.32 1.65,-0.33l3.16 0.51c4.03,-0.23 0.92,-1.18 5.74,-2.03 4.78,-0.85 10.97,-0.09 15.42,-1.04l16.97 -5.06c3.53,-1.23 4.93,-3.54 8.83,-5.26 2.16,-0.96 3.46,-1.02 5.82,-2.04 11.36,-4.87 20.29,-9.45 29.64,-16.74 1.75,-1.37 0.62,-0.67 2.19,-1.64l7.23 -4.77c0.22,-0.18 0.54,-0.41 0.77,-0.59l19.01 -16.61c7.22,-5.99 14.67,-15.63 18.11,-22.99l2.38 -3.59c0.24,-0.24 1.46,-1.33 1.59,-1.49 5.41,-6.26 7.12,-14.07 11.88,-19.78 3.37,-4.04 8.5,-17.09 11.34,-22.07 10.79,-18.89 16.62,-32.99 25.97,-50.14l9 -12.55c3.06,-3.46 -0.29,2.81 0.8,-1.93 0.04,-0.14 0.08,-0.55 0.12,-0.71l3.65 -9.48c8.63,-20.61 12.03,-20.83 16.43,-29.5 2.06,-4.06 3.48,-6.67 5.16,-10.72 2.62,-6.32 5.49,-9.16 8.45,-14.67 2.81,-5.24 -1.56,3.76 0.85,-1.86 3.56,-8.31 3.14,-2.4 5.23,-10.17 1.84,-6.78 7.54,-15.61 10.58,-22.2l21.49 -39.02c3.81,-8.88 9.68,-16.68 13.27,-25.51l10.88 -21.02c0.77,-1.4 1.88,-3.08 2.32,-3.73l11.7 -22.53c2.71,-5.42 2.73,-5.82 5.54,-10.36l35.98 -68.87c0.09,-0.16 0.25,-0.51 0.34,-0.68l4.18 -7.12c1.11,-1.76 0.2,-2.9 3.06,-6.41l7.66 -12.45c0.07,-0.22 0.15,-0.61 0.21,-0.86l10.52 -21.44c1.47,-4.98 3.95,-6.46 6.11,-10.62l48.95 -95.07c6.54,-12.38 11.72,-25.71 19.74,-37.08 4.36,-6.18 6.63,-13.26 10.48,-19.79l13.92 -25.75c2.25,-3.06 2.18,-1.82 3.52,-4.09l9.63 -18.58c3.35,-6.98 3.95,-10.6 8.26,-16.55 0.1,-0.14 0.37,-0.45 0.46,-0.58l1.19 -4.36c1.87,-4.28 7.29,-9.39 8.88,-13.13l6.39 -13.57c3.04,-8.65 14.75,-25.89 15.06,-27.56 0.52,-2.78 -0.1,-1.78 1.34,-4.97 3.36,-7.43 12.84,-21.9 14.93,-28.09 3.28,-9.67 20.67,-40.4 26.24,-49.66l21.14 -40.88c1.23,-1.6 2.42,-3.03 3.12,-4.86 5.1,-13.28 6.54,-10.36 14.48,-32.02l8.12 -17.71c5.63,-13.2 3.26,-34.33 2.23,-48.54 -6.23,-4.04 -1.17,-8.27 -17.33,-28l-10.29 -9.5c-8.34,-6.42 -6.65,-7.71 -18.25,-11.86l-23.47 -5.56c-7.15,-0.14 -11.98,-1.67 -22.15,-1.65l-457.9 0c-6.06,0.01 -13.06,1.19 -18.71,-1.27 -3.73,-1.62 -1.41,-7.76 -1.44,-9.06l-0.06 -9.2c-0.04,-3.5 -1.05,-4.23 -0.11,-10.18l-0.22 -17.15c-0.92,-6.65 0.58,-14.16 0.36,-18.83 -0.17,-3.52 0.09,0.2 -0.14,-1.28 -0.03,-0.2 -0.19,-0.78 -0.22,-1l0.34 -17.1c0,-0.06 0,-0.38 0,-0.44l0.01 -9.68c0,-0.06 -0.01,-0.38 -0.01,-0.44l0.02 -11.86c-0.01,-0.17 0,-0.66 -0.02,-0.84l-0.5 -14.22c0.01,-0.23 0.24,-1.48 0.27,-1.69 0.8,-4.92 -0.16,3.22 0.23,-1.34 0.02,-0.18 0.01,-0.67 0.02,-0.85l-0.14 -69.86c-0.01,-0.07 -0.1,-0.4 -0.11,-0.48l-0.12 -21.64c-0.69,-4.87 0.83,-17.92 -0.8,-25.59l-4.23 -14.56c0.18,-3.31 0.18,-0.34 0.22,-1.47 0.16,-4.07 0.01,-0.55 -2.95,-6.26l-5.95 -12.3c-0.16,-0.23 -0.39,-0.55 -0.56,-0.78l-13.37 -23.59c-18.59,-19.37 -28.82,-27.24 -51.35,-39.8l-4.92 -2c-0.26,-0.06 -0.66,-0.09 -0.95,-0.15 -6.15,-1.21 -8.03,-3.12 -11.98,-4.91 -1.86,-0.85 -23.41,-4.2 -25.45,-4.2 -1.27,2.38 -1.46,3.09 -2.37,5.62l-0.57 37.3c-0.03,0.19 -0.12,0.55 -0.13,0.72l-0.04 5.73c0,0.12 0,0.5 0,0.62l0.38 14.1c1.53,23.49 0.02,86.09 0,112.71 -0.01,12.94 1.41,158.39 -0.08,170.71l-2.14 6.07c-3.84,3.18 -668.3,1.15 -731.05,1.15l-349.43 0.78c-8.7,0.08 -5.1,2.02 -12.26,3.29 -9.72,1.72 -17.44,3.69 -25.57,8.96 -7.26,4.7 -13.66,8.16 -20.11,14.15l-4.59 4.68c-11.88,12.33 -26.33,21.95 -33.07,38.22l-8.99 14.72c-4.21,5.87 -4.52,9.86 -7.84,16.07 -0.14,0.26 -0.35,0.57 -0.49,0.84l-0.99 1.7c-1.43,2.89 -0.64,1.55 -1.55,3.9 -2.34,6.03 -2.29,3.11 -4.26,7.31 -2.75,5.86 -3.31,9.38 -7.52,14.9 -4.7,6.16 -7.55,15.86 -12.3,21.94 -2.67,3.42 -1.67,7.72 -4.09,11.77l-6 11.1c-3.18,6.56 -5.19,9.03 -7.67,14.61 -3.06,6.89 -2.76,11.74 -9.5,14.44 4.2,-0.43 2.28,-2.18 1.31,3.2 -0.69,3.83 -4.24,7.84 -6.37,11.51 -0.54,0.93 -0.64,1.29 -1.42,2.63 -0.99,1.7 -1.26,1.83 -1.8,2.8 -3.69,6.65 0.88,-4.92 -0.7,1.61 -2.38,9.83 -2.28,5.28 -5.61,13.31l-9.47 16.62c-2.11,3.95 1.15,4.81 -4.66,12.04 -3.17,3.95 -5.19,9.5 -6.88,13.62l-29.98 58.87c-2.02,3.89 -3.43,8.49 -6.08,12.74 -0.08,0.13 -1.64,2.18 -1.75,2.29l-2.97 5.46c-2.52,9.61 -6.99,13.36 -8.76,17.68 -0.11,0.28 -1.11,4.98 -2.1,7.51l-12.5 24.58c-2.76,4.06 -4.75,7.61 -6.33,11.84 -2.85,7.65 -3.78,8.78 -8.14,14.57 -0.15,0.21 -0.43,0.53 -0.57,0.72l-6.06 10.84c-2.3,3.03 -1.34,8.01 -8.68,19.16l-8.41 17.61c-0.15,0.41 -0.96,2.66 -1.15,3.04 -4.33,8.54 -9.75,17.34 -13.17,26.36 -6.44,16.99 -18.19,34.95 -23.09,46.83l-14.08 29.47c-1.98,7.53 -5.04,13.13 -8.36,19.96l-12.62 24.02c-0.12,0.21 -1.25,2.67 -1.29,2.76l-23.17 48.21c-1.59,3.44 -1.64,2.54 -3.21,5.75l-35.58 69.99c-0.92,1.47 -6.1,12.01 -6.51,13.2l-5.79 12.73c-2.35,4.66 -3.46,8.19 -6.11,12.52 -3.28,5.35 -1.58,4.97 -4.76,11.17l-27.64 55.71c-1.75,4.43 -0.28,3.3 -3.01,7.3l-34.1 68.99c-0.92,1.69 -2.25,2.4 -3.76,5.33l-6.08 12.34c-2.37,4.96 -4.66,8.68 -7.36,12.24 -30.96,0.61 -63.8,0.64 -94.75,0.05 -7.55,-0.15 -22.19,-3.29 -27,-8.02 -7.77,-7.64 -19.74,-10.9 -24.68,-22.72 -6.55,-15.68 -10.28,-9.53 -10.41,-38.45l-0.04 -1029.29c-0.01,-63.48 0.04,-126.86 0.01,-190.68 -0.02,-45.87 -1.23,-87.27 0.01,-131.93 0.24,-8.75 4.55,-17.78 9.43,-24.66 11.96,-16.89 26.74,-33.27 50.64,-32.91 2.06,-2.09 -0.42,-0.59 2.73,-2.13 4.67,-2.29 82.01,-0.86 88.7,-1.08 2.33,-7.72 2.2,-109.26 0.67,-120.96 -13.98,-0.41 -131.42,-1.79 -141.48,1.31 -16.54,5.1 -28.06,1.74 -47.37,11.87l-36.58 23.24c-6.87,8.13 -5.06,1.04 -16.77,17.28l-6.37 6.65c-3.75,4.3 -2.85,5.44 -6.61,11.67l-10.24 18.99c-4.61,7.33 0.92,10.52 -7.04,16.21z"/>
   <path class="fil0" d="M2221.32 1302.29c4.16,0.78 2.8,0.38 7.35,7 0.16,0.24 0.38,0.56 0.54,0.8l21.26 18.12c5.21,2.34 8.91,0.65 14.84,3.48 10.17,4.86 55.23,2.14 70.38,2.14 17.15,0 172.9,-1.17 181.72,0.84 6.54,1.49 11.28,6.41 14.8,11.19 8.53,11.59 3.68,63.21 3.68,80.46l0 733.31 94.56 -0.03 0 -852.04c0,-11.79 -0.23,-22.15 -1,-33.88 -0.81,-12.27 -12.34,-23.96 -19.77,-33.1 -2.46,-3.03 -1.24,-2.12 -4.01,-5.13l-59.9 -64.07c-0.54,-0.59 -1.3,-1.36 -1.93,-2.04 -1.18,-1.29 -1.73,-1.93 -2.51,-2.82l-3.1 -3.49c-0.25,-0.29 -0.94,-1.13 -1.2,-1.42l-6.76 -7.61c-0.2,-0.17 -0.53,-0.38 -0.74,-0.56l-2.95 -2.55c-1.07,-1.13 -1.59,-2.08 -2.33,-2.99 -3.47,-4.23 -5.37,-3.59 -6.32,-7.04l0.15 -2.91c0.03,-0.22 0.15,-0.69 0.31,-1l-5.91 -6.09c-2.08,-2.29 -0.16,-0.31 -2.61,-2.67l-56.26 -61.38c-0.99,-1.22 -0.21,-0.08 -1.43,-2.14 -3.71,-6.27 1.89,1.3 -1.26,-2.35 -0.93,-1.08 -4.82,-3.42 -5.77,-4.13 -4.89,-3.71 -6.8,-6.77 -10.59,-11.73 -0.15,-0.19 -2.36,-2.76 -2.5,-2.9l-38.62 -39.26c-5.25,-4.57 -9.25,-11.03 -13.26,-16.9 -2.91,-4.29 -6.71,-6.22 -10.81,-10.46l-10.04 -11.12c-2.22,-2.18 -0.33,0.09 -2.48,-2.6l-9.91 -10.02c-1.92,-1.94 -0.21,-0.29 -2.22,-2.89l-20.61 -23.11c-5.49,-5.49 -12.66,-16.6 -24.66,-24.24 -13.53,-8.61 -17.51,-11.3 -37.66,-11.47l-118.76 0c-260.4,0 -520.8,0 -781.2,0 -17.64,0 -71.75,-1.03 -85.08,2.12 -6.03,1.43 -4.89,2.52 -14.72,4.93 -9.44,2.32 -2.09,1.23 -7.11,3.58 -2.67,1.25 -4.25,0.84 -7.61,1.77 -4.01,1.12 -3.73,1.68 -7.18,3.57 -3.47,1.89 -2.32,0.94 -5.65,3.56l-3.76 2.85c-13.32,8.75 -27.48,22.7 -34.19,37.32l-10.72 26.34c-0.07,0.18 -0.2,0.54 -0.27,0.74l-4.2 17.6c-2.28,7.21 1.37,-4.63 -0.65,1.99 -0.07,0.24 -0.28,0.77 -0.31,0.96 -0.02,0.06 -0.06,0.36 -0.07,0.42 0,0.06 0.01,0.35 0.01,0.41l0.24 28.51c0.19,6.9 -0.55,0.16 -0.27,3.64l-0.06 10.09c0.01,0.2 0.32,1.88 0.32,2.11l-0.07 27.59c-0.34,4.59 -0.34,-1.11 0,3.49l-0.24 24.41c0,0.08 0.01,0.41 0.02,0.49l-0.02 136.28c-0.3,3.84 -0.34,-2.75 0.09,1.9 0.24,2.62 0.25,0.13 0.1,2.33 -0.32,4.34 -0.32,-0.84 -0.01,3.5 0.16,2.2 0.15,-0.29 -0.09,2.33l-0.1 26.89c-0.72,9.32 0.86,20.4 -0.01,31.67 -0.29,3.7 -0.32,-2.6 0.09,1.9l-0.11 50.88c-0.23,3.08 0.41,-2.47 0.25,3.64 -0.01,0.11 -0.06,0.49 -0.06,0.59l-0.24 7.26c0,0.07 0.04,0.39 0.05,0.47l-0.06 36.48c0,0.07 0.04,0.39 0.05,0.47l-1.2 741.57c0.01,6.61 0.02,13.22 -0.01,19.83 -0.02,6.1 1.64,12.05 1.44,14.8 -0.28,3.97 -0.33,-0.7 -0.05,3.4l-0.09 23.44c-0.38,4.25 0.33,-2.7 0.16,4.15 -0.01,0.23 -0.23,1.43 -0.25,1.64l0.1 17.97c-0.01,0.08 -0.09,0.42 -0.09,0.5l0.25 51.14c0,0.11 -0.05,0.49 -0.06,0.59l0.07 15.25c-0.01,0.1 -0.06,0.49 -0.06,0.59l-0.19 13c0.82,10.69 -0.86,21.72 0.1,32.17l0.16 22.86c-0.28,10.6 -1.16,25.99 -0.06,35.41l0.01 12.21c0.27,3.61 -0.21,3.26 -0.23,3.86l0.01 98.42c-0.01,0.06 0.44,1.13 0.24,3.76l-0.18 27.44c-0.27,3.33 0.43,-2.97 0.26,3.64l-0.07 25.2c0.17,2.24 0.17,-0.41 -0.09,2.33l0.11 46.96c-0.34,4.54 -0.34,-1.05 0,3.49l-0.17 144.56c0.01,0.09 0.1,0.42 0.13,0.51l5.74 22.24c2.05,4.92 -1.69,-3.47 0.84,2 3.3,7.15 7.84,11.42 15.15,14.18 4.39,-3.25 9.08,-10.42 11.51,-15.67l11.06 -22.43c0.07,-0.21 0.15,-0.61 0.23,-0.83l12.94 -28.08c1.56,-3.27 1.81,-6.24 3.26,-8.79l9.18 -14.88c1.71,-4.15 -1.4,3.61 0.75,-2.97 0.07,-0.22 0.17,-0.61 0.26,-0.84 2.69,-7.12 8.24,-19.02 12.58,-24.11l2.6 -5.48c0.11,-0.38 0.49,-2.18 1.63,-3.84l9.77 -21.8c6.07,-10.64 3.53,-31.51 3.53,-46.73 0,-183.44 -1.85,-1608.91 0.78,-1615.88 2.37,-6.27 10.11,-8.62 15.15,-11.07 9.45,-4.59 35.11,-2.17 45.97,-2.17 265.24,0 530.47,0 795.71,0 16.27,0 32.68,-0.24 48.93,-0.08 15.2,0.15 24.38,8.18 28.77,20.96 3.76,10.93 1.55,211.87 1.55,247.74 0,11.42 -0.59,22.81 0.93,34.09 0.27,2.04 1.59,5.89 2.07,9.47zm98.19 -68.25c5.95,0.08 5.08,0.6 9.19,1.21l106.45 0.1c0.32,0.01 0.68,0.05 1,0.05l10.55 0c6.36,0.06 16.41,0.61 21.58,-2.37 -0.28,-4.76 1.6,0.26 -7.73,-9.42l-12.97 -14.87c-11.5,-12.1 -53.22,-52.92 -57.96,-60.38 -4.11,-6.47 -7.87,-8.1 -12.08,-12.91l-1.79 -2.9c-0.1,-0.15 -0.32,-0.5 -0.43,-0.66l-4.57 -5.82c-5.68,-7.13 -6.2,-2.2 -9.54,-7.32 -4.58,-7.04 -14.07,-16.8 -19.88,-22.6l-7.17 -7.43c-1.83,-1.87 -9.41,-10.39 -11.58,-10.05 -0.15,0.03 -0.56,0.14 -0.7,0.21 -2.48,1.27 -2.16,5.11 -2.02,8.7 0.12,3.32 -0.01,6.33 0.04,9.82 0.1,8.2 -0.04,13.11 0.06,19.96l-0.45 116.68z"/>
   <path class="fil0" d="M1437.82 1438.2c-0.97,0.55 -1.08,0.72 -3.01,1.49l-12.61 3.25c-7.9,1.63 -8.62,3.17 -13.63,7.55 -1.7,1.49 -0.66,0.77 -2.12,1.79 -17.38,12.19 -8.73,6.48 -22.47,25.13 -7.14,9.67 -6.08,29.66 -4.72,39.93 0.91,6.86 -1.17,-1.08 0.72,2.46l8.38 11.88c2.9,4.81 8.26,13.88 11.79,16.57l10.81 8.51c3.56,3.76 -0.96,1.91 3.28,2.62 25.64,4.29 4.37,5.34 42.27,5.35l912.51 0c4.17,0 16.13,-0.46 28.24,-4.63 10.67,-3.67 18.83,-11.63 25.59,-20.23l1.17 -1.47c7.29,-9.81 9.81,-16.47 12.51,-24.59 1.64,-4.94 0.53,2.47 0.13,-1.72l0.03 -20.68c-0.34,-5.23 0.76,-3.75 -0.27,-6.12 -2.56,-5.91 0.82,1.45 -1.31,-1.95 -5.26,-8.39 -1.16,-7 -4.75,-10.79l-6.2 -9.49c-7.42,-10.39 -9.9,-8.62 -19.8,-15.67 -4.08,-2.91 -1.43,-1.98 -6.59,-3.89 -0.32,-0.12 -0.68,-0.22 -1.01,-0.33l-7.22 -2.16c-7.5,-2.72 -1.67,-2.36 -8.09,-2.34l-933.84 -0.08c-0.18,0 -1.58,0 -1.76,0l-0.88 0c-0.18,0 -0.7,0 -0.88,0l-6.27 -0.39z"/>
   <path class="fil0" d="M1444.97 1926.27c88.03,0 934.2,1.69 944.11,-0.81 3.52,-0.89 11.34,-3.99 13.62,-5.95 10.3,-8.84 12.49,-5.95 19.44,-16.1l7.28 -11.22c6.35,-9.59 7.11,-19.74 7.38,-28.2 0.03,-0.87 0.05,1.8 -0.26,-1.98l0 -7.63c0.49,-5.82 0.33,1.51 0.12,-1.41l-0.14 -4.42c0.37,-3.95 2.11,3.22 -0.17,-1.68 -2.27,-4.89 0.38,2.09 -2.59,-4.06l-7.05 -11.41c-1.63,-2.34 -0.89,-1.08 -2.23,-3 -11.3,-16.13 -3.67,-6.27 -17.27,-15.72 -10.25,-7.13 -25.91,-11.37 -37.21,-11.37l-925.03 -0.01c-7.02,0.01 -10.75,1.06 -16.11,2.28 -11.13,2.55 -8.71,-0.51 -12.77,3.35 -1.48,1.41 0.47,0.22 -2.03,1.79 -2.53,1.59 -3.93,1.8 -6.1,3.04l-15.46 14.42c-0.03,0.04 -1.4,2.17 -1.59,2.46l-2.12 3.38c-6.4,9.08 -2.93,0.89 -4.47,6.68 -0.08,0.33 -0.24,1.4 -0.34,1.79l-3.18 8.68c-4.83,10.98 -1.49,31.83 4.98,42.73l8.16 11.7c2.22,2.79 1.39,2.27 4.26,4.96l30.4 16.92c3.82,1.46 9.79,0.79 16.37,0.79z"/>
   <path class="fil0" d="M1588.08 2168.65c3.21,-1.56 1.42,0.01 -1.18,-1.22 -3.1,-1.46 -7.09,-0.5 -10.37,-0.44l-36.95 0c-0.09,0 -0.44,0 -0.52,0l-73.9 0c-0.84,-0.02 -2.95,-0.18 -3.16,-0.17 -0.53,0.03 -0.94,0.16 -1.59,0.17l-32.02 1.7c-9.11,2.02 -15.06,5.57 -21.8,10.97 -14.63,11.72 -10.69,4.31 -21.88,25.57 -0.14,0.28 -0.32,0.62 -0.46,0.9 -6.83,13.94 -5.68,23.51 -5.11,38.72 0.14,3.77 12.73,21.36 15.56,24.83l9.04 7.93c14.01,9.25 8.34,7.79 26.98,14.13l4.26 1.36c1.78,0.28 1.85,0.11 3.7,0.06l3.49 -0.37c0.13,-0.02 0.5,-0.08 0.65,-0.09 0.18,-0.01 0.56,-0.05 0.76,-0.06 0.05,0 2.89,0 2.95,0 1.62,0 5.15,-0.06 6.43,0.01l2 0.25c8.08,1.19 9.64,-3.54 13.93,-12.57l24.13 -39.17c0.16,-0.19 0.42,-0.47 0.58,-0.67l3.52 -5.84c1.85,-2.6 0.33,-0.23 1.87,-2.16 2.64,-3.31 0.54,-0.76 2.86,-4.75 2.64,-4.53 15.38,-14.89 20.19,-19.66l7.95 -5.68c4.81,-2.48 7.49,-6.94 12.13,-9.97 6.33,-4.13 11.81,-8.6 18.74,-11.42l1.64 -0.58c4.12,-1.61 8.38,-5.09 12.92,-5.3 6.86,-0.32 -3.58,1.33 8.21,-3.4 6.18,-2.48 3.01,1.62 4.45,-3.08z"/>
   <path class="fil1" d="M2221.32 1302.29c2.76,9.67 9.98,19.34 19.25,25.01l3.28 2.1c3.2,2.09 -0.87,0.06 3.27,1.98 16.01,7.45 41.72,4.33 63.82,4.33l188.71 0.01c7.46,-0.02 4.92,-0.72 11.95,1.46 13.89,4.3 17.35,9.42 20.38,22.15 2.38,9.98 0.61,414.4 0.61,445.71l0 267.88c0,28.2 -1.71,62.24 0.35,89.73 7.52,4.45 -2.41,1.66 19.16,1.72 9.24,0.02 18.48,0 27.71,0l52.14 -0.93c4.65,-1.24 2.77,-27.92 2.77,-34.44l0 -770.64c0,-6.08 -0.14,-11.25 -0.03,-16.78l0.34 -58.15c0,-0.11 -0.02,-0.47 -0.03,-0.59 -0.01,-0.12 -0.06,-0.48 -0.07,-0.6 -0.02,-0.13 -0.1,-0.5 -0.12,-0.65l-4.06 -19.58 -18.33 -25.52c-4.15,-4.84 -2.21,-1.39 -5.14,-4.04 -2.66,-2.4 -3.19,-4.89 -7.86,-9.13l-18.34 -18.82c-0.23,-0.31 -0.92,-1.24 -1.1,-1.55 -2.85,-4.63 1.1,-1.95 -2.52,-3.72 -2.62,-1.29 -1.89,0.06 -3.61,-2.79 -3.14,-5.22 0.78,0.54 -0.61,-1.82 -1.46,-2.47 -2.27,0.32 -5.46,-4.39 -3.13,-4.62 -0.62,-3.39 -5.12,-7.99l-44.27 -45.29c-0.16,0.31 -0.28,0.78 -0.31,1l-0.15 2.91c0.95,3.45 2.85,2.81 6.32,7.04 0.74,0.91 1.26,1.86 2.33,2.99l2.95 2.55c0.21,0.18 0.54,0.39 0.74,0.56l6.76 7.61c0.26,0.29 0.95,1.13 1.2,1.42l3.1 3.49c0.78,0.89 1.33,1.53 2.51,2.82 0.63,0.68 1.39,1.45 1.93,2.04l59.9 64.07c2.77,3.01 1.55,2.1 4.01,5.13 7.43,9.14 18.96,20.83 19.77,33.1 0.77,11.73 1,22.09 1,33.88l0 852.04 -94.56 0.03 0 -733.31c0,-17.25 4.85,-68.87 -3.68,-80.46 -3.52,-4.78 -8.26,-9.7 -14.8,-11.19 -8.82,-2.01 -164.57,-0.84 -181.72,-0.84 -15.15,0 -60.21,2.72 -70.38,-2.14 -5.93,-2.83 -9.63,-1.14 -14.84,-3.48l-21.26 -18.12c-0.16,-0.24 -0.38,-0.56 -0.54,-0.8 -4.55,-6.62 -3.19,-6.22 -7.35,-7z"/>
   <path class="fil2" d="M819.13 1719.66c7.96,-5.69 2.43,-8.88 7.04,-16.21l10.24 -18.99c3.76,-6.23 2.86,-7.37 6.61,-11.67l6.37 -6.65c11.71,-16.24 9.9,-9.15 16.77,-17.28l36.58 -23.24c19.31,-10.13 30.83,-6.77 47.37,-11.87 10.06,-3.1 127.5,-1.72 141.48,-1.31 1.53,11.7 1.66,113.24 -0.67,120.96 -6.69,0.22 -84.03,-1.21 -88.7,1.08 -3.15,1.54 -0.67,0.04 -2.73,2.13 3.93,1.86 5.92,1.08 11.74,0.96l4.23 0.1c0.09,-0.01 0.44,-0.06 0.53,-0.06l7.35 0.06c1.27,0.08 -1.7,0.18 1.61,0.12 0.09,-0.01 0.45,-0.05 0.53,-0.05l21.65 -0.07c0.09,-0.01 0.44,-0.06 0.53,-0.06l12.1 0c0.09,0 0.44,0.05 0.53,0.06 0.09,0.01 0.44,0.06 0.53,0.07 0.09,0 0.45,0.04 0.54,0.05l6.89 -0.12c0.08,-0.01 0.44,-0.06 0.52,-0.06 0.22,-0.02 1.33,-0.02 1.55,0l15.31 -0.04c3.24,0.07 -1.68,0.32 2.66,0.22 13.87,-0.3 9.54,-1.56 9.53,-65.04 0,-8.07 1.33,-56.06 -1.22,-62.15 -18.38,-2.51 -125.3,-0.36 -149.78,0.2 -11.96,0.27 -15.3,0.29 -31.82,6.82 -2.82,1.12 -5.7,1.89 -9.3,2.89 -8.84,2.46 -18.25,9.13 -22.21,10.91 -16.76,7.57 -38.93,32.48 -48.85,48.86l-7.05 13.02c-4.4,7.84 -9.76,18.79 -8.46,26.36z"/>
  </g>
 </g>
</svg>
