<?xml version="1.0" encoding="UTF-8"?>
<!DOCTYPE svg PUBLIC "-//W3C//DTD SVG 1.1//EN" "http://www.w3.org/Graphics/SVG/1.1/DTD/svg11.dtd">
<!-- Creator: CorelDRAW 2020 (64 Bit) -->
<svg xmlns="http://www.w3.org/2000/svg" xml:space="preserve" width="58.4848mm" height="28.9171mm" version="1.1" style="shape-rendering:geometricPrecision; text-rendering:geometricPrecision; image-rendering:optimizeQuality; fill-rule:evenodd; clip-rule:evenodd"
viewBox="0 0 5890.11 2912.3"
 xmlns:xlink="http://www.w3.org/1999/xlink"
 xmlns:xodm="http://www.corel.com/coreldraw/odm/2003">
 <defs>
  <style type="text/css">
   <![CDATA[
    .str0 {stroke:black;stroke-width:81.2;stroke-miterlimit:22.9256}
    .fil1 {fill:none}
    .fil0 {fill:black;fill-rule:nonzero}
   ]]>
  </style>
 </defs>
 <g id="Camada_x0020_1">
  <metadata id="CorelCorpID_0Corel-Layer"/>
  <g id="_2388591821760">
   <g>
    <path class="fil0" d="M701.42 2858.97l0 -341.56 83.05 0 0 341.56 0 0 -83.05 0zm-51.43 53.33l0 -81.21 0 0 4.45 -0.02 4.42 -0.04 4.35 -0.08 4.28 -0.1 4.17 -0.13 4.08 -0.16 3.98 -0.18 3.91 -0.22 3.8 -0.23 3.66 -0.25 3.51 -0.27 3.32 -0.29 3.26 -0.33 3.1 -0.32 2.86 -0.34 2.73 -0.36 2.53 -0.36 2.38 -0.37 2.03 -0.34 1.77 -0.35 1.58 -0.33 1.12 -0.26 0.95 -0.26 0.43 -0.11 -0.17 0.05 -0.68 0.28 -1.54 0.75 -2.56 1.53 -3.84 2.97 -4.92 5.38 -5.15 9.45 -2.38 13.22 83.05 0 -2.62 14.53 -5.87 10.74 -6.11 6.65 -5.47 4.22 -4.65 2.76 -4.06 1.95 -3.61 1.45 -3.51 1.22 -3.31 1 -3.16 0.85 -3.37 0.81 -3.27 0.69 -3.4 0.65 -3.5 0.6 -3.48 0.55 -3.64 0.52 -3.74 0.48 -3.89 0.46 -3.93 0.42 -4.03 0.39 -4.23 0.37 -4.26 0.33 -4.36 0.31 -4.44 0.27 -4.51 0.24 -4.66 0.22 -4.72 0.18 -4.79 0.15 -4.86 0.12 -4.93 0.08 -4.99 0.06 -5.08 0.02 0 0zm0 -40.61l0 0 0 0 0 0 0 40.61 0 -40.61zm-134.48 -12.72l83.05 0 0 0 -2.38 -13.22 -5.15 -9.45 -4.92 -5.38 -3.84 -2.97 -2.56 -1.53 -1.54 -0.75 -0.68 -0.28 -0.17 -0.05 0.43 0.11 0.95 0.26 1.12 0.26 1.58 0.33 1.77 0.35 2.03 0.34 2.38 0.37 2.53 0.36 2.73 0.36 2.86 0.34 3.1 0.32 3.26 0.33 3.32 0.29 3.51 0.27 3.66 0.25 3.8 0.23 3.91 0.22 3.98 0.18 4.08 0.16 4.17 0.13 4.28 0.1 4.35 0.08 4.42 0.04 4.45 0.02 0 81.21 -5.08 -0.02 -4.99 -0.06 -4.93 -0.08 -4.86 -0.12 -4.79 -0.15 -4.72 -0.18 -4.66 -0.22 -4.51 -0.24 -4.44 -0.27 -4.36 -0.31 -4.26 -0.33 -4.23 -0.37 -4.03 -0.39 -3.93 -0.42 -3.89 -0.46 -3.74 -0.48 -3.64 -0.52 -3.48 -0.55 -3.5 -0.6 -3.4 -0.65 -3.27 -0.69 -3.37 -0.81 -3.16 -0.85 -3.31 -1 -3.51 -1.22 -3.61 -1.45 -4.06 -1.95 -4.65 -2.76 -5.47 -4.22 -6.11 -6.65 -5.87 -10.74 -2.62 -14.53 0 0zm83.05 -341.56l0 341.56 -83.05 0 0 -341.56 41.52 -40.61 41.52 40.61zm-83.05 0l0 -40.61 41.52 0 -41.52 40.61zm227.44 40.61l-185.91 0 0 -81.21 185.91 0 41.52 40.61 -41.52 40.61zm0 -81.21l41.52 0 0 40.61 -41.52 -40.61z"/>
   </g>
   <g>
    <path class="fil0" d="M5103.67 2858.97l0 -341.56 83.05 0 0 341.56 0 0 -83.05 0zm134.48 -27.89l0 81.21 0 0 -5.08 -0.02 -4.99 -0.06 -4.93 -0.08 -4.85 -0.12 -4.8 -0.15 -4.72 -0.18 -4.65 -0.22 -4.52 -0.24 -4.45 -0.27 -4.34 -0.31 -4.26 -0.33 -4.24 -0.37 -4.03 -0.39 -3.93 -0.42 -3.89 -0.46 -3.74 -0.48 -3.64 -0.52 -3.49 -0.55 -3.48 -0.6 -3.4 -0.65 -3.28 -0.69 -3.37 -0.81 -3.16 -0.85 -3.31 -1 -3.51 -1.22 -3.61 -1.45 -4.06 -1.95 -4.65 -2.76 -5.47 -4.22 -6.11 -6.65 -5.87 -10.74 -2.62 -14.53 83.05 0 -2.38 -13.22 -5.15 -9.45 -4.92 -5.38 -3.84 -2.97 -2.56 -1.53 -1.54 -0.75 -0.68 -0.28 -0.17 -0.05 0.43 0.11 0.95 0.26 1.12 0.26 1.57 0.33 1.79 0.35 2.03 0.34 2.37 0.37 2.53 0.36 2.73 0.36 2.86 0.34 3.1 0.32 3.26 0.33 3.31 0.29 3.53 0.27 3.66 0.25 3.79 0.23 3.92 0.22 3.97 0.18 4.08 0.16 4.18 0.13 4.27 0.1 4.35 0.08 4.42 0.04 4.45 0.02 0 0zm0 40.61l0 0 0 0 0 0 0 -40.61 0 40.61zm51.43 -12.72l83.05 0 0 0 -2.62 14.53 -5.87 10.74 -6.11 6.65 -5.47 4.22 -4.65 2.76 -4.06 1.95 -3.61 1.45 -3.51 1.22 -3.31 1 -3.16 0.85 -3.37 0.81 -3.27 0.69 -3.4 0.65 -3.5 0.6 -3.48 0.55 -3.64 0.52 -3.74 0.48 -3.89 0.46 -3.93 0.42 -4.03 0.39 -4.23 0.37 -4.26 0.33 -4.36 0.31 -4.44 0.27 -4.51 0.24 -4.66 0.22 -4.72 0.18 -4.79 0.15 -4.86 0.12 -4.93 0.08 -4.99 0.06 -5.08 0.02 0 -81.21 4.45 -0.02 4.42 -0.04 4.35 -0.08 4.28 -0.1 4.17 -0.13 4.08 -0.16 3.98 -0.18 3.91 -0.22 3.8 -0.23 3.66 -0.25 3.51 -0.27 3.32 -0.29 3.26 -0.33 3.1 -0.32 2.86 -0.34 2.73 -0.36 2.53 -0.36 2.38 -0.37 2.03 -0.34 1.77 -0.35 1.58 -0.33 1.12 -0.26 0.95 -0.26 0.43 -0.11 -0.17 0.05 -0.68 0.28 -1.54 0.75 -2.56 1.53 -3.84 2.97 -4.92 5.38 -5.15 9.45 -2.38 13.22 0 0zm83.05 -341.56l0 341.56 -83.05 0 0 -341.56 41.52 -40.61 41.52 40.61zm-41.52 -40.61l41.52 0 0 40.61 -41.52 -40.61zm-185.91 0l185.91 0 0 81.21 -185.91 0 -41.52 -40.61 41.52 -40.61zm-41.52 40.61l0 -40.61 41.52 0 -41.52 40.61z"/>
   </g>
   <g>
    <path class="fil0" d="M5580.54 2558.01l-5270.96 0 0 -81.21 5270.96 0 40.73 40.61 -40.73 40.61zm40.73 -40.61l0 40.61 -40.73 0 40.73 -40.61zm0 -2233.18l0 2233.18 -81.46 0 0 -2233.18 40.73 -40.61 40.73 40.61zm-40.73 -40.61l40.73 0 0 40.61 -40.73 -40.61zm-5270.96 0l5270.96 0 0 81.21 -5270.96 0 -40.73 -40.61 40.73 -40.61zm-40.73 40.61l0 -40.61 40.73 0 -40.73 40.61zm0 2233.18l0 -2233.18 81.46 0 0 2233.18 -40.73 40.61 -40.73 -40.61zm40.73 40.61l-40.73 0 0 -40.61 40.73 40.61z"/>
   </g>
   <g>
    <path class="fil0" d="M5848.98 0l41.13 40.61 -41.13 40.61 -5807.85 0 0 -81.21 5807.85 0zm0 0l41.13 0 0 40.61 -41.13 -40.61zm41.13 284.23l-41.13 40.61 -41.13 -40.61 0 -243.62 82.26 0 0 243.62zm0 0l0 40.61 -41.13 0 41.13 -40.61zm-5848.98 40.61l-41.13 -40.61 41.13 -40.61 5807.85 0 0 81.21 -5807.85 0zm0 0l-41.13 0 0 -40.61 41.13 40.61zm-41.13 -284.23l41.13 -40.61 41.13 40.61 0 243.62 -82.26 0 0 -243.62zm0 0l0 -40.61 41.13 0 -41.13 40.61z"/>
   </g>
   <line class="fil1 str0" x1="568.97" y1="2179.05" x2="5321.14" y2= "2179.05" />
  </g>
 </g>
</svg>
