<?xml version="1.0" encoding="UTF-8"?>
<!DOCTYPE svg PUBLIC "-//W3C//DTD SVG 1.1//EN" "http://www.w3.org/Graphics/SVG/1.1/DTD/svg11.dtd">
<!-- Creator: CorelDRAW 2020 (64 Bit) -->
<svg xmlns="http://www.w3.org/2000/svg" xml:space="preserve" width="42.3332mm" height="42.3332mm" version="1.1" style="shape-rendering:geometricPrecision; text-rendering:geometricPrecision; image-rendering:optimizeQuality; fill-rule:evenodd; clip-rule:evenodd"
viewBox="0 0 4233.32 4233.32"
 xmlns:xlink="http://www.w3.org/1999/xlink"
 xmlns:xodm="http://www.corel.com/coreldraw/odm/2003">
 <defs>
  <style type="text/css">
   <![CDATA[
    .str0 {stroke:black;stroke-width:50.8;stroke-miterlimit:22.9256}
    .fil1 {fill:none}
    .fil0 {fill:black;fill-rule:nonzero}
   ]]>
  </style>
 </defs>
 <g id="Camada_x0020_1">
  <metadata id="CorelCorpID_0Corel-Layer"/>
  <g id="_2551037895840">
   <g>
    <path class="fil0" d="M3837.58 1205l-3441.85 0 0 -50.8 3441.85 0 0 0 0 50.8zm153.33 102.17l-51.52 0 0 0 -0.14 -5.27 -0.39 -5.18 -0.66 -5.11 -0.9 -5.03 -1.14 -4.92 -1.39 -4.84 -1.61 -4.74 -1.84 -4.63 -2.06 -4.54 -2.25 -4.39 -2.48 -4.29 -2.67 -4.16 -2.87 -4.02 -3.04 -3.88 -3.22 -3.7 -3.4 -3.57 -3.56 -3.39 -3.7 -3.22 -3.87 -3.03 -4 -2.86 -4.14 -2.65 -4.27 -2.47 -4.36 -2.24 -4.51 -2.05 -4.6 -1.82 -4.7 -1.6 -4.8 -1.37 -4.86 -1.13 -4.99 -0.89 -5.05 -0.66 -5.12 -0.38 -5.22 -0.14 0 -50.8 7.86 0.2 7.8 0.6 7.67 0.98 7.55 1.35 7.46 1.73 7.28 2.09 7.14 2.42 6.98 2.78 6.77 3.07 6.64 3.4 6.41 3.71 6.22 3.99 6 4.28 5.79 4.55 5.56 4.82 5.32 5.07 5.06 5.31 4.82 5.56 4.54 5.78 4.27 5.98 3.97 6.2 3.7 6.39 3.39 6.61 3.06 6.74 2.76 6.95 2.41 7.1 2.07 7.24 1.72 7.4 1.34 7.51 0.98 7.61 0.59 7.74 0.2 7.81 0 0zm-25.76 0l0 0 0 0 0 0 25.76 0 -25.76 0zm-127.57 152.97l0 -50.8 0 0 5.22 -0.14 5.12 -0.38 5.05 -0.66 4.99 -0.89 4.86 -1.13 4.8 -1.37 4.7 -1.6 4.6 -1.82 4.51 -2.05 4.36 -2.24 4.27 -2.47 4.14 -2.65 4 -2.86 3.87 -3.03 3.7 -3.22 3.56 -3.39 3.4 -3.57 3.22 -3.7 3.04 -3.88 2.87 -4.02 2.67 -4.16 2.48 -4.29 2.25 -4.39 2.06 -4.54 1.84 -4.63 1.61 -4.74 1.39 -4.84 1.14 -4.92 0.9 -5.03 0.66 -5.11 0.39 -5.18 0.14 -5.27 51.52 0 -0.2 7.81 -0.59 7.74 -0.98 7.61 -1.34 7.51 -1.72 7.4 -2.07 7.24 -2.41 7.1 -2.76 6.95 -3.06 6.74 -3.39 6.61 -3.7 6.39 -3.97 6.2 -4.27 5.98 -4.54 5.78 -4.82 5.56 -5.06 5.31 -5.32 5.07 -5.56 4.82 -5.79 4.55 -6 4.28 -6.22 3.99 -6.41 3.71 -6.64 3.4 -6.77 3.07 -6.98 2.78 -7.14 2.42 -7.28 2.09 -7.46 1.73 -7.55 1.35 -7.67 0.98 -7.8 0.6 -7.86 0.2 0 0zm-3441.85 -50.8l3441.85 0 0 50.8 -3441.85 0 0 0 0 -50.8zm-153.33 -102.17l51.52 0 0 0 0.14 5.27 0.39 5.18 0.66 5.11 0.9 5.03 1.14 4.92 1.39 4.84 1.61 4.74 1.84 4.63 2.06 4.54 2.25 4.39 2.48 4.29 2.67 4.16 2.87 4.02 3.04 3.88 3.22 3.7 3.4 3.57 3.56 3.39 3.7 3.22 3.87 3.03 4 2.86 4.14 2.65 4.27 2.47 4.36 2.24 4.51 2.05 4.6 1.82 4.7 1.6 4.8 1.37 4.86 1.13 4.99 0.89 5.05 0.66 5.12 0.38 5.22 0.14 0 50.8 -7.86 -0.2 -7.8 -0.6 -7.67 -0.98 -7.55 -1.35 -7.46 -1.73 -7.28 -2.09 -7.14 -2.42 -6.98 -2.78 -6.77 -3.07 -6.64 -3.4 -6.41 -3.71 -6.22 -3.99 -6 -4.28 -5.79 -4.55 -5.56 -4.82 -5.32 -5.07 -5.06 -5.31 -4.82 -5.56 -4.54 -5.78 -4.27 -5.98 -3.97 -6.2 -3.7 -6.39 -3.39 -6.61 -3.06 -6.74 -2.76 -6.95 -2.41 -7.1 -2.07 -7.24 -1.72 -7.4 -1.34 -7.51 -0.98 -7.61 -0.59 -7.74 -0.2 -7.81 0 0zm25.76 0l0 0 0 0 0 0 -25.76 0 25.76 0zm127.57 -152.97l0 50.8 0 0 -5.22 0.14 -5.12 0.38 -5.05 0.66 -4.99 0.89 -4.86 1.13 -4.8 1.37 -4.7 1.6 -4.6 1.82 -4.51 2.05 -4.36 2.24 -4.27 2.47 -4.14 2.65 -4 2.86 -3.87 3.03 -3.7 3.22 -3.56 3.39 -3.4 3.57 -3.22 3.7 -3.04 3.88 -2.87 4.02 -2.67 4.16 -2.48 4.29 -2.25 4.39 -2.06 4.54 -1.84 4.63 -1.61 4.74 -1.39 4.84 -1.14 4.92 -0.9 5.03 -0.66 5.11 -0.39 5.18 -0.14 5.27 -51.52 0 0.2 -7.81 0.59 -7.74 0.98 -7.61 1.34 -7.51 1.72 -7.4 2.07 -7.24 2.41 -7.1 2.76 -6.95 3.06 -6.74 3.39 -6.61 3.7 -6.39 3.97 -6.2 4.27 -5.98 4.54 -5.78 4.82 -5.56 5.06 -5.31 5.32 -5.07 5.56 -4.82 5.79 -4.55 6 -4.28 6.22 -3.99 6.41 -3.71 6.64 -3.4 6.77 -3.07 6.98 -2.78 7.14 -2.42 7.28 -2.09 7.46 -1.73 7.55 -1.35 7.67 -0.98 7.8 -0.6 7.86 -0.2 0 0z"/>
   </g>
   <path class="fil1 str0" d="M604.94 1434.74l0 1560.84c0,31.99 -26.16,58.15 -58.15,58.15l0 0c-31.99,0 -58.15,-26.16 -58.15,-58.15l0 -1560.84 116.3 0z"/>
   <path class="fil1 str0" d="M3669.7 1434.74l0 1560.84c0,31.99 26.16,58.15 58.15,58.15l0 0c31.99,0 58.15,-26.16 58.15,-58.15l0 -1560.84 -116.3 0z"/>
   <path class="fil1 str0" d="M1103.24 1434.74l0 1093.41c0,31.99 -26.16,58.15 -58.15,58.15l0 0c-31.99,0 -58.15,-26.16 -58.15,-58.15l0 -1093.41 116.3 0z"/>
   <path class="fil1 str0" d="M3171.4 1434.74l0 1093.41c0,31.99 26.16,58.15 58.15,58.15l0 0c31.99,0 58.15,-26.16 58.15,-58.15l0 -1093.41 -116.3 0z"/>
  </g>
 </g>
</svg>
