<?xml version="1.0" encoding="UTF-8"?>
<!DOCTYPE svg PUBLIC "-//W3C//DTD SVG 1.1//EN" "http://www.w3.org/Graphics/SVG/1.1/DTD/svg11.dtd">
<!-- Creator: CorelDRAW 2020 (64 Bit) -->
<svg xmlns="http://www.w3.org/2000/svg" xml:space="preserve" width="42.3332mm" height="42.3332mm" version="1.1" style="shape-rendering:geometricPrecision; text-rendering:geometricPrecision; image-rendering:optimizeQuality; fill-rule:evenodd; clip-rule:evenodd"
viewBox="0 0 4233.32 4233.32"
 xmlns:xlink="http://www.w3.org/1999/xlink"
 xmlns:xodm="http://www.corel.com/coreldraw/odm/2003">
 <defs>
  <style type="text/css">
   <![CDATA[
    .fil0 {fill:black}
   ]]>
  </style>
 </defs>
 <g id="Camada_x0020_1">
  <metadata id="CorelCorpID_0Corel-Layer"/>
  <path class="fil0" d="M832.55 2003.53l-0.01 500.92c0.01,21.68 0.96,78.34 5.99,97.93 1.56,6.06 2.89,10.43 3.38,17.62 1.31,19.27 3.56,14.09 5.07,27.2 0.54,4.68 0.65,5.36 1.87,9.23 1.65,5.29 2.18,11.81 3.86,17.03l20.34 64.6c1.23,2.48 -0.07,-0.13 1.79,2.77 8.08,12.54 11.44,28.78 18.16,41.21 10.79,19.96 18.82,41.38 32.02,61.08l29.89 47.34c0.27,0.39 1.04,1.49 1.32,1.86l89.89 101.1c1.99,1.87 -0.01,-0.15 2.37,2.39l39.75 34.24c4.95,3.75 6.56,4.1 11.41,9.21 6.9,7.27 17.36,11.53 25.37,18.12l79.44 47.51c13.79,6.86 28.69,13.23 41.82,22.25 3.96,2.73 -0.73,0.94 6.38,2.5l41.71 13.51c10.21,4.91 21.4,6.14 31.3,10.35 13.45,5.73 53.96,12.92 69.4,15.58 5.08,0.88 12.94,0.69 19.02,2.2 25.06,6.24 72.85,7.44 100.09,7.44l1205.74 0c29.25,0 52.65,-2.48 80.31,-4.7 9.12,-0.73 8.39,-2.08 17.35,-3.36 5.66,-0.81 12.9,-0.81 19.2,-1.84l35.77 -7.58c14.35,-4.48 26.99,-4.19 40.93,-10.4 3.07,-1.37 5.83,-1.62 8.95,-2.35 22.52,-5.29 86.48,-31.56 105.98,-43.25 18.89,-11.32 37.86,-17.99 54.46,-30.86l25.75 -17.42c9.09,-6.16 17.3,-11.03 24.66,-17.13 23.36,-19.38 47.01,-38.16 68.65,-59.81l19.97 -21.73c10.19,-10.2 19.62,-23.79 29.43,-34.82 4.16,-4.67 5.58,-5.78 9.71,-11.12 3.03,-3.93 6.5,-6.95 9.3,-11.41l25.85 -38.53c5.77,-8.23 10.63,-18.83 15.73,-27.7 11.31,-19.67 20.59,-42.58 31.64,-63.12 1.11,-2.07 2.84,-5.89 3.62,-7.6 8.13,-17.99 30.27,-80.67 32.53,-94.19l9.28 -33.66c2.95,-7.56 1.2,-18.61 3.74,-26.84 1.87,-6.06 1.49,-0.21 2.31,-8.54l2.01 -30.53c1.91,-15.54 2.68,-5.5 3.21,-30.46 0.31,-14.4 0.4,-28.94 0.4,-43.35l0 -491.29c0,-16.87 0.62,-34.51 -1.02,-51.34 -0.48,-4.96 -0.63,-3.47 -1.46,-5.97 -1.58,-4.73 -1.33,-18.15 -3.9,-23.24l-3.66 -12.71c-1.2,-8.42 -5.81,-18.89 -8.39,-26.54 -10.79,-31.93 -17.68,-42.67 -32.35,-71.87l-9.43 -16.38c-1.58,-2.44 -0.27,-0.34 -1.97,-2.75 -17.23,-24.51 -43.72,-57.08 -68.37,-76.2 -0.27,-0.21 -0.64,-0.5 -0.91,-0.71l-17.21 -14.8c-5.01,-4.35 -10.03,-5.7 -16.05,-9.74 -12.82,-8.6 -24.71,-17.36 -38.92,-23.86 -3.83,-1.75 -6.76,-4.17 -10.81,-6.57l-51.08 -18.5c-4.08,-1.12 -2.7,-0.8 -5.29,-2.3 -0.03,-0.01 -1.36,-1 -2.81,-1.8 -8.63,-4.73 -57.44,-18.98 -68.84,-22.83 -25.37,-8.56 -52.83,-19.43 -78.54,-27.15 -5.43,-1.63 -7.33,-2.22 -12.2,-3.91 -5.38,-1.86 -9.88,-1.62 -14.63,-3.41 -16.56,-6.24 -31.47,-14.97 -46.78,-23.55 -3.63,-2.03 -7.71,-4.23 -11.08,-6.69 -18.4,-13.43 -77.71,-63.3 -94.02,-79.32l-28.22 -24.81c-5.55,-4.62 -12.57,-10.12 -18.07,-15.63 -6.63,-6.65 -12.7,-11.17 -18.89,-16.42l-117.33 -99.59c-0.26,-0.21 -0.64,-0.5 -0.9,-0.71l-78.08 -69.46c-4.56,-4.2 -5.51,-4.05 -9.43,-8.41l-85.34 -71.78c-7.41,-5.68 -11.04,-10.42 -19.01,-14.62 -5.62,-2.97 -6.11,-4.7 -10.12,-7.65l-32.15 -20.56c-4.23,-2.11 -7.84,-3.42 -12.43,-5.56 -41.22,-19.16 -66.89,-34.07 -111.62,-45.52 -6.97,-1.78 -5.73,-2.89 -12.96,-4.33l-27.7 -5.85c-5.61,-0.63 -11.4,-0.29 -16.92,-1.48 -32.37,-6.96 -118.93,-7.97 -151.06,-2.52 -4.34,0.73 -6.54,1.97 -12.75,3.03 -4.19,0.72 -10.78,0.67 -16.35,1.61 -6.15,1.03 -6.1,3.24 -12.98,4.18 -7.04,0.97 -8.92,0.75 -15,2.91l-26.55 7.19c-12.62,2.69 -23.63,5.61 -33.76,11.45 -0.31,0.18 -0.71,0.42 -1.01,0.6 -0.3,0.17 -0.68,0.44 -0.97,0.61l-16.43 5.99c-2.8,1.34 -2.34,0.97 -5.6,2.33l-90.81 49.16c-0.78,0.55 -1.91,1.36 -2.83,2.01l-41.3 32.28c-10.8,12.41 -27.09,20.83 -37.77,33.02l-47.25 39.6c-6.57,4.96 -11.93,11.05 -18.57,16.6 -3.61,3.02 -5.46,4.76 -9.61,8.06l-112.08 96.63c-9.82,9.32 -13.79,9.06 -28.21,24.87l-28.62 22.7c-3.54,3.2 -6.26,5.59 -9.25,8.38 -3.32,3.1 -5.66,5.38 -9.47,8.01 -0.29,0.2 -0.69,0.46 -0.97,0.66l-6.32 5.02c-0.25,0.22 -0.6,0.53 -0.84,0.76l-39.6 34.2c-0.25,0.21 -0.62,0.51 -0.88,0.71l-27.34 22.55c-3.63,3.04 -6.88,4.64 -10.45,7.39 -13.74,10.61 -22.78,23.86 -37.67,32.83 -5.76,3.47 -4.78,3.33 -9.4,6.76l-31.96 20.93c-3.45,2.93 -32.74,12.4 -39.05,13.94 -16.43,4.01 -35.43,13.64 -50.88,17.98 -9.36,2.63 -17.87,4.35 -26.16,9.14 -5.22,3.01 -7.56,1.63 -13.55,4.12 -10.64,4.42 -15.06,6.39 -26.98,8.34l-97.45 35.74c-23.89,11.62 -50.61,22.43 -71,40.05l-37.47 31.63c-3.45,2.93 -5.97,5.35 -8.66,8.76l-8.63 9.2c-0.39,0.38 -2.86,3.26 -3.68,4.22l-15.08 18.64c-0.21,0.25 -0.53,0.6 -0.74,0.86 -1.58,1.89 -3.12,3.93 -4.11,5.48l-20.51 30.9c-0.66,1.08 -2.5,3.82 -3.17,4.84 -0.19,0.28 -0.46,0.67 -0.64,0.96 -13.91,21.61 -24.21,52.81 -33.54,78.71 -3.01,8.34 -5.06,1.6 -5.68,10.91 -0.17,2.57 0.18,5.45 -0.12,8.21 -1.17,10.92 -4.44,10.8 -4.8,22.29 -0.4,12.67 -3.13,20.05 -3.41,32.1 -0.28,11.7 -0.25,23.67 -0.25,35.39zm2106.04 380.53c7.78,-2.38 -0.74,1.57 4.37,-1.62 4.65,-2.91 3.63,-5.06 7.28,-10.54 2.13,-3.18 3.34,-3.93 4.82,-6.59 21.31,-38.31 19.67,-41.62 29.77,-75.78 1.9,-6.45 3.23,-35.9 4.16,-43.82 0.49,-4.28 0.84,-17.91 -0.13,-21.7 -1.66,-6.49 -6.58,-8.3 -15.16,-8.3l-128.69 0c-5.91,0.05 -7.17,-0.86 -10.32,2.2 -6.32,5.54 -4.94,32.58 -2.92,41.42l-2.76 8.28c-5.19,20.21 -10.41,24.02 -26.33,38.64 -7.42,6.8 -10.69,4.08 -15.42,8.75 -8.84,0.69 -12.66,2.79 -19.5,3.93l-70.32 0.77c-20.1,0 -78.18,2.57 -93.91,-0.82 -2.58,-18.41 -0.72,-170.96 -0.72,-202.97 0,-89.2 -10.87,-91.24 39.12,-140.59 5.45,-5.37 10.09,-7.82 12.17,-15.13 2.95,-1.31 5.16,-5.76 7.78,-8.24 4.9,-4.62 4.89,-2.72 8.84,-9.43 -4.26,-9.03 -3.34,-5.18 -11.9,-14.22l-51.23 -51.75c-5.93,-5.48 -35.35,-37.07 -40.2,-37.42 -7.64,-0.55 -28.96,26.59 -35.33,32.72 -9.97,9.59 -20.35,18.55 -28.31,29.64 -11.53,16.07 -14.39,12.75 -27.76,39.56 -1.45,2.91 -3.01,6.72 -4.68,9.88 -2.43,4.59 -3.23,2.6 -4.39,7.65 -5.85,2.64 -4.12,-0.22 -6.58,7.52l-5.28 17.89c-1.03,6.71 -8.36,32.21 -8.84,48.37 -2.57,88.14 0.85,192.33 -0.31,283.59l-649.34 0c-0.83,-62.83 -0.07,-126.05 -0.07,-188.8 0,-31.3 0.8,-63.65 -0.34,-94.82 -0.29,-7.91 -8.06,-50.19 -11.67,-58.17 -5.11,-11.28 -0.4,-12.73 -9.42,-16.35 -4.45,-4.92 -1.29,-7.43 -12.96,-25.71 -11.91,-18.66 -19.87,-33.6 -38.56,-49.58 -13.17,-11.27 -23.51,-25.46 -31.85,-32.25l-24.51 -23.96c-6.34,-7.87 -7.35,-9.34 -14.4,-2.19 -0.23,0.23 -0.55,0.59 -0.79,0.83l-31.71 32.6c-4.8,4.6 -8.7,8.68 -13.81,13.55l-23.84 22.6c-0.22,0.24 -0.51,0.62 -0.73,0.86l-1.47 1.75c-32.97,37.97 -30.95,20.03 -11.61,44.41 18.17,22.91 61.63,55.56 69.49,81.4 4.27,14.04 2.84,41.88 2.84,58.47l0.04 224.81c0.22,22.45 3.75,15.8 -83.67,15.8 -28.84,0 -74.25,5.28 -99.18,-5.09 -10.2,-4.24 -18.6,-7.55 -26.73,-14.91l-17.23 -24.21c-1.33,-2.95 -1.36,-3.76 -2.83,-6.87 -7.3,-15.49 -0.44,-28.03 -3.99,-49.18l-148.31 -0.49c-8.41,41.12 8.59,94.43 24.33,131.09l17.94 29.79c4.04,3.67 2.91,1.1 7.88,8.56 0.27,0.4 1.04,1.6 1.3,2l13.87 14.74c5.02,4.7 11.26,9.09 15.99,14.74 0.31,0.37 1.14,1.55 1.42,1.93 0.24,0.31 1.72,2.5 1.92,2.7 4,4.03 52.12,28.31 56.63,29.79 4.05,1.33 7.33,1.61 11.58,3.11 4.27,1.51 6.99,2.77 11.49,4.25 15.78,5.19 38.16,8.47 55.24,8.68 10.71,0.13 21.41,0.08 32.12,0.08l1199.31 0c19.39,0 44.87,1.37 63.45,-0.64 10.48,-1.14 17.45,-3.41 26.45,-3.99 20.93,-1.37 33.45,-9.96 48.11,-15.55 3.73,-1.43 7.58,-2.58 11.8,-4.63 40.5,-19.64 78.45,-63.01 78.5,-63.04zm-1956.09 -378.93l0 496.11c0.02,41.6 3.86,38.64 4.57,60.96 0.42,12.91 1.07,18.92 3.38,29.32 1.24,5.53 1.27,8.26 2.18,13.88 1.05,6.52 2.83,7.44 4,13.36 3.73,18.8 8.32,34.63 14.06,52.08 1.9,5.76 1.77,6.75 4.32,11.62l25.73 57.64c6.87,13.86 14.47,23.35 21.04,36.64 1.59,3.22 1.33,2.82 2.85,5.36 4.41,7.4 8.66,14.25 13.11,20.75 4.64,6.75 8.26,12.41 13.49,18.57 4.15,4.89 5.46,10.26 9.82,14.13 2.57,2.27 3.42,2.56 5.37,4.43l12.08 12.03c0.2,0.2 2.26,2.42 2.28,2.44 9.16,11.21 0.55,2.97 16.26,19.11l34.64 31.18c5.76,5.11 12.6,8.56 18.05,13.93 4.04,3.97 13.99,11.62 18.89,14.84 13.4,8.81 25.7,16.8 40.68,25.24 7.39,4.16 13.38,7.87 21.65,11.95 7.95,3.93 15.5,6.56 22.78,11.05 9.36,5.78 46.7,20.59 58.43,22.77 9.21,1.71 5.31,2.74 13.2,4.4 3.71,0.78 3.29,0.02 7.07,1.55l2.15 1.2c9.75,5.18 -5.63,-1.35 2.73,1.66 4.66,1.68 10.26,0.02 15.81,2.19 6.78,2.66 -0.35,2.93 11.76,3.44 14.7,0.62 16.81,4.3 27.34,4.83 6.18,0.32 11.76,0.5 16.83,1.05 23.01,2.51 38.33,3.99 63.52,3.99l1208.95 0c10.29,-0.01 21.91,0.27 32.07,-0.27 9.64,-0.51 18.73,-3.44 28.95,-4.21l43.17 -5.42c5.75,-0.59 8.23,-2.44 13.57,-3.76 4.89,-1.2 10.39,-0.49 14.94,-1.58 7.2,-1.72 0.23,-2.93 11.72,-4.33 10.79,-1.31 9.82,-3.8 19.28,-5 11.41,-1.46 19.9,-7.25 30.27,-12.22l16.25 -7.47c8.91,-5.45 19.12,-8.36 28.68,-13.31 16.69,-8.64 36.92,-19.51 51.6,-30.2l9.31 -8.15c0.37,-0.26 1.51,-0.94 1.91,-1.19 1.7,-1.05 1.6,-0.85 3.12,-1.81l13.38 -10.68c3.34,-2.18 6.15,-1.69 10.88,-5.51 3.84,-3.11 5.01,-4.96 9.46,-8.14 13.72,-9.8 22.62,-20.07 35.37,-32.02 2.83,-2.65 5.88,-4.81 8.28,-7.68 4.47,-5.35 2.35,-3.47 7.88,-8.36l4.5 -4.98c0.22,-0.26 0.51,-0.64 0.73,-0.9 0.44,-0.51 1.97,-2.21 2.33,-2.6 1.51,-1.62 2.35,-2.32 3.81,-4.02l3.54 -4.48c0.22,-0.28 0.51,-0.65 0.73,-0.92l33.67 -45.16c9.5,-11.8 15.58,-24.58 23.13,-37.68l1.75 -3.1c0.18,-0.31 0.42,-0.72 0.6,-1.02l17.53 -35.45c2.24,-6.28 1.47,-6.37 4.11,-12.24l15.87 -41.76c1.05,-2.3 1.38,-3.36 2.23,-5.72l6.76 -25.62c2.01,-5.67 1.69,-8.59 2.95,-14.83 1.34,-6.66 2.44,-4.05 3.86,-11.93l9.27 -74.58c0.97,-9.86 1.01,-21.41 1.01,-32.51l0 -492.89c-0.01,-40.36 -7.57,-64.25 -22.14,-98.24 -6.93,-16.17 -7.45,-15.44 -15.78,-27.74 -4.16,-6.13 -6.34,-12.96 -11.84,-18.69 -3.33,-3.46 -4.01,-5.25 -7.13,-9.06 -7.56,-9.26 -20.86,-21.54 -30.68,-28.51l-18.47 -12.21c-3.84,-2.58 -4.81,-3.96 -8.14,-6l-3.06 -1.67c-0.33,-0.17 -0.74,-0.39 -1.07,-0.56l-52.53 -18.79c-8.07,-2.91 -9.36,-6.72 -20.57,-9.09 -9.75,-2.05 -3.93,-1.68 -10.69,-3.92 -3.03,-1 -3.83,-0.62 -6.8,-1.32 -7.04,-1.66 -2.75,-0.8 -5.92,-2.32 -8.17,-3.94 -23.27,-7.01 -33.82,-11.01 -3.82,-1.45 -6.82,-1.93 -11.05,-3.44 -7.29,-2.59 -16.1,-6.13 -23.16,-7.57 -18.64,-3.79 -23.37,-11.45 -44.96,-15.55l-44.74 -15.24c-11.72,-6.88 -27.95,-12.66 -39.77,-21.02l-26.27 -17.05c-1.53,-1.1 -2.61,-1.71 -4.78,-3.15 -0.29,-0.19 -0.68,-0.46 -0.97,-0.66 -19.08,-12.99 -37.04,-28.62 -54.63,-43.53l-64.77 -55.63c-9.86,-7.72 -18.01,-17.31 -27.52,-25.44 -2.03,-1.72 -2.25,-1.97 -4.29,-3.64l-82.23 -68.7c-0.24,-0.22 -0.58,-0.55 -0.82,-0.78 -0.24,-0.22 -0.59,-0.56 -0.83,-0.78l-5.48 -5.9c-9.15,-10.84 -44.95,-38.55 -56.81,-49.1l-97.81 -83.58c-33.33,-28.95 -66.51,-61.66 -106.76,-81.38l-7.24 -3.79c-11.63,-7.46 -34.97,-18.58 -48.83,-23.23 -69.62,-23.34 -141.15,-28.87 -214.22,-13.65 -3.99,0.83 -6.34,2.58 -10.61,3.58 -12.5,2.92 -58.39,19.76 -65.59,24.09l-65.36 40.53 -33.75 27.29c-5.75,5.13 -10.81,9.52 -16.37,14.14 -2.99,2.48 -4.12,4.05 -7.8,6.64 -3.68,2.59 -5.91,2.77 -9.61,6.44l-48.35 41.65c-22.94,18.08 -48.18,43.54 -72.06,62.75 -3.91,3.16 -5.56,3.17 -9.47,6.55l-7.76 6.8c-2.87,2.34 -5.41,4.97 -8.49,7.53 -27.49,22.86 -53.56,47.82 -80.8,70.01 -13.99,11.4 -25.75,25.06 -40.93,34.39 -19.8,12.16 -39.14,33.35 -57.12,48.97l-66.18 54.32c-3.72,2.66 -3.77,3.55 -7.9,6.43l-48.09 27.76c-5.49,2.49 -4.47,1.91 -9.38,4.73l-65.64 25.81c-12.82,3.56 -22.07,8.53 -35.15,11.34 -16.12,3.45 -30.37,10.29 -46.41,14.92 -14.88,4.29 -42.01,16.89 -54.85,18.96 -13.89,2.23 -21.75,6.34 -34.39,11.78l-50.81 26.43c-10.88,6.97 -30.8,22.92 -39.65,32.71l-26.3 34.62c-8.93,13.73 -12.66,27.72 -18.54,42.77l-7.62 22.72c-4.47,16.36 -5.93,36.17 -5.93,55.28z"/>
 </g>
</svg>
