<?xml version="1.0" encoding="UTF-8"?>
<!DOCTYPE svg PUBLIC "-//W3C//DTD SVG 1.1//EN" "http://www.w3.org/Graphics/SVG/1.1/DTD/svg11.dtd">
<!-- Creator: CorelDRAW 2020 (64 Bit) -->
<svg xmlns="http://www.w3.org/2000/svg" xml:space="preserve" width="42.3332mm" height="42.3332mm" version="1.1" style="shape-rendering:geometricPrecision; text-rendering:geometricPrecision; image-rendering:optimizeQuality; fill-rule:evenodd; clip-rule:evenodd"
viewBox="0 0 4233.32 4233.32"
 xmlns:xlink="http://www.w3.org/1999/xlink"
 xmlns:xodm="http://www.corel.com/coreldraw/odm/2003">
 <defs>
  <style type="text/css">
   <![CDATA[
    .fil0 {fill:black}
   ]]>
  </style>
 </defs>
 <g id="Camada_x0020_1">
  <metadata id="CorelCorpID_0Corel-Layer"/>
  <g id="_2550505272592">
   <path class="fil0" d="M2491.38 3018.68l354.39 3.33c69.74,-39.53 121.11,-312.45 135.85,-408.27 25.7,-167.04 30.69,-328.97 35.08,-501.95 264.1,3.47 223,-43 223,-367.44 0,-299.46 20.57,-299.38 -288.35,-299.38 -34.97,-77.77 -43.41,-164.55 -95.38,-231.21l-365.05 -3.22 0.46 1808.14zm525.61 -1045.78l94.88 8.5 -0.8 -406.55 -132.03 -0.11 37.95 398.16z"/>
   <path class="fil0" d="M2388.04 3024.53l-1.08 -185.14 -1215.7 0.52 0.19 -1446.65 1212.61 0.18 4.5 -184.65c-381.25,4.03 -763.28,1.16 -1144.2,3.01 -280.37,1.35 -251.13,135.5 -251.13,318.36l0 1152.59c0,180.66 -39.85,338.37 240.9,339.05 383.97,0.92 770.21,-1.34 1153.91,2.73z"/>
   <path class="fil0" d="M1976.74 1927.95c-17.21,39.51 -99.35,36.31 -113.84,248.55 -8.29,121.58 -3.82,251.27 -3.14,373.66 0.77,138.49 -15.31,221.15 138.91,227.94 144.35,6.36 242.83,13.88 248.4,-137.82l-193.8 -0.37 -1.61 -336.19 191.75 -1.88c13.82,-98.54 0,-274.72 -82.05,-342.03 -34.11,-27.98 -12.62,5.83 -31.46,-31.86 0,-101.7 11.45,-319.35 -13.52,-400.9 -179.89,-49.46 -139.64,57.93 -139.64,400.9z"/>
   <path class="fil0" d="M1419.48 1783.53l28.67 4.81 -3.48 331.09 -67.33 2.64c-100.52,17.96 -76.68,138.97 -77.7,244.49 -4.19,434.08 -33.8,413.79 250.73,412.16 135.66,-0.77 193.52,11.03 193.8,-138.44l-221.98 -0.18 -1.62 -337.02 220.17 -1.27c12.02,-87.33 11.09,-175.03 -81.53,-176.69l-66.39 -7.55 -0.48 -301.81c3.07,-47.5 -1.61,-14.99 16.09,-27.47 34.54,-7.21 14.08,-0.59 31.31,-13.34l1.7 -86.64c-57.32,-23.57 -170.57,-15.62 -233.87,-5.87 -3.87,42.84 -12.34,72.13 11.91,101.09z"/>
   <path class="fil0" d="M1377.34 2122.07l67.33 -2.64 3.48 -331.09 -28.67 -4.81 18.73 11.74 -0.03 20.49 0.1 295.79c-36.42,-0.46 -34.07,-5.35 -60.94,10.52z"/>
   <path class="fil0" d="M1659.21 2125.12c-22.62,-15.32 -22.26,-9.53 -57.37,-8.99 0.78,-78.16 -9.52,-263.83 6.59,-327.84 -17.7,12.48 -13.02,-20.03 -16.09,27.47l0.48 301.81 66.39 7.55z"/>
  </g>
 </g>
</svg>
