<?xml version="1.0" encoding="UTF-8"?>
<!DOCTYPE svg PUBLIC "-//W3C//DTD SVG 1.1//EN" "http://www.w3.org/Graphics/SVG/1.1/DTD/svg11.dtd">
<!-- Creator: CorelDRAW 2020 (64 Bit) -->
<svg xmlns="http://www.w3.org/2000/svg" xml:space="preserve" width="42.3332mm" height="42.3332mm" version="1.1" style="shape-rendering:geometricPrecision; text-rendering:geometricPrecision; image-rendering:optimizeQuality; fill-rule:evenodd; clip-rule:evenodd"
viewBox="0 0 4233.32 4233.32"
 xmlns:xlink="http://www.w3.org/1999/xlink"
 xmlns:xodm="http://www.corel.com/coreldraw/odm/2003">
 <defs>
  <style type="text/css">
   <![CDATA[
    .fil0 {fill:black}
   ]]>
  </style>
 </defs>
 <g id="Camada_x0020_1">
  <metadata id="CorelCorpID_0Corel-Layer"/>
  <path class="fil0" d="M1157.11 881.91c3.11,-16.79 27.66,-40.23 43.32,-44.99 26.45,-8.04 51.18,-5.55 80.79,-5.55l516.63 0c22.19,0 665.63,-2.12 689.16,0.83 0.57,7.1 -2.14,27.96 -2.16,39.27 -0.04,42.11 6.67,41.46 -18.6,41.25 -204.92,-1.72 -1198.92,-0.23 -1203.22,0.69 -17.62,3.77 -22.42,14.02 -28.39,27.4 -2.62,5.89 -1.97,10.69 -1.93,17.61 0.05,11.94 0.02,23.87 0.02,35.81l-0.02 2112.57c-0.01,17.03 -0.66,16.81 8.39,28.16 6.41,8.05 9.93,12.62 22.52,14.87 14.52,2.6 793.09,0.87 924.69,0.87 31.24,0 270.16,-1.67 294.84,0.54 0.1,0.55 4.3,76.5 1.04,79.34 -12.23,5.21 -225.11,1.52 -258.37,1.52l-226.24 0.34c-14.94,2.41 -16.94,6.52 -23.25,8.44 -15.71,19.53 -21.95,45.92 2.13,63.71 11.78,8.71 23.67,6.86 41.05,6.84 22.29,-0.01 222.63,-2.56 234.02,1.27 8.12,2.73 3.66,61.69 6.74,87.36 2.75,22.92 25.3,46.82 42.08,59.94 7.58,5.93 13.41,8.5 23.13,12.81l26.35 7.3c22.74,1.19 201.55,1.46 218.43,-0.51 2.14,-0.25 2.24,-0.22 4.21,-0.8l13.32 -5.12c26.31,-11.37 46.65,-30.42 57.26,-56.93 2.41,-6.03 2.02,-3 3.55,-8.44l5.43 -28.62c0.77,-22.08 -2.21,-47.07 1.81,-67.94 44.39,-3.16 71.29,6.94 112.72,-7.2l5.38 -2.59c20.97,-12.8 36.35,-28.25 49.5,-49.35 2.08,-3.33 2.9,-5.94 4.5,-9.22 2.49,-5.13 5.45,-13.02 7.11,-19.87 3.64,-14.94 1.54,-593.64 1.3,-672.58 -0.05,-16.86 -3.08,-26.98 -15.61,-37.35 -12.37,-10.24 -39.75,-12.49 -56.7,11.25 -12.71,17.8 -6.98,72.96 -6.98,101.13l0 538.79c0,20.68 6.31,48.27 -10.74,61.65 -6.58,5.16 -18.33,6.09 -27.67,6.14 -20.45,0.1 -115.63,2.21 -131.07,-1.73 -15.67,-4 -23.62,-14.8 -23.88,-30.17l-0.02 -2289.97c0,-16.11 -4.91,-49.71 3.84,-62.44 5.82,-8.49 13.53,-15.01 24.88,-16.01 30.64,-2.73 75.27,-0.11 107.43,-0.11 25.45,0 48.61,-1.71 55.76,24.47 2.9,10.66 0.73,1405.7 0.72,1481.22 -0.01,26.04 0.11,46.06 22.44,57.42 12.66,6.44 29.71,4.5 42.32,-4.31 4.17,-2.91 9.82,-10.18 12.51,-14.73 5.97,-10.1 2.76,-384.8 2.76,-428.84 0,-35.77 -3.01,-191.97 2.19,-214.11l72.9 -0.28c16.71,0.36 11.24,11.82 11.23,26.84 -0.05,59.68 -2.8,341.1 2.04,364.5 4.23,20.43 -0.33,8.84 7.49,33.64 9.41,29.86 40.25,60.07 71.91,69.58 6.27,1.88 5.24,0.98 10.51,3.26 8.09,3.5 43.21,4.51 51.97,1.13 6.26,-2.41 -0.87,-1.7 10.08,-3.62 2.63,-0.46 3.13,-0.08 5.75,-1.03 0.34,-0.13 0.77,-0.35 1.09,-0.5l2.87 -1.93c8.69,-5.42 18.98,-9.6 26.73,-15.93 16.46,-13.44 30.38,-26.32 39.04,-45.9 2.35,-5.31 2.47,-3.66 4.35,-9.01 9.09,-25.98 5.39,-54.91 5.39,-82.17 0,-23.36 2.65,-378.53 -1.71,-392.84 -0.93,-3.06 -2.1,-2.92 -4.16,-8.92l-11.14 -32.96c-2.67,-12.28 -12.3,-26.56 -19.16,-37.22l-21.1 -28.47c-0.23,-0.28 -0.54,-0.68 -0.76,-0.95 -16.07,-19.1 -53.85,-45.84 -76.02,-55.13 -16.57,-6.94 -35.96,-14 -53.34,-16.79 -40.02,-6.42 -81.95,-4.86 -122.98,-4.55 -1.62,0.01 -5.39,0.1 -6.82,-0.05 -4.32,-0.46 0.85,0.44 -2.98,-0.48 -3.94,-0.94 -1.41,0.08 -3.68,-1.52 -4.13,-4.34 -1.69,-141.63 -1.69,-158.4l0 -400.69c0,-34.16 6.81,-80.82 -8.92,-112.11 -4.49,-8.92 -8.54,-18.43 -15.34,-25.79 -15.69,-16.96 -18.14,-19.9 -37.45,-32.42l-5.65 -4.18c-15.38,-8.49 -126.03,-5.5 -154.41,-5.5l-1365.74 0c-30.57,0 -48.29,-2.09 -71.89,7.79 -6.25,2.61 -7.89,1.27 -13.63,4.96l-19.37 11.55c-8.46,3.67 -8.27,4.93 -15.02,10.36l-12.33 13.1c-5.82,5.23 -5.09,3.85 -9.9,10.48l-11.95 19.22c-4.92,9.59 -13.77,20.47 -16.73,31.87 -0.87,3.38 -0.73,5.16 -1.86,8.63 -3.46,10.52 -3.94,13.7 -4.3,26.23 -2.31,80.02 -0.33,160.37 -0.33,240.41 0,201.92 -2.56,2026.73 1.23,2047.2 0.91,4.91 3.38,8.57 5.42,14.26 6.11,17 7.21,21.49 18.08,36.47 1.96,2.7 -0.22,-0.89 1.96,2.96 4.32,7.61 2.29,6.21 8.25,12.54 7.39,7.86 11.01,14.47 19.84,21.14l36.65 24.49c2.5,26.82 -3.04,69 1.49,92.41 4.75,24.57 13.81,44.76 31.69,62.09 14.66,14.21 44.98,28.8 64.58,29.11 27.74,0.44 192.76,1.99 209.82,-0.29 10.04,-1.34 1.46,-0.2 8.44,-2.98 11.43,-4.56 22.59,-5.31 33.78,-14.14l18 -16.04c46.58,-48.6 18.31,-73.48 30.62,-134.69 46.97,-5.13 227.08,3.71 265.53,-1.28 6.59,-0.86 4.61,-0.72 9.25,-3.78 4.37,-2.87 4.23,-2.12 7.72,-5.76 9.79,-10.22 14.58,-27.79 9.36,-41.63 -1.21,-3.2 -7.98,-15.49 -9.93,-17.44 -11.13,-11.09 -26.93,-11.82 -42.03,-11.78 -16.59,0.03 -575.59,2.48 -587.85,-1.09l-20.11 -7.25c-14.57,-8.72 -24.19,-19.54 -32.42,-34.19 -2.84,-5.06 -0.25,1.09 -2.45,-4.51 -0.7,-1.75 -0.99,-3.63 -1.55,-5.48 -2.88,-9.43 -4.93,-8.62 -5.27,-21.48l-0.04 -2226.87c0,-9.06 -0.17,-18.33 0.21,-27.37 0.55,-13.26 3.72,-12.61 5.32,-20.16zm153.63 117.43l0 549.03c0,9.79 -0.25,11.34 9.7,11.34 95.43,0 211.56,1.89 304.45,-0.12 5.56,-9.72 2.19,-15.22 3.63,-24.92 1.38,-9.32 1.12,-2.95 2.32,-7.81 3.2,-12.97 -3.12,-1.95 6.24,-33.5l8.41 -21.01c0.17,-0.37 0.37,-0.83 0.54,-1.19l25.82 -31.88c10.77,-12.02 10.04,-6.91 17.74,-12.86 15.21,-11.78 7.72,-6.56 25.3,-15.66 18.24,-9.43 40.91,-13.9 65.91,-13.9l257.47 0c17.03,0 20.32,1.57 34.78,4.17 30.53,5.48 54.2,18.84 76.25,41.42 12.98,13.3 30.41,44.64 35.81,61.02 1.99,6.02 0.78,11.3 3.12,17.76 4.92,13.62 1.27,22.01 3.91,36.96 21.96,1.48 269.03,1.27 291.1,-0.71 3.99,-25.19 1.18,-491.39 1.16,-558.14 0,-9.08 -2.78,-7.83 -11.34,-7.83l-1155.18 0c-5.97,0 -7.14,0.99 -7.14,7.83zm129.4 787.75c0.5,-4.91 2.49,-7.92 5.35,-11.55l5.78 -6.02c8.86,-8.79 9.97,-8.77 15.69,-11.1 4.37,-1.79 0.6,-0.11 4.86,-2.16 4.91,-2.36 11.06,-4.12 16.13,-5.91 11.32,-3.99 186.68,-1.78 219.6,-1.77 18.33,0 21.63,7.43 39.24,5.21 16.41,-2.06 -0.8,-5.22 37.42,-5.18 58.52,0.05 144.63,-1.93 199.59,0.01 10.23,0.36 8.7,2.31 17.04,4.61 9.02,2.48 20.18,10.61 27.07,16.9 4.43,4.03 7.24,7.44 10.23,11.9 3.6,5.38 3.97,9.06 5.76,14.3 5.1,2.93 2.76,-4.32 4.51,4.4 10.11,6.95 6.55,28.9 6.55,49.44l0 276.22c0,34.29 -2.34,77.81 0.41,110.98l422.9 -0.02 0.41 -327.82c-27.31,-3.25 -112.33,2.45 -128.46,-2.05 -7.48,-2.09 -0.13,-1.13 -7,-1.37 -8.17,-0.28 -12.46,-1.11 -19.94,-1.85l-0.38 -5.84c-7.32,-3.34 -17.73,-8.53 -26.46,-13.34l-10.64 -6.21c-0.25,-0.22 -0.59,-0.59 -0.84,-0.82 -0.24,-0.24 -0.58,-0.62 -0.83,-0.86l-7.66 -7.79c-0.25,-0.25 -0.61,-0.61 -0.85,-0.86 -0.25,-0.25 -0.61,-0.61 -0.86,-0.86l-9.33 -12.28c-0.53,-1.03 -0.88,-1.96 -1.66,-3.5l-7 -13.68c-4.34,-7.36 -0.38,1.66 -2.93,-11.84 -1.6,-8.51 -3.32,-5.69 -3.58,-18.76l-0.01 -163.86c-14.2,-4.51 -416.42,-1.71 -467.74,-1.71 -117.08,0 -234.16,0 -351.24,0 -36.27,0 -81.89,-2.44 -117.02,0.32l-0.87 595.64 114.61 0.37c2.31,-110.39 0.12,-232.99 0.12,-345.59 0,-12.63 -1.41,-75.61 1.47,-85.14l4.89 -14.98c3.57,-6.48 1.94,-3.33 5.67,-5.58zm294.22 797.95c20.38,0.96 14.7,-4.79 30.99,-5.28 56.38,-1.7 137.24,-0.06 196.19,-0.08 28.27,-0.01 26.97,-2.24 49.55,8.51l12.18 6.83c12.85,3.65 23.83,25.36 26.52,37.04 6.83,29.68 3.82,149.32 3.82,184.87 0,83.65 0,167.3 0,250.95l195.02 0.84 0 -583.57 -935.25 0.01 0 583.16 114.73 0.36c0,-133.03 0.05,-265.71 0,-398.38 -0.01,-39.88 -0.15,-19.29 5.11,-44.47 2.45,-11.77 10.45,-21.41 19.64,-29.33 6.88,-5.91 21.55,-16.68 31.11,-17.73 27.88,-3.08 225.19,-1.91 249.09,0.72l1.3 5.55zm-420.61 -184.41c0.35,0.24 0.95,0.06 1.15,0.55 1.21,2.89 286.7,1.27 288.58,1.27l842.29 0c46.34,0 37.62,7.47 37.62,-40.77 0,-8.07 3.5,-34.45 -2.82,-37.91l-1164.74 -0.43c-7.36,2.52 -3.94,27.67 -3.94,36.64 0,11.06 -3.32,32.57 1.86,40.65zm1022.34 666.64l7.38 0.3 127.88 -0.05 7.34 -0.47 -0.01 -579.92 -142.59 -0.56 0 580.7zm-624.31 -1545.28c-0.99,19.51 -14.89,34.92 9.23,35.07 63.98,0.41 383.53,1.54 387.02,-1.83l1.66 -5.29c0.24,-1.98 0.01,-4.24 -0.21,-6.21 -4.58,-40.72 -26.82,-48.04 -32.54,-57.55l-17.19 -6.85c-8.25,-3.04 -14.76,-2.43 -24.89,-2.46 -45.44,-0.1 -241.66,-1.85 -263.91,0.35 -25.28,2.5 -52.21,19.86 -59.17,44.77zm69.49 1480.49c7.21,0.09 8.98,-3.96 17.82,-10.36l73.26 -56.05c2.16,-1.4 2.58,-1.59 4.23,-2.74l37.85 -28.63c6.11,-4.27 12.06,-7.25 17.68,-11.54 5.63,-4.29 9.68,-9.09 16.03,-12.94 6.95,-4.22 12.69,-6.58 17.37,-11.44 7.78,-8.07 6.03,-8.13 5.93,-22.85 -0.09,-14.09 2.05,-112.4 -1.59,-116.06 -5.27,-5.31 -9.61,3.83 -16.47,8.91 -3.14,2.32 -4.81,2.91 -8.14,5.51 -14.65,11.44 -17.92,11.74 -21.35,14.49 -0.27,0.22 -0.63,0.57 -0.9,0.8l-78.29 58.37c-1.58,1.11 -2.2,1.69 -3.72,2.91l-30.94 22.04c-6.15,4.65 -7.63,8.44 -22.68,19.76 -8.97,6.75 -6.7,8.55 -6.6,22.46 0.28,36.51 -2.58,82.11 0.51,117.36zm-270.28 -963.72l-0.01 134.14 26.55 -15.44c16.72,-12.14 23.33,-18.95 44.02,-32.74l84.43 -63.92c8.2,-5.04 28.87,-22.42 35.07,-24.78 2.71,-36.13 0.3,-80.57 0.42,-117.66 0.1,-32.34 -1.34,-22.27 -22.04,-7.51 -21.48,15.32 -21.06,17.33 -41.11,31.95 -0.32,0.23 -3.83,2.91 -4.02,3.07l-47.31 34.54c-3.92,2.7 -4.95,2.56 -9.19,6.05 -15.26,12.56 -10.31,6.79 -28.05,23.06l-38.76 29.24zm-0.15 834.44l0.07 126.87c7.84,-0.03 9.73,-1.44 15.17,-4.91l100.01 -76.99c3.08,-1.95 0.04,-0.03 3.29,-1.9l70.78 -51.95c2.04,-28.05 0.61,-95.49 0.59,-127.52 -0.01,-17.16 -11.2,-4.4 -20.93,4.74l-41.65 31.59c-4.04,3.22 -2.75,2.09 -7.02,4.79 -8.42,5.33 -17.21,12.34 -24.87,17.87 -22.23,16.05 -3.28,5.83 -38.25,26.85l-11.53 8.84c-10.08,8.71 -45.66,34.06 -45.66,41.72zm421.73 -948.63c-4,0.77 -23.25,17.47 -27.3,21.16 -0.26,0.24 -0.62,0.6 -0.88,0.84l-5.58 4.25c-2.22,1.36 -1.95,0.91 -4.33,2.59l-90.65 66.5c-5.76,4.34 -9.18,7.41 -14.56,11.01 -12.26,8.21 -8.49,16.89 -8.49,42.61 0,13.36 -4.15,100.58 3.41,99.21 3,-0.54 -0.26,0.77 2.8,-0.83l74.65 -54.95c9.77,-9.47 16.46,-11.89 26.32,-19.85l51.23 -39.14c3.37,-10.72 25.15,-18.29 27.9,-25.36l-0.03 -128.46c-9.77,1.13 -6.98,3.11 -17.59,10.78 -12.85,9.29 -9.45,8.86 -16.9,9.64zm405.02 -113.72c1.21,2.69 -1.8,0.05 2.35,3.64 2.63,2.28 0.25,1.35 3.49,1.58 8.81,1.46 5,3.06 13.71,3.5l121.54 -0.09 0 -175.16 -142.59 -0.57 0 124.57c-0.01,11.53 2.12,33.87 1.5,42.53zm3.43 1578.08c1.03,2.42 4.38,5.75 6.64,6.78 23.62,6.85 156.93,3.76 195.36,3.77 14.57,0 20.44,-2.68 26.27,-12.48 6.16,-10.38 4.1,-20.3 4.1,-34.68 -0.01,-51.64 21.57,-40.06 -117.39,-40.06 -15.59,0 -109.46,-3.85 -114.72,2.1 -6.83,5.69 -1.13,64 -0.26,74.57zm-879.07 9.82c7.93,-1.34 15.04,-9.37 16.1,-16.83 -1.17,-11.2 -0.28,-23.27 -0.28,-34.72 0,-29.77 4.49,-33.61 -13.98,-33.45 -36.25,0.32 -203.21,-1.3 -216.93,0.77 -4.02,10.33 -2.41,63.57 1.69,70.59l9.58 9.26c11.25,7.83 33.56,4.61 52.08,4.61 50.56,0 101.22,0.27 151.74,-0.23zm47.96 -733.57l0.33 99.93c7.09,-1.16 12.69,-6.39 18.63,-10.85l80.52 -59.36c0.39,-0.31 1.43,-1.24 1.81,-1.56 0.27,-0.23 0.63,-0.58 0.9,-0.81 5.54,-4.73 38.53,-27.53 39.94,-31.61 -24.85,-3.24 -100.34,-1.24 -130.3,-1.21 -6.57,0 -11.83,-1.25 -11.83,5.47zm52.22 -422.68l138.12 0.11 0.52 -104.34c-10.86,-0.31 -9.32,1.58 -19.53,9.66l-60.38 45.31c-3.03,2.67 -5.61,4.67 -8.69,6.74 -11.03,7.42 -44.5,32.24 -50.04,42.52zm0.52 826.78c7.1,4.78 109.98,1.97 126.08,1.97 9.74,0 12.02,1.64 12.02,-8.79 0,-14.83 2.22,-86.9 -1.66,-95.48 -4.19,-1.56 -29.52,19.77 -33.76,22.71 -5.68,3.94 -11.6,8.89 -17.25,13.35l-78.34 58.13c-3.58,2.53 -5.83,3.62 -7.09,8.11zm376.21 -911.12c-2.91,1.53 -10.37,8.11 -14.52,11.05l-32.05 24.28c-5.79,4.31 -11.05,8.24 -16.3,11.81 -6.95,9.83 -9.69,8.46 -23.08,18.8l-21.74 17.22c13.3,1.32 131.99,2.61 136.19,-1.79 4.14,-4.33 2.12,-85.66 1.94,-98.88 -8.09,-0.95 -12.23,6.01 -22.07,12.46l-8.37 5.05zm-106.91 -257.47l12.64 -10.34c2.41,-1.88 1.16,-0.95 2.43,-1.73 5.08,-9.18 0.43,-4.11 8.95,-9.18l27.37 -20.49c9.54,-7.15 32.23,-22.92 34.89,-28.32l-128.96 -0.38c-9.67,1.03 -3.11,-0.69 -6.08,2.11 -3.62,5.24 -3.23,96.35 0.11,100.53 1.93,1.79 -0.43,2.09 4.94,-1.79 11.04,-7.99 32.96,-27.8 43.71,-30.41zm44.33 795.13c7.16,-5.71 18.07,-12.78 22.83,-17.96 0.32,-0.5 0.68,-1.11 0.94,-1.5l1.78 -2.68c5.25,-6.73 -0.29,-0.04 1.69,-1.96l14.57 -9.29c-7.16,-2.45 -119.04,-2.11 -134.47,-1.03 -3.79,9.1 -1.39,82.67 -1.39,98.66 7.98,-0.71 7.63,-2.38 14.26,-7.52 4.13,-3.2 7.1,-4.63 11.09,-7.71l46.45 -35.38c0.27,-0.22 0.64,-0.56 0.9,-0.78 5.49,-4.45 15.21,-11.66 21.35,-12.85zm-253.93 -842.24c4.23,-2.32 14.03,-11.3 17.57,-12.9 0.27,-0.49 0.7,-1.74 0.86,-1.43l4.63 -7.27c-17.47,-0.95 -124.15,-2.18 -131.95,1.5 -3.4,8.79 -1.51,82.02 -1.32,98.27 7.89,-1.18 20.92,-13.56 27.17,-17.99l20.66 -15.33c2.58,-1.79 4.25,-2.81 6.83,-4.99 8.55,-7.23 17.42,-13.17 26.14,-19.82 5.12,-3.9 8.44,-6.16 13.72,-10.04 8.36,-6.14 6.9,-7.9 15.69,-10zm331.9 1123.62c-3.93,3.3 -1.73,2.09 -7.5,3.51l-3.87 4.9c-0.26,0.22 -0.69,0.52 -0.97,0.74 -11.1,8.48 -29.91,19.56 -38.94,27.77l-24.4 19.89c-2.42,1.92 -0.81,0.81 -2.87,2.15l-18.09 10.96c-3.12,6.39 -1.46,3.91 -7.13,8.55 -3.16,2.58 -3.24,3.49 -7.29,4.64l-3.86 8.19 127.37 -0.81 -0.32 -96.52c-5.78,2.11 -2.73,4.19 -12.13,6.03zm999.07 -1319.71c12.41,-0.59 33.63,17.85 39.44,27.34 10.35,16.91 10.71,33.66 10.68,56.21l0 335.9c0,21.37 -2.57,44.23 7.87,58.52 10.55,14.46 29.62,20.03 47.68,11.99 20.79,-9.25 21.51,-28.9 21.49,-44.93 -0.2,-132.87 -1.62,-270.65 -0.45,-402.39 0.63,-19.7 -20.86,-59 -33.55,-73.86 -8.15,-9.54 -49.44,-44.55 -65.79,-41.86 -10.4,0.22 -9.63,-1.91 -16.78,-3.86 -9.55,-2.6 -115.87,-1.34 -123.5,-0.72l0 70.91c19.03,1.46 41.23,0.46 60.61,0.46 16.16,0 50.07,-3.48 52.3,6.29z"/>
 </g>
</svg>
