<?xml version="1.0" encoding="UTF-8"?>
<!DOCTYPE svg PUBLIC "-//W3C//DTD SVG 1.1//EN" "http://www.w3.org/Graphics/SVG/1.1/DTD/svg11.dtd">
<!-- Creator: CorelDRAW 2020 (64 Bit) -->
<svg xmlns="http://www.w3.org/2000/svg" xml:space="preserve" width="42.3332mm" height="42.3332mm" version="1.1" style="shape-rendering:geometricPrecision; text-rendering:geometricPrecision; image-rendering:optimizeQuality; fill-rule:evenodd; clip-rule:evenodd"
viewBox="0 0 4233.32 4233.32"
 xmlns:xlink="http://www.w3.org/1999/xlink"
 xmlns:xodm="http://www.corel.com/coreldraw/odm/2003">
 <defs>
  <style type="text/css">
   <![CDATA[
    .str0 {stroke:white;stroke-width:8.47;stroke-miterlimit:22.9256}
    .fil0 {fill:black}
   ]]>
  </style>
 </defs>
 <g id="Camada_x0020_1">
  <metadata id="CorelCorpID_0Corel-Layer"/>
  <path class="fil0 str0" d="M806.11 1519.22l0 1512.5c0,12.58 2.67,21.1 8.43,29.73 8.25,12.38 12.33,12.43 27.01,15.91 2.68,0.63 3.37,0.87 5.55,1.04 22.75,1.77 77.75,-0.02 104.15,-0.02l2412.33 0c24.7,0 41.72,2.17 57.5,-20.83l2.59 -3.77c0.17,-0.26 0.48,-0.61 0.65,-0.87 3.74,-5.8 2.82,-12.03 2.82,-21.19l0 -1512.5c0,-12.08 -0.24,-11.08 -3.81,-20.03l-6.31 -10.79c-2.26,-3.36 -7.09,-8.33 -13.71,-10.91 -22.87,-8.93 -44.36,-4.57 -67.51,-4.57 -28.28,-0.01 -64.17,1.75 -92.44,0.04 -4.04,-0.24 -3.42,-0.75 -9.25,-1.6 -4.16,-31.53 -10.73,-63.61 -24.07,-92.41 -1.59,-3.42 -3.59,-7.79 -4.87,-11.19 -5.65,-15.06 -14.42,-27.89 -22.39,-41.36 -3.57,-6.04 -1.9,-5.32 -4.27,-8.98 -2.75,-4.26 -4.33,-4.57 -7.09,-8.34 -0.21,-0.28 -0.46,-0.68 -0.66,-0.98 -11.74,-17.51 -26.91,-37.47 -43.18,-50.98 -2.76,-2.29 -4.97,-4.88 -7.95,-7.95 -7.67,-7.89 -16.07,-12.28 -23.4,-19.71 -1.14,-1.15 -1.39,-1.51 -2.37,-2.35l-39.42 -24.56c-3.05,-1.89 -7.21,-6.09 -7.87,-6.44l-41.9 -17.1c-15.57,-3.83 -17.45,-8.24 -36.66,-11.21l-36.52 -8.01c-64.31,-8.53 -202.44,-4.81 -267.78,-4.81l-1359.33 0c-12.75,0 -28.32,-1.15 -42.1,0.92 -25.01,3.76 -60.33,7.32 -83.75,18.05 -8.86,4.07 -14.52,1.77 -21.86,7 -1.51,1.07 -3.4,2.95 -4.39,3.47l-5.33 1.4c-8.43,0.97 -35.66,18.27 -40.2,20.06l-30.44 20.57c-13.58,8.94 -27.25,22.89 -38.9,34.56l-15.45 16.5c-14.89,16.85 -18.73,23.56 -30.76,41.1l-9.98 17.3c-0.35,0.58 -1.18,2.37 -1.62,3.2 -2.47,4.65 -3.93,5.5 -6.32,9.31 -2.17,3.47 -2.88,5.7 -4.98,10.84 -3.98,9.73 -11.4,23.6 -13.99,34.28 -2.23,9.2 -5.66,13.41 -8.48,22.98 -1.97,6.68 -0.14,4.44 -2.1,10.82 -3.54,11.46 -1.96,0.78 -2.88,13.26 -0.59,7.97 -1.86,26.43 -7.6,30.76 -7.8,5.88 -88.44,-2.74 -101.08,3.09 -19.05,8.79 -26.06,23.69 -26.06,44.77zm1858.91 671.69c5.53,-4.56 10.24,-6.43 14.72,-11.84l5.65 -7.07c5.05,-5.68 3.45,-2.23 6.59,-7.74 3.7,-6.5 1.26,-7.03 5.61,-13.84 2.02,-3.15 1.27,-1.39 1.61,-2.52l0.55 -2.86c0.5,-2.57 0.77,-3.48 1.06,-6.64 1.13,-12.14 1,-22.46 -1.45,-34.09l-0.28 -1.68c-1.87,-7.07 -4.14,-13.17 -8.52,-19.19l-3.39 -4.54c-8.68,-10.83 -18.1,-18.7 -30.82,-24.84 -0.35,-0.16 -0.79,-0.35 -1.13,-0.52 -8.17,-4.05 -3.1,-3.85 -30.6,-3.82 -25.8,0.04 -28.74,-1.19 -52.02,17.45 -10.58,8.47 -16.13,19.3 -20.15,29.02 -1.04,2.51 -2.72,8.11 -3.55,10.69 -2.73,8.51 -3,26.44 -2.06,33.36l12.88 27.96c14.04,20.29 23.75,16.76 24.51,32.73 0.18,3.88 0.08,2.6 -0.03,5.69l-0.01 35.54c0.01,0.39 0.01,0.82 0,1.22 0,0.39 -0.03,0.82 -0.04,1.23l-0.02 9.13c0.02,0.36 0.06,0.82 0.09,1.16 1.1,13.33 6.59,23.3 16.98,31.33 4.01,3.1 2.1,2.43 8,4.97 13.37,5.77 21.07,6.52 34.07,-0.05 2.19,-1.1 6.9,-3.32 11.03,-8.31l6.2 -9.76c4.71,-7.81 0.81,2.67 3.23,-12.84 2.22,-14.26 -0.88,-47.32 1.29,-69.33zm-1774.06 807.62c2.7,-1.29 2.45,0 5.39,0.07l54.22 -0.06c0.33,0 1.25,0.04 1.58,0.04l4.03 -0.15c0.16,0 0.62,0 0.78,0 0.16,0 0.62,0.03 0.78,0.04l40.72 0.12c2.2,0.03 2.46,-0.06 3.17,-0.05 0.32,0 1.24,0.04 1.57,0.04l43.1 -0.15c0.16,0 0.62,0.03 0.78,0.04 0.33,0.01 1.28,0.09 1.61,0.1l48.67 -0.14c0.15,0 0.62,0.03 0.78,0.04l7.17 0.11c0.17,0 0.65,0.02 0.82,0.01l43.06 -0.12c0.33,0.01 1.28,0.09 1.61,0.1l6.38 0.02c0.17,0 0.66,-0.01 0.83,-0.02 0.17,0 0.65,-0.04 0.81,-0.05l27.11 -0.09c0.15,0 0.61,0 0.77,0l11.21 0.04c0.16,-0.01 0.62,-0.04 0.78,-0.04l36.72 0.09c4.34,-0.14 -0.01,-0.14 3.13,-0.05l17.58 0.07c0.72,-0.01 0.97,0.08 3.17,0.05l7.21 0c0.17,0.01 0.65,-0.01 0.82,-0.01l5.56 -0.01c0.33,-0.01 1.28,-0.09 1.61,-0.1l11.16 0.1c0.17,0 0.64,-0.04 0.81,-0.05 4.34,-0.14 0,-0.14 3.13,-0.05l148.39 0.12c0.17,0 0.66,-0.01 0.83,-0.02 0.33,-0.01 1.28,-0.09 1.61,-0.1l22.27 0.11c0.17,0 0.65,0.02 0.82,0.01 0.17,0 0.65,-0.01 0.83,-0.02l19.96 0.01c7.35,0.02 0.26,-0.05 2.35,-0.04 0.32,0 1.24,0.04 1.57,0.04 0.17,0 0.65,0.02 0.82,0.01 0.17,0 0.65,-0.01 0.82,-0.02 0.34,-0.01 1.29,-0.09 1.61,-0.1l47.81 0.11c0.16,0 0.64,0.02 0.81,0.01 0.17,0 0.66,-0.01 0.83,-0.02 0.33,-0.01 1.28,-0.09 1.61,-0.1l4.77 0.12c2.2,0.03 2.46,-0.06 3.17,-0.05l8.77 0.03c0.17,0.01 0.65,0.02 0.82,0.02l27.92 -0.05c0.71,-0.01 0.97,0.08 3.17,0.05l10.37 -0.05c0.33,0 1.25,0.04 1.57,0.04 0.17,0 0.65,0.02 0.82,0.01 0.17,0 0.66,-0.01 0.83,-0.02l31.08 0c0.17,0.01 0.65,0.02 0.83,0.02l17.5 -0.01c0.17,0 0.65,0.02 0.81,0.01 0.18,0 0.66,-0.01 0.83,-0.02 0.33,-0.01 1.28,-0.09 1.61,-0.1l23.09 0.12c0.17,0 0.66,-0.01 0.83,-0.02l19.14 0.02c0.17,0.01 0.65,-0.01 0.82,-0.01 7.35,0.02 0.26,-0.05 2.35,-0.04 0.32,0 1.24,0.04 1.57,0.04 0.17,0 0.65,0.02 0.82,0.01 0.17,0 0.66,-0.01 0.83,-0.02l24.7 0.02c0.17,0 0.65,-0.01 0.82,-0.02 0.33,-0.01 1.29,-0.09 1.61,-0.1l24.25 -1.35c-1.59,-41.15 -0.23,-85.05 -0.23,-126.54 0,-74.53 2.21,-853.67 -0.87,-871.52 -10.67,-2.61 -261.9,-0.58 -280.05,-0.58l-584.75 -0.13c-7.7,0.38 -5.98,2.08 -5.59,5.91l0.23 1.69c0.01,0.1 0.07,0.53 0.08,0.63l0 12.76c0.02,0.26 0.02,3.05 0,3.31l-0.13 90.55c-0.01,0.08 -0.05,0.47 -0.06,0.56 -0.01,0.08 -0.04,0.47 -0.04,0.55 -0.01,0.08 -0.03,0.47 -0.03,0.56l0.26 27.32c0.01,0.11 0.07,0.55 0.08,0.66 0,0.11 0.04,0.55 0.04,0.67 0.08,3.96 -0.02,0.78 -0.12,1.98l0 9.46c0.01,0.11 0.07,0.55 0.08,0.66 0,0.11 0.04,0.55 0.04,0.66 0.08,3.97 -0.02,0.79 -0.12,1.98l0 9.46c0.01,0.11 0.07,0.55 0.08,0.66l-0.38 34.28c0.09,3.98 0.04,0.29 0.09,2.01 0,0.09 0.02,0.51 0.02,0.6 0,0.08 0.01,0.48 0.01,0.56l-0.03 4.21c0,0.07 -0.01,0.45 -0.01,0.52l0.32 17.29c-0.06,1.48 -0.05,-0.34 -0.24,1.85l-0.09 14.43c0,0.23 0.02,0.18 0.03,1.57l-0.03 11.2c0,0.22 0.02,0.18 0.03,1.56l-0.03 11.2c0,0.22 0.02,0.18 0.03,1.56l0.32 19.74c0,0.11 -0.04,0.55 -0.04,0.66 -0.01,0.11 -0.07,0.55 -0.08,0.66l0.12 11.44c0,0.12 -0.04,0.56 -0.04,0.67 -0.01,0.11 -0.07,0.55 -0.08,0.65l0.12 11.45c0,0.11 -0.04,0.55 -0.04,0.66 -0.01,0.11 -0.07,0.55 -0.08,0.66l0.12 11.44c0,0.11 -0.04,0.55 -0.04,0.66 -0.01,0.11 -0.07,0.55 -0.08,0.66l0.12 11.44c0,0.12 -0.04,0.56 -0.04,0.67 -0.01,0.11 -0.07,0.55 -0.08,0.66l0.12 11.44c0,0.11 -0.04,0.55 -0.04,0.66 -0.01,0.11 -0.07,0.55 -0.08,0.66l0.12 11.44c0,0.11 -0.04,0.55 -0.04,0.67 -0.01,0.11 -0.07,0.54 -0.08,0.65l0.12 11.45c0,0.11 -0.04,0.55 -0.04,0.66 -0.01,0.11 -0.07,0.55 -0.08,0.66l0 9.46c0.01,0.1 0.07,0.54 0.08,0.65l-0.08 12.11c0.01,0.11 0.07,0.55 0.08,0.66l-0.08 12.1c0.01,0.11 0.07,0.55 0.08,0.66l-0.08 12.11c0.01,0.1 0.07,0.54 0.08,0.65l-0.08 12.11c0.01,0.11 0.07,0.55 0.08,0.66l0.04 203.95c0,0.11 -0.04,0.55 -0.04,0.66l-0.23 21.65c0.35,4.18 0.37,-1.77 0.27,3.21 0,0.12 -0.04,0.56 -0.04,0.67l-0.23 21.64c0.01,0.1 0.07,0.51 0.07,0.61l0.08 37.33c0.01,0.1 0.07,0.54 0.08,0.65l-0.08 24.87c0.01,0.11 0.07,0.55 0.08,0.66 0,0.11 0.04,0.55 0.04,0.66l-0.12 11.45c0.01,0.1 0.07,0.54 0.08,0.65l-0.08 12.11c0.01,0.11 0.07,0.55 0.08,0.66 0,0.11 0.04,0.55 0.04,0.66 0.21,10.18 -1.25,23.73 -0.27,35.74l0 25.52c0.25,2.99 0.12,-0.05 0.23,1.89 0.71,12.57 -1.25,24.01 -0.23,36.4l0.15 14c0.02,0.26 0.02,3.05 0,3.31l0 9.46c0.02,0.26 0.02,3.04 0,3.3l-0.08 56.69c0.02,0.13 0.1,3.68 0.08,3.94l-0.36 15.59c-0.21,4.73 -0.61,1.97 4.27,7.8zm1543.9 -994.29l0.24 352.55c9.22,2.9 12.38,1.73 24.78,1.72l258.46 0c16.47,0 30.62,0 47.09,0 9.1,0.01 40.54,1.6 48.11,-0.95l0.69 -46.6c-0.01,-14.86 0.02,-29.43 -0.02,-45.47 -0.07,-29.93 -0.07,-62.84 0,-93.32l0 -161.14c0.07,-14.55 1.62,-12.71 -13.69,-12.68l-343.03 -0.01c-3.92,0 -22.63,-3.57 -22.63,5.9zm431.94 433.34c-10.99,4.75 -346.45,2.14 -406.51,2.14 -20.13,0 -57.48,3.12 -74.94,-1.63l-2.05 -0.58c-5.81,-1.38 0.68,0.36 -2.92,-0.51 -3.23,-0.79 -6.83,-2.73 -10.92,-5.63l-5.82 -7.14c-4.31,-6.94 -6.72,-4.68 -4.46,-10.52 -2.79,-2.09 -3.42,-4.54 -4.4,-8.86 -0.99,-4.34 -1.2,-5.85 -1.31,-11.25 -1.31,-64.96 4.18,-387.79 -1.15,-394.14 -2.33,-2.78 -59.99,-1.29 -63.14,-1.29l-191.45 0c-11.55,0 -251.18,-2.11 -255.52,0.65 -5.36,3.4 -2.5,53.89 -2.5,58.48 -0.01,19.55 -0.3,37.6 0.05,57.55 0.71,40.85 -0.12,76.17 -0.06,117.94 0.32,252.45 -1.42,506.14 -0.16,758.65 0.04,7.99 2.14,7.43 8.53,7.05l116.44 -0.17c0.16,0 0.62,0 0.78,0l32.69 0.14c0.33,0 1.28,0.03 1.6,0.03l50.25 -0.01c0.16,0 0.64,0.01 0.81,0.01l75.77 -0.01c0.17,0 0.64,0.01 0.81,0.01l2.43 -0.13c0.16,-0.01 0.62,-0.04 0.78,-0.04l12.77 0c0.16,0 0.62,0 0.78,0l36.73 0.04c0.16,-0.01 0.62,-0.04 0.78,-0.04l3.17 0.15c0.17,0 0.65,0.02 0.82,0.02 2,0.03 2.2,-0.04 3.95,-0.03l17.59 -0.14c0.16,0 0.62,0 0.78,0l7.95 0.16c0.17,0 0.65,0.01 0.82,0.01 0.17,0 0.65,-0.02 0.82,-0.02l19.15 0.02c2,0.03 2.19,-0.04 3.95,-0.03l81.4 -0.14c0.16,0 0.62,0 0.78,0 0.33,0 1.25,0.08 1.58,0.1l1.63 0.07c0.17,0 0.65,-0.01 0.81,-0.01 3.63,0.01 0.09,-0.03 3.15,-0.02l28.76 -0.04c4.7,-0.16 -0.76,-0.16 3.94,0l8.02 0.05c0.16,-0.01 0.64,-0.05 0.81,-0.05l17.51 0.05c3.57,0.09 -0.8,0 2.43,-0.01 3.05,-0.01 -0.49,0.03 3.14,0.02l6.38 -0.06c0.17,0 0.64,0.04 0.81,0.05l3.99 -0.03c0.33,0 1.25,0.04 1.58,0.04l16.79 -0.16c0.16,0 0.62,0 0.78,0l31.13 0.12c0.16,0 0.62,0 0.78,0 0.16,0 0.62,0.02 0.78,0.02l4.82 -0.14c0.16,0 0.62,0 0.78,0l11.98 0c0.16,0 0.63,0 0.78,0 0.33,0 1.81,0.13 2.39,0.15 2.74,0.07 4.47,0.07 7.21,0l7.19 0.01c3.63,0.01 0.09,-0.03 3.14,-0.02l51.85 0.02c0.17,0 0.64,0.01 0.81,0.01l27.17 -0.07c4.69,-0.16 -0.77,-0.16 3.93,0 0.17,0 0.64,0.04 0.81,0.05l7.21 0c0.17,-0.01 0.64,-0.05 0.81,-0.05l2.36 -0.1c0.16,0 0.62,0.03 0.78,0.04 0.16,0 0.63,0.05 0.79,0.06 0.17,0 0.65,0.04 0.82,0.05l5.56 0.01c0.17,0 0.65,0.01 0.82,0.01l28.74 -0.17c0.16,0 0.62,0 0.78,0l1.57 0.1c0.17,0 0.65,0.04 0.82,0.05l22.36 -0.15c0.15,0 0.62,0 0.78,0 0.32,0 1.24,0.08 1.57,0.1 0.17,0 0.65,0.04 0.81,0.05l8.81 -0.11c3.03,-0.08 -0.98,-0.08 3.15,0.06l12.76 0c0.17,0 0.64,0.04 0.81,0.05l59.07 -0.05c4.7,-0.16 -0.76,-0.16 3.94,0l8.83 0c0.33,-0.02 1.25,-0.1 1.57,-0.1l29.52 0.17c0.17,0 0.65,-0.01 0.82,-0.01l11.95 0.01c0.17,0 0.64,-0.01 0.81,-0.01l35.84 -0.06c0.17,0 0.65,0.04 0.81,0.05l9.6 -0.15c0.16,0 0.62,0 0.78,0 0.32,0 1.25,0.08 1.58,0.1l8.83 0c4.69,-0.16 -0.77,-0.16 3.93,0l71.01 0.07c0.17,0 0.66,-0.02 0.83,-0.02 0.17,-0.01 0.64,-0.05 0.81,-0.05l11.13 0.07c0.17,0 0.65,-0.02 0.82,-0.02l9.55 -0.03c0.33,0 1.25,0.04 1.58,0.04 0.16,0 0.64,0.01 0.81,0.01l1.64 -0.07c0.16,-0.01 0.63,-0.06 0.79,-0.06 0.16,-0.01 0.62,-0.04 0.78,-0.04 0.16,0 0.62,0 0.78,0 0.16,0 0.63,0.03 0.79,0.04l11.2 -0.04c0.15,0 0.62,0 0.78,0 0.32,0 1.8,0.13 2.39,0.15l10.37 -0.15c0.33,0 1.25,0.08 1.58,0.1l8.01 0.05c0.17,-0.01 0.65,-0.05 0.82,-0.05l3.93 0c0.17,0 0.64,0.04 0.81,0.05l11.95 -0.05c0.17,0 0.65,0.04 0.82,0.05l12.76 0c0.17,0 0.65,0.02 0.82,0.02l7.2 -0.07c0.33,-0.02 1.25,-0.1 1.57,-0.1l14.33 0.04c0.16,0 0.63,0.05 0.79,0.06 0.17,0 0.65,0.04 0.82,0.05 3.57,0.09 -0.8,0 2.43,-0.01l4.77 0.01c0.59,-0.02 2.07,-0.15 2.39,-0.15l16.76 0.17c0.17,0 0.64,-0.01 0.81,-0.01l21.5 -0.16c0.33,0 1.25,0.08 1.58,0.1l1.64 0.07c0.17,0 0.64,-0.01 0.81,-0.01 3.63,0.01 0.09,-0.03 3.14,-0.02l7.17 -0.04c0.17,0 0.65,0.04 0.82,0.05 0.17,0 0.65,0.02 0.82,0.02l31.91 -0.02c0.17,-0.01 0.64,-0.05 0.81,-0.05l5.57 0.07c0.17,0 0.65,-0.01 0.81,-0.01l23.08 -0.06c0.17,0 0.64,0.04 0.81,0.05l11.96 -0.05c0.16,0 0.64,0.04 0.81,0.05l7.2 0c0.17,-0.01 0.65,-0.05 0.82,-0.05l2.35 -0.1c0.16,0 0.62,0.03 0.79,0.04l7.98 0.13c0.17,0 0.66,-0.02 0.83,-0.02l5.56 0c3.57,0.09 -0.8,0 2.42,-0.01l15.91 0.02c0.17,0 0.64,0.01 0.81,0.01 0.17,0 0.65,-0.02 0.82,-0.02l2.39 -0.15c0.16,0 0.63,0 0.78,0l9.6 0.15c0.17,-0.01 0.64,-0.05 0.81,-0.05l14.34 -0.1c0.16,0 0.62,0 0.78,0 0.33,0 1.25,0.08 1.58,0.1l8.02 0.05c0.16,-0.01 0.64,-0.05 0.81,-0.05l16.7 0c0.16,0 0.64,0.04 0.81,0.05l19.97 0c0.17,-0.01 0.64,-0.05 0.81,-0.05 0.33,-0.02 1.25,-0.1 1.58,-0.1 0.15,0 0.62,0 0.78,0l10.4 0.1c4.14,-0.14 0.11,-0.15 3.14,-0.06l5.58 0.18c12.68,0.38 9.26,-9.99 9.25,-19.2 -0.01,-14.57 0.2,-26.44 0,-38.26 -1.76,-101.92 0,-205.51 0,-307.96 0,-206.1 -0.03,-409.24 0,-615.85 0,-20.55 3.09,-19.09 -16.39,-19.09l-418.01 0c-1.07,0 -7.07,-0.09 -7.15,-0.09 -1.64,0.08 -2.64,-0.2 -4.94,0.8 -3.91,1.68 -2.64,0.2 -4.52,3.76 -3.13,12.67 4.5,369.02 -1.75,402.49 -0.55,2.91 0.06,1.55 -0.66,4.99 -1.71,8.17 -16.06,31.56 -26.39,27.45zm-1975.95 -885.26c-2.95,2.26 1.49,2.19 -5.5,1.8l1.31 19.32c0.01,0.23 0.12,1.5 0.14,1.75l-0.12 34.96c-0.01,2.73 -0.11,-1.03 -0.02,1.58l0.3 91.15c-0.07,1.26 0.04,-0.56 -0.2,1.85l-0.08 31.46c0,2.07 -0.12,-0.08 0.01,2.15 0,0.09 0.04,0.49 0.05,0.58l-0.08 11.07c0.01,0.08 0,0.47 0,0.55l0 20.8c-0.07,2.07 0.02,-0.9 0.03,2.1l-0.03 78.66c0.01,0.08 0,0.47 0,0.55l0.08 13.91c0.45,5.79 -1.04,4.2 -0.13,11.6l-0.05 34.28c0.03,0.13 0.11,0.59 0.16,0.72 3.08,8.21 20.94,4.28 26.26,5.02 3.3,0.45 -1.24,0.35 2.54,0.22l37.43 0c4.51,0.15 0.42,-1.4 7.96,-0.78l17.56 0.78c2.47,0.08 0.58,0.05 3.35,-0.39 0.4,-0.06 3.61,-0.52 5.37,-0.3 4.52,0.56 -5.97,-0.68 2.37,0.47l28.92 0.13c5.68,-0.52 -2.53,-0.96 5.48,-0.73l43.86 0.82c0.18,0.01 0.68,0.01 0.86,0 0.19,0 0.67,-0.07 0.85,-0.09l39.92 -0.3c7.54,-1.19 3.12,1.05 11.14,0.3l11.05 0.09c0.18,0.01 0.67,0.01 0.86,0l74.87 -0.09c0.18,0.02 0.66,0.09 0.85,0.09 0.18,0.01 0.68,0.01 0.86,0l11.9 0c0.19,0.01 0.68,0.01 0.87,0l4.05 -0.69c1.74,-0.22 3.21,-0.07 4.57,0.14l3.28 0.55c4.85,0.16 0.67,-1.37 7.96,-0.78 4.11,0.33 1.5,0.92 5.66,0.78 6.95,-0.23 -1.97,-0.23 4.81,-0.78 7.33,-0.6 2.23,0.12 5.42,0.56l10.39 -0.47c3.48,0.43 1.52,0.8 4.91,0.69l11.9 0c0.19,0.01 0.68,0.01 0.86,0l4.05 -0.69c1.75,-0.22 3.22,-0.07 4.58,0.14l37.52 -0.14c3.48,0.43 1.51,0.8 4.91,0.69l19.91 -0.67 0.39 -0.01 0.31 -0.01c2.31,0.28 0.71,0.1 -0.31,0.01 -0.55,-0.05 -0.92,-0.08 -0.39,0.01 0.4,0.07 1.31,0.2 3.08,0.45l35.91 -0.47c3.49,0.43 1.52,0.8 4.92,0.69l74.04 -0.22c3.31,0.45 -1.24,0.35 2.54,0.22 5.63,-0.18 0.07,-0.06 3.28,-0.55 6.2,-0.95 14.2,1.37 26.3,-0.14l31.7 0.47c3.3,0.45 -1.24,0.35 2.54,0.22 4.21,-0.14 3.03,-1.3 7.85,-0.69 4.52,0.56 -5.96,-0.68 2.38,0.47l27.19 0.22c4.86,0.16 0.68,-1.37 7.96,-0.78l43.1 0.78c0.19,0.01 0.68,0.01 0.86,0l101.25 0c2.46,0.08 0.57,0.05 3.34,-0.39l15.74 -0.34c2.21,-0.18 3.87,-0.45 7.95,-0.82 -2.32,-28.87 -0.38,-149.9 -0.38,-181.85l0.12 -174.6c0.08,-5.13 1.48,-2.95 -2.23,-8.05 -4.75,-0.15 -4.41,-0.37 -8.7,-0.36 -36.75,0.06 -108.13,-1.35 -136.2,0.08l-15.33 -0.23c-2.44,-0.15 -16.23,-9.07 -19.67,-14.59 -8.36,-13.44 -7.84,-28.15 -8,-41.99 -0.21,-17.99 -8.98,-59.9 -16.46,-75.87 -5.55,-11.83 -10.46,-28.78 -18.79,-41.77l-10.31 -16.7c-2.6,-4.03 -1.94,-4.23 -5.31,-7.65 -0.16,-0.17 -2.63,-2.37 -3.32,-3.04l-15.28 -17.94c-7.24,-11.26 -16,-18.8 -25.77,-27.08l-46.38 -35.09c-7.33,-6.34 -6.78,-2.42 -15.31,-6.91 -35.05,-18.43 -30.81,-12.04 -55.47,-19.67 -4.41,-1.37 -5.45,-2.11 -9.72,-2.91 -3.68,-0.68 -4.59,-0.11 -8.06,-0.55 -15.63,-1.98 -24.68,-5.02 -45.58,-5.11 -35.12,-0.15 -45.11,3.24 -74.8,10.33 -11.99,2.86 -7.26,4.85 -16.06,5.9 -6.08,0.72 -2.05,-0.51 -8.43,2.25l-4.87 2.13c-0.25,0.1 -0.7,0.27 -0.97,0.37 -0.3,0.11 -0.75,0.27 -1.07,0.38 -5.28,1.85 -5.93,1.92 -10.45,4.07 -25.78,12.3 -72.2,41.72 -90.39,66.02 -4.29,5.73 -6.77,8.93 -11.32,14.37 -2.41,2.88 -3.27,4.17 -5.66,7.14 -2.73,3.38 -4.32,4.29 -6.74,7.46 -11,14.39 -19.47,33.22 -26.74,50.06 -21.54,49.9 -15.79,64.6 -21.84,86.03 -0.76,2.68 -1.59,10.6 -1.78,12.4 -1.13,10.98 2.05,27.11 -13.61,39.72 -15.83,12.75 -66.28,8.41 -88.45,8.41l-18.38 0.31zm628.31 -315.32c2.84,9.61 16.33,15.76 22.9,23.11 17.54,19.62 38.68,40.29 51.35,63.35l30.93 61.63c2.57,5.77 4.75,12.71 5.5,15.44l16.51 71.14c23.32,3.57 45.99,1.23 69.27,1.24l1247.64 0c13.61,0 23.96,-0.64 35.34,7.15 3.17,2.17 3.52,1.61 6.19,3.52 11.1,7.91 20.6,32.53 9.73,49.12 -5.32,8.12 -20.07,19.73 -24.89,19.97l-12.75 -0.47c-27.52,-2.02 -58.03,-0.19 -85.02,-0.19l-1033.86 0c-4.12,-0.01 -13.98,-1.78 -17.32,2.2 -3.42,4.08 -0.34,285.97 -1.08,325.06 -0.15,8.34 -1.8,28.06 -0.1,34.81 0.78,3.1 1.29,3.83 5.11,4.56 8.07,1.54 1.69,-1.5 9.73,-0.8l20.99 0.43c5.97,-1 7.56,0.86 12.77,0 0.67,-0.12 3.74,-0.47 3.78,-0.47l8.98 0.47c5.33,-0.89 6.12,0.55 10.24,0.41l35.69 -0.24c5.2,0.75 5.21,-1.08 12.76,0 0.34,0.05 1.36,0.23 1.71,0.24l15.37 -0.24c0.84,-0.12 3.14,-0.62 3.85,-0.64 0.04,0 3.1,0.35 3.78,0.47l21.74 -0.47c0.05,0 3.11,0.35 3.79,0.47l4.29 0.32c5.65,-0.55 -2.5,-0.18 3.94,-0.75l89.35 0c0.45,-0.04 3.42,0.2 3.74,0.25l12.76 0c3.27,0.53 0.14,0.72 4.21,0.59l10.16 -0.24c3.32,0.48 -1.98,0.39 2.6,0.24l92.67 -0.59c0.32,-0.05 3.28,-0.29 3.74,-0.25l9.02 0.25c5.12,-0.83 5.16,0.47 8.56,0.59 4.3,0.14 3.12,-1.26 7.94,-0.84l43.11 0.84c0.2,0 0.69,0 0.89,0 0.19,-0.01 0.68,-0.08 0.87,-0.09 4.88,-0.47 -1.37,0.12 2.45,-0.5 5.12,-0.83 5.16,0.47 8.55,0.59 0.2,0 0.7,0 0.9,0l23.76 -0.09c0.19,0.01 0.68,0.08 0.87,0.09 0.2,0 0.7,0 0.89,0l6.31 -0.88c0.71,0.02 3.01,0.52 3.85,0.64l26.37 0.15c0.19,0.01 0.68,0.08 0.87,0.09l26.42 0c0.59,-0.02 2.2,-0.36 2.53,-0.41l9.34 0.41c3.01,0.1 4.86,-1.13 11.05,-0.24l13.61 0.15c0.19,0.01 0.68,0.08 0.87,0.09l70.27 -0.88c0.04,0 3.11,0.35 3.79,0.47l2.52 0.41c0.2,0 0.7,0 0.89,0l37.4 0c0.2,0 0.7,0 0.89,0l11.88 0c0.19,0 0.69,0 0.89,0l34.08 -0.59c3.82,0.62 -2.43,0.03 2.44,0.5 0.2,0.01 0.68,0.08 0.88,0.09l51.94 0c3.02,-0.11 3.2,-1.36 7.8,-0.74l72.1 0.15c0.95,-0.15 2.87,-0.37 4.48,-0.15 8.34,1.13 20.36,-0.49 24.79,-0.1l9.02 0.25c6.23,-1.01 6.01,1.17 11.98,0.18 0.86,-0.15 2.59,-0.6 4.53,-0.43l18.47 0.84c0.59,-0.02 2.19,-0.36 2.52,-0.41l23 0.41c0.6,-0.02 2.2,-0.36 2.53,-0.41 5.33,-0.89 6.12,0.55 10.24,0.41 0.59,-0.02 2.2,-0.36 2.52,-0.41 0.68,-0.12 3.75,-0.47 3.79,-0.47l43.85 0.88c4.58,0.15 -0.71,0.24 2.6,-0.24l8.45 0c0.34,0.05 1.36,0.23 1.72,0.24l15.36 -0.24c0.85,-0.12 3.15,-0.62 3.85,-0.64 0.05,0 3.11,0.35 3.79,0.47l2.52 0.41c0.2,0 0.7,0 0.89,0 0.2,-0.01 0.69,-0.08 0.88,-0.09 2.88,-0.28 1.8,-0.7 4.68,-0.79l6.32 0.88c0.19,0 0.69,0 0.89,0l62.92 0c0.2,0 0.7,0 0.9,0l10.99 -0.09c0.2,0.01 0.68,0.08 0.88,0.09 0.19,0 0.69,0 0.89,0l12.76 0c6.94,-0.24 -2.09,-0.23 4.82,-0.84l41.27 0.1c3.01,0.41 1.41,0.65 4.08,0.74 4.58,0.15 -0.72,0.24 2.6,-0.24l27.89 -0.5c8.73,-1.17 1.25,0.99 8.69,0.74l24.63 0c4.07,0.13 0.94,-0.06 4.21,-0.59l12.77 0c6.48,-1.06 6.31,1.05 12.76,0 0.32,-0.05 3.29,-0.29 3.74,-0.25 6.44,0.57 -1.71,0.2 3.94,0.75l40.06 0.09c0.59,-0.02 2.19,-0.36 2.53,-0.41 5.32,-0.89 6.11,0.55 10.23,0.41 0.2,-0.01 0.69,-0.08 0.88,-0.09l73.1 -0.15c0.34,0.05 1.36,0.23 1.71,0.24l6.45 -0.87c7.77,-0.18 1.85,4.2 9.17,0.22 0.58,-0.31 3.65,-3.89 3.7,-4.01l1.24 -6.91c0.12,-2.71 -0.09,-6.88 -0.11,-9.76 -0.29,-37.5 -1.88,-320.51 0.53,-340.7 -9.05,-3.43 0.35,-4.34 -10.36,-4.8 -36.16,-1.59 -91.42,0.31 -129.83,0.15 -1.87,0 -2.87,-0.1 -5.43,-0.01l-7.66 0.15c-12.81,-2.14 -18.04,-4.25 -26.84,-12.98 -1.75,-1.73 -2.78,-3.11 -4.23,-5.24 -10.76,-15.92 -5.71,-36.99 -9.48,-57.44l-13.4 -55.45c-1.04,-3.24 -0.02,-0.26 -1.31,-3.17 -0.75,-1.7 -2.05,-4.35 -2.14,-4.57l-7.27 -19.6c-13.1,-27.53 -35.82,-61.03 -64.18,-84.33l-57 -41.89c-4.5,-2.32 -6.82,-2.87 -11.97,-5.49l-43.94 -16.72c-0.39,-0.12 -0.82,-0.24 -1.22,-0.36l-18.13 -4.41c-9.41,-1.2 -7.15,0.42 -12.42,-1 -30.2,-8.1 -94.72,-4.55 -127.4,-4.55l-993.97 0c-47.38,0 -94.62,0 -142,0 -23.93,0 -47.86,0 -71.79,0 -11.74,0 -23.4,0 -35.1,0l-26.44 0.22c-6.41,0.78 -2.37,-1.32 -5.28,1.84z"/>
 </g>
</svg>
