<?xml version="1.0" encoding="UTF-8"?>
<!DOCTYPE svg PUBLIC "-//W3C//DTD SVG 1.1//EN" "http://www.w3.org/Graphics/SVG/1.1/DTD/svg11.dtd">
<!-- Creator: CorelDRAW 2020 (64 Bit) -->
<svg xmlns="http://www.w3.org/2000/svg" xml:space="preserve" width="42.3332mm" height="42.3332mm" version="1.1" style="shape-rendering:geometricPrecision; text-rendering:geometricPrecision; image-rendering:optimizeQuality; fill-rule:evenodd; clip-rule:evenodd"
viewBox="0 0 4233.32 4233.32"
 xmlns:xlink="http://www.w3.org/1999/xlink"
 xmlns:xodm="http://www.corel.com/coreldraw/odm/2003">
 <defs>
  <style type="text/css">
   <![CDATA[
    .fil0 {fill:#020202}
   ]]>
  </style>
 </defs>
 <g id="Camada_x0020_1">
  <metadata id="CorelCorpID_0Corel-Layer"/>
  <path class="fil0" d="M734.54 3331.01c-19.66,-1.05 -28.03,-2.02 -42.83,7.09 -34.83,21.44 -27.9,80.49 17.63,89.44 16.46,3.23 593.26,0.83 601.56,0.83l2112.04 0c25.54,0 77.22,2.9 99.57,-0.53 45.78,-7.05 54.38,-67 20.53,-88.94 -14.94,-9.69 -23.93,-8.56 -43.81,-8.61 2.38,-520.9 -4.26,-1042.71 0.06,-1563.41 2.42,-291.82 0.04,-585.96 0.01,-878.17 -0.01,-35.13 2.09,-59.96 -22.29,-76.19 -18.44,-12.29 -64.21,-7.8 -90.24,-7.8 -50.4,0 -150.92,-2.08 -194.92,0.02 -27.61,1.31 -46.84,21.96 -47.55,49.81 -1.63,64.39 3.13,132.74 -0.26,196.62l-1057.45 -0.05c-54.62,-0.07 -100.38,19.16 -119.27,74.01 -9.31,27.04 -6.02,59.11 -6.14,89.13 -0.25,64.35 -0.79,129.48 0.06,193.78l-187.02 -0.22c2.2,-71.93 2.73,-144.37 -46.4,-198.51 -42.11,-46.4 -83.8,-73.44 -173.76,-73.43 -81.76,0 -163.42,0 -245.17,0 -52.44,0 -129.91,-5.66 -175.84,9.07 -17.27,5.54 -30.71,14.69 -43.93,19.09l0.04 -301.51c0.12,-29.59 -11.85,-54.33 -43.86,-57.53l-202.62 0.03c-29.78,0.77 -68.9,-6.66 -89.63,10.07 -22.46,18.14 -19.92,47.25 -18.81,83.66 2.01,65.44 -0.08,134.94 -0.08,200.95l0 1824.68c0,67.71 0,135.26 0,202.96 0,66.72 2.34,137.52 0.38,203.66zm1333.61 -779.23l-0.91 80.19 19.34 -0.6 1065.82 -0.12 0.03 -258.62c-180.03,2.02 -361.19,-0.16 -541.35,0.04 -89.75,0.1 -179.52,0.02 -269.28,0 -27.4,-0.01 -262.4,-2.31 -268.65,1.95 -10.53,13.25 -5.41,56.97 -5.72,78.36l887.29 0.04c21.91,0 36.59,-2.47 53.27,8.19 27.11,17.34 31.74,60.86 -1.59,82.8 -14.79,9.74 -36.13,7.04 -55.7,7.04l-377.8 0c-36.65,0 -481.17,-2.51 -504.75,0.73zm-979.21 67.42l587.33 -0.06c1.19,-66.19 8.67,-135.65 -66.54,-166.42 -32.04,-13.11 -180.81,-7.14 -226.48,-7.14 -47.1,0 -193.24,-6.08 -226.61,6.95 -81.93,31.99 -65.94,110.45 -67.7,166.67zm873.97 -256.04c-3.31,-35.97 31.12,-77.79 66.91,-92.4 33.5,-13.68 109.84,-8.2 151.22,-8.2 319.1,0 646.04,3.23 963.31,-0.03l0.01 -453.66c-170.61,1.99 -342.43,0.07 -513.18,0.07l-1412.72 0c-31.83,0 -102.16,-3.73 -129.35,1.05l0.01 566.31c14.46,-6.64 24.27,-13.2 42.29,-19.27 47.03,-15.82 122.55,-9.96 175.48,-9.96 82.47,0 164.67,0.07 247.17,0 87.4,-0.07 133.84,27.76 172.85,72.94 49.01,56.77 48.74,110.09 47.33,199.08l187.2 0.11c-0.53,-26.84 -3.19,-249.8 1.47,-256.04zm288.45 967.28l893.05 0.63 0.71 -310.75 -2056.26 0.1 0.26 309.83 1162.24 0.19zm-1097.21 -1619.59l1990.43 -0.14 -0.25 -204.88 -1069.81 -0.07 -985.08 0.25 -0.34 204.73 65.05 0.11zm1199.7 1211.39l790.49 -0.02 0.12 -204.81 -1102.09 -0.23 -953.37 0.3 0.14 204.72 1264.71 0.04zm888.4 -1754.21l-0.04 218.14 0.05 128.49 -0.05 1077.24 0.05 128.49 -0.04 609.88 54.11 0.15 104.52 -0.13 -0.01 -2427.58 -158.62 0.06 0.03 265.26zm-97.15 240.58l-0.75 -259.28c-97.25,1.21 -1072.73,-3.18 -1079.86,2.5 -8.9,7.08 -4.83,64.21 -5.15,77.74 167.34,-3.14 337.84,-0.2 505.52,-0.14l379.81 0c19.33,0 39.49,-1.75 53.81,7.36 30.8,19.61 30.92,63.3 1.31,82.82 -15.56,10.25 -31.61,8.23 -53.11,8.22l-379.81 0c-168.68,0 -338.93,-2.24 -507.46,0.1l-0.06 80.55 1085.75 0.13zm-2056.23 -0.56l587.75 -0.22c-1.54,-35.75 4.88,-77.66 -8.39,-108.77 -32.73,-76.7 -104.78,-65.31 -168.43,-65.14 -65.87,0.17 -312.54,-5.12 -343.09,6.99 -82.85,32.83 -65.24,111.11 -67.84,167.14zm-256.27 -21.99l0.09 127.8 -0.09 1077.93 0.09 127.8 -0.18 610.79 158.74 -0.08 -0.01 -856.06 -0.01 -598.85 -0.1 -972.48 -158.51 -0.16 -0.02 483.31z"/>
 </g>
</svg>
