<?xml version="1.0" encoding="UTF-8"?>
<!DOCTYPE svg PUBLIC "-//W3C//DTD SVG 1.1//EN" "http://www.w3.org/Graphics/SVG/1.1/DTD/svg11.dtd">
<!-- Creator: CorelDRAW 2020 (64 Bit) -->
<svg xmlns="http://www.w3.org/2000/svg" xml:space="preserve" width="42.3332mm" height="42.3332mm" version="1.1" style="shape-rendering:geometricPrecision; text-rendering:geometricPrecision; image-rendering:optimizeQuality; fill-rule:evenodd; clip-rule:evenodd"
viewBox="0 0 4233.32 4233.32"
 xmlns:xlink="http://www.w3.org/1999/xlink"
 xmlns:xodm="http://www.corel.com/coreldraw/odm/2003">
 <defs>
  <style type="text/css">
   <![CDATA[
    .str0 {stroke:black;stroke-width:101.6;stroke-miterlimit:22.9256}
    .fil1 {fill:none}
    .fil0 {fill:black}
   ]]>
  </style>
 </defs>
 <g id="Camada_x0020_1">
  <metadata id="CorelCorpID_0Corel-Layer"/>
  <path class="fil0" d="M712.49 2920.39c-26.55,15.46 -57.59,56.13 -70.29,91.71 -46.84,131.14 42.51,273.45 192.38,273.97 137.29,0.49 236.17,-139.51 187.64,-273.41 -23.22,-64.07 -68.43,-88.56 -70.27,-95.23l0 -113.19 17.05 -0.06c770.21,-1.49 1541.93,0.11 2312.33,0.01l0 113.24c-1.78,6.19 -47.19,32.63 -70.02,93.62 -47.53,126.93 40.6,275.56 191.38,275.01 106.95,-0.38 200.89,-89.57 200.93,-196.08 0.01,-53.92 -16.12,-104.49 -51.13,-141.71 -4.4,-4.67 -29.5,-26.63 -31.74,-30.84l0.02 -1797.68c0,-38.8 6.86,-127.57 -10.3,-153.99 -15.07,-23.22 -29.09,-18.02 -61.64,-18.02 -27.42,0 -54.84,0 -82.26,0 -59.99,0 -85.21,-9.07 -85.15,79.72 0.07,108.7 0.48,217.52 0.01,326.2l-2329.63 0.53c-0.44,-109.21 0,-218.03 0.03,-326.73 0.03,-88.94 -26.16,-79.72 -83.15,-79.72 -27.42,0 -54.84,0 -82.26,0 -32.04,0 -49.28,-5.03 -63.84,17.87 -16.92,26.61 -10.09,113.49 -10.09,152.14l0 1802.64zm103.34 92.16c-94.33,22.45 -60.84,162.81 32.74,141.68 92.73,-20.94 61.42,-164.09 -32.74,-141.68zm2568.25 0.09c-93.08,21.65 -60.02,163.76 33.26,141.61 34.05,-8.08 65.18,-42.26 54.54,-87.67 -8.14,-34.75 -42.52,-64.47 -87.8,-53.94zm-2432.25 -336.91l233.6 0.6c3.13,-19.03 0.83,-847.07 0.83,-896.49 0,-35.98 3.08,-284.95 -1.59,-297.69l-232.11 0.08 -0.73 1193.5zm2155.77 -0.57l172.74 0.1 -0.11 -1191.06 -171.89 -0.21 -0.74 1191.17zm-897.07 1.03l170.34 0.12 0.46 -1193.26 -170.56 -0.67 -0.24 1193.81zm-298.92 0.09l170.3 0.01 0.47 -1193.35 -170.54 -0.56 -0.23 1193.9zm-298.54 -0.36l170.09 0.4 0.68 -1193.67 -170.57 -0.23 -0.2 1193.5zm897.4 -1192.42l0.16 1191.59 168.27 0.21 -0.12 -1191.36 -168.31 -0.44zm298.3 1191.76l168.48 0.02 0.06 -1191.26 -167.88 -0.02 -0.66 1191.26zm-1324.75 -1191.76l-167.93 0.5 -0.49 1191.44 168.25 -0.18 0.17 -1191.76z"/>
  <rect class="fil1 str0" x="843.11" y="2296.64" width="2544.41" height="454.2"/>
 </g>
</svg>
