<?xml version="1.0" encoding="UTF-8"?>
<!DOCTYPE svg PUBLIC "-//W3C//DTD SVG 1.1//EN" "http://www.w3.org/Graphics/SVG/1.1/DTD/svg11.dtd">
<!-- Creator: CorelDRAW 2020 (64 Bit) -->
<svg xmlns="http://www.w3.org/2000/svg" xml:space="preserve" width="42.3332mm" height="42.3332mm" version="1.1" style="shape-rendering:geometricPrecision; text-rendering:geometricPrecision; image-rendering:optimizeQuality; fill-rule:evenodd; clip-rule:evenodd"
viewBox="0 0 4233.32 4233.32"
 xmlns:xlink="http://www.w3.org/1999/xlink"
 xmlns:xodm="http://www.corel.com/coreldraw/odm/2003">
 <defs>
  <style type="text/css">
   <![CDATA[
    .fil0 {fill:#010101}
   ]]>
  </style>
 </defs>
 <g id="Camada_x0020_1">
  <metadata id="CorelCorpID_0Corel-Layer"/>
  <path class="fil0" d="M1453.33 1227.04c20.13,27.76 47.94,119.36 62.68,158.05 35.21,92.45 29.27,80.07 -12.33,164.65 -35.46,72.11 -122.81,243.9 -141.99,314.07 -181.34,-38.8 -272.7,-62.91 -457.86,-2.05 -423.29,139.13 -597.02,651.01 -359.3,1028.17 268.04,425.27 924.65,435.44 1190.55,-50.64 38.41,-70.22 42.31,-123.94 70.93,-195.89 61.38,-10.07 183.66,18.8 223.31,-17.6 12.38,-11.37 40.67,-52.54 52.47,-67.94l685.11 -874.11c23.33,48.71 50.05,138.68 67.12,194.12 -13.71,14.27 -79.99,46.52 -100.23,59.18 -37.58,23.5 -66.17,48.54 -97.21,74.69 -190.61,160.59 -271.37,476.18 -177.26,744.09 102.27,291.13 446.3,550.61 859.68,419.97 558.06,-176.37 644.52,-930.94 163.89,-1237.03 -186.53,-118.79 -309.57,-119.33 -551.71,-91.15l-188.69 -579.69c36.67,-14.47 57.44,-15.17 70.47,-43.9 16.8,-37.02 -3.24,-66.01 -24.08,-80.85 -36.14,-17.92 -223.42,15.57 -329.45,9.52 -50.85,-2.9 -57.05,-15.16 -98.23,-1.86 -20.02,6.47 -57.99,106.07 55,118.19 71.94,7.72 147.94,0.22 219.87,-4.31l57.72 185.36 -1025.41 1.36c-28.5,-7.54 -89.06,-201.52 -93.03,-225.02 39.2,-0.7 143.55,7.17 172.66,-8.7 35.74,-19.48 41.77,-94.94 6.64,-122.97 -26.51,-21.16 -118.01,-14.39 -161.59,-19.74 -120.25,-14.75 -234.12,-72.92 -316.04,-44.53 -39.04,13.52 -80.78,46.93 -87.49,93.28 -21.71,149.81 159.57,97.83 263.8,103.28zm1527.69 742.03c-4.41,63.15 205.7,558.4 173.64,604.89 -69.48,47.42 -88.97,-3.79 -109.48,-68.56 -17.88,-56.48 -37.27,-109.62 -56.47,-167.34 -21.02,-63.19 -88.39,-296.35 -116.05,-330.58 -236.63,80.41 -407.99,425.84 -289.8,719.24 92.2,228.9 365.93,440.77 707.19,325.57 239.01,-80.68 449.82,-355.57 359.62,-686.65 -68.64,-251.94 -334.5,-465.54 -668.65,-396.57zm-952.92 495.99l533.65 -674.39c32.09,-43.34 159.26,-194.15 169.29,-228.33 -93.32,-15.57 -910.96,-12.4 -1034.67,-4.56l331.73 907.28zm-575.3 -562.16c41.12,42.88 158.25,86.61 252.74,238.77 67.01,107.92 110.69,240.59 109.08,392.66l122.52 1.27c-18.99,-73.7 -57.93,-165.67 -85.49,-238.78 -29.72,-78.85 -56.41,-156.84 -85.4,-232.71 -30.4,-79.58 -143.08,-417.41 -174.61,-459.91l-138.84 298.7zm-289.39 632.65l524.78 -0.02c0.12,-132.16 -27.92,-223.75 -84.59,-317.66 -41.93,-69.46 -129.36,-156.76 -201.88,-191.68 -20.02,19.5 -222.5,455.96 -238.31,509.36zm509.37 104.28c-92.09,0 -609.29,15.82 -654.57,-16.66 -3.59,-70.28 250.78,-524.84 283.23,-644.95 -629.57,-135.98 -891.69,470.15 -648.19,845.94 282.44,435.9 938.42,271.12 1019.53,-184.33z"/>
 </g>
</svg>
