<?xml version="1.0" encoding="UTF-8" standalone="no"?>
<!-- Generator: Adobe Illustrator 19.0.0, SVG Export Plug-In . SVG Version: 6.00 Build 0)  -->

<svg
   version="1.1"
   id="Layer_1"
   x="0px"
   y="0px"
   viewBox="0 0 512 512"
   style="enable-background:new 0 0 512 512;"
   xml:space="preserve"
   sodipodi:docname="BUFFET.svg"
   inkscape:version="1.2.1 (9c6d41e410, 2022-07-14)"
   xmlns:inkscape="http://www.inkscape.org/namespaces/inkscape"
   xmlns:sodipodi="http://sodipodi.sourceforge.net/DTD/sodipodi-0.dtd"
   xmlns="http://www.w3.org/2000/svg"
   xmlns:svg="http://www.w3.org/2000/svg"><defs
   id="defs59" /><sodipodi:namedview
   id="namedview57"
   pagecolor="#ffffff"
   bordercolor="#000000"
   borderopacity="0.25"
   inkscape:showpageshadow="2"
   inkscape:pageopacity="0.0"
   inkscape:pagecheckerboard="0"
   inkscape:deskcolor="#d1d1d1"
   showgrid="false"
   inkscape:zoom="0.73887134"
   inkscape:cx="223.31357"
   inkscape:cy="246.32164"
   inkscape:window-width="1366"
   inkscape:window-height="715"
   inkscape:window-x="-8"
   inkscape:window-y="-8"
   inkscape:window-maximized="1"
   inkscape:current-layer="Layer_1" />



<g
   id="g354"
   transform="matrix(0.68279322,0,0,0.68279322,81.204777,81.204936)"><g
     id="g6">
	<g
   id="g4">
		<path
   d="M 435.745,147.064 H 283.833 c -4.513,0 -8.17,3.658 -8.17,8.17 0,4.512 3.657,8.17 8.17,8.17 h 151.911 c 4.513,0 8.17,-3.658 8.17,-8.17 0,-4.512 -3.656,-8.17 -8.169,-8.17 z"
   id="path2" />
	</g>
</g><g
     id="g12">
	<g
   id="g10">
		<path
   d="m 495.775,212.426 h -19.179 v -81.702 h 2.723 c 4.513,0 8.17,-3.658 8.17,-8.17 0,-4.512 -3.657,-8.17 -8.17,-8.17 H 465.39 C 461.411,62.318 419.725,20.632 367.659,16.653 V 8.17 c 0,-4.512 -3.657,-8.17 -8.17,-8.17 -4.513,0 -8.17,3.658 -8.17,8.17 v 8.482 c -52.066,3.979 -93.752,45.665 -97.731,97.731 H 239.66 c -4.513,0 -8.17,3.658 -8.17,8.17 0,4.512 3.657,8.17 8.17,8.17 h 2.723 v 81.702 H 185.17 c 3.575,-4.753 6.141,-10.306 7.371,-16.34 h 3.545 c 4.513,0 8.17,-3.658 8.17,-8.17 0,-4.512 -3.657,-8.17 -8.17,-8.17 H 185.17 c 3.575,-4.753 6.141,-10.306 7.371,-16.34 h 3.545 c 4.513,0 8.17,-3.658 8.17,-8.17 0,-4.512 -3.657,-8.17 -8.17,-8.17 H 185.17 c 3.575,-4.753 6.141,-10.306 7.371,-16.34 h 3.545 c 4.513,0 8.17,-3.658 8.17,-8.17 0,-4.512 -3.657,-8.17 -8.17,-8.17 H 185.17 c 3.575,-4.753 6.141,-10.306 7.371,-16.34 h 3.545 c 4.513,0 8.17,-3.658 8.17,-8.17 0,-4.512 -3.657,-8.17 -8.17,-8.17 H 32.681 c -4.513,0 -8.17,3.658 -8.17,8.17 0,4.512 3.657,8.17 8.17,8.17 h 3.546 c 1.23,6.034 3.794,11.588 7.371,16.34 H 32.681 c -4.513,0 -8.17,3.658 -8.17,8.17 0,4.512 3.657,8.17 8.17,8.17 h 3.546 c 1.23,6.034 3.794,11.588 7.371,16.34 H 32.681 c -4.513,0 -8.17,3.658 -8.17,8.17 0,4.512 3.657,8.17 8.17,8.17 h 3.546 c 1.23,6.034 3.794,11.588 7.371,16.34 H 32.681 c -4.513,0 -8.17,3.658 -8.17,8.17 0,4.512 3.657,8.17 8.17,8.17 h 3.546 c 1.23,6.034 3.794,11.588 7.371,16.34 H 16.225 c -4.513,0 -8.17,3.658 -8.17,8.17 v 65.362 c 0,4.512 3.657,8.17 8.17,8.17 h 403.269 c 4.513,0 8.17,-3.658 8.17,-8.17 0,-4.512 -3.657,-8.17 -8.17,-8.17 H 24.395 v -49.021 h 463.211 v 49.021 h -35.431 c -4.513,0 -8.17,3.658 -8.17,8.17 0,4.512 3.657,8.17 8.17,8.17 h 32.59 v 168.48 c -12.302,-1.192 -19.384,-5.099 -27.371,-9.506 -10.119,-5.582 -21.587,-11.91 -43.435,-11.91 -21.848,0 -33.317,6.328 -43.435,11.91 -9.606,5.3 -17.903,9.877 -35.543,9.877 -17.64,0 -25.938,-4.577 -35.544,-9.877 -10.119,-5.582 -21.587,-11.91 -43.437,-11.91 -21.85,0 -33.318,6.328 -43.437,11.91 -9.606,5.3 -17.904,9.877 -35.544,9.877 -17.639,0 -25.937,-4.577 -35.542,-9.877 -10.118,-5.582 -21.586,-11.91 -43.434,-11.91 -21.848,0 -33.317,6.328 -43.435,11.91 -2.276,1.255 -4.479,2.466 -6.75,3.589 -5.705,2.821 -11.829,5.064 -20.623,5.916 V 318.638 c 0,-4.512 -3.657,-8.17 -8.17,-8.17 -4.513,0 -8.17,3.658 -8.17,8.17 v 152.511 c 0,4.512 3.657,8.17 8.17,8.17 10.095,0 17.957,-1.359 24.511,-3.363 v 27.873 c 0,4.512 3.657,8.17 8.17,8.17 4.513,0 8.17,-3.658 8.17,-8.17 v -35.004 c 0.873,-0.475 1.736,-0.948 2.585,-1.416 9.606,-5.3 17.903,-9.877 35.542,-9.877 17.639,0 25.936,4.578 35.54,9.876 10.118,5.583 21.586,11.911 43.435,11.911 21.85,0 33.318,-6.328 43.437,-11.91 9.606,-5.3 17.904,-9.877 35.544,-9.877 17.64,0 25.938,4.578 35.544,9.877 10.119,5.583 21.587,11.91 43.437,11.91 21.849,0 33.318,-6.328 43.436,-11.91 9.606,-5.3 17.903,-9.877 35.542,-9.877 17.639,0 25.936,4.578 35.54,9.876 0.849,0.468 1.711,0.941 2.584,1.416 v 35.006 c 0,4.512 3.657,8.17 8.17,8.17 4.513,0 8.17,-3.658 8.17,-8.17 v -27.875 c 6.554,2.004 14.415,3.364 24.511,3.364 4.513,0 8.17,-3.658 8.17,-8.17 V 292.143 c 1.737,-1.498 2.841,-3.71 2.841,-6.185 v -65.362 c 10e-4,-4.512 -3.656,-8.17 -8.169,-8.17 z m -343.264,0 H 76.255 c -10.651,0 -19.733,-6.831 -23.105,-16.34 h 122.466 c -3.373,9.508 -12.455,16.34 -23.105,16.34 z m 0,-32.681 H 76.255 c -10.651,0 -19.733,-6.831 -23.105,-16.34 h 122.466 c -3.373,9.508 -12.455,16.34 -23.105,16.34 z m 0,-32.681 H 76.255 c -10.651,0 -19.733,-6.831 -23.105,-16.34 h 122.466 c -3.373,9.508 -12.455,16.34 -23.105,16.34 z m 0,-32.681 H 76.255 c -10.651,0 -19.733,-6.831 -23.105,-16.34 h 122.466 c -3.373,9.509 -12.455,16.34 -23.105,16.34 z M 359.489,32.681 c 46.8,0 85.341,35.963 89.484,81.702 H 270.005 c 4.144,-45.739 42.684,-81.702 89.484,-81.702 z M 460.255,212.426 H 258.723 v -81.702 h 201.532 z"
   id="path8" />
	</g>
</g><g
     id="g18">
	<g
   id="g16">
		<circle
   cx="446.638"
   cy="373.10599"
   r="8.1700001"
   id="circle14" />
	</g>
</g><g
     id="g24">
	<g
   id="g22">
		<circle
   cx="413.957"
   cy="405.78699"
   r="8.1700001"
   id="circle20" />
	</g>
</g></g>
<g
   id="g26">
</g>
<g
   id="g28">
</g>
<g
   id="g30">
</g>
<g
   id="g32">
</g>
<g
   id="g34">
</g>
<g
   id="g36">
</g>
<g
   id="g38">
</g>
<g
   id="g40">
</g>
<g
   id="g42">
</g>
<g
   id="g44">
</g>
<g
   id="g46">
</g>
<g
   id="g48">
</g>
<g
   id="g50">
</g>
<g
   id="g52">
</g>
<g
   id="g54">
</g>
</svg>
