<?xml version="1.0" encoding="UTF-8"?>
<!DOCTYPE svg PUBLIC "-//W3C//DTD SVG 1.1//EN" "http://www.w3.org/Graphics/SVG/1.1/DTD/svg11.dtd">
<!-- Creator: CorelDRAW 2020 (64 Bit) -->
<svg xmlns="http://www.w3.org/2000/svg" xml:space="preserve" width="42.3332mm" height="42.3332mm" version="1.1" style="shape-rendering:geometricPrecision; text-rendering:geometricPrecision; image-rendering:optimizeQuality; fill-rule:evenodd; clip-rule:evenodd"
viewBox="0 0 4233.32 4233.32"
 xmlns:xlink="http://www.w3.org/1999/xlink"
 xmlns:xodm="http://www.corel.com/coreldraw/odm/2003">
 <defs>
  <style type="text/css">
   <![CDATA[
    .str0 {stroke:black;stroke-width:50.8;stroke-miterlimit:22.9256}
    .str1 {stroke:black;stroke-width:50.8;stroke-miterlimit:22.9256}
    .str2 {stroke:black;stroke-width:50.8;stroke-miterlimit:22.9256}
    .fil0 {fill:none}
    .fil1 {fill:black;fill-rule:nonzero}
   ]]>
  </style>
 </defs>
 <g id="Camada_x0020_1">
  <metadata id="CorelCorpID_0Corel-Layer"/>
  <g id="_2550521136688">
   <path class="fil0 str0" d="M893.7 724.56l2742.86 0c150.37,0 273.4,123.03 273.4,273.4l0 2081.39 -3289.66 0 0 -2081.39c0,-150.37 123.03,-273.4 273.4,-273.4z"/>
   <g>
    <path class="fil1" d="M3501.83 749.98l-2473.4 0 0 -50.84 2473.4 0 0 0 0 50.84zm281.39 230.57l-50.8 0 0 0 -0.3 -11.82 -0.9 -11.67 -1.47 -11.5 -2.03 -11.29 -2.59 -11.12 -3.11 -10.92 -3.64 -10.69 -4.14 -10.45 -4.63 -10.2 -5.1 -9.92 -5.58 -9.67 -6.01 -9.36 -6.45 -9.05 -6.87 -8.74 -7.27 -8.38 -7.65 -8.04 -8.04 -7.65 -8.38 -7.27 -8.74 -6.87 -9.05 -6.45 -9.37 -6.02 -9.66 -5.58 -9.93 -5.1 -10.2 -4.63 -10.45 -4.14 -10.69 -3.63 -10.92 -3.12 -11.13 -2.59 -11.29 -2.03 -11.5 -1.47 -11.67 -0.9 -11.83 -0.3 0 -50.84 14.41 0.36 14.25 1.1 14.04 1.79 13.85 2.49 13.59 3.17 13.34 3.8 13.07 4.45 12.77 5.06 12.46 5.65 12.13 6.24 11.78 6.8 11.41 7.32 11.03 7.87 10.62 8.35 10.22 8.85 9.78 9.33 9.33 9.78 8.85 10.22 8.35 10.62 7.87 11.03 7.33 11.42 6.8 11.77 6.24 12.14 5.65 12.46 5.06 12.77 4.44 13.07 3.81 13.34 3.17 13.6 2.49 13.85 1.79 14.04 1.1 14.25 0.36 14.42 0 0zm-50.8 1948.86l0 -1948.86 50.8 0 0 1948.86 -25.4 25.42 -25.4 -25.42zm50.8 0l0 25.42 -25.4 0 25.4 -25.42zm-3010.78 -25.42l2985.38 0 0 50.84 -2985.38 0 -25.4 -25.42 25.4 -25.42zm0 50.84l-25.4 0 0 -25.42 25.4 25.42zm25.4 -1974.28l0 1948.86 -50.8 0 0 -1948.86 0 0 50.8 0zm230.59 -281.41l0 50.84 0 0 -11.83 0.3 -11.67 0.9 -11.5 1.47 -11.29 2.03 -11.13 2.59 -10.92 3.12 -10.69 3.63 -10.45 4.14 -10.2 4.63 -9.93 5.1 -9.66 5.58 -9.37 6.02 -9.05 6.45 -8.74 6.87 -8.38 7.27 -8.04 7.65 -7.65 8.04 -7.27 8.38 -6.87 8.74 -6.45 9.05 -6.01 9.36 -5.58 9.67 -5.1 9.92 -4.63 10.2 -4.14 10.45 -3.64 10.69 -3.11 10.92 -2.59 11.12 -2.03 11.29 -1.47 11.5 -0.9 11.67 -0.3 11.82 -50.8 0 0.36 -14.42 1.1 -14.25 1.79 -14.04 2.49 -13.85 3.17 -13.6 3.81 -13.34 4.44 -13.07 5.06 -12.77 5.65 -12.46 6.24 -12.14 6.8 -11.77 7.33 -11.42 7.87 -11.03 8.35 -10.62 8.85 -10.22 9.33 -9.78 9.78 -9.33 10.22 -8.85 10.62 -8.35 11.03 -7.87 11.41 -7.32 11.78 -6.8 12.13 -6.24 12.46 -5.65 12.77 -5.06 13.07 -4.45 13.34 -3.8 13.59 -3.17 13.85 -2.49 14.04 -1.79 14.25 -1.1 14.41 -0.36 0 0z"/>
   </g>
   <line class="fil0 str0" x1="772.44" y1="2929.41" x2="620.3" y2= "3079.35" />
   <line class="fil0 str0" x1="772.44" y1="1046.46" x2="620.3" y2= "1196.4" />
   <line class="fil0 str1" x1="3747.89" y1="2929.41" x2="3900.03" y2= "3079.35" />
   <line class="fil0 str2" x1="3747.89" y1="1046.46" x2="3900.03" y2= "1196.4" />
   <g>
    <polygon class="fil1" points="3808.95,1128.02 715.45,1128.02 715.45,1077.24 3808.95,1077.24 "/>
   </g>
   <g>
    <path class="fil1" d="M738.49 3104.75l-116.86 0 0 -50.8 116.86 0 25.59 25.4 -25.59 25.4zm0 -50.8l25.59 0 0 25.4 -25.59 -25.4zm-25.59 134.49l0 -109.09 51.18 0 0 109.09 0 0 -51.18 0zm-32.83 83.82l0 -50.8 0 0 1.7 -0.05 1.63 -0.12 1.62 -0.21 1.6 -0.28 1.54 -0.36 1.56 -0.45 1.5 -0.51 1.49 -0.59 1.43 -0.65 1.39 -0.71 1.39 -0.81 1.35 -0.86 1.28 -0.92 1.25 -0.98 1.22 -1.05 1.15 -1.1 1.09 -1.15 1.06 -1.22 0.99 -1.25 0.94 -1.32 0.86 -1.34 0.78 -1.35 0.73 -1.44 0.67 -1.47 0.59 -1.49 0.52 -1.52 0.45 -1.59 0.37 -1.57 0.29 -1.62 0.22 -1.65 0.12 -1.66 0.05 -1.73 51.18 0 -0.11 4.27 -0.32 4.24 -0.54 4.19 -0.73 4.12 -0.95 4.07 -1.13 3.95 -1.32 3.9 -1.51 3.81 -1.67 3.69 -1.85 3.6 -2.04 3.55 -2.2 3.4 -2.32 3.26 -2.49 3.17 -2.62 3.02 -2.77 2.91 -2.93 2.78 -3.02 2.63 -3.17 2.5 -3.3 2.34 -3.39 2.18 -3.49 2.01 -3.65 1.89 -3.75 1.69 -3.81 1.51 -3.92 1.33 -3.98 1.13 -4.1 0.96 -4.14 0.74 -4.22 0.55 -4.27 0.32 -4.3 0.11 0 0zm-0.02 -50.8l0.02 0 0 50.8 -0.02 0 0 0 0 -50.8zm-84.01 -33.02l51.18 0 0 0 0.05 1.73 0.12 1.66 0.22 1.65 0.29 1.62 0.37 1.57 0.45 1.59 0.52 1.52 0.59 1.49 0.67 1.47 0.73 1.44 0.78 1.35 0.86 1.34 0.94 1.32 0.99 1.25 1.06 1.22 1.09 1.15 1.15 1.1 1.22 1.05 1.25 0.98 1.28 0.92 1.35 0.86 1.39 0.81 1.39 0.71 1.43 0.65 1.49 0.59 1.5 0.51 1.56 0.45 1.54 0.36 1.6 0.28 1.62 0.21 1.63 0.12 1.7 0.05 0 50.8 -4.3 -0.11 -4.27 -0.32 -4.22 -0.55 -4.14 -0.74 -4.1 -0.96 -3.98 -1.13 -3.92 -1.33 -3.81 -1.51 -3.75 -1.69 -3.65 -1.89 -3.49 -2.01 -3.39 -2.18 -3.3 -2.34 -3.17 -2.5 -3.02 -2.63 -2.93 -2.78 -2.77 -2.91 -2.62 -3.02 -2.49 -3.17 -2.32 -3.26 -2.2 -3.4 -2.04 -3.55 -1.85 -3.6 -1.67 -3.69 -1.51 -3.81 -1.32 -3.9 -1.13 -3.95 -0.95 -4.07 -0.73 -4.12 -0.54 -4.19 -0.32 -4.24 -0.11 -4.27 0 0zm51.18 -109.09l0 109.09 -51.18 0 0 -109.09 25.59 -25.4 25.59 25.4zm-51.18 0l0 -25.4 25.59 0 -25.59 25.4z"/>
   </g>
   <g>
    <path class="fil1" d="M3908.83 3104.75l-116.86 0 0 -50.8 116.86 0 25.59 25.4 -25.59 25.4zm0 -50.8l25.59 0 0 25.4 -25.59 -25.4zm-25.59 134.49l0 -109.09 51.18 0 0 109.09 0 0 -51.18 0zm-32.83 83.82l0 -50.8 0 0 1.7 -0.05 1.63 -0.12 1.62 -0.21 1.6 -0.28 1.54 -0.36 1.56 -0.45 1.5 -0.51 1.49 -0.59 1.43 -0.65 1.39 -0.71 1.39 -0.81 1.35 -0.86 1.28 -0.92 1.25 -0.98 1.22 -1.05 1.15 -1.1 1.09 -1.15 1.06 -1.22 0.99 -1.25 0.94 -1.32 0.86 -1.34 0.78 -1.35 0.73 -1.44 0.67 -1.47 0.59 -1.49 0.52 -1.52 0.45 -1.59 0.37 -1.57 0.29 -1.62 0.22 -1.65 0.12 -1.66 0.05 -1.73 51.18 0 -0.11 4.27 -0.32 4.24 -0.54 4.19 -0.73 4.12 -0.95 4.07 -1.13 3.95 -1.32 3.9 -1.51 3.81 -1.67 3.69 -1.85 3.6 -2.04 3.55 -2.2 3.4 -2.32 3.26 -2.49 3.17 -2.62 3.02 -2.77 2.91 -2.93 2.78 -3.02 2.63 -3.17 2.5 -3.3 2.34 -3.39 2.18 -3.49 2.01 -3.65 1.89 -3.75 1.69 -3.81 1.51 -3.92 1.33 -3.98 1.13 -4.1 0.96 -4.14 0.74 -4.22 0.55 -4.27 0.32 -4.3 0.11 0 0zm-0.02 -50.8l0.02 0 0 50.8 -0.02 0 0 0 0 -50.8zm-84.01 -33.02l51.18 0 0 0 0.05 1.73 0.12 1.66 0.22 1.65 0.29 1.62 0.37 1.57 0.45 1.59 0.52 1.52 0.59 1.49 0.67 1.47 0.73 1.44 0.78 1.35 0.86 1.34 0.94 1.32 0.99 1.25 1.06 1.22 1.09 1.15 1.15 1.1 1.22 1.05 1.25 0.98 1.28 0.92 1.35 0.86 1.39 0.81 1.39 0.71 1.43 0.65 1.49 0.59 1.5 0.51 1.56 0.45 1.54 0.36 1.6 0.28 1.62 0.21 1.63 0.12 1.7 0.05 0 50.8 -4.3 -0.11 -4.27 -0.32 -4.22 -0.55 -4.14 -0.74 -4.1 -0.96 -3.98 -1.13 -3.92 -1.33 -3.81 -1.51 -3.75 -1.69 -3.65 -1.89 -3.49 -2.01 -3.39 -2.18 -3.3 -2.34 -3.17 -2.5 -3.02 -2.63 -2.93 -2.78 -2.77 -2.91 -2.62 -3.02 -2.49 -3.17 -2.32 -3.26 -2.2 -3.4 -2.04 -3.55 -1.85 -3.6 -1.67 -3.69 -1.51 -3.81 -1.32 -3.9 -1.13 -3.95 -0.95 -4.07 -0.73 -4.12 -0.54 -4.19 -0.32 -4.24 -0.11 -4.27 0 0zm51.18 -109.09l0 109.09 -51.18 0 0 -109.09 25.59 -25.4 25.59 25.4zm-51.18 0l0 -25.4 25.59 0 -25.59 25.4z"/>
   </g>
   <g>
    <path class="fil1" d="M3747.9 2939.66l-72.31 0 0 -33.86 72.31 0 17.06 16.93 -17.06 16.93zm0 -33.86l17.06 0 0 16.93 -17.06 -16.93zm-17.06 84.42l0 -67.49 34.12 0 0 67.49 0 0 -34.12 0zm-19.09 53.07l0 -33.86 0 0 0.96 -0.03 0.98 -0.08 0.94 -0.12 0.94 -0.17 0.91 -0.2 0.86 -0.25 0.88 -0.3 0.84 -0.33 0.85 -0.39 0.84 -0.43 0.8 -0.46 0.79 -0.5 0.71 -0.51 0.73 -0.58 0.74 -0.64 0.65 -0.62 0.65 -0.68 0.62 -0.71 0.57 -0.72 0.52 -0.74 0.51 -0.79 0.46 -0.81 0.44 -0.85 0.39 -0.86 0.34 -0.87 0.31 -0.88 0.25 -0.87 0.21 -0.93 0.17 -0.95 0.12 -0.96 0.08 -1 0.03 -0.98 34.12 0 -0.07 2.72 -0.2 2.66 -0.34 2.66 -0.47 2.59 -0.59 2.57 -0.73 2.55 -0.83 2.46 -0.96 2.41 -1.07 2.34 -1.16 2.27 -1.28 2.21 -1.37 2.15 -1.5 2.1 -1.59 2.02 -1.66 1.91 -1.75 1.84 -1.85 1.76 -1.9 1.64 -1.99 1.58 -2.13 1.51 -2.15 1.38 -2.22 1.28 -2.28 1.17 -2.35 1.07 -2.44 0.97 -2.48 0.84 -2.56 0.73 -2.59 0.6 -2.6 0.47 -2.68 0.34 -2.68 0.2 -2.74 0.07 0 0zm-0.01 -33.86l0.01 0 0 33.86 -0.01 0 0 0 0 -33.86zm-53.21 -19.21l34.12 0 0 0 0.03 0.98 0.08 1 0.12 0.96 0.17 0.95 0.21 0.93 0.25 0.87 0.31 0.88 0.34 0.87 0.39 0.86 0.44 0.85 0.44 0.77 0.52 0.79 0.57 0.81 0.56 0.72 0.59 0.68 0.63 0.66 0.68 0.64 0.73 0.64 0.72 0.56 0.76 0.54 0.75 0.49 0.81 0.46 0.85 0.44 0.83 0.38 0.84 0.33 0.88 0.3 0.86 0.25 0.91 0.2 0.94 0.17 0.94 0.12 0.98 0.08 0.96 0.03 0 33.86 -2.74 -0.07 -2.68 -0.2 -2.68 -0.34 -2.6 -0.47 -2.59 -0.6 -2.56 -0.73 -2.48 -0.84 -2.44 -0.97 -2.37 -1.08 -2.25 -1.16 -2.23 -1.28 -2.17 -1.39 -2.08 -1.48 -2.02 -1.6 -1.89 -1.64 -1.84 -1.74 -1.77 -1.86 -1.69 -1.94 -1.58 -2.02 -1.45 -2.03 -1.38 -2.15 -1.3 -2.25 -1.16 -2.27 -1.07 -2.34 -0.96 -2.41 -0.83 -2.46 -0.73 -2.55 -0.59 -2.57 -0.47 -2.59 -0.34 -2.66 -0.2 -2.66 -0.07 -2.72 0 0zm34.12 -67.49l0 67.49 -34.12 0 0 -67.49 17.06 -16.93 17.06 16.93zm-34.12 0l0 -16.93 17.06 0 -17.06 16.93z"/>
   </g>
   <g>
    <path class="fil1" d="M839.41 2939.66l-72.31 0 0 -33.86 72.31 0 17.06 16.93 -17.06 16.93zm0 -33.86l17.06 0 0 16.93 -17.06 -16.93zm-17.06 84.42l0 -67.49 34.12 0 0 67.49 0 0 -34.12 0zm-19.09 53.07l0 -33.86 0 0 0.96 -0.03 0.98 -0.08 0.94 -0.12 0.94 -0.17 0.91 -0.2 0.86 -0.25 0.88 -0.3 0.84 -0.33 0.85 -0.39 0.84 -0.43 0.8 -0.46 0.79 -0.5 0.71 -0.51 0.73 -0.58 0.74 -0.64 0.65 -0.62 0.65 -0.68 0.62 -0.71 0.57 -0.72 0.52 -0.74 0.51 -0.79 0.46 -0.81 0.44 -0.85 0.39 -0.86 0.34 -0.87 0.31 -0.88 0.25 -0.87 0.21 -0.93 0.17 -0.95 0.12 -0.96 0.08 -1 0.03 -0.98 34.12 0 -0.07 2.72 -0.2 2.66 -0.34 2.66 -0.47 2.59 -0.59 2.57 -0.73 2.55 -0.83 2.46 -0.96 2.41 -1.07 2.34 -1.16 2.27 -1.28 2.21 -1.37 2.15 -1.5 2.1 -1.59 2.02 -1.66 1.91 -1.75 1.84 -1.85 1.76 -1.9 1.64 -1.99 1.58 -2.13 1.51 -2.15 1.38 -2.22 1.28 -2.28 1.17 -2.35 1.07 -2.44 0.97 -2.48 0.84 -2.56 0.73 -2.59 0.6 -2.6 0.47 -2.68 0.34 -2.68 0.2 -2.74 0.07 0 0zm-0.01 -33.86l0.01 0 0 33.86 -0.01 0 0 0 0 -33.86zm-53.21 -19.21l34.12 0 0 0 0.03 0.98 0.08 1 0.12 0.96 0.17 0.95 0.21 0.93 0.25 0.87 0.31 0.88 0.34 0.87 0.39 0.86 0.44 0.85 0.44 0.77 0.52 0.79 0.57 0.81 0.56 0.72 0.59 0.68 0.63 0.66 0.68 0.64 0.73 0.64 0.72 0.56 0.76 0.54 0.75 0.49 0.81 0.46 0.85 0.44 0.83 0.38 0.84 0.33 0.88 0.3 0.86 0.25 0.91 0.2 0.94 0.17 0.94 0.12 0.98 0.08 0.96 0.03 0 33.86 -2.74 -0.07 -2.68 -0.2 -2.68 -0.34 -2.6 -0.47 -2.59 -0.6 -2.56 -0.73 -2.48 -0.84 -2.44 -0.97 -2.37 -1.08 -2.25 -1.16 -2.23 -1.28 -2.17 -1.39 -2.08 -1.48 -2.02 -1.6 -1.89 -1.64 -1.84 -1.74 -1.77 -1.86 -1.69 -1.94 -1.58 -2.02 -1.45 -2.03 -1.38 -2.15 -1.3 -2.25 -1.16 -2.27 -1.07 -2.34 -0.96 -2.41 -0.83 -2.46 -0.73 -2.55 -0.59 -2.57 -0.47 -2.59 -0.34 -2.66 -0.2 -2.66 -0.07 -2.72 0 0zm34.12 -67.49l0 67.49 -34.12 0 0 -67.49 17.06 -16.93 17.06 16.93zm-34.12 0l0 -16.93 17.06 0 -17.06 16.93z"/>
   </g>
  </g>
 </g>
</svg>
