<?xml version="1.0" encoding="UTF-8"?>
<!DOCTYPE svg PUBLIC "-//W3C//DTD SVG 1.1//EN" "http://www.w3.org/Graphics/SVG/1.1/DTD/svg11.dtd">
<!-- Creator: CorelDRAW 2020 (64 Bit) -->
<svg xmlns="http://www.w3.org/2000/svg" xml:space="preserve" width="42.3332mm" height="42.3332mm" version="1.1" style="shape-rendering:geometricPrecision; text-rendering:geometricPrecision; image-rendering:optimizeQuality; fill-rule:evenodd; clip-rule:evenodd"
viewBox="0 0 4233.32 4233.32"
 xmlns:xlink="http://www.w3.org/1999/xlink"
 xmlns:xodm="http://www.corel.com/coreldraw/odm/2003">
 <defs>
  <style type="text/css">
   <![CDATA[
    .fil0 {fill:black}
   ]]>
  </style>
 </defs>
 <g id="Camada_x0020_1">
  <metadata id="CorelCorpID_0Corel-Layer"/>
  <path class="fil0" d="M2653.9 2165.42c27.79,-61.07 143.41,-1193.41 144.69,-1333.31 3.17,-343.39 -880.03,-313.92 -1159.04,-222.03 -270.05,88.96 -208.14,221.83 -179.65,510.63l100.83 1010.79c25.17,65.47 210.17,39.51 345.27,39.51 214.17,0 547.92,19.68 747.9,-5.59zm-1328.36 745.38c25.27,40.65 638.61,20.08 733.01,20.08l-3.61 395.16c-245.52,4.16 -661.31,80.76 -618.93,337.11 78.93,26.66 1281.29,28.49 1334.45,0.79 14.58,-15.67 12.9,2.18 20.82,-36.15 44.6,-214.32 -452.29,-294.33 -621.41,-301.95l-0.2 -403.67 736.33 -5.73c112.06,-24.53 140.44,-105.04 130.5,-195.58 41.84,-109.98 15.28,-347.2 15.28,-482.65 0,-47.77 10.29,-177.08 4.46,-282.27l88.81 0 0 -75.9c0,-41.74 -34.17,-75.91 -75.91,-75.91l-65.57 0c-3.26,-0.55 -6.73,-0.6 -10.43,0l-0.2 0 0 0.05c-4.3,0.69 -8.85,2.12 -13.75,4.5 -60.03,29.22 -45.1,419.84 -39.31,660.37 -6.48,-10.38 -12.76,-19.88 -18.75,-28.34 -92.77,-131.34 -215.6,-102.16 -414.45,-102.16 -315.65,0 -705.32,-20.62 -1011.77,0.54 -96.63,6.63 -156.42,64.73 -201.66,138.61 5.63,-239.64 21.61,-639.45 -39.12,-669.02 -4.9,-2.38 -9.45,-3.81 -13.75,-4.5l0 -0.05 -0.2 0c-3.7,-0.6 -7.17,-0.55 -10.43,0l-65.57 0c-41.74,0 -75.91,34.17 -75.91,75.91l0 75.9 88.81 0c-5.83,105.19 4.46,234.5 4.46,282.27 0,135.15 -26.46,371.68 15.03,481.95 -13.7,92.82 12.95,174.37 128.97,190.64zm249.78 656.02l1067.55 3.02c-74.57,-102.81 -383.1,-138.47 -531.85,-138.57 -198.35,-0.14 -409.16,33.29 -535.7,135.55zm-109.14 -1111.37c-57.61,30.07 -190.84,248.64 -164.08,316.74 32.19,82.14 361.64,40.4 457.32,40.4 336.77,0 674.62,-2.67 1011.23,0.3 92.18,0.84 172.89,17.75 160.42,-85.46 -4.79,-39.8 -49.55,-149.29 -70.81,-182.32 -90.89,-141.43 -197.51,-98.02 -397.54,-98.02 -132.68,0 -945.31,-18.34 -996.54,8.36zm193.7 -394.42c124.62,7.91 828.06,15.82 911.44,-5.69 32.93,-316.59 61.56,-630.16 92.87,-944.22 17.85,-179.02 86.29,-328.95 -87.43,-391.31 -210.62,-75.66 -706.71,-82.29 -916.73,-0.79 -175.9,68.29 -116.31,173.77 -95.05,378.05 33.03,316.64 73.49,646.58 94.9,963.96z"/>
 </g>
</svg>
