<?xml version="1.0" encoding="UTF-8"?>
<!DOCTYPE svg PUBLIC "-//W3C//DTD SVG 1.1//EN" "http://www.w3.org/Graphics/SVG/1.1/DTD/svg11.dtd">
<!-- Creator: CorelDRAW 2020 (64 Bit) -->
<svg xmlns="http://www.w3.org/2000/svg" xml:space="preserve" width="42.3332mm" height="42.3332mm" version="1.1" style="shape-rendering:geometricPrecision; text-rendering:geometricPrecision; image-rendering:optimizeQuality; fill-rule:evenodd; clip-rule:evenodd"
viewBox="0 0 4233.32 4233.32"
 xmlns:xlink="http://www.w3.org/1999/xlink"
 xmlns:xodm="http://www.corel.com/coreldraw/odm/2003">
 <defs>
  <style type="text/css">
   <![CDATA[
    .fil0 {fill:black}
   ]]>
  </style>
 </defs>
 <g id="Camada_x0020_1">
  <metadata id="CorelCorpID_0Corel-Layer"/>
  <path class="fil0" d="M2585.11 2006.8c24.29,-53.37 125.33,-1042.98 126.45,-1165.25 2.77,-300.1 -769.11,-274.34 -1012.94,-194.05 -236.02,77.75 -181.91,193.88 -157.01,446.27l88.12 883.38c22,57.22 183.68,34.53 301.75,34.53 187.18,0 478.85,17.2 653.63,-4.88zm-722.95 651.43l0 584.71c0,32.97 -26.98,59.93 -59.93,59.93l0 0c-32.94,0 -59.92,-26.96 -59.92,-59.93l0 -584.71 -99.86 0c0.49,3.41 0.76,6.9 0.76,10.45l0 896.91c0,40.28 -32.97,73.25 -73.25,73.25l0 0c-40.28,0 -73.26,-32.97 -73.26,-73.25l0 -896.91c0,-3.55 0.27,-7.04 0.76,-10.45l-73.28 0c-65.04,-9.12 -97.89,-41.71 -109.99,-85.32 0.05,-16.29 -1.55,-31.46 -0.39,-48.06 1.56,-22.86 8.26,-48.49 21.48,-86.6 13.19,-38.12 32.85,-88.73 55.02,-130.31 21.74,-40.84 45.94,-72.95 60.33,-96.93 31.73,-29.22 70.84,-48.93 121.58,-52.43 267.82,-18.5 608.38,-0.47 884.24,-0.47 161.2,0 265.23,-21.92 344.14,66.51 11.72,20.18 27.58,44.12 44.47,81.25 18.5,40.75 38.12,97.37 50.87,132.72 12.75,35.4 18.63,49.53 21.61,62.06 2.94,12.58 2.98,23.47 1.56,44.95l-0.44 6.61c-7.86,48.1 -35.39,87.39 -94.64,106.02l-109.59 0c0.49,3.41 0.76,6.9 0.76,10.45l0 896.91c0,40.28 -32.97,73.25 -73.25,73.25l0 0c-40.28,0 -73.26,-32.97 -73.26,-73.25l0 -896.91c0,-3.55 0.27,-7.04 0.76,-10.45l-81.88 0 0 584.71c0,32.97 -26.97,59.93 -59.92,59.93l0 0c-32.95,0 -59.92,-26.96 -59.92,-59.93l0 -584.71 -505.56 0zm-315.06 -397.96c-50.35,26.28 -166.78,217.3 -143.4,276.82 28.13,71.78 316.05,35.3 399.68,35.3 294.31,0 589.58,-2.33 883.77,0.26 80.55,0.74 151.09,15.52 140.2,-74.68 -4.2,-34.79 -43.31,-130.47 -61.89,-159.34 -79.44,-123.61 -172.62,-85.66 -347.43,-85.66 -115.96,0 -826.16,-16.03 -870.93,7.3zm169.28 -344.7c108.91,6.91 723.69,13.83 796.55,-4.97 28.79,-276.69 53.81,-550.73 81.17,-825.21 15.6,-156.45 75.41,-287.49 -76.41,-341.98 -184.07,-66.13 -617.63,-71.92 -801.18,-0.7 -153.73,59.69 -101.65,151.87 -83.06,330.41 28.87,276.72 64.22,565.07 82.93,842.45z"/>
 </g>
</svg>
