<?xml version="1.0" encoding="UTF-8"?>
<!DOCTYPE svg PUBLIC "-//W3C//DTD SVG 1.1//EN" "http://www.w3.org/Graphics/SVG/1.1/DTD/svg11.dtd">
<!-- Creator: CorelDRAW 2020 (64 Bit) -->
<svg xmlns="http://www.w3.org/2000/svg" xml:space="preserve" width="42.3332mm" height="42.3332mm" version="1.1" style="shape-rendering:geometricPrecision; text-rendering:geometricPrecision; image-rendering:optimizeQuality; fill-rule:evenodd; clip-rule:evenodd"
viewBox="0 0 4233.32 4233.32"
 xmlns:xlink="http://www.w3.org/1999/xlink"
 xmlns:xodm="http://www.corel.com/coreldraw/odm/2003">
 <defs>
  <style type="text/css">
   <![CDATA[
    .fil0 {fill:black}
    .fil1 {fill:white}
   ]]>
  </style>
 </defs>
 <g id="Camada_x0020_1">
  <metadata id="CorelCorpID_0Corel-Layer"/>
  <g id="_2550773452416">
   <path class="fil0" d="M2119.55 1173.76c-24.68,3.79 -39.37,10.83 -63.25,15.34l-154.57 44.04c-8.86,3.21 -15.29,4.81 -22.58,6.99 -17.94,5.35 -32.87,7.58 -50.34,13.49 -9.28,3.13 -17.78,4.59 -26.53,7.35 -9.75,3.06 -13.72,4.93 -25.54,7.82l-25.96 7.4c-4.69,1.48 -6.87,2.7 -12.54,4.09l-107.23 27.69c-2.66,0.57 -3.39,2.2 -9.51,4.01l-110.53 31.65c-14,2.97 -33.13,10.33 -48.43,12.53 -9.56,1.38 -56.68,19.26 -73.25,21.91 -12.94,2.07 -32.56,10.46 -51.65,14.65l-24.41 5.82c-12.95,2.9 -21.23,7.87 -38.72,11.21l-134.95 38.69c-14.55,4.38 -36.09,11.1 -52.53,15.02l-44.02 12.23c-1.72,0.28 -18.11,4.02 -23.87,6.13l-10.85 4.39c-4.2,1.22 -3.33,0.53 -8.73,2.06 -15.22,4.29 -37.22,6.56 -50.98,14.44 -9.06,5.19 -16.98,17.66 -23.84,26.42l-71.73 96.46c-1.72,2.05 -1.55,1.78 -3.39,4.08 -6.78,8.47 -11.6,18.39 -18.73,26.27 -5.42,5.99 -10.54,12.04 -15.06,18.31 -0.23,0.33 -0.53,0.79 -0.78,1.11l-33.36 45.12c-13.39,18.19 -32.87,40.04 -42.46,58.86 -3.08,6.06 -4.39,2.31 -4.15,12.32 0.24,9.56 8.93,15.28 16.81,18.83l192 65.71c16.25,4.17 35,12.83 48.07,17.58 0.1,0.04 14.21,2.65 22.03,5.79l36.23 11.8c2.75,0.93 6.11,3.56 9.93,4.97l91.95 32.58c0.35,0.05 0.9,0.09 1.28,0.15 29.77,4.37 80.56,27.45 112.56,36.92 10.33,3.05 16.82,4.95 25.92,7.97l78.82 27.7c0.33,0.18 0.81,0.5 1.11,0.68 5.51,3.21 19.95,5.21 26.43,7.92l26.19 10.79c5.82,2.58 -1.31,-0.09 3.4,1.15l12.14 3.75c9.39,4.69 38.06,10.83 50.22,15.27l10.16 4.41c23.32,9.77 51.74,14.4 76.11,25.1l46.7 16.4c17.87,4.72 32.23,12.36 50.28,17.13l41.14 13.43c12.46,5.44 8.41,8.93 25.24,7.49 15.13,-1.3 33.41,-27.82 43.18,-40.12l37.27 -46.96c10.26,-11 17.07,-22.87 26.41,-33.54l59.54 -70.95c16.03,-19.86 34.13,-45.51 53.84,-65.95l40.11 -52.26c0.16,-0.19 0.53,-0.61 0.7,-0.8l6.03 -6.69c28.28,-37.43 19.81,-29.54 49.34,-22.83 8.77,2 17.76,3.91 26.8,7.18 0.31,0.11 3.54,1.29 3.88,1.36 40.26,8.72 19.97,9.82 60.92,0.39 0.22,-0.05 0.75,-0.14 0.95,-0.18 0.16,-0.03 0.66,-0.07 0.81,-0.09 4.13,-0.63 -2.15,1.34 3.75,-0.66 7.1,-2.41 17.52,-5.76 25.46,-7.74 4.97,-1.24 11.16,-2.64 11.69,-2.86 2.3,-0.97 5.4,-3.62 12.09,-3.46 8.56,0.2 15.67,13.22 21.44,19.74 6.76,7.63 14.2,15.41 19.14,24.23l52.9 66.52c0.25,0.27 0.64,0.67 0.89,0.94l14.08 15.91c5.33,6.78 9.57,11.38 15.47,18.04l28.29 35.3c0.26,0.28 0.61,0.7 0.87,0.98l8.57 10.09c18.28,26.09 42.08,49.87 60.77,75.87 15.95,22.19 36.03,42.56 53.11,64.4l16.58 12.97c7.25,2.55 20.44,-3.32 27.62,-5.67 4.55,-1.49 3.5,-2.25 9.63,-3.82 21.63,-5.53 40.63,-15.73 62.15,-21.81 27.85,-7.88 55.07,-19.28 83.02,-27.48 35.14,-10.31 77.9,-27.28 113.88,-39.12l36.79 -10.85c2.18,-0.67 7.98,-3.25 11.57,-4.67l22.41 -7.79c9.31,-3.18 16.14,-5.12 25.49,-8.27l68.01 -23.1c2.47,-0.83 7.75,-2.81 12.08,-3.66l10.52 -2.54c0.39,-0.15 0.86,-0.4 1.25,-0.57 0.39,-0.16 0.86,-0.41 1.25,-0.59 8.78,-3.9 15.27,-5.85 24.27,-9.16 4.18,-1.54 7.74,-3.17 11.76,-4.73 4.8,-1.87 7.89,-2.14 13.77,-3.7l131.88 -44.81c0.23,-0.09 0.73,-0.29 0.95,-0.38l42.21 -14.7c15.67,-3.89 31.25,-11.95 47.76,-16.15 8.25,-2.1 4.54,-2.39 11.83,-4.59l141.12 -47.87c19.93,-8.37 50.45,-15.61 73.8,-25.39 19.59,-8.2 30.91,-15.41 16.33,-39.13 -9.72,-15.83 -19.36,-24.43 -28.52,-38.91l-10.91 -13.54c-3.17,-4.35 -0.04,-3.19 -9.21,-13.19l-17.74 -23.38c-1.59,-2.19 -1.85,-2.63 -3.81,-5.73l-36.4 -47.55c-4.11,-7.35 -89.45,-122.53 -94.62,-125.79 -6.15,-3.88 -18.06,-6.82 -25.47,-8.7 -17.55,-4.45 -54.67,-18.64 -70.79,-20.97 -2.84,-0.41 -6.36,-0.67 -11.51,-3.22l-161.71 -45.31c-42.07,-12.1 -86.61,-22.5 -128.49,-36.13l-65.25 -18.68c-13.58,-3.78 -26.09,-5.62 -40.19,-10.82 -4.89,-1.8 -7.26,-3.89 -10.87,-5.06l-20.11 -5.16c-0.14,-0.02 -0.62,0.02 -0.77,0.02 -0.16,-0.01 -0.67,0.05 -0.85,0.04 -10.95,-0.35 -28.57,-8.21 -37.61,-10.03 -4.93,-1 -7.75,-1.21 -13.53,-2.79l-84.94 -24.93c-4.5,-1.46 -7.5,-2.55 -11.75,-4.41l-27.08 -6.65c-11.95,-0.99 -43.32,-12.12 -56.48,-16.71l-206.05 -56.34c-15.78,-5.9 -37.52,-10.36 -54.38,-15.09 -3.03,-0.85 -7.31,-3.61 -11.21,-4.67l-24 -6.42c-8.73,-3.54 -0.22,-2.93 -7.63,-3.29 -14.05,-0.67 -44.32,-12.57 -57.31,-16.67l-42.64 -10.42c-8.03,-1.32 -1.78,0.36 -4.65,0.8zm-827.19 324.68c7.07,7.68 13.27,5.25 24.28,9.18 4.31,1.54 4.01,2.93 11.88,4.65l31 6.87c0.36,0.1 1.65,0.71 3.93,1.49l20.83 6.81c12.7,3.46 14.75,1.95 19.91,3.74 8.91,3.07 15.39,5.09 25.57,7.61 3.08,0.77 2.64,0.73 5.1,1.35 2.98,0.75 2.55,0.42 5.31,1.33l37.03 10.8c10.6,2.47 17.63,3.98 26.77,7.1 6.76,2.31 18.05,6.43 25.8,7.59l40.32 10.95c26.92,9.57 99.61,25.85 135.89,37.32l49.17 14.01c10.38,3.51 19.88,2.19 30.3,6.16l72.23 18.95c8.23,2.56 7.29,4.03 25.17,8.65l49.23 13.93c4.91,1.41 7.16,2.33 13.63,3.37l88.08 24.01c4.62,1.46 8.34,1.97 13.62,2.97 3.6,0.68 4.42,1.56 9.77,3.35l31.85 8.47c0.32,0.17 3.19,1.71 5.73,2.41 22.53,6.28 18.36,8.04 39.25,2.49 13.51,-3.59 40.66,-9.2 55.02,-15.01l61.91 -16.74c12.98,-4.48 19.63,-4.67 33.19,-8.17 5.18,-1.34 6.49,-2.95 13.38,-4.87 10.09,-2.81 15.21,-3.09 23.99,-6.01l80.83 -22.06c7.1,-2.24 19.1,-5.59 27.84,-7.9 4.5,-1.19 9.9,-1.33 14.25,-2.73 5.88,-1.88 4.07,-2.42 13.86,-4.62l27.6 -7.68c6.82,-2.61 18.55,-4.34 28.28,-7.64 20.69,-7.03 45.68,-14.75 66.6,-18.84l125.85 -34.75c21.4,-4.27 41.27,-12 62.7,-17.49 17.17,-4.4 37.96,-8.4 53.62,-14.15 15.76,-5.79 40.23,-10.09 56.55,-14.64l6.81 -2.4c2.98,-0.99 4.07,-1.12 7.47,-1.97 8.6,-2.16 47.98,-12.87 52.6,-18.03 -6.92,-5.25 -62.71,-16.88 -76.93,-22.08 -7.86,-2.88 -12.98,-1.21 -19.4,-2.76 -8.52,-2.06 5.03,2.41 -2.32,-0.94 -7.56,-3.44 -15.64,-6.7 -25.85,-9 -7.64,-1.72 -20.44,-4.86 -27.61,-7.63 -14.46,-5.58 -34.49,-12.08 -50.3,-14.96 -12.33,-2.24 -10.15,-3.7 -23.2,-4.9 -10.64,-0.98 1.63,1.39 -4.38,-0.54l-253.82 -73.85c-5.49,-1.49 -10.64,-1.52 -13.57,-2.59l-39.8 -12.94c-5.51,-1.6 -9.24,-0.78 -14.62,-2.81 -7.22,-2.73 -3.13,-2.25 -13.95,-4.33l-99.99 -28.39c-0.48,-0.06 -1.9,-0.15 -2.37,-0.21l-80.23 -22.77c-4.9,-1.7 -7.63,-1.94 -13.12,-3.49 -4.75,-1.34 -7.99,-3.1 -14.14,-4.51 -34.77,-8 -50.29,-18.85 -86.46,-4.08l-27.26 8.04c-0.2,0.08 -0.68,0.28 -0.88,0.37l-34.5 10.48c-2.99,0.53 -6.54,0.86 -12.91,2.63 -15.83,4.41 -29.08,11.07 -44.75,13.58 -10.33,1.66 -13.09,5.28 -23.54,6.48l-81.93 22.33c-0.48,0.16 -1.01,0.3 -1.47,0.46l-2.54 1.02c-0.27,0.11 -0.76,0.41 -1,0.52 -6.2,2.84 3.41,0.06 -3.82,1.52l-25.06 6.13c-4.76,0.79 -10.67,1.58 -15.3,3.16l-38.35 13c-4.86,1.43 -10.27,1.74 -15.07,3.14l-77.73 20.71c-19.9,5.31 -31.19,11.58 -51.26,15.55l-146.46 40.72c-5.02,2.24 -7.36,2.65 -13.77,4.57l-53.13 14.41c-5.31,1.37 -9.83,3.23 -14.04,4.55 -4.92,1.54 -3.36,0.89 -6.88,2.64l-85.8 23.42c-3.61,0.41 -10.29,1.46 -14.49,3.49z"/>
   <path class="fil0" d="M2039.17 1961.85c-0.47,0.32 -1.12,0.29 -1.36,1.03l-17.04 13.33c-0.29,0.35 -2.36,2.9 -2.63,3.22 -3.31,3.88 -4.88,6.6 -8.8,11.53l-3.61 3.62c-0.25,0.31 -2.54,4.31 -3.73,5.96l-7.32 9.5c-3.87,5.44 -5.05,6.09 -9.75,10.96l-64.38 79.56c-16.38,16.96 -29.33,39.27 -45.49,57.39l-25.82 31.85c-14.83,16.43 -55.98,72.91 -66.79,77.21 -12.95,5.16 -59.75,-14.09 -73.49,-19.08l-74.12 -26.58c-26.44,-5.73 -51.47,-17.47 -77,-25.04l-8.79 -3.45c-13.76,-7.91 -4.52,-1.58 -22.28,-7.88 -0.37,-0.13 -4.11,-0.74 -5.32,-1.04 -7.7,-1.89 -20.37,-7.67 -28.23,-10.32 -2.65,-0.89 -5.71,-0.67 -12.22,-2.59l-168.9 -58.91c-8.43,-3.08 -7.15,-3.46 -12.55,-4.61 -14.9,-3.2 -23.67,-8.21 -32.26,-9.95 -0.29,-0.06 -0.85,-0.17 -1.17,-0.24 -18.02,-3.78 -65.91,-24.88 -77.83,-27.05l-92.16 -30.25c-26.44,-10.99 -55.94,-19.35 -82.33,-29.62 -11.49,-4.47 -24.22,-4.07 -32.03,2.2 -10.33,8.29 -6.49,26.77 -6.71,39.13l0.17 393.5c0.15,4.07 0.08,10.27 0.16,17.86l-1.18 133.06c-0.14,8.58 7.09,16.11 14.18,20.77l18.63 8.92c13.38,3.22 23.71,9.66 36.07,13.9 0.47,0.16 2.62,0.93 3.03,1.12 2.29,1.04 0.3,-0.03 2.93,1.61 8.01,4.98 5.3,3.67 14.78,6.88 14.23,4.83 7.47,4.41 24.73,9.24 21.39,5.99 62.26,28.13 84.74,35.96l61.39 23.94c2.64,1.17 0.52,0.23 3.56,1.82 17.28,9.05 41.39,18.55 58.04,23.66l16.69 8.01c11.01,5.44 103.6,40.08 111.04,45.01 10.73,7.11 28.9,12.78 41.67,17.52l36.93 15.49c3.19,1.29 5.54,1.62 8.65,2.79l153.27 64.92c6.9,3.07 11.01,2.07 17.07,5.62l82.12 34.92c0.21,0.1 0.69,0.32 0.9,0.41l2.1 0.85c1,0.39 2.48,0.92 3.91,1.45l57.41 23.27c17.84,6.97 40.3,15.37 57.86,24.48l7.17 3.84c13.87,6.39 28.46,9.5 41.67,16.47l17.71 6.74c20.45,7.08 41.24,18.52 61.57,25.39l10.47 5.22c11.04,5.82 17.27,6.53 24.07,5.24 22.39,-4.23 17.36,-34.14 17.36,-61.57l0.01 -990.81c0.05,-18.43 0.15,-27.81 -14.25,-35.9 -2.9,-1.63 -2.02,-1.41 -4.56,-1.26l-4.59 0.22c-0.3,-0.03 -2.87,-0.81 -3.37,-0.44z"/>
   <path class="fil0" d="M2172.67 1989.89l0 1033.8c0.01,19.52 11.53,33.33 31.62,25.84 3.94,-1.48 7.62,-4.36 9.36,-5.2 10.45,-5.09 10.99,-4.06 21.6,-7.07l110.39 -46.33c4.92,-2.31 6.3,-3.07 9.44,-4.27 15.58,-5.97 72.86,-27.5 85.53,-35.1l154.54 -64.23c18.46,-9.71 50.91,-19.36 71.8,-29.31l165.41 -68.3c4.65,-1.82 6.81,-2.05 10.91,-4.06l70.56 -30.04c0.33,-0.11 0.88,-0.26 1.2,-0.35l94.4 -38.93c3.48,-1.19 7.12,-2.43 10.75,-4.24l45.12 -17.62c14.34,-5.24 24.37,-12.96 39.07,-17.61l77.4 -32.71c5.62,-2.97 13.38,-3.23 18.09,-5.31l33.57 -14.66c33.87,-12.78 30.55,-24.35 30.55,-62.25 0.01,-21.19 0.01,-42.36 0.01,-63.56l0.02 -439.32c-0.07,-35.36 0.09,-62.92 -39.78,-47.74 -28.78,10.97 -60.25,22.29 -90.4,29.9 -5.83,1.47 -6.63,1.99 -11.12,3.66l-67.09 23.98c-5.97,1.73 -6.82,2.23 -11.27,3.9l-44.18 14.23c-14.12,2.34 -22.14,8.83 -35.09,13.04l-21.53 6.65c-25.79,10.76 -51.81,16.14 -78.52,26.44l-95.81 32.87c-3.91,1.33 -7.03,2.26 -11.05,3.9l-53.45 17.73c-14.83,4.31 -10.56,4.09 -22.23,9.29l-148.48 48.52c-12.36,3.76 -20.15,9.17 -33.65,12.55 -1.25,0.31 -10.61,1.79 -11.03,1.93 -10.63,3.33 -26.56,10.1 -37.46,2.34 -0.34,-0.24 -0.75,-0.61 -1.07,-0.87l-135.74 -161.56c-4.56,-4.71 -2.79,-2.84 -6.11,-8.85 -2.91,-5.27 -3.78,-5.3 -7.36,-9.49l-14.81 -16.88c-12.47,-18.7 -36.81,-47.68 -46.23,-59.58 -8.91,-11.27 -31.52,-41.39 -43.4,-42.31 -9.08,-0.7 -20.45,4.6 -22.92,12.85 -0.82,2.77 -1.56,9.13 -1.56,14.33z"/>
  </g>
  <polygon class="fil1" points="-6307.67,8669.85 -6307.67,2412.99 -6307.67,-3843.87 "/>
 </g>
</svg>
