<?xml version="1.0" encoding="UTF-8"?>
<!DOCTYPE svg PUBLIC "-//W3C//DTD SVG 1.1//EN" "http://www.w3.org/Graphics/SVG/1.1/DTD/svg11.dtd">
<!-- Creator: CorelDRAW 2020 (64 Bit) -->
<svg xmlns="http://www.w3.org/2000/svg" xml:space="preserve" width="42.3332mm" height="42.3332mm" version="1.1" style="shape-rendering:geometricPrecision; text-rendering:geometricPrecision; image-rendering:optimizeQuality; fill-rule:evenodd; clip-rule:evenodd"
viewBox="0 0 4233.32 4233.32"
 xmlns:xlink="http://www.w3.org/1999/xlink"
 xmlns:xodm="http://www.corel.com/coreldraw/odm/2003">
 <defs>
  <style type="text/css">
   <![CDATA[
    .fil0 {fill:#4D4D4D}
   ]]>
  </style>
 </defs>
 <g id="Camada_x0020_1">
  <metadata id="CorelCorpID_0Corel-Layer"/>
  <g id="_2550992109328">
   <path class="fil0" d="M1594.62 3079.19c3.24,4.17 370.1,155.37 409.42,172.48 16.65,7.25 91.38,40.61 104.2,41.77 25.4,2.29 37.9,-6.91 57.93,-15.41 222.42,-94.42 448.33,-186.58 670.39,-280.66 43.8,-18.55 453.37,-187.29 463.04,-194.99 17.54,-13.95 17.12,-29.18 17.11,-56.22l0 -1279.25c0,-24.85 7.09,-44.1 -9.39,-60.54 -8.1,-8.07 -9.8,-9.22 -22.65,-14.02 -119.94,-44.82 -246.81,-97.45 -368,-144.05 -69.96,-26.9 -140.65,-56.36 -210.86,-82.38 -35.83,-13.28 -69.97,-28.25 -104.76,-41.03l-419.37 -163.96c-15.68,-5.96 -37.25,-16.5 -52.44,-20.37 -18.28,-4.65 -41.94,7.42 -57.7,13.82 -69.96,28.42 -141.15,55.77 -210.8,82.46 -141.81,54.33 -280.14,109.98 -420.53,164.45 -70.59,27.38 -139.62,54.2 -209.75,81.98 -69.33,27.46 -141.54,53.7 -210.76,82.44 -16.57,6.87 -35.8,14.27 -52.65,20.35 -20.65,7.47 -36.79,12.21 -45.51,27.62 -9.97,17.58 -5.41,114.38 -5.41,141.05 0,97.85 0,195.44 0,293.3 0,193.93 -2.29,387.72 0.11,581.63 1.2,96.75 -0.11,194.84 -0.11,291.65 0,73.31 -5.09,72.24 50.58,96.12l463.72 194.17c10.91,4.37 43.43,19.84 53,21.5l54.09 24.03c9.04,3.99 18.74,6.92 27.44,10.29 10.15,3.93 17.82,8.68 29.66,11.77zm495.47 -1478.5l-43.62 -17.29c-5.97,-3.3 -6.97,-3.68 -13.87,-5.74 -11.23,-3.37 -17.95,-8.85 -28.12,-11.8 -7.46,-2.16 -21.78,-9.02 -28.06,-12.52 -11.54,-2.42 -517.85,-215.32 -561.57,-232.95 -8.57,-3.45 -19.81,-11.26 -29.61,-8.22 -8.05,2.5 -20.92,7.96 -28.7,11.25 -18.69,7.91 -38.16,15.33 -57.1,22.36 -39.18,14.53 -76.25,30.25 -114.44,44.74l-113.97 44.9c7.74,5.97 365.36,153.12 421,177.07 28.13,12.11 56.41,23.81 85.21,35.66 28.46,11.72 57.35,23.22 84.14,35.32 27.39,12.38 56.95,23.6 85.25,35.68 56.44,24.1 112.97,47.4 169.33,70.92 56.14,23.43 113.11,49.03 169.33,70.92 30.85,12.01 18.56,15.98 85.41,-13.69 27.79,-12.34 56.49,-23.66 85.41,-35.52 56.6,-23.22 112.59,-47.8 170.12,-70.44 -53.83,-24.86 -112.7,-46.16 -167.63,-69.94l-126.42 -52.59c-10.35,-4.46 -34.29,-12.69 -42.09,-18.12zm-586.3 -334.29l1027.97 428.19c9.95,4.29 11.26,0.85 21.32,-3.41 26.7,-11.34 54.07,-22.35 80.46,-33.87 50.04,-21.85 114.79,-46.32 161.9,-68.23 -8.5,-5.46 -27.65,-11.68 -38.73,-16.52 -13.51,-5.91 -26.26,-10.7 -39.83,-16.53 -27.19,-11.67 -53.95,-22.87 -80.88,-33.41 -27.3,-10.69 -53.8,-24.59 -80.43,-33.85 -26.89,-9.35 -54.1,-22.7 -80.95,-33.42 -157.63,-62.98 -323.97,-137.03 -482.3,-200.41l-201.43 -83.6c-22.93,-9.5 -17.27,-11.06 -40.84,-1.2 -26.48,11.08 -56.02,21.05 -82.28,31.93l-163.98 64.33zm377.86 -148.03l159.06 66.38c53.54,21.51 108.01,43.95 160.51,66.51 106.06,45.57 213.97,88.17 320.68,133.37 119.62,50.67 241.36,99.21 360.52,149.82 23.57,10.01 16.86,10.35 40.45,1.26 26.55,-10.23 54.17,-22.57 80.67,-33.73l119.55 -49.51c13.16,-5.13 28.97,-13.15 41,-16.6l-399.9 -157.41c-78.95,-30.56 -162.13,-64.88 -240.54,-94.2 -26.79,-10.02 -53.72,-20.27 -79.76,-31.17 -26.64,-11.15 -53.45,-20.48 -79.81,-31.31 -53.19,-21.86 -106.77,-42.12 -160.64,-63l-79.88 -31.31c-9.95,-3.1 -69.44,22.49 -81.88,27.96 -25.87,11.36 -53.44,20.81 -79.86,31.44l-80.17 31.5zm699.25 651.97l0.3 404.84 156.78 52.31c2.07,-1.59 2.68,-1.82 5.15,-4.83l71.15 -92.87c4.92,-6.37 44.93,-56.33 46.12,-61.58l0.38 -66.07c0.24,-115.12 2.59,-233.71 -0.08,-348.47l-279.8 116.67zm506.66 -212l-29.38 11.66c-5.69,2.32 -6.64,4.37 -13.46,6.63l-69.17 28.45 -31.39 13.19c-1.53,33.06 0.16,68.83 -0.12,102.17l0.01 311.53c0,49.05 6.29,58.29 -16.29,87.02 -15.16,19.3 -29.91,39.72 -45.09,59.23 -3.62,4.64 -7.7,8.78 -11.27,13.61l-56.57 74.26c-39.31,50.29 -38.83,62.55 -94.29,43.64 -25.47,-8.68 -51.6,-17.96 -77.92,-26.42l-115.05 -39.02c-13.98,-5.38 -22.23,-12.2 -27.06,-26.32 -4.39,-12.85 -2.67,-82.02 -2.11,-99.84 1.03,-33.09 0.17,-71.17 -0.63,-104.39 -1.63,-68.06 3.46,-141.07 -0.41,-208.31l-335.12 139.98 -0.09 1243.17c8.58,-1.1 200.46,-83.77 227.74,-94.69 23.77,-9.52 52.35,-23.95 76.34,-31.6l19.88 -8.52c4.56,-2.49 13.96,-7.05 19.85,-7.04 3.37,-3.59 1.85,-2.28 6.5,-4.32 2.09,-0.92 4.71,-1.7 7.12,-2.69 5.6,-2.3 10.92,-4.7 16.26,-6.38l216.19 -91.01c14.7,-6.12 29.52,-13.14 44.19,-18.69 29.68,-11.23 58.46,-24.87 87.75,-36.61 88.37,-35.44 174.19,-73.33 261.59,-109.59 27.95,-11.6 59.15,-26.27 87.81,-36.51l0.13 -1243.43 -145.94 60.84zm-2088.11 1182.66c31.79,11.12 98.31,40.97 133.63,55.6l401.81 168.24c22.1,9.52 45.04,18.48 66.79,27.77l200.79 84.11c56.08,22.31 110.88,47.77 167.13,69.85 25.42,9.98 81.8,36.83 101.85,42.26l-0.34 -1243.03 -266.6 -111.98c-176.85,-73.97 -360.25,-149.32 -536.18,-224.48l-268.7 -112.23 -0.18 1243.89z"/>
   <path class="fil0" d="M2261.62 2907.41c-40.61,10.27 -31.78,53.99 -31.78,90.63 0,20.68 -1.64,36.83 8.47,52.26 16.84,25.7 65.8,20.49 73.94,-15.85 2.85,-12.74 1.18,-44.67 1.18,-59.61 0,-19.39 2.54,-37.34 -8.03,-51.24 -7.93,-10.43 -23.81,-21.25 -43.78,-16.19z"/>
   <path class="fil0" d="M2261.76 1954.67c-40.79,10.75 -31.92,53.79 -31.92,90.55 0,18.65 -1.35,38.42 8.49,52.29 8.26,11.66 27.57,19.35 44.54,14.72 37.64,-10.26 30.56,-51.38 30.56,-90.21 0,-17.65 2.44,-38.14 -7.72,-51.43 -8.17,-10.69 -25.52,-20.78 -43.95,-15.92z"/>
   <path class="fil0" d="M1947.98 2907.97c-38.33,9.25 -31.28,51.08 -31.28,91.72 0,18.7 -1.23,39.12 9.28,51.42 9.54,11.18 26.14,19.27 44.97,13.64 38.2,-11.42 29.41,-57.7 29.41,-91.57 0,-18.39 1.13,-38.67 -8.7,-50.62 -8.65,-10.53 -24.41,-19.24 -43.68,-14.59z"/>
   <path class="fil0" d="M1948.05 1955.3c-38.76,10.22 -31.35,51.56 -31.35,91.58 0.01,18.89 -1.03,38.74 9.27,51.45 22.92,28.28 66.48,14.76 73.52,-18 2.52,-11.73 0.87,-45.92 0.87,-59.96 0,-18.58 2.68,-37.28 -8.86,-50.47 -8.96,-10.23 -22.73,-20.07 -43.45,-14.6z"/>
   <path class="fil0" d="M3123.8 1590.35c-39.66,8.21 -32.41,52.93 -32.41,80.38 -0.01,24.37 -1.89,46.08 25.82,58.28 21.41,9.41 47.38,-1.52 55.39,-24.86 3.68,-10.74 2.16,-40.15 2.16,-53.31 0,-17.52 0.66,-34.58 -9.19,-46.44 -8.86,-10.67 -24.52,-17.63 -41.77,-14.05z"/>
   <path class="fil0" d="M3123.84 2584.75c-38.88,8.54 -32.45,49.13 -32.45,80.22 -0.01,18.99 -1.82,33.65 9.66,46.3 24.68,27.18 61.82,15.49 71.56,-12.86 3.66,-10.65 2.15,-40.18 2.15,-53.33 0,-17.49 0.53,-34.73 -9.2,-46.42 -9.15,-11 -24.54,-17.68 -41.72,-13.91z"/>
   <path class="fil0" d="M1089.26 2585.09c-41.04,6.09 -33.91,54.19 -33.91,79.88 -0.01,21.68 -0.9,32.42 9.78,47.28 12.89,17.96 56.99,24.02 71.12,-13.64 4.18,-11.14 2.36,-40.17 2.36,-53.53 0,-19.62 1.83,-33.77 -9.38,-46.55 -9.89,-11.29 -20.63,-16.31 -39.97,-13.44z"/>
   <path class="fil0" d="M1086.96 1591.1c-14.24,2.9 -24.91,14.65 -29.6,27.8 -3.6,10.11 -2.01,42.55 -2.02,55.14 -0.01,19.94 0.88,34.45 11.25,45.82 7.99,8.78 25.89,15.81 42.54,10.67 34.81,-10.73 29.49,-45.52 29.48,-83 -0.01,-20.53 1.38,-31.73 -11.04,-44.95 -10.16,-10.81 -21.92,-15.3 -40.61,-11.48z"/>
  </g>
 </g>
</svg>
