<?xml version="1.0" encoding="UTF-8"?>
<!DOCTYPE svg PUBLIC "-//W3C//DTD SVG 1.1//EN" "http://www.w3.org/Graphics/SVG/1.1/DTD/svg11.dtd">
<!-- Creator: CorelDRAW 2020 (64 Bit) -->
<svg xmlns="http://www.w3.org/2000/svg" xml:space="preserve" width="42.3332mm" height="42.3332mm" version="1.1" style="shape-rendering:geometricPrecision; text-rendering:geometricPrecision; image-rendering:optimizeQuality; fill-rule:evenodd; clip-rule:evenodd"
viewBox="0 0 4233.32 4233.32"
 xmlns:xlink="http://www.w3.org/1999/xlink"
 xmlns:xodm="http://www.corel.com/coreldraw/odm/2003">
 <defs>
  <style type="text/css">
   <![CDATA[
    .fil0 {fill:#101010}
   ]]>
  </style>
 </defs>
 <g id="Camada_x0020_1">
  <metadata id="CorelCorpID_0Corel-Layer"/>
  <path class="fil0" d="M535.78 1305.53l0 46.1c20.51,39.53 21.2,89.3 119.65,104.99 37.14,181.42 69.72,367.39 104.72,548.4 16.87,87.23 85.95,503.13 112.02,546.73 50.6,84.64 137.1,71.87 253.81,71.87l1970.82 0.02c123.84,0 205.04,17.29 262.85,-68.13 28.12,-41.55 96.48,-456.91 113.54,-545.2 35.26,-182.41 65.53,-371.66 105.84,-552.77 89.93,-22.14 86.35,-42.93 118.51,-105.94l0 -46.15c-46.41,-92.1 -38.08,-97.18 -163.36,-108.51 -16.94,-30.39 -15.36,-42.96 -40.52,-65.07 -27.61,-24.26 -39.44,-19.94 -70.15,-35.13l-2613.42 0c-44.29,22.09 -66.65,14.96 -101.05,83.86l-9.9 17.63c-126.82,0 -127.85,37.98 -163.36,107.3zm104.26 -36.75c-60.57,25.07 -51.43,116.08 22.1,123.07 54.04,5.14 257.03,0.46 337.37,0.36 39.3,-0.05 81.19,-9.72 89.5,26.69 9.04,39.65 -18.06,121.09 51.29,174.69 58.64,45.33 253.7,75.71 251.62,-144.07 -0.69,-73.08 16.81,-57.22 166.16,-57.22l1132.97 0c154.21,0 150.6,-14.4 150.13,73.21 -1.03,196.12 201.41,178.63 261.87,122.19 66.08,-61.68 25.07,-145.38 46.49,-180.09 25.52,-41.35 363.86,-0.28 435.83,-17.5 66.51,-15.9 59.86,-113.94 -3.66,-125.68 -36.78,-6.8 -1042.68,-1.65 -1133.07,-1.65 -191.32,-0.01 -1767.65,-10.95 -1808.6,6zm132.31 -70.43l2689.95 -0.14c-27.31,-47.28 -71.37,-35.43 -133.63,-35.43 -57.97,0.01 -115.93,-0.03 -173.9,-0.01l-2244.85 0.01c-26.01,-0.02 -57.82,-1.67 -83.14,0.27 -29.36,2.25 -43.77,13.21 -54.43,35.3zm2738.68 258.65l-300.67 0.1c-11,85.12 -3.51,111.99 -55.46,166.61 -92.5,97.27 -254.83,77.96 -323.96,2.37 -51.74,-56.59 -44.02,-82.44 -56.33,-169.41l-1316.01 0.39c-13.08,89.03 -1.2,103.29 -53.48,166.51 -64.36,77.85 -232.7,96.76 -323.95,2.91 -51.91,-53.38 -47.21,-84.12 -56.99,-169.73l-300.93 0.34c1.98,41.62 83.04,449.2 97.68,519.28 25.01,119.79 77.15,447.49 100.08,527.09 23.23,80.63 168.19,55.46 252.39,55.46 105.39,0 210.79,0.04 316.18,0l1559.8 -0.04c84.51,0 235,24.95 262.43,-50.78l175.52 -920.53c6.4,-35.52 23.73,-98.86 23.7,-130.57z"/>
 </g>
</svg>
