<?xml version="1.0" encoding="UTF-8"?>
<!DOCTYPE svg PUBLIC "-//W3C//DTD SVG 1.1//EN" "http://www.w3.org/Graphics/SVG/1.1/DTD/svg11.dtd">
<!-- Creator: CorelDRAW 2020 (64 Bit) -->
<svg xmlns="http://www.w3.org/2000/svg" xml:space="preserve" width="42.3332mm" height="42.3332mm" version="1.1" style="shape-rendering:geometricPrecision; text-rendering:geometricPrecision; image-rendering:optimizeQuality; fill-rule:evenodd; clip-rule:evenodd"
viewBox="0 0 4233.32 4233.32"
 xmlns:xlink="http://www.w3.org/1999/xlink"
 xmlns:xodm="http://www.corel.com/coreldraw/odm/2003">
 <defs>
  <style type="text/css">
   <![CDATA[
    .fil0 {fill:black}
   ]]>
  </style>
 </defs>
 <g id="Camada_x0020_1">
  <metadata id="CorelCorpID_0Corel-Layer"/>
  <path class="fil0" d="M1130.1 3130.91l1973.09 -0.17c29.09,184.68 -68.61,490.03 147.11,469.25 103.2,-9.94 116.02,-91 115.83,-196.84 -0.22,-128.51 6.91,-858.32 -3.48,-920.79 -9.32,-56.05 -64.03,-168.28 -87.25,-223.68l-271.33 -652.8c-48.75,-114.7 -40.11,-132.62 -40.11,-268.01 0,-103.49 0,-207 0,-310.5 0,-91.63 14.4,-203.46 -27.41,-278.3 -35.45,-63.47 -93.96,-111.92 -198.85,-114.72 -204,-5.44 -416.24,-0.01 -621.17,-0.01 -203.89,0 -410.3,-3.19 -613.87,-0.09 -266.17,4.06 -233.24,253 -233.24,393.12 0,101.09 0,202.19 0,303.29 0,131.43 8.49,161.93 -37.68,270.67 -29.08,68.49 -348.75,819.56 -359.77,874.56 -12.26,61.23 -4.58,791.86 -4.72,920.05 -0.11,106.01 8.24,187.98 108.64,203.03 221.91,33.27 127.39,-284.78 154.21,-468.06zm-183.48 -286.19l2338.6 1.24 1.55 -322.17 -2338.64 -0.65 -1.51 321.58zm-0.19 204.54l2340.45 1.86 -0.23 -125.11 -2339.36 -0.87 -0.86 124.12zm2337.55 82.02l-96.06 -0.38c-8.55,54.76 -2.73,155.28 -2.73,214.49 0,57.77 -22.47,174.77 50.69,175.25 72.15,0.46 51,-111.17 51,-168.03 0,-60.12 6.13,-166.86 -2.9,-221.33zm-2238.61 0.43l-96.09 -0.76c-8.64,53.91 -2.75,156.04 -2.75,214.44 -0.01,57.88 -22.3,175.16 50.73,175.32 72.1,0.15 50.99,-111.1 50.99,-168.1 -0.01,-59.42 6.15,-167.37 -2.88,-220.9zm303.43 -1653.13l385.52 -0.21c-0.01,-245.84 48.97,-199.64 382.21,-199.64 332.95,0 382.5,-46.2 382.5,199l385.66 0.83c0,-126.67 0,-252.83 0,-378.99 0,-108.57 25.81,-275.45 -41.96,-343.48 -67.38,-67.63 -233.67,-42.43 -343.47,-42.43 -252.75,0 -505.49,0 -758.23,0 -107.22,0 -278.12,-26.7 -346.84,39.02 -68.84,65.85 -45.39,227.63 -45.39,339.68 0,128.74 0,257.47 0,386.22zm464.78 -75.71c0,176.25 -16.76,190.23 50.21,190.23l501.87 0c47.76,0 54.11,-2.25 54.11,-45.8l-4.24 -183.17c-104.02,-16.17 -425.53,-6.02 -551.74,-5.85 -43.97,0 -50.21,-0.01 -50.21,44.59zm-846.38 1039.48l2296.84 1.64 -165.48 -404.63 -0.64 0 -55.12 -132.82c-41.33,-108.27 -138.66,-343.32 -153.59,-348.22l-375.96 0c-13.86,3.58 -12.38,13.74 -20.78,40.54 -17.76,56.74 -59.02,73.17 -123.04,73.57l-505.8 0.01c-108.54,-0.7 -110.49,-48.19 -127.54,-90.72 -8.15,-20.28 1.62,-13.08 -16.72,-23.4l-375.51 0.01c-12.42,4.11 -82.08,168.5 -129.46,286.37l-0.46 1.15 -115.09 280.58 0.01 0 -131.66 315.92z"/>
 </g>
</svg>
