<?xml version="1.0" encoding="UTF-8"?>
<!DOCTYPE svg PUBLIC "-//W3C//DTD SVG 1.1//EN" "http://www.w3.org/Graphics/SVG/1.1/DTD/svg11.dtd">
<!-- Creator: CorelDRAW 2020 (64 Bit) -->
<svg xmlns="http://www.w3.org/2000/svg" xml:space="preserve" width="42.3332mm" height="42.3332mm" version="1.1" style="shape-rendering:geometricPrecision; text-rendering:geometricPrecision; image-rendering:optimizeQuality; fill-rule:evenodd; clip-rule:evenodd"
viewBox="0 0 4233.32 4233.32"
 xmlns:xlink="http://www.w3.org/1999/xlink"
 xmlns:xodm="http://www.corel.com/coreldraw/odm/2003">
 <defs>
  <style type="text/css">
   <![CDATA[
    .fil0 {fill:#010101}
   ]]>
  </style>
 </defs>
 <g id="Camada_x0020_1">
  <metadata id="CorelCorpID_0Corel-Layer"/>
  <path class="fil0" d="M1025.2 3013.87c4.55,97.53 -29.63,187.56 59.82,191.67l153.32 0.02c99.1,-1.46 64.39,-70.12 69.18,-191.82l1623.57 -1.18c-0.24,199.57 -30.6,192.61 135.46,192.5 185.65,-0.12 135.98,-1.23 144.83,-191.19 213.78,-12.45 180.96,66.61 180.98,-355.87 0.01,-184.53 -5.02,-149.88 -76.1,-283.54 -42.47,-79.87 -84.08,-149.24 -126.47,-229.17 -71.5,-134.83 -75.83,-97.13 -75.82,-283.15l0.21 -533.87c-1.82,-116.74 -42.21,-38.46 -8.59,-138.44 65.95,-196.09 -262.82,-220.54 -235.2,-22.42 5.31,38.11 45.61,58.57 -7.04,118.39 -117.36,-24.12 -220.87,-55.19 -347.71,-74.26 -236.98,-35.63 -557.62,-35.5 -794.7,0.04 -126.75,19 -229.96,50.08 -347.71,74.3 -54.48,-61.54 -9.64,-79.84 -6.19,-126.63 4.22,-57.19 -31.09,-103.77 -67.9,-120.57 -55.25,-25.21 -116.86,-2.99 -144.99,28.66 -58.29,65.6 -19.13,99.23 -11.24,153.99 4.25,29.41 -12.17,34.58 -18.16,68.32l-1.74 665.89c0.01,91.92 -199.97,411.71 -254,511.57 -46.16,85.34 -25,240.11 -25,351.76 0,228.82 -29.6,182.73 181.19,195zm-61.56 -534.86l3.19 2.16c748.78,0 1523.65,6.21 2269.06,0.14l34.39 -0.71 -382.51 -703.27c-191.68,-15.84 -134.58,23.5 -233.1,54.45 -77.37,24.3 -250.55,24.67 -329.25,1.47 -143.95,-42.43 39.07,-58.36 -291.8,-58.36 -67.07,0 -41.66,75.52 -287.86,75.02 -314.68,-0.65 -109.83,-82.91 -399.04,-73.94l-383.08 703.04zm-31.53 445.58l2368.12 0.36 4.26 -355.83 -2405.39 -0.4 32.99 0.4 0.02 355.47zm436.66 -1541.53l-0.1 303.05 90.83 0.83c23.25,-94.08 36.29,-127.1 93.98,-169.53 162.82,-119.75 431.38,-54.12 474.32,121.16 10.21,41.69 -3.6,32.52 22.76,48.72l135.46 0c31.01,-8.85 8.47,-37.93 37.94,-91.89 80.95,-148.27 315.25,-183.69 459.11,-77.95 57.81,42.49 70.09,75.86 94.02,168.43l88.03 1.18 3.35 -304c-313.37,-144.33 -1171.1,-142.84 -1499.7,0zm1083.37 164.12c-82.37,12.3 -169.62,58.39 -162.38,144.49 7.01,83.47 171.44,72.94 243.74,69.76 298.33,-13.1 116.7,-243.82 -81.36,-214.25zm-737.2 -0.36c-77.41,10.79 -172.09,60.39 -164.09,145.43 7.45,79.25 170.72,72.69 246.02,69.07 93.34,-4.48 194.88,-26.05 133.64,-134.56 -30.44,-53.93 -123.86,-92.72 -215.57,-79.94zm1240.98 -218.08l0 364.07c0,40.93 44.3,117.7 67.57,143.07 6.85,-81.32 13.52,-511.56 -8.47,-556.15l-48.02 -2.39c-6.46,16.65 -11.08,29.91 -11.08,51.4zm-1745.71 0l2.16 507.32c23.86,-25.16 68.29,-102.31 68.29,-143.25 0,-69.14 10.83,-367.59 -11.19,-411.95l-47.87 -4.58c-6.64,16.65 -11.39,30.89 -11.39,52.46zm-96.47 1784.84l105.15 3.4 -0.23 -101.89 -104.13 -1.68 -0.79 100.17zm1903.7 0.99l105.18 1.89 -0.17 -100.44 -104.04 -3.06 -0.97 101.61z"/>
 </g>
</svg>
