<?xml version="1.0" encoding="UTF-8"?>
<!DOCTYPE svg PUBLIC "-//W3C//DTD SVG 1.1//EN" "http://www.w3.org/Graphics/SVG/1.1/DTD/svg11.dtd">
<!-- Creator: CorelDRAW 2020 (64 Bit) -->
<svg xmlns="http://www.w3.org/2000/svg" xml:space="preserve" width="42.3332mm" height="42.3332mm" version="1.1" style="shape-rendering:geometricPrecision; text-rendering:geometricPrecision; image-rendering:optimizeQuality; fill-rule:evenodd; clip-rule:evenodd"
viewBox="0 0 4233.32 4233.32"
 xmlns:xlink="http://www.w3.org/1999/xlink"
 xmlns:xodm="http://www.corel.com/coreldraw/odm/2003">
 <defs>
  <style type="text/css">
   <![CDATA[
    .fil0 {fill:black}
    .fil1 {fill:#636363}
   ]]>
  </style>
 </defs>
 <g id="Camada_x0020_1">
  <metadata id="CorelCorpID_0Corel-Layer"/>
  <g id="_2551003079808">
   <path class="fil0" d="M3214.66 1048.84c3.2,4.53 2.39,10.61 2.33,16.36 -0.06,5.23 -0.03,10.47 -0.03,15.7l0 1897.25c0,14.72 4.07,52.24 -3.89,61.81l-11.31 12.22c-9.29,6.72 -18.14,7.44 -31.76,7.46 -685.73,1.13 -1371.57,0 -2057.32,0 -37.93,0 -66.2,7.23 -85.1,-12.11l-3 -3.2c-0.19,-0.24 -0.48,-0.6 -0.66,-0.85 -1.69,-2.36 -1.22,-1.96 -2.79,-5.03 -10.14,-19.88 -4.03,-112.29 -4.03,-140.34l0 -772.08c0,-299.12 -1.48,-601.82 0.02,-900.76 0.04,-6.77 0.39,-10.94 -1.44,-16.15 -1.15,-3.3 -2.38,-8.29 -3.7,-11.65 -1.45,-3.73 -12.14,-14.39 -15.88,-15.86 -13.6,-5.31 -16.09,-6.03 -23.85,-2.94 -18.69,7.44 -4.07,-3.07 -19.9,11.72 -6.15,5.76 0.28,-3.51 -4.66,4.85l-5.83 17.53 -0.36 1801.51c0.09,13.43 3.14,15.03 4.1,26.64 2.61,31.64 23.26,52.57 43.49,70.19 3.24,2.82 4.81,3.7 9.08,6.19 7.23,4.21 13.59,6.89 21.27,10.22 6.2,2.69 5.51,2.34 12.94,3.38 8.23,1.16 8.47,1.72 11.31,5.73 6.45,-0.57 17.55,0.01 25.05,0.01l20.47 -0.05c6.77,0.53 6.81,0.9 7.51,5.03l0.3 16.99c-0.04,19.6 -2.02,97.46 1.89,108 3.81,10.26 9.32,18.68 20.18,23.4 14.18,6.15 65.64,3.56 84.61,3.56l221.27 0c33.27,0 46.93,2.41 61.51,-26.43 7.38,-14.61 -1.23,-97.37 3.32,-129.98l1254.36 -0.52c4.09,31.42 -3.29,117.05 2.16,130.38 4.16,10.2 10.28,18.29 20.65,22.93 12.07,5.4 24.66,3.62 40.52,3.62l287.2 0.01c10.88,-0.01 10.81,0.81 18.43,-3.45 14.08,-7.88 14.79,-8.52 21.2,-22.89 6.88,-15.42 -0.51,-113 3.72,-128.03l1.57 -1.56c0.2,0.36 0.87,-0.34 1.17,-0.4 0.3,-0.06 0.86,-0.25 1.25,-0.32 7.3,-1.22 36.82,0.86 50.46,-1.26 25.6,-3.98 39.47,-13.93 57.81,-26.77 15.31,-10.73 27.91,-31.94 36.43,-48.46 10.22,-19.81 7.24,-77.75 7.24,-105.83l0 -1812.51c0,-30.59 3.29,-85.32 -2.92,-110.21 -4.74,-18.98 -15.12,-43.14 -29.51,-55.12 -10.54,-8.76 -7.58,-8.06 -14.3,-13.95 -10.36,-9.08 -46.31,-21.68 -61.7,-22.91 -8.75,-0.69 -19.19,-0.25 -28.1,-0.25l-2040.05 0c-39.58,0 -67.65,-3.44 -104.83,8.62 -21.25,6.89 -48.87,33.96 -57.63,49.94l-4.01 6.93c-11.14,25.53 -18.55,62.85 2.76,82.56 10.63,9.84 30.38,10.79 44.03,4.91 33.64,-14.49 5.77,-49.68 43.44,-70.72 12.68,-7.08 36.04,-3.88 52.7,-3.88l2038.48 0c29.3,0 73.97,-8.24 82.33,30.82zm-2038.02 2164.98l233.04 0.18 0.09 -76.16 -233.05 -0.09 -0.08 76.07zm1647.63 0.08l233.03 0.09 0.1 -76.06 -233.04 -0.18 -0.09 76.15z"/>
   <path class="fil0" d="M2979.57 2900.71l-1803.57 0.54 -0.52 -1725.65 1804.59 0 0 155.84c-37.07,4.92 -120.9,-6.88 -140.72,7.35 -19.47,13.98 -16.19,35.43 -16.19,57.53 0,35.27 -1.86,210.29 1.25,220.01 5.4,16.87 9.42,17.67 18.65,23.76 8.45,5.57 12.06,5.71 22.46,5.76l221.31 -0.01c27.37,0.05 38.55,-5.67 47.62,-26.16 5.53,-12.5 2.59,-53.96 2.59,-71.14l-0.37 -183.29c-0.92,-6.2 -8,-24.09 -16.45,-28.51 -16.68,-8.72 -36.02,-5.15 -61.04,-5.38 -0.59,-66.2 0.26,-132.53 -0.05,-198.75 -0.03,-7.54 0.59,-8.74 -2.94,-15.08l-19.98 -18.66c-10.1,-4.7 -23.76,-3.02 -37.27,-3.02l-1837.61 0c-8.4,0 -16.79,-0.01 -25.19,0.05 -13.32,0.09 -9.75,0.85 -18.48,5.62 -26.49,14.48 -20.65,41.79 -20.65,78.24l0 1738.75c0,19.83 -2.74,30.05 6.94,43.3 17.92,24.51 40.25,17.91 80.92,17.91l1788.97 0c15.96,0 32.92,0.55 48.76,-0.05 6.83,-0.25 5.6,-0.05 10.23,-2.24 4.72,-2.23 16.87,-6.39 20.67,-16.69 7.28,-19.77 5.05,-21.62 5.05,-45.37 0,-16.75 0.1,-33.52 0.03,-50.27 -0.05,-10.75 -0.68,-11.25 -3.61,-19.9 -2.38,-7.04 -0.96,-6.44 -10.84,-14.28 -8.48,-6.74 -26.26,-12.38 -39.99,-5.95 -11.05,5.18 -20.13,13.6 -23.17,26.89 -3.06,13.44 0.58,34.07 -1.4,48.85zm-76.84 -1334.54l154.57 0.09 0.1 -154.53 -154.57 -0.18 -0.1 154.62z"/>
   <path class="fil0" d="M2038.56 2039.72c0.07,33.66 4.42,55.98 9.91,87.59 4.29,24.72 20.39,66.66 32.54,88.12 14.22,25.12 19.22,35.24 37.41,59.91l34.87 40.39 55.94 47.3c0.32,0.16 0.74,0.35 1.06,0.52 0.33,0.16 0.74,0.36 1.06,0.54l28.47 17.12c10.21,5.69 18.19,10.53 29.45,14.57l26.78 9.77c9.79,3.56 11.82,6.5 25.93,9.69 8.52,1.94 11.75,4.26 19.58,5.34l30.73 5.43c0.46,0.05 5.21,0.78 5.41,0.83 22.92,5.25 32.51,3.57 56.31,3.55 30.81,-0.03 40.23,-2.33 67.47,-5.2 9.14,-0.96 2.18,-0.74 9.67,-2.71l64.61 -19.87c15.3,-5.83 18.6,-5.69 33.04,-14.07 0.31,-0.18 0.7,-0.42 1.01,-0.6l37.88 -23.19c5.09,-2.76 7.45,-2.55 11.33,-5.9l16.97 -14.39c14.75,-14.02 31.9,-25.43 44.9,-41.32l32.05 -41.89c3.44,-6.08 5.02,-8.46 8.97,-14.53l17.53 -31.42c2.96,-6.73 6.29,-8.49 9.02,-15.64 4.41,-11.54 10.53,-24.17 13.77,-35.02 4.58,-15.35 13.63,-42.53 15.54,-56.14 4.04,-28.87 5.43,-38.52 5.37,-70.35l0 -1.57c-0.02,-7.85 -0.12,-15.7 -0.26,-23.54 -0.22,-11.82 -0.95,-13.8 -2.67,-22.27 -1.47,-7.26 -1.2,-15.45 -2.13,-21.75l-9.68 -38.79c-1.11,-4.73 -2.16,-4.27 -3.78,-8.2 -1.66,-4.02 -1.13,-5.95 -2.4,-10.34l-6.34 -17.33c-2.03,-4.03 -1.75,-5.56 -3.2,-9.56l-11.79 -24.06c-3.39,-5.52 -5.94,-10.55 -9.07,-16.07l-21.05 -35.47c-0.3,-0.35 -1.19,-1.37 -1.49,-1.72l-16.9 -20.63c-22.48,-24.93 -24.13,-27.02 -49.44,-49.42l-73.27 -49.1c-11.16,-5.98 -19.81,-10.36 -32.57,-13.31 -5.7,-1.31 -2.21,-0.55 -4.59,-1.63 -0.32,-0.14 -0.69,-0.39 -1,-0.54l-3.24 -1.52c-3.05,-1.16 -6.02,-1.82 -9.41,-3.13l-37.29 -11.38c-22.42,-5.99 -34.99,-5.47 -41.44,-7.16 -3.11,-0.82 -4.83,-2.5 -8.7,-3.08 -3.27,-0.49 -8.81,-0.36 -12.3,-0.43 -17.81,-0.34 -37.86,-1.12 -55.42,0.55l-21.76 3.22c-7.75,1.15 -14.82,0.27 -21.93,2.01 -7.77,1.89 -12.24,2.59 -21.24,4.12l-27.1 8.6c-3.16,1.26 -5.78,1.74 -9.34,3.18l-82.29 38.82c-5.09,3.34 -9.06,7.14 -14.21,10.72l-27.67 21c-13.22,11.81 -26.18,21.63 -37.56,36.14l-8.97 9.88c-0.22,0.25 -0.52,0.61 -0.74,0.85l-2.22 2.51c-1.86,2.15 -3.14,3.95 -4.9,6.05l-46.9 75.45c-11.77,25.99 -8.84,15.26 -18.08,43.02 -4.8,14.42 -8.89,23.3 -10.62,37.88 -0.84,7.08 -2.76,11.46 -3.78,20.34 -0.82,7.21 -1.59,14.52 -3.05,21.76 -2.98,14.72 -2.82,29.66 -2.79,47.47zm351.86 -309.33c-0.36,-0.23 -0.96,-0.9 -1.19,-0.52l-2.52 -0.82c-6.11,-1.03 -15.06,-0.05 -20.1,1.71 -13.22,4.62 -10.64,1.56 -30.47,8.62l-30.08 10.76c-17.12,5.77 -56.6,28.54 -66.26,40.07 2.29,6.16 16.57,16.84 22.19,22.91 9.55,10.3 25.22,23.4 32.32,31.95 0.21,0.24 0.5,0.61 0.7,0.86 8.49,10.82 11.35,26.37 7.19,38.72 -0.41,1.23 -2.6,6.13 -3.42,7.49 -10.88,17.99 -35.23,25.3 -56.21,12.51 -8.91,-5.43 -15.95,-15.29 -23.02,-22.4l-35.06 -35.08c-3.13,0.9 -1.4,0.41 -3.79,2.14 -0.08,0.06 -3.06,2.68 -3.29,2.91 -15.93,16.37 -23.38,41.2 -33.28,61.04 -7,14.05 -25.29,64.05 -21.06,85.6 45.65,0.6 112.75,-13.91 111.1,40.94 -0.68,22.36 -16.71,36.97 -38.62,37.58 -21.83,0.62 -54.67,-2.32 -74.78,0.69 -1.29,14.33 6.95,49.82 14.11,64.65 5.69,11.77 9.45,25.56 15.74,37.69l9.78 16.73c7.83,10.48 13.4,22.93 22.53,32.07 5.12,-1.86 18.22,-17.2 22.97,-22.15 1.25,-1.31 4.52,-4.91 5.33,-5.65l18.42 -17.67c7.92,-7.44 15.47,-16.74 27.05,-18.14 38.98,-4.68 59.89,33.4 40.53,62.35 -5.32,7.96 -53.78,48.7 -57.43,58.15 12.38,14.49 49.69,33.37 66.23,40.06 16.57,6.69 32.28,14.31 49.42,16.34 12.51,1.48 19.9,7.05 35.47,5.72 7.26,-47.39 -11.38,-71.26 12.02,-102.43 5.82,-7.75 17.42,-11.67 27.93,-11.65 20.71,0.04 38.54,17.73 39.21,37.75 0.73,22.1 -2.47,56.12 0.71,76.35 17,1.36 69.69,-14 84.3,-21.31 15.55,-7.78 60.79,-28.84 66.88,-40.83l-22.17 -22.98c-9.71,-9.74 -39.17,-34.83 -41.38,-49.29 -5.69,-37.01 30.09,-61.03 60.49,-41.97l9.9 7.28c16.46,16.3 31.81,34.31 48.44,49.99 9.67,-2.72 31.6,-43.36 36.95,-56.78l7.48 -19.36c1.13,-2.51 0.41,-0.01 2.12,-4.04 0.86,-2.02 1.26,-3.93 1.94,-6.01l6.62 -19.93c4.88,-12.06 9.68,-31.21 8.56,-44.9 -18.88,-3.04 -53.87,-0.32 -74.75,-0.71 -20.84,-0.4 -37.87,-16.38 -38.54,-37.62 -0.67,-21.01 16.45,-39.84 35.43,-40.83 16.08,-0.83 65.32,3.35 75.59,-1.23l1.32 -3.77c1.87,-11.63 -11.71,-57.24 -17.72,-69.73l-16.62 -36.81c-5.4,-10.1 -18.12,-37.24 -28.38,-40.24 -9.96,9.4 -19.48,19.27 -28.88,30.41l-2.06 2.51c-0.21,0.21 -0.53,0.54 -0.74,0.74l-28.42 24.97c-25,14.5 -53.97,-2.58 -58.49,-20.07 -2.09,-8.06 -1.2,-18.73 -0.91,-28.04 5.09,-3.16 23.81,-27.48 30.73,-33.74l12.04 -11.66c6.32,-7.15 18.17,-13.6 21.43,-22.08 -12.34,-14.81 -50.24,-32.9 -70.34,-42.16 -6.79,-3.13 -3.32,-2.06 -12.3,-4.75 -10.22,-3.07 -0.63,-2.64 -11.22,-4.3 -12.36,-1.95 -23.74,-7.36 -40.99,-9.61 -22.36,-2.92 -17.02,-7.7 -17.02,41.99 0,21.67 3.01,42.5 -8.01,56.35 -10.09,12.68 -30.98,20.42 -48.4,11.04 -18.54,-9.99 -22.07,-22.43 -22.06,-43.85 0,-12.82 2.35,-56.6 -1.19,-64.53z"/>
   <path class="fil0" d="M1607 2587.94c29.51,-0.06 58.97,-13.79 76.69,-29.02 6.3,-5.4 7.13,-6.34 12.5,-12.56l15.67 -21.9 7.71 -20.55c8.38,-35.87 5.1,-73.13 5.1,-114.24 0,-16.18 -2.22,-95.67 1.23,-103.69 2.48,-3.76 3.17,-2.82 7.34,-5.44 3.73,-2.34 3.17,-1.94 8.01,-4.31 23.87,-11.68 52.63,-36.36 69.85,-55.98l36.21 -51.91c3.34,-7.34 0.78,-0.74 4.8,-7.26 1.29,-2.09 3.29,-6.97 4.21,-8.67 1.92,-3.6 3.57,-5.11 4.66,-7.44l10.01 -27.61c1.15,-3.7 0.71,-7.32 1.64,-11.29l4.56 -20.49c3.66,-24.41 4.43,-18.91 4.4,-47.43 -0.01,-10.46 0.26,-22.52 -1.5,-31.48 -1.57,-8.02 -2.46,-23.35 -4.4,-30.49l-8.34 -26.02c-2.66,-9.4 -16.86,-39.06 -22.12,-46.68l-57.09 -70.03c-13.66,-12.54 -28.87,-24.27 -45.24,-33.35 -15.44,-8.58 -29.17,-17.46 -46.6,-22.01 -8.57,-2.24 -5.61,-3.4 -12.52,-4.55 -6.56,-1.09 -9.09,-0.08 -15.64,-2.32 -27.56,-9.42 -70.81,-10.88 -100.69,-4.69 -15.33,3.17 -20.66,1.33 -35.04,7.21 -20.63,8.44 -40.31,13.07 -61.08,25.33l-34.71 23.3c-12.62,9.56 -26.89,20.79 -36.24,34.09 -6.6,9.4 -14.04,16.29 -20.53,26.6 -16.78,26.67 -32.74,54.87 -37.8,86.65 -1.5,9.43 -3.62,9.47 -4.76,16.71 -1.18,7.48 -1.79,12.32 -3.14,18.94 -5.54,27.14 0.19,90.67 10.52,114.78 4.34,10.13 7.97,20.85 12.19,31.89 3.8,9.96 8.29,18.71 14.99,27.14l19.97 27.09c15.37,18.71 31.14,36.79 51.32,50.77 2.57,1.78 4.04,2.64 6.29,4.62 10.31,9.1 22.63,13.36 34.45,20.52 8.88,5.38 5.38,19.86 5.38,36.88 0,32.66 -2.08,150.42 0.62,170.94 0.59,4.54 1.08,4.24 2.45,8.37 1.35,4.06 1.27,5.44 2.08,9.08l6.86 14.76c13.28,24.4 40.85,51.96 68.55,59.69 5.32,1.49 3.65,0.2 8.64,2.62 7.88,3.82 18.88,3.45 28.54,3.43zm-12.5 -587.45l-15.75 11.02c-0.42,0.45 -3.98,4.77 -4.24,5.17 -6.43,9.95 -6.83,17.77 -6.8,29.31l0.01 367.22c0,36.66 -8.36,74.31 19.75,90.11 17.52,9.85 44.77,4.36 53.21,-12.33 9.07,-17.93 5.53,-78.87 5.53,-104.46l0 -293.45c0,-22.56 3.34,-51.94 -3.26,-70.62 -4.91,-13.89 -18.36,-22.82 -31.14,-23.51 -5.05,-0.27 -13.67,-0.91 -17.31,1.54zm-183.62 37.66c0.04,16.68 4.93,56.02 12.03,69.62l16.89 31.53c2.17,4.3 2.22,5.66 5.04,9.33l34.74 38.95c8.82,7.92 7.29,4.65 8.1,4.36 3.42,-7.78 1.58,-120.01 1.58,-144.37 0,-33.36 5.61,-49.85 21.32,-75.88 1.61,-2.67 8.06,-10.27 10.47,-13.14 3.95,-4.71 8.61,-7.53 13.38,-11.78 20.31,-18.13 43.22,-26.31 72.57,-26.31 13.23,0 32.88,2.21 42.4,6.55l28.71 16.41c0.23,0.23 0.52,0.59 0.76,0.82 8.17,7.9 9.85,6.14 16.89,15.97l1.32 1.87c7.02,9.62 20.49,28.73 22.44,40.13 3.8,22.15 5.14,15.42 5.16,43.79 0.01,22.55 -2.6,141.5 1.76,145.66 1.63,1.56 -1.93,4.32 9.54,-5.71 17.24,-15.09 41.94,-46.66 49.39,-66.62 1.83,-4.9 3.97,-10.6 5.67,-15.02 14.82,-38.71 13.51,-63.57 8.67,-102.3 -0.81,-6.52 -0.98,-10.08 -2.77,-15.96 -4.05,-13.31 -2.32,-15.37 -10.67,-28.32 -14.12,-21.93 -7.93,-22.41 -34.97,-52.92 -2.21,-2.49 -2.44,-3.33 -5.02,-5.95 -10.74,-10.91 -20.5,-16.52 -32.79,-25.23l-2.77 -1.93c-29.44,-18.83 -68.75,-29.7 -103.72,-29.7 -46.21,0 -74.36,10.8 -111.55,34.43 -5.85,3.71 -9.49,6.35 -14.4,10.68 -9.33,8.23 -16.11,14.07 -24.4,24.22 -3.54,4.33 -8.3,9.58 -11.08,13.83 -7.09,10.79 -21.19,37.5 -24.34,47.78 -7.55,24.69 -10.4,38.49 -10.35,65.21z"/>
   <path class="fil0" d="M2979.57 2429.93c-31.76,4.33 -107.74,-1.63 -124.96,0.8 -3.95,0.56 -13.81,5.81 -16.74,8.14 -10.62,8.44 -14.71,17.01 -14.71,35.54l0 225.97c0,13.81 3.58,25.5 11.75,32.32 9.9,8.26 16.7,11.62 32.22,11.62l225.97 0c26.67,0 43.94,-14.79 43.94,-43.94l0 -225.97c0,-56.46 -54.26,-41.31 -77.95,-44.46 -2.55,-18.47 -0.54,-514.22 -0.54,-558.14 0,-30.86 -0.01,-61.72 0,-92.59 0.01,-6.44 0.76,-17.07 -0.61,-22.96 -10.13,-43.42 -67.32,-42.87 -77.08,-1.36 -2.37,10.05 -0.77,518.3 -0.77,581.41 0,25.68 2.63,70.19 -0.52,93.62zm-76.84 234.73l154.57 0.08 0.1 -154.52 -154.57 -0.18 -0.1 154.62z"/>
   <path class="fil0" d="M2313.19 2038.15c0,29.56 8.81,44.06 21.45,66.19 4.48,7.84 6.83,10.69 13.27,16.74 13.95,13.11 24.97,21.58 43.34,28.6 3.65,1.39 8.89,1.77 12.94,2.92 24.38,6.95 62.99,2.94 84.16,-11.49l13.3 -8.73c20.02,-15.41 26.15,-28.67 36.36,-44.99 8.44,-13.48 14.61,-53.39 7.18,-73.92 -3.06,-8.45 1.27,-5.83 -4.39,-17.85 -10.92,-23.17 -6.75,-17.16 -26.28,-41.25 -18.36,-22.65 -79.49,-42.18 -109.82,-31.62 -4.17,1.46 -6.29,1.61 -11.06,3.08 -3.91,1.21 -5.52,2.96 -10.18,5.11 -20.42,9.44 -20.21,10.96 -35.47,24.38 -9.5,8.35 -5.83,3.89 -13.73,14.41 -0.79,1.06 -1.57,2.07 -2.69,3.59l-8.29 14.98c-0.94,2 -0.82,1.93 -2,4.33 -0.15,0.32 -0.39,0.7 -0.54,1.02l-1.89 4.27c-1.21,3.95 -1.46,9.01 -2.42,13.47 -3.24,15.07 -3.24,4.12 -3.24,26.76zm106.63 -36.24c-6.07,3.11 -16.44,5.57 -21.76,15.71 -4.48,8.56 -8.54,17.7 -4.86,30.65 4.21,14.82 24.28,34.21 47.93,26.78 29.77,-9.35 35.59,-43.13 16.36,-65.12 -0.2,-0.24 -0.5,-0.6 -0.72,-0.83l-1.54 -1.47c-6.63,-5.43 -24.74,-11.17 -35.41,-5.72z"/>
   <path class="fil1" d="M1043.69 3136.63c-2.84,-4.01 -3.08,-4.57 -11.31,-5.73 -7.43,-1.04 -6.74,-0.69 -12.94,-3.38 -7.68,-3.33 -14.04,-6.01 -21.27,-10.22 -4.27,-2.49 -5.84,-3.37 -9.08,-6.19 -20.23,-17.62 -40.88,-38.55 -43.49,-70.19 -0.96,-11.61 -4.01,-13.21 -4.1,-26.64l0.36 -1801.51 5.83 -17.53c4.94,-8.36 -1.49,0.91 4.66,-4.85 15.83,-14.79 1.21,-4.28 19.9,-11.72 7.76,-3.09 10.25,-2.37 23.85,2.94 3.74,1.47 14.43,12.13 15.88,15.86 1.32,3.36 2.55,8.35 3.7,11.65 1.83,5.21 1.48,9.38 1.44,16.15 -1.5,298.94 -0.02,601.64 -0.02,900.76l0 772.08c0,28.05 -6.11,120.46 4.03,140.34 1.57,3.07 1.1,2.67 2.79,5.03 0.18,0.25 0.47,0.61 0.66,0.85l3 3.2c18.9,19.34 47.17,12.11 85.1,12.11 685.75,0 1371.59,1.13 2057.32,0 13.62,-0.02 22.47,-0.74 31.76,-7.46l11.31 -12.22c7.96,-9.57 3.89,-47.09 3.89,-61.81l0 -1897.25c0,-5.23 -0.03,-10.47 0.03,-15.7 0.06,-5.75 0.87,-11.83 -2.33,-16.36 -2.19,30.58 -0.15,151.48 -0.15,192.12l0 1734.05c0,29.52 6.19,62.37 -18.23,76.37 -18.07,10.36 -65.2,5.81 -90.63,5.81l-2021.21 0c-14.03,0 -37.86,1.78 -49.1,-6.65 -6.76,-5.05 -13.61,-16.02 -15.2,-24.65 -2.62,-14.27 -0.58,-360.57 -0.58,-385.14l0 -1349.57c0,-50.48 11.94,-104.31 -29.98,-115.94 -19.26,-5.34 -29.99,5.79 -38.52,9.24 1.78,3.7 4.3,-0.11 -1.58,-0.29 -2.31,7.03 -8.9,10.19 -10.03,19.22 -1.12,8.95 -0.32,23.36 -0.32,32.85 0.01,239.44 -1.98,1798.93 0.96,1808.42 1.79,5.82 2.14,0.45 4.09,11.79l4.22 11.23c1.13,3.52 0.32,3.46 1.69,5.73l10.88 14.09c16.06,22.33 46.14,46.66 82.72,49.11z"/>
  </g>
 </g>
</svg>
