<?xml version="1.0" encoding="UTF-8"?>
<!DOCTYPE svg PUBLIC "-//W3C//DTD SVG 1.1//EN" "http://www.w3.org/Graphics/SVG/1.1/DTD/svg11.dtd">
<!-- Creator: CorelDRAW 2020 (64 Bit) -->
<svg xmlns="http://www.w3.org/2000/svg" xml:space="preserve" width="42.3332mm" height="42.3332mm" version="1.1" style="shape-rendering:geometricPrecision; text-rendering:geometricPrecision; image-rendering:optimizeQuality; fill-rule:evenodd; clip-rule:evenodd"
viewBox="0 0 4233.32 4233.32"
 xmlns:xlink="http://www.w3.org/1999/xlink"
 xmlns:xodm="http://www.corel.com/coreldraw/odm/2003">
 <defs>
  <style type="text/css">
   <![CDATA[
    .fil0 {fill:black}
   ]]>
  </style>
 </defs>
 <g id="Camada_x0020_1">
  <metadata id="CorelCorpID_0Corel-Layer"/>
  <g id="_2551022844288">
   <g>
    <path class="fil0" d="M975.23 1391.52c0,213.14 -10.38,1101.48 7.35,1242.79 51.06,21.33 132.96,9.72 197.13,15.54 -24.61,66.85 -121.78,189.68 -96.04,254.54 66.72,7.81 80.24,-49.53 112.15,-112.86 53.71,-106.59 44.79,-144.53 127.93,-144.53l1629.9 0c75.46,20.9 89.02,270.6 201.88,257.39 25.35,-63.86 -70.96,-189.12 -96.04,-254.54 64.26,-5.82 146.07,5.61 194.62,-15.58 29.2,-142.64 10.05,-1027.18 9.86,-1242.75 -0.07,-76.8 4.64,-81.11 -81.12,-81.11l-2139.24 0c-73.2,0 -68.38,11.23 -68.38,81.11zm76.28 1176.33l2136.29 1.75 0.33 -1181.09 -2082.46 -3.88c-82.35,1.88 -55.48,41.43 -54.8,134.07l0.64 1049.15z"/>
    <path class="fil0" d="M1107.28 1429.65c-32.13,56.89 -13.29,769.89 -15.39,942.53 -1.06,87.52 -10.92,95.74 19.28,124.34 37.71,35.71 1299.94,16.43 1524.14,16.43 131.78,0 407.44,13.79 515.86,-6.17l2.87 -1081.18c-134.6,-18.4 -1976.16,-15.41 -2046.76,4.05zm1050.49 1002.42l923.22 5.36 -0.71 -269.06 -922.45 -0.5 -0.06 264.2zm-990.74 5.17l844.33 0 25.58 1.02 44.86 -4.78 -0.46 -260.99 -914.31 -5.17 0 269.92zm990.73 -348.9l922.37 5.59 -0.23 -264.76 -921.36 -0.38 -0.78 259.55zm-991.07 5.45l914.68 -0.43 -0.17 -261.79 -911.11 -3.1 -3.4 265.32zm991.81 -342.38l915.4 1.72 6.95 -257.01 -923.07 0.12 0.72 255.17zm-982.9 2.06l902.76 -0.53 3.3 -253.5 -913.87 -3.59c-1.67,73.12 -12.57,191.59 7.81,257.62z"/>
   </g>
   <rect class="fil0" x="1499.81" y="1947" width="238.12" height="63.94"/>
   <rect class="fil0" x="1499.81" y="1612.96" width="238.12" height="63.94"/>
   <rect class="fil0" x="1499.81" y="2276.63" width="238.12" height="63.94"/>
   <rect class="fil0" x="2531.69" y="1947" width="238.12" height="63.94"/>
   <rect class="fil0" x="2531.69" y="1612.96" width="238.12" height="63.94"/>
   <rect class="fil0" x="2531.69" y="2276.63" width="238.12" height="63.94"/>
  </g>
 </g>
</svg>
