<?xml version="1.0" encoding="UTF-8"?>
<!DOCTYPE svg PUBLIC "-//W3C//DTD SVG 1.1//EN" "http://www.w3.org/Graphics/SVG/1.1/DTD/svg11.dtd">
<!-- Creator: CorelDRAW 2020 (64 Bit) -->
<svg xmlns="http://www.w3.org/2000/svg" xml:space="preserve" width="42.3332mm" height="42.3332mm" version="1.1" style="shape-rendering:geometricPrecision; text-rendering:geometricPrecision; image-rendering:optimizeQuality; fill-rule:evenodd; clip-rule:evenodd"
viewBox="0 0 4233.32 4233.32"
 xmlns:xlink="http://www.w3.org/1999/xlink"
 xmlns:xodm="http://www.corel.com/coreldraw/odm/2003">
 <defs>
  <style type="text/css">
   <![CDATA[
    .fil0 {fill:black}
   ]]>
  </style>
 </defs>
 <g id="Camada_x0020_1">
  <metadata id="CorelCorpID_0Corel-Layer"/>
  <path class="fil0" d="M682.62 1655.54l0 927.81c0,27.24 -0.4,21.26 12.17,35.62 13.56,15.38 9.77,12.7 39.46,12.75l356.26 0 227.62 0 1594.61 0 227.61 0 361.89 0 1.87 0c38.96,-0.4 46.63,-13.11 46.63,-48.37l0 -931.64c0,-43.91 -20.55,-50.28 -60,-50.28l-2760.33 0c-34.68,0 -47.79,21.35 -47.79,54.11zm1243.56 190.31l356.4 0 0 77.88 -356.4 0 0 -77.88zm253.07 357.92c0.09,68.33 -2.77,257.88 1.07,312.85 51.26,7.53 1094.93,2.22 1239.49,2.22 13.73,0 8.61,0.63 17.75,-3.65l0.98 -337.24c-33.66,-7.84 -549.25,-2.49 -630.25,-2.49 -49.3,0 -594.9,-4.28 -628.6,2.41l-0.44 25.9zm-1384.65 314.09c45.97,4.15 569.85,0.98 629.72,0.98 45.64,0 597.79,4.11 627.61,-2.36l1.25 -338.57c-35.93,-7.22 -987.14,-2.45 -1100.46,-2.45 -48.63,0 -110.68,-3.3 -157.76,1.11l-0.36 341.29zm0.5 -464.06c45.51,5.4 1450.61,1.25 1491.8,1.25 247.95,0 495.85,0 743.79,0 123.44,0 248.79,-2.14 371.96,0.09 48.06,0.94 34.82,7.05 34.82,-154.19 0,-58.31 3.83,-130.62 -0.81,-187.14l-2640.81 -1.3 -0.75 341.29z"/>
 </g>
</svg>
