<?xml version="1.0" encoding="UTF-8"?>
<!DOCTYPE svg PUBLIC "-//W3C//DTD SVG 1.1//EN" "http://www.w3.org/Graphics/SVG/1.1/DTD/svg11.dtd">
<!-- Creator: CorelDRAW 2020 (64 Bit) -->
<svg xmlns="http://www.w3.org/2000/svg" xml:space="preserve" width="42.3332mm" height="42.3332mm" version="1.1" style="shape-rendering:geometricPrecision; text-rendering:geometricPrecision; image-rendering:optimizeQuality; fill-rule:evenodd; clip-rule:evenodd"
viewBox="0 0 4233.32 4233.32"
 xmlns:xlink="http://www.w3.org/1999/xlink"
 xmlns:xodm="http://www.corel.com/coreldraw/odm/2003">
 <defs>
  <style type="text/css">
   <![CDATA[
    .fil0 {fill:black}
   ]]>
  </style>
 </defs>
 <g id="Camada_x0020_1">
  <metadata id="CorelCorpID_0Corel-Layer"/>
  <g id="_2550446378752">
   <path class="fil0" d="M1221.04 1288.63l0.11 1493.1c0,29.6 0.02,36.22 8.71,60.39 11.47,31.87 39.05,53.41 68.08,67.58 17.83,8.7 44.23,10.47 66.19,10.53 60.81,0.16 585.86,3.34 601.38,-2.3 27.93,-10.15 24.39,-5.02 55.39,-25.34 11.15,-7.31 12.99,-12.52 23.11,-22.15l7.05 -7.17c23.91,-35.61 18.64,-80.14 18.64,-122.07l0.01 -1228.6c0.2,-89.59 -0.34,-179.21 -0.02,-268.79 0.06,-16.81 -5.03,-42.93 -11.41,-54.18 -6.82,-12.01 -18.93,-30.04 -28.97,-39.33 -29.2,-27.01 -58.68,-34.13 -99.94,-34.13l-550.31 0.04c-27.39,0 -50.67,0.08 -74.06,7.05 -11.79,3.52 -42.74,23.27 -50.46,32.2 -18.2,21.06 -20.09,20.74 -29.3,53.47 -6.65,23.63 -4.2,53.34 -4.2,79.7zm100.31 1536.97c13.88,11.25 41.72,7.52 64.11,7.51 23.46,0 46.92,0 70.39,0 45.19,0 97.05,2.35 141.4,-0.29 2.83,-17.99 1.05,-218.37 0.96,-253.72 -0.26,-99.97 16.68,-82.32 -71.97,-82.31 -29.84,0.01 -211.39,-1.74 -214.95,1.25 -6.15,5.17 -2.51,216.99 -2.51,253.83 0,50.08 -4.57,43.7 12.57,73.73zm372.51 -759.21c3.38,42.74 -6.83,317.66 1.52,330.82 5.2,5.73 197.39,2.49 212.66,2.49 4.77,0 67.18,1.7 70.9,-1.91 5.26,-5.09 2.25,-211.97 2.13,-247.42 -0.08,-23.11 2.09,-62.99 -1.5,-84.08 -17.87,-2.51 -260.22,0.14 -285.71,0.1zm-383.47 -97.28l285.54 -0.34c1.2,-34.05 2.3,-321.44 -1.43,-330.34l-281.9 -0.52c-6.66,13.22 -1.86,290.92 -2.21,331.2zm669.2 531.62c-13.76,-3.44 -262.9,-2.97 -284.85,-0.05 -3.3,97.29 1.45,197.23 -0.37,293.85 -0.87,46.06 -13.95,35.94 143.28,35.94 36.27,0 120,9.48 133.84,-13.51 14.1,-23.43 8.47,-42.12 8.47,-80.02 0,-76.48 3.33,-160.68 -0.37,-236.21zm-384.43 -434.46c-13.62,3.04 -218.6,1.35 -267.44,0.82 -13.65,-0.15 -12.21,-0.98 -15.3,2.21 -2.05,2 -4.85,304.91 -0.74,328.17l283.47 -0.03c5.08,-19.3 -0.25,-287.33 0.01,-331.17zm99.37 -98.22l285.06 0.72 0.36 -330 -285.62 -0.96 0.2 330.24zm-384.1 -681.55c0,35.77 -2.6,231.78 1.3,249.38 51.38,-1.34 255,3.47 284.16,-2.27l-0.41 -328.19 -252.08 0.02c-3.04,0.55 -19.6,7 -23.13,14.04 -14.66,29.25 -9.84,19.16 -9.84,67.02zm384.17 -75.2l-0.28 322.86 285.54 0.99c-0.2,-9.36 1.3,-294.78 -1.05,-301.8l-5.93 -9.43c-4.76,-8.28 -1.9,-9.35 -16.65,-13.9 -21.42,-6.6 -188.67,-3.25 -227.36,-3.22 -44.09,0.02 -19.09,2.2 -34.27,4.5z"/>
   <path class="fil0" d="M2187.48 1165.12c-2.03,12.35 -11.38,9.02 -16.36,33.29 -3.36,16.37 -9.07,22.09 -8.99,43.26 1.91,490.52 -0.76,983.04 0.02,1473.94 0.05,34 2.29,75.87 0.36,108.75 -1.25,12.57 9.18,28.28 16.39,38.32 0.2,0.27 0.58,0.82 0.77,1.07 0.17,0.22 0.62,0.73 0.77,0.91l1.59 1.49c11.16,29.11 58.4,53.15 85.7,57.34 19.22,2.96 490.34,1.3 542.57,1.3 23.82,0 95.92,2.49 112.38,-3.3 5.83,-2.06 10.54,-5.82 18.25,-8.89 21.16,-8.42 46.23,-30.35 46.42,-38.38l8.06 -13.91c25.47,-42.66 18.03,-77.89 18.18,-129.77l0.02 -1164.62c0,-109.38 3.3,-224.02 -0.36,-332.77 -1.01,-30.01 -18.65,-66.72 -39.61,-84.31 -9.74,-8.16 -18.13,-15.81 -29.15,-21.29l-38.49 -13.83 -104.24 -0.23c-31.4,0 -525.02,-2.12 -538.04,1.04l-15.66 5.55c-15.44,4.34 -53.53,27.16 -60.58,45.04zm63.49 496.79l0.18 307.39c47.62,1.02 275.35,4.22 289.13,-1.19l0.18 -248.61c0,-13.41 3.5,-76.15 -2.29,-81.84 -4.93,-4.88 -23.92,-2.54 -30.76,-2.54l-234.68 -0.06c-26.26,-0.35 -21.76,-0.34 -21.76,26.85zm-0.21 -436.1c3.19,37.47 -6.43,298.81 1.42,309.26 5.17,6.27 61.68,3.21 69.66,3.21 43.35,0.01 195.66,2.97 217.21,-2.2l0.9 -332.9 -233.07 -0.29c-14.89,-0.08 -35.89,3.33 -44.45,13.66 -1.56,1.88 -4.21,5.55 -4.59,5.88 -0.31,0.26 -0.8,0.67 -1.15,0.9l-5.93 2.48zm288.86 839.01c-26.55,5.02 -270.97,-4.16 -286.03,2.36 -3.57,10.44 -4.66,304.91 -1.45,330.28 18.47,4.06 278.67,2.23 285.63,-1.08 6.27,-14.06 0.74,-288.87 1.85,-331.56zm95.52 10.89l0.18 300.77c-0.03,2.59 -0.27,8.49 -0.08,10.74l2.29 9.49c4.66,4.18 251.61,1.57 284.8,1.47l0.8 -43.05c0.65,-70.37 2.45,-223.69 -1.1,-288.24 -14.72,-4.28 -225.87,-1.31 -280.21,-1.17 -3.56,4.55 -4.4,4.15 -6.68,9.99zm0.11 -106.7l287.04 0.83 0.29 -332.8 -287.19 0.17 -0.14 331.8zm-382.86 843.15l-1.25 -0.55 7.86 1.25c3.74,6.86 0.74,5.41 7.37,9.5 0.56,0.35 12.23,6.42 12.36,6.48 10.43,4.32 248.63,2 259.43,1.3l0.33 -330.42c-34.49,0.2 -273.05,-3.63 -285.33,2.03l-0.77 310.41zm660.29 8.67c3.23,-23.7 8.82,21.49 8.82,-71.09 0,-73 3,-184.32 -0.29,-248.85 -15.39,-3.08 -272.48,-2.64 -283.97,0.53 -5.12,46.37 1.14,235.99 -0.88,306 -0.88,30.63 1.68,23.14 52.36,23.14l153.57 -0.01c58.54,-0.04 26.26,4.18 70.39,-9.72zm-275.9 -1287.27c25.74,4.19 242.23,1.72 284.9,1.25 0.65,-22.58 2.31,-274.65 0.25,-295.41 -0.96,-9.61 -3.23,-10.87 -9.26,-21.36 -4.35,-7.56 -10.93,-7.94 -20.03,-9.67 -36.34,-6.91 -182.9,-3.21 -231.74,-3.57 -33.78,-0.26 -23.63,5.27 -24.12,92.37 -0.33,56.84 -2.48,187.38 0,236.39z"/>
   <path class="fil0" d="M1004.08 3023.27l1.23 -1.7c-17.72,1.49 -33.04,16.57 -44.69,28.72 -0.3,0.3 -0.75,0.75 -1.04,1.05l-12.76 12.86c-16.07,21.59 -25.03,45.25 -28.7,71.71 -2.93,21.16 4.27,39.82 5.49,58.77 4.14,3.43 0.75,-0.5 5.11,5.44l15.31 29.44c15.81,26.04 45.74,44.46 73.62,55.72 31.15,12.58 207.52,-0.67 227.04,8.36 4.19,30.68 1.57,76.52 1.57,108.79 0.01,25.23 -7.24,70.61 30.91,80.59 16.37,4.28 88.56,1.68 110.42,1.64 36.97,-0.08 73.95,0.03 110.92,-0.04 31.46,-0.06 77.92,7.09 92.91,-18.87 14.94,-25.87 4.65,-116.63 7.2,-159.51 1.28,-21.35 20.17,-15.6 38.53,-15.72 36.21,-0.25 72.56,0.06 108.79,0.06 27.88,0 853.87,-2.6 883.05,0.67 10.51,19.62 2.15,116.67 8.36,168.76 4.93,10.8 7.46,12.94 14.74,17.67 11.89,7.73 9.55,8.27 28.04,8.51l215.49 -0.07c17.32,0 54.38,2.77 67.35,-3.55 23.8,-11.59 25.15,-28.77 25.03,-48.14 -0.21,-34.04 -4,-114.79 2.53,-141.78 56.71,-3.76 124.48,-0.36 182.41,-0.42 25.5,-0.03 51.91,-7.95 73.94,-18.71 14.34,-7.01 14.88,-8.77 24.73,-19.73l27.57 -41.28c2.65,-5.32 6.31,-10.88 7.82,-15.3 2.32,-6.81 2.59,-11.8 5.02,-18.34 14.84,-39.81 -16.72,-110.79 -30.18,-122.05 -10.88,-9.11 -7.51,-10.04 -16.79,-17.32 -2.1,-1.65 -1.67,-1.14 -3.7,-2.73 -11.77,-9.22 -15.56,-13.32 -32.3,-18.81 -5.9,-1.94 -11.12,-5.74 -16.34,-6.97 -6.14,-1.45 -15.72,-1.92 -21.08,-2.99 -37.34,-7.47 -135.46,-2.55 -180.83,-2.57l-1928.23 0.02c-19.23,0.04 -26.78,0.63 -42.99,3.63 -12.09,2.24 -28.99,3.64 -35.5,14.19zm1719.32 283.18c0.02,10.42 -2.45,78.03 2.38,87.45 43.35,2.74 121.47,1.06 168.19,0.78 3.59,-10.27 1.99,-64.01 2.16,-82.01 0.13,-13.34 0.5,-15.14 -11.48,-16.53l-142.71 -0.26c-11.96,-0.03 -18.56,-2.54 -18.54,10.57zm-1384.36 84.83c4.08,3.07 -0.77,1.51 7.95,2.5 19.37,2.18 154.43,0 160.93,-0.88 1.29,-6.45 2.19,-85.17 0.94,-90.59 -2.45,-10.66 -26.96,-6.34 -38.08,-6.43l-91.72 -0.06c-48.5,0.12 -43.1,-10.68 -42.44,51.16 0.13,12.12 -3.48,36.01 2.42,44.3zm-271.34 -324.29l2107.99 0c40.79,0 74.16,33.37 74.16,74.15l0 0.01c0,40.78 -33.37,74.15 -74.16,74.15l-2107.99 0c-40.79,0 -74.15,-33.37 -74.15,-74.15l0 -0.01c0,-40.78 33.36,-74.15 74.15,-74.15z"/>
   <path class="fil0" d="M3269.74 988.31c18.94,-20.87 30.79,-31.87 37.22,-60.57 1.4,-6.24 1.53,-8.66 2.47,-14.64 1.51,-9.69 2.13,-7.36 3.45,-13.36 7.02,-31.93 -10.71,-62.96 -18.74,-81.85 -6.46,-15.18 -8.6,-13.97 -12.46,-19.81 -18.98,-9.21 -1.99,-5.56 -27.58,-21.66l-32.44 -18.69c-5.24,-2.33 -9.66,-2.59 -15.2,-4.11 -13.07,-3.57 -17.53,-5.98 -33.48,-6.07 -367.09,-2.07 -739.74,-0.07 -1107.1,-0.07 -59.23,0 -999.2,-2.55 -1024.62,1.19 -7.99,1.17 -25.49,4.7 -31.77,7.12 -16.21,6.26 -54.34,36.95 -63.22,55.51 -19.78,41.35 -23.52,32.94 -19.85,99.89 1.14,20.62 12.68,39.25 22.22,57.46 10.88,20.77 47.59,41.64 69.65,49.58 19.4,6.99 47.64,7.5 70.68,7.55l1898.37 -0.01c47.37,0 189.83,5.15 227.74,-8.26 22.54,-7.98 20.82,-6.98 39.4,-20.5l15.26 -8.7zm-2251.39 -135.04c-0.61,9.52 -6.67,18.96 -8.01,28.48 -2.33,16.49 9.92,39.02 23.59,48.07 7.37,4.87 17.95,8.49 29.36,8.95 48.02,1.93 100.82,-0.1 149.4,-0.1l1926.09 -0.04c26.55,0.03 47.16,1.56 63,-11.47 5.51,-4.54 13.57,-13.76 14.97,-22.29 1.44,-8.69 3.49,-34.74 -3.14,-40.79 -9.26,-8.45 -3.8,-8.15 -8.77,-14.51 -0.32,-0.41 -0.73,-0.88 -1.1,-1.24l-12.94 -8.24c-2.04,-1.44 -0.7,-1.58 -5.52,-3.01 -12.48,-3.7 -1861.62,-0.47 -2113.37,-0.96 -53.11,-0.11 -36.19,15.84 -53.56,17.15z"/>
   <path class="fil0" d="M1041.92 1167.05l0 1755.46c0,25.2 20.82,44.35 44.84,46.09 11.59,0.84 11.57,-0.47 18.32,-3.99 9.5,-4.93 29.29,-7.27 29.29,-42.1 0,-12.23 2.58,-1807.7 -1.41,-1825.29 -1.01,-4.47 -2.1,-6.39 -4.74,-10.03 -14.36,-19.81 -34.76,-29.16 -56.09,-17.73 -35.92,19.26 -30.21,47.32 -30.21,97.59z"/>
   <path class="fil0" d="M3104.1 1128.66c-2.35,563.68 0.04,1129.66 -0.05,1693.6 0,6.4 -3.13,100.86 3.08,114.64 7.7,17.08 11.02,22.95 35.91,23.16 35.11,0.29 41.63,-19.41 41.65,-46.08l-0.02 -1783.19c0.19,-17.61 2.77,-41.26 -18.19,-52.62 -7.3,-3.96 -42.39,-9.34 -54.8,10.53 -9.42,15.1 -7.49,17.7 -7.58,39.96z"/>
   <path class="fil0" d="M1128 2922.51c0,-597.15 1.81,-1197.2 -0.05,-1793.85 -0.09,-28.49 2.89,-21.88 -9.44,-40 -11.17,-16.42 -40.38,-19.92 -58.01,-1.3 -13.65,14.41 -9.98,31.59 -9.97,56.23l0.1 1668c0,19.99 -3.53,120.91 3.58,131.07 2.77,3.96 13.18,13.25 16.66,14.72 34.64,14.65 57.13,-10.46 57.13,-34.87z"/>
  </g>
 </g>
</svg>
