<?xml version="1.0" encoding="UTF-8"?>
<!DOCTYPE svg PUBLIC "-//W3C//DTD SVG 1.1//EN" "http://www.w3.org/Graphics/SVG/1.1/DTD/svg11.dtd">
<!-- Creator: CorelDRAW 2020 (64 Bit) -->
<svg xmlns="http://www.w3.org/2000/svg" xml:space="preserve" width="42.3332mm" height="42.3332mm" version="1.1" style="shape-rendering:geometricPrecision; text-rendering:geometricPrecision; image-rendering:optimizeQuality; fill-rule:evenodd; clip-rule:evenodd"
viewBox="0 0 4233.32 4233.32"
 xmlns:xlink="http://www.w3.org/1999/xlink"
 xmlns:xodm="http://www.corel.com/coreldraw/odm/2003">
 <defs>
  <style type="text/css">
   <![CDATA[
    .fil0 {fill:black}
   ]]>
  </style>
 </defs>
 <g id="Camada_x0020_1">
  <metadata id="CorelCorpID_0Corel-Layer"/>
  <path class="fil0" d="M3473.36 1248.22l-0.07 -0.1 -760.22 0c-0.03,0.31 -0.07,0.61 -0.1,0.8l-827.19 0.88 -0.43 -1.68 -125.82 0c-49.34,3.35 -213.37,0.1 -252.62,0.34 -11.45,0.07 -18.27,0.95 -21.68,-0.34l-121.21 0c-8.07,2.27 -23.94,0.32 -58.75,0.32 -66.46,0 -132.92,-0.15 -199.39,-0.32l-577.1 0c-12.24,0.09 -24.48,0.19 -36.71,0.29 -23.87,0.21 -35.48,10.29 -45.89,23.38 -12.34,15.56 -10.39,31.96 -10.39,56.87l0 1565.51c0,35.91 -2.73,83.37 47.9,88.58 50.5,5.22 114.33,0.65 166.81,0.33 18.77,-0.12 24.87,-4.64 37.37,-14.45 2.77,-2.17 2.33,-1.69 4.63,-4.31 6.63,-7.51 12.96,-18.09 14.1,-28.97 3.28,-31.22 0.22,-224.5 0.22,-273.2l0 -951.87c0,-36.88 -3.85,-102.39 0.73,-135.87l1895.78 -0.73c3.5,26.25 0.81,1270.73 0.74,1340.01 -0.03,20.1 -0.43,32.12 9.42,44.84 4.31,5.55 8.89,10.38 14.2,14.02 5,3.41 3.87,2.46 9.17,4.26 8.28,2.84 4.96,2.09 10.26,4.26 16.06,6.57 134.95,2.07 167.28,2.01 33,-0.05 59.34,-16.97 60.7,-51.91 0.69,-17.57 -1.58,-38.87 0.74,-55.78l649.01 0c5.18,37.83 -13.63,96.12 44.87,106.85 10.74,1.98 175.81,2.84 187.03,-0.35 19.29,-5.5 29.92,-20.51 37.24,-38.32 6.18,-15.01 2.64,-166.39 2.64,-190.34 0,-482.09 1.9,-964.22 0.02,-1446.31 -0.08,-21.53 -7.51,-41.73 -26.46,-51.36 -19.09,-9.7 -46.7,-7.12 -68.97,-7.12 -73.78,0 -155.72,3.91 -227.86,-0.22zm-404 1404.36l0 0zm0 0l0 0zm453.79 -482.61l0.06 1.52 -0.09 158.82 -645.75 -0.19 0.19 -320.51 645.75 0.19 -0.06 102.31 -0.1 57.86 0 0zm-424.72 -379.45c27.91,0 216.29,3.34 229.28,-2.89 33.66,-16.07 44.01,-50.87 29.91,-74.25l-12.25 -15.92c-11.73,-10.91 -21.05,-15.36 -43.11,-15.36l-203.83 0c-29.7,0 -41.91,8.89 -53.34,31.55 -3.4,6.76 -6.4,13.14 -6.56,22.57 -0.57,33.35 22.69,54.3 59.9,54.3zm0 433.66c27.88,0 216.31,3.32 229.28,-2.89 33.87,-16.23 44.01,-53.84 30.12,-74.39l-10.23 -13.56c-10.97,-11.89 -24.41,-17.58 -45.34,-17.58l-203.83 0c-56.39,0 -70.78,50.84 -56.06,75.63 12.16,20.53 19.42,32.79 56.06,32.79zm537.12 648.79l50.99 0.12 0.12 -1297.72 -50.96 -0.12 -0.15 1297.72zm-758.18 -109.19l633.04 0.19 12.9 -0.19 0 -320.32 -645.75 -0.19 -0.19 320.51zm0 -867.32l645.75 0.19 0.19 -320.51 -645.75 -0.19 -0.19 320.51zm-2331.63 976.51l51.03 0.12 0.09 -1297.72 -50.77 -0.12 -0.35 1297.72zm2168.3 0l50.97 0.12 0.13 -1297.72 -50.99 -0.12 -0.11 1297.72zm-2168.28 -1409.39l3242.18 0.15 -101.28 -0.15 0 -105.04 5.88 -0.13 -3148.33 0 1.55 105.17z"/>
 </g>
</svg>
