<?xml version="1.0" encoding="UTF-8"?>
<!DOCTYPE svg PUBLIC "-//W3C//DTD SVG 1.1//EN" "http://www.w3.org/Graphics/SVG/1.1/DTD/svg11.dtd">
<!-- Creator: CorelDRAW 2020 (64 Bit) -->
<svg xmlns="http://www.w3.org/2000/svg" xml:space="preserve" width="42.3332mm" height="42.3332mm" version="1.1" style="shape-rendering:geometricPrecision; text-rendering:geometricPrecision; image-rendering:optimizeQuality; fill-rule:evenodd; clip-rule:evenodd"
viewBox="0 0 4233.32 4233.32"
 xmlns:xlink="http://www.w3.org/1999/xlink"
 xmlns:xodm="http://www.corel.com/coreldraw/odm/2003">
 <defs>
  <style type="text/css">
   <![CDATA[
    .fil0 {fill:black}
   ]]>
  </style>
 </defs>
 <g id="Camada_x0020_1">
  <metadata id="CorelCorpID_0Corel-Layer"/>
  <path class="fil0" d="M1903.41 1863.72l-1010.84 -0.34 0.01 101.9 100.55 0.14 1.44 1364.72 101.68 -0.11c4.94,-91.97 0.36,-196.95 0.36,-289.77 0,-62.19 -3.67,-853.94 1.61,-875.79l2037.17 -0.04 1.42 1165.17 101.44 0.53 0.62 -1364.65 101.91 -0.34 0 -101.01 -254.45 -0.75c-16.96,-88.19 -86.71,-118.38 -168.31,-131.04l-0.75 -575.01c-48.61,-13.35 -289.35,-103.28 -346.06,-123.17l-234.98 -83.9c-10.43,-4 -10.83,-6.22 -20.29,-11.07 -23.85,-12.22 -57.33,-26.42 -81.72,-36.05 -9.21,13.01 -39.54,82.64 -46.19,101.58 -43.85,-2.04 -63.58,-11.28 -113,-2.39 -59.31,10.66 -119.7,44.81 -150.25,94.54 -13.75,22.37 -30.09,55.25 -38.02,84.03 9.83,7.28 453.97,188.68 472.53,192 11.65,-48.77 54.28,-96.37 21.84,-194.19 -13.63,-41.08 -40.97,-82.9 -71.24,-108.19 -5.61,-4.68 -28.52,-22.15 -28.14,-25.61 4.27,-8.4 19.85,0.61 31.78,4.92 11.49,4.16 21.89,7.38 33.68,11.75 60.86,22.59 442.92,161.1 467.83,166.85l0.04 505.36c-78.43,9.19 -145.29,48.54 -161.23,129.11l-736.39 0.64 -14.05 0.18zm-805.38 198.83l2037.47 -0.02 1.06 -97.12 -2038.12 -0.15c-3.88,13.87 -3.5,82.35 -0.41,97.29zm1663.14 -199.41l217.85 0.3c-33.49,-42.75 -184.56,-42.31 -217.85,-0.3zm-729.21 -733.46c6.86,6.17 236.32,100.13 257.34,105.45 -4.64,-55.78 -50.93,-99.71 -91.28,-118.21 -61.33,-28.11 -118.5,-20.89 -166.06,12.76z"/>
 </g>
</svg>
