<?xml version="1.0" encoding="UTF-8"?>
<!DOCTYPE svg PUBLIC "-//W3C//DTD SVG 1.1//EN" "http://www.w3.org/Graphics/SVG/1.1/DTD/svg11.dtd">
<!-- Creator: CorelDRAW 2020 (64 Bit) -->
<svg xmlns="http://www.w3.org/2000/svg" xml:space="preserve" width="42.3332mm" height="42.3332mm" version="1.1" style="shape-rendering:geometricPrecision; text-rendering:geometricPrecision; image-rendering:optimizeQuality; fill-rule:evenodd; clip-rule:evenodd"
viewBox="0 0 4233.32 4233.32"
 xmlns:xlink="http://www.w3.org/1999/xlink"
 xmlns:xodm="http://www.corel.com/coreldraw/odm/2003">
 <defs>
  <style type="text/css">
   <![CDATA[
    .fil0 {fill:black}
   ]]>
  </style>
 </defs>
 <g id="Camada_x0020_1">
  <metadata id="CorelCorpID_0Corel-Layer"/>
  <path class="fil0" d="M3409.54 3252.2l0.05 -2271.01 -2585.95 0 0.01 2271.01 122.61 0 1069.7 0 202.44 0 1068.56 0 122.58 0zm-733.9 -246.71c46.51,10.13 279.15,1.61 362.98,2.72 68.74,0.92 67.42,9.65 61.97,-61.66l-429.73 -1.3c-0.11,9.63 -1.02,23.03 -0.43,32.37l5.21 27.87zm-5.05 -183.67l431.16 0.07 0.22 -59.71 -431.52 -0.83 0.14 60.47zm-461.73 -1110.3c15.66,6.95 135.36,6.23 154.3,0.43l-0.12 -406.77c-31.47,59.62 -53.34,131.51 -78.72,198.96 -20.94,55.64 -66.39,157.04 -75.46,207.38zm646.12 1.4c27.93,5.97 31.23,4.12 62.33,-0.42l-0.07 -427.92 -61.18 -1.51 -1.08 429.85zm-368.8 -1.04c24.81,5.31 37.67,5.83 61.4,0.86l0.41 -429.85 -61.22 0.88 -0.59 428.11zm-462.08 1.97c66.71,7.53 48.6,2.45 106.45,-149.6 16.58,-43.58 74.5,-188.37 78.1,-219.7l-50.06 -0.25c-24.3,78.02 -126.92,318.38 -134.49,369.55zm1074.35 -0.64c3.73,-6.61 4.01,4.73 6.53,-19.66 5.32,-51.55 -0.84,-399.42 -2.87,-410.71l-61.52 -2.68c-1.66,6.99 -14.49,399.61 1.73,434.95l56.13 -1.9zm-368.54 2.73c0.79,-1.73 2.08,-6.01 2.34,-5.19l3.79 -47.92c-0.71,-78.37 5.16,-344.33 -3.92,-381.12l-61.47 -0.86c-6,34.51 -5.97,407 0.67,433.09l16.48 3.23 42.11 -1.23zm-1536.87 628.46l2.17 47.43 427.81 -0.26c1.11,-13.26 3.18,-41.3 0.67,-51.66 -4.2,-17.38 -6.96,-13.03 -25.78,-12.34l-377.4 -0.11c-11.04,-0.5 -27.47,-6.46 -27.47,16.94zm-0.01 -137.14l430.45 -0.01 -0.1 -64.17 -429.74 1.03 -0.61 63.15zm920.54 -176.28l1.49 423.51 62.16 -2.46 0.45 -427.87c-77.11,-10.34 -57.69,0.33 -64.1,6.82zm926.73 420.58l62 0.68c-1.3,-77.53 11.59,-383.64 -5.11,-427.6 -17.63,-5.01 -32.2,-4.97 -55.68,-1l-1.21 427.92zm-364.56 -0.26l55.29 2.09 1.42 -429.52 -59.06 -2.47c-2.25,13.78 -10.99,397.2 2.35,429.9zm-189.46 0.53l61.15 3.12 0.56 -429.86 -60.38 -3.24 -1.33 429.98zm-185.11 1.02l59.93 -0.04 2.16 -429.44 -60.03 -2.31 -2.06 431.79zm553.99 -0.43l59.92 0.78 2.16 -430.2 -60 -1.33 -2.08 430.75zm-309.68 678.99l1.43 -492.7c31.63,-7.29 649.51,-7.18 680.08,0.04l3.19 491.8 55.42 -0.8 0.77 -552.11 -2338.12 -2.4 -1.42 553.2 1598.65 2.97zm-1598.65 -1419.89l918.97 5.05c32.74,-1.07 25.98,-5.84 50.29,-74.21l149.85 -398.47c12.94,-26.13 -0.64,-9.71 17.2,-21.92l277.27 -0.09 3.7 -59.38c35.98,-1.06 843.47,-7.64 860.26,4.17l0.49 546.89c20.29,4.88 42.76,5.29 61.57,-1.94l-0.09 -612.31 -2335.08 -1.35 -4.43 613.56zm0.06 740.09l113.91 1.93c18.65,-56.68 8.96,-151.51 8.96,-212.59 0,-68.84 -3.68,-148.6 0.95,-216.11l674.94 -2.42 1.66 430.57 238.47 0.48 8.22 -29.73c0.84,-8.12 -0.13,-27.46 -0.24,-36.72 -0.26,-22.3 -0.07,-44.64 -0.07,-66.96 0,-102.51 -5.68,-343.71 1.14,-416.92l1229.87 -2.82 0.35 536.16c4.83,20.25 -8.16,13.65 20.07,18.14 7.24,1.15 31.62,-1.89 39.79,-2.99l1.53 -611.93 -2338.98 -2.92 -0.57 614.83z"/>
 </g>
</svg>
