<?xml version="1.0" encoding="UTF-8"?>
<!DOCTYPE svg PUBLIC "-//W3C//DTD SVG 1.1//EN" "http://www.w3.org/Graphics/SVG/1.1/DTD/svg11.dtd">
<!-- Creator: CorelDRAW 2020 (64 Bit) -->
<svg xmlns="http://www.w3.org/2000/svg" xml:space="preserve" width="42.3332mm" height="42.3332mm" version="1.1" style="shape-rendering:geometricPrecision; text-rendering:geometricPrecision; image-rendering:optimizeQuality; fill-rule:evenodd; clip-rule:evenodd"
viewBox="0 0 4233.32 4233.32"
 xmlns:xlink="http://www.w3.org/1999/xlink"
 xmlns:xodm="http://www.corel.com/coreldraw/odm/2003">
 <defs>
  <style type="text/css">
   <![CDATA[
    .str0 {stroke:black;stroke-width:50.8;stroke-miterlimit:22.9256}
    .fil0 {fill:none}
    .fil1 {fill:black;fill-rule:nonzero}
   ]]>
  </style>
 </defs>
 <g id="Camada_x0020_1">
  <metadata id="CorelCorpID_0Corel-Layer"/>
  <g id="_2550513986208">
   <line class="fil0 str0" x1="1180.41" y1="1274.89" x2="2944.3" y2= "1274.89" />
   <line class="fil0 str0" x1="1180.41" y1="2046.6" x2="2944.3" y2= "2046.6" />
   <line class="fil0 str0" x1="1180.41" y1="2818.3" x2="2944.3" y2= "2818.3" />
   <polyline class="fil0 str0" points="1180.41,3731.11 1180.41,503.19 2944.3,503.19 2944.3,3731.11 "/>
   <rect class="fil0 str0" x="1297.28" y="741.33" width="463.03" height="418.92"/>
   <rect class="fil0 str0" x="1297.28" y="2293.55" width="463.03" height="418.92"/>
   <g>
    <path class="fil1" d="M1857.33 766.56l-25.4 -25.23 25.4 -25.23 163.16 0 0 50.46 -163.16 0zm-25.4 -25.23l0 -25.23 25.4 0 -25.4 25.23zm50.8 418.92l-25.4 25.23 -25.4 -25.23 0 -418.92 50.8 0 0 418.92zm-25.4 25.23l-25.4 0 0 -25.23 25.4 25.23zm163.16 -50.46l25.4 25.23 -25.4 25.23 -163.16 0 0 -50.46 163.16 0zm25.4 25.23l0 25.23 -25.4 0 25.4 -25.23zm-50.8 -418.92l25.4 -25.23 25.4 25.23 0 418.92 -50.8 0 0 -418.92zm25.4 -25.23l25.4 0 0 25.23 -25.4 -25.23z"/>
   </g>
   <g>
    <path class="fil1" d="M1857.33 2318.78l-25.4 -25.23 25.4 -25.23 163.16 0 0 50.46 -163.16 0zm-25.4 -25.23l0 -25.23 25.4 0 -25.4 25.23zm50.8 418.92l-25.4 25.23 -25.4 -25.23 0 -418.92 50.8 0 0 418.92zm-25.4 25.23l-25.4 0 0 -25.23 25.4 25.23zm163.16 -50.46l25.4 25.23 -25.4 25.23 -163.16 0 0 -50.46 163.16 0zm25.4 25.23l0 25.23 -25.4 0 25.4 -25.23zm-50.8 -418.92l25.4 -25.23 25.4 25.23 0 418.92 -50.8 0 0 -418.92zm25.4 -25.23l25.4 0 0 25.23 -25.4 -25.23z"/>
   </g>
   <g>
    <path class="fil1" d="M1297.29 1553.69l-25.4 -25.23 25.4 -25.23 163.16 0 0 50.46 -163.16 0zm-25.4 -25.23l0 -25.23 25.4 0 -25.4 25.23zm50.8 418.92l-25.4 25.23 -25.4 -25.23 0 -418.92 50.8 0 0 418.92zm-25.4 25.23l-25.4 0 0 -25.23 25.4 25.23zm163.16 -50.46l25.4 25.23 -25.4 25.23 -163.16 0 0 -50.46 163.16 0zm25.4 25.23l0 25.23 -25.4 0 25.4 -25.23zm-50.8 -418.92l25.4 -25.23 25.4 25.23 0 418.92 -50.8 0 0 -418.92zm25.4 -25.23l25.4 0 0 25.23 -25.4 -25.23z"/>
   </g>
   <g>
    <path class="fil1" d="M1835.25 1553.69l-25.4 -25.23 25.4 -25.23 163.16 0 0 50.46 -163.16 0zm-25.4 -25.23l0 -25.23 25.4 0 -25.4 25.23zm50.8 418.92l-25.4 25.23 -25.4 -25.23 0 -418.92 50.8 0 0 418.92zm-25.4 25.23l-25.4 0 0 -25.23 25.4 25.23zm163.16 -50.46l25.4 25.23 -25.4 25.23 -163.16 0 0 -50.46 163.16 0zm25.4 25.23l0 25.23 -25.4 0 25.4 -25.23zm-50.8 -418.92l25.4 -25.23 25.4 25.23 0 418.92 -50.8 0 0 -418.92zm25.4 -25.23l25.4 0 0 25.23 -25.4 -25.23z"/>
   </g>
   <g>
    <path class="fil1" d="M2373.21 1553.69l-25.4 -25.23 25.4 -25.23 163.16 0 0 50.46 -163.16 0zm-25.4 -25.23l0 -25.23 25.4 0 -25.4 25.23zm50.8 418.92l-25.4 25.23 -25.4 -25.23 0 -418.92 50.8 0 0 418.92zm-25.4 25.23l-25.4 0 0 -25.23 25.4 25.23zm163.16 -50.46l25.4 25.23 -25.4 25.23 -163.16 0 0 -50.46 163.16 0zm25.4 25.23l0 25.23 -25.4 0 25.4 -25.23zm-50.8 -418.92l25.4 -25.23 25.4 25.23 0 418.92 -50.8 0 0 -418.92zm25.4 -25.23l25.4 0 0 25.23 -25.4 -25.23z"/>
   </g>
   <g>
    <path class="fil1" d="M2108.71 766.56l-25.4 -25.23 25.4 -25.23 163.16 0 0 50.46 -163.16 0zm-25.4 -25.23l0 -25.23 25.4 0 -25.4 25.23zm50.8 418.92l-25.4 25.23 -25.4 -25.23 0 -418.92 50.8 0 0 418.92zm-25.4 25.23l-25.4 0 0 -25.23 25.4 25.23zm163.16 -50.46l25.4 25.23 -25.4 25.23 -163.16 0 0 -50.46 163.16 0zm25.4 25.23l0 25.23 -25.4 0 25.4 -25.23zm-50.8 -418.92l25.4 -25.23 25.4 25.23 0 418.92 -50.8 0 0 -418.92zm25.4 -25.23l25.4 0 0 25.23 -25.4 -25.23z"/>
   </g>
   <g>
    <path class="fil1" d="M2108.71 2318.78l-25.4 -25.23 25.4 -25.23 163.16 0 0 50.46 -163.16 0zm-25.4 -25.23l0 -25.23 25.4 0 -25.4 25.23zm50.8 418.92l-25.4 25.23 -25.4 -25.23 0 -418.92 50.8 0 0 418.92zm-25.4 25.23l-25.4 0 0 -25.23 25.4 25.23zm163.16 -50.46l25.4 25.23 -25.4 25.23 -163.16 0 0 -50.46 163.16 0zm25.4 25.23l0 25.23 -25.4 0 25.4 -25.23zm-50.8 -418.92l25.4 -25.23 25.4 25.23 0 418.92 -50.8 0 0 -418.92zm25.4 -25.23l25.4 0 0 25.23 -25.4 -25.23z"/>
   </g>
   <g>
    <path class="fil1" d="M2356.73 2386.35l-34.72 -8.7 8.94 -34.66 140.24 -83.39 25.78 43.36 -140.24 83.39zm-34.72 -8.7l-12.89 -21.68 21.83 -12.98 -8.94 34.66zm257.78 334.11l-8.94 34.66 -34.72 -8.7 -214.12 -360.07 43.66 -25.96 214.12 360.07zm-8.94 34.66l-21.83 12.98 -12.89 -21.68 34.72 8.7zm114.46 -126.75l34.72 8.7 -8.94 34.66 -140.24 83.39 -25.78 -43.36 140.24 -83.39zm34.72 8.7l12.89 21.68 -21.83 12.98 8.94 -34.66zm-257.78 -334.11l8.94 -34.66 34.72 8.7 214.12 360.07 -43.66 25.96 -214.12 -360.07zm8.94 -34.66l21.83 -12.98 12.89 21.68 -34.72 -8.7z"/>
   </g>
   <g>
    <path class="fil1" d="M1566.27 1553.69l-25.4 -25.23 25.4 -25.23 163.16 0 0 50.46 -163.16 0zm-25.4 -25.23l0 -25.23 25.4 0 -25.4 25.23zm50.8 418.92l-25.4 25.23 -25.4 -25.23 0 -418.92 50.8 0 0 418.92zm-25.4 25.23l-25.4 0 0 -25.23 25.4 25.23zm163.16 -50.46l25.4 25.23 -25.4 25.23 -163.16 0 0 -50.46 163.16 0zm25.4 25.23l0 25.23 -25.4 0 25.4 -25.23zm-50.8 -418.92l25.4 -25.23 25.4 25.23 0 418.92 -50.8 0 0 -418.92zm25.4 -25.23l25.4 0 0 25.23 -25.4 -25.23z"/>
   </g>
   <g>
    <path class="fil1" d="M2104.23 1553.69l-25.4 -25.23 25.4 -25.23 163.16 0 0 50.46 -163.16 0zm-25.4 -25.23l0 -25.23 25.4 0 -25.4 25.23zm50.8 418.92l-25.4 25.23 -25.4 -25.23 0 -418.92 50.8 0 0 418.92zm-25.4 25.23l-25.4 0 0 -25.23 25.4 25.23zm163.16 -50.46l25.4 25.23 -25.4 25.23 -163.16 0 0 -50.46 163.16 0zm25.4 25.23l0 25.23 -25.4 0 25.4 -25.23zm-50.8 -418.92l25.4 -25.23 25.4 25.23 0 418.92 -50.8 0 0 -418.92zm25.4 -25.23l25.4 0 0 25.23 -25.4 -25.23z"/>
   </g>
   <g>
    <path class="fil1" d="M2642.23 1553.69l-25.4 -25.23 25.4 -25.23 163.16 0 0 50.46 -163.16 0zm-25.4 -25.23l0 -25.23 25.4 0 -25.4 25.23zm50.8 418.92l-25.4 25.23 -25.4 -25.23 0 -418.92 50.8 0 0 418.92zm-25.4 25.23l-25.4 0 0 -25.23 25.4 25.23zm163.16 -50.46l25.4 25.23 -25.4 25.23 -163.16 0 0 -50.46 163.16 0zm25.4 25.23l0 25.23 -25.4 0 25.4 -25.23zm-50.8 -418.92l25.4 -25.23 25.4 25.23 0 418.92 -50.8 0 0 -418.92zm25.4 -25.23l25.4 0 0 25.23 -25.4 -25.23z"/>
   </g>
  </g>
 </g>
</svg>
