<?xml version="1.0" encoding="UTF-8"?>
<!DOCTYPE svg PUBLIC "-//W3C//DTD SVG 1.1//EN" "http://www.w3.org/Graphics/SVG/1.1/DTD/svg11.dtd">
<!-- Creator: CorelDRAW 2020 (64 Bit) -->
<svg xmlns="http://www.w3.org/2000/svg" xml:space="preserve" width="42.3332mm" height="42.3332mm" version="1.1" style="shape-rendering:geometricPrecision; text-rendering:geometricPrecision; image-rendering:optimizeQuality; fill-rule:evenodd; clip-rule:evenodd"
viewBox="0 0 4233.32 4233.32"
 xmlns:xlink="http://www.w3.org/1999/xlink"
 xmlns:xodm="http://www.corel.com/coreldraw/odm/2003">
 <defs>
  <style type="text/css">
   <![CDATA[
    .fil0 {fill:black}
   ]]>
  </style>
 </defs>
 <g id="Camada_x0020_1">
  <metadata id="CorelCorpID_0Corel-Layer"/>
  <g id="_2550446345872">
   <path class="fil0" d="M2958.61 3718.29l-1.61 -3201.08 -1681.11 -2.11 -1.19 3202.11 1683.91 1.08zm-1558.52 -162.11l1428.61 0 2.93 -837.41 -1430.73 0 -0.81 837.41zm-0.12 -1851.17c11.36,43.63 -8.88,782.45 5.69,828.27l1420.87 0c9.13,-23.6 10.02,-804.74 -0.13,-832.57 -151.88,0 -1398.56,-8.2 -1426.43,4.3zm0.58 -189.91l1428.15 0 2.44 -836.3 -1432.4 0 1.81 836.3z"/>
   <g>
    <rect class="fil0" x="1470.08" y="2880.45" width="199.44" height="615.89" rx="20.93" ry="20.93"/>
    <rect class="fil0" x="2013.43" y="2880.45" width="199.44" height="615.89" rx="20.93" ry="20.93"/>
    <rect class="fil0" x="1739.22" y="2880.45" width="199.44" height="615.89" rx="20.93" ry="20.93"/>
    <rect class="fil0" x="2282.57" y="2880.45" width="199.44" height="615.89" rx="20.93" ry="20.93"/>
    <rect class="fil0" x="2555.09" y="2880.45" width="199.44" height="615.89" rx="20.93" ry="20.93"/>
   </g>
   <rect class="fil0" x="1470.08" y="1858.08" width="199.44" height="615.89" rx="20.93" ry="20.93"/>
   <rect class="fil0" x="2013.43" y="1858.08" width="199.44" height="615.89" rx="20.93" ry="20.93"/>
   <rect class="fil0" x="1739.22" y="1858.08" width="199.44" height="615.89" rx="20.93" ry="20.93"/>
   <rect class="fil0" transform="matrix(0.433859 -0.271486 0.271486 0.433859 2256.41 1944.46)" width="389.68" height="1203.38" rx="40.89" ry="40.89"/>
   <rect class="fil0" x="1470.08" y="839.1" width="199.44" height="615.89" rx="20.93" ry="20.93"/>
   <rect class="fil0" x="2013.43" y="839.1" width="199.44" height="615.89" rx="20.93" ry="20.93"/>
   <rect class="fil0" x="1739.22" y="839.1" width="199.44" height="615.89" rx="20.93" ry="20.93"/>
  </g>
 </g>
</svg>
