<?xml version="1.0" encoding="UTF-8"?>
<!DOCTYPE svg PUBLIC "-//W3C//DTD SVG 1.1//EN" "http://www.w3.org/Graphics/SVG/1.1/DTD/svg11.dtd">
<!-- Creator: CorelDRAW 2020 (64 Bit) -->
<svg xmlns="http://www.w3.org/2000/svg" xml:space="preserve" width="42.3332mm" height="42.3332mm" version="1.1" style="shape-rendering:geometricPrecision; text-rendering:geometricPrecision; image-rendering:optimizeQuality; fill-rule:evenodd; clip-rule:evenodd"
viewBox="0 0 4233.32 4233.32"
 xmlns:xlink="http://www.w3.org/1999/xlink"
 xmlns:xodm="http://www.corel.com/coreldraw/odm/2003">
 <defs>
  <style type="text/css">
   <![CDATA[
    .fil0 {fill:black}
   ]]>
  </style>
 </defs>
 <g id="Camada_x0020_1">
  <metadata id="CorelCorpID_0Corel-Layer"/>
  <g id="_2551018102992">
   <path class="fil0" d="M1579.7 1127.23c-112.41,0 -115.12,-10.05 -171.59,56.72l-333.87 368.64c-34.25,33.56 -73.27,83.5 -107.61,121.18 -64.61,70.92 -288.24,-5.31 -288.11,424.81 0.02,76.2 0,152.4 0,228.6 -0.01,72.68 -14.36,164.06 41.29,197.66 41.6,25.12 1285.15,12.18 1391.38,12.18 99.95,0 1352.52,7.8 1388.81,-6.58 64.45,-25.54 53.36,-110.63 53.33,-186.33 -0.1,-265.55 43.73,-542.01 -193.75,-630.4 -109.06,-40.58 -45.53,9.48 -143.84,-93.02l-389 -432.28c-61.27,-70.05 -54.17,-61.18 -175.58,-61.18 0,-82.62 -0.01,-165.23 0,-247.85 0.02,-251.46 29.88,-203.2 -531.5,-203.2 -563.02,0 -540.02,-48.59 -539.96,194.74 0.01,85.43 0,170.87 0,256.31zm-730.69 1240.63l2540.64 0c-0.3,-71.25 3.95,-376.72 -19.75,-427.51 -51.72,-110.83 -219.01,-80 -361.24,-80 -592.67,0 -1185.33,0 -1778,0 -141.18,0 -312.07,-30.11 -366.96,74.37 -26.43,50.3 -22.45,359.47 -14.69,433.14zm333.17 -678.41l1866.68 0.45c-21.2,-34.01 -56.89,-64.13 -84.14,-97.77l-184.79 -204.59c-27.14,-26.41 -59.5,-91.06 -101.47,-91.06l-1126.06 0c-33.53,0 -111.14,99.29 -141.27,135.92 -16.72,20.31 -31.79,31.88 -49.54,51.88l-179.41 205.17zm566.68 -564.45l32.1 2.68 668.9 -0.45 32.16 -1.72 -0.03 -278.34 -730.63 -1.76 -2.5 279.59z"/>
   <path class="fil0" d="M1581.51 2725.02c-124.36,52.67 -16.6,137.41 -1.23,208.77 33.78,156.85 -180.16,226.49 -104.2,477.05 70.93,234 248.71,152.52 210.22,36.77 -13.2,-39.72 -42.98,-44.87 -52.48,-108.86 -22.68,-152.81 185.44,-225.84 103.54,-476.78 -19.98,-61.22 -76.37,-170.61 -155.85,-136.95z"/>
   <path class="fil0" d="M2089.26 2724.86c-125.28,51.85 -16.43,137.8 -1.49,209.27 33.88,162.07 -181.92,218.8 -103.71,477.5 70.97,234.76 247.78,150.06 209.67,36.4 -12.57,-37.5 -42.16,-49.09 -52.2,-109.03 -17.41,-103.9 51.76,-147.35 85.88,-218.37 36.26,-75.46 45.21,-173.6 17.5,-258.19 -20.04,-61.17 -76.31,-170.42 -155.65,-137.58z"/>
   <path class="fil0" d="M2597.09 2724.78c-127.63,51.36 -14.93,139.55 -1.42,209.71 20.87,108.35 -46.73,149.23 -81.57,218.98 -90.38,180.91 7.32,450.99 144.7,400.12 109.31,-40.48 -1.55,-164.54 -9.8,-214.25 -25.56,-154 185.08,-226.94 103.46,-476.47 -20.07,-61.36 -76.16,-169.97 -155.37,-138.09z"/>
   <path class="fil0" d="M1074.88 2034.44c-109.9,36.31 -49.58,196.68 54.84,158.3 100.94,-37.1 49.82,-192.89 -54.84,-158.3z"/>
   <path class="fil0" d="M1751.88 2034.19c-105.84,33.8 -56.68,189.57 49.15,160.83 99.17,-26.93 62.3,-196.42 -49.15,-160.83z"/>
   <path class="fil0" d="M1413.46 2034.35c-105.62,34.15 -56.43,188.87 49,160.75 100.09,-26.69 62.22,-196.7 -49,-160.75z"/>
  </g>
 </g>
</svg>
