<?xml version="1.0" encoding="UTF-8"?>
<!DOCTYPE svg PUBLIC "-//W3C//DTD SVG 1.1//EN" "http://www.w3.org/Graphics/SVG/1.1/DTD/svg11.dtd">
<!-- Creator: CorelDRAW 2020 (64 Bit) -->
<svg xmlns="http://www.w3.org/2000/svg" xml:space="preserve" width="42.3332mm" height="42.3332mm" version="1.1" style="shape-rendering:geometricPrecision; text-rendering:geometricPrecision; image-rendering:optimizeQuality; fill-rule:evenodd; clip-rule:evenodd"
viewBox="0 0 4233.32 4233.32"
 xmlns:xlink="http://www.w3.org/1999/xlink"
 xmlns:xodm="http://www.corel.com/coreldraw/odm/2003">
 <defs>
  <style type="text/css">
   <![CDATA[
    .fil0 {fill:#020202}
   ]]>
  </style>
 </defs>
 <g id="Camada_x0020_1">
  <metadata id="CorelCorpID_0Corel-Layer"/>
  <g id="_2550505356864">
   <path class="fil0" d="M1714.68 1802.37l-473.62 0.78c-5.42,-118.2 34.69,-292.71 -120.26,-358.12 -60.12,-25.37 -232.13,-23.94 -284.33,-0.79 -163.58,72.55 -111.25,244.2 -121.99,358.51 -71.82,5.03 -125.14,35.36 -153.68,73.96 -47.41,64.11 -45.52,91.81 -45.52,185.34l0 1146.73c0,85.49 -5.17,129.89 40.6,190.26 27.9,36.8 75.59,75.84 147.78,79.82 72.97,4.02 156.88,0.36 231.06,0.36l2524.34 0c91.87,0 123.78,0.94 185.47,-46.45 37.87,-29.08 71.84,-85.25 72.4,-158.52 2.93,-380.15 -0.05,-769.6 -0.05,-1150.63 0,-69.53 8.38,-149.42 -19.8,-207.25 -68.62,-140.81 -210.97,-113.18 -349.62,-113.18 -69.63,0 -163.05,5.28 -229.76,-0.79 -5.02,-39.42 -1.12,-565.01 -1.12,-652.34 0,-138.74 28.45,-284.11 -80,-358.67 -57.91,-39.81 -101,-38.74 -181.67,-38.74l-873.52 0c-82.78,0 -122.2,-3.45 -183.18,37.22 -111.23,74.18 -82.33,219.43 -82.33,356.34 0,87.37 4.06,617.58 -1.2,656.16zm102.32 0.55l1198.45 0.27c4.6,-40.68 1.06,-712.57 1.06,-772.42 0,-73.96 10.28,-116.14 -36.39,-155.98 -38.15,-32.57 -118.89,-21.98 -175.24,-21.98l-773.46 0c-54.79,0 -136.37,-10.01 -174.9,18.57 -50.25,37.28 -40.58,82.04 -40.58,155.54 0,60.81 -3.59,734.84 1.06,776zm-201.15 112.91l-0.02 192.4c0.01,78.13 95.67,70.22 153.92,70.22l1131.33 0c87.88,0 260.47,19.65 306.79,-32.97 16.43,-18.66 8.77,-183.11 8.76,-218.11l-0.02 -23.9 -1600.75 -0.14 -0.01 12.5zm1700.84 -12.26c-0.16,52.82 -0.01,105.66 -0.01,158.48 0,84.58 7.04,157.73 -113.53,201.92 -49.41,18.11 -93.72,14.65 -148.14,14.65l-1273.72 0c-83.3,0 -183.9,2.95 -242.02,-78.43 -27.97,-39.16 -23.48,-80.49 -23.48,-134.29 0,-54.11 0.14,-108.23 -0.03,-162.33l-274.71 -0.25c-3.69,134.49 -0.36,273.81 -0.36,408.86 0,71.26 6.54,757.07 -4.62,809.62 -11.63,54.75 -46.87,98.24 -82.1,121.54 -59.83,39.58 -94.28,35.77 -173.08,35.76 -70.42,0 -121.77,1.37 -173.41,-31.6 -114.41,-73.03 -92.09,-190.93 -92.09,-315.78 0,-341.51 -3.47,-687.88 0.09,-1028.07 -58.08,2.81 -96.55,39.58 -99.84,96.74 -3.62,62.87 -0.3,136.18 -0.3,200.19l0 988.96c0,195.96 24.53,189.51 207.78,189.51l2582.06 0c59.82,0 134.62,9.87 174.72,-22.5 46.96,-37.92 36.93,-96.06 36.93,-163.16 0,-264.24 0,-528.47 0,-792.7 0,-128.73 5.39,-269.3 -0.19,-396.54 -2.58,-58.8 -40.68,-98.05 -99.68,-100.75 -61.73,-2.83 -138.01,-1.5 -200.27,0.17zm-2413.14 -374.4c-95.51,12.99 -88.12,102.53 -88.12,159.62l0 1235.23c0,122.72 -28.82,254.81 115.41,254.99 34.29,0.04 95.14,3.36 126.44,-1.63 92.33,-14.73 83.33,-108 83.33,-161l0 -1235.24c0,-119.86 28.15,-252.86 -113.38,-252.98 -34.26,-0.03 -92.81,-3.18 -123.68,1.01z"/>
   <path class="fil0" d="M1592.39 2456.85c-101.46,27.14 -76.65,133.78 -76.6,247.83 0.06,122.96 -9.68,199.46 126.96,199.14 47.67,-0.11 616.27,4.46 646.59,-2.54 99.75,-23.02 76.88,-144.41 76.88,-246.62 0,-46.78 8.08,-112.02 -12.38,-149.23 -21.97,-39.96 -58.23,-52.14 -114.62,-51.95 -83.1,0.29 -613.25,-5.62 -646.83,3.37zm23.53 346.73l648.85 0.13 1.62 -25.9 -0.25 -200.11 -0.04 -23.53 -650.27 -0.58 0.09 249.99z"/>
   <path class="fil0" d="M1549.35 3007.32c-42.31,16.34 -33.38,51.29 -33.63,101.47 -0.28,54.44 15.06,70.51 69.28,70.36 309.91,-0.83 305.41,28.04 306.06,-105.21 0.26,-51.32 -14.71,-70.47 -67.38,-70.26 -42.87,0.17 -252.2,-4.91 -274.33,3.64zm16.49 121.33c44.13,0.96 246.6,5.56 275.15,-2.06l-0.03 -70.36c-26.79,-7.21 -233.11,-3.24 -275.19,-2.01l0.07 74.43z"/>
   <path class="fil0" d="M2004.12 1607.13c-15.61,8.67 -17.52,25.47 -6.29,38.17 12.63,14.28 138.47,7.9 160.58,7.9 94.03,0 657.2,3.08 669.52,-2.95 12.48,-6.11 18.81,-24.32 7.96,-38.33 -14.59,-18.84 -113.38,-3.36 -161.84,-7.18 -76.56,-6.03 -660.23,-2.99 -669.93,2.39z"/>
   <path class="fil0" d="M2027.57 1202.99l777.31 0c51.67,0 47.46,-50.14 3.85,-50.14l-785.01 0c-43.65,0 -47.81,50.14 3.85,50.14z"/>
   <path class="fil0" d="M2027.57 1052.9l777.31 0c51.32,0 47.75,-50.11 3.85,-50.11l-785.97 0c-43.4,0 -46,50.11 4.81,50.11z"/>
   <path class="fil0" d="M2023.72 1503.13l785.97 0c41.04,0 48.24,-50.12 -4.81,-50.12l-779.23 0c-47.51,0 -45.55,50.12 -1.93,50.12z"/>
   <path class="fil0" d="M1993.07 1314.39c-4.39,30.72 5.27,38.6 34.5,38.6l777.31 0c29.04,0 38.94,-7.75 34.44,-38.43 -12.12,-9 -12.11,-11.64 -30.59,-11.64l-785.01 0c-18.07,0 -18.71,2.74 -30.65,11.47z"/>
   <path class="fil0" d="M2550 2456.5c-25.04,9.03 -33.83,26.69 -33.85,59.45 -0.02,68.58 -14.24,113.38 73.22,112.88 22.28,-0.13 75.54,1.9 94.23,-4.16 19.04,-6.19 32.37,-31.34 32.91,-58.32 1.48,-73.86 10.34,-113.38 -73.23,-112.91 -23.06,0.13 -75.02,-3.53 -93.28,3.06zm16.42 121.85l101.77 0.64 -2.31 -75.11 -99.72 -0.25 0.26 74.72z"/>
   <path class="fil0" d="M2550 2706.62c-25.04,9.04 -33.83,26.7 -33.85,59.45 -0.02,68.59 -14.24,113.39 73.22,112.88 22.28,-0.12 75.54,1.91 94.23,-4.16 19.04,-6.18 32.37,-31.33 32.91,-58.32 1.48,-73.86 10.34,-113.37 -73.23,-112.91 -23.06,0.13 -75.02,-3.53 -93.28,3.06zm16.42 121.85l101.77 0.65 -2.31 -75.11 -99.72 -0.25 0.26 74.71z"/>
   <path class="fil0" d="M2550 2979.84c-25.04,9.03 -33.83,26.69 -33.85,59.45 -0.02,68.58 -14.24,113.38 73.22,112.88 22.28,-0.13 75.54,1.9 94.23,-4.17 19.04,-6.18 32.37,-31.33 32.91,-58.32 1.48,-73.86 10.34,-113.37 -73.23,-112.9 -23.06,0.12 -75.02,-3.53 -93.28,3.06zm16.42 121.85l101.77 0.64 -2.31 -75.11 -99.72 -0.25 0.26 74.72z"/>
   <path class="fil0" d="M2816.43 2519.98c0,120.97 6.7,108.76 142.37,108.79 66.87,0.01 57.74,-51.77 57.74,-108.79 0,-71.68 -35.7,-66.48 -100.06,-66.48 -64.47,0 -100.05,-5.1 -100.05,66.48zm50.05 58.4l99.95 0.25 0.03 -74.77 -100.14 -0.23 0.16 74.75z"/>
   <path class="fil0" d="M2816.43 2770.1c0,120.98 6.7,108.76 142.37,108.79 66.87,0.02 57.74,-51.76 57.74,-108.79 0,-71.68 -35.7,-66.48 -100.06,-66.48 -64.47,0 -100.05,-5.1 -100.05,66.48zm50.05 58.4l99.95 0.25 0.03 -74.77 -100.14 -0.23 0.16 74.75z"/>
   <path class="fil0" d="M2816.43 3043.31c0,120.98 6.7,108.77 142.37,108.8 66.87,0.01 57.74,-51.77 57.74,-108.8 0,-71.67 -35.7,-66.47 -100.06,-66.47 -64.47,0 -100.05,-5.11 -100.05,66.47zm50.05 58.41l99.95 0.25 0.03 -74.77 -100.14 -0.24 0.16 74.76z"/>
   <path class="fil0" d="M3174.3 2628.79c118.48,-0.06 142.3,13.92 142.38,-89.58 0.08,-97.95 -22.45,-85.72 -138.53,-85.72 -58.98,0.01 -61.6,30.13 -61.56,85.72 0.03,52.34 1.85,89.61 57.71,89.58zm-7.69 -50.46l100.13 0.28 -0.1 -74.71 -99.93 -0.24 -0.1 74.67z"/>
   <path class="fil0" d="M3174.3 2878.91c118.48,-0.05 142.3,13.93 142.38,-89.57 0.08,-97.96 -22.45,-85.72 -138.53,-85.72 -58.98,0 -61.6,30.13 -61.56,85.72 0.03,52.34 1.85,89.61 57.71,89.57zm-7.69 -50.45l100.13 0.27 -0.1 -74.7 -99.93 -0.24 -0.1 74.67z"/>
   <path class="fil0" d="M3174.3 3152.13c118.48,-0.06 142.3,13.92 142.38,-89.58 0.08,-97.95 -22.45,-85.72 -138.53,-85.72 -58.98,0.01 -61.6,30.13 -61.56,85.72 0.03,52.34 1.85,89.61 57.71,89.58zm-7.69 -50.46l100.13 0.27 -0.1 -74.7 -99.93 -0.24 -0.1 74.67z"/>
  </g>
 </g>
</svg>
