<?xml version="1.0" encoding="UTF-8"?>
<!DOCTYPE svg PUBLIC "-//W3C//DTD SVG 1.1//EN" "http://www.w3.org/Graphics/SVG/1.1/DTD/svg11.dtd">
<!-- Creator: CorelDRAW 2020 (64 Bit) -->
<svg xmlns="http://www.w3.org/2000/svg" xml:space="preserve" width="42.3332mm" height="42.3332mm" version="1.1" style="shape-rendering:geometricPrecision; text-rendering:geometricPrecision; image-rendering:optimizeQuality; fill-rule:evenodd; clip-rule:evenodd"
viewBox="0 0 4233.32 4233.32"
 xmlns:xlink="http://www.w3.org/1999/xlink"
 xmlns:xodm="http://www.corel.com/coreldraw/odm/2003">
 <defs>
  <style type="text/css">
   <![CDATA[
    .str0 {stroke:black;stroke-width:67.73;stroke-miterlimit:22.9256}
    .fil0 {fill:none}
    .fil2 {fill:black}
    .fil1 {fill:black;fill-rule:nonzero}
   ]]>
  </style>
 </defs>
 <g id="Camada_x0020_1">
  <metadata id="CorelCorpID_0Corel-Layer"/>
  <rect class="fil0 str0" x="785.95" y="877.25" width="2661.42" height="2416.16"/>
  <g>
   <path class="fil1" d="M3447.37 1613.02l-2661.42 0 0 -67.72 2661.42 0 33.89 33.86 -33.89 33.86zm0 -67.72l33.89 0 0 33.86 -33.89 -33.86zm-33.89 1748.1l0 -1714.24 67.78 0 0 1714.24 -33.89 33.86 -33.89 -33.86zm67.78 0l0 33.86 -33.89 0 33.89 -33.86zm-2695.31 -33.86l2661.42 0 0 67.72 -2661.42 0 -33.89 -33.86 33.89 -33.86zm0 67.72l-33.89 0 0 -33.86 33.89 33.86zm33.89 -1748.1l0 1714.24 -67.78 0 0 -1714.24 33.89 -33.86 33.89 33.86zm-67.78 0l0 -33.86 33.89 0 -33.89 33.86z"/>
  </g>
  <g>
   <path class="fil1" d="M3122.92 1900.71l-2012.52 0 0 -67.74 2012.52 0 34.07 33.87 -34.07 33.87zm0 -67.74l34.07 0 0 33.87 -34.07 -33.87zm-34.07 1123.38l0 -1089.51 68.14 0 0 1089.51 -34.07 33.87 -34.07 -33.87zm68.14 0l0 33.87 -34.07 0 34.07 -33.87zm-2046.59 -33.87l2012.52 0 0 67.74 -2012.52 0 -34.07 -33.87 34.07 -33.87zm0 67.74l-34.07 0 0 -33.87 34.07 33.87zm34.07 -1123.38l0 1089.51 -68.14 0 0 -1089.51 34.07 -33.87 34.07 33.87zm-68.14 0l0 -33.87 34.07 0 -34.07 33.87z"/>
  </g>
  <g>
   <path class="fil1" d="M1252.39 3327.26l-283.97 0 0 -67.72 283.97 0 33.65 33.86 -33.65 33.86zm0 -67.72l33.65 0 0 33.86 -33.65 -33.86zm-33.65 202.49l0 -168.63 67.3 0 0 168.63 -33.65 33.86 -33.65 -33.86zm67.3 0l0 33.86 -33.65 0 33.65 -33.86zm-317.62 -33.86l283.97 0 0 67.72 -283.97 0 -33.65 -33.86 33.65 -33.86zm0 67.72l-33.65 0 0 -33.86 33.65 33.86zm33.65 -202.49l0 168.63 -67.3 0 0 -168.63 33.65 -33.86 33.65 33.86zm-67.3 0l0 -33.86 33.65 0 -33.65 33.86z"/>
  </g>
  <g>
   <path class="fil1" d="M2962.41 3327.26l-33.65 -33.86 33.65 -33.86 283.97 0 0 67.72 -283.97 0zm-33.65 -33.86l0 -33.86 33.65 0 -33.65 33.86zm67.3 168.63l-33.65 33.86 -33.65 -33.86 0 -168.63 67.3 0 0 168.63zm-33.65 33.86l-33.65 0 0 -33.86 33.65 33.86zm283.97 -67.72l33.65 33.86 -33.65 33.86 -283.97 0 0 -67.72 283.97 0zm33.65 33.86l0 33.86 -33.65 0 33.65 -33.86zm-67.3 -168.63l33.65 -33.86 33.65 33.86 0 168.63 -67.3 0 0 -168.63zm33.65 -33.86l33.65 0 0 33.86 -33.65 -33.86z"/>
  </g>
  <circle class="fil2" cx="1128.92" cy="1285.31" r="98.77"/>
  <circle class="fil2" cx="1869.1" cy="1285.31" r="98.77"/>
  <circle class="fil2" cx="1499.01" cy="1285.31" r="98.77"/>
  <circle class="fil2" cx="3122.92" cy="1285.31" r="98.77"/>
  <circle class="fil2" cx="2239.18" cy="1285.31" r="98.77"/>
  <g>
   <path class="fil1" d="M1890.83 911.12l-626.21 0 0 -67.74 626.21 0 0 0 0 67.74zm-11.73 -64.75l85.22 0 0 0 -0.08 2.95 -0.22 2.96 -0.38 2.9 -0.51 2.86 -0.65 2.8 -0.8 2.83 -0.98 2.87 -1.07 2.68 -1.19 2.61 -1.38 2.71 -1.48 2.54 -1.58 2.49 -1.82 2.55 -1.91 2.44 -2.12 2.44 -2.16 2.25 -2.28 2.19 -2.57 2.23 -2.66 2.09 -2.9 2.06 -2.89 1.84 -3.05 1.77 -3.37 1.72 -3.32 1.51 -3.51 1.4 -3.91 1.33 -3.9 1.11 -3.91 0.9 -4.09 0.74 -4.18 0.53 -4.32 0.34 -4.3 0.11 0 -67.74 -1.14 0.03 -1.18 0.1 -1.1 0.13 -1.07 0.2 -0.91 0.2 -0.98 0.29 -1.05 0.35 -0.71 0.28 -0.58 0.27 -0.71 0.36 -0.47 0.27 -0.37 0.24 -0.48 0.34 -0.32 0.25 -0.33 0.29 -0.14 0.13 -0.1 0.11 -0.18 0.2 -0.07 0.1 -0.1 0.13 0.02 -0.03 0.02 -0.04 -0.02 0.05 0.05 -0.13 0.05 -0.12 0 0.01 0.02 -0.09 0.05 -0.2 0.03 -0.16 0.02 -0.18 0.02 -0.18 0 -0.21 0 0zm85.22 -22.1l0 22.1 -85.22 0 0 -22.1 0 0 85.22 0zm-95.59 -19.11l0 -67.74 0 0 5.4 0.14 5.4 0.41 5.37 0.69 5.23 0.94 4.97 1.16 4.9 1.39 4.81 1.64 4.51 1.79 4.48 2.02 4.28 2.21 3.98 2.29 3.85 2.48 3.71 2.64 3.52 2.77 3.21 2.79 3.15 3 2.96 3.11 2.69 3.1 2.6 3.29 2.41 3.39 2.2 3.43 2.01 3.47 1.87 3.63 1.67 3.7 1.46 3.69 1.31 3.82 1.09 3.85 0.9 3.86 0.72 3.98 0.52 4.05 0.3 4.06 0.11 4.06 -85.22 0 -0.03 -1.38 -0.1 -1.3 -0.16 -1.23 -0.22 -1.22 -0.3 -1.26 -0.33 -1.17 -0.37 -1.1 -0.44 -1.11 -0.45 -1 -0.49 -0.93 -0.55 -0.97 -0.56 -0.87 -0.55 -0.77 -0.56 -0.71 -0.65 -0.74 -0.54 -0.59 -0.55 -0.5 -0.63 -0.55 -0.48 -0.39 -0.45 -0.32 -0.45 -0.28 -0.46 -0.27 -0.28 -0.15 -0.22 -0.1 -0.29 -0.11 -0.11 -0.04 -0.12 -0.03 -0.15 -0.04 0.03 0 0.09 0.01 0.04 0.01 -0.04 0 0 0zm-582.01 -67.74l582.01 0 0 67.74 -582.01 0 0 0 0 -67.74zm-10.37 86.85l-85.22 0 0 0 0.11 -4.06 0.3 -4.06 0.52 -4.05 0.72 -3.98 0.9 -3.86 1.09 -3.85 1.31 -3.82 1.46 -3.69 1.67 -3.7 1.87 -3.63 2.01 -3.47 2.2 -3.43 2.41 -3.39 2.6 -3.29 2.69 -3.1 2.96 -3.11 3.15 -3 3.21 -2.79 3.52 -2.77 3.71 -2.64 3.85 -2.48 3.98 -2.29 4.28 -2.21 4.48 -2.02 4.51 -1.79 4.81 -1.64 4.9 -1.39 4.97 -1.16 5.23 -0.94 5.37 -0.69 5.4 -0.41 5.4 -0.14 0 67.74 -0.04 0 0.04 -0.01 0.09 -0.01 0.03 0 -0.15 0.04 -0.12 0.03 -0.11 0.04 -0.29 0.11 -0.22 0.1 -0.28 0.15 -0.46 0.27 -0.45 0.28 -0.45 0.32 -0.48 0.39 -0.63 0.55 -0.55 0.5 -0.54 0.59 -0.65 0.74 -0.56 0.71 -0.55 0.77 -0.56 0.87 -0.55 0.97 -0.49 0.93 -0.45 1 -0.44 1.11 -0.37 1.1 -0.33 1.17 -0.3 1.26 -0.22 1.22 -0.16 1.23 -0.1 1.3 -0.03 1.38 0 0zm-85.22 22.1l0 -22.1 85.22 0 0 22.1 0 0 -85.22 0zm73.49 -2.99l0 67.74 0 0 -4.3 -0.11 -4.32 -0.34 -4.18 -0.53 -4.09 -0.74 -3.91 -0.9 -3.9 -1.11 -3.91 -1.33 -3.51 -1.4 -3.32 -1.51 -3.37 -1.72 -3.05 -1.77 -2.89 -1.84 -2.9 -2.06 -2.66 -2.09 -2.57 -2.23 -2.28 -2.19 -2.16 -2.25 -2.12 -2.44 -1.91 -2.44 -1.82 -2.55 -1.58 -2.49 -1.48 -2.54 -1.38 -2.71 -1.19 -2.61 -1.07 -2.68 -0.98 -2.87 -0.8 -2.83 -0.65 -2.8 -0.51 -2.86 -0.38 -2.9 -0.22 -2.96 -0.08 -2.95 85.22 0 0 0.21 0.02 0.18 0.02 0.18 0.03 0.16 0.05 0.2 0.02 0.09 0 -0.01 0.05 0.12 0.05 0.13 -0.02 -0.05 0.02 0.04 0.02 0.03 -0.1 -0.13 -0.07 -0.1 -0.18 -0.2 -0.1 -0.11 -0.14 -0.13 -0.33 -0.29 -0.32 -0.25 -0.48 -0.34 -0.37 -0.24 -0.47 -0.27 -0.71 -0.36 -0.58 -0.27 -0.71 -0.28 -1.05 -0.35 -0.98 -0.29 -0.91 -0.2 -1.07 -0.2 -1.1 -0.13 -1.18 -0.1 -1.14 -0.03 0 0z"/>
  </g>
  <g>
   <path class="fil1" d="M3076.39 911.12l-670.21 0 0 -67.74 670.21 0 0 0 0 67.74zm-14.45 -64.75l90.66 0 0 0 -0.07 2.86 -0.22 2.89 -0.37 2.81 -0.5 2.79 -0.63 2.73 -0.78 2.75 -0.95 2.81 -1.05 2.62 -1.16 2.56 -1.36 2.66 -1.45 2.5 -1.57 2.45 -1.8 2.54 -1.9 2.42 -2.11 2.44 -2.16 2.25 -2.3 2.2 -2.6 2.26 -2.71 2.12 -2.96 2.11 -2.97 1.89 -3.16 1.82 -3.51 1.8 -3.47 1.58 -3.7 1.47 -4.15 1.42 -4.17 1.18 -4.18 0.97 -4.4 0.79 -4.51 0.58 -4.68 0.36 -4.66 0.12 0 -67.74 -1.5 0.04 -1.54 0.12 -1.43 0.18 -1.38 0.25 -1.18 0.27 -1.25 0.36 -1.29 0.44 -0.9 0.35 -0.73 0.34 -0.85 0.44 -0.58 0.32 -0.45 0.29 -0.54 0.39 -0.37 0.28 -0.36 0.32 -0.16 0.14 -0.1 0.11 -0.17 0.2 -0.06 0.08 -0.08 0.12 0.03 -0.07 0.05 -0.08 0 0 0.08 -0.18 0.07 -0.18 0.03 -0.05 0.04 -0.17 0.07 -0.27 0.04 -0.23 0.03 -0.27 0.02 -0.25 0.01 -0.3 0 0zm90.66 -22.1l0 22.1 -90.66 0 0 -22.1 0 0 90.66 0zm-98.31 -19.11l0 -67.74 0 0 5.75 0.15 5.75 0.43 5.73 0.74 5.53 1 5.26 1.23 5.15 1.46 5.05 1.72 4.69 1.85 4.65 2.11 4.41 2.27 4.09 2.36 3.93 2.52 3.78 2.69 3.56 2.81 3.23 2.81 3.18 3.01 2.96 3.12 2.68 3.09 2.59 3.28 2.39 3.36 2.19 3.4 1.98 3.44 1.84 3.57 1.65 3.65 1.44 3.63 1.28 3.76 1.07 3.77 0.89 3.8 0.7 3.9 0.51 3.96 0.3 3.98 0.1 3.98 -90.66 0 -0.04 -1.46 -0.1 -1.38 -0.17 -1.32 -0.24 -1.3 -0.31 -1.32 -0.35 -1.25 -0.4 -1.16 -0.46 -1.17 -0.47 -1.05 -0.52 -0.99 -0.58 -1 -0.57 -0.9 -0.57 -0.8 -0.57 -0.72 -0.66 -0.75 -0.54 -0.58 -0.52 -0.49 -0.61 -0.53 -0.44 -0.35 -0.38 -0.27 -0.37 -0.24 -0.35 -0.2 -0.15 -0.09 -0.05 -0.01 -0.11 -0.05 0.13 0.04 0.13 0.04 0.14 0.03 0.33 0.06 0.45 0.06 0.39 0.03 0.31 0.01 0 0zm-626.01 -67.74l626.01 0 0 67.74 -626.01 0 0 0 0 -67.74zm-7.65 86.85l-90.66 0 0 0 0.1 -3.98 0.3 -3.98 0.51 -3.96 0.7 -3.9 0.89 -3.8 1.07 -3.77 1.28 -3.76 1.44 -3.63 1.65 -3.65 1.84 -3.57 1.98 -3.44 2.19 -3.4 2.39 -3.36 2.59 -3.28 2.68 -3.09 2.96 -3.12 3.18 -3.01 3.23 -2.81 3.56 -2.81 3.78 -2.69 3.93 -2.52 4.09 -2.36 4.41 -2.27 4.65 -2.11 4.69 -1.85 5.05 -1.72 5.15 -1.46 5.26 -1.23 5.53 -1 5.73 -0.74 5.75 -0.43 5.75 -0.15 0 67.74 0.31 -0.01 0.39 -0.03 0.45 -0.06 0.33 -0.06 0.14 -0.03 0.13 -0.04 0.13 -0.04 -0.11 0.05 -0.05 0.01 -0.15 0.09 -0.35 0.2 -0.37 0.24 -0.38 0.27 -0.44 0.35 -0.61 0.53 -0.52 0.49 -0.54 0.58 -0.66 0.75 -0.57 0.72 -0.57 0.8 -0.57 0.9 -0.58 1 -0.52 0.99 -0.47 1.05 -0.46 1.17 -0.4 1.16 -0.35 1.25 -0.31 1.32 -0.24 1.3 -0.17 1.32 -0.1 1.38 -0.04 1.46 0 0zm-90.66 22.1l0 -22.1 90.66 0 0 22.1 0 0 -90.66 0zm76.21 -2.99l0 67.74 0 0 -4.66 -0.12 -4.68 -0.36 -4.51 -0.58 -4.4 -0.79 -4.18 -0.97 -4.17 -1.18 -4.15 -1.42 -3.7 -1.47 -3.47 -1.58 -3.51 -1.8 -3.16 -1.82 -2.97 -1.89 -2.96 -2.11 -2.71 -2.12 -2.6 -2.26 -2.3 -2.2 -2.16 -2.25 -2.11 -2.44 -1.9 -2.42 -1.8 -2.54 -1.57 -2.45 -1.45 -2.5 -1.36 -2.66 -1.16 -2.56 -1.05 -2.62 -0.95 -2.81 -0.78 -2.75 -0.63 -2.73 -0.5 -2.79 -0.37 -2.81 -0.22 -2.89 -0.07 -2.86 90.66 0 0.01 0.3 0.02 0.25 0.03 0.27 0.04 0.23 0.07 0.27 0.04 0.17 0.03 0.05 0.07 0.18 0.08 0.18 0 0 0.05 0.08 0.03 0.07 -0.08 -0.12 -0.06 -0.08 -0.17 -0.2 -0.1 -0.11 -0.16 -0.14 -0.36 -0.32 -0.37 -0.28 -0.54 -0.39 -0.45 -0.29 -0.58 -0.32 -0.85 -0.44 -0.73 -0.34 -0.9 -0.35 -1.29 -0.44 -1.25 -0.36 -1.18 -0.27 -1.38 -0.25 -1.43 -0.18 -1.54 -0.12 -1.5 -0.04 0 0z"/>
  </g>
 </g>
</svg>
