<?xml version="1.0" encoding="UTF-8"?>
<!DOCTYPE svg PUBLIC "-//W3C//DTD SVG 1.1//EN" "http://www.w3.org/Graphics/SVG/1.1/DTD/svg11.dtd">
<!-- Creator: CorelDRAW 2020 (64 Bit) -->
<svg xmlns="http://www.w3.org/2000/svg" xml:space="preserve" width="42.3332mm" height="42.3332mm" version="1.1" style="shape-rendering:geometricPrecision; text-rendering:geometricPrecision; image-rendering:optimizeQuality; fill-rule:evenodd; clip-rule:evenodd"
viewBox="0 0 4233.32 4233.32"
 xmlns:xlink="http://www.w3.org/1999/xlink"
 xmlns:xodm="http://www.corel.com/coreldraw/odm/2003">
 <defs>
  <style type="text/css">
   <![CDATA[
    .str1 {stroke:black;stroke-width:67.73;stroke-miterlimit:22.9256}
    .str0 {stroke:black;stroke-width:67.73;stroke-miterlimit:22.9256}
    .fil0 {fill:none}
    .fil2 {fill:black}
    .fil1 {fill:black;fill-rule:nonzero}
   ]]>
  </style>
 </defs>
 <g id="Camada_x0020_1">
  <metadata id="CorelCorpID_0Corel-Layer"/>
  <g id="_2550581609824">
   <rect class="fil0 str0" x="785.95" y="877.25" width="2661.42" height="2416.16"/>
   <g>
    <path class="fil1" d="M3447.37 1613.02l-2661.42 0 0 -67.72 2661.42 0 33.89 33.86 -33.89 33.86zm0 -67.72l33.89 0 0 33.86 -33.89 -33.86zm-33.89 1748.1l0 -1714.24 67.78 0 0 1714.24 -33.89 33.86 -33.89 -33.86zm67.78 0l0 33.86 -33.89 0 33.89 -33.86zm-2695.31 -33.86l2661.42 0 0 67.72 -2661.42 0 -33.89 -33.86 33.89 -33.86zm0 67.72l-33.89 0 0 -33.86 33.89 33.86zm33.89 -1748.1l0 1714.24 -67.78 0 0 -1714.24 33.89 -33.86 33.89 33.86zm-67.78 0l0 -33.86 33.89 0 -33.89 33.86z"/>
   </g>
   <g>
    <path class="fil1" d="M3122.92 1900.71l-2012.52 0 0 -67.74 2012.52 0 34.07 33.87 -34.07 33.87zm0 -67.74l34.07 0 0 33.87 -34.07 -33.87zm-34.07 1123.38l0 -1089.51 68.14 0 0 1089.51 -34.07 33.87 -34.07 -33.87zm68.14 0l0 33.87 -34.07 0 34.07 -33.87zm-2046.59 -33.87l2012.52 0 0 67.74 -2012.52 0 -34.07 -33.87 34.07 -33.87zm0 67.74l-34.07 0 0 -33.87 34.07 33.87zm34.07 -1123.38l0 1089.51 -68.14 0 0 -1089.51 34.07 -33.87 34.07 33.87zm-68.14 0l0 -33.87 34.07 0 -34.07 33.87z"/>
   </g>
   <g>
    <path class="fil1" d="M1252.39 3327.26l-283.97 0 0 -67.72 283.97 0 33.65 33.86 -33.65 33.86zm0 -67.72l33.65 0 0 33.86 -33.65 -33.86zm-33.65 202.49l0 -168.63 67.3 0 0 168.63 -33.65 33.86 -33.65 -33.86zm67.3 0l0 33.86 -33.65 0 33.65 -33.86zm-317.62 -33.86l283.97 0 0 67.72 -283.97 0 -33.65 -33.86 33.65 -33.86zm0 67.72l-33.65 0 0 -33.86 33.65 33.86zm33.65 -202.49l0 168.63 -67.3 0 0 -168.63 33.65 -33.86 33.65 33.86zm-67.3 0l0 -33.86 33.65 0 -33.65 33.86z"/>
   </g>
   <g>
    <path class="fil1" d="M2962.41 3327.26l-33.65 -33.86 33.65 -33.86 283.97 0 0 67.72 -283.97 0zm-33.65 -33.86l0 -33.86 33.65 0 -33.65 33.86zm67.3 168.63l-33.65 33.86 -33.65 -33.86 0 -168.63 67.3 0 0 168.63zm-33.65 33.86l-33.65 0 0 -33.86 33.65 33.86zm283.97 -67.72l33.65 33.86 -33.65 33.86 -283.97 0 0 -67.72 283.97 0zm33.65 33.86l0 33.86 -33.65 0 33.65 -33.86zm-67.3 -168.63l33.65 -33.86 33.65 33.86 0 168.63 -67.3 0 0 -168.63zm33.65 -33.86l33.65 0 0 33.86 -33.65 -33.86z"/>
   </g>
   <circle class="fil2" cx="1128.92" cy="1285.31" r="98.77"/>
   <circle class="fil2" cx="2205.55" cy="1285.31" r="98.77"/>
   <circle class="fil2" cx="1667.24" cy="1285.31" r="98.77"/>
   <circle class="fil2" cx="1398.08" cy="1285.31" r="98.77"/>
   <circle class="fil2" cx="2474.72" cy="1285.31" r="98.77"/>
   <circle class="fil2" cx="3122.92" cy="1285.31" r="98.77"/>
   <circle class="fil2" cx="1936.39" cy="1285.31" r="98.77"/>
   <path class="fil0 str1" d="M1101.39 877.25l485.05 0c16.99,0 30.88,-13.89 30.88,-30.88l0 -22.1c0,-29.14 -23.84,-52.98 -52.98,-52.98l-440.85 0c-29.14,0 -52.98,23.84 -52.98,52.98l0 22.1c0,16.99 13.89,30.88 30.88,30.88z"/>
   <path class="fil0 str1" d="M1884.12 877.25l485.05 0c16.99,0 30.88,-13.89 30.88,-30.88l0 -22.1c0,-29.14 -23.84,-52.98 -52.98,-52.98l-440.85 0c-29.14,0 -52.98,23.84 -52.98,52.98l0 22.1c0,16.99 13.89,30.88 30.88,30.88z"/>
   <path class="fil0 str1" d="M2666.85 877.25l485.05 0c16.99,0 30.88,-13.89 30.88,-30.88l0 -22.1c0,-29.14 -23.84,-52.98 -52.98,-52.98l-440.85 0c-29.14,0 -52.98,23.84 -52.98,52.98l0 22.1c0,16.99 13.89,30.88 30.88,30.88z"/>
  </g>
 </g>
</svg>
