<?xml version="1.0" encoding="UTF-8"?>
<!DOCTYPE svg PUBLIC "-//W3C//DTD SVG 1.1//EN" "http://www.w3.org/Graphics/SVG/1.1/DTD/svg11.dtd">
<!-- Creator: CorelDRAW 2020 (64 Bit) -->
<svg xmlns="http://www.w3.org/2000/svg" xml:space="preserve" width="42.3332mm" height="42.3332mm" version="1.1" style="shape-rendering:geometricPrecision; text-rendering:geometricPrecision; image-rendering:optimizeQuality; fill-rule:evenodd; clip-rule:evenodd"
viewBox="0 0 4233.32 4233.32"
 xmlns:xlink="http://www.w3.org/1999/xlink"
 xmlns:xodm="http://www.corel.com/coreldraw/odm/2003">
 <defs>
  <style type="text/css">
   <![CDATA[
    .fil0 {fill:black}
   ]]>
  </style>
 </defs>
 <g id="Camada_x0020_1">
  <metadata id="CorelCorpID_0Corel-Layer"/>
  <g id="_2550987991376">
   <path class="fil0" d="M1139.57 1059.89c-80.21,26.26 -86.61,80.05 -86.15,178.37 1.49,315.27 -14.11,1788.63 6.6,1857.85 22.59,75.44 86.14,84.16 178.29,83.73 315.15,-1.47 1788.72,14.06 1857.81,-6.66 75.42,-22.61 84.21,-86.03 83.79,-178.23 -1.48,-315.54 14.16,-1788.06 -6.67,-1857.79 -22.58,-75.62 -85.92,-84.24 -178.23,-83.79 -306.17,1.45 -1799.43,-11.84 -1855.44,6.52zm-22.6 416.91l1999.38 0c4.09,-432.94 45.69,-360.12 -314.42,-360.12 -456.84,0 -913.7,0 -1370.54,0 -71.62,0 -276.82,-19.55 -305.19,28.68 -20.33,34.53 -9.78,273.4 -9.23,331.44zm682.47 156.23l37.31 2.12 557.4 -0.23 41.18 -0.84 46.13 -85.69 -36.59 -4.37 -658.78 0.64 -33.24 2.45 46.59 85.92zm-599.69 1483.5l1833.82 0c115.29,0 83.01,-99.8 83.01,-324.31l0 -1242.65 -546.29 -4.91c-63.99,15.89 -45.32,153.52 -144.78,153.52l-617.7 0c-95.1,0 -74.84,-116.67 -144.78,-153.52l-546.29 0.48 -0.17 1450.09c-0.56,80.55 -4.55,121.3 83.18,121.3z"/>
   <path class="fil0" d="M1244.61 1884.96l0 1042.39c0,58.63 2.48,61.45 61.3,61.45l1621.5 0c58.7,0 61.3,-2.98 61.3,-61.45l0 -1042.39c0,-54.29 -8.59,-58.74 -61.3,-58.74l-1621.5 0c-52.8,0 -61.3,4.39 -61.3,58.74zm67.94 1036.3l1537.63 0 70.59 0 0 -1020.34 -1605.2 0 -3.02 1020.34z"/>
   <path class="fil0" d="M1530.93 2589.53c0,158.15 -12.81,155.34 64.54,155.34l1042.38 0c58.97,0 74.72,13.15 64.54,-155.34l-6.82 -56.22c-62.2,-18.01 -875.35,-5.52 -1071.6,-7.63 -69.22,-0.74 -93.04,-9.71 -93.04,63.85zm65.27 91.92l1036.82 0.13 6.42 -91.86 -1043.97 -0.54 0.73 92.27z"/>
   <path class="fil0" d="M2077.75 1186.72c-148.46,52.3 -76.07,275.83 77.45,225.93 150.63,-48.95 73.14,-278.99 -77.45,-225.93zm-8.97 149.23c88.1,47.15 131.36,-24.11 91.37,-73.57 -34.62,-42.83 -121.08,-20.06 -91.37,73.57z"/>
   <path class="fil0" d="M1742.59 1188.37c-160.13,63.09 -56.21,277.91 83.14,222.67 146.31,-57.99 64.26,-280.72 -83.14,-222.67zm23.61 61.01c-25.36,11.27 -54.24,20.33 -34.6,72.34 10.65,28.19 45.69,43.86 79.43,26.93 59.03,-29.61 18.78,-127.48 -44.83,-99.27z"/>
   <path class="fil0" d="M2409.77 1189.37c-161.27,69.19 -52.25,271.67 82.59,222.41 147.94,-54.04 65.65,-286.02 -82.59,-222.41zm28.04 56.39c-81.79,28.1 -39.2,129.58 32.59,106.5 65.24,-20.99 35.68,-129.96 -32.59,-106.5z"/>
   <path class="fil0" d="M2306.75 2439.04c101.45,25.9 76.47,-135.26 67.16,-164.64 -13.63,-42.92 -30.4,-56.86 -25.24,-108.75 5.46,-55.02 33.71,-55.99 -1.58,-94.05 -42.31,1.37 -48.8,16.69 -58.22,62.09 -7.64,36.86 -6.31,71.17 4.25,105.55 58.75,191.27 -0.24,104.39 13.63,199.8z"/>
   <path class="fil0" d="M2105.04 2073.76c-57.68,28.02 -35.19,150.76 -17.13,197.36 28.81,74.32 -28.9,200.33 41.6,169.06 90.74,-40.26 -14.65,-206.63 6.4,-295.76 5.78,-24.5 22.15,-96.41 -30.87,-70.66z"/>
   <path class="fil0" d="M1872.42 2439.04c101.45,25.9 76.47,-135.26 67.16,-164.64 -13.61,-42.92 -30.39,-56.86 -25.24,-108.75 5.46,-55.02 33.71,-55.99 -1.57,-94.05 -123.03,3.97 -26.89,233.08 -27.23,266.98 -0.51,50.43 -20.32,50.94 -13.12,100.46z"/>
  </g>
 </g>
</svg>
