<?xml version="1.0" encoding="UTF-8"?>
<!DOCTYPE svg PUBLIC "-//W3C//DTD SVG 1.1//EN" "http://www.w3.org/Graphics/SVG/1.1/DTD/svg11.dtd">
<!-- Creator: CorelDRAW 2020 (64 Bit) -->
<svg xmlns="http://www.w3.org/2000/svg" xml:space="preserve" width="42.3332mm" height="42.3332mm" version="1.1" style="shape-rendering:geometricPrecision; text-rendering:geometricPrecision; image-rendering:optimizeQuality; fill-rule:evenodd; clip-rule:evenodd"
viewBox="0 0 4233.32 4233.32"
 xmlns:xlink="http://www.w3.org/1999/xlink"
 xmlns:xodm="http://www.corel.com/coreldraw/odm/2003">
 <defs>
  <style type="text/css">
   <![CDATA[
    .str0 {stroke:black;stroke-width:50.8;stroke-miterlimit:22.9256}
    .fil1 {fill:none}
    .fil0 {fill:black;fill-rule:nonzero}
   ]]>
  </style>
 </defs>
 <g id="Camada_x0020_1">
  <metadata id="CorelCorpID_0Corel-Layer"/>
  <g id="_2550986328224">
   <g>
    <g>
     <path class="fil0" d="M2975.03 1851.13l-1716.75 0 0 -67.72 1716.75 0 0 0 0 67.72zm192.75 124.9l-67.96 0 0 0 -0.16 -6.43 -0.48 -6.31 -0.81 -6.21 -1.1 -6.14 -1.39 -6.01 -1.69 -5.89 -1.97 -5.79 -2.24 -5.67 -2.51 -5.51 -2.77 -5.39 -3.02 -5.25 -3.25 -5.07 -3.51 -4.9 -3.73 -4.75 -3.93 -4.53 -4.17 -4.37 -4.34 -4.15 -4.56 -3.94 -4.73 -3.73 -4.92 -3.5 -5.07 -3.26 -5.21 -3.01 -5.38 -2.76 -5.53 -2.51 -5.65 -2.24 -5.76 -1.96 -5.89 -1.68 -5.99 -1.39 -6.13 -1.1 -6.2 -0.8 -6.29 -0.48 -6.41 -0.17 0 -67.72 9.87 0.25 9.77 0.74 9.64 1.24 9.47 1.7 9.35 2.17 9.15 2.62 8.96 3.04 8.77 3.48 8.51 3.87 8.32 4.26 8.09 4.67 7.81 5.02 7.54 5.38 7.27 5.71 6.98 6.06 6.7 6.37 6.37 6.69 6.07 6.99 5.71 7.27 5.37 7.54 5.03 7.83 4.64 8.05 4.27 8.29 3.87 8.55 3.46 8.73 3.05 8.93 2.61 9.15 2.17 9.33 1.7 9.46 1.23 9.63 0.74 9.75 0.26 9.85 0 0zm-67.96 1507.18l0 -1507.18 67.96 0 0 1507.18 0 0 -67.96 0zm-124.79 192.62l0 -67.72 0 0 6.41 -0.17 6.29 -0.48 6.2 -0.8 6.13 -1.1 5.99 -1.39 5.89 -1.68 5.76 -1.96 5.65 -2.24 5.53 -2.51 5.38 -2.76 5.21 -3.01 5.07 -3.26 4.92 -3.5 4.73 -3.73 4.56 -3.94 4.34 -4.15 4.17 -4.37 3.93 -4.53 3.73 -4.75 3.51 -4.9 3.25 -5.07 3.02 -5.25 2.77 -5.39 2.51 -5.51 2.24 -5.67 1.97 -5.79 1.69 -5.89 1.39 -6.01 1.1 -6.14 0.81 -6.21 0.48 -6.31 0.16 -6.43 67.96 0 -0.26 9.85 -0.74 9.75 -1.23 9.63 -1.7 9.46 -2.17 9.33 -2.61 9.15 -3.05 8.93 -3.46 8.73 -3.87 8.55 -4.27 8.29 -4.64 8.05 -5.03 7.83 -5.37 7.54 -5.71 7.27 -6.07 6.99 -6.37 6.69 -6.7 6.37 -6.98 6.06 -7.27 5.71 -7.54 5.38 -7.81 5.02 -8.09 4.67 -8.32 4.26 -8.51 3.87 -8.77 3.48 -8.96 3.04 -9.15 2.62 -9.35 2.17 -9.47 1.7 -9.64 1.24 -9.77 0.74 -9.87 0.25 0 0zm-1716.75 -67.72l1716.75 0 0 67.72 -1716.75 0 0 0 0 -67.72zm-192.74 -124.9l67.96 0 0 0 0.16 6.43 0.48 6.31 0.81 6.21 1.1 6.14 1.39 6.01 1.69 5.91 1.96 5.77 2.25 5.65 2.52 5.55 2.75 5.37 3.02 5.24 3.26 5.08 3.51 4.9 3.73 4.75 3.94 4.55 4.15 4.35 4.35 4.15 4.55 3.94 4.74 3.73 4.91 3.5 5.07 3.26 5.23 3.02 5.36 2.75 5.54 2.51 5.64 2.24 5.76 1.96 5.89 1.68 5.99 1.39 6.13 1.1 6.2 0.8 6.29 0.48 6.41 0.17 0 67.72 -9.87 -0.25 -9.77 -0.74 -9.64 -1.24 -9.47 -1.7 -9.35 -2.17 -9.15 -2.62 -8.96 -3.04 -8.76 -3.48 -8.52 -3.87 -8.32 -4.27 -8.07 -4.66 -7.83 -5.02 -7.53 -5.38 -7.28 -5.71 -6.97 -6.06 -6.71 -6.37 -6.37 -6.71 -6.06 -6.97 -5.71 -7.27 -5.37 -7.54 -5.02 -7.82 -4.66 -8.06 -4.27 -8.31 -3.86 -8.51 -3.47 -8.75 -3.04 -8.95 -2.61 -9.13 -2.17 -9.33 -1.7 -9.46 -1.23 -9.63 -0.74 -9.75 -0.26 -9.85 0 0zm67.96 -1507.18l0 1507.18 -67.96 0 0 -1507.18 0 0 67.96 0zm124.78 -192.62l0 67.72 0 0 -6.41 0.17 -6.29 0.48 -6.2 0.8 -6.13 1.1 -5.99 1.39 -5.89 1.68 -5.76 1.96 -5.64 2.24 -5.54 2.51 -5.36 2.75 -5.23 3.02 -5.07 3.26 -4.91 3.5 -4.74 3.73 -4.55 3.94 -4.35 4.15 -4.15 4.35 -3.94 4.55 -3.73 4.75 -3.51 4.9 -3.26 5.08 -3.02 5.24 -2.75 5.37 -2.52 5.55 -2.25 5.65 -1.96 5.77 -1.69 5.91 -1.39 6.01 -1.1 6.14 -0.81 6.21 -0.48 6.31 -0.16 6.43 -67.96 0 0.26 -9.85 0.74 -9.75 1.23 -9.63 1.7 -9.46 2.17 -9.33 2.61 -9.13 3.04 -8.95 3.47 -8.75 3.86 -8.51 4.27 -8.31 4.66 -8.06 5.02 -7.82 5.37 -7.54 5.71 -7.27 6.06 -6.97 6.37 -6.71 6.71 -6.37 6.97 -6.06 7.28 -5.71 7.53 -5.38 7.83 -5.02 8.07 -4.66 8.32 -4.27 8.52 -3.87 8.76 -3.48 8.96 -3.04 9.15 -2.62 9.35 -2.17 9.47 -1.7 9.64 -1.24 9.77 -0.74 9.87 -0.25 0 0z"/>
    </g>
    <g>
     <path class="fil0" d="M2975.04 625.23l-1716.77 0 0 -67.74 1716.77 0 0 0 0 67.74zm192.48 124.88l-67.44 0 0 0 -0.16 -6.42 -0.48 -6.29 -0.8 -6.21 -1.1 -6.12 -1.39 -6 -1.69 -5.9 -1.96 -5.76 -2.24 -5.64 -2.52 -5.55 -2.75 -5.36 -3.02 -5.23 -3.26 -5.07 -3.51 -4.92 -3.72 -4.74 -3.95 -4.56 -4.15 -4.35 -4.36 -4.16 -4.55 -3.94 -4.76 -3.74 -4.89 -3.49 -5.11 -3.27 -5.24 -3.03 -5.37 -2.76 -5.56 -2.52 -5.66 -2.25 -5.78 -1.96 -5.91 -1.7 -6.02 -1.39 -6.15 -1.11 -6.22 -0.8 -6.32 -0.48 -6.44 -0.16 0 -67.74 9.84 0.26 9.74 0.74 9.62 1.24 9.45 1.69 9.32 2.17 9.13 2.6 8.94 3.04 8.74 3.47 8.5 3.86 8.31 4.26 8.06 4.65 7.79 5.01 7.55 5.37 7.26 5.72 6.97 6.04 6.7 6.38 6.37 6.69 6.05 6.98 5.72 7.26 5.37 7.54 5.02 7.81 4.66 8.07 4.27 8.32 3.86 8.51 3.48 8.76 3.04 8.96 2.61 9.14 2.17 9.34 1.7 9.48 1.24 9.63 0.74 9.77 0.26 9.86 0 0zm-67.44 908.41l0 -908.41 67.44 0 0 908.41 0 0 -67.44 0zm-125.04 192.62l0 -67.74 0 0 6.44 -0.16 6.32 -0.48 6.22 -0.8 6.15 -1.11 6.02 -1.39 5.91 -1.7 5.78 -1.96 5.66 -2.25 5.56 -2.52 5.37 -2.76 5.24 -3.03 5.11 -3.27 4.89 -3.49 4.76 -3.74 4.55 -3.94 4.36 -4.16 4.15 -4.35 3.95 -4.56 3.72 -4.74 3.51 -4.92 3.26 -5.07 3.02 -5.23 2.75 -5.36 2.52 -5.55 2.24 -5.64 1.96 -5.76 1.69 -5.9 1.39 -6 1.1 -6.12 0.8 -6.21 0.48 -6.29 0.16 -6.42 67.44 0 -0.26 9.86 -0.74 9.77 -1.24 9.63 -1.7 9.48 -2.17 9.34 -2.61 9.14 -3.04 8.96 -3.48 8.76 -3.86 8.51 -4.27 8.32 -4.66 8.07 -5.02 7.81 -5.37 7.54 -5.72 7.26 -6.05 6.98 -6.37 6.69 -6.7 6.38 -6.97 6.04 -7.26 5.72 -7.55 5.37 -7.79 5.01 -8.06 4.65 -8.31 4.26 -8.5 3.86 -8.74 3.47 -8.94 3.04 -9.13 2.6 -9.32 2.17 -9.45 1.69 -9.62 1.24 -9.74 0.74 -9.84 0.26 0 0zm-1716.77 -67.74l1716.77 0 0 67.74 -1716.77 0 0 0 0 -67.74zm-192.47 -124.88l67.44 0 0 0 0.16 6.42 0.48 6.29 0.8 6.21 1.1 6.12 1.39 6 1.69 5.9 1.96 5.76 2.24 5.64 2.52 5.55 2.75 5.36 3.02 5.23 3.27 5.09 3.49 4.9 3.73 4.74 3.94 4.56 4.16 4.35 4.35 4.16 4.56 3.94 4.75 3.74 4.9 3.49 5.11 3.28 5.23 3.02 5.37 2.76 5.56 2.52 5.66 2.25 5.78 1.96 5.91 1.7 6.02 1.39 6.15 1.11 6.22 0.8 6.32 0.48 6.44 0.16 0 67.74 -9.84 -0.26 -9.74 -0.74 -9.62 -1.24 -9.45 -1.69 -9.32 -2.17 -9.13 -2.6 -8.94 -3.04 -8.74 -3.47 -8.5 -3.86 -8.31 -4.26 -8.07 -4.66 -7.77 -5 -7.56 -5.37 -7.25 -5.72 -6.98 -6.04 -6.69 -6.38 -6.38 -6.69 -6.04 -6.98 -5.73 -7.26 -5.37 -7.56 -5.01 -7.79 -4.66 -8.07 -4.27 -8.32 -3.86 -8.51 -3.48 -8.76 -3.04 -8.96 -2.61 -9.14 -2.17 -9.34 -1.7 -9.48 -1.24 -9.63 -0.74 -9.77 -0.26 -9.86 0 0zm67.44 -908.41l0 908.41 -67.44 0 0 -908.41 0 0 67.44 0zm125.03 -192.62l0 67.74 0 0 -6.44 0.16 -6.32 0.48 -6.22 0.8 -6.15 1.11 -6.02 1.39 -5.91 1.7 -5.78 1.96 -5.66 2.25 -5.56 2.52 -5.37 2.76 -5.23 3.02 -5.11 3.28 -4.9 3.49 -4.75 3.74 -4.56 3.94 -4.35 4.16 -4.16 4.35 -3.94 4.56 -3.73 4.74 -3.49 4.9 -3.27 5.09 -3.02 5.23 -2.75 5.36 -2.52 5.55 -2.24 5.64 -1.96 5.76 -1.69 5.9 -1.39 6 -1.1 6.12 -0.8 6.21 -0.48 6.29 -0.16 6.42 -67.44 0 0.26 -9.86 0.74 -9.77 1.24 -9.63 1.7 -9.48 2.17 -9.34 2.61 -9.14 3.04 -8.96 3.48 -8.76 3.86 -8.51 4.27 -8.32 4.66 -8.07 5.01 -7.79 5.37 -7.56 5.73 -7.26 6.04 -6.98 6.38 -6.69 6.69 -6.38 6.98 -6.04 7.25 -5.72 7.56 -5.37 7.77 -5 8.07 -4.66 8.31 -4.26 8.5 -3.86 8.74 -3.47 8.94 -3.04 9.13 -2.6 9.32 -2.17 9.45 -1.69 9.62 -1.24 9.74 -0.74 9.84 -0.26 0 0z"/>
    </g>
   </g>
   <rect class="fil1 str0" x="1258.27" y="3641.97" width="314.49" height="142.04"/>
   <rect class="fil1 str0" x="2691.43" y="3641.97" width="314.49" height="142.04"/>
   <g>
    <path class="fil0" d="M2892.06 1375.97l0 -376.81 50.8 0 0 376.81 0 0 -50.8 0zm-45.62 96.58l0 -51.12 0 0 2.35 -0.06 2.32 -0.18 2.28 -0.29 2.21 -0.4 2.2 -0.51 2.17 -0.62 2.14 -0.73 2.04 -0.8 2 -0.92 1.98 -1.01 1.92 -1.11 1.85 -1.19 1.8 -1.28 1.72 -1.36 1.69 -1.46 1.61 -1.53 1.5 -1.57 1.43 -1.66 1.38 -1.75 1.25 -1.76 1.21 -1.88 1.11 -1.91 0.99 -1.95 0.91 -1.98 0.8 -2.05 0.72 -2.1 0.61 -2.16 0.51 -2.18 0.4 -2.18 0.28 -2.27 0.18 -2.28 0.06 -2.33 50.8 0 -0.12 4.95 -0.38 4.9 -0.62 4.83 -0.86 4.8 -1.09 4.66 -1.31 4.58 -1.52 4.48 -1.74 4.41 -1.95 4.3 -2.15 4.17 -2.33 4.03 -2.49 3.9 -2.71 3.8 -2.86 3.63 -3.03 3.5 -3.22 3.37 -3.33 3.17 -3.47 3.02 -3.64 2.86 -3.78 2.7 -3.91 2.51 -4.04 2.33 -4.14 2.13 -4.28 1.94 -4.4 1.74 -4.46 1.51 -4.55 1.3 -4.66 1.09 -4.77 0.86 -4.8 0.61 -4.88 0.38 -4.93 0.12 0 0zm0 -25.56l0 0 0 0 0 0 0 25.56 0 -25.56zm-96.42 -71.02l50.8 0 0 0 0.06 2.33 0.18 2.28 0.28 2.27 0.4 2.18 0.51 2.18 0.61 2.16 0.72 2.1 0.8 2.05 0.91 1.98 0.99 1.95 1.11 1.91 1.21 1.88 1.25 1.76 1.38 1.75 1.43 1.66 1.5 1.57 1.61 1.53 1.69 1.46 1.72 1.36 1.8 1.28 1.85 1.19 1.92 1.11 1.98 1.01 2 0.92 2.04 0.8 2.14 0.73 2.17 0.62 2.2 0.51 2.21 0.4 2.28 0.29 2.32 0.18 2.35 0.06 0 51.12 -4.93 -0.12 -4.88 -0.38 -4.8 -0.61 -4.77 -0.86 -4.66 -1.09 -4.55 -1.3 -4.46 -1.51 -4.4 -1.74 -4.28 -1.94 -4.14 -2.13 -4.04 -2.33 -3.91 -2.51 -3.78 -2.7 -3.64 -2.86 -3.47 -3.02 -3.33 -3.17 -3.22 -3.37 -3.03 -3.5 -2.86 -3.63 -2.71 -3.8 -2.49 -3.9 -2.33 -4.03 -2.15 -4.17 -1.95 -4.3 -1.74 -4.41 -1.52 -4.48 -1.31 -4.58 -1.09 -4.66 -0.86 -4.8 -0.62 -4.83 -0.38 -4.9 -0.12 -4.95 0 0zm50.8 -376.81l0 376.81 -50.8 0 0 -376.81 0 0 50.8 0zm45.62 -96.58l0 51.12 0 0 -2.35 0.06 -2.32 0.18 -2.28 0.29 -2.21 0.4 -2.2 0.51 -2.17 0.62 -2.14 0.73 -2.04 0.8 -2 0.92 -1.98 1.01 -1.92 1.11 -1.85 1.19 -1.8 1.28 -1.72 1.36 -1.69 1.46 -1.61 1.53 -1.5 1.57 -1.43 1.66 -1.38 1.75 -1.25 1.76 -1.21 1.88 -1.11 1.91 -0.99 1.95 -0.91 1.98 -0.8 2.05 -0.72 2.1 -0.61 2.16 -0.51 2.18 -0.4 2.18 -0.28 2.27 -0.18 2.28 -0.06 2.33 -50.8 0 0.12 -4.95 0.38 -4.9 0.62 -4.83 0.86 -4.8 1.09 -4.66 1.31 -4.58 1.52 -4.48 1.74 -4.41 1.95 -4.3 2.15 -4.17 2.33 -4.03 2.49 -3.9 2.71 -3.8 2.86 -3.63 3.03 -3.5 3.22 -3.37 3.33 -3.17 3.47 -3.02 3.64 -2.86 3.78 -2.7 3.91 -2.51 4.04 -2.33 4.14 -2.13 4.28 -1.94 4.4 -1.74 4.46 -1.51 4.55 -1.3 4.66 -1.09 4.77 -0.86 4.8 -0.61 4.88 -0.38 4.93 -0.12 0 0zm0 25.56l0 0 0 0 0 0 0 -25.56 0 25.56zm96.42 71.02l-50.8 0 0 0 -0.06 -2.33 -0.18 -2.28 -0.28 -2.27 -0.4 -2.18 -0.51 -2.18 -0.61 -2.16 -0.72 -2.1 -0.8 -2.05 -0.91 -1.98 -0.99 -1.95 -1.11 -1.91 -1.21 -1.88 -1.25 -1.76 -1.38 -1.75 -1.43 -1.66 -1.5 -1.57 -1.61 -1.53 -1.69 -1.46 -1.72 -1.36 -1.8 -1.28 -1.85 -1.19 -1.92 -1.11 -1.98 -1.01 -2 -0.92 -2.04 -0.8 -2.14 -0.73 -2.17 -0.62 -2.2 -0.51 -2.21 -0.4 -2.28 -0.29 -2.32 -0.18 -2.35 -0.06 0 -51.12 4.93 0.12 4.88 0.38 4.8 0.61 4.77 0.86 4.66 1.09 4.55 1.3 4.46 1.51 4.4 1.74 4.28 1.94 4.14 2.13 4.04 2.33 3.91 2.51 3.78 2.7 3.64 2.86 3.47 3.02 3.33 3.17 3.22 3.37 3.03 3.5 2.86 3.63 2.71 3.8 2.49 3.9 2.33 4.03 2.15 4.17 1.95 4.3 1.74 4.41 1.52 4.48 1.31 4.58 1.09 4.66 0.86 4.8 0.62 4.83 0.38 4.9 0.12 4.95 0 0z"/>
   </g>
   <g>
    <path class="fil0" d="M2892.06 2508.37l0 -376.81 50.8 0 0 376.81 0 0 -50.8 0zm-45.62 96.58l0 -51.12 0 0 2.35 -0.06 2.32 -0.18 2.28 -0.29 2.21 -0.4 2.2 -0.51 2.17 -0.62 2.14 -0.73 2.04 -0.8 2 -0.92 1.98 -1.01 1.92 -1.11 1.85 -1.19 1.8 -1.28 1.72 -1.36 1.69 -1.46 1.61 -1.53 1.5 -1.57 1.43 -1.66 1.38 -1.75 1.25 -1.76 1.21 -1.88 1.11 -1.91 0.99 -1.95 0.91 -1.98 0.8 -2.05 0.72 -2.1 0.61 -2.16 0.51 -2.18 0.4 -2.18 0.28 -2.27 0.18 -2.28 0.06 -2.33 50.8 0 -0.12 4.95 -0.38 4.9 -0.62 4.83 -0.86 4.8 -1.09 4.66 -1.31 4.58 -1.52 4.48 -1.74 4.41 -1.95 4.3 -2.15 4.17 -2.33 4.03 -2.49 3.9 -2.71 3.8 -2.86 3.63 -3.03 3.5 -3.22 3.37 -3.33 3.17 -3.47 3.02 -3.64 2.86 -3.78 2.7 -3.91 2.51 -4.04 2.33 -4.14 2.13 -4.28 1.94 -4.4 1.74 -4.46 1.51 -4.55 1.3 -4.66 1.09 -4.77 0.86 -4.8 0.61 -4.88 0.38 -4.93 0.12 0 0zm0 -25.56l0 0 0 0 0 0 0 25.56 0 -25.56zm-96.42 -71.02l50.8 0 0 0 0.06 2.33 0.18 2.28 0.28 2.27 0.4 2.18 0.51 2.18 0.61 2.16 0.72 2.1 0.8 2.05 0.91 1.98 0.99 1.95 1.11 1.91 1.21 1.88 1.25 1.76 1.38 1.75 1.43 1.66 1.5 1.57 1.61 1.53 1.69 1.46 1.72 1.36 1.8 1.28 1.85 1.19 1.92 1.11 1.98 1.01 2 0.92 2.04 0.8 2.14 0.73 2.17 0.62 2.2 0.51 2.21 0.4 2.28 0.29 2.32 0.18 2.35 0.06 0 51.12 -4.93 -0.12 -4.88 -0.38 -4.8 -0.61 -4.77 -0.86 -4.66 -1.09 -4.55 -1.3 -4.46 -1.51 -4.4 -1.74 -4.28 -1.94 -4.14 -2.13 -4.04 -2.33 -3.91 -2.51 -3.78 -2.7 -3.64 -2.86 -3.47 -3.02 -3.33 -3.17 -3.22 -3.37 -3.03 -3.5 -2.86 -3.63 -2.71 -3.8 -2.49 -3.9 -2.33 -4.03 -2.15 -4.17 -1.95 -4.3 -1.74 -4.41 -1.52 -4.48 -1.31 -4.58 -1.09 -4.66 -0.86 -4.8 -0.62 -4.83 -0.38 -4.9 -0.12 -4.95 0 0zm50.8 -376.81l0 376.81 -50.8 0 0 -376.81 0 0 50.8 0zm45.62 -96.58l0 51.12 0 0 -2.35 0.06 -2.32 0.18 -2.28 0.29 -2.21 0.4 -2.2 0.51 -2.17 0.62 -2.14 0.73 -2.04 0.8 -2 0.92 -1.98 1.01 -1.92 1.11 -1.85 1.19 -1.8 1.28 -1.72 1.36 -1.69 1.46 -1.61 1.53 -1.5 1.57 -1.43 1.66 -1.38 1.75 -1.25 1.76 -1.21 1.88 -1.11 1.91 -0.99 1.95 -0.91 1.98 -0.8 2.05 -0.72 2.1 -0.61 2.16 -0.51 2.18 -0.4 2.18 -0.28 2.27 -0.18 2.28 -0.06 2.33 -50.8 0 0.12 -4.95 0.38 -4.9 0.62 -4.83 0.86 -4.8 1.09 -4.66 1.31 -4.58 1.52 -4.48 1.74 -4.41 1.95 -4.3 2.15 -4.17 2.33 -4.03 2.49 -3.9 2.71 -3.8 2.86 -3.63 3.03 -3.5 3.22 -3.37 3.33 -3.17 3.47 -3.02 3.64 -2.86 3.78 -2.7 3.91 -2.51 4.04 -2.33 4.14 -2.13 4.28 -1.94 4.4 -1.74 4.46 -1.51 4.55 -1.3 4.66 -1.09 4.77 -0.86 4.8 -0.61 4.88 -0.38 4.93 -0.12 0 0zm0 25.56l0 0 0 0 0 0 0 -25.56 0 25.56zm96.42 71.02l-50.8 0 0 0 -0.06 -2.33 -0.18 -2.28 -0.28 -2.27 -0.4 -2.18 -0.51 -2.18 -0.61 -2.16 -0.72 -2.1 -0.8 -2.05 -0.91 -1.98 -0.99 -1.95 -1.11 -1.91 -1.21 -1.88 -1.25 -1.76 -1.38 -1.75 -1.43 -1.66 -1.5 -1.57 -1.61 -1.53 -1.69 -1.46 -1.72 -1.36 -1.8 -1.28 -1.85 -1.19 -1.92 -1.11 -1.98 -1.01 -2 -0.92 -2.04 -0.8 -2.14 -0.73 -2.17 -0.62 -2.2 -0.51 -2.21 -0.4 -2.28 -0.29 -2.32 -0.18 -2.35 -0.06 0 -51.12 4.93 0.12 4.88 0.38 4.8 0.61 4.77 0.86 4.66 1.09 4.55 1.3 4.46 1.51 4.4 1.74 4.28 1.94 4.14 2.13 4.04 2.33 3.91 2.51 3.78 2.7 3.64 2.86 3.47 3.02 3.33 3.17 3.22 3.37 3.03 3.5 2.86 3.63 2.71 3.8 2.49 3.9 2.33 4.03 2.15 4.17 1.95 4.3 1.74 4.41 1.52 4.48 1.31 4.58 1.09 4.66 0.86 4.8 0.62 4.83 0.38 4.9 0.12 4.95 0 0z"/>
   </g>
  </g>
 </g>
</svg>
