<?xml version="1.0" encoding="UTF-8"?>
<!DOCTYPE svg PUBLIC "-//W3C//DTD SVG 1.1//EN" "http://www.w3.org/Graphics/SVG/1.1/DTD/svg11.dtd">
<!-- Creator: CorelDRAW 2020 (64 Bit) -->
<svg xmlns="http://www.w3.org/2000/svg" xml:space="preserve" width="42.3332mm" height="42.3332mm" version="1.1" style="shape-rendering:geometricPrecision; text-rendering:geometricPrecision; image-rendering:optimizeQuality; fill-rule:evenodd; clip-rule:evenodd"
viewBox="0 0 4233.32 4233.32"
 xmlns:xlink="http://www.w3.org/1999/xlink"
 xmlns:xodm="http://www.corel.com/coreldraw/odm/2003">
 <defs>
  <style type="text/css">
   <![CDATA[
    .fil0 {fill:black}
   ]]>
  </style>
 </defs>
 <g id="Camada_x0020_1">
  <metadata id="CorelCorpID_0Corel-Layer"/>
  <g id="_2550966703216">
   <path class="fil0" d="M1087.77 3255.32l1435.15 0c39.17,-35.61 50.42,-36.91 80.14,-91.88l173.13 -374.42c466.09,0 400.95,71.64 400.95,-495.24 0,-719.46 44.48,-632.53 -253.91,-642.78 11.47,-55.86 182.03,-406.47 227.79,-510.96 48.09,-109.82 20.8,-109.12 -50.51,-162.04l-1397.58 0c-33.57,24.69 -50.8,19.05 -68.14,62.62 -79.17,198.94 -165.15,425.77 -270.65,610.14 -132.07,5.98 -253.09,-31.59 -255.73,126.34l0.32 759.6c-0.01,156.18 -31.43,222.68 114.7,256.27 -33.76,70.97 -70.2,148.56 -103.38,223.13 -39.45,88.7 -109.42,159.97 -32.28,239.22zm387.66 -1603.88l1337.06 0.32 262.14 -569.77 -1330.62 -1.07c-36.09,7.37 -267.28,551.89 -268.58,570.52zm-314.2 1498.4l1344.02 2.83 309.88 -671.79c-192.69,-13.69 -1064.58,-2.46 -1324.16,-2.46 -35.43,0 -69.09,102.95 -93.39,157.4 -26.19,58.7 -53.16,118.45 -80.17,172.52 -51.92,103.98 -113.3,233.98 -156.18,341.5zm307.75 -775.08l1347.66 -0.01 -0.89 -310.13 -1342.65 -0.46 -4.12 310.6zm1600.4 314.2l3.54 -930.61c-119.23,0 -1790.48,-11.01 -1862.14,5.87l-0.55 920.67 58.05 2.09c27.63,-41.26 41.05,-84.83 61.99,-129.02 34.94,-73.73 38.05,-61.57 37.44,-152.57 -3.29,-493.86 -45.78,-443.64 325.69,-443.64 182.49,0 1113.75,-9.79 1162.9,8.99 90.14,34.44 62.38,208.14 62.38,323.04 0,127.03 -5.59,267.34 1.42,392.72l149.28 2.46z"/>
   <path class="fil0" d="M1602.31 2684.69l617.4 0c69.62,0 87.81,-29.95 65.43,-91.17 -162.47,-26.52 -501.17,-10.45 -682.83,-10.12 -105.88,0 -114.04,101.29 0,101.29z"/>
   <path class="fil0" d="M1920.77 2883.43c16.26,-37.82 15.84,-32.18 6.57,-76.61 -63.16,-30.28 -179.72,-17.52 -264.3,-17.52 -60.77,0 -230.41,-22.96 -241.77,43.14 -15.58,90.72 159.91,60.21 221.52,60.21 85.37,0 205.82,11.89 277.98,-9.22z"/>
  </g>
 </g>
</svg>
