<?xml version="1.0" encoding="UTF-8"?>
<!DOCTYPE svg PUBLIC "-//W3C//DTD SVG 1.1//EN" "http://www.w3.org/Graphics/SVG/1.1/DTD/svg11.dtd">
<!-- Creator: CorelDRAW 2020 (64 Bit) -->
<svg xmlns="http://www.w3.org/2000/svg" xml:space="preserve" width="42.3332mm" height="42.3332mm" version="1.1" style="shape-rendering:geometricPrecision; text-rendering:geometricPrecision; image-rendering:optimizeQuality; fill-rule:evenodd; clip-rule:evenodd"
viewBox="0 0 4233.32 4233.32"
 xmlns:xlink="http://www.w3.org/1999/xlink"
 xmlns:xodm="http://www.corel.com/coreldraw/odm/2003">
 <defs>
  <style type="text/css">
   <![CDATA[
    .fil0 {fill:#010101}
    .fil3 {fill:#646464}
    .fil1 {fill:#787878}
    .fil2 {fill:#9B9B9B}
   ]]>
  </style>
 </defs>
 <g id="Camada_x0020_1">
  <metadata id="CorelCorpID_0Corel-Layer"/>
  <g id="_2550760845200">
   <path class="fil0" d="M1342.88 995.63c-2.13,2.4 2.55,1.82 -5.4,2.58 -11.46,1.1 -0.76,0.28 -9.71,4.14 -4.23,1.82 -1.75,0.8 -5.01,2.6 -4.87,2.67 -2.32,-0.18 -6.48,3.83l-5.43 4.33c-4.57,2.91 -1.55,-0.01 -5.93,3.57 -5.25,4.3 -2.77,3.27 -6.63,7.61 -1.72,1.95 -2.97,2.24 -4.13,3.5 -3.17,3.45 -6.41,11.1 -8.24,13.72 -2.2,3.16 -6.11,19.86 -6.97,22.61 -4.15,13.23 -2.36,84.49 -2.36,100.7l0 1764.54c0,9.88 0.29,18.65 0.78,27.74 0.43,7.92 1.67,5.96 2.8,11.61 0.5,2.5 0.58,4.74 1.21,6.43 1.17,3.09 1.24,1.2 2.47,5.27 3.69,12.19 1.78,3.3 4.31,10.13 1.9,5.12 1.01,2.02 6.02,9.03 0.95,1.33 0.18,0.11 1.21,1.64 0.71,1.06 0.61,1.12 1.47,2.4 1.06,1.58 0.45,0.78 1.62,2 0.13,0.14 0.35,0.32 0.48,0.45l17.4 14.07c0.17,0.1 0.39,0.28 0.56,0.38l19.12 9.25c5.37,1.44 2.77,1.09 5.49,2.44 5.64,2.81 644.24,1.26 653.58,1.26l933.93 -0.33c6.74,-0.69 0.51,0.1 5.17,-2.11 4.43,-2.09 6.48,-0.4 10.92,-3.35 5.99,-3.97 6.02,-1.92 16.3,-8.6 2.95,-1.92 1.91,-0.22 5.87,-3.63 5.54,-4.78 14.47,-14.56 18.41,-20.71 2.17,-3.39 2.92,-6.58 4.89,-9.53 12.14,-18.21 10.81,-43.46 10.81,-62.53l0 -1823.8c0,-9.83 -0.05,-18.76 -0.79,-27.77l-4.8 -17.06c-1.13,-2.58 -1.34,-1.67 -2.55,-4.99 -4.13,-11.42 -11.86,-22.86 -20.95,-30.76l-2.01 -1.83c-6.54,-6.34 -17.99,-12.55 -26.26,-16.62 -1.89,-0.93 -1.17,-0.38 -2.77,-1.05 -7.17,-3.02 0.8,-3.19 -11.29,-3.65 -19.75,-0.75 -39.53,-0.46 -59.3,-0.46 -208.2,0 -1526.23,-0.82 -1527.81,0.95zm479.22 1975.92c6.66,2.45 246.64,1.11 275.29,1.11 263.82,0 527.64,0 791.46,0 13.25,0 21.17,1.76 28.25,-2.48 1.85,-1.11 -1.81,-0.55 2.82,-0.92 -3.69,2.24 -1.45,2.51 -1.44,2.51 6.34,-4.4 21.54,-6.76 21.74,-31.9 0.14,-16.74 1.11,-86.21 -0.55,-92.01 -6.37,-1.68 -264.43,-0.48 -278.32,-0.48l-769.47 0c-14.76,0 -58.31,-1.87 -69.78,0.72l0 123.45zm-484.43 -121.53l0 89.85c0,9.59 2.44,15.86 7.98,23.34 5,6.77 14.59,9.56 23.37,9.56l389.3 -0.29 -0.33 -125 -415.73 -0.29c-3.6,0 -4.59,-0.33 -4.59,2.83zm-0.54 -1404.42l0.43 -0.7c-1.06,335.13 -0.03,671.21 -0.03,1006.52 0,11.5 -1.5,321.72 0.88,333.55l1601.59 -0.35c1.55,-11.76 0.53,-29.28 0.53,-41.66l0 -963.51c0,-15.32 1.31,-327.73 -0.7,-333.94 -11.44,-1.72 -36.21,-0.3 -49.07,-0.3l-676.83 -0.07c-5.18,-0.3 -13.05,-4.38 -16.76,-7.33 -7.04,-5.58 -12.06,-15.6 -11.98,-24.47 0.1,-12.17 11.54,-26.23 20.73,-28.88 7.47,-2.15 38.45,-1.06 48.23,-1.06l294.41 0c16.41,0 386.11,1.28 391.91,-0.63 1.2,-93.74 0.15,-188.17 0.15,-281.99 0,-12.77 1.25,-31.78 -12.51,-40.15 -3.31,-2.01 -3.68,-1.03 -7.46,-1.78 -3.77,-0.75 -2.73,-1.68 -5.3,-2.73 -4.42,-1.8 -60.79,-0.73 -70.47,-0.73l-1270.35 0c-14.99,0 -206.99,-1.29 -211.92,0.69 -2.99,1.2 -0.69,2.01 -6.15,2.89 -4.58,0.74 -3.73,-0.35 -7.12,2.11 -8.28,6.01 -7.18,10.94 -10.25,16.46l-1.17 2.54c-0.07,0.25 -0.11,0.5 -0.16,0.78 -0.18,0.96 -0.21,2.61 -0.23,3.61 -0.14,5.68 0,11.56 0,17.27 0,47.15 0,94.31 0,141.46 0,19.58 -1.36,130.06 0.68,139.8 8.24,1.74 38.43,0.4 48.97,0.4 214.12,0 428.23,0 642.34,0 15.93,0 43.08,-2.38 52.29,3.53 0.18,0.12 0.42,0.27 0.6,0.38 4.03,2.53 6.5,4.6 9.35,8.79 10.72,15.8 6.63,32.31 -6.95,42.92 -3.03,2.37 -4.88,2.42 -8.39,4.14 -8.78,4.31 -35.63,2.05 -47.85,2.05 -98.77,0 -197.55,0 -296.32,0 -11.39,0 -382.8,-1.16 -395.12,0.39z"/>
   <path class="fil0" d="M1728.32 2092.97c0,8.21 -0.12,17.43 1.5,25.22 1.33,6.43 0.74,17.24 1.45,24.42 0.71,7.22 3.28,11.89 3.64,21.06 0.14,3.59 -0.06,8.74 0.76,12.08 0.66,2.67 2.31,5.78 3.02,10.27 2.48,15.63 2.32,8.68 4.74,20.12l3.88 15.37c0.89,2.33 1.32,1.66 2.4,4.12 1.42,3.24 0.86,6.43 2.65,9.84l0.72 1.14c2.88,4.97 4.44,11.74 7.31,16.5 2.8,4.64 1.57,5.94 3.55,9.97l8.57 16.17c4.09,7.93 7.65,16.49 12.4,23.96l17.73 28.18c0.92,1.22 0.02,0.09 1.25,1.52 0.18,0.21 0.75,0.76 0.93,0.98 0.13,0.17 0.32,0.38 0.45,0.55 0.13,0.17 0.29,0.4 0.42,0.59l64.43 69.31c5.04,5.56 11.89,8.89 17.18,14.38 3.42,3.54 1.81,3.28 6.29,6.05 7.77,4.82 5.85,5.04 14.95,10.86 1.5,0.96 1.94,1.18 3.42,2.36 7.31,5.84 11.25,6.55 19.91,12.55l5.23 3.6c1.31,1.29 0.02,0.8 1.72,1.75 1.53,0.85 2.99,0.47 5.32,1.35 4.68,1.76 17.61,9.9 21.46,10.97l12.86 5.55c4.66,2.81 5.39,1.32 9.43,3.09 1.82,0.8 1.87,1.68 3.88,2.58 2.84,1.29 6.75,1.74 10.29,3.23 2.45,1.03 1.27,0.53 4.35,1.35l23.31 8.02c2.41,0.44 3.36,0.41 5.67,1.04 8.1,2.24 4.02,1.9 15.34,3.67 5.07,0.79 5.38,1.85 9.85,2.7 7.26,1.39 16.06,1.02 23.82,2.37 30.71,5.32 68.84,3.79 100.05,1.41 7.38,-0.56 11.65,-2.4 19.04,-2.98 11.51,-0.92 10.55,-0.26 19.79,-3.24 3.36,-1.08 5.89,-0.62 9.57,-1.19 6.12,-0.95 3.35,-1.8 7.88,-3.29 2.85,-0.94 6.69,-0.54 10.04,-1.57 3.48,-1.08 3.32,-2.08 8.28,-3.08l16.54 -5.44c4.64,-1.82 9.29,-2.19 12.98,-4.31 6.36,-3.65 12.64,-5.24 19.13,-8.53 0.2,-0.1 0.43,-0.24 0.63,-0.34l36.31 -18.2c9.58,-6.48 11.96,-5.59 17.05,-9.67l27.57 -20.25c0.16,-0.13 0.39,-0.3 0.54,-0.43l19.91 -16.38c1.21,-1.14 1.72,-1.63 3.38,-2.59 6.19,-3.58 4.52,-3.72 8.33,-7.72l7.87 -7.35c0.14,-0.15 0.32,-0.37 0.45,-0.52l13.18 -15.53c0.92,-0.94 2.07,-1.95 2.88,-2.84l10.58 -14.25c2.56,-2.76 4.54,-3.52 7.01,-7.38 3.51,-5.48 9.63,-10.09 11.64,-16.24 2.67,-8.21 7.44,-7.99 11.3,-17.38l7.16 -12.82c0.12,-0.2 0.27,-0.43 0.38,-0.65 2.52,-4.83 4.67,-10.94 7.88,-14.81l5.64 -11c2.19,-9.11 4,-13.83 -0.41,-23.84l-10.36 -11.86c-5.39,-3.43 -12.51,-6.29 -16.86,-10.78 -0.13,-0.14 -0.31,-0.36 -0.45,-0.5 -7.86,-8.05 -5.98,-7.12 -10.51,-17.14 -1.61,-3.55 -1.19,-5.45 -1.19,-10.05l0 -212.2c0.01,-10.85 5.61,-22.97 15.27,-28.47 2.16,-1.23 4.09,-3.06 6.2,-4.15 9.61,-4.95 15.67,-8.12 20.03,-19.24 1.46,-3.71 2.07,-11.24 0.77,-15.48 -2.07,-6.72 -4,-11.04 -7.59,-16.37l-5.28 -9.97c-1.51,-2.44 -0.7,-1.35 -1.98,-3.74l-4.38 -6.99c-2.15,-4.68 -4.87,-9.85 -8.51,-13.76l-23.01 -32.31c-1.08,-1.29 -1.46,-1.69 -2.71,-3.03l-2.75 -2.97c-2.51,-3.16 -1.43,-3.8 -4.55,-6.94l-8.72 -9.43c-0.15,-0.14 -0.35,-0.34 -0.49,-0.48 -0.78,-0.76 -0.66,-0.69 -1.44,-1.44l-38.36 -35.32c-0.18,-0.12 -0.41,-0.28 -0.58,-0.39l-25.05 -19.73c-0.15,-0.12 -0.36,-0.31 -0.52,-0.44l-1.09 -0.84c-10.46,-7.84 -17.49,-10.67 -27.32,-17.63 -6.09,-4.32 -20.27,-10.36 -22.43,-11.99 -1.4,-1.05 -0.73,-0.96 -2.87,-1.89 -1.2,-0.52 -2.76,-0.81 -4.27,-1.5l-16.32 -6.83c-4.26,-1.32 -3.86,-2.44 -7.75,-3.64 -1.82,-0.55 -2.42,-0.39 -4.15,-0.82 -3.84,-0.95 -11.39,-5.67 -21.22,-7.5 -6.94,-1.29 -1.37,-1.86 -7.81,-3.5 -3.35,-0.85 -6.34,-0.45 -8.82,-1.66 -10.91,-5.32 -7.7,0.12 -17.6,-5.19 -2.52,-1.36 -6.32,-1.91 -8.96,-2.47 -6.68,-1.41 -11.59,-2.74 -18.27,-3.61 -8.5,-1.11 -9.04,-2.93 -19.74,-3.19 -24,-0.59 -79.01,-4.04 -100.9,1.28 -10,2.43 -21.64,1.66 -31.43,5.79 -6.53,2.75 -13.9,3.51 -20.75,4.96 -6.25,1.32 -2.39,2.27 -9.4,3.06 -6.38,0.72 -5.2,0.53 -9.66,2.85 -3.56,1.84 -6.49,1.41 -10.21,3.18 -3.43,1.63 -6.1,2.07 -8.98,3.43l-9.36 3.87c-4.47,1.51 -0.21,0.04 -3.73,2.14 -2.7,1.6 -1.8,0.62 -4.93,1.58 -5.51,1.68 -1.52,1.77 -9.45,3.99 -4,1.11 -3.64,2.37 -8.48,4.01l-11.93 6.31c-1.76,1.05 -2.74,1.1 -4.61,2.12l-12.01 7.08c-3.42,1.64 -1.77,1.06 -4.08,2.63l-9.14 6.22c-3.58,3.02 -6.46,3.87 -10.13,6.07 -0.15,0.09 -1.8,1.05 -1.82,1.07 -3.71,2.45 -6.6,6.05 -10.63,8.36l-16.93 14.7c-4.73,4.21 -8.79,5.64 -13,9.98l-12.22 11.69c-0.13,0.15 -0.31,0.37 -0.45,0.52l-44.39 51.2 -34.19 55.59c-1.03,1.72 -1.1,2.21 -1.87,3.88 -1.47,3.23 -1.12,1.89 -2.52,4.14 -3.46,5.58 -7.7,20.07 -11.24,27.01 -1.41,2.77 -0.6,-0.3 -1.95,3.68l-4.91 15.3c-2.49,5.04 -2.8,1.38 -3.33,8.94 -0.51,7.29 -0.48,4.93 -2.59,10.02l-4.73 21.5c-0.35,4.7 -0.84,5.93 -2.33,9.73 -2.11,5.41 -4.67,25.96 -5.68,32.59 -2.48,16.24 -3.06,31.94 -3.06,48.54zm58.06 -2.87l0.93 32.52c0.25,6.98 2.29,8.96 3.15,14.41 1,6.27 -0.35,10.98 1.58,16.79 2.29,6.89 0.39,15.59 4.23,22.41 1.96,3.47 2.49,10.35 4.17,14.07 1.46,3.22 1.35,5.52 4.66,13.46 1.41,3.4 0.64,5.17 1.59,8.18 0.77,2.42 1.88,2.1 3.13,5.23 1.21,3.02 0.7,3.75 2.41,7.18 1.29,2.57 1.54,4.15 2.54,6.06 1.75,3.35 1.9,1.23 3.76,5.55 3.85,8.9 9.9,23.89 14.61,31.43 0.12,0.18 0.27,0.42 0.37,0.6l9.66 16.18c1.17,1.98 0.52,0.75 1.53,2.3l10.93 17.7c0.12,0.15 0.33,0.33 0.46,0.48l4.39 4.98c0.15,0.13 0.39,0.29 0.54,0.42l23.99 27.92c2.25,2.86 -0.34,0.27 2.1,2.51l1.04 0.82c0.16,0.12 0.39,0.29 0.55,0.41l26.83 24.89c3.31,3.08 7.07,4.53 10.31,7.88 4.82,5 10.93,6.62 16.3,11.42 2.79,2.49 1.59,1.49 5.14,3.34l20.2 11.49c7.09,4.02 13.19,8.86 21.45,11.17 7.72,2.16 10.8,6.42 18.92,7.98 7.68,1.47 2.36,0.17 6.43,2.81 2.53,1.64 3.56,1.16 6.38,2.31l14.37 4.73c3.33,1.72 10.69,2.55 14.21,4.03 4.73,1.98 10.16,1.79 15.19,3.11 1.71,0.45 3.83,1.81 6.95,2.52l30.92 5.07c35.58,2.99 40.13,-0.03 69.64,-0.41 13.59,-0.18 18.6,-2.85 32.49,-4.02l22.62 -4.34c3.09,-0.86 2.38,-1.84 6.51,-2.87 3.21,-0.79 4.4,-0.36 7.23,-1.47l40.97 -14.69c5.4,-1.43 2.28,-0.92 5.8,-3.45 2.38,-1.72 3.25,-1.21 6.1,-2.54l26.91 -14.34c2.62,-1.27 1.19,-0.25 2.96,-1.71l22.3 -14.23c4.11,-1.85 0.59,-1.23 9.77,-8.23 1.64,-1.25 0.97,-0.94 1.99,-1.79 1.97,-1.63 0.58,-0.53 2.95,-1.96 2.82,-1.72 0.55,-0.04 2.74,-1.91 0.15,-0.13 0.35,-0.33 0.49,-0.45l8.78 -7.58c0.18,-0.13 0.41,-0.29 0.59,-0.42l3.23 -2.33c0.14,-0.13 0.32,-0.35 0.46,-0.48l19.67 -20.63c0.17,-0.13 0.41,-0.29 0.58,-0.42 3.47,-2.48 2.72,-2.86 5.37,-6.81 2.42,-3.59 5.72,-6.49 8.16,-10.1 4.77,-7.06 11.39,-13.2 15.78,-20.55 2.68,-4.48 13.83,-20.92 12.62,-25.01 -0.7,-2.36 -6.53,-7 -8.54,-9.08l-5.85 -8.41c-0.13,-0.18 -1.07,-1.68 -1.13,-1.77 -0.12,-0.17 -0.28,-0.41 -0.41,-0.57 -0.12,-0.17 -0.3,-0.39 -0.43,-0.55 -0.12,-0.15 -0.32,-0.36 -0.44,-0.51 -0.13,-0.15 -0.34,-0.34 -0.46,-0.49 -3.36,-4.06 -8.38,-17.6 -9.51,-22.95 -0.44,-2.07 -0.46,-3.93 -0.76,-6.04 -1.4,-9.69 -2.68,-12.27 -2.68,-23.23l0 -209.34c0,-13.45 3.46,-33.15 8.76,-42.1l9.58 -16.22c0.1,-0.13 0.98,-1.37 1.23,-1.68 0.13,-0.16 0.32,-0.37 0.45,-0.52 0.13,-0.15 0.33,-0.35 0.46,-0.5 0.14,-0.14 0.35,-0.33 0.48,-0.47l10.23 -9.24c0.43,-4.68 0.82,-6.5 -1.27,-9.74 -0.02,-0.02 -1.15,-1.54 -1.22,-1.66l-3.8 -5.6c-0.55,-0.64 -0.58,-0.44 -1.27,-1.75 -1.53,-2.91 -0.78,-3.37 -3.07,-5.33 -3.4,-2.92 -3.32,-2.86 -5.83,-6.7 -1.58,-2.41 -1.03,-1.09 -2.3,-3.54l-3.53 -5.93c-4.91,-5.89 -12.76,-11.84 -13.4,-19.97 -7.51,-0.87 -0.15,-0.5 -6.15,-4.16 -2.14,-1.31 -1.17,0.06 -3.59,-2.47l-5.96 -6.27c-0.72,-0.55 -2.54,-2.36 -3.03,-2.89l-16.44 -15.92c-1.59,-1.11 -0.97,-0.7 -2.23,-1.66 -2.66,-2.03 -4.18,-2.54 -6.75,-4.75l-9.97 -8.16c-0.73,-0.67 -0.75,-0.56 -1.62,-1.29 -0.16,-0.12 -0.38,-0.3 -0.54,-0.43 -0.15,-0.12 -0.35,-0.31 -0.5,-0.44l-22.84 -14.53c-8.42,-4.43 -13.87,-9.69 -30.25,-17.51 -3.61,-1.73 -4.73,-1.28 -7.95,-3.49l-19.74 -9.72c-1.61,-0.73 -3.68,-0.94 -5.24,-1.44 -3.83,-1.23 -3.96,-2.78 -7.65,-3.61 -6.34,-1.41 -4.85,-2.03 -9,-3.46 -2.96,-1.02 -6.39,-0.43 -9.87,-1.74 -10.34,-3.88 -12.08,-1.81 -19.14,-4.84l-30.69 -5.54c-29.11,-2.96 -60.84,-1.45 -89.68,-0.16 -7.11,0.32 -12.1,1.87 -18.37,3.46 -3.57,0.91 -5.42,0.67 -9.1,1.33 -3,0.55 -5.53,2.07 -8.93,2.58 -3.09,0.46 -7.3,0.08 -10.06,0.76 -4.56,1.12 -1.83,2.4 -7.99,3.38 -3.81,0.61 -5.28,0.15 -8.35,1.99l-36.05 13.84c-4.9,1.7 -1.31,0.31 -3.49,1.99 -3.19,2.44 -7.22,2.95 -10.94,4.59l-4.72 1.31c-1.37,0.39 -1.55,0.44 -2.74,1.45 -0.2,0.17 -1.19,1.25 -1.44,1.42 -5.4,3.82 -2.69,-0.12 -9.01,5.34 -4.49,3.89 -9.18,6.08 -14.49,8.01 -5.72,2.07 -15.52,10.3 -20.5,14.42l-1.14 0.87c-3.16,2.34 -4.97,5.95 -8.63,8.51 -10.06,7.06 -18.66,17.17 -27.58,25.84 -0.15,0.14 -0.36,0.33 -0.5,0.47l-7.63 7.58c-3.5,2.55 -21.06,23 -23.89,26.89l-21.4 33.16c-0.7,1.18 -1.99,3.18 -2.19,3.55 -3.09,5.67 -1.47,5.45 -8.74,16.05 -6.67,9.72 -9.76,21.22 -14.42,31.54 -1.53,3.38 -5.8,12.69 -6.33,15.61 -1.56,8.68 -6.63,14.82 -8.07,24.16 -0.95,6.22 0.02,4.46 -2.61,8.98 -2.08,3.56 -1.07,4.17 -1.52,8.88 -0.33,3.56 -1.37,6.05 -2.48,8.93 -3.17,8.24 -1.03,19.35 -3.89,28.62 -2.83,9.17 -1.87,21.45 -1.89,31.24z"/>
   <path class="fil0" d="M2500.04 2437.34c-1.24,5.44 0.37,1.33 -3.52,5.09 -16.57,16.09 -24.14,23.8 -42.37,39.8l-57.7 39.97c-1.8,1.13 -2.93,1.69 -4.82,2.83 -6.6,3.97 -16.56,11.6 -24.22,12l-24.91 12.32c-5.45,4.19 -2.31,0.43 -9.59,4.68 -5.11,2.98 -6.11,1.26 -10.85,3.55 -1.72,0.83 -0.91,0.74 -3.21,1.57 -8.2,2.98 -5.18,3.27 -9.74,4.41 -4.85,1.22 -3.4,-0.05 -7.53,2.2 -7.63,4.16 -3.44,-0.74 -14.15,4.95l-13.29 5.25c-14.46,1.26 -2.87,2.12 -16.52,3.76 -3.12,0.38 -5.85,0.2 -8.81,1.05 -2.24,0.64 -4.66,1.75 -7.35,2.18 -9.7,1.53 -25.64,4.81 -33.22,5.03 -5.44,0.15 -4.39,0.17 -8,1.58 -11.41,4.44 -108.51,3.97 -119.82,0.98 -11.01,-2.9 -3.39,-1.8 -16.42,-2.75 -6.82,-0.5 -8.48,-2.74 -15.06,-3.69 -9.44,-1.36 -39.3,-6.95 -47.29,-10.26 -3.59,-1.49 -3.41,-1.4 -7.52,-2.1l-15.01 -4.98c-3.74,-1.65 -1.27,-1.98 -6.95,-2.7 -7.28,-0.92 -8.58,-2.59 -13.54,-5.37 -5.11,-2.86 -18.01,-6.36 -20.94,-7.89 -3.89,-2.03 -1.76,-1.59 -7.08,-3.42l-18.89 -9.72c-2.26,-1.39 -1.05,-0.89 -3.01,-1.72l-19.28 -9.43c-6.3,-5.04 -4.91,-0.92 -8.4,-5.95 -4.3,-0.78 -9.28,-4.52 -12.99,-7.08 -0.24,-0.16 -0.95,-0.6 -1.19,-0.75l-30.76 -21.78c-0.8,-0.59 -1.35,-1.06 -2.21,-1.65 -0.96,-0.67 -1.54,-0.95 -2.3,-1.52 -2.02,-1.53 -0.83,-0.83 -2.54,-2.22 -0.16,-0.12 -0.39,-0.3 -0.55,-0.42l-4.53 -3.97c-0.2,-0.2 -0.81,-0.75 -1.02,-0.94 -5.47,-5.03 -11.58,-9.99 -17.46,-15.03 -8.87,-7.62 -16.6,-16.48 -24.87,-23.95 -2.36,-2.13 -0.39,-0.1 -2.39,-2.33 -0.18,-0.21 -0.69,-0.84 -0.87,-1.05l-16.89 -17.58c-3.13,-3.27 -1,-2.42 -5.11,-7.26 -4.14,-4.88 -9.95,-11.48 -11.74,-17.04l-13.91 -19.45c-2.78,-3.38 -0.68,0.01 -2.61,-4.22 -1.64,-3.59 -3.56,-4.71 -6.08,-8.09 -4.46,-5.97 -6.69,-13.62 -11.22,-19.43l-23.09 -44.88c-2.43,-3.31 -1.45,-0.03 -3.15,-3.22 -1.02,-1.93 -0.52,-3.13 -1.91,-5.87 -1.45,-2.87 -0.83,0.19 -2.21,-4.35l-6.01 -15.05c-2.2,-4.48 -3.08,-11.18 -5.25,-15.89 -1.08,-2.35 -0.96,-3.33 -1.84,-5.72 -1.65,-4.47 -2.32,-2.57 -3.56,-9.64 -0.92,-5.33 -2.69,-5.98 -3.48,-10.85 -0.36,-2.17 -0.24,-3.96 -0.78,-6.08 -1.07,-4.24 -1.14,-2.37 -2.15,-4.56 -1.57,-3.37 -1.14,-8.43 -1.56,-12.94 -0.55,-5.79 -2.39,-6.56 -3.26,-9.93 -0.56,-2.14 -0.27,-4.03 -0.59,-6.22 -0.54,-3.67 -0.9,-2.37 -1.92,-5.54 -2.9,-9 -1.05,-16.72 -3.07,-25.79 -2.3,-10.34 -2.96,-10.16 -3.14,-24.19l-1.09 -55.45 2.85 -38.85c0.66,-4.65 1.22,-7.85 1.91,-12.47 1.34,-9.08 0.45,-15.97 3.12,-24.75 1.03,-3.41 1.65,-7.88 2.17,-11.19 0.75,-4.86 2.55,-6.16 3.11,-11.19 1.41,-12.55 2.61,-26.62 -6.98,-35.19l-5.89 -4.53c-7.05,-5.7 -17.91,-4.84 -26.29,-2.19 -3.02,0.95 -5.83,3.3 -8.02,5.31l-4.84 5.7c-0.11,0.16 -0.28,0.39 -0.4,0.55 -0.11,0.16 -0.29,0.38 -0.41,0.54 -0.11,0.16 -0.3,0.37 -0.42,0.53 -0.11,0.15 -0.31,0.36 -0.42,0.52 -1.51,2.18 -5.28,18.7 -5.82,22.96 -1.12,8.77 -4.01,11.89 -4.6,23.04 -0.45,8.53 -3.08,15.44 -3.78,23.91 -2.27,27.49 -3.21,22.47 -3.37,53.48 -0.09,18.73 -0.29,37.72 0.13,56.44l11.53 86.49 5.75 21.73c2.72,6.39 1.3,4.86 2.58,12.01 0.62,3.47 2.18,3.55 3.73,10.49 1.07,4.79 2.86,3.47 4.15,9.91 1.18,5.91 6.35,17.84 7.02,21.01 2.08,9.68 2.06,5.17 3.83,10.52 1.85,5.57 2.82,9.95 6,14.88l13.6 28.47c1.11,2.02 1.31,3.61 2.33,5.35 0.15,0.28 1.11,1.56 1.16,1.64 3.25,5.07 8.34,15.94 11.51,20.02l48.67 72.99c0.11,0.21 0.2,0.48 0.31,0.68l35.49 38.73c1.3,1.28 1.88,1.98 3.3,3.4 0.14,0.14 0.34,0.35 0.48,0.49l15.34 14.36c0.13,0.15 0.33,0.36 0.46,0.51l0.83 1.09c1.48,1.78 4.2,4.4 8.35,6.7l19.3 16.23c3.18,2.83 -0.08,0.61 3.65,2.97l20.9 14.61c1.29,0.87 2.67,1.76 3.99,2.69 1.19,0.83 0.93,0.63 2.32,1.55 3.23,2.15 2.27,2.59 5.92,4.59 8.31,4.54 16.93,11.81 25.57,16.47l8.63 5.64c9.63,6.91 25.54,13.58 29.31,16.56 4.54,3.58 12.39,4.27 17.39,7.45 6.08,3.87 14,4.43 19.83,7.96 4.8,2.9 10.57,4.44 15.72,6.37 3.65,1.36 5.22,3.07 9.49,3.85 8.25,1.52 15.1,6.1 21.61,7.23l10.79 3.41c3.68,1.2 7.54,0.97 10.95,2.46 2.52,1.1 1.2,1.26 4.51,2.07 2.59,0.64 4.09,0.43 6.5,1.14 3.67,1.07 6.3,2.53 10.92,3.29 11.76,1.94 10.52,3.73 23.53,4.29 5.78,0.25 7.73,1.08 12.26,2.18 7.3,1.78 16.28,1.81 24.43,3.22 15.86,2.74 94.59,3.27 111.13,1.17l37.49 -4.65c5.09,-1.44 5.8,-1.4 12.39,-2.05 3.64,-0.36 7.83,-1.07 10.93,-2.39 5.93,-2.53 4.86,-1.21 12,-2.23 4.65,-0.67 5.16,-2.04 10.52,-2.91 5.22,-0.86 6.7,-1.24 11.15,-3.19 4.08,-1.79 7.22,-1.13 11.28,-2.16l21.25 -7.33c3.52,-1.04 2.24,-0.48 4.94,-1.83l20.84 -6.93c4.3,-1.58 0.49,-1.07 4.84,-2.72l10.45 -3.96c9.05,-4.56 11.4,-4.05 14.89,-6.2l14.34 -6.72c3.17,-1.59 0.46,-0.97 4,-2.65l40.8 -22.34c3.04,-1.99 5.62,-3.07 9.12,-5.25l24.76 -17.24c5.2,-4.08 9.89,-8.99 15.72,-12.06l2.8 -1.89c0.15,-0.12 0.36,-0.32 0.5,-0.45l27.2 -23.48c2.92,-2.66 4.66,-4.23 7.45,-6.87 5.12,-4.85 23.74,-23.06 27.8,-28.65 2.05,-2.81 0.62,-1.14 3.06,-3.53l1.93 -1.95c6.83,-7.36 8.64,-7.96 15.17,-16.32l21.72 -28.03c1.74,-2.25 1.53,-1.28 2.84,-3.76l2.39 -4.43c3.22,-4.83 6.41,-7.41 9.25,-12.65l5.28 -9.1c1.18,-1.96 1.44,-1.86 2.65,-4.08l5.51 -7.68c0.15,-0.25 0.53,-1.01 0.68,-1.26l4.48 -8.06c2.13,-3.2 0.82,-1.97 2.45,-5.21 0.99,-1.96 1.78,-2.18 2.88,-3.74l9.45 -18.35c1.81,-2.97 1.28,-0.83 2.77,-4.71 0.4,-1.05 0.26,-1.11 0.77,-2.2 0.1,-0.22 0.22,-0.47 0.33,-0.67 1.84,-3.4 1.99,-1.87 3.16,-6.23 0.92,-3.45 0.33,-1.94 2.06,-4.78 1.9,-3.11 0.88,-1.77 2.33,-5.25 3.44,-8.26 4.82,-9.96 7.81,-20.05l4 -10.36c2.01,-5.1 6.55,-15.2 7.16,-20.8 0.47,-4.36 5.33,-15.79 7.01,-21.56 0.77,-2.65 1.51,-9.43 2.59,-11.67 2.33,-4.84 1.32,-6.09 2.41,-11.24 0.62,-2.95 2.76,-5.95 3.65,-10.47l4.86 -23.58c1.48,-9.65 3.56,-14.01 3.86,-23.78 0.22,-6.88 1.35,-6.53 2.34,-10.92 0.5,-2.19 0.6,-3.86 1.07,-5.7 2.8,-10.95 1.99,-105.41 0.27,-118.27 -1.24,-9.26 -3.25,-14.95 -3.3,-24.73 -0.08,-16.2 -3.15,-7.48 -3.84,-17.09 -0.6,-8.34 1.32,-10.3 -3.07,-17.29 -2.85,-4.54 -0.48,-8.16 -2.05,-12.69 -0.69,-2 -1.56,-1.89 -2.41,-3.94 -1.52,-3.69 -0.5,-7.43 -2.52,-10.88l-3.86 -10.41c-0.73,-1.6 -0.2,-0.48 -1.05,-1.84 -1.83,-2.93 -1.8,-4.47 -2.52,-7.67 -1.25,-5.53 -2.47,-5.84 -3.53,-10.89l-24.3 -60.91c-1.77,-4.49 -6.41,-8.45 -7.79,-12.89 -1.21,-3.92 0.08,-1.28 -2.1,-4.9 -2.23,-3.71 -0.94,-1.24 -2.01,-5.44 -1.61,-6.3 -5.68,-7.77 -7.72,-13.37l-0.9 -2.18c-1.47,-2.51 -0.18,0.16 -1.74,-2.08l-12.41 -23.16c-1.81,-4.75 -0.35,-1.83 -2.84,-4.62 -1.21,-1.35 -0.34,-0.28 -1.32,-1.56 -4.55,-5.97 -7.73,-13.12 -12.82,-18.76 -3.34,-3.71 -5.79,-8.91 -9.02,-13.02 -2.63,-3.34 -4.15,-3.92 -6.5,-6.79l-10.02 -12.97c-6.52,-7.67 -11.73,-13.9 -19.39,-20.78 -2.74,-2.46 -1.53,-1.69 -3.53,-4.05 -7.39,-8.7 -15.43,-17.37 -24.31,-24.48l-10.56 -10.51c-5.52,-6.17 -19.77,-14.93 -26.94,-21.76 -1.43,-1.36 -2.65,-2.66 -3.93,-3.66l-28.7 -20.05c-1.44,-0.95 -1.04,-0.53 -2.36,-1.52l-12.68 -8.2c-1.39,-0.69 -1.41,-0.83 -2.45,-1.49 -7.19,-4.57 -14.25,-9.96 -22.21,-13.08l-19.48 -8.43c-2.76,-1.91 -0.64,-1.18 -4.15,-2.66l-37.81 -17.55c-2.04,-1.65 0.65,-1.72 -4.44,-2.92 -3.12,-0.74 -2.6,-0.04 -5.55,-1.28l-34.02 -11.83c-2.03,-0.75 -2.08,-1.07 -2.53,-1.33l-22.77 -5.85c-6.42,-0.68 -5.64,-1.52 -10.47,-2.91 -3.75,-1.08 -8.69,-0.71 -13.31,-1.4 -4.6,-0.68 -4.72,-2.53 -11.49,-2.94 -4.95,-0.3 -9.27,0.27 -13.17,-1.05 -4.69,-1.58 -4.34,-2.25 -10.61,-2.89 -4.41,-0.45 -8.59,-0.51 -13.52,-0.84 -9,-0.6 -15.31,-2.86 -24.88,-3.03 -11.58,-0.21 -74.59,-1.42 -84.13,0.21 -9.08,1.55 -13.29,3.43 -24.84,3.52 -16.67,0.12 -14.48,3.65 -23.85,3.85 -19.25,0.41 -13.51,3.65 -24.88,3.95 -5.3,0.13 -7.11,1.33 -11.08,2.59 -3.39,1.07 -8.25,1.45 -11.92,2.31 -4.88,1.15 -4.09,2.06 -10.43,3.01 -5.24,0.78 -5.57,2.17 -11.04,3.39l-10.11 3.35c-2.3,0.86 -2.99,0.48 -5.63,1.11 -5.92,1.43 -1.05,0.4 -4.83,2.82 -3.26,2.1 -7.21,0.94 -11.47,2.92l-9.49 4.73c-3.29,1.77 -6.9,1.25 -10.91,2.66l-10.37 4.04c-3.51,2.03 -6.42,2.02 -9.71,4.5l-4.86 2.08c-2.93,1.1 -1.69,1.44 -4.86,2.73 -1.99,0.81 -3.5,0.7 -5.28,1.51l-11.08 5.99c-0.19,0.1 -0.42,0.25 -0.61,0.36 -0.2,0.1 -0.44,0.24 -0.63,0.34l-5.38 3.15c-0.19,0.11 -0.41,0.28 -0.6,0.39l-7.01 4.27c-0.16,0.13 -0.38,0.31 -0.55,0.44l-25.58 15.63c-4.61,2.79 -8.85,4.13 -12.52,7.44l-37.1 28.95c-9.32,9.81 -21.07,16.39 -29.53,26.94l-2.37 2.18c-0.16,0.13 -0.4,0.28 -0.56,0.41 -0.16,0.13 -0.39,0.31 -0.54,0.44 -3.39,2.86 -8.61,6.09 -11.63,9.47l-23.44 26.28c-4.2,4.72 -7.87,10.11 -12.33,15.39 -1.18,1.4 -0.39,0.48 -1.28,1.65 -1.23,1.6 0.11,0.11 -1.65,2.11 -0.12,0.14 -0.32,0.33 -0.45,0.47l-12.75 16.12c-0.11,0.2 -0.22,0.45 -0.33,0.65 -0.1,0.2 -0.21,0.46 -0.31,0.66l-2.72 3.73c-1.08,1.01 -0.98,0.78 -2.08,1.75l-7.85 9.31c-0.03,0.04 -1.18,2.06 -1.39,2.4l-7.82 11.29c-0.15,0.24 -0.63,0.93 -0.79,1.17l-5.44 8.86c-0.86,1.3 -1.39,3.31 -2.54,5.16l-7.48 12.53c-1.7,3.13 -2.1,7.99 -4.18,11.28 -0.1,0.16 -0.3,0.36 -0.4,0.52 -3.18,5.03 0.28,10.76 1.55,15.07 0.36,1.22 0.77,3.86 1.49,5.13l6.31 6.97c4.57,3.7 8.29,4.57 14.85,6.31 6.34,1.68 17.07,0.46 21.95,-3.58 0.83,-0.69 2.86,-2.56 3.58,-3.14 4.36,-3.46 6.13,-7.9 9.27,-12.72 3.96,-6.07 7.37,-10.71 10.46,-17.33 1.47,-3.16 0.97,-1.94 2.38,-4.32l4.06 -6.27c0.14,-0.13 0.35,-0.32 0.49,-0.45l8.29 -8.96c1.46,-2.04 1.11,-2.73 2.54,-5.09 1.61,-2.67 3.91,-4.93 5.71,-7.67l1.92 -2.94c0.13,-0.16 0.33,-0.36 0.46,-0.51l8.59 -10.39c0.12,-0.17 0.3,-0.39 0.43,-0.56l0.87 -1.08c0.13,-0.16 0.3,-0.37 0.43,-0.53l12.56 -15.14c2.58,-3.24 5.39,-3.07 7.71,-6.51 1.77,-2.61 1.05,-1.75 2.85,-3.96l3.11 -4.5c2.02,-2.75 4.49,-4.93 7.14,-7.33l8.59 -7.74c5.87,-4.18 9.37,-10.24 18.34,-16.11l44.43 -34.74c0.15,-0.13 0.34,-0.34 0.5,-0.47l9.73 -6.55c2.13,-1.6 1.53,-1.44 4.38,-3.24 4.01,-2.52 7.06,-2.82 9.91,-4.6 1.12,-0.7 1.66,-1.68 3.6,-2.93l37.83 -20.58c2.79,-1.42 0.35,-0.17 2.17,-1.54 4.29,-3.24 14.64,-5.11 20.3,-8.45l9.67 -4.61c2.07,-0.82 3.28,-0.67 5.45,-1.35l14.49 -6.37c6.13,-3.01 15.94,-4.15 21.93,-6.75l10.16 -3.1c5.48,-1.28 4.52,-3.07 10.53,-3.53 11.5,-0.87 13.41,-3.78 24.84,-4.22 5.68,-0.22 7.01,-0.63 11.28,-2.16 4.46,-1.6 7.04,-1.54 12.62,-1.75 3.84,-0.15 8.53,-0.57 12.02,-1.4 18.81,-4.47 72.77,-2.8 95.97,-2.4 12.34,0.22 16.36,1.94 25.81,2.88 4.6,0.46 7.58,0.7 12.27,1.16 4.97,0.49 7.28,1.71 11.62,2.61 5.42,1.12 12.71,1.62 16.71,3.32 0.21,0.08 0.44,0.21 0.64,0.3 5.6,2.43 12.36,2.01 17.36,3.68 4.44,1.48 7.6,1.41 12.08,2.45l36.07 11.72c4.09,1.1 2.74,1.23 5.12,2.42 5.36,2.69 5.1,-0.53 10.48,3.77 0.67,0.54 0.34,0.58 1.66,1.21 2.01,0.96 0.98,0.33 3.12,0.84 3.39,0.79 3.41,1.07 5.69,2.08 2.04,0.9 2.89,0.89 4.97,1.73 4.6,1.86 0.12,0.49 4.24,2.4 2.16,1 2.8,0.61 5.12,1.65l9.83 5.27c0.16,0.12 0.36,0.31 0.52,0.42l8.03 4.46c2.03,1.18 3.03,1.56 4.94,2.66l22.33 12.12c0.25,0.15 0.91,0.63 1.16,0.78l16.24 10.5c1.72,1.23 2.1,1.39 4.04,2.67l13.02 8.17c4.27,2.26 0.82,0.8 3.64,3.62 4.31,4.32 11.86,7.87 19.08,15.48 9.32,9.81 19.38,16.14 29.31,27.13l8.31 6.05c2.43,1.88 1.34,1.48 3.45,4.09l7.32 6.35c3.46,2.36 4.82,6.16 8.27,8.87l11.85 14.55c0.12,0.18 0.26,0.43 0.38,0.61 0.12,0.18 0.28,0.41 0.41,0.58l5.26 6.27c0.05,0.05 0.91,1.23 1.23,1.64l19.22 25.69c2.53,3.5 1.79,1.24 3.63,3.91l25.38 44.52c1.16,2.18 -0.13,-0.2 1.15,1.75 4.14,6.34 7.43,15.08 10.67,21.81 5.4,11.22 11.71,22.59 15.05,34.56 1.92,6.86 5.92,13.03 7.54,20.12 1.18,5.18 2.58,4.92 3.73,10.58 0.95,4.63 0.6,7.66 1.98,11.76 0.77,2.28 1.17,2.79 1.68,5.05 1.49,6.73 3.29,10.19 4.28,16.72 0.78,5.13 1.72,6.62 2.9,11.34l5.46 36.79c0.18,6.03 1.14,6.83 2.2,11.94 3.23,15.42 2.9,83.84 -0.29,101.6 -0.43,2.4 -1.09,4.21 -1.37,6.19 -0.86,6.09 -0.7,21.98 -2.08,25.98 -2,5.82 -2.76,1.21 -2.89,10 -0.22,14.98 -3.47,12 -4.04,24.93 -0.34,7.55 -1.03,6.46 -3.03,11.54 -1.48,3.76 -0.56,7.37 -2.15,11.38 -1.8,4.55 -2.34,13.18 -4.63,16.35 -2.46,3.39 -0.88,-0.18 -2.35,5.23l-6.97 21.03c-1.43,4.24 -2.86,3.29 -4.56,9.45l-3.31 7.37c-1.01,1.59 -0.51,1.01 -1.86,2.23 -6.03,5.48 -1.56,1.77 -3.66,10.01l-7.98 16.12c-1.47,3.12 -2.36,3.25 -3.52,6.86l-8.82 16.37c-0.12,0.15 -0.34,0.34 -0.47,0.48 -0.13,0.15 -0.35,0.33 -0.47,0.47l-0.86 0.97c-0.71,0.97 -1.49,3.07 -2.3,4.35l-21.69 34.81c-1.23,1.74 -1.69,2.13 -2.94,3.73 -5.28,6.76 -9.86,14.37 -15.48,20.86l-25.42 30.05z"/>
   <path class="fil0" d="M2436.35 1280.03c-1,6.42 2.69,7.48 2.47,11.93 0.2,0.23 0.43,0.54 0.58,0.72 0.14,0.18 0.39,0.48 0.56,0.69 0.16,0.2 0.36,0.43 0.52,0.64l2.49 3.21c0.11,0.17 0.27,0.41 0.38,0.58 5.83,8.6 6.38,9.49 15.65,15.86 10.6,7.28 18.49,7.89 32.21,7.9 41.18,0.03 340.92,1.64 354.9,-1.35 5.59,-1.2 19.26,-8.77 22.54,-13.17 2.14,-2.87 -0.21,-0.15 2.09,-2.6 1.42,-1.51 0.66,-0.27 2.23,-2.56 2.7,-3.92 7.37,-13.69 7.99,-17.97 0.92,-6.33 0.49,-13.21 0.49,-19.68 -0.01,-21.07 1.33,-111.34 -1.26,-119.53 -2.88,-9.08 -10.66,-18.01 -17.24,-23.77 -6.46,-5.65 -19.74,-9.88 -29.52,-10.11 -26.8,-0.62 -54.38,-0.01 -81.27,-0.01l-242.79 0c-20.88,0 -40.9,-2.57 -57.49,13.71l-5.01 4.82c-3.05,2.71 -5.07,8.7 -6.86,13.94 -2.42,7.13 -3.35,6.49 -3.48,15.77 -0.32,22.46 1.05,107.74 -0.18,120.98zm59.95 -106.6l0 83.16c0,6.38 1.38,5.5 7.34,5.5l313.52 0c4.27,0 4.84,-1.16 4.84,-5.5l0 -83.16c0,-3.02 -1.88,-2.79 -4.84,-2.79l-313.52 0c-3.84,0 -7.34,-0.96 -7.34,2.79z"/>
   <path class="fil0" d="M1722.89 1281.44c4.68,-2.86 9.34,-4.43 14.94,-9.76 0.14,-0.13 0.32,-0.36 0.46,-0.49 3.44,-3.28 -1.54,1.03 1.43,-1.32 0.81,-0.64 0.57,-0.28 1.7,-1.16l18.29 -22.88 6.29 -18.68c1.48,-6.54 2.05,-26.94 -1.22,-33.62 -2.07,-4.24 -1.2,-7 -2.72,-9.89 -0.63,-1.19 -1.34,-1.09 -2.43,-3.04 -2.17,-3.91 -3.52,-11.63 -10.44,-17.51l-7.05 -7.92c-4.12,-1.13 -4.4,-2.43 -7.76,-4.85 -21.77,-15.71 -39.78,-14.79 -65.22,-14.79 -43.8,0 -93.39,-0.76 -136.72,0.03 -14.84,0.27 -39.09,8.6 -48.59,18.79 -3.74,4.01 -11.66,12.12 -14.37,17.43 -0.61,1.21 -0.4,1.05 -0.86,2.13 -1.69,3.91 -1.66,2.47 -3.2,4.97 -5.3,8.63 -3.25,12.07 -5.95,19.09 -2.41,6.3 -2.79,11.46 -2.11,20.25 0.18,2.29 3.88,17.18 4.58,18.37 0.71,1.21 1.29,0.81 2.21,2.92 1.06,2.39 0.35,2.37 1.16,4.62 1.31,3.59 -0.24,-0.03 1.07,2.05 0.02,0.03 0.83,0.93 1.21,1.54l3.87 5.94c2.35,2.62 0.85,2.7 5.37,7.8 7.59,8.59 11.09,10.87 19.07,15.65 9.97,5.96 7.22,2.13 11.58,5.39 2.58,1.92 -2.16,0.71 3.91,2.02 1.38,0.3 3.68,0.35 5.32,0.61 5.52,0.89 4.29,1.94 8.31,2.84 4.92,1.11 136.28,0.39 158.48,0.4 15.16,0 9.93,1.04 20.31,-2.6 2.89,-1.02 6.54,-0.84 10.27,-1.47 4.86,-0.82 3.84,-1.97 8.81,-2.86zm-184.68 -52.13l149.11 0c9.2,0 4.63,0.34 14.14,-5.13 8.42,-4.84 4.9,-20.16 4.9,-20.17 -3.26,-2.86 -1.11,-0.07 -3.59,-3.9 -3.18,-4.91 -9.92,-6.42 -16.4,-6.42l-150.07 0c-16.58,0.01 -24.16,15.57 -17.73,26.06 4.89,7.98 3.51,9.56 19.64,9.56z"/>
   <path class="fil0" d="M2096.19 1104.6c-3.04,1.64 -6.79,1.4 -11.25,1.65 -7.31,0.41 -24.16,7.77 -32.01,11.37 -9.93,4.56 -14.61,10.04 -21.66,15.57l-18.24 22.79c-0.13,0.18 -0.3,0.4 -0.42,0.57 -3.33,4.33 -9.15,16.73 -10.79,22.5 -3.51,12.39 -3.45,6.61 -4.7,23.06 -0.97,12.66 -0.58,26.9 0.4,40.14 0.54,7.25 2.71,5.14 3.67,10.5 0.36,2.05 0.04,4.24 0.59,6.23l2.5 3.8c1.69,3.09 1.07,4.47 3.35,7.05 0.13,0.14 0.35,0.34 0.48,0.5l13.41 18.18c3.89,4.98 9.29,10.93 13.86,14.77 3.51,2.94 4.32,1.68 7.79,5.68 5.63,6.48 1.99,1.95 8.22,5.97 3.83,2.47 -0.48,1 4.02,2.49l15.86 6.37c2.1,0.86 3.3,0.75 5.63,1.2 4.73,0.91 2.54,0.55 5.35,2.13 6.96,3.93 43.43,3.09 52.33,1.59 4.19,-0.71 0.74,-0.27 4.33,-2 4.48,-2.15 12.18,-3.41 16.62,-5.49 4.2,-1.97 -0.33,-0.65 3.64,-2.87 2.8,-1.56 2.31,-0.16 5.41,-2.25 3.92,-2.64 -1.07,-0.7 4.5,-2.47 4.05,-1.28 2.45,-0.75 5.28,-3.04l6.5 -5.83c3.46,-4.02 4.73,-2.6 8.7,-6.65 0.14,-0.15 0.35,-0.35 0.49,-0.49l7.77 -9.36c6.63,-8.66 11.43,-18.43 15.5,-28.58 1.75,-4.34 1.79,-1.94 2.88,-4.58 0.61,-1.48 0.69,-3.83 1.19,-5.58 0.58,-1.99 1.33,-3.06 1.9,-4.72 1.26,-3.65 1.29,-8.23 1.82,-12.55 1.79,-14.31 1.23,-31.21 -2.94,-44.83 -0.77,-2.53 -0.82,-4.27 -1.32,-6.42 -1.25,-5.32 -9.99,-23.57 -13.86,-28.1 -1.42,-1.67 -1.72,-1.97 -2.95,-3.74l-6.13 -8.28c-3,-4.28 -0.04,-1.26 -3.5,-3.99 -2.88,-2.28 -5.45,-4.04 -7.77,-6.67 -4.25,-4.84 -5.01,-3.42 -9.77,-6.54l-26.55 -13.66c-4.52,-1.24 -5.72,-3.23 -10.01,-4.01 -10.97,-1.98 -21.88,-2.85 -33.23,-2.65 -0.9,0.02 -2.93,0.06 -3.75,0.2 -4.89,0.84 2.5,-2 -3.14,1.04zm53.78 146.26c2.42,-2.08 6.73,-8.38 7.65,-12.59 0.44,-5.83 3.01,-4.46 2.87,-22.79 -0.13,-17.92 -0.93,-12.3 -3.97,-20.25 -2.63,-6.88 -9.98,-16.72 -16.54,-20.41 -3.15,-1.78 -1.57,-0.95 -3.49,-2.31l-12.3 -5.81c-3.8,-0.51 -8.59,-0.75 -11.64,-1.13 -13.14,-1.65 -26.77,2.8 -36.29,11.56l-3.64 3.05c-3.55,3.22 -8.96,10.39 -10.04,14.25 -3.64,13.12 -1.28,2.6 -3.5,8.74 -1.16,3.2 -0.68,14.29 -0.69,18.06 -0.02,9.68 1.05,7.57 2.44,9.71 2.39,3.66 0.41,5.52 2.55,9.83 0.57,1.16 1.13,1.32 2.27,3.55 4.34,8.52 13.9,16.51 22.31,19.87 10.88,4.33 17.52,6.13 31,4.09 4.88,-0.74 3.91,-2.01 8.7,-3.34 11.59,-3.22 17.17,-11.67 22.31,-14.08z"/>
   <path class="fil1" d="M1337.13 1445.6c12.32,-1.55 383.73,-0.39 395.12,-0.39 98.77,0 197.55,0 296.32,0 12.22,0 39.07,2.26 47.85,-2.05 3.51,-1.72 5.36,-1.77 8.39,-4.14 13.58,-10.61 17.67,-27.12 6.95,-42.92 -2.85,-4.19 -5.32,-6.26 -9.35,-8.79 -0.18,-0.11 -0.42,-0.26 -0.6,-0.38 -9.21,-5.91 -36.36,-3.53 -52.29,-3.53 -214.11,0 -428.22,0 -642.34,0 -10.54,0 -40.73,1.34 -48.97,-0.4 -2.04,-9.74 -0.68,-120.22 -0.68,-139.8 0,-47.15 0,-94.31 0,-141.46 0,-5.71 -0.14,-11.59 0,-17.27 0.02,-1 0.05,-2.65 0.23,-3.61 0.05,-0.28 0.09,-0.53 0.16,-0.78l1.17 -2.54c3.07,-5.52 1.97,-10.45 10.25,-16.46 3.39,-2.46 2.54,-1.37 7.12,-2.11 5.46,-0.88 3.16,-1.69 6.15,-2.89 4.93,-1.98 196.93,-0.69 211.92,-0.69l1270.35 0c9.68,0 66.05,-1.07 70.47,0.73 2.57,1.05 1.53,1.98 5.3,2.73 3.78,0.75 4.15,-0.23 7.46,1.78 13.76,8.37 12.51,27.38 12.51,40.15 0,93.82 1.05,188.25 -0.15,281.99 -5.8,1.91 -375.5,0.63 -391.91,0.63l-294.41 0c-9.78,0 -40.76,-1.09 -48.23,1.06 -9.19,2.65 -20.63,16.71 -20.73,28.88 -0.08,8.87 4.94,18.89 11.98,24.47 3.71,2.95 11.58,7.03 16.76,7.33l676.83 0.07c12.86,0 37.63,-1.42 49.07,0.3 2.01,6.21 0.7,318.62 0.7,333.94l0 963.51c0,12.38 1.02,29.9 -0.53,41.66l-1601.59 0.35c-2.38,-11.83 -0.88,-322.05 -0.88,-333.55 0,-335.31 -1.03,-671.39 0.03,-1006.52l-1.15 1.85c-2.21,5.64 -0.84,75.29 -0.84,81.3l0 1237.85c0,3.51 -0.01,7.01 -0.02,10.52 -0.01,1.46 -0.07,3.49 0.05,4.89 0.78,8.58 7.36,6.05 25.77,6.05l1480.64 0c13.01,0 94.8,1.91 99.57,-1.38 2.47,-3.01 0.95,-918.55 0.95,-1006.53 0,-16.07 1.44,-328.71 -0.93,-335.71 -6.21,-2.4 -607.16,-0.91 -681.71,-0.91 -16.73,0 -50.51,4.34 -61.58,-8.31 -5.25,-5.99 -8.82,-6.76 -8.8,-20.22 0.02,-8.6 -0.17,-11.6 5.71,-18.82 3.01,-3.71 12.85,-8.81 15.86,-9.3 8.62,-1.43 497.15,-0.23 536.3,-0.23l171.1 0c31.82,0 24.22,13.24 24.22,-70.1l0 -213.16c0,-14.48 2.67,-26.47 -3.44,-34.04 -4.76,-5.91 -2.49,-6.98 -11.24,-11.55 -2.46,-1.29 -3.27,-2.86 -6.03,-3.37 -8.65,-1.61 -1255.4,-0.36 -1349.37,-0.36 -47.16,0 -94.31,0 -141.47,0 -21.77,0 -49.43,-1.51 -70.49,0.11 -11.53,0.88 -24.6,13.43 -25.06,29.12 -0.18,5.98 -0.03,12.18 -0.03,18.18 0,3.18 -1.08,277.07 0.61,281.83 1.23,3.43 0,0.7 1.22,2.2 2.97,2.46 585.71,0.91 684.48,0.91 15.14,0 34.12,-1 48.81,0.18 5.56,0.44 5.15,1.66 8.68,3.33 2.98,1.42 4.91,2.23 7.39,5.13 3.11,3.64 6.86,12.08 7.21,18.03 0.71,12.04 -3.16,18.19 -11.96,24.79 -12.71,9.52 -38.67,5.65 -55.35,5.65l-687.27 0c-3.99,1.25 -1.02,-0.63 -2.26,2.77z"/>
   <path class="fil0" d="M1883.51 1172.19l2.68 0.08c0.91,4.09 1.15,4.72 3.74,8.02 2.49,3.19 9.7,7.91 13.03,8.63 7.02,1.53 24.9,0.8 32.91,0.7 9.63,-0.11 16.43,-1.78 23.22,-10.11 1.85,-2.28 1.72,-3.24 3.17,-5.49 2.73,-4.25 1.94,0.01 2.55,-5.36 0.98,-8.67 -0.52,-16.05 -5.46,-22.6 -0.15,-0.2 -1.76,-2.09 -2.16,-2.55l-4.34 -4.24c-0.96,-0.79 -4.42,-3.34 -5.03,-3.59 -4.32,-1.75 -27.7,-1.02 -33.95,-0.99 -14.07,0.04 -23.03,3.27 -27.35,14.98 -1.34,3.63 -2.03,3.29 -2.78,5.92 -1.55,5.41 0.73,11.72 -0.23,16.6z"/>
   <path class="fil0" d="M2332.28 1183.65c0.16,-2.65 0.18,-1.41 1.37,-3.27 1.96,-3.05 4.54,-5.14 5.37,-8.92 1.19,-5.43 0.45,-14.52 0.01,-20.16 -1.66,-1.66 -2.62,-1.61 -3.56,-3.44 -0.64,-1.24 -0.24,-1.23 -1.11,-2.81 -2.49,-4.57 -5.02,-5.16 -7.62,-6.29 -2.86,-1.24 -2.65,-1.71 -4.29,-3.56 -9.82,-0.55 -40.17,-2.46 -46.71,1.49 -6.69,4.04 -8.1,4.93 -12.48,11.45 -5.07,7.55 -5.39,25.49 6.56,35.38 10.05,8.32 25.11,5.69 42.64,5.57 15.41,-0.11 11.05,-4.04 19.82,-5.44z"/>
   <path class="fil0" d="M2293.34 1304.38c5.6,0 23.48,0.79 27.58,-1.13 6.4,-2.99 7.56,-3.28 12.16,-8.88 0.17,-0.22 0.7,-0.8 0.87,-1.02 0.13,-0.16 0.31,-0.37 0.44,-0.53 5.12,-6.53 5.07,-3.43 5.22,-15.2 0.03,-2.14 0.04,-4.65 -0.12,-6.77 -0.07,-1.04 -0.2,-2.55 -0.48,-3.53l-7.09 -11.09c-9.59,-8.74 -24.44,-6.77 -39.53,-6.77 -12.02,0 -13,-0.08 -20.56,4.55 -1.46,0.9 -1.27,0.71 -2.36,1.64 -8.65,7.31 -8.4,12.35 -8.33,21.97 0.02,4.35 -0.27,9.86 2.18,12.92 0.79,0.99 2.99,2.53 3.51,3.07 3.74,3.85 1.24,4.38 7.62,6.89 9.36,3.68 1.46,3.88 18.89,3.88z"/>
   <path class="fil1" d="M1722.89 1281.44c-4.97,0.89 -3.95,2.04 -8.81,2.86 -3.73,0.63 -7.38,0.45 -10.27,1.47 -10.38,3.64 -5.15,2.6 -20.31,2.6 -22.2,-0.01 -153.56,0.71 -158.48,-0.4 -4.02,-0.9 -2.79,-1.95 -8.31,-2.84 -1.64,-0.26 -3.94,-0.31 -5.32,-0.61 -6.07,-1.31 -1.33,-0.1 -3.91,-2.02 -4.36,-3.26 -1.61,0.57 -11.58,-5.39 -7.98,-4.78 -11.48,-7.06 -19.07,-15.65 -4.52,-5.1 -3.02,-5.18 -5.37,-7.8l-3.87 -5.94c-0.38,-0.61 -1.19,-1.51 -1.21,-1.54 -1.31,-2.08 0.24,1.54 -1.07,-2.05 -0.81,-2.25 -0.1,-2.23 -1.16,-4.62 -0.92,-2.11 -1.5,-1.71 -2.21,-2.92 -0.7,-1.19 -4.4,-16.08 -4.58,-18.37 -0.68,-8.79 -0.3,-13.95 2.11,-20.25 2.7,-7.02 0.65,-10.46 5.95,-19.09 1.54,-2.5 1.51,-1.06 3.2,-4.97 0.46,-1.08 0.25,-0.92 0.86,-2.13 2.71,-5.31 10.63,-13.42 14.37,-17.43 9.5,-10.19 33.75,-18.52 48.59,-18.79 43.33,-0.79 92.92,-0.03 136.72,-0.03 25.44,0 43.45,-0.92 65.22,14.79 3.36,2.42 3.64,3.72 7.76,4.85 -2.24,-4.7 -2.6,-4.15 -5.91,-6.79 -1.27,-1.01 -1.88,-1.7 -3.23,-2.49 -6.14,-3.57 -12.81,-7.22 -20.12,-8.83 -5.17,-1.13 -3.82,-2.1 -8.39,-2.88 -2.88,-0.49 -7.62,-0.77 -10.45,-0.86 -34.05,-1.03 -80.56,-0.03 -115.68,-0.03 -13.31,0 -44.69,-0.69 -56.54,0.59 -6.27,0.67 -4.4,1 -9.09,2.54 -5.58,1.84 -10.32,2.53 -17.25,6.67 -2.27,1.35 -0.67,0.57 -3.79,2.07 -2.44,1.16 -1.64,0.8 -3.57,2.14 -1.2,0.84 -0.38,0.37 -1.82,1.21l-10.58 9.21c-4.68,4.83 -9.36,9.11 -12.06,16.31l-3.66 7.96c-0.97,2.36 -0.41,2.55 -1,4.79 -1.51,5.74 0.06,0.69 -2.03,3.88 -2.92,4.46 -1.97,35.14 -1.33,38.99 0.79,4.71 1.97,2.63 3.44,7.58 0.43,1.46 0.49,2.77 1.21,4.54 1,2.46 1.15,1.79 2.03,3.85 4.73,11.06 18.05,26.45 26.54,30.98 0.21,0.12 0.47,0.23 0.68,0.34 6.97,3.46 2.2,1.53 6.14,4.09 2.6,1.69 19.62,8.63 25.28,9.02 24,1.67 89.8,0.38 116.66,0.38 15.29,0 30.59,0 45.88,0 7.21,0.01 15.22,0.11 22.03,-0.92l13.41 -3.87c4.08,-1.46 2.96,-0.77 3.95,-4.2z"/>
   <path class="fil2" d="M1881.03 2520.56c-1.73,-4.82 -14.31,-11.57 -19.16,-14.38 -3.45,-2 -6.4,-4.99 -9.34,-6.98 -6.73,-4.56 -12.62,-8.28 -18.09,-14.28 -1.98,-2.17 -0.11,-0.1 -1.97,-1.84 -0.14,-0.14 -0.36,-0.33 -0.5,-0.47 -0.14,-0.13 -0.35,-0.34 -0.49,-0.47 -4.57,-4.38 -3.39,-1.42 -7.52,-4.83l-13.18 -12.68c-1.9,-1.84 -0.05,-0.19 -2.79,-1.74 -8.61,-4.87 -25.88,-26.72 -25.93,-26.75l-1.13 -0.62c-6.54,-3.65 -26.92,-27.99 -31.9,-35.14 -1.96,-2.8 -2.04,-3.22 -5.42,-4.39 1.79,5.56 7.6,12.16 11.74,17.04 4.11,4.84 1.98,3.99 5.11,7.26l16.89 17.58c0.18,0.21 0.69,0.84 0.87,1.05 2,2.23 0.03,0.2 2.39,2.33 8.27,7.47 16,16.33 24.87,23.95 5.88,5.04 11.99,10 17.46,15.03 0.21,0.19 0.82,0.74 1.02,0.94l4.53 3.97c0.16,0.12 0.39,0.3 0.55,0.42 1.71,1.39 0.52,0.69 2.54,2.22 0.76,0.57 1.34,0.85 2.3,1.52 0.86,0.59 1.41,1.06 2.21,1.65l30.76 21.78c0.24,0.15 0.95,0.59 1.19,0.75 3.71,2.56 8.69,6.3 12.99,7.08z"/>
   <path class="fil1" d="M2367.41 2537.03c7.66,-0.4 17.62,-8.03 24.22,-12 1.89,-1.14 3.02,-1.7 4.82,-2.83l57.7 -39.97c18.23,-16 25.8,-23.71 42.37,-39.8 3.89,-3.76 2.28,0.35 3.52,-5.09 -5.15,1.61 -8.19,6.4 -15.81,13.76 -8.8,8.49 -15.11,13.15 -22.34,20.77 -0.13,0.13 -0.32,0.34 -0.45,0.46l-35.83 27.26c-2.19,1.48 -2.15,1.8 -4.39,3.27 -0.84,0.56 -0.97,0.55 -1.77,1.1l-28.93 18.01c-2.11,1.24 -3.67,1.4 -5.33,2.35 -4.14,2.37 -15.99,9.54 -17.78,12.71z"/>
   <line class="fil3" x1="2332.28" y1="1183.65" x2="2332.28" y2= "1183.65" />
   <line class="fil1" x1="1883.51" y1="1172.19" x2="1883.51" y2= "1172.19" />
   <line class="fil0" x1="1960.02" y1="1294.13" x2="1960.02" y2= "1294.13" />
   <line class="fil3" x1="1960.02" y1="1294.13" x2="1960.02" y2= "1294.13" />
  </g>
 </g>
</svg>
