<?xml version="1.0" encoding="UTF-8"?>
<!DOCTYPE svg PUBLIC "-//W3C//DTD SVG 1.1//EN" "http://www.w3.org/Graphics/SVG/1.1/DTD/svg11.dtd">
<!-- Creator: CorelDRAW 2020 (64 Bit) -->
<svg xmlns="http://www.w3.org/2000/svg" xml:space="preserve" width="42.3332mm" height="42.3332mm" version="1.1" style="shape-rendering:geometricPrecision; text-rendering:geometricPrecision; image-rendering:optimizeQuality; fill-rule:evenodd; clip-rule:evenodd"
viewBox="0 0 4233.32 4233.32"
 xmlns:xlink="http://www.w3.org/1999/xlink"
 xmlns:xodm="http://www.corel.com/coreldraw/odm/2003">
 <defs>
  <style type="text/css">
   <![CDATA[
    .fil0 {fill:black}
   ]]>
  </style>
 </defs>
 <g id="Camada_x0020_1">
  <metadata id="CorelCorpID_0Corel-Layer"/>
  <g id="_2551005771040">
   <path class="fil0" d="M895.72 1804.39l-208.94 -0.26c-10.61,52.57 -29.43,112.17 -43.51,163.49 -23.63,86.11 -31.35,76.89 -7.55,166.65 28.96,109.27 56.24,221.91 83.01,332.46 54.07,223.28 110.79,442.23 165.51,664.9 35.84,145.84 -18.92,292.45 46.56,368.9 31.56,36.83 69.62,62.71 140.79,62.75l2081.2 -0.02c76.61,0.16 112.6,-19.7 147.62,-60.35 69.79,-81 11.8,-223.81 47.49,-367.76 55.42,-223.49 110.32,-443.62 165.72,-664.84 27.99,-111.75 55.27,-219.78 83.02,-332.43 23.47,-95.26 19.06,-73.92 -5.77,-167.02 -14.03,-52.55 -34.73,-115.16 -44.37,-166.14l-209.13 -0.68c-6.14,-54.8 -1.23,-761.29 -1.23,-880.79 0,-110.65 3.07,-172.68 -71.15,-223.6 -60.74,-41.66 -180.34,-27.18 -262.11,-27.18l-1768.43 0c-78.31,0 -209.31,-14.25 -266.35,27.24 -74.57,54.25 -71.06,105.79 -71.06,219.26 0,120.77 5.02,830.02 -1.32,885.42zm108.75 -577.14l2224.26 1.89c0,-129.27 4.46,-264.88 0.04,-391.52 -2.56,-73.3 -69.45,-57.73 -135.97,-57.73l-1948.27 0c-67.37,0 -137.5,-16.41 -140.07,57.78 -4.38,126.58 0.01,262.02 0.01,389.58zm1353.94 576.2l549.68 0.65c-12.89,-39.26 -72.83,-96.85 -104.15,-116.66 -106.48,-67.35 -235.51,-71.18 -339.7,-1.02 -46.64,31.41 -55.03,43.17 -85.01,81.83 -11.09,14.29 -13.04,21.78 -20.82,35.2zm-147.14 0.79l55.12 -0.25c33.59,-46.93 34.22,-93.59 132.53,-170.22 135.04,-105.23 327.74,-104.29 465.59,-2.75l41.98 35.17c39.31,36.55 68.19,88.78 92.81,137.96l55.92 0.07c-5.13,-32.06 -43.8,-99 -59.81,-119.95 -27.78,-36.34 -55.05,-68 -90.03,-93.94 -179.03,-132.73 -410.04,-123.7 -566.55,17.69 -46.79,42.28 -116.79,135.85 -127.56,196.22zm-369.07 0.18l281.51 -0.41c11.21,-29.3 19.19,-55.02 32.37,-83.15 12.9,-27.55 32.04,-52 41.05,-74.12 -121.88,-26.41 -216.08,-0.34 -299.72,80.81 -13.78,13.37 -50.11,53.61 -55.21,76.87zm-516.97 -0.57l281.98 0.23c11,-22.27 20.15,-54.81 32.72,-81.37 12.17,-25.73 33.47,-56.08 41.34,-76.69 -124.42,-16.71 -203.23,-12.93 -298.15,81.03 -18.9,18.71 -47.4,47.39 -57.89,76.8zm-147.41 0.59l56.33 -0.43c32.81,-58.84 23.85,-56.91 74.8,-116.78 61.69,-72.5 153.76,-121.18 255.11,-130.74 79.84,-7.53 109.92,9.67 177.61,23.97 15.83,-26.06 27.31,-26.83 40.27,-44.24 -131.25,-58.78 -263.4,-51.62 -386.82,10.17 -89.33,44.71 -203.07,169.65 -217.3,258.05zm515.99 -0.72l57.73 0.38c39.68,-95.64 101.8,-158.18 182.01,-203.29 41.1,-23.12 95.7,-39.64 148.56,-44.4 30.67,-2.76 61.43,-1.75 91.72,2.83 28.68,4.34 55.41,15.8 79.72,18.9 19.21,-20.44 35.73,-30.3 43.86,-43.65 -74.21,-20.33 -107.12,-40.68 -198.16,-36.66 -135.2,5.96 -236.95,62.93 -319.29,155.02 -31.43,35.15 -71.94,93.91 -86.15,150.87zm-602.1 -6.32c21.97,-44.72 17.04,-59.83 59.96,-130.34 25.19,-41.38 78.07,-102.61 111.01,-128.93 8.47,-6.77 17.45,-13.77 26.88,-20.29 19.18,-13.29 37.15,-27.26 59.6,-39.02 150.48,-78.77 315.21,-84.89 466.59,-15.21 31.28,14.39 34.19,28.19 64.46,11.32 68.07,-37.96 160.79,-57.79 240.6,-57.06 79.8,0.73 164.38,20.14 232.07,57.09 28.64,15.64 35.14,0.36 66.28,-13.81 187.22,-85.22 395.11,-49.13 551.31,76.88 58.12,46.9 113.21,123.42 146.42,196.35 10.66,23.41 17.18,50.47 26.87,69.69l84.51 -0.16 0.58 -461.53c-36.25,-11.66 -478.95,-3.37 -555.68,-3.37l-1113.3 0c-151.12,0 -417.49,5.64 -554.08,-0.63l0.13 464.7c26.35,-0.37 63.16,6.09 85.79,-5.68zm-99 1323.91l2245.68 0.15c15.14,-27.56 53.27,-204.85 64.57,-249.65 18.5,-73.35 180.71,-709.61 187.51,-755.03 -282.96,-6.48 -589.53,1.63 -877.25,-0.9 -385.06,-3.37 -778.79,2.72 -1164.68,-0.01l-705.71 0.56 249.88 1004.88zm74.74 334.41l2098.15 0c54.94,0 63.37,-27.04 63.19,-78.83 -0.17,-48.55 -0.51,-97.43 0.03,-145.95l-2224.19 -1.73c-0.49,47.72 -0.01,95.51 -0.27,143.3 -0.28,53.72 6.39,83.21 63.09,83.21zm-323.89 -1447.49l2745.36 0.21 -24.98 -95.35 -2694.88 -1.38 -25.5 96.52z"/>
   <path class="fil0" d="M1619.44 2248.51c-58.86,24.72 -22.38,77.59 -7.36,99.74 104.16,153.61 86.82,133.36 191.86,133.36l650.86 0.01c100.17,0.1 81.2,-18.89 175.35,-145.83 29.45,-39.71 16.6,-88.17 -38.07,-91.57 -99.14,-6.17 -223.98,-0.48 -325.69,0 -76.22,0.36 -623.51,-5.54 -646.95,4.29zm127.14 152.2l738.19 0.52 50.99 -76.37 -838.34 0.55c9.62,24.8 38.77,49.78 49.16,75.3z"/>
   <path class="fil0" d="M2758.73 857.43c-55.27,21.6 -44.04,70.66 -44.04,134.33 0,29.67 -0.87,60.6 -0.1,90.09 2.55,96.95 96.88,74.54 194.09,74.54 227.44,0 226.95,32.66 220.1,-229.04 -2.55,-97.46 -97.07,-74.95 -194.41,-74.95 -36.12,0 -150.05,-4.97 -175.64,5.03zm39.29 216.29l248.15 -0.44 -0.49 -138.19 -247.91 0.11 0.25 138.52z"/>
   <path class="fil0" d="M863.32 2160.33c-9.02,4.1 -16.35,6.98 -21.55,19.58 -9.72,23.49 9.36,71.44 17.61,107.47l67.37 270.6c9.83,37.54 15.83,118.59 73.52,92.44 40.31,-18.27 10.74,-90.31 1.12,-127.67l-67.78 -271.07c-9.66,-39.76 -16.11,-115.98 -70.29,-91.35z"/>
   <path class="fil0" d="M1047.66 3049.57l199.63 -0.4c63.66,-0.04 61.09,-70.46 16.9,-79.89 -33.38,-7.12 -111.01,1.3 -151.43,-1.96 -13.78,-43.24 -44.72,-196.55 -57.69,-211.49 -17.28,-19.91 -49.59,-15.28 -62.54,2.21 -26.38,35.64 47.61,212.1 55.13,291.53z"/>
   <path class="fil0" d="M2544.09 852.63c-84.04,30.9 -42.22,152.17 41.2,128.38 83.37,-23.77 45.9,-160.4 -41.2,-128.38z"/>
   <path class="fil0" d="M2553.15 1019.53c-86.7,17.31 -62.3,146.44 23.55,132.55 36.06,-5.84 62.24,-35.03 55.07,-78.95 -5.68,-34.76 -40.79,-61.15 -78.62,-53.6z"/>
  </g>
 </g>
</svg>
