<?xml version="1.0" encoding="UTF-8"?>
<!DOCTYPE svg PUBLIC "-//W3C//DTD SVG 1.1//EN" "http://www.w3.org/Graphics/SVG/1.1/DTD/svg11.dtd">
<!-- Creator: CorelDRAW 2020 (64 Bit) -->
<svg xmlns="http://www.w3.org/2000/svg" xml:space="preserve" width="42.3332mm" height="42.3332mm" version="1.1" style="shape-rendering:geometricPrecision; text-rendering:geometricPrecision; image-rendering:optimizeQuality; fill-rule:evenodd; clip-rule:evenodd"
viewBox="0 0 4233.32 4233.32"
 xmlns:xlink="http://www.w3.org/1999/xlink"
 xmlns:xodm="http://www.corel.com/coreldraw/odm/2003">
 <defs>
  <style type="text/css">
   <![CDATA[
    .fil0 {fill:black}
    .fil1 {fill:#353535}
    .fil2 {fill:#6B6B6B}
   ]]>
  </style>
 </defs>
 <g id="Camada_x0020_1">
  <metadata id="CorelCorpID_0Corel-Layer"/>
  <g id="_2550769142608">
   <path class="fil0" d="M1096.07 2054.58l330.95 0c57.21,0 86.28,-32.7 89.69,-87.9 9.61,-155.19 125.62,-260.51 277.37,-260.51l577.66 0c33.31,0 96.98,12.45 124.6,27.98 9.53,5.36 24.69,12.94 32.39,18.41l13.46 10.57c6.02,4.66 8.73,7.37 14.44,12.57 29.62,26.93 44.85,49.8 65.41,88.18 10.89,20.35 17.94,57.21 20.64,82.21 7.93,73.56 3.18,656.29 3.18,742.72 0,108.45 -122.87,85.04 -204.92,85.04 -545.57,0 -1091.14,0 -1636.7,0 -45.87,0 -102.11,-7.2 -135.99,13.73 -70.66,43.63 -49.35,158.88 54.75,158.88l2449.04 0c55.22,0 106.3,-26.45 126.62,-80.07 8.5,-22.45 11.09,-29.12 11.09,-60.24l0 -1627.68c0,-32.3 -1.05,-41.65 -9.49,-67.8 -14.49,-44.93 -7.36,-33.94 -44.25,-82.45 -31.77,-41.78 -87.96,-59.56 -139.81,-65.41 -38.17,-4.3 -71.93,-1.6 -105.86,-1.61l-925.19 0c-68.88,0.01 -134.76,-0.01 -204.58,0 -26.17,0.01 -196.34,-1.88 -207.52,1.42 -5.41,83 4.99,424.77 -1.36,464.33 -2.35,14.64 -17.89,39.55 -29.48,47.74 -21,14.87 -25.53,18.97 -58.74,18.97l-327.94 0c-53.12,0 -87.57,-32.7 -87.57,-86.53 0,-142.12 2.45,-305.96 -0.29,-445.21 -61.77,-6.02 -138.91,-5.56 -203.82,30.17 -3.62,1.99 -6.78,3.12 -10.63,4.89 -43.64,20.11 -83.53,83.11 -99.57,128.48 -8.88,25.12 -9.44,42.32 -10.24,65.39 -0.21,6.26 0.04,7.2 0.34,12.94 2.13,39.69 -1.49,21.56 9.07,83.2l28.36 193.5c5.43,31.26 11.83,71.26 14.26,101.15 2.79,34.42 11.76,63.9 15.44,96.54 2.22,19.73 4.18,33.51 6.76,51.56 9.38,65.43 21.44,205.55 47.54,253.25 27.09,49.55 69.43,71.59 130.89,71.59zm1672.57 -907.15c-84.06,12.96 -126.96,51.28 -175.19,105.2 -16.36,18.29 -36.17,64.89 -44.55,93.21 -10.9,36.83 -9.67,90.54 -2.42,126.89 7.95,39.88 22.35,65.95 41.46,96.96 32.01,51.93 104.04,98.64 164.95,111.95 14.56,3.19 28.28,2.87 51.51,6.35 14.17,2.12 45.68,-3.95 51.41,-4.37 37.28,-2.67 68.32,-20.07 96.45,-35.57 48.03,-26.45 76.84,-64.23 101.93,-108.86 1.86,-3.31 3.48,-5.32 5.61,-9.47 37.99,-73.96 30.15,-178.18 -9.04,-244.94l-11.76 -21.61c-58.08,-81.02 -154.57,-133.59 -270.36,-115.74z"/>
   <path class="fil0" d="M739.62 3105.06c-18.42,4.33 -10.33,-2.62 -28.18,8.69 -22.97,14.57 -39.24,37.06 -41.88,65.79 -2.91,31.75 10.75,57.26 32.17,75.06l23.29 13.1c24.44,10.38 119.69,5.43 150.66,5.43l2343.76 -0.01c18.23,-0.05 37.35,-4.47 54.14,-16.38 37.54,-26.62 45.33,-72.16 23.55,-112.09 -20.96,-38.44 -53.57,-42.31 -90.49,-42.27 -9.47,0 -14.89,0 -26.08,0l-2392.87 0c-25.34,0 -29.69,-1.64 -48.07,2.68z"/>
   <path class="fil1" d="M1322.85 976.89c0,58.94 -2.34,323.89 1.11,360.97l192.02 -0.31 0.74 -374.73c-14.32,-4.52 -139.62,-2.04 -173.18,-2.18 -14.27,-0.06 -20.69,-4.94 -20.69,16.25z"/>
   <path class="fil0" d="M1327.26 1333.79c29.01,0 167.75,3.27 184.02,-1.81l0 -366.19 -182.75 -1.44 -1.27 369.44z"/>
   <path class="fil0" d="M1087.54 2170.52c-3.14,45.34 -0.62,98.87 -0.62,145.22 0,55.54 -7.1,88.41 20.66,123.81 29.71,37.88 104.52,57.02 147.36,-10.23 10.87,-17.07 13.29,-33.51 13.29,-56.42l-0.11 -200.8 -180.58 -1.58z"/>
   <path class="fil0" d="M3600.95 2019.81c8.54,-25.27 4.34,-330.23 4.34,-399.07 0,-20.92 3.15,-48.03 -3.46,-66 -5.08,-13.84 -18.44,-32.31 -32.91,-33.3 -19.42,-2.5 -34.27,-7.06 -54.47,-3.26 -3.45,8.48 -6.15,503.23 -1.03,532.8 34.45,1.81 45.28,3.53 65.9,-11.09 11.89,-8.43 6.7,-7.4 17.09,-16.86 0.48,-0.44 1.84,-0.4 2.21,-1.63 0.38,-1.26 1.52,-1.12 2.33,-1.59z"/>
   <path class="fil0" d="M2797.93 1300.06c-21.68,4.17 -27.42,3.57 -44.95,15.35l-9 6.36c-10.41,6.76 -12.81,7.43 -21.21,18.08 -31.98,40.52 -38.27,99.26 -3.33,146.97 0.37,0.5 0.92,1.19 1.3,1.68 69.91,90.48 235.27,31.14 204.83,-103.02 -8.49,-37.44 -38.97,-64.75 -68.07,-78.55 -16.23,-7.71 -44.28,-9.81 -59.57,-6.87z"/>
   <path class="fil2" d="M3600.95 2019.81c-0.81,0.47 -1.95,0.33 -2.33,1.59 -0.37,1.23 -1.73,1.19 -2.21,1.63 -10.39,9.46 -5.2,8.43 -17.09,16.86 -20.62,14.62 -31.45,12.9 -65.9,11.09 -5.12,-29.57 -2.42,-524.32 1.03,-532.8 20.2,-3.8 35.05,0.76 54.47,3.26 -6.39,-7.01 4.41,-1.89 -10.34,-7.06l-34.8 -2.49c-4.29,0.27 -3.86,-0.26 -8.03,1.13 -4.85,1.61 -7.74,-1.51 -9.15,14.28l0.13 391.3c0,37.7 -3.76,101.71 1.09,136.33 4.87,3.17 70.31,13.63 93.13,-35.12z"/>
  </g>
 </g>
</svg>
