<?xml version="1.0" encoding="UTF-8"?>
<!DOCTYPE svg PUBLIC "-//W3C//DTD SVG 1.1//EN" "http://www.w3.org/Graphics/SVG/1.1/DTD/svg11.dtd">
<!-- Creator: CorelDRAW 2020 (64 Bit) -->
<svg xmlns="http://www.w3.org/2000/svg" xml:space="preserve" width="42.3332mm" height="42.3332mm" version="1.1" style="shape-rendering:geometricPrecision; text-rendering:geometricPrecision; image-rendering:optimizeQuality; fill-rule:evenodd; clip-rule:evenodd"
viewBox="0 0 4233.32 4233.32"
 xmlns:xlink="http://www.w3.org/1999/xlink"
 xmlns:xodm="http://www.corel.com/coreldraw/odm/2003">
 <defs>
  <style type="text/css">
   <![CDATA[
    .fil0 {fill:black}
   ]]>
  </style>
 </defs>
 <g id="Camada_x0020_1">
  <metadata id="CorelCorpID_0Corel-Layer"/>
  <path class="fil0" d="M1120.06 1653.46c-7.22,249.01 -131.34,1038.09 -181.12,1376.32 -27.8,188.93 -58.51,191.27 221.4,181.59 76.81,-2.66 63.68,-72.2 74.49,-146.96l112.46 -785.35c17.69,-127.68 42.81,-261.87 55.07,-393.41l142.31 9.98c12.58,96.03 -143.32,793.69 -117.18,902.45 48.58,21.97 88.84,14.92 151.52,14.99 172.28,0.18 127.93,22.58 181.59,-324.04 14.11,-91.1 25.39,-197 41.93,-284.9 16.48,-87.57 23.01,-203.25 45.61,-289.56l538.26 -0.05c36.3,138.75 103.1,771.31 131.81,861.33 15.93,49.98 75.72,37.34 129.84,37.22 64.43,-0.14 108.94,7.37 159.12,-14.92 17.59,-74.41 -38.87,-356.34 -53.82,-452.45 -12.3,-79.07 -69.29,-393.79 -63.49,-450.56l142.08 -12.14c23.64,253.91 74.25,529.38 110.88,782.94 18.59,128.77 37.15,261.89 55.92,391.73 10.1,69.88 -0.2,148.71 68.59,153.49 299.45,20.8 251.71,-16.6 229.4,-174.4 -50.13,-354.66 -175.25,-1116.36 -182.23,-1383.49 82.29,-21.14 160.35,-28.06 242.27,-55.46 85.08,-28.47 155.27,-54.18 156.22,-148.16 2.34,-230.27 38.26,-276.18 -268.71,-342.86 -551.31,-119.74 -1702.73,-119.81 -2254.07,0 -76.58,16.63 -160.5,37.43 -220.02,79.27 -69.66,48.97 -49.96,148.91 -49.1,256.16 1.36,167.88 242.04,168.36 398.97,211.24zm-287.61 -383.3c381.55,199.27 2184.85,195.74 2569.82,0.05 -56.9,-68.82 -472.31,-113.33 -593.91,-123.54 -447.77,-37.56 -934.38,-37.92 -1382.19,-0.01 -119.78,10.15 -538.65,55.13 -593.72,123.5zm-10.64 195.11c198.88,83.05 375.58,102.79 598.01,121.64 453.37,38.42 934.88,38.31 1388.53,0.56 106.28,-8.85 215.69,-22.04 318.77,-39.65 127.64,-21.81 174.08,-32.94 285.11,-82.94l0.97 -85.64c-309.65,75.75 -259.75,75.95 -607.82,110.04 -477.2,46.74 -1213.35,37.67 -1691.76,-38.18 -115.6,-18.32 -190.9,-46.95 -291.84,-71.9l0.03 86.07zm399.03 280.38c377.38,94.87 1417.01,99.03 1791.87,-0.08l1.39 -78.38c-371.7,27.64 -500.14,48.56 -896.83,48.56 -152.35,0 -304.7,-2.23 -456.32,-11.13 -148.56,-8.72 -296.39,-28 -439.99,-37.46l-0.12 78.49zm1710.12 122.35c33.26,307.07 107.26,762.2 155.95,1095.49l15.98 117.19c7.79,35.5 -11.1,30.26 101.6,30.36 -3.04,-39.19 -164.09,-1215.29 -182.65,-1260.34l-90.88 17.3zm-1902.06 1243.26l98.8 -1.47 176.83 -1242.8 -91.68 -17.06 -183.95 1261.33zm499.99 -400.04l97.13 1.5 119.98 -805.46 -92.2 -3.92c-18.24,34.87 -113.95,708.31 -124.91,807.88zm974.52 -694.57l105.62 696.1 96.61 -0.71c-12.76,-116.85 -33.88,-234.81 -51.22,-349.94 -10.89,-72.44 -54.76,-307.74 -48.68,-360.18 -13.42,-19.83 -14.41,-72.11 -25.01,-97.64l-91.82 2.14 14.5 110.23z"/>
 </g>
</svg>
