<?xml version="1.0" encoding="UTF-8"?>
<!DOCTYPE svg PUBLIC "-//W3C//DTD SVG 1.1//EN" "http://www.w3.org/Graphics/SVG/1.1/DTD/svg11.dtd">
<!-- Creator: CorelDRAW 2020 (64 Bit) -->
<svg xmlns="http://www.w3.org/2000/svg" xml:space="preserve" width="42.3332mm" height="42.3332mm" version="1.1" style="shape-rendering:geometricPrecision; text-rendering:geometricPrecision; image-rendering:optimizeQuality; fill-rule:evenodd; clip-rule:evenodd"
viewBox="0 0 4233.32 4233.32"
 xmlns:xlink="http://www.w3.org/1999/xlink"
 xmlns:xodm="http://www.corel.com/coreldraw/odm/2003">
 <defs>
  <style type="text/css">
   <![CDATA[
    .fil0 {fill:black}
   ]]>
  </style>
 </defs>
 <g id="Camada_x0020_1">
  <metadata id="CorelCorpID_0Corel-Layer"/>
  <path class="fil0" d="M500.32 1255.81c0.19,11.83 -3.67,22.48 -2.83,38.06 0.68,12.56 2.47,9.37 2.46,19.87l-0.73 6.1c0.07,5.88 8.67,13.45 12.09,18.36 10.18,14.6 16.02,15.97 38.52,28.13 -2.33,-5.5 0.05,-1.6 2.29,-3.63 8.02,9.14 23.34,6.72 35.51,6.69 99.08,-0.28 602.91,-3.59 611.33,2.24 8.21,5.69 3.81,14.71 4.08,31.81l0 16.24c0,0.24 -0.04,0.95 -0.04,1.2 0,0.24 0,0.95 0,1.19l0 8.72c0,0.24 0,0.95 0,1.19l0 18.64c0,0.24 0,0.95 0,1.19l0 28.55c0,0.24 0,0.95 0,1.19l0.04 27.36c0,0.24 -0.04,0.95 -0.04,1.2 0,0.24 0,0.94 0,1.18 0,0.51 0.16,3.09 0.16,3.72 0,0.27 0,1.03 0,1.3 0,0.26 -0.04,1.01 -0.05,1.28l-0.11 2.43c0,0.24 0,0.95 0,1.19 0,0.5 0.16,3.09 0.16,3.71l-0.16 91.77c0,0.24 0,0.95 0,1.19l0 8.72c0,0.24 0,0.95 0,1.19 0,0.24 0.04,0.96 0.04,1.2l-0.04 17.44c0,0.24 0,0.95 0,1.19l0 8.72c0,0.25 0,0.95 0,1.19l0 18.64c0,0.24 0,0.95 0,1.19l0 59.49c0,0.24 0.04,0.96 0.04,1.2 0.07,3.99 0.17,-3.2 0.12,3.81l-0.16 3.71c0,0.24 0,0.95 0,1.19l0 18.64c0,0.24 0,0.95 0,1.19l0 48.38c0,0.24 0,0.95 0,1.19l0 8.73c0,0.24 0,0.95 0,1.19 0,0.24 0.04,0.95 0.04,1.2l0.12 132.7c0,0.62 -0.16,3.21 -0.16,3.71 0,0.24 0,0.95 0,1.19l0.16 5.01c0,0.63 -0.16,3.21 -0.16,3.71 0,0.24 0,0.95 0,1.19l0 9.92c0,0.24 0.04,0.95 0.04,1.2l-0.04 8.71c0,0.25 0.04,0.96 0.04,1.2l-0.04 7.53c0,0.24 0,0.95 0,1.19l0 18.64c0,0.24 0,0.94 0,1.18l0 8.73c0,0.24 0,0.95 0,1.19l0.16 24.84c0,0.63 -0.16,3.21 -0.16,3.71 0,0.24 0,0.95 0,1.19l0 8.73c0,0.24 0,0.95 0,1.19l0.16 14.92c0,0.63 -0.16,3.21 -0.16,3.72 0,0.24 0,0.95 0,1.19l0.16 3.71c0,0.27 0,1.03 0,1.3 0,0.62 -0.16,3.21 -0.16,3.71 0,0.24 0,0.95 0,1.19l0 8.73c0,0.24 0,0.94 0,1.18l0 8.73c0,0.24 0,0.95 0,1.19l0 18.64c0,0.24 0,0.95 0,1.19l0 8.72c0,0.24 0,0.95 0,1.19l0.04 17.44c0,0.25 -0.04,0.96 -0.04,1.2 0,0.24 0,0.95 0,1.19l0 8.73c0,0.24 0,0.95 0,1.19l0.16 5.01c0,0.62 -0.16,3.21 -0.16,3.71 0,0.24 0,0.95 0,1.19l0.16 14.92c0,0.63 -0.16,3.22 -0.16,3.72l0 19.83c0,0.24 0,0.95 0,1.19l0.14 45.87c0.05,8.51 -2.16,12.7 -0.44,24.2l0.32 9.28c0,0.5 0.14,3.05 0.14,3.68l-0.16 14.92c0,0.24 0,0.95 0,1.19l0 18.64c0,0.24 0,0.95 0,1.19l0 8.73c0,0.24 0,0.94 0,1.18l0 8.73c0,0.24 0,0.95 0,1.19l0 8.72c0,0.24 0,0.95 0,1.19l0 8.73c0,0.24 0,0.95 0,1.19l0 8.72c0,0.24 0,0.95 0,1.19l0 8.73c0,0.24 0,0.95 0,1.19l0 18.63c0,0.25 0,0.95 0,1.2l0 18.64c0,0.24 0,0.94 0,1.18l0 8.73c0,0.24 0,0.95 0,1.19l0 8.72c0,0.24 0,0.95 0,1.19l0 8.73c0,0.24 0,0.95 0,1.19l0 8.72c0,0.24 0,0.95 0,1.19l0 8.73c0,0.24 0,0.94 0,1.18l0 18.64c0,0.25 0,0.95 0,1.2l0 8.72c0,0.24 0,0.95 0,1.19l0 8.72c0,0.24 0,0.95 0,1.19l0 8.73c0,0.24 0,0.95 0,1.19l0 8.72c0,0.24 0,0.95 0,1.19l0 28.56c0,0.24 0,0.94 0,1.18l0 8.73c0,0.24 0,0.95 0,1.19l0.16 5.01c0,0.63 -0.16,3.21 -0.16,3.71l0 9.92c0,0.24 0,0.95 0,1.19l0 8.72c0,0.24 0,0.95 0,1.19l0 8.73c0,0.24 0,0.95 0,1.19l0 8.72c0,0.24 0,0.95 0,1.19l0 8.73c0,0.24 0,0.95 0,1.19l0 8.72c0,0.24 0,0.95 0,1.19l0 8.73c0,0.24 0,0.94 0,1.18l0 8.73c0,0.24 0,0.95 0,1.19l0 8.72c0,0.25 0,0.95 0,1.19l0 28.56c0,0.24 0,0.94 0,1.19l0 8.72c0,0.24 0,0.95 0,1.19l0 8.73c0,0.24 0,0.95 0,1.19l0 8.72c0,0.24 0,0.95 0,1.19 0,0.5 0.16,3.09 0.16,3.71l-0.16 5.01c0,0.24 0,0.95 0,1.19l0 18.64c0,0.25 0,0.95 0,1.19l0.04 7.53c0,0.24 -0.04,0.95 -0.04,1.2 0,0.24 0,0.95 0,1.19l0 8.72c0,0.24 0,0.95 0,1.19l0.04 7.53c0,0.24 -0.04,0.95 -0.04,1.2 0,0.24 0,0.94 0,1.19l0 8.72c0,0.24 0,0.95 0,1.19l0 28.55c0,0.24 0,0.95 0,1.19l0 18.64c0,0.24 0,0.95 0,1.19 0,0.5 0.16,3.09 0.16,3.72l0.02 29.88c0,0.27 -0.08,0.99 -0.08,1.25 0,0.25 -0.06,0.95 -0.06,1.2 0,0.24 -0.02,0.93 -0.02,1.17l-0.02 28.51c0,0.25 0,0.95 0,1.2l0.16 5.01c0,0.62 -0.16,3.21 -0.16,3.71 0,0.24 0,0.95 0,1.19l0.04 7.52c0,0.25 -0.04,0.96 -0.04,1.2 0,0.24 0,0.95 0,1.19l0.16 5.02c0,0.62 -0.16,3.21 -0.16,3.71 0,0.24 0,0.95 0,1.19l0.04 7.52c0,0.25 -0.04,0.96 -0.04,1.2 0,0.24 0,0.95 0,1.19l0.04 7.52c0,0.25 -0.04,0.96 -0.04,1.21 0,0.24 0,0.95 0,1.19l0.04 11.11c0.11,6.93 1.5,12.74 -1.35,19.91 5.22,3.7 0.73,1.71 4.61,2.24 6.98,0.95 1.87,1.44 6.36,-1.4 18.22,1.72 100.73,2.38 113.9,-1.29 8.29,-16.53 5.44,-62.57 6.01,-89.51 0.68,-32.19 7.95,-61.06 10.26,-94.08 0.56,-8.03 -0.07,-17.02 0.63,-24.93 1.08,-12.11 3.02,-8.57 4.22,-21.97 3.47,-38.78 -2.75,-97.9 9.7,-142.59 0.05,-0.15 0.19,-0.73 0.22,-0.86l0.31 -35.9c3.06,-24.02 3.17,-56.31 7.32,-77.21 1.93,-9.74 0.52,-35.65 1.4,-53.89 1.48,-30.43 -0.04,-66.52 6.33,-91.98l20.42 -244.48c0.94,-10.22 -0.3,-25.07 0.64,-36.28 1.36,-16.27 0.91,-33.64 2.89,-49.39l3.7 -29.04c0.71,-4.55 -1.29,6.19 0.95,-3.71l0.45 -2.33c-0.03,-0.72 -1.76,-6.25 -1.54,-15.6 0.19,-7.99 0.33,-13.59 0.82,-19.37 0.21,-2.37 0.43,-3.84 0.69,-7.51 0.47,-6.51 -0.3,2.37 0.33,-5 0.11,-1.27 0.45,-4.03 0.6,-5.85l5.42 -74.16c0.97,-8.83 0.64,-18.33 1.03,-27.25 0.59,-13.25 2.7,-11.55 4.16,-20.41l6.77 -113.62c0.44,-39.06 -9.7,-54.03 19.8,-54.58 6.49,-0.12 13.45,0.12 20.01,0.13l1110.42 0c49.11,0 118.72,-4.03 165.4,1.06 5.07,36.45 5.32,65.94 5.56,79.04 0.41,22.24 -0.6,33.98 3.09,53.71l3.08 40.15c1.06,18.81 3.15,8.51 3.75,47.55l8.01 94.3c0.07,0.38 0.18,1.09 0.24,1.47l8.48 122.44c0.78,21.08 -3.51,1.09 -0.96,16.36l2.19 22.84c-1.24,8.65 13.39,137.78 14.04,173.24l6.11 103.41c1.87,14.94 2.56,36.02 4.68,50.56 1.22,8.32 -0.37,-1.96 0.37,4.79 0.13,1.13 0.37,3.67 0.11,6.28 -0.6,6.17 -0.44,-0.03 -0.29,2.56 0.01,0.12 0.09,0.69 0.11,0.82l1.37 11.06c1.02,14.11 4.08,28.19 4.53,48.52 0.4,18.18 -0.98,38.29 2.49,55.72l-0.52 15.16c-1.72,6.59 2.97,10.05 2.13,17.05l16.19 226.37c-0.03,32.26 7.78,104.76 10.62,126.93 -0.3,0.3 -0.69,0.5 -0.74,1.04 -0.83,8.04 -2.3,10.6 0.95,20.67 15.8,3.78 112.31,3.27 118.74,-1.41l-1.92 -7.15c0,-0.32 0.1,-1.09 0.11,-1.4l0.32 -13.61c0,-0.5 -0.11,-1.92 -0.11,-2.43l-0.06 -2.59c0.01,-0.51 0.17,-3.22 0.17,-3.72l0 -9.91c0,-0.24 0,-0.94 0,-1.18 0,-0.24 -0.04,-0.95 -0.04,-1.2 -0.01,-0.25 -0.07,-0.97 -0.07,-1.23l0.11 -7.49c0,-0.24 -0.04,-0.95 -0.04,-1.19 -0.01,-0.25 -0.07,-0.98 -0.07,-1.23l0.11 -17.4c0,-0.51 -0.16,-3.22 -0.17,-3.72l0.17 -14.94c0,-0.23 0,-0.94 0,-1.17l-0.11 -73.23c0,-0.26 0.06,-0.99 0.07,-1.24l0.04 -2.37c0,-0.5 -0.16,-3.21 -0.17,-3.72l0.06 -2.59c0,-0.25 0.06,-0.98 0.07,-1.23l0 -9.92c0,-0.24 0.04,-0.95 0.04,-1.19 0,-0.24 0,-0.94 0,-1.18 0,-0.5 -0.16,-3.22 -0.17,-3.71l0.06 -2.6c0,-0.25 0.06,-0.98 0.07,-1.23l-0.07 -8.68c0,-0.26 0.06,-0.98 0.07,-1.24l0 -9.91c0,-0.25 0.04,-0.95 0.04,-1.19 0,-0.24 0,-0.94 0,-1.18l0 -9.92c0,-0.5 -0.11,-1.91 -0.11,-2.43l0 -33.62c0,-0.25 0.06,-0.98 0.07,-1.23l0.04 -2.37c0,-0.25 -0.04,-0.95 -0.04,-1.2 -0.01,-0.25 -0.07,-0.98 -0.07,-1.23l0.07 -5.12c0,-0.24 0.04,-0.95 0.04,-1.19 0,-0.24 0,-0.94 0,-1.18 0,-0.24 -0.04,-0.95 -0.04,-1.19 -0.01,-0.25 -0.07,-0.98 -0.07,-1.24l0 -3.88c0,-0.25 0.06,-0.98 0.07,-1.23l-0.13 -7.4c0.01,-0.26 0.05,-1.02 0.06,-1.28 0,-0.26 0.06,-0.98 0.07,-1.24l0.04 -2.37c0,-0.5 -0.16,-3.21 -0.17,-3.71l0.13 -3.83c0,-0.25 0.04,-0.95 0.04,-1.19 0,-0.24 0,-0.94 0,-1.18l-0.11 -6.31c0,-0.25 0.06,-0.98 0.07,-1.23l0.04 -2.38c0,-0.5 -0.16,-3.21 -0.17,-3.71l0.06 -2.59c0,-0.26 0.06,-0.99 0.07,-1.24l0.04 -32.11c0,-0.51 -0.11,-1.92 -0.11,-2.43l0 -13.8c0,-0.25 0.06,-0.98 0.07,-1.23l0 -19.83c0,-0.24 0.04,-0.95 0.04,-1.19 0,-0.24 0,-0.94 0,-1.18 0,-0.24 -0.04,-0.95 -0.04,-1.19 -0.01,-0.26 -0.07,-0.99 -0.07,-1.24l0 -3.88c0,-0.25 0.06,-0.98 0.07,-1.23l-0.07 -8.68c0,-0.26 0.06,-0.98 0.07,-1.24l-0.07 -18.59c0,-0.26 0.06,-0.99 0.07,-1.24l0.04 -12.28c0,-0.5 -0.11,-1.92 -0.11,-2.43l0.11 -37.23c0,-0.5 -0.11,-1.92 -0.11,-2.43l0 -13.79c0,-0.26 0.06,-0.98 0.07,-1.24l0.04 -2.37c0,-0.24 -0.04,-0.95 -0.04,-1.19 -0.01,-0.26 -0.07,-0.98 -0.07,-1.24l0.07 -8.68c-0.01,-0.25 -0.07,-0.98 -0.07,-1.23l0 -3.88c0,-0.26 0.06,-0.99 0.07,-1.24l-0.07 -8.68c0,-0.25 0.06,-0.98 0.07,-1.23l0.04 -2.37c0,-0.5 -0.16,-3.22 -0.17,-3.72l0.13 -3.82c0,-0.25 0.04,-0.96 0.04,-1.2 0,-0.24 0,-0.94 0,-1.18l-0.11 -16.22c0,-0.25 0.06,-0.98 0.07,-1.24l0.04 -11.1c0,-0.24 0,-0.94 0,-1.18l0 -19.83c0,-0.5 -0.11,-1.91 -0.11,-2.43l0.11 -17.4c0,-0.5 -0.11,-1.92 -0.11,-2.43l0.11 -7.48c0,-0.24 -0.04,-0.95 -0.04,-1.19 -0.01,-0.26 -0.07,-0.99 -0.07,-1.24l0.07 -5.11c0,-0.25 0.04,-0.96 0.04,-1.2 0,-0.24 0,-0.94 0,-1.18 0,-0.24 -0.04,-0.95 -0.04,-1.19 -0.01,-0.25 -0.07,-0.98 -0.07,-1.24l0 -3.87c0,-0.26 0.06,-0.99 0.07,-1.24l-0.13 -7.39c0.01,-0.27 0.05,-1.02 0.06,-1.29 0,-0.25 0.06,-0.98 0.07,-1.23l-0.07 -8.68c0,-0.26 0.06,-0.99 0.07,-1.24 0,-0.24 0.04,-0.95 0.04,-1.19 0,-0.24 0,-0.94 0,-1.18 0,-0.5 -0.16,-3.22 -0.17,-3.71l0.06 -2.6c0,-0.25 0.06,-0.98 0.07,-1.23l-0.07 -18.59c0,-0.26 0.06,-0.99 0.07,-1.24l0.03 -49.48c0,-0.24 -0.03,-0.95 -0.04,-1.19l0.05 -49.67c0,-0.24 0,-0.94 0,-1.18l0 -8.73c0,-0.24 0,-0.94 0,-1.18 0,-0.5 -0.11,-1.92 -0.11,-2.43l-0.06 -2.59c0.01,-0.5 0.17,-3.22 0.17,-3.72 0,-0.23 0,-0.94 0,-1.17l0 -78.14c0,-0.24 0,-0.94 0,-1.18l-0.17 -5.02c0.01,-0.5 0.17,-3.22 0.17,-3.72l0 -19.82c0,-0.24 0,-0.94 0,-1.18l0 -8.74c0,-0.24 0,-0.94 0,-1.18 0,-0.24 -0.04,-0.95 -0.04,-1.19l0.04 -27.37c0,-0.24 0,-0.94 0,-1.18l0 -8.74c0,-0.24 0,-0.94 0,-1.18l-0.17 -34.76c0.01,-0.5 0.17,-3.21 0.17,-3.71l0 -9.92c0,-0.24 0,-0.94 0,-1.18l-0.17 -5.02c0.01,-0.5 0.17,-3.21 0.17,-3.71l0 -9.92c0,-0.24 0,-0.94 0,-1.18l-0.11 -6.3c0,-0.26 0.06,-0.99 0.07,-1.24 0,-0.24 0.04,-0.95 0.04,-1.19 0,-0.24 0,-0.94 0,-1.18l-0.07 -61.88c-0.01,-0.27 -0.07,-1.03 -0.07,-1.3 -0.01,-0.27 -0.01,-1.04 -0.01,-1.32l0.04 -31.04c0,-0.25 0.06,-0.98 0.07,-1.23l0 -3.57c-0.01,-0.25 -0.07,-0.98 -0.07,-1.23l0 -13.8c0,-0.25 0.06,-0.98 0.07,-1.23l-0.07 -8.68c0,-0.26 0.06,-0.98 0.07,-1.24l-0.07 -28.5c0,-0.26 0.06,-0.99 0.07,-1.24l-0.07 -48.33c0,-0.26 0.06,-0.99 0.07,-1.24l-0.07 -8.68c0,-0.26 0.06,-0.98 0.07,-1.24l-0.07 -18.59c0,-0.26 0.06,-0.98 0.07,-1.23l-0.07 -8.68c0,-0.26 0.06,-0.99 0.07,-1.24l-0.07 -18.59c0,-0.26 0.06,-0.98 0.07,-1.24l-0.07 -58.25c0,-0.26 0.06,-0.98 0.07,-1.23l-0.07 -8.68c0,-0.26 0.06,-0.99 0.07,-1.24l0 -3.56c-0.01,-0.26 -0.07,-0.98 -0.07,-1.24l0 -13.79c0,-0.26 0.06,-0.98 0.07,-1.24l-0.07 -8.68c0,-0.25 0.06,-0.98 0.07,-1.23l-0.07 -28.51c0,-0.25 0.06,-0.98 0.07,-1.23l-0.07 -75.61c0,-0.25 0.06,-0.98 0.07,-1.23l-0.07 -38.42c0,-0.26 0.06,-0.99 0.07,-1.24l0 -43.22c-0.01,-0.25 -0.07,-0.98 -0.07,-1.24l-0.03 -22.38c0.11,-7.47 0.48,-1.86 0.01,-5.86 -1.23,-10.59 -4.01,-12.34 3.82,-19.26 8.96,-6.47 594.3,-2.52 686.34,-2.34 8.93,0.02 17.95,0.37 26.81,-0.57 6.28,-0.67 20.47,-2.55 25,-4.28 12.67,-4.86 22.51,-11.78 31.14,-21.99 7.75,-9.17 -0.81,-2.25 5.61,-11.65 6.56,-9.63 5.51,-0.55 6.96,-14.96 4.73,-46.88 2.23,-93.98 -53.39,-106.78 -25.67,-5.91 -374.06,-2.1 -408.33,-2.1l-2649.64 0.01c-33.38,0 -68.13,-3.97 -97.46,13.12 -11.12,6.47 -7.82,3.17 -14.92,15 -6.12,10.19 -9.25,8.09 -10.25,21.4zm2218.01 271.23c4.68,-4.5 0.68,1 3.8,-4.77l2.5 -13.82c1.25,-10 1.6,-1.6 0.31,-9.61 -1.19,-7.48 0.52,2.49 -1.05,-3.93 -0.14,-0.57 -1.2,-5.51 -1.31,-6.09l-6.74 -66.83c3.41,-16.73 -1.13,-14.36 -0.27,-20 0.68,-4.39 4.02,-31.86 -8.73,-34.81l-1256.65 0c-13.97,20.89 -9.6,77.55 -12.13,105.02l-1.71 24.3c0.01,0.5 0.25,3.2 0.3,3.64l0.45 7.68c-0.1,8.81 0.44,-5.31 0,2.37 -0.15,2.68 -0.21,1.99 -0.27,2.39 -1.32,8.93 -0.32,12.56 10.44,13.12 0.43,0.02 2.95,0 3.38,-0.04l7.81 -0.75c3.27,0 -2.93,-0.12 2.45,-0.03l21.41 0.02c10.56,0.83 -8.95,-1.31 2.55,0.39l42.82 0.48c0.44,0.01 1.84,-0.07 2.28,-0.11l7.8 -0.75c3.27,0 -2.92,-0.12 2.45,-0.03 1.07,0.02 2.04,0.05 2.39,0.09 7.32,0.86 -5.71,1.15 6.06,0.8l28.76 -0.86c3.27,0 -2.93,-0.12 2.45,-0.03 17.22,0.27 30.25,1.88 53.81,0.02l7.26 0c10.56,0.83 -8.96,-1.31 2.55,0.39l11.61 -0.41c5.38,-0.09 -0.82,0.03 2.45,0.03 0.34,-0.01 1.56,-0.08 2.43,-0.04l16.58 0.04c3.27,0 -2.92,-0.12 2.45,-0.03l114.1 -0.01c0.87,-0.04 2.09,0.03 2.43,0.04l75.29 0.06c0.35,-0.04 1.32,-0.07 2.39,-0.09 5.38,-0.09 -0.82,0.03 2.45,0.03l66.23 0.58c2.95,0.37 4.87,0.04 6.5,-0.2l5.76 -0.38c0.12,0 0.72,0 0.82,0l11.21 0.75c2.73,-0.23 2.57,-0.49 2.94,-0.55l9.7 -0.14c7.32,0.86 -5.71,1.15 6.06,0.8l27.13 -0.89c5.38,-0.09 -0.82,0.03 2.45,0.03l98.32 0c3.27,0 -2.92,-0.12 2.46,-0.03l10.63 0.61c6.02,-0.77 0.31,-0.23 2.72,-0.52l21.42 -0.1c0.87,-0.04 2.1,0.03 2.43,0.04l99.15 0c0.11,0 0.71,0 0.82,0l58.66 0c15.31,0 19.17,1.99 35.64,0.06l16.05 0.69c9.82,-0.84 -1.78,-0.49 5.37,-0.79l20.63 0.01c5.37,-0.09 -0.82,0.03 2.45,0.03 0.33,-0.01 1.56,-0.08 2.43,-0.04l42.09 0.24c0.37,0.06 0.21,0.32 2.94,0.55l53.31 -0.78c1.07,0.02 2.04,0.05 2.39,0.09 7.32,0.86 -5.71,1.15 6.06,0.8l12.97 -0.87c10.56,0.83 -8.96,-1.31 2.55,0.39l11.61 -0.41c5.38,-0.09 -0.82,0.03 2.45,0.03l19.01 0c0.11,0 0.71,0 0.82,0l78.49 0c3.27,0 -2.92,-0.12 2.45,-0.03l15.75 0c5.38,-0.09 -0.82,0.03 2.45,0.03l4.86 0.2c0.37,0.06 0.22,0.32 2.94,0.55l8.78 -0.79c0.87,-0.04 2.1,0.03 2.43,0.04 15.31,0 19.17,1.99 35.64,0.06l12.29 0.77c5.84,2.42 -2.32,-2.18 2.39,1.3z"/>
 </g>
</svg>
