<?xml version="1.0" encoding="UTF-8"?>
<!DOCTYPE svg PUBLIC "-//W3C//DTD SVG 1.1//EN" "http://www.w3.org/Graphics/SVG/1.1/DTD/svg11.dtd">
<!-- Creator: CorelDRAW 2020 (64 Bit) -->
<svg xmlns="http://www.w3.org/2000/svg" xml:space="preserve" width="42.3332mm" height="42.3332mm" version="1.1" style="shape-rendering:geometricPrecision; text-rendering:geometricPrecision; image-rendering:optimizeQuality; fill-rule:evenodd; clip-rule:evenodd"
viewBox="0 0 4233.32 4233.32"
 xmlns:xlink="http://www.w3.org/1999/xlink"
 xmlns:xodm="http://www.corel.com/coreldraw/odm/2003">
 <defs>
  <style type="text/css">
   <![CDATA[
    .fil0 {fill:black}
   ]]>
  </style>
 </defs>
 <g id="Camada_x0020_1">
  <metadata id="CorelCorpID_0Corel-Layer"/>
  <g id="_2550493425520">
   <path class="fil0" d="M1256.7 2864.67c-13.37,-8.38 -7.14,-39.45 -7.13,-53.69l-0.13 -910.65c-0.1,-13.03 -1.67,-19.03 3.58,-27.57 9.39,-9.58 1177.44,-3.85 1293.92,-3.85 50.83,0 418.14,-5.22 432.27,3.85 7.57,7.72 3.45,233.66 3.45,244l-0.04 735.88c-3.41,19.59 0.19,6.49 -6.11,12.37 -37.71,4.42 -78.76,72.83 -36.52,128.46 41.6,54.79 147.38,36.57 190.93,-44.86 13.37,-25.01 17.07,-49.01 17.05,-85.3 -0.05,-101.68 -4.06,-953.31 0.99,-992.52 22.3,-8.6 34.99,-9.32 55.14,-24.77 12.94,-9.92 26.33,-25.24 34.04,-39.54 33.38,-61.93 10.55,-200.25 16.7,-279.7 1.48,-19.1 5.98,-16.37 24.37,-16.16 51.41,0.59 114.26,7.15 156.4,-12.33 105.04,-48.53 84.64,-150.32 84.64,-246.69 0,-51.07 5.63,-112.09 -9.01,-155.57 -13.24,-39.32 -46.5,-69.13 -82.8,-83.92 -44.26,-18.02 -251.41,-10.23 -316.35,-10.23 -661.67,-0.01 -1323.32,-0.01 -1984.98,0 -63.98,0 -277.73,-7.15 -320.75,9.2 -111.88,42.52 -93.34,148.38 -93.34,237.03 0,99.99 -19.63,200.41 81.3,249.12 72.43,34.95 175.68,-5.04 182.36,23.17 7.28,30.7 -13.38,224.05 12.37,277.56 24.19,50.28 56.39,58.51 94.27,72.75 5.15,38.38 1.08,891.55 1.03,992.6 -0.02,33.41 4.08,60.92 15.15,83.06 39.25,78.46 149.99,105.08 192.84,47.14 13.77,-18.64 23.82,-47.84 13.66,-79.32 -6.65,-20.64 -28.48,-45.84 -49.3,-49.52zm1532.78 -1350.2c-14.01,19.33 -20.53,36.95 -50.61,44.15 -23.72,5.67 -67.56,3.12 -94.24,3.12 -68.96,0 -125.39,8.98 -148.31,-45.01 -22.64,-7.46 -172.69,-3.41 -217.99,-3.35l-74.18 4.01 -1.35 181.79c20.49,5.63 675.6,1.8 769.75,1.81 28.45,0 83.73,3.01 108.14,-0.6l4.98 -19.56c0.23,-7.49 -0.33,-16.77 -0.34,-24.56 -0.04,-30.9 2.57,-123 -2.12,-141.86l-293.73 0.06zm-1058.83 8.06c-9.55,51.64 -110.85,39.21 -146.54,39.21 -96.12,0 -101.34,8.52 -141.34,-47.29l-293.76 -1.03c-1.96,8.23 -7.76,170.55 2.52,186.97l877.09 -2.26 0.68 -180.74c-38.36,-9.54 -183.98,-4.14 -228.9,-3.99 -62.7,0.21 -41.5,-4.52 -69.75,9.13zm-847.89 -179.92l2470.04 0.29c1.4,-8.97 0.53,-160.44 -3.27,-171.88l-2466.62 -0.28c-4.93,14.56 -5.09,157.5 -0.15,171.87z"/>
   <path class="fil0" d="M1256.7 2864.67c-6.76,-30.99 -2.46,-774.18 -2.46,-864.78 0,-38.85 -3.49,-87.19 1.8,-126.63l1720.93 -0.1 -0.46 991.85c6.3,-5.88 2.7,7.22 6.11,-12.37l0.04 -735.88c0,-10.34 4.12,-236.28 -3.45,-244 -14.13,-9.07 -381.44,-3.85 -432.27,-3.85 -116.48,0 -1284.53,-5.73 -1293.92,3.85 -5.25,8.54 -3.68,14.54 -3.58,27.57l0.13 910.65c-0.01,14.24 -6.24,45.31 7.13,53.69z"/>
   <line class="fil0" x1="2644.62" y1="3233.1" x2="2644.62" y2= "3233.1" />
  </g>
 </g>
</svg>
