<?xml version="1.0" encoding="UTF-8"?>
<!DOCTYPE svg PUBLIC "-//W3C//DTD SVG 1.1//EN" "http://www.w3.org/Graphics/SVG/1.1/DTD/svg11.dtd">
<!-- Creator: CorelDRAW 2020 (64 Bit) -->
<svg xmlns="http://www.w3.org/2000/svg" xml:space="preserve" width="42.3332mm" height="42.3332mm" version="1.1" style="shape-rendering:geometricPrecision; text-rendering:geometricPrecision; image-rendering:optimizeQuality; fill-rule:evenodd; clip-rule:evenodd"
viewBox="0 0 4233.32 4233.32"
 xmlns:xlink="http://www.w3.org/1999/xlink"
 xmlns:xodm="http://www.corel.com/coreldraw/odm/2003">
 <defs>
  <style type="text/css">
   <![CDATA[
    .fil0 {fill:black}
   ]]>
  </style>
 </defs>
 <g id="Camada_x0020_1">
  <metadata id="CorelCorpID_0Corel-Layer"/>
  <path class="fil0" d="M926.93 1820.97c7.61,33.81 2.16,902.07 2.15,962.07 0,47.9 -7.08,200.07 1.13,239.33 15.21,72.71 114.72,73.87 126.89,-5.33 6.76,-44.04 2.75,-1126.37 1.07,-1195.81l267.29 -2.97 -0.48 541.65c-0.23,60.68 -3.2,117.77 62.21,120.25 63.15,2.38 68.63,-48.9 68.4,-106.6l0.3 -550.37c25.79,-9.14 1376.09,-5.35 1380.57,-2.22 14.88,10.38 9.45,47.37 9.43,73.28l-0.33 503.22c0.63,34.4 9.18,60.8 33.4,74.59 27.11,15.42 58.7,8.27 77.5,-10.52 32.03,-32.01 19.7,-146.7 19.7,-196.81 0,-146.93 -1.93,-295.13 0.22,-441.85 1.03,-0.56 2.89,-2.4 3.23,-1.34 0.34,1.05 2.76,-1.14 3.23,-1.26 0.93,-0.24 5.26,-1.45 6.54,-1.65 2.16,-0.34 11.89,-0.3 16.79,-0.23 59.31,0.86 197.76,-4.17 237.41,3.1 -12.56,259.31 -0.91,689.77 -0.92,980.25 0,54.4 0.15,108.8 -0.09,163.19 -0.28,59.19 2.34,107.38 61.23,110.73 93.43,5.32 68.66,-139.26 68.66,-260.33 0,-147.91 -6.05,-910.75 1.47,-990.58 24.77,-13.03 147.85,-6.27 182.86,-6.26 23.52,0 65.6,3.12 90.05,-0.86 102.51,-16.69 41.98,-109.92 -6.99,-161.18l-345.92 -381.4c-42.52,-55.07 -87.26,-114.45 -153.25,-115.65 -344.53,-6.3 -745.61,0.15 -1094.67,0.15l-897.3 -0.01c-114.26,-0.15 -97.21,-9.12 -184.02,84.91 -16.88,18.3 -18.2,29.35 -42.74,52.69 -28.93,27.51 -62.27,62.68 -88.12,95.01 -15.82,19.79 -24.42,29.28 -41.65,46.87l-216.28 239.42c-181.25,218.4 231.46,113.34 351.03,142.52zm-179.75 -131.58l2735.65 -0.4c-13.27,-35.28 -179.56,-207.15 -213.58,-246.62 -38.37,-44.5 -105.01,-107.63 -132.7,-151.2 -631.73,-5.28 -1272.34,-0.19 -1906.26,-0.19 -149.67,0 -107.39,-23.63 -233.18,115.2 -24.1,26.61 -240.78,262.21 -249.93,283.21z"/>
 </g>
</svg>
