<?xml version="1.0" encoding="UTF-8"?>
<!DOCTYPE svg PUBLIC "-//W3C//DTD SVG 1.1//EN" "http://www.w3.org/Graphics/SVG/1.1/DTD/svg11.dtd">
<!-- Creator: CorelDRAW 2020 (64 Bit) -->
<svg xmlns="http://www.w3.org/2000/svg" xml:space="preserve" width="42.3332mm" height="42.3332mm" version="1.1" style="shape-rendering:geometricPrecision; text-rendering:geometricPrecision; image-rendering:optimizeQuality; fill-rule:evenodd; clip-rule:evenodd"
viewBox="0 0 4233.32 4233.32"
 xmlns:xlink="http://www.w3.org/1999/xlink"
 xmlns:xodm="http://www.corel.com/coreldraw/odm/2003">
 <defs>
  <style type="text/css">
   <![CDATA[
    .fil0 {fill:black}
   ]]>
  </style>
 </defs>
 <g id="Camada_x0020_1">
  <metadata id="CorelCorpID_0Corel-Layer"/>
  <path class="fil0" d="M1607.6 2928.87l1008.59 -0.75c11.22,82.21 27.79,167.07 41.32,248.64 47.43,285.94 2.23,239.99 331.33,241.61 132.35,0.65 134.29,-22.2 133.91,-150.23l0.02 -2302.99c0.57,-130.58 -10.68,-144.61 -142.48,-143.95l-1727.24 0.03c-128.59,-0.47 -151.74,2.88 -151.01,135.4l0.08 2303.03c-0.23,123.46 -7.02,159.48 125.33,158.76 345.87,-1.88 293.08,40.62 338.7,-234.47 13.96,-84.19 31,-171.26 41.45,-255.08zm1219.01 339.03l143.79 -0.09 0 -338.1 -198.54 -1.79 54.75 339.98zm-1572.15 -1.13l32.46 1.71 76.21 -0.29 35.59 -0.18 55.2 -339.76 -199.47 0.21 0.01 338.31zm1708.64 -2293.14l-1701.34 0 0 1795.64 1701.56 0 -0.22 -1795.64z"/>
  <path class="fil0" d="M1386.48 1253.06l0 1253.06c0,66.59 27.52,97.02 95.18,97.02l1261.53 0c67.59,0 95.18,-30.42 95.18,-97.02l0 -1261.52c0,-69.6 -26.96,-93.32 -95.18,-93.32l-1261.53 0c-74.23,0 -95.18,27.21 -95.18,101.78zm152.32 516.47l2.21 31.62 1140.8 -0.06 4.82 -31.51 -0.58 -466.01 -1153.59 0 6.34 465.96zm0 681.32l1136.66 0 10.59 0 0 -497.47 -1149.35 0 2.1 497.47z"/>
  <path class="fil0" d="M2015.79 2088.44c-64.98,18.47 -85.35,102.47 -25.41,137.28 29.96,17.41 186.39,18.49 225.74,7.6 68.84,-19.05 65.29,-108.95 14.24,-137.38 -28.53,-15.89 -182.28,-16.68 -214.57,-7.5z"/>
  <path class="fil0" d="M1997.83 1445.56c-53.79,31.15 -54.18,115.74 8.57,137.43 27.3,9.43 192.06,9.16 217.87,-2.31 56.92,-25.3 57.73,-114.4 -1.13,-138.19 -33.21,-13.42 -199.34,-11.96 -225.31,3.07z"/>
 </g>
</svg>
