<?xml version="1.0" encoding="UTF-8"?>
<!DOCTYPE svg PUBLIC "-//W3C//DTD SVG 1.1//EN" "http://www.w3.org/Graphics/SVG/1.1/DTD/svg11.dtd">
<!-- Creator: CorelDRAW 2020 (64 Bit) -->
<svg xmlns="http://www.w3.org/2000/svg" xml:space="preserve" width="42.3332mm" height="42.3332mm" version="1.1" style="shape-rendering:geometricPrecision; text-rendering:geometricPrecision; image-rendering:optimizeQuality; fill-rule:evenodd; clip-rule:evenodd"
viewBox="0 0 4233.32 4233.32"
 xmlns:xlink="http://www.w3.org/1999/xlink"
 xmlns:xodm="http://www.corel.com/coreldraw/odm/2003">
 <defs>
  <style type="text/css">
   <![CDATA[
    .fil0 {fill:#231F20}
   ]]>
  </style>
 </defs>
 <g id="Camada_x0020_1">
  <metadata id="CorelCorpID_0Corel-Layer"/>
  <g id="_2550769107232">
   <path class="fil0" d="M875.9 1012.26c-53.39,15.38 -44.11,70.16 -44.11,126.8l0 1363.31c0.01,36.93 5.18,44.94 -11.23,73.49l-280.36 489.21c-24.93,42.27 -58.39,85.87 -44.97,122.66 17.12,46.96 80.85,37.21 134.69,37.37 911.33,2.65 1823.07,-0.04 2734.42,0 56.2,0 302.35,7.11 337.6,-2.58 18.38,-5.06 36.19,-21.41 40.94,-41.28 7.02,-29.37 -8.01,-48.03 -18.9,-65.78 -102.58,-167.24 -207.73,-368.3 -312.09,-543.35 -17.32,-29.05 -8.93,-118.28 -9.18,-159.59 -1.3,-211.6 5.94,-1335.11 -3.16,-1363.4 -16.46,-51.15 -79.46,-39.03 -132.87,-39.03l-2050.81 0c-52.86,0 -310.38,-6.36 -339.97,2.17zm-221.76 2094.52l2926.62 -0.17 -269.84 -475.92c-522.12,-3.77 -1045.43,0.55 -1567.7,-0.07 -260.06,-0.31 -521.47,2.84 -781.32,-0.08 -49.5,-0.56 -38.8,1.73 -94.35,101.59l-213.41 374.65zm296.22 -594.84l2333.3 0.24 0.69 -1382.55 -2333.01 -1.06 -0.98 1383.37z"/>
   <path class="fil0" d="M1143 2743.93c-16.36,6.32 -28.59,15.01 -35.47,33.05 -6.52,17.13 -3.86,36.74 4.35,51.88 18.74,34.53 56.52,28.73 103.99,28.73 211.25,-0.02 1850.44,5.5 1875.55,-3.14 29.55,-10.16 53.57,-50.18 31.69,-87.39 -19.22,-32.71 -60.63,-27.99 -106.43,-27.9 -292.18,0.58 -1842.22,-7.37 -1873.68,4.77z"/>
   <path class="fil0" d="M1965.23 2925.86c-32.39,6.16 -57.44,38.13 -46.12,76.36 11.14,37.63 46.52,41.65 89.74,41.51 58.3,-0.19 214.79,7.59 261.55,-1.59 32.21,-6.32 59.78,-38.61 44.31,-79.87 -13.48,-35.94 -48.64,-36.97 -91.01,-37.01l-258.47 0.6z"/>
  </g>
 </g>
</svg>
