<?xml version="1.0" encoding="UTF-8"?>
<!DOCTYPE svg PUBLIC "-//W3C//DTD SVG 1.1//EN" "http://www.w3.org/Graphics/SVG/1.1/DTD/svg11.dtd">
<!-- Creator: CorelDRAW 2020 (64 Bit) -->
<svg xmlns="http://www.w3.org/2000/svg" xml:space="preserve" width="42.3332mm" height="42.3332mm" version="1.1" style="shape-rendering:geometricPrecision; text-rendering:geometricPrecision; image-rendering:optimizeQuality; fill-rule:evenodd; clip-rule:evenodd"
viewBox="0 0 4233.32 4233.32"
 xmlns:xlink="http://www.w3.org/1999/xlink"
 xmlns:xodm="http://www.corel.com/coreldraw/odm/2003">
 <defs>
  <style type="text/css">
   <![CDATA[
    .str1 {stroke:black;stroke-width:67.73;stroke-miterlimit:22.9256}
    .str0 {stroke:black;stroke-width:67.73;stroke-miterlimit:22.9256}
    .str2 {stroke:black;stroke-width:67.73;stroke-miterlimit:22.9256}
    .fil0 {fill:none}
    .fil1 {fill:black;fill-rule:nonzero}
   ]]>
  </style>
 </defs>
 <g id="Camada_x0020_1">
  <metadata id="CorelCorpID_0Corel-Layer"/>
  <g id="_2550992710880">
   <rect class="fil0 str0" x="728.95" y="1391.21" width="2707.56" height="1410.11"/>
   <g>
    <path class="fil1" d="M2527.52 1707.61l-198.11 0 0 -65.66 198.11 0 33.86 32.83 -33.86 32.83zm0 -65.66l33.86 0 0 32.83 -33.86 -32.83zm-33.86 879.67l0 -846.84 67.72 0 0 846.84 -33.86 32.83 -33.86 -32.83zm67.72 0l0 32.83 -33.86 0 33.86 -32.83zm-231.97 -32.83l198.11 0 0 65.66 -198.11 0 -33.86 -32.83 33.86 -32.83zm0 65.66l-33.86 0 0 -32.83 33.86 32.83zm33.86 -879.67l0 846.84 -67.72 0 0 -846.84 33.86 -32.83 33.86 32.83zm-67.72 0l0 -32.83 33.86 0 -33.86 32.83z"/>
   </g>
   <g>
    <path class="fil1" d="M2096.33 1708.62l-1169.26 0 0 -67.68 1169.26 0 33.87 33.84 -33.87 33.84zm0 -67.68l33.87 0 0 33.84 -33.87 -33.84zm-33.87 880.68l0 -846.84 67.74 0 0 846.84 -33.87 33.84 -33.87 -33.84zm67.74 0l0 33.84 -33.87 0 33.87 -33.84zm-1203.13 -33.84l1169.26 0 0 67.68 -1169.26 0 -33.87 -33.84 33.87 -33.84zm0 67.68l-33.87 0 0 -33.84 33.87 33.84zm33.87 -880.68l0 846.84 -67.74 0 0 -846.84 33.87 -33.84 33.87 33.84zm-67.74 0l0 -33.84 33.87 0 -33.87 33.84z"/>
   </g>
   <rect class="fil0 str1" x="2096.33" y="1511.63" width="233.08" height="1165.37"/>
   <rect class="fil0 str2" x="2873.25" y="1659.25" width="407.88" height="889.57"/>
   <g>
    <path class="fil1" d="M3281.14 1693.11l-407.89 0 0 -67.72 407.89 0 33.66 33.86 -33.66 33.86zm0 -67.72l33.66 0 0 33.86 -33.66 -33.86zm-33.66 365.04l0 -331.18 67.32 0 0 331.18 -33.66 33.86 -33.66 -33.86zm67.32 0l0 33.86 -33.66 0 33.66 -33.86zm-441.55 -33.86l407.89 0 0 67.72 -407.89 0 -33.66 -33.86 33.66 -33.86zm0 67.72l-33.66 0 0 -33.86 33.66 33.86zm33.66 -365.04l0 331.18 -67.32 0 0 -331.18 33.66 -33.86 33.66 33.86zm-67.32 0l0 -33.86 33.66 0 -33.66 33.86z"/>
   </g>
   <g>
    <path class="fil1" d="M3281.14 2142.7l33.99 33.86 -33.99 33.86 -407.89 0 0 -67.72 407.89 0zm33.99 33.86l0 33.86 -33.99 0 33.99 -33.86zm-67.98 -186.13l33.99 -33.86 33.99 33.86 0 186.13 -67.98 0 0 -186.13zm33.99 -33.86l33.99 0 0 33.86 -33.99 -33.86zm-407.89 67.72l-33.99 -33.86 33.99 -33.86 407.89 0 0 67.72 -407.89 0zm-33.99 -33.86l0 -33.86 33.99 0 -33.99 33.86zm67.98 186.13l-33.99 33.86 -33.99 -33.86 0 -186.13 67.98 0 0 186.13zm-33.99 33.86l-33.99 0 0 -33.86 33.99 33.86z"/>
   </g>
   <g>
    <path class="fil1" d="M3077.19 2142.7l33.99 33.86 -33.99 33.86 -203.94 0 0 -67.72 203.94 0zm33.99 33.86l0 33.86 -33.99 0 33.99 -33.86zm-67.98 -186.13l33.99 -33.86 33.99 33.86 0 186.13 -67.98 0 0 -186.13zm33.99 -33.86l33.99 0 0 33.86 -33.99 -33.86zm-203.94 67.72l-33.99 -33.86 33.99 -33.86 203.94 0 0 67.72 -203.94 0zm-33.99 -33.86l0 -33.86 33.99 0 -33.99 33.86zm67.98 186.13l-33.99 33.86 -33.99 -33.86 0 -186.13 67.98 0 0 186.13zm-33.99 33.86l-33.99 0 0 -33.86 33.99 33.86z"/>
   </g>
   <g>
    <path class="fil1" d="M3281.14 2210.42l-407.89 0 0 -67.72 407.89 0 33.99 33.86 -33.99 33.86zm0 -67.72l33.99 0 0 33.86 -33.99 -33.86zm-33.99 219.99l0 -186.13 67.98 0 0 186.13 -33.99 33.86 -33.99 -33.86zm67.98 0l0 33.86 -33.99 0 33.99 -33.86zm-441.88 -33.86l407.89 0 0 67.72 -407.89 0 -33.99 -33.86 33.99 -33.86zm0 67.72l-33.99 0 0 -33.86 33.99 33.86zm33.99 -219.99l0 186.13 -67.98 0 0 -186.13 33.99 -33.86 33.99 33.86zm-67.98 0l0 -33.86 33.99 0 -33.99 33.86z"/>
   </g>
   <g>
    <path class="fil1" d="M3077.19 2210.42l-203.94 0 0 -67.72 203.94 0 33.99 33.86 -33.99 33.86zm0 -67.72l33.99 0 0 33.86 -33.99 -33.86zm-33.99 219.99l0 -186.13 67.98 0 0 186.13 -33.99 33.86 -33.99 -33.86zm67.98 0l0 33.86 -33.99 0 33.99 -33.86zm-237.93 -33.86l203.94 0 0 67.72 -203.94 0 -33.99 -33.86 33.99 -33.86zm0 67.72l-33.99 0 0 -33.86 33.99 33.86zm33.99 -219.99l0 186.13 -67.98 0 0 -186.13 33.99 -33.86 33.99 33.86zm-67.98 0l0 -33.86 33.99 0 -33.99 33.86z"/>
   </g>
   <g>
    <path class="fil1" d="M3281.14 2514.96l33.99 33.86 -33.99 33.86 -407.89 0 0 -67.72 407.89 0zm33.99 33.86l0 33.86 -33.99 0 33.99 -33.86zm-67.98 -186.13l33.99 -33.86 33.99 33.86 0 186.13 -67.98 0 0 -186.13zm33.99 -33.86l33.99 0 0 33.86 -33.99 -33.86zm-407.89 67.72l-33.99 -33.86 33.99 -33.86 407.89 0 0 67.72 -407.89 0zm-33.99 -33.86l0 -33.86 33.99 0 -33.99 33.86zm67.98 186.13l-33.99 33.86 -33.99 -33.86 0 -186.13 67.98 0 0 186.13zm-33.99 33.86l-33.99 0 0 -33.86 33.99 33.86z"/>
   </g>
   <g>
    <path class="fil1" d="M3077.19 2514.96l33.99 33.86 -33.99 33.86 -203.94 0 0 -67.72 203.94 0zm33.99 33.86l0 33.86 -33.99 0 33.99 -33.86zm-67.98 -186.13l33.99 -33.86 33.99 33.86 0 186.13 -67.98 0 0 -186.13zm33.99 -33.86l33.99 0 0 33.86 -33.99 -33.86zm-203.94 67.72l-33.99 -33.86 33.99 -33.86 203.94 0 0 67.72 -203.94 0zm-33.99 -33.86l0 -33.86 33.99 0 -33.99 33.86zm67.98 186.13l-33.99 33.86 -33.99 -33.86 0 -186.13 67.98 0 0 186.13zm-33.99 33.86l-33.99 0 0 -33.86 33.99 33.86z"/>
   </g>
  </g>
 </g>
</svg>
