<?xml version="1.0" encoding="UTF-8"?>
<!DOCTYPE svg PUBLIC "-//W3C//DTD SVG 1.1//EN" "http://www.w3.org/Graphics/SVG/1.1/DTD/svg11.dtd">
<!-- Creator: CorelDRAW 2020 (64 Bit) -->
<svg xmlns="http://www.w3.org/2000/svg" xml:space="preserve" width="42.3332mm" height="42.3332mm" version="1.1" style="shape-rendering:geometricPrecision; text-rendering:geometricPrecision; image-rendering:optimizeQuality; fill-rule:evenodd; clip-rule:evenodd"
viewBox="0 0 4233.32 4233.32"
 xmlns:xlink="http://www.w3.org/1999/xlink"
 xmlns:xodm="http://www.corel.com/coreldraw/odm/2003">
 <defs>
  <style type="text/css">
   <![CDATA[
    .fil0 {fill:black}
   ]]>
  </style>
 </defs>
 <g id="Camada_x0020_1">
  <metadata id="CorelCorpID_0Corel-Layer"/>
  <g id="_2550966673456">
   <path class="fil0" d="M1544.3 1220.61l-182.13 0c0,-51.03 4.33,-100.58 -43.33,-111.96 -58.91,-14.08 -72.38,36.25 -72.53,84.64l0.41 950.69c-264.07,0 -234.52,148.25 -231.21,379.68 1.36,94.7 38.41,70.79 115.83,86.02 0,123.71 -11.17,909.61 7.81,956.98 28.73,40.86 81.9,27.9 139.3,27.83 234.87,-0.27 199.14,42.29 199.14,-300.96 0,-229.28 0,-458.56 0,-687.84l1269.66 0c0,226.46 0,452.92 0,679.38 0,343.17 -34.77,309.28 190.67,309.42 58.63,0.03 118.5,13.66 147.77,-27.86 19.12,-47.98 7.81,-832.87 7.81,-956.95 77.33,-15.21 114.41,8.57 115.82,-86.02 3.47,-231.28 32.6,-379.68 -231.2,-379.68l0.32 -942.15c0.21,-48.79 -6,-101.62 -65.01,-94.58 -55.25,6.59 -50.76,60.05 -50.76,113.36l-181.4 0c-35.84,-292.06 -256.74,-574.46 -564.52,-576.94 -313.13,-2.52 -538.07,283.63 -572.45,576.94zm496.6 -453.28c-248.49,50.53 -417.75,331.93 -386.21,644.2 26.45,261.88 234.98,555.5 530.68,493.76 245.01,-51.16 415.47,-329.86 385.14,-640.68 -25.85,-264.85 -232.92,-557.61 -529.61,-497.28zm-678.75 1376.65l1499.57 0 0.9 -577.12 -204.11 0.38c-52.94,104.76 -70.98,206.67 -186.24,312.33 -273.49,250.71 -638.58,172.65 -827.24,-137.99 -34.02,-56.03 -48.36,-118.02 -78.7,-172.27l-203.57 -2.63 -0.61 577.3zm807.98 343.25c96.91,9.65 775.78,3.1 928.65,3 -8.91,-259.05 9.93,-230.84 -177.8,-230.8 -160.87,0.04 -659.17,-10.44 -750.85,3.08l0 224.72zm-1038.79 3l923.38 -0.16 -0.01 -227.56 -861.42 -2.94c-52.65,4.69 -61.5,31.66 -62.42,85.21 -0.81,47.83 0.47,97.38 0.47,145.45zm115.38 989.75l31.69 3.52 50.85 -0.59 32.93 -1.03 -0.02 -874.98 -115.46 -0.48 0.01 873.56zm1615.95 1.61l32.9 1.59 50.81 -0.27 31.81 -2.24 -0.07 -872.31 -115.44 -2.64 -0.01 875.87zm-1500.5 -2030.15l180.87 0 -8.45 -108.73c-43.58,-16.62 -122.1,-6.68 -172.42,-6.68l0 115.41zm1320.8 0.03l179.8 -0.03 -0.1 -115.41c-50.32,0 -128.84,-9.94 -173.26,6.63l-6.44 108.81z"/>
   <path class="fil0" d="M1706.52 3068.67c14.27,144.78 -8.36,316.49 1.81,462.58 5.96,85.62 84.3,63.26 162.79,63.24l465.67 0c74.57,0 170,22.77 179.14,-55.03 16.34,-139.06 -11.91,-325.72 2.39,-470.79 119.75,-7.79 114.12,-6.84 113.57,-130.69 -1.22,-270.67 65.61,-216.88 -515.24,-216.88 -67.31,0 -451.96,-6.9 -484.34,4.31 -60.17,20.82 -39.12,137.42 -39.33,204.08 -0.4,128.11 -11.99,131.01 113.54,139.18zm121.62 407.81l570.03 0 -1.47 -406.08 -570.03 0 1.47 406.08zm-118.53 -524.47l802.86 -0.03 4.34 -115.45 -806.55 -0.01 -0.65 115.49z"/>
   <path class="fil0" d="M2185.41 1191.73c-33.17,14.63 -185.99,177.03 -221.93,212.96 -38.54,38.51 -71.95,70.55 -110.38,109.68 -60.45,61.57 -9.18,128.5 53.12,104.56 20.05,-7.71 263.29,-255.61 329.18,-323.33 59.05,-60.7 3.12,-127.3 -49.99,-103.87z"/>
   <path class="fil0" d="M2318.35 1055.05c-58.68,31.05 -27,129.45 48.8,102.6 65.28,-23.12 25.92,-142.13 -48.8,-102.6z"/>
  </g>
 </g>
</svg>
