<?xml version="1.0" encoding="UTF-8"?>
<!DOCTYPE svg PUBLIC "-//W3C//DTD SVG 1.1//EN" "http://www.w3.org/Graphics/SVG/1.1/DTD/svg11.dtd">
<!-- Creator: CorelDRAW 2020 (64 Bit) -->
<svg xmlns="http://www.w3.org/2000/svg" xml:space="preserve" width="42.3332mm" height="42.3332mm" version="1.1" style="shape-rendering:geometricPrecision; text-rendering:geometricPrecision; image-rendering:optimizeQuality; fill-rule:evenodd; clip-rule:evenodd"
viewBox="0 0 4233.32 4233.32"
 xmlns:xlink="http://www.w3.org/1999/xlink"
 xmlns:xodm="http://www.corel.com/coreldraw/odm/2003">
 <defs>
  <style type="text/css">
   <![CDATA[
    .fil0 {fill:black}
   ]]>
  </style>
 </defs>
 <g id="Camada_x0020_1">
  <metadata id="CorelCorpID_0Corel-Layer"/>
  <path class="fil0" d="M1060.61 2845.57c7.97,32.42 0,302.21 1.67,375.61 1.21,53.06 39.62,40.96 87.32,40.96 43.37,0 85.76,10.02 88.6,-33.58 4.01,-61.32 -0.01,-309.72 -0.01,-383.32l1747.41 0.01c0,95.21 -4.11,292.69 -0.07,379.54 2.27,48.68 43.11,37.35 89.01,37.35 105.46,0 87.9,9.76 87.9,-161.02 0,-85.29 0,-170.59 0,-255.88 88.23,0 77.89,5.23 77.89,-114.88l0 -576.73c0,-134.6 17.56,-235.68 -59.21,-323.83 -77.41,-88.9 -170.75,-78.32 -308.81,-78.32 -63.67,0 -127.35,-0.12 -191.02,0.02 -202.75,0.43 -89.8,-148.26 -193.97,-381.1 -75.86,-169.54 -219.53,-306.04 -402.19,-365.98 -119.82,-39.32 -213.1,-34.19 -347.56,-34.19 -138.41,0 -218.67,4.66 -334.02,51.94 -166.88,68.41 -314.34,219.13 -373.65,394.67 -41.3,122.25 -38.6,204.01 -38.6,343.57l0.48 1056.17c4.81,36.04 36.02,26.76 68.83,28.99zm-7.05 -64.45c29.6,6.72 458.49,2.03 526.72,2.03 532.31,0 1064.61,0 1596.91,0l0.4 -429.63 -36.42 0.23c0,96.98 -0.01,193.73 0,290.48 0,61.46 12.95,87.26 -55.57,86.15 -57.88,-0.95 -45.58,-45.39 -29.67,-55.9 12.1,-7.98 20.65,-4.07 22.79,-15.27l0 -305.23 -73.19 -0.53c0,21.92 2.93,167.82 -2.36,182.47 -7.54,20.84 -21.16,16.19 -40.99,22.18l-1.6 109.7c24.6,0.24 44.67,5.18 43.88,32.54 -0.77,26.17 -20.2,29.94 -45.86,29.95l-1797.76 -0.13c-94.8,0.06 -76.24,11.68 -76.24,-224.5 0,-44.16 3.83,-109.54 -0.89,-151.12l-29.25 -0.68 -0.9 427.26zm93.11 -417.77c0,66.88 -2.87,250.3 1.2,304.36l115.26 0.55c4.89,-29.83 3.38,-80.52 0.96,-111.73 -79.75,-3.28 -28.13,-82.3 -45.09,-202.59 -36.41,-1.4 -72.33,-7.1 -72.33,9.41zm362.75 0c0,60.56 -2.65,258.79 1.44,304.49l115.36 0.38c4.16,-29.87 2.88,-80.26 0.85,-111.44 -78.61,-5.51 -30.19,-73.79 -45.17,-202.53 -13.11,-1.16 -26,-0.66 -39.18,-0.84 -16.27,-0.22 -33.3,-4.93 -33.3,9.94zm544.1 304.38l116.11 0.5c5.57,-17.14 3.95,-90.09 1.28,-110.13 -50.09,-16.3 -44.01,9.36 -44.01,-116.1 0,-9.99 0.88,-77.9 -0.53,-81.69 -4.06,-10.87 -16.43,-7.13 -32.92,-6.9 -13.18,0.19 -26.02,-0.37 -39.1,0.91l-0.83 313.41zm544.87 -110.44l-0.53 110.09 118.11 0.47 0.24 -314.33 -73.27 0.14c0,42.19 -0.03,83.99 0,125.79 0.03,49.5 8.65,75.1 -44.55,77.84zm180.02 110.1l118.39 0.43 0.29 -102.24c-2.21,-8.72 -7.81,-6.87 -21.72,-10.91 -45.37,-13.2 -11.96,-103.13 -23.93,-200.1l-71.49 -1.12 -1.54 313.94zm-904.93 -109.29c-2.65,20.01 -4.29,93.06 1.3,109.74l114.53 0.34 1.55 -313.67 -72.02 -0.94c-7.18,45.46 4.41,160.3 -3.92,183.09 -7.71,21.08 -20.33,14.56 -41.44,21.44zm-543.74 0l-1.5 109.57 118.26 -0.43 0.24 -312.87 -73.34 -0.76c-0.01,22.52 2.92,168.29 -2.43,183.09 -7.36,20.4 -20.36,14.83 -41.23,21.4zm1086.86 -0.2l-0.1 110.02 116.21 0.28c4.63,-16.12 4.14,-94.1 0.5,-111.37 -53.78,-3.84 -43.55,-22.09 -43.55,-96.11 0,-110.67 11.21,-109.48 -27.32,-106.53 -16.89,132.04 35.79,193.93 -45.74,203.71zm-181.05 -0.2l-0.48 109.26 118.09 0.92 -0.99 -109.85c-44.26,-13.1 -43.94,3.32 -43.91,-78.58 0.02,-41.94 0.01,-83.88 0.01,-125.82 -25.58,-0.18 -28.32,-4.03 -28.45,24.4l0.44 97.67c0.02,52.95 10.3,77.05 -44.71,82zm-542.9 0.4c-3.88,29.91 -2.07,77.15 -1.65,109.57l118.29 -0.64 -0.83 -108.98c-20.79,-6.34 -32.08,-1.06 -40.57,-18.77 -7.6,-15.87 -3.72,-160.87 -3.72,-184.34l-28.04 -0.96c0,41.92 -0.02,83.7 0,125.47 0.01,15.91 2.75,43.15 -2.34,56.94 -7.34,19.86 -20.06,15.41 -41.14,21.71zm1355.63 640.3l15 1.48 18.75 -0.25 17.65 -1.23 -0.04 -351.47 -51.35 -1.52 -0.01 352.99zm-1923.19 1.23l50.63 -0.17 0 -353.75 -14.88 -0.56 -35.75 0.09 0 354.39zm-71.03 -1194.49l1690.92 0c33.46,-0.01 84.41,-8.95 83.11,32.34 -1.22,38.54 -49.84,29.83 -83.11,29.83l-1464.3 0c-47.44,0 -190.35,-6.11 -226.8,1.92l-0.25 220.39 2123.47 1.08 0.97 -221.47c-36.34,-7.94 -126.01,17.96 -127.31,-31.7 -1.28,-49.08 87.72,-32.39 126.8,-32.39 -0.07,-219.96 -190.44,-191.47 -316.49,-191.47 -59.06,0 -202.42,6.41 -248.82,-5.62 -62.26,-16.14 -111.56,-64.59 -125.86,-129.92 -7.3,-33.3 -4.25,-77.94 -9.38,-114.67 -5.28,-37.76 -11.87,-68.98 -22.8,-104.3 -19.39,-62.61 -49.71,-121.44 -84.55,-169.78 -116.31,-161.39 -292.13,-256.33 -504.76,-256.67 -238.03,-0.36 -411.42,-20.24 -608.9,156.19 -75.97,67.88 -158.98,181.39 -187.39,317.38 -22.63,108.4 -14.55,373.75 -14.55,498.86z"/>
 </g>
</svg>
