<?xml version="1.0" encoding="UTF-8"?>
<!DOCTYPE svg PUBLIC "-//W3C//DTD SVG 1.1//EN" "http://www.w3.org/Graphics/SVG/1.1/DTD/svg11.dtd">
<!-- Creator: CorelDRAW 2020 (64 Bit) -->
<svg xmlns="http://www.w3.org/2000/svg" xml:space="preserve" width="42.3332mm" height="42.3332mm" version="1.1" style="shape-rendering:geometricPrecision; text-rendering:geometricPrecision; image-rendering:optimizeQuality; fill-rule:evenodd; clip-rule:evenodd"
viewBox="0 0 4233.32 4233.32"
 xmlns:xlink="http://www.w3.org/1999/xlink"
 xmlns:xodm="http://www.corel.com/coreldraw/odm/2003">
 <defs>
  <style type="text/css">
   <![CDATA[
    .fil0 {fill:black}
   ]]>
  </style>
 </defs>
 <g id="Camada_x0020_1">
  <metadata id="CorelCorpID_0Corel-Layer"/>
  <g id="_2550823970288">
   <path class="fil0" d="M850.15 2409.52l0.44 33.31c0.42,18.54 7.06,35.76 9.44,53.54 1.64,12.2 7.02,26.53 11.52,37.38l10.63 29.16c0.16,0.35 0.36,0.74 0.52,1.09l2.5 5.45c2.11,4.16 3.24,5.33 5.5,10.09 7.98,16.76 18.57,36.15 30.43,50.32 13.79,16.48 11.21,16.96 28.9,34.5 13.31,13.21 26.88,29.17 42.43,38.49l16.53 10.51c0.3,0.18 0.73,0.38 1.02,0.56 2.85,1.75 0.66,0.13 2.69,1.79l19.75 13.58c22.34,14.9 16.64,2.89 16.64,61.84l0 323.03c0,42 -1.95,88.85 0.26,130.25 31.03,2.05 124.36,-3.2 143.91,0.7 9.99,1.99 7.41,14.45 7.4,25.81l0 109.26c3,3.35 -0.05,2.56 7.35,2.56 34.92,0 108.58,2.32 139.14,-1.02l-0.04 -107.63c0,-11.1 -4.86,-27.32 9.74,-27.32l1520.13 0c14.22,0 10.08,15.47 10.07,25.74l0 108.7c21.64,4.56 111.07,1.56 139.57,1.53 14.75,-0.02 10.06,-4.61 10.05,-24.72l0 -74.43c0,-5.78 -2.32,-32.07 2.01,-36.21l2.15 -0.92c1.88,-0.44 1.45,-0.51 3.94,-0.72 2.44,-0.21 6.91,0.01 9.54,0.03 20.95,0.18 124.44,2.17 128.49,-1.36l1.11 -2.46c2.23,-8.4 0.84,-19.35 0.84,-28.03l0 -451.29c-0.03,-32.85 2.58,-23.07 26.14,-38.11l36.59 -26.73c4.97,-3.69 13.04,-10.88 17.92,-15.43 5.28,-4.9 10.94,-10.4 15.76,-15.96 5.3,-6.13 10.83,-11.15 15.68,-17.64l26.87 -38.19c9.92,-14.98 23.3,-34.08 29.2,-51.33 2.32,-6.79 0.91,-5.7 3.91,-12.03l6.93 -16.71c0.27,-0.94 0.77,-3.06 1.03,-3.76 2.36,-6.41 3.37,-6.21 4.68,-15.83 1.76,-13.03 8.57,-22.19 9.9,-38.28 2.22,-27.08 5.17,-56.95 3.11,-85.37 -0.53,-7.44 -2.09,-10.24 -2.9,-18.88 -0.59,-6.22 -0.75,-13.83 -1.58,-20.68l-16.19 -61.92c-1.73,-4 -1.58,-2.64 -3.15,-7.63l-27.47 -56.72c-0.71,-1.02 -1.81,-2.66 -2.6,-3.76l-22.22 -33.03c-13.17,-20.92 -34.12,-41.17 -53.24,-56.37 -14.8,-11.77 -29.95,-25.05 -46.46,-34.34 -9.78,-5.51 -19.46,-12.25 -29.84,-16.27 -9.88,-3.83 -24.53,-13 -28.8,-14.79 -2.7,-1.13 -5.53,-1.2 -8.97,-2.31 -2.36,-0.76 -4.69,-1.81 -8.19,-3.03 -8.22,-2.89 -6.11,-3.75 -16.12,-5.6 -19.11,-3.52 -34.85,-8.39 -55.88,-10.64l-18.09 -2.87c-3.39,-1.1 -3.85,-3.64 -4.23,-7.29l0.03 -255 -5.24 -108.95c-0.79,-5.57 -2.26,-7.41 -3,-14.52 -4.12,-39.69 -12.39,-74.87 -20.91,-111.55 -1.72,-7.4 -2.53,-6.16 -3.79,-12.16 -4.4,-20.98 -12.35,-42.75 -19.14,-63.29l-5.76 -18.04c-0.88,-2.47 -1.09,-4.84 -2.26,-7.18 -1.55,-3.1 -1.28,-1.6 -3.08,-4.29 -0.44,-0.67 -2.62,-4.69 -2.85,-5.2l-9.63 -22.1c-2.95,-5.47 -2.54,-6.83 -4.92,-12.34 -18.4,-42.69 -29.47,-67.03 -56.55,-108.33 -2.46,-3.76 -3.48,-5.68 -5.94,-10.01l-55.01 -77.97c-2.64,-3.15 -5.2,-6.29 -7.69,-9.78 -11.06,-15.5 -51.28,-58.95 -62.64,-68.76 -2.71,-2.34 -5.34,-5.06 -8.19,-7.63l-24.36 -24.7c-5.6,-5.6 -11.86,-9.7 -17.84,-15.42l-44.69 -37.59c-0.25,-0.21 -0.63,-0.48 -0.89,-0.69l-87.21 -55.39c-24.49,-18.2 -49.29,-25.73 -65.41,-37.51l-15.61 -7.97c-1.44,-0.74 -1.72,-0.76 -3.25,-1.59l-2.94 -1.8c-4.37,-2.59 -6.72,-2.72 -11.02,-4.57l-23.95 -9.47c-8.3,-3.49 -16.01,-4.47 -24.28,-9.17 -7.95,-4.52 -0.26,-1.79 -11.1,-4.47 -8.16,-2.02 -15.22,-7.69 -23.74,-9.2l-39.31 -10.39c-5.78,-1.24 -5.56,-2.86 -12.36,-4.62 -18.52,-4.8 -35.66,-7.84 -54.63,-10.9 -6.65,-1.08 -6.89,-1.95 -12.58,-3.16l-73.21 -10.63c-10.54,-0.88 -22.61,-0.27 -31.5,-1.92 -23.99,-4.47 -37.49,-3.08 -63.17,-3.08 -14.25,0 -28.52,0.27 -42.78,0.32l-173.42 25.6 -100.79 30.7c-5.57,2.35 -9.54,5.02 -14.89,7.01 -10.86,4.04 -22.54,6.9 -32.61,12.1 -4.85,2.5 -1.4,1.23 -7.67,3.43 -8.21,2.89 -0.56,-0.11 -5.45,2.9l-22.46 10.21c-3.76,1.7 -4.49,2.15 -7.32,3.78 -2.14,1.23 -4.12,2.42 -6.91,4.24l-22.57 10.66c-11.91,5.36 -19.84,12.11 -30.4,18.61 -0.3,0.18 -0.69,0.44 -0.99,0.63 -15.31,9.64 -42.37,22.8 -54.36,32.78l-15.87 11.14c-0.69,0.51 -2.13,1.57 -2.81,2.01l-3.07 1.82c-9.82,5.95 -28.74,22.39 -37.53,30.25 -9.85,8.81 -20.76,16.13 -29.97,25.49 -3,3.05 -3.32,2.78 -6.06,5.13 -12.26,10.56 -21.37,21.87 -33.53,32.91 -17.27,15.65 -38.5,40.52 -52.86,57.96l-36.28 47.76c-0.2,0.27 -0.48,0.64 -0.68,0.9l-5.91 8.43c-7.36,11.17 -16.42,21.12 -22.89,32.5 -5.1,8.97 -12.06,17.96 -16.72,27.86 -1,2.12 0.02,0.36 -1.61,2.92l-7.52 9.6c-10.86,16.47 -21.73,40.39 -30.87,57.86l-20.53 45.96c-4.1,9.44 -8.27,20.26 -12.4,30.28l-8.7 24.72c-2.03,4.16 -1.3,2.57 -2.95,7.83l-28.68 104.37c-1.61,8.87 -1.28,11.57 -3.43,18.84 -3,10.16 -6.9,45.96 -8.3,58.06 -0.77,6.75 -2.42,12.91 -3.03,19.23l-4.84 105.87 0.11 243.95c0.25,21.12 -6.06,9.16 -45.87,19.27 -13.6,3.45 -5.58,-1.37 -27.29,5.97 -14.98,5.07 -25.09,6.52 -42.29,13.47 -28.66,11.57 -31.61,15.46 -57.54,30.77 -9.74,5.74 -17.96,11.12 -26.42,18.08 -3.59,2.96 -3.52,3.76 -5.54,5.59 -1.07,0.97 -4.52,3.11 -6.43,4.43 -8.84,6.1 -16.12,13.47 -23.59,20.94l-17.65 18.72c-0.22,0.23 -0.55,0.57 -0.78,0.8 -1.54,1.57 -1.56,1.53 -3.2,3.11 -4.35,4.23 -6.53,7.29 -10.29,11.93 -6.39,7.88 -11.77,16.73 -18.29,26.14l-31.2 57.68c-8.39,21.4 -18.32,43.29 -21.5,67.11 -2.53,18.99 -8.78,36.75 -9.11,56.92 -0.13,7.39 -0.23,14.78 -0.23,22.18zm496.78 -638.14l0 278.69c0,8.27 -0.68,9.92 6.83,11.55 11.91,2.57 5.09,-0.59 10.99,2.87l15.86 7.99c11.32,6.58 27.47,13.49 37.05,19.83l63.77 50.13c15.23,13.79 31.45,33.06 44.36,50.54 10.82,14.64 20.48,32.37 27.52,48.89 5.26,12.32 13.78,25.77 18.59,37.89 3.4,8.58 5.97,19.57 8.98,29.26l11.84 64.01c0.66,17.4 -4.57,26.92 11.15,26.92l1026.09 0c17.55,0 6.74,-7.87 15.84,-58.48 2.64,-14.62 8.26,-36.9 14.11,-50.55 0.99,-2.3 1.55,-5.05 2.14,-7.14 2.52,-8.98 6.75,-17.85 10.37,-26.3l12.62 -25.51c27.23,-49.9 51.54,-74.98 92.02,-112.4l33.23 -22.25c22.73,-16.6 49.55,-27.42 75.98,-37.91l0.63 -288.03 -12.65 -155.05 -18.19 -64.82c-1.4,-4.12 -1.12,-6.23 -2.33,-10.6l-13.3 -35.3c-4.78,-16.02 -18.46,-49.23 -26.57,-63.79l-17.61 -36.33c-0.53,-1.01 -1.62,-3.05 -2.27,-4.07 -1.87,-2.95 -0.99,-1.22 -2.57,-3.61 -1.39,-2.1 -3.32,-5.83 -4.58,-8.06l-42 -65.71c-0.2,-0.27 -0.48,-0.65 -0.68,-0.92 -0.2,-0.27 -0.49,-0.64 -0.69,-0.9l-13.5 -19.82c-13.4,-18.51 -28.79,-36.04 -44.04,-52.52l-33.14 -35.03c-0.22,-0.23 -0.52,-0.59 -0.75,-0.82l-36.88 -32.73c-0.23,-0.23 -0.57,-0.56 -0.81,-0.78l-28.24 -22.42c-9.35,-7.68 -18.41,-13.55 -28.27,-20.79l-82.49 -49.23c-3.2,-1.78 -5.25,-3.1 -8.09,-4.52l-48.33 -24.21c-10.32,-5.57 -24.45,-8.2 -35.23,-12.58 -4.63,-1.88 -1.96,-1.79 -8.34,-4.01 -28.45,-9.9 -55.9,-19.58 -85.3,-24.37 -8.2,-1.34 -11.46,-3.24 -18.98,-4.64l-63.72 -9.62c-34.45,-3.27 -54.24,-5.73 -90.43,-5.73 -14.22,0 -33.97,-1.16 -46.3,1.35 -14.14,2.87 -26.98,2.82 -42.51,4.28 -8.88,0.84 -12.48,2.86 -20.5,3.47 -10.02,0.77 -21.88,1.79 -30.74,4.55 -4.39,1.37 -5.92,0.96 -10.54,1.64l-40.28 9.15c-9.47,1.92 -8.75,3.91 -17.96,5.48 -9.81,1.68 -6.5,3.88 -17.66,5.71l-38.7 11.27c-1.34,0.43 -6.66,2.42 -8.18,3.1l-25.61 10.62c-13.16,7.26 -35.88,15.69 -50.59,22.68 -15.26,7.24 -32.05,16.46 -45.82,26.75 -3.46,2.58 -2.36,1.74 -6.57,4.29 -0.31,0.19 -0.71,0.42 -1.02,0.61l-6.95 4.05c-5.45,2.74 -9.82,5.71 -15.34,8.77 -0.89,0.49 -3.11,1.72 -3.92,2.3 -0.26,0.18 -0.62,0.47 -0.88,0.67 -0.25,0.19 -0.59,0.5 -0.84,0.7 -0.26,0.2 -0.6,0.52 -0.85,0.72l-64.65 50.89c-16.78,14.18 -33.36,27.03 -48.81,43.09l-66.41 76.15c-3.79,5.89 -6.25,8.91 -9.76,14.13l-11.01 15.72c-8.84,11.09 -14.29,23.41 -22.45,34.62 -24.96,34.29 -37.83,76 -54.98,103.32 -5.19,8.26 -16.51,41.4 -20.15,52.43 -0.99,2.99 -1.54,6.36 -2.63,8.92 -2.3,5.38 -2.82,2.54 -4.13,7.69 -0.79,3.09 -0.61,6.47 -1.42,10.06l-4.86 19.27c-1.31,3.75 -2.48,4.36 -3.56,8.74l-8.98 40.23c-4.76,17.19 -5.06,48.2 -9.67,63.2 -3.6,11.74 -4.76,75.7 -4.76,92.36zm1442.31 618.61l-0.09 230.13c0,31.55 3.16,215.48 -1.23,228.98 -16.58,3.11 -310.21,1.06 -335.31,1.06l-967.5 0c-9.94,0 -34.2,3.73 -40.33,-2.93 -2.78,-3.27 -1.85,-432.71 -2.14,-474.13 0.38,-19.4 -10.04,-43.06 -17.9,-60.32 -4.39,-9.64 -10.06,-15.99 -14.45,-25.19 -4.86,-10.21 -11.14,-13.48 -18.22,-22.43 -2.85,-3.61 -6.33,-6.31 -9.46,-9.66l-7.11 -7.22c-12.34,-10.12 -22.83,-20.27 -37.13,-27.93l-20.03 -10.26c-2.63,-1.09 -0.01,0.08 -2.95,-1.54l-4.09 -2.31c-6.24,-3.26 -6.65,-3.54 -14.13,-6.29 -24.78,-9.11 -31.98,-7.3 -46.53,-11.84 -17.43,-5.42 -55.82,-0.21 -74.3,3.03 -11.84,2.08 -35.13,9.75 -45.23,14.93 -12.37,6.34 -26.58,12.86 -37.05,21.41 -4.03,3.29 -6.92,5.8 -11.11,9.5 -8.86,7.83 -14.04,10.59 -21.76,19.44 -22.41,25.68 -34.35,40.39 -46.86,71.87 -7.65,19.26 -14.91,43.22 -15.32,65.34 -0.4,21.92 -1.85,51.08 6.92,72.21 2.63,6.34 1.86,10.44 4.47,16.22l11.69 27.93c3.97,10.29 9.17,15.46 15,24.35 3.22,4.92 4.34,7.81 8.12,12.62 12.77,16.25 21.61,27.04 39.75,40.91 19.98,15.28 40.84,23.72 64.88,33.69 7.75,3.21 15.57,4.07 22.1,7.73 7.75,4.35 14.64,6.41 23.96,7.7 4.65,24.73 1.9,189.82 1.9,228.56 0,25.91 -2.15,210.49 0.64,231.23 164.47,0.03 1825.02,2.28 1836.95,0 2.77,-20.61 0.65,-356.2 0.65,-403.82 0,-63.39 -7.47,-51.42 24.11,-62.16l82.56 -36.4 28.25 -25.48 27.53 -34.08c1.38,-2.08 2.1,-3.26 3.63,-5.89 7.17,-12.35 18.32,-35.11 22.72,-48.34 4.05,-12.17 9.26,-39.68 9.96,-52.06 1.04,-18.46 0.7,-39.37 -3.51,-56.54 -2.57,-10.48 -3.21,-22.06 -7.49,-32.27l-5.69 -14.89c-10.31,-17.52 -16.63,-35.67 -30.7,-51.65 -3.57,-4.05 -6.4,-6.64 -9.76,-10.66 -8.85,-10.56 -19.34,-22.74 -29.68,-30.41l-26.19 -15.32c-21.63,-13.3 -48.06,-24.25 -73.81,-26.13 -15.83,-1.16 -15.4,-7.61 -57,-3.99 -6.44,0.55 -3.81,0.73 -7.31,1.76 -3.87,1.15 -5.58,1.31 -10.02,1.57 -18.84,1.12 -23.52,5.44 -39.75,10.5l-34.29 16.28c-9.84,5.91 -16.03,10.01 -24.69,16.46 -12.88,9.57 -26.04,26.12 -33.75,34.3l-6.06 6.81c-18.2,24.94 -34.15,49.24 -40.68,80.97 -2.25,10.94 -6.79,20.08 -5.18,34.65zm-153.12 309.33c2.05,-2.55 0.65,0.61 1.66,-3.5l0.44 -70.95c0,-24.68 2.47,-53.62 -1.88,-75.95l-1038.8 -0.27c-4.21,21.64 -1.93,49.36 -1.93,73.05 0,92.43 -10.78,78.91 32.01,78.91 160.62,0 1002.53,1.83 1008.5,-1.29z"/>
   <path class="fil0" d="M2789.24 2389.99c-2.92,2.98 -1.41,0.5 -2.85,5.33 -3.39,11.31 -1.48,442.47 -1.48,451.06 -11.88,3.14 -1324.11,3.14 -1335.99,0 0,-25.52 1.81,-425.69 -0.62,-447.61 -0.37,-3.34 -1.33,-7.87 -1.91,-11.7 -0.86,-5.74 -0.26,-9.25 -3.75,-13.97 0.29,41.42 -0.64,470.86 2.14,474.13 6.13,6.66 30.39,2.93 40.33,2.93l967.5 0c25.1,0 318.73,2.05 335.31,-1.06 4.39,-13.5 1.23,-197.43 1.23,-228.98l0.09 -230.13z"/>
  </g>
 </g>
</svg>
