<?xml version="1.0" encoding="UTF-8"?>
<!DOCTYPE svg PUBLIC "-//W3C//DTD SVG 1.1//EN" "http://www.w3.org/Graphics/SVG/1.1/DTD/svg11.dtd">
<!-- Creator: CorelDRAW 2020 (64 Bit) -->
<svg xmlns="http://www.w3.org/2000/svg" xml:space="preserve" width="42.3332mm" height="42.3332mm" version="1.1" style="shape-rendering:geometricPrecision; text-rendering:geometricPrecision; image-rendering:optimizeQuality; fill-rule:evenodd; clip-rule:evenodd"
viewBox="0 0 4233.32 4233.32"
 xmlns:xlink="http://www.w3.org/1999/xlink"
 xmlns:xodm="http://www.corel.com/coreldraw/odm/2003">
 <defs>
  <style type="text/css">
   <![CDATA[
    .fil0 {fill:black}
   ]]>
  </style>
 </defs>
 <g id="Camada_x0020_1">
  <metadata id="CorelCorpID_0Corel-Layer"/>
  <path class="fil0" d="M1663.15 1466.56c-193.26,4.49 -404.96,0.46 -601.92,0.24 -69.06,-0.07 -124.73,19.07 -154.48,86.05 -15.25,34.32 -12.07,69.56 -12.07,110.69l0 1445.6c0,85.87 -8.35,144.89 48.82,193.08 57.32,48.32 116.67,36.32 205.72,36.32l1932.7 0c83.61,0 150.81,11.53 205.53,-33.42 58.33,-47.92 51.31,-103.29 51.31,-189.69l0 -1448.74c0,-36.54 2.96,-77.86 -9.42,-109.09 -11,-27.74 -33.23,-53.96 -55.3,-67.57 -54.73,-33.76 -142.18,-23.22 -217.26,-23.22 -160.75,0 -325.36,3.48 -485.63,-0.25l-255.3 -384.94c-14.61,-21.77 -7.52,-49.39 -35.17,-93.95 -83.52,-134.65 -282.58,-128.43 -345.59,41.05 -6.02,16.19 -5.22,35.71 -15.28,51.08 -17.28,26.37 -33.81,49.99 -51.56,77.23l-205.1 309.53zm-358.01 1461.52l980.01 -0.01c-9.04,-16.61 -394.27,-397.34 -438.22,-441.21 -19.27,-19.23 -43.1,-46.17 -62.9,-62.11 -13.03,4.35 -380.64,376.84 -430.47,426.76 -10.79,10.81 -19.16,19.31 -29.85,29.87 -18.56,18.33 -18.57,11.61 -18.57,46.7zm977.95 -142.63c8.03,13.51 85.87,88.07 107.64,109.81 10.46,10.45 24.69,32.82 43.82,32.82l494.17 0c0.84,-33.65 1.22,-27.77 -18.05,-46.8l-168.14 -168.11c-25.71,-25.73 -180.75,-184.32 -194.85,-192.47 -12.52,5.66 -170.03,165.39 -200.39,196.35 -13.83,14.11 -58.65,55.21 -64.2,68.4zm-977.95 -23.82c16.02,-8.74 338.51,-335.5 387.79,-384.68 17.68,-17.64 35.95,-38.65 55.27,-54.71 28.61,-23.78 52.31,-17.05 75.25,5.8l164.96 165.04c18.38,18.33 207.81,211.27 223.01,220.9 13.67,-4.81 77.64,-73.51 88.92,-84.78 29.33,-29.3 57.86,-57.87 86.4,-86.36 28.41,-28.36 57.95,-58.19 86.54,-86.29 27.03,-26.56 59.67,-76.02 105.12,-41.25 40.45,30.94 325.65,332.52 350.4,346.33l0.33 -884.31 -1623.97 0 -0.02 884.31zm-242.93 480.96l2109.92 0.09c-2.02,-10.57 -168.39,-172.28 -194.75,-198.74 -26.96,-27.04 -17.52,-20.86 -62.01,-20.79l-1631.27 0.17c-15.16,2.33 -52.11,45.87 -64.91,58.37 -17.97,17.56 -155.06,151.17 -156.98,160.9zm225.28 -1460.91l1659.3 0c16.69,0 42.09,-31.74 59.54,-49.17 29.69,-29.62 159.08,-155.23 167.33,-169.79l-2113.04 -0.13c9.86,17.53 90.2,92.76 110.78,113.34 19.2,19.21 35.88,35.94 54.98,55.01 17.23,17.21 44.43,50.74 61.11,50.74zm-297.21 1389.39c8.87,-1.66 215.13,-210.2 216.27,-212.1 7.77,-12.81 3.52,-42.53 3.52,-60.38 0,-99.47 3.51,-1035.33 -1.7,-1048.73 -1.27,-3.26 -210.07,-214.36 -217.5,-216.38l-0.59 1537.59zm2253.38 -0.06l-0.09 -1537.54 -215.37 212.11c-8.25,12.52 -3.99,42.09 -3.99,59.94 0,99.18 -3.02,1036.04 1.39,1049.05 2.6,7.66 83.81,86.33 93.19,95.7 15.24,15.2 115.2,118.82 124.87,120.74zm-1464.67 -1704.49l675.2 0.29c-4.15,-15.54 -33.62,-56.26 -42.5,-69.42 -22.99,-34.07 -127.01,-194.25 -137.41,-202 -27.9,22.48 -58.57,79.96 -157.14,79.96 -35.08,0 -67.98,-10.24 -93.37,-24.44 -12.53,-7.01 -21.7,-13.22 -34.64,-25.03 -9.76,-8.91 -18.4,-21.86 -29.12,-30.49 -4.24,3.16 -174.83,253.15 -181.02,271.13zm320.43 -475.15c-134.16,36.53 -76.52,211.94 38.4,186.41 45.97,-10.22 84.45,-57.19 72.36,-113.12 -9.96,-46.09 -59.95,-87.13 -110.76,-73.29z"/>
 </g>
</svg>
