<?xml version="1.0" encoding="UTF-8"?>
<!DOCTYPE svg PUBLIC "-//W3C//DTD SVG 1.1//EN" "http://www.w3.org/Graphics/SVG/1.1/DTD/svg11.dtd">
<!-- Creator: CorelDRAW 2020 (64 Bit) -->
<svg xmlns="http://www.w3.org/2000/svg" xml:space="preserve" width="42.3332mm" height="42.3332mm" version="1.1" style="shape-rendering:geometricPrecision; text-rendering:geometricPrecision; image-rendering:optimizeQuality; fill-rule:evenodd; clip-rule:evenodd"
viewBox="0 0 4233.32 4233.32"
 xmlns:xlink="http://www.w3.org/1999/xlink"
 xmlns:xodm="http://www.corel.com/coreldraw/odm/2003">
 <defs>
  <style type="text/css">
   <![CDATA[
    .fil0 {fill:black}
   ]]>
  </style>
 </defs>
 <g id="Camada_x0020_1">
  <metadata id="CorelCorpID_0Corel-Layer"/>
  <path class="fil0" d="M823.71 1632.62l0 836.52c0,24.56 -0.37,19.17 10.97,32.11 12.22,13.87 8.8,11.46 35.57,11.5l321.21 0 0 136.73 205.22 0 0 -136.73 1437.71 0 0 136.73 205.22 0 0 -136.73 326.28 0c36.58,0 43.73,-11.3 43.73,-43.61l0 -839.98c0,-39.58 -18.53,-45.33 -54.1,-45.33l-2488.73 0c-31.27,0 -43.08,19.25 -43.08,48.79zm1121.19 171.58l321.34 0 0 70.22 -321.34 0 0 -70.22zm228.17 322.7c0.08,61.62 -2.49,232.51 0.97,282.07 46.22,6.79 987.19,2.01 1117.54,2.01 12.38,0 7.75,0.56 15.99,-3.3l0.89 -304.05c-30.35,-7.07 -495.21,-2.25 -568.24,-2.25 -44.45,0 -536.36,-3.86 -566.75,2.17l-0.4 23.35zm-1248.4 283.2c41.44,3.73 513.77,0.88 567.75,0.88 41.16,0 538.98,3.7 565.86,-2.13l1.13 -305.26c-32.4,-6.51 -890.01,-2.21 -992.18,-2.21 -43.85,0 -99.8,-2.97 -142.24,1.01l-0.32 307.71zm0.44 -418.4c41.04,4.86 1307.89,1.12 1345.03,1.12 223.54,0 447.05,0 670.6,0 111.29,0 224.31,-1.93 335.36,0.08 43.33,0.85 31.39,6.35 31.39,-139.02 0,-52.57 3.46,-117.76 -0.72,-168.73l-2380.98 -1.16 -0.68 307.71z"/>
 </g>
</svg>
