<?xml version="1.0" encoding="UTF-8"?>
<!DOCTYPE svg PUBLIC "-//W3C//DTD SVG 1.1//EN" "http://www.w3.org/Graphics/SVG/1.1/DTD/svg11.dtd">
<!-- Creator: CorelDRAW 2020 (64 Bit) -->
<svg xmlns="http://www.w3.org/2000/svg" xml:space="preserve" width="42.3332mm" height="42.3332mm" version="1.1" style="shape-rendering:geometricPrecision; text-rendering:geometricPrecision; image-rendering:optimizeQuality; fill-rule:evenodd; clip-rule:evenodd"
viewBox="0 0 4233.32 4233.32"
 xmlns:xlink="http://www.w3.org/1999/xlink"
 xmlns:xodm="http://www.corel.com/coreldraw/odm/2003">
 <defs>
  <style type="text/css">
   <![CDATA[
    .str0 {stroke:gray;stroke-width:8.47;stroke-miterlimit:22.9256}
    .fil0 {fill:black}
   ]]>
  </style>
 </defs>
 <g id="Camada_x0020_1">
  <metadata id="CorelCorpID_0Corel-Layer"/>
  <path class="fil0 str0" d="M542.16 2022.16c-54.66,-10.82 -43.12,-20.19 -128.29,-19.15 -42.62,0.52 -86.8,7.97 -118.01,26.3 -76.74,45.08 -71.91,134.77 13.46,169.16 0,74.66 0.12,149.31 0.12,223.98 0,102.26 -19.23,129.91 94.04,129.79 28.75,-0.04 137.15,3.65 160.27,-4.92 22.21,-8.24 12.57,-15.42 40.35,-16.03 74.46,-1.64 151.05,0.41 225.83,0.08l1793.91 -0.02c61.62,0.18 123.45,0.54 185.13,0.3l0.03 0c12.34,-0.05 24.66,-0.12 36.99,-0.22 2.54,-0.02 4.94,0.06 7.2,0.22l37.12 0 0 -0.29 507.52 -0.01c73.95,0.21 148.21,0.69 222.14,0.08 56.92,-0.47 16.52,20.81 91.42,20.85 298.98,0.18 191.27,25.86 213.35,-351.87 29.61,-20.86 64.23,-32.69 66.74,-77.36 5.2,-92.34 -97.53,-119.43 -174.21,-120.07 -60.99,-0.51 -76.28,7.63 -125.14,19.47 -11.87,-109.84 43.88,-285.51 -106.79,-333.76 -41.16,-13.19 -379.96,-6.84 -437.74,-6.84 -48.17,0 -100.51,-1.94 -148.17,0.42 -75.08,3.72 -83.59,52.65 -109.12,64.09 -16.13,-25.26 -40.99,-45.52 -78.96,-57.67 -41.16,-13.19 -379.95,-6.84 -437.74,-6.84 -48.16,0 -100.51,-1.94 -148.17,0.42 -75.08,3.72 -83.58,26.65 -109.11,38.09 -62.65,-41.34 -81.17,-38.5 -172.69,-38.51 -76.38,-0.01 -481.52,-4.77 -528.06,4.59 -49.03,9.85 -50.17,22.48 -74.61,35.21 -33.76,-19.49 -42.21,-35.62 -105.63,-39.27 -47.14,-2.72 -100.34,-0.53 -148.13,-0.53 -98.68,0 -197.37,0 -296.05,0 -109.82,0 -175.38,-6.9 -224.44,68.52 -39.67,60.99 -23.12,188.42 -24.56,271.79zm2376.9 -11.63l0 90.17 -0.71 75.94c37.74,-5.86 9.47,-10.82 81.22,-10.84l553.33 0.06c45.02,-0.06 46.54,1.7 85.09,11.28 -0.39,-58.41 3.53,-327.92 -1.35,-359.97 -7.2,-47.34 -45.87,-80.69 -97.68,-82.04 -59.16,-1.54 -120.5,-0.03 -179.9,-0.03 -114.99,0 -246.65,-5.96 -359.6,0.55 -90.85,5.24 -80.46,44.59 -80.46,98.23 0.01,58.87 -0.1,117.81 0.06,176.65zm-0.06 253.32l0.12 87.83 718.55 1.19c0.53,-143.79 13.93,-133.74 -151.73,-133.74l-408.83 -0.47c-55.21,0.01 -158.11,-15.24 -158.11,45.19zm773.24 234.13l176.96 1.04c5.7,-30.26 0.23,-245.27 1.59,-298.73 1.62,-63.68 63.36,-44.99 66.88,-81.08 7.2,-73.61 -172.5,-74.07 -221.44,-47.98 -35.5,18.92 -24.97,60.51 -24.97,125.65 0,49.33 -2.6,271.76 0.98,301.1zm-773.13 -20.76l718.01 1.07 0.4 -72.01 -717.12 -0.08 -1.29 71.02zm-1550.95 -299.82c64.97,-17.26 99.59,-11.54 173.7,-11.54l509.95 0.97c16.97,1.94 24.48,7.15 39.77,10.54 0.17,-48.4 3.27,-379.7 -1.86,-398.44 -13.79,-50.39 -102.08,-43.83 -156.66,-43.83l-401.78 0c-55.28,0 -144,-6.69 -160.39,40.67 -8.36,24.16 -2.47,347.49 -2.73,401.63zm776.91 -166.87l0 90.17 -0.7 75.94c37.74,-5.86 9.46,-10.82 81.21,-10.84l553.34 0.06c45.02,-0.06 46.54,1.7 85.09,11.28 -0.39,-58.41 3.52,-327.92 -1.35,-359.97 -7.2,-47.34 -45.87,-80.69 -97.69,-82.04 -59.15,-1.54 -120.5,-0.03 -179.9,-0.03 -114.98,0 -246.65,-5.96 -359.6,0.55 -90.85,5.24 -80.46,44.59 -80.45,98.23 0,58.87 -0.11,117.81 0.05,176.65zm-1549.19 166.64c64.01,-16.93 101.07,-11.31 174.14,-11.31l458.17 -0.08c45.69,-0.33 47.37,1.75 86.5,11.7 -0.68,-54.13 3.86,-376.74 -2.22,-399.39 -13.04,-48.53 -98.51,-42.99 -154.77,-42.99l-398.26 0c-72.09,0 -122.4,-2.8 -151.11,49.79 -20.71,37.93 -12.58,138.99 -12.58,189.96 0,67.36 -0.6,134.99 0.13,202.32zm772.27 160.69l-0.05 14.79 723.61 0.21c-0.28,-77.66 19.65,-133.73 -67.01,-133.73l-595.63 0c-74.8,0 -60.92,52.75 -60.92,118.73zm-772.1 14.97l718.37 0.03c0.78,-29.57 6.86,-96.13 -8.24,-114.3 -21.75,-26.14 -63.47,-19.95 -102.66,-19.71l-493.42 0.28c-128.05,0 -117.36,6.42 -114.05,133.7zm1548.97 -88.98l0.12 87.83 718.55 1.19c0.53,-143.79 13.93,-133.74 -151.74,-133.74l-408.82 -0.47c-55.21,0.01 -158.11,-15.24 -158.11,45.19zm-1781.54 233.73l178.47 1.3c6.93,-96.51 0.38,-262.03 0.53,-372.58 0.03,-30.13 -0.97,-40.85 -22.11,-53.3 -45.91,-27.02 -219.68,-28.99 -224.65,40.38 -2.8,39.16 63.98,24.57 66.9,83.28 3.79,76.43 -5.35,245.08 0.86,300.92zm1004.49 -21.54c25.12,5.79 684.81,2.13 722.57,1.55l0.84 -71.24 -723.16 -0.12 -0.25 69.81zm777.16 1.18l718 1.07 0.41 -72.01 -717.12 -0.08 -1.29 71.02zm-1549.52 -0.46l718.53 0.98 0.54 -70.65 -718.39 -0.88 -0.68 70.55z"/>
 </g>
</svg>
