<?xml version="1.0" encoding="UTF-8"?>
<!DOCTYPE svg PUBLIC "-//W3C//DTD SVG 1.1//EN" "http://www.w3.org/Graphics/SVG/1.1/DTD/svg11.dtd">
<!-- Creator: CorelDRAW 2020 (64 Bit) -->
<svg xmlns="http://www.w3.org/2000/svg" xml:space="preserve" width="42.3332mm" height="42.3332mm" version="1.1" style="shape-rendering:geometricPrecision; text-rendering:geometricPrecision; image-rendering:optimizeQuality; fill-rule:evenodd; clip-rule:evenodd"
viewBox="0 0 4233.32 4233.32"
 xmlns:xlink="http://www.w3.org/1999/xlink"
 xmlns:xodm="http://www.corel.com/coreldraw/odm/2003">
 <defs>
  <style type="text/css">
   <![CDATA[
    .str0 {stroke:white;stroke-width:8.47;stroke-miterlimit:22.9256}
    .fil0 {fill:black}
   ]]>
  </style>
 </defs>
 <g id="Camada_x0020_1">
  <metadata id="CorelCorpID_0Corel-Layer"/>
  <path class="fil0 str0" d="M902.42 1972.7c-83.28,-16.47 -65.69,-30.75 -195.45,-29.17 -64.94,0.8 -132.25,12.14 -179.8,40.07 -116.92,68.68 -109.56,205.33 20.51,257.73 0,113.74 0.18,227.48 0.18,341.23 0,155.81 -29.3,197.93 143.27,197.75 43.81,-0.06 208.96,5.55 244.18,-7.51 33.84,-12.54 19.15,-23.49 61.48,-24.41 113.44,-2.5 230.13,0.63 344.05,0.13l778.59 -0.01 0 -0.02 764.63 -0.01c112.67,0.33 225.82,1.05 338.45,0.12 86.72,-0.72 25.16,31.71 139.27,31.77 455.52,0.27 291.42,39.39 325.05,-536.09 45.13,-31.78 97.86,-49.81 101.69,-117.86 7.92,-140.68 -148.6,-181.95 -265.42,-182.93 -92.92,-0.77 -116.22,11.62 -190.65,29.66 -18.09,-167.35 66.85,-434.98 -162.7,-508.5 -62.71,-20.09 -578.88,-10.41 -666.92,-10.41 -73.39,0 -153.13,-2.97 -225.74,0.64 -105.57,5.22 -124.76,69.12 -157.66,92.63 -41.97,-41.03 -64.32,-86.9 -160.92,-92.47 -71.83,-4.14 -152.87,-0.8 -225.69,-0.8 -150.35,0 -300.7,0 -451.04,0 -167.32,0 -267.2,-10.51 -341.94,104.39 -60.45,92.92 -35.24,287.06 -37.42,414.07zm1252.22 -17.71l0 137.37 -1.07 115.71c57.49,-8.94 14.42,-16.49 123.73,-16.52l843.03 0.08c68.59,-0.08 70.9,2.61 129.63,17.2 -0.59,-89 5.37,-499.59 -2.05,-548.44 -10.97,-72.11 -69.88,-122.93 -148.83,-124.99 -90.12,-2.34 -183.58,-0.04 -274.08,-0.04 -175.19,0 -375.79,-9.07 -547.87,0.84 -138.41,7.98 -122.58,67.94 -122.57,149.65 0.01,89.7 -0.16,179.49 0.08,269.14zm-0.08 385.94l0.18 133.81 1094.73 1.81c0.81,-219.07 21.23,-203.76 -231.16,-203.76l-622.87 -0.7c-84.11,0.01 -240.88,-23.23 -240.88,68.84zm1178.06 356.71l269.6 1.58c8.68,-46.09 0.35,-373.68 2.42,-455.12 2.47,-97.02 96.53,-68.55 101.9,-123.53 10.96,-112.15 -262.82,-112.86 -337.38,-73.11 -54.08,28.83 -38.04,92.2 -38.04,191.45 0,75.14 -3.96,414.03 1.5,458.73zm-1177.89 -31.63l1093.91 1.63 0.61 -109.71 -1092.56 -0.12 -1.96 108.2zm-1170.47 -457.14c97.52,-25.79 153.99,-17.23 265.3,-17.23l698.05 -0.11c69.62,-0.51 72.18,2.66 131.79,17.81 -1.04,-82.46 5.88,-573.97 -3.39,-608.48 -19.86,-73.94 -150.09,-65.5 -235.8,-65.5l-606.75 0c-109.84,0 -186.49,-4.26 -230.23,75.86 -31.55,57.79 -19.17,211.75 -19.17,289.4 0,102.63 -0.9,205.68 0.2,308.25zm0.25 267.63l1094.47 0.05c1.19,-45.06 10.46,-146.46 -12.56,-174.14 -33.12,-39.83 -96.69,-30.4 -156.4,-30.04l-751.74 0.42c-195.09,0 -178.8,9.79 -173.77,203.71zm-354.32 220.53l271.9 1.98c10.57,-147.03 0.58,-399.21 0.81,-567.65 0.06,-45.89 -1.48,-62.23 -33.68,-81.19 -69.94,-41.18 -334.69,-44.18 -342.26,61.52 -4.27,59.66 97.48,37.42 101.92,126.88 5.78,116.44 -8.14,373.38 1.31,458.46zm353.67 -31.72l1094.7 1.49 0.82 -107.64 -1094.5 -1.33 -1.02 107.48z"/>
 </g>
</svg>
