<?xml version="1.0" encoding="UTF-8"?>
<!DOCTYPE svg PUBLIC "-//W3C//DTD SVG 1.1//EN" "http://www.w3.org/Graphics/SVG/1.1/DTD/svg11.dtd">
<!-- Creator: CorelDRAW 2020 (64 Bit) -->
<svg xmlns="http://www.w3.org/2000/svg" xml:space="preserve" width="42.3332mm" height="42.3332mm" version="1.1" style="shape-rendering:geometricPrecision; text-rendering:geometricPrecision; image-rendering:optimizeQuality; fill-rule:evenodd; clip-rule:evenodd"
viewBox="0 0 4233.32 4233.32"
 xmlns:xlink="http://www.w3.org/1999/xlink"
 xmlns:xodm="http://www.corel.com/coreldraw/odm/2003">
 <defs>
  <style type="text/css">
   <![CDATA[
    .str0 {stroke:gray;stroke-width:8.47;stroke-miterlimit:22.9256}
    .fil0 {fill:black}
   ]]>
  </style>
 </defs>
 <g id="Camada_x0020_1">
  <metadata id="CorelCorpID_0Corel-Layer"/>
  <path class="fil0 str0" d="M782.25 2010.47c-61.43,-12.16 -48.46,-22.69 -144.17,-21.52 -47.89,0.58 -97.54,8.95 -132.61,29.55 -86.24,50.66 -80.81,151.45 15.13,190.1 0,83.9 0.13,167.79 0.13,251.69 0,114.92 -21.61,145.98 105.67,145.85 32.32,-0.04 154.13,4.1 180.11,-5.53 24.95,-9.25 14.13,-17.33 45.34,-18.02 83.67,-1.83 169.74,0.47 253.77,0.1l2015.88 -0.03c83.1,0.24 166.55,0.78 249.63,0.09 63.96,-0.53 18.56,23.39 102.73,23.43 335.98,0.2 214.94,29.07 239.75,-395.4 33.28,-23.44 72.18,-36.74 75,-86.94 5.84,-103.76 -109.6,-134.2 -195.77,-134.92 -68.54,-0.57 -85.72,8.57 -140.62,21.88 -13.34,-123.44 49.31,-320.84 -120.01,-375.07 -46.25,-14.81 -426.97,-7.68 -491.9,-7.68 -54.13,0 -112.95,-2.18 -166.51,0.48 -84.36,4.18 -93.92,29.95 -122.61,42.8 -70.4,-46.46 -91.21,-43.27 -194.06,-43.28 -85.83,-0.01 -541.09,-5.35 -593.39,5.16 -55.1,11.07 -56.38,25.26 -83.85,39.56 -37.93,-21.89 -47.43,-40.02 -118.69,-44.12 -52.98,-3.06 -112.76,-0.6 -166.46,-0.6 -110.9,0 -221.79,0 -332.68,0 -123.42,0 -197.08,-7.75 -252.21,77 -44.59,68.54 -25.99,211.73 -27.6,305.42zm928.2 174.45c73.01,-19.4 111.91,-12.97 195.19,-12.97l573.05 1.09c19.06,2.18 27.51,8.03 44.69,11.84 0.19,-54.38 3.68,-426.67 -2.09,-447.73 -15.5,-56.63 -114.71,-49.26 -176.04,-49.26l-451.49 0c-62.13,0 -161.83,-7.52 -180.24,45.7 -9.4,27.15 -2.78,390.49 -3.07,451.33zm873.04 -187.52l0 101.33 -0.79 85.34c42.41,-6.59 10.63,-12.17 91.26,-12.18l621.8 0.06c50.59,-0.06 52.3,1.91 95.62,12.68 -0.44,-65.64 3.96,-368.49 -1.51,-404.52 -8.1,-53.19 -51.55,-90.67 -109.78,-92.19 -66.47,-1.72 -135.41,-0.03 -202.15,-0.03 -129.22,0 -277.18,-6.69 -404.1,0.62 -102.09,5.88 -90.41,50.11 -90.41,110.38 0.01,66.16 -0.12,132.39 0.06,198.51zm-1740.88 187.26c71.93,-19.02 113.58,-12.71 195.69,-12.71l514.86 -0.08c51.35,-0.38 53.24,1.96 97.21,13.14 -0.77,-60.83 4.33,-423.36 -2.51,-448.81 -14.64,-54.54 -110.69,-48.31 -173.91,-48.31l-447.54 0c-81.01,0 -137.55,-3.14 -169.81,55.96 -23.27,42.62 -14.13,156.18 -14.13,213.45 0,75.7 -0.68,151.7 0.14,227.36zm867.82 180.57l-0.04 16.62 813.13 0.24c-0.31,-87.27 22.08,-150.28 -75.3,-150.28l-669.32 0c-84.06,0 -68.47,59.28 -68.47,133.42zm-867.63 16.83l807.26 0.03c0.88,-33.23 7.71,-108.02 -9.26,-128.44 -24.44,-29.37 -71.32,-22.42 -115.37,-22.16l-554.46 0.32c-143.9,0 -131.88,7.21 -128.17,150.25zm1740.63 -100l0.13 98.7 807.46 1.34c0.6,-161.59 15.66,-150.29 -170.51,-150.29l-459.41 -0.53c-62.04,0.02 -177.67,-17.13 -177.67,50.78zm-2001.97 262.66l200.55 1.46c7.79,-108.46 0.42,-294.46 0.59,-418.69 0.04,-33.85 -1.09,-45.9 -24.84,-59.89 -51.59,-30.37 -246.86,-32.58 -252.44,45.37 -3.16,44.02 71.89,27.61 75.17,93.6 4.26,85.88 -6.01,275.4 0.97,338.15zm2870.89 0.45l198.85 1.16c6.4,-34 0.26,-275.62 1.78,-335.69 1.82,-71.56 71.2,-50.56 75.16,-91.11 8.09,-82.72 -193.85,-83.24 -248.84,-53.92 -39.89,21.26 -28.06,68 -28.06,141.2 0,55.43 -2.92,305.38 1.11,338.36zm-1742.11 -24.66c28.22,6.5 769.54,2.4 811.97,1.74l0.94 -80.06 -812.63 -0.12 -0.28 78.44zm873.31 1.32l806.85 1.21 0.45 -80.92 -805.85 -0.09 -1.45 79.8zm-1741.24 -0.51l807.44 1.1 0.6 -79.4 -807.28 -0.98 -0.76 79.28z"/>
 </g>
</svg>
