<?xml version="1.0" encoding="UTF-8"?>
<!DOCTYPE svg PUBLIC "-//W3C//DTD SVG 1.1//EN" "http://www.w3.org/Graphics/SVG/1.1/DTD/svg11.dtd">
<!-- Creator: CorelDRAW 2020 (64 Bit) -->
<svg xmlns="http://www.w3.org/2000/svg" xml:space="preserve" width="42.3332mm" height="42.3332mm" version="1.1" style="shape-rendering:geometricPrecision; text-rendering:geometricPrecision; image-rendering:optimizeQuality; fill-rule:evenodd; clip-rule:evenodd"
viewBox="0 0 4233.32 4233.32"
 xmlns:xlink="http://www.w3.org/1999/xlink"
 xmlns:xodm="http://www.corel.com/coreldraw/odm/2003">
 <defs>
  <style type="text/css">
   <![CDATA[
    .fil0 {fill:black}
   ]]>
  </style>
 </defs>
 <g id="Camada_x0020_1">
  <metadata id="CorelCorpID_0Corel-Layer"/>
  <g id="_2550507862784">
   <path class="fil0" d="M982.03 1448.32c0,141.87 -1.79,1588.47 0.7,1597.09 2.02,7.03 6.96,18.51 13.13,23.87 12.31,10.69 17.84,13.98 35.38,13.98l877.87 0c8.9,0 12.77,-2.57 21.21,-4.16 5.64,-1.07 12.25,-7.08 15.75,-11.02l42.81 -50.2c16.3,-21.95 36.5,-43.41 53.17,-65.35 8.71,-11.46 22.96,-25.05 30.08,-36.6 1.01,-1.64 1.13,-2.14 2.49,-3.99l6 -7.35c1.79,-2.22 1.23,-1.66 3.05,-3.35 9.44,-8.75 16.41,-19.48 24.8,-28.46 2.55,-2.72 3.21,-4.85 5.47,-7.46l6.65 -0.16c3.61,4.4 8.13,14.2 18.58,24.97l3.87 4.21c4.57,5.17 8.05,9.72 12.18,14.4l14.74 18.68c5.63,7.83 12.18,12.76 16.55,19.37l16.87 20.16c6.91,6.91 12.89,16.3 18.89,23.78 11.14,13.88 6.71,6.36 17.47,18.34 8.05,8.97 15.75,20.76 24.11,29.19l11.45 15.13c6.59,7.96 10.52,15.06 19.25,20.47 9.96,6.18 16.99,9.4 30.88,9.4l877.87 0c8.41,0 15.09,-0.18 21.09,-3.13 21.23,-10.43 27.55,-22.49 27.55,-46.32l0 -1586.82c0,-13.58 -0.01,-18.77 -6.23,-27.79l-2.65 -4.06c-8.04,-12.07 -18.34,-21.56 -27.58,-33.51l-53.95 -67.07c-4.01,-4.07 -4.1,-4.22 -7.97,-9.43l-54.4 -65.24c-3.21,-3.62 -5.69,-5.05 -8,-9.29 -8.23,-15.15 -27.3,-32.94 -38.72,-47.77l-11.35 -14.01c-2.52,-3.51 -0.99,-2.44 -4.11,-5.03l-22.17 -12.25c-4.83,-1.49 -10.97,-1.4 -16.35,-1.4l-1762.38 0c-15.35,0 -26.1,5.06 -37.55,14.52l-39.65 46.83c-5.39,6.41 -9.53,11.82 -15.34,19.38l-5.44 6.52c-6.96,10.67 -19.06,19.96 -25.94,31.23l-15.31 19.31c-2.68,3.9 -4.79,5.81 -7.95,9.17 -8.38,8.89 -14.37,18.59 -22.53,27.32l-13.11 18.37c-0.17,0.21 -0.4,0.53 -0.57,0.73 -0.16,0.2 -0.4,0.51 -0.57,0.7l-16.19 18.49c-2.02,2.95 -1.14,1.87 -3.41,4.41 -0.18,0.2 -0.46,0.48 -0.65,0.69l-5.41 6.64c-1.07,1.29 -0.06,0.29 -1.8,2.03 -0.99,0.98 -3.49,2.94 -4.91,4.47 -2.4,2.59 -5.63,6.75 -7.85,9.44l-15.45 19.1c-5.12,5.33 -11.28,14.5 -13.41,20.87 -1.24,3.73 -1.01,13.61 -1.01,17.96zm1384.79 1544.54l795.85 0.58 -0.01 -1505.28 -795.54 0 -0.3 1504.7zm-1294.95 0.58l795.85 -0.01 0 -1504.79 -795.49 -0.48 -0.36 1505.28zm1091.29 -1670.56c-3.29,5.93 -1.46,91.65 -1.46,105.49l0 1330.1c-0.01,10.25 -1.59,16.38 3.41,23.38l17.62 22.34c1.97,2.57 3.82,3.99 6.48,6.67 8.61,8.66 17.49,23.31 23.91,29.3 5.16,4.83 8.07,7.83 12.72,13.84 7.38,9.55 27.91,30.81 33.44,39.55l12.01 15.04c3.67,3.96 0.52,4.03 4.15,2.1 3.87,-2.05 1.73,-44.75 1.73,-51.13l0 -1383.3c0.02,-25.02 1.28,-13.55 -10.04,-29.49 -4.86,-6.83 -1.48,-3.72 -7.99,-10.55l-24.48 -30.21c-0.17,-0.22 -0.41,-0.53 -0.58,-0.75l-66.26 -78.55c-3.1,-3.5 -0.24,-1.9 -4.66,-3.83zm-205.79 142.74l0 1439.17c0,12.25 7.2,3.19 14.43,-5.13l3.08 -3.57c11.64,-14.09 10.5,-14.23 26.04,-31.16 0.51,-0.55 1.19,-1.29 1.98,-2.1l13.13 -15.91c0.17,-0.22 0.41,-0.53 0.57,-0.76 0.17,-0.22 0.4,-0.54 0.57,-0.76 0.17,-0.24 0.39,-0.56 0.56,-0.8 0.23,-0.3 1.44,-1.9 1.78,-2.31 2.12,-2.53 2.25,-2.32 3.87,-4.08 6.69,-7.25 12.55,-17.19 24.19,-29.16l4.8 -6.92c2.47,-3.88 5.1,-5.17 8.25,-9.09 0.17,-0.21 0.41,-0.53 0.58,-0.75 0.17,-0.22 0.41,-0.54 0.58,-0.76 4.66,-5.95 11.06,-11.56 11.06,-19.75l-0.18 -1448.59c-4.31,0.3 -2.38,-1.3 -9.19,6.83 -2.49,2.97 -4.6,5.35 -7.31,8.61 -5.48,6.61 -9.17,11.39 -14.4,17.56 -7.44,8.76 -1.8,4.91 -14.62,17.33l-7.14 8.76c-2.72,3.65 -4.12,6.89 -7.57,9.78 -8.8,7.38 -27.64,33.46 -36.07,43.67 -2.92,3.54 -4.58,5.46 -7.28,8.7 -2.31,2.78 -5.35,5.62 -7.45,8.42 -4.67,6.26 -4.26,6.36 -4.26,12.77zm-65.55 -67.87c0.62,-1.5 -1.25,-0.38 2.06,-4.49 0.89,-1.11 2.24,-2.84 2.41,-3.04 9.07,-10.94 12.32,-9.68 27.56,-29.47 0.17,-0.22 0.43,-0.52 0.61,-0.74l4.61 -6.01c0.73,-0.98 1.55,-1.94 2.38,-2.99l41.04 -50.95c1.57,-2.28 2.5,-3.83 3.81,-5.35 1.87,-2.17 2.23,-1.9 4.59,-4.74 3.05,-3.68 4.88,-6.81 8.3,-10.29l13.37 -14.36c6.6,-8.36 1.6,3.71 9.36,-9.11 0.17,-0.27 0.37,-0.61 0.55,-0.88l4.23 -5.21c0.17,-0.22 0.43,-0.53 0.6,-0.75 0,0 6.73,-6.03 3.03,-9.44 -3.89,-3.58 -204.1,-1.47 -225.61,-1.47l-542.42 0.26c-2.85,0.72 -13.58,14.61 -20.34,21.98 -2.87,3.13 -2.53,5.46 -5.45,9.21l-13.87 15.29c-14.02,17.88 -46.33,59.53 -63.89,77.2l-13.01 16.13c-19.36,23.78 -16.09,19.56 12.55,19.56l686.33 0c17.87,0 39.82,1.13 57.2,-0.34zm323.18 -158.25c0.23,7.26 -2.29,-0.23 5.82,10.09 2.74,3.47 4.34,6.21 7.45,8.8l10.74 12.88c5.36,6.83 5.98,9.58 10.79,14.55l37.61 44.8c17.21,21.86 8.42,5.93 19.22,21.87 1.14,1.67 1.88,2.99 3.16,4.82l11.97 13.7c7.08,6.44 1.12,3.22 11.49,13.71 14.54,14.7 -8.9,13.37 52.04,13.37l708.94 0c2.61,0.01 5.51,0.14 8.07,0.1 2.55,-0.05 6.79,0.1 8.13,-1.5l0.13 -1.48c-0.73,-3.45 -2.05,-4.07 -4.95,-7.44 -2.7,-3.16 -5.12,-5.91 -7.2,-8.85 -4.12,-5.84 -9.84,-13.5 -14.5,-18.68 -2.72,-3.03 -4.56,-5.39 -7.44,-8.46l-17.26 -20.02c-0.51,-0.63 -1.46,-1.79 -1.81,-2.2 -0.19,-0.22 -0.45,-0.51 -0.63,-0.72 -0.18,-0.21 -0.45,-0.49 -0.63,-0.7l-18.34 -21.54c-0.27,-0.27 -1.03,-1.1 -1.31,-1.38 -10.57,-10.96 0.46,0.14 -12.28,-16.96 -5.03,-6.75 -10.44,-11.39 -15.55,-17.66 -4.43,-5.43 -1.68,-5.79 -8.14,-11.72l-6.24 -7.31c-12.44,-17.74 -8.61,-13.11 -51.68,-13.11 -127.17,0 -721.65,-1.63 -727.6,1.04z"/>
   <path class="fil0" d="M1431.72 2162.59c-8.74,4.29 -23.44,1.28 -33.04,5.57l-5.59 1.37c-6.86,1.13 -2.14,-0.52 -6.81,2.27l-41.38 13.03c-3.27,1.4 -1.9,1.25 -6.26,2.82l-6.68 2.8c-4.54,2.23 -9.18,2.43 -13.76,5.21l-33.97 20.33c-13.03,9.11 -30.29,18.23 -43.07,30.16 -3.48,3.25 -5.37,5.32 -9.69,9.02 -10.91,9.34 -18.46,18.72 -29.03,28.19 -3.63,3.24 -8.07,13.23 -13.25,19.92l-40.85 69.6c-1.38,3.03 -1.3,3.71 -2.49,6.89 -4.2,11.28 -10.99,22.78 -12.4,34.22 -1.4,11.44 -0.91,6.45 -4.01,14.26 -1.93,4.86 -0.88,11.45 -2.3,16.81 -5.26,19.87 -7.51,41.62 -7.26,66.07 0.11,11.15 3.09,21.13 3.72,31.92 0.5,8.55 -0.91,18.67 1.49,26.88 1.95,6.71 1.41,1.82 2.49,6.72 1.53,6.93 -0.67,9.04 2.67,15.02 4.5,8.04 0.9,7.12 3.8,14.73 1.19,3.13 1.66,1.32 3.04,5.71l10.8 34.93c1.92,4.3 1.37,0.72 2.69,6.51 1.97,8.69 11.11,25.86 16.47,34.4 0.81,1.28 0.7,1.26 1.5,2.52l7.22 12.68c0.16,0.24 0.38,0.56 0.54,0.81l18.7 25.26c8.67,11.89 24.91,26.9 36.03,36.97 21.18,19.16 18.98,18.36 46.33,36.28 2.63,1.72 3.21,1.92 5.61,3.64 5.4,3.9 9.92,8.5 16.37,11.25l29.41 16.05c3.47,2.86 24.5,6.59 30.63,5.35 12.95,-2.61 24.21,-10.8 31.4,-22.61l5.53 -10.14c0.12,-0.28 0.28,-0.63 0.4,-0.91 4.06,-9.42 1.17,-20.13 -2.67,-29.4l-3.3 -6.06c-1.73,-3.36 -0.72,-2.17 -3.61,-5.2 -6.08,-6.38 -14.34,-10.3 -22.88,-14.34l-23.83 -12.14c-7.89,-4.26 -14.3,-10.21 -22.3,-14.78 -12.02,-6.86 -28.99,-24.81 -39.62,-33.7 -7.4,-6.19 -9.29,-13.42 -15.59,-20.35 -12.63,-13.91 -10.38,-7.16 -22.62,-31.74l-6.4 -12.26c-1.51,-3.09 -1.8,-3.38 -2.94,-6.37 -0.52,-1.37 -0.52,-1.69 -1,-2.99l-1.59 -3.79c-4.18,-9.01 -6.17,-19.05 -9.6,-27.73 -2.11,-5.35 -0.92,-9.45 -3.15,-15.53 -4.9,-13.37 -1.94,-20.19 -4.31,-33.3 -1.07,-5.9 -0.41,0.97 -1.74,-5.87 -0.53,-2.75 -0.49,-6.29 -0.57,-9.15 -0.56,-20.42 0.22,-47.65 6.54,-66.91 5.97,-18.21 9.2,-38.57 18.24,-55.2l12.93 -25.46c11.59,-13.1 27.86,-39.55 50.77,-58.31l15.41 -12.55c1.96,-1.52 3.35,-3.02 4.95,-4.43l10.91 -7.56c10.75,-6.64 25.26,-12.97 36.36,-18.28l26.6 -9.49c31.12,-9.81 65.71,-15.01 98.5,-11.07 6.25,0.75 9.17,2.28 15.84,2.68 5.78,0.35 11.62,-0.16 16.31,1.51 16.92,6.04 40.33,8.65 58.61,18.65l39.16 22.17c0.24,0.16 0.58,0.37 0.81,0.53 0.23,0.15 0.55,0.38 0.77,0.54 11.48,8.32 22.05,19.06 32.36,28.65 4.7,4.36 4.68,2.59 9.05,8.07 0.8,1 1.15,1.46 1.76,2.22l14.82 18.65c6.14,6.33 8.49,15.68 13.36,22.58 7.63,10.83 14.36,23.45 19.83,35.8l6.64 20.04c3.16,9.12 9.16,41.83 10.87,53.05 2.3,15.05 -0.04,55.43 -3.07,70.66 -0.95,4.82 -3.16,11.21 -3.91,14.44 -4.94,21.17 0.7,6.68 -7.95,29.56 -2.68,7.12 0,5.52 -4.39,12.67l-29.19 53.23c-8.27,7.82 -12.88,16.58 -21.93,24.67 -13.96,12.49 -24.78,22.92 -40.4,32.93 -7.42,4.75 -13.88,10.45 -21.82,14.13l-25.05 12.27c-5.8,2.31 -9.74,5.62 -14.9,8.89 -7.56,4.8 -16.16,19.7 -16.76,31.98 -0.65,13.42 4.26,24.28 12.05,32.86 4.87,5.37 9.64,8.81 16.42,11.24 9.86,3.54 18.86,5.73 29.64,0.98 13.88,-6.11 37.94,-17.16 49.98,-24.43 7.87,-4.75 14.73,-9.95 22.51,-14.85l38.04 -29.47c7.92,-9.83 14.65,-13.69 19.94,-20.02l20.59 -26.27c0.22,-0.17 0.57,-0.37 0.78,-0.54 0.3,-0.23 1.17,-0.84 1.44,-1.09l9.46 -14.43c6.36,-7.87 28.59,-52.31 31.11,-60.72 4.34,-14.51 11,-24.02 13.63,-41.22 1.1,-7.13 2.95,-9.58 3.93,-14.46 1.45,-7.25 0.57,-8.92 2.79,-16.02 2.4,-7.65 6.76,-55.78 6.69,-66.2 -0.11,-17.7 -2.49,-33.2 -4.6,-49.71 -1.02,-8.07 -2.97,-8.99 -3.81,-14.44 -0.46,-2.96 -0.18,-5.88 -0.75,-8.88 -0.76,-3.9 -1.76,-4.16 -2.68,-6.59 -0.62,-1.66 -3.56,-19.86 -7.65,-29.82l-7.27 -19.21c-3.68,-10.8 -9.23,-19.8 -14.4,-29.47l-14.79 -28.09c-6.25,-10.99 -15.61,-19.45 -22.01,-29.9 -4.57,-7.46 -11.64,-12.41 -17.43,-18.4 -3.75,-3.88 -4.68,-7.44 -8.73,-11.16 -9.27,-8.53 -19.27,-18.03 -29.34,-25.2l-55.78 -36.03c-3.97,-2.01 -7.33,-3.85 -12.41,-6.13 -16.22,-7.26 -36.29,-18.23 -53.77,-19.62 -1.99,-0.16 -5.86,-0.16 -7.6,-0.64 -6.05,-1.64 0.88,-0.47 -5.43,-3.23 -4.93,-2.17 -25.38,-5.06 -32.21,-5.35 -10.45,-0.45 -8.55,-2.15 -14.98,-3.32 -8.4,-1.54 -67.66,-1.75 -72.67,0.71z"/>
   <path class="fil0" d="M2414.49 2511.07c0.04,15.56 1.7,32.07 3.35,47.51 0.84,7.97 2.76,14.09 4.28,20.73 3.91,17.16 7.06,35.52 13.88,51.4 1.66,3.87 3.25,6.07 4.29,8.69l30.13 59.11c2.65,3.97 1.84,4.59 4.69,8.62l29.89 40.7c4.51,4.93 9.41,7.5 14.46,12.2l30.71 27.72c11.03,9.86 23.84,18.27 36.42,26.02l38.17 20.18c2.18,1.02 2.16,0.76 5.04,1.43 8.86,2.07 21.75,6.42 32.19,1.55 6.48,-3.02 12.2,-3.38 17.6,-8.91 7.55,-7.71 9.88,-13.86 12.92,-25.39 2.84,-10.75 -0.25,-22.45 -5.61,-30.61l-4.94 -7.1c-3.03,-4.36 -2.13,-3.55 -6.71,-6.26 -5.73,-3.38 -9.89,-6.96 -15.99,-9.04 -3.8,-1.29 -5.5,-2.28 -8.98,-4.75 -5.23,-3.72 -11.92,-5.01 -18.11,-8.41l-50.51 -40.03c-8.12,-7.75 -18.03,-23 -24.24,-27.37 -0.24,-0.17 -0.6,-0.36 -0.84,-0.54 -9.59,-7.25 -20.55,-31.67 -28.27,-43.75 -2.83,-4.44 -2.56,-6.84 -4.25,-11.58 -1.22,-3.39 -2.42,-5.28 -3.9,-9.36 -1.48,-4.08 -1.94,-5.15 -3.53,-9.95 -6.38,-19.27 -10,-40.93 -11.91,-61.46 -2.2,-23.68 -0.59,-49.73 3.28,-72.89 0.59,-3.52 1.65,-5.42 2.77,-9.17l10.84 -34.43c2.19,-4.72 0.62,-0.55 2.39,-4.06l9.64 -22.36c0.96,-1.72 1.17,-2.47 2.26,-4.41 1.26,-2.26 3.72,-5.41 4.74,-7.25 2.36,-4.27 1.48,-5.45 4.03,-9.48l28.46 -36.58c3.05,-3.34 4.06,-2.86 7.35,-5.92 6.24,-5.81 12.99,-13.43 19.94,-18.54 1.6,-1.18 2.15,-1.39 3.98,-2.74 2.05,-1.5 2.08,-1.56 3.68,-3.07l6.33 -5.37c1.84,-1.18 2.69,-1.51 4.27,-2.51l3.89 -2.76c16.31,-11.07 34.45,-18.51 52.84,-25.58 29,-11.16 57.42,-15.31 88.95,-15.31 13.69,0 22.48,0.78 34.01,3.27 15.56,3.36 11.38,-1.46 44.45,8.95l13.81 4.85c7.03,1.95 8.42,1.47 13.44,5.51 4.25,3.43 11.12,5.37 17.94,8.36 3.88,1.7 2.48,0.93 6.2,3.22 7.44,4.59 16.72,8.08 22.99,14.16 3.64,3.52 6.56,4.84 10.81,7.99 9.03,6.71 15.42,14.42 23.43,21.78 20.49,18.8 49.32,61.89 56.73,89.83l7.12 20.72c2.16,6.17 1.28,8.7 2.74,14.82 1.22,5.12 3.51,5.88 3.71,15.03 0.42,19.74 4.62,26.32 3.86,50.61 -0.26,8.3 -1.66,10.36 -2.4,16.21 -0.71,5.52 -0.77,12.44 -1.3,17.35l-3.4 15.47c-1.12,3.94 -0.7,10.53 -2.11,15.55 -0.72,2.58 -1.22,2.03 -2.5,6.79l-4.85 13.75c-1.04,2.84 -1.12,4.08 -2.33,7.11l-11.69 24.16c-1.55,3.41 -4.77,8.59 -6.6,12.07l-15.12 21.86c-4.6,4.92 -7.12,11.18 -11.03,15.72l-14.46 13.24c-6.18,4.74 -12.3,12.68 -18.84,17.1l-10.89 7.84c-1.94,1.54 -3.2,2.16 -5.53,3.66l-6.27 5.8c-0.18,0.16 -0.49,0.41 -0.68,0.56l-17.91 8.77c-0.26,0.15 -0.6,0.34 -0.86,0.49l-10.6 5.41c-28.54,16.25 -42.21,22.35 -36.1,59.67 1.1,6.72 9.75,17.58 15.07,20.98 3.85,2.46 7.31,5.38 11.72,6.72 3.95,1.19 11.2,3.27 15.64,2.84 13.76,-1.33 26.81,-8.61 39.17,-15.37 8.76,-4.79 16.56,-7.2 24.51,-12.76l11.76 -8.13c0.24,-0.16 0.57,-0.38 0.8,-0.55l4.44 -3.61c7.52,-6.4 17.17,-11.01 25.3,-17.25l57.22 -59.81c0.18,-0.23 0.43,-0.53 0.61,-0.75 18.86,-23.28 15.06,-26.23 25.97,-44.74l8.02 -13.15c3.23,-3.91 2.68,-7.73 4.87,-12.54 1.32,-2.9 1.31,-1.25 2.99,-6.22 2.32,-6.81 2.44,-6.49 5.88,-12.56 8.37,-14.79 7.07,-34.49 13.99,-49.87 0.81,-1.8 1.99,-4.52 2.34,-6.47 4.29,-23.92 8.55,-84.09 2.8,-103.83 -3.17,-10.87 -0.84,-22.31 -4.72,-31.17 -3.28,-7.51 -5.12,-20.72 -8,-29.14l-3.78 -13.75c-1.92,-4.48 -0.88,0.77 -3.32,-5.71l-14.44 -31.69c-4.69,-13.41 -19.3,-36.56 -26.79,-46.66l-59.93 -68.01c-6.33,-7.62 -35.26,-26.29 -44.89,-31.98 -0.07,-0.04 -3.05,-1.94 -3.3,-2.11l-25.3 -14.33c-9.96,-3.88 -19.77,-9.11 -30.46,-12.4 -8.2,-2.52 -18.06,-7.63 -26.94,-9.01 -9.06,-1.42 -7.63,-2.22 -14.25,-4.15l-46.61 -8.07c-19.34,-2.76 -58.35,-2.81 -76.44,1.13 -6.14,1.34 -13.1,1.9 -19.59,2.1 -13.83,0.42 -37.27,10.41 -51.58,14.2l-59.46 27.14 -22.85 15.63c-2.83,1.97 -0.23,0.43 -4.32,2.01 -6.38,2.48 -8.04,4.52 -13.02,8.81 -5,4.31 -7.67,5.13 -12.76,9.89l-26.39 25.39c-16.37,15.91 -17.79,18.03 -30.47,36.23l-5.79 7.45c-0.17,0.23 -0.4,0.55 -0.57,0.77 -0.23,0.31 -0.88,1.22 -1.11,1.53 -1.2,1.57 -0.55,0.82 -2.35,2.95 -8.69,10.26 -13.63,22.28 -20.33,34.2 -8.25,14.69 -21.53,47.71 -24.99,63.12 -2.55,11.38 -4.35,24.24 -8.05,35.69 -2.04,6.31 -1.24,13.01 -3.34,19.08 -3.79,10.93 -2.63,27.96 -2.6,41.33z"/>
   <path class="fil0" d="M2764.36 2297.02c-24.53,0.06 -48.41,3.31 -70.51,11.94 -6.19,2.42 -11.28,2.91 -16.85,5.76l-20.99 11c-11.52,5.42 -23.72,13.89 -32.82,22.82l-46.06 50.69 -7.84 15.01c-7.84,15.6 -8.2,8.27 -13.6,31.48 -6.76,29.05 -12.31,25.41 -12.42,72.01 -0.05,20.57 2.72,40.59 8.57,59.68 1.39,4.53 3.16,5.83 4.16,10 2.01,8.37 3.02,14.5 6.45,21.98l10.12 18.91c1.36,1.95 0.38,0.47 1.55,2.58 5.96,10.74 12.9,18.9 20.43,28.81 7.25,9.54 14.46,17.62 24.01,25.04l1.53 1.15c8.65,6.59 15.79,13.1 25.1,18.83 4.06,2.5 19.23,9.16 27.64,14.91 9.75,6.67 24.22,7.44 35.09,11.7 25.69,10.06 82.11,10.77 106.71,2.82 11.4,-3.69 25.37,-5.8 36.89,-11.02 9.03,-4.09 34.88,-18.19 42.39,-24.07l12.41 -11.35c4.23,-4.73 11.2,-7.74 15.43,-12.57 4.55,-5.2 5.02,-8.62 11.52,-15.02 18.4,-18.14 16.22,-21.84 27.91,-41.37 6.66,-11.12 12.12,-26.63 15.56,-39.04 1.8,-6.53 0.56,-5.46 3.17,-11.42 1.99,-4.55 6,-42.87 5.98,-50.57l-4.47 -42.57c-1.34,-5.72 -2.69,-4.69 -3.68,-10.65 -1.21,-7.35 -4.41,-5.99 -5.06,-15.87 -0.62,-9.37 -4.1,-14.56 -7.35,-21.21 -0.88,-1.8 -1.47,-3.06 -2.35,-4.5l-8.45 -15.42c-0.15,-0.26 -0.35,-0.6 -0.5,-0.86l-2.76 -5.06c-4.21,-10.12 -12.64,-15.23 -18.19,-24.45 -7.56,-12.57 -16.3,-19.45 -26.68,-28.02 -10.63,-8.77 -21.91,-15.36 -33.02,-22.8 -12.13,-8.12 -24.1,-12.29 -37.17,-17.27 -4.31,-1.64 -6.93,-1.07 -10.95,-2.58 -19.96,-7.48 -35.84,-9.49 -60.9,-9.43zm-9.31 90.05c-4.55,0.73 -10.73,-0.22 -15.64,0.69l-45.65 19.33c-9.05,5.18 -24.76,17.75 -31.58,26.94l-1.75 2.29c-0.18,0.21 -1.81,2 -1.92,2.12 -2.47,2.83 -5.31,6.58 -7.4,9.79l-10.86 22.22c-5.68,16.84 -10.48,34.74 -8.45,57.86 0.37,4.18 3.82,23.78 5.23,27.79l5.82 16.89c0.14,0.3 0.33,0.62 0.47,0.91 1.05,2.29 1.95,4.99 2.8,6.38 1.48,2.43 1.4,1.56 3.51,4.2 6.7,8.39 0.28,3.8 17.7,23.61l17.2 16.07c8.52,7.81 1.43,2.95 12.17,8.97l16.72 8.66c8.91,5.14 3.66,0.42 14.37,5.36 5.75,2.64 40.65,4.03 47,3.28 27.4,-3.23 40.81,-8.15 61.66,-19.56l26.49 -23.92c2.6,-3.18 4.72,-5.07 7.34,-8.66 7.98,-10.97 15.49,-21.21 19.97,-34.06 8.17,-23.46 9.55,-57.22 1.41,-83.18 -0.78,-2.47 -3.12,-9.8 -4.18,-11.93l-10.11 -19.05c-6.3,-11.69 -5.3,-9.4 -15.96,-21.36l-3.78 -4.19c-7.13,-8.63 -13.88,-12.91 -23.73,-18.89 -21.78,-13.2 -52.08,-22.83 -78.85,-18.56z"/>
   <path class="fil0" d="M1444.62 2298.97c-9.91,1.51 -13.8,1.54 -23.15,3.73l-31.19 9.92c-2.46,0.86 -6.43,2.55 -9.55,3.73 -2.93,1.12 -6.28,2.63 -9.28,4.28l-29.21 15.97c-8.19,7.24 -7.82,4.53 -11.14,8.55 -5.05,6.12 -11.24,9.67 -16.99,15.18 -14.94,14.31 -30.98,37.92 -39.36,56.64l-5.1 9.52c-8.68,17.32 -9.49,30.62 -14.05,40.39l-2.85 10.8c-0.52,5.1 -1.47,6.45 -2.61,11.5 -2.5,11.06 -3.07,44.47 0.38,53.83 3.2,8.65 1.07,14.83 3.55,22.93 4.97,16.16 8.09,34.15 17.88,47.59l6.11 12.33c2.99,5.67 5.23,12.6 9.29,17.5l23.72 28.08c5.71,6.52 9.2,10.45 16.73,15.35l5.94 4.59c14.37,14.6 13.82,11.22 29.42,21.05l14.35 7.12c5.89,3.77 13.86,6.15 19.99,7.88 15.24,4.3 26.58,9.25 43.52,10.73 12.21,1.06 66.14,3.49 77.22,-2.3 15.04,-7.87 21.72,-5.03 33.46,-10.43 2.04,-0.95 1.55,-0.49 3.08,-1.09l5.59 -3.34c1.88,-1.13 0.73,-0.42 2.79,-1.36 3.17,-1.44 1.65,-0.61 4.62,-2.13 7.14,-3.64 11.81,-5.19 17.77,-9.88l23.47 -17.88c14.77,-10.35 20.34,-17.99 30.95,-31.56l2.97 -3.69c0.17,-0.21 0.42,-0.51 0.59,-0.73 0.17,-0.22 0.42,-0.52 0.6,-0.74l18.3 -29.8c0.14,-0.29 0.33,-0.62 0.47,-0.91 5.75,-12.1 8.3,-10.08 10.92,-19.65l7.46 -20.07c1.57,-3.55 1.53,-6.48 3.05,-10.28 6.68,-16.73 7.96,-60.31 4.28,-76.97 -1.64,-7.4 -0.21,-16.36 -3.33,-23.6 -2.81,-6.55 -1.35,0.77 -2.98,-9.91 -1.54,-10.17 -3.08,-4 -4.64,-9.85l-4.31 -15.53c-0.41,-2.19 0.03,-1.15 -0.77,-3.63 -3.61,-11.1 -18.94,-38.3 -26.39,-45.99 -2.51,-2.59 -4.39,-4.98 -6.52,-7.89 -16.99,-23.17 -25.89,-24.49 -42.41,-40.1l-40.36 -22.67c-6.77,-2.27 -1.74,-2.36 -9.58,-3.82 -4.53,-0.84 -6.97,-0.78 -10.83,-3.17 -12.67,-7.86 -24.94,-4.2 -32.53,-7.72l-5.53 -2.4c-11.22,-2.73 -42.18,-1.88 -53.81,-0.1zm3.92 89.06c-15.07,2.41 -12.89,3.45 -25.28,6.87 -13.79,3.81 -29.75,14.43 -41.28,24l-8.21 9.11c-0.18,0.21 -0.46,0.49 -0.64,0.7l-22.04 32.83c-3.75,8.76 -2.87,3.25 -5.19,10.52 -6.79,21.24 -2.73,28.04 -5.97,36.91 -5.46,14.92 -0.73,17.22 0.45,28.84 1.68,16.42 5.41,26.77 12.16,40.11l10.57 18.92c9.43,12.23 10.83,13.02 21.83,22.11 0.21,0.17 0.51,0.42 0.72,0.6l1.43 1.24c0.2,0.18 0.5,0.45 0.7,0.63 3.73,3.36 4.09,4.89 8.56,7.45 3,1.71 7.67,3.64 10.89,5.25l24.27 9.45c19.08,3.59 -0.05,4.81 28.02,5.29 34.85,0.59 40.87,-0.05 68.63,-12.91l11.98 -5.44c3.98,-1.39 23.58,-18.3 26.3,-21.91l23.1 -34.05c4.11,-8.48 8.96,-22.13 9.86,-31.63 2.07,-21.74 6.26,-15.99 -0.06,-44.9 -7.65,-34.99 -0.61,-12.1 -11.05,-36.89 -7.2,-17.07 -32.97,-47 -39.37,-51.27l-20.45 -11.44c-5.29,-3.17 -13.35,-4.93 -19.7,-6.11 -13.44,-2.51 -2.35,-4.53 -27.95,-5.23 -10.57,-0.28 -22.79,-0.56 -32.28,0.95z"/>
   <path class="fil0" d="M1457.01 1659.64c-19.32,3.09 -13,-3.54 -51.65,9.84 -13.89,4.8 -28.52,11.84 -40.28,20.94l-6.84 4.13c-7.67,3.36 0.85,-3.11 -4.62,2.81l-13.15 13.69c-8.08,8.17 -15.91,15.32 -21.73,24.76l-6.87 7.84c-6.16,6.69 -17.48,32.06 -19.64,41.18 -1.07,4.52 -2.02,8.54 -3.14,13.08 -5.88,23.85 -8.02,27.13 2.29,48.83 2.8,5.89 9.26,12.2 15.15,15.15 7.37,3.69 17.26,5 26.71,4.47 9.37,-0.53 16.22,-4.58 21.84,-9.06 23.1,-18.43 11.43,-33.97 35.7,-70.69 3.69,-5.57 9.9,-11.41 15.06,-15.61 0.61,-0.5 1.59,-1.3 2.24,-1.77l21.77 -12.87c3.31,-1.96 -0.57,-0.52 4.92,-2.96 15.86,-7.06 34.64,-6.93 51.94,-4.95l10.98 3.43c5.88,2.33 7.04,0.28 13.47,4.01 0.26,0.16 0.59,0.37 0.85,0.52l16.27 11.54c2.98,2.61 5.14,3.79 8.22,6.43 11.88,10.15 11.76,17.08 18.47,28.38 1.05,1.78 1.19,1.04 2.59,3.88 0.86,1.76 1.24,3.59 2.24,5.87 4.2,9.58 8.3,28.67 5.61,39.46 -1.98,7.98 -3.3,18.2 -5.88,24.55 -5.93,14.62 -12.59,27.5 -24.33,38.54 -11.09,10.43 -23.98,17.82 -38.69,22.53 -8.25,2.65 -16.17,3.5 -24.1,6.71 -8.95,3.62 -24.03,21.77 -24.38,35.97 -0.5,19.71 9.63,38.21 28.67,46.44 13.67,5.91 51.6,-3.19 63.67,-10.73 6.52,-4.07 13.93,-6.72 20.33,-10.18l27.45 -19.04c13.6,-10.82 23.52,-21.69 33.7,-35.54 11.26,-15.32 22.39,-37.42 26.15,-55.98 1.18,-5.82 2.83,-6.59 3.8,-12.13 2.77,-15.8 7.43,-37.98 2.65,-55.28 -2.14,-7.78 -1.42,-19.68 -4.31,-26.1 -2.46,-5.48 -5.82,-17.35 -7.17,-23.6l-4.34 -10.16c-4.17,-8.33 -11.36,-22.71 -17.11,-29.4l-13.62 -16.94c-10.12,-11.73 -20.53,-20.01 -33.21,-29.39 -18.05,-13.35 -13.16,-12.23 -38.02,-21.63 -3.13,-1.19 -1.93,-0.6 -5.33,-1.42 -6.88,-1.65 -1.24,0.58 -5.79,-2.33 -6.65,-4.25 -4.79,-1.14 -12.54,-3.22 -6.25,-1.67 -1.77,-2.94 -10.82,-3.44 -14.76,-0.83 -31.11,-2.8 -45.18,-0.56z"/>
   <path class="fil0" d="M2759.82 1657.83c-6.2,3 -19.78,1.4 -28.35,2.65l-34.58 10.52c-5.34,2.01 -6.52,2.52 -10.42,5.28 -8.76,6.23 -20.87,9 -28.92,16.35l-19.4 15.24c-7.87,6.76 -28.3,33.85 -31.98,41.16 -2.01,4 -2.53,5.57 -4.99,9.67 -2.57,4.29 -3.8,6.11 -5.82,10.03l-16.37 58.81c-0.48,4.45 -0.35,11.19 -0.37,15.82 -0.08,15.01 1.12,26.79 4.49,40.53 1.37,5.59 3.04,5.94 4.04,11.67 3.1,17.73 13.01,39.02 23.64,53.63l3.04 3.46c1.84,1.85 2.35,2.06 3.88,4.05l15.43 16.62c0.2,0.18 0.5,0.43 0.7,0.62l3.71 4.14c1.02,1.18 0.47,0.63 1.92,2.14 15.21,15.88 17.46,12.05 26.96,19.66 11.71,9.39 20.34,13.28 34.59,18.64l18.15 4.73c16.36,2.92 25.34,11.03 48.85,-4.54 19.46,-12.89 22.28,-41.03 10.18,-58.78l-11.71 -12.4c-5.6,-5.42 -26.41,-8.56 -44.36,-16.6l-18.62 -12.09c-1.63,-1.42 -2.52,-2.23 -4.17,-3.79 -0.51,-0.47 -1.84,-1.74 -2.08,-1.98l-11.07 -14.3c-0.15,-0.22 -0.38,-0.55 -0.54,-0.77 -3.65,-5.01 -7.38,-7.85 -9.47,-14.24 -1.47,-4.46 -3.17,-7.68 -4.03,-10.56 -1.25,-4.26 -2.03,-9.7 -2.97,-13.05 -4.17,-14.77 -0.59,-43.13 7.89,-56.26 3.33,-5.16 4.89,-10.09 9.08,-14.86l9.85 -12.61c0.07,-0.07 4.07,-3.81 4.19,-3.91l18.49 -12.25c32.41,-17.53 65.56,-17.9 97.63,1.78 9.18,5.64 17.07,13.22 24.58,20.72 2.75,2.75 4.22,6.12 6.46,9.6 1.48,2.29 4.44,6.51 5.5,9.09l7.39 23.29c2.18,5.3 1.34,6.24 4.3,11.55 1.84,3.3 2.32,6.92 4.25,10.25 2.18,3.76 4.49,4.08 7.8,8.19 7.84,9.76 20.85,13.16 32.84,12.65 11.69,-0.49 23.2,-7.14 30.78,-15.75 3.43,-3.9 9.17,-16.09 9.86,-20.34 2.11,-12.92 -1.48,-17.7 -3.22,-26.9 -2.29,-12.13 -1.21,-14.69 -6.61,-23.86 -6.05,-10.3 -7.43,-21.27 -14.29,-30.99l-19.34 -27.25c-2.21,-2.68 -5.22,-4.22 -7.88,-6.64l-15.46 -15.13c-3.52,-3 -5.14,-3.83 -9.22,-6.73 -6.46,-4.58 -10.65,-8.35 -18.66,-11.96l-15.74 -7.07c-6.87,-3.05 -7.39,-5.15 -15.25,-6.85l-17.21 -5.46c-5.16,-2.16 0.38,-1.05 -5.72,-2.04 -8.46,-1.36 -18.19,0.78 -26.59,-1.74 -0.32,-0.1 -0.66,-0.25 -0.96,-0.35 -3.33,-1.12 -3.87,-1.98 -8.27,-1.91l-5.83 1.42z"/>
   <path class="fil0" d="M2764.36 2772.58l-17.15 3.45c-15.08,8.57 -25.39,19.96 -26.63,39.74 -0.4,6.4 1.37,12.67 3.28,17.87 1.64,4.43 1.74,3.43 3.79,6.84 5.45,9.12 7.77,13.02 18.48,16.25 3.81,1.15 5.11,0.48 8.88,1.86 4.69,1.71 2.19,2.53 9.32,2.71 12.73,0.33 30.58,-6.46 37.7,-19.71 0.15,-0.28 0.34,-0.61 0.48,-0.9 18.06,-34.82 -9.01,-68.17 -38.15,-68.11z"/>
   <path class="fil0" d="M1355.63 1905.65c-11.85,5.17 -16.14,9.45 -23.07,19.5 -4.56,6.6 -8.51,28.85 -2.13,39.39 0.15,0.24 0.38,0.56 0.53,0.8 9.36,15.1 10.93,19.11 29.83,24.41 3.93,1.1 0.22,0.3 3.97,1.4 7.18,2.1 12.75,-0.36 18.78,-1.89 4.61,-1.18 14.61,-7.36 18,-11.12 12.73,-14.09 12.95,-23.64 10.61,-44.37 -0.7,-6.24 -0.18,-3.81 -2.89,-8.19 -1.11,-1.76 -2.98,-4.65 -4.29,-6.37 -11.97,-15.68 -36.51,-19.17 -49.34,-13.56z"/>
   <path class="fil0" d="M1463.57 2774.27c-18.12,4.74 -23.18,8.67 -32.25,22.48 -4.04,6.16 -6.66,18.71 -4.45,27.51 5.4,21.52 0.4,8.19 6.78,17.26 0.04,0.05 8.36,13.25 24.06,17.36 6.44,1.69 11.36,4.15 19.26,0.94 9.8,-3.98 27.89,-4.22 35.07,-30.1 2.5,-9.03 3.51,-19.51 -0.8,-28.59 -6.35,-13.42 -9.47,-15.45 -20.95,-22.81 -4.9,-3.15 -17.96,-6.34 -26.72,-4.05z"/>
   <path class="fil0" d="M2849.38 1905.64c-10.9,4.24 -16.79,10.71 -23.47,19.22 -2.99,3.81 -6.95,20.05 -5.57,25.74 0.57,2.31 0.86,1.82 1.35,3.9 2.3,9.65 -1.71,6.2 8.45,19.85 10.54,14.15 15.87,12.01 27.26,15.57 7.48,2.34 10.76,-0.22 18.57,-1.52 9.56,-1.59 24.4,-15.62 28.74,-24.48 3.18,-6.47 3.26,-23.97 1.14,-30.76l-5.55 -10.34c-0.45,-0.78 -1.64,-2.88 -1.98,-3.42l-11 -10.09c-9.94,-6.93 -30.11,-6.72 -37.94,-3.67z"/>
  </g>
 </g>
</svg>
