<?xml version="1.0" encoding="UTF-8"?>
<!DOCTYPE svg PUBLIC "-//W3C//DTD SVG 1.1//EN" "http://www.w3.org/Graphics/SVG/1.1/DTD/svg11.dtd">
<!-- Creator: CorelDRAW 2020 (64 Bit) -->
<svg xmlns="http://www.w3.org/2000/svg" xml:space="preserve" width="42.3332mm" height="42.3332mm" version="1.1" style="shape-rendering:geometricPrecision; text-rendering:geometricPrecision; image-rendering:optimizeQuality; fill-rule:evenodd; clip-rule:evenodd"
viewBox="0 0 4233.32 4233.32"
 xmlns:xlink="http://www.w3.org/1999/xlink"
 xmlns:xodm="http://www.corel.com/coreldraw/odm/2003">
 <defs>
  <style type="text/css">
   <![CDATA[
    .fil0 {fill:black}
   ]]>
  </style>
 </defs>
 <g id="Camada_x0020_1">
  <metadata id="CorelCorpID_0Corel-Layer"/>
  <path class="fil0" d="M1807.32 2902.52l1.12 114.92c0.03,5.78 0.32,11.98 0.16,17.72l-2.64 19.12c-45.29,13.82 -161.59,-26.7 -183.92,40.7 -11.22,33.9 9.16,65.04 40.84,71.71 32.84,6.91 615.95,2.18 702.54,2.18 52.92,0 190.44,6.7 233.74,-1.71 62.8,-12.2 66.07,-111.93 -24.25,-111.23 -20.59,0.16 -103.88,3.72 -119.16,-2.23l-0.16 -151.43c77.88,-6.13 177.81,-0.78 257.1,-0.78 84.96,0 600,3.75 645.05,-0.62 16.89,-1.64 21.34,-1.68 36.67,-11.85 41.32,-27.4 26.79,-98.27 26.79,-166.23 0,-212.56 3.22,-1583.37 -1.62,-1608.99 -2.08,-10.96 -8.2,-23.66 -16.83,-31.69 -30.63,-28.53 -84.3,-18.34 -128.83,-18.34l-2195.82 0c-303.11,0 -265.76,-39.69 -265.76,248.92l0 1034.77c0,71.68 -7.59,478.84 3.22,512.37 11.93,37.03 49.54,41.85 83.61,41.71 99.31,-0.41 865.91,-3.62 908.15,0.98zm-759.37 -1693.58c-81.13,13.18 -62.1,88.41 -62.12,166.89l-0.06 1154.03c0.11,40.96 -5.28,58.87 18.73,84.2 23.09,24.34 60.99,18.72 98.15,18.72l1613.55 0c150.99,0 313.68,5.84 463.21,-0.06 21.24,-0.84 30.03,-3 43.5,-13.56 34.44,-27.02 23.62,-93.95 23.62,-148.93l0 -1154.03c0.05,-107.28 -20.71,-108.06 -123.44,-108.06 -93.92,0.01 -2048.3,-3.56 -2075.14,0.8z"/>
 </g>
</svg>
