<?xml version="1.0" encoding="UTF-8" standalone="no"?>
<!-- Creator: CorelDRAW 2020 (64 Bit) -->

<svg
   xml:space="preserve"
   width="91.44mm"
   height="91.44mm"
   version="1.1"
   style="shape-rendering:geometricPrecision; text-rendering:geometricPrecision; image-rendering:optimizeQuality; fill-rule:evenodd; clip-rule:evenodd"
   viewBox="0 0 9144 9144"
   id="svg25"
   sodipodi:docname="atendimento.svg"
   inkscape:version="1.1 (c68e22c387, 2021-05-23)"
   xmlns:inkscape="http://www.inkscape.org/namespaces/inkscape"
   xmlns:sodipodi="http://sodipodi.sourceforge.net/DTD/sodipodi-0.dtd"
   xmlns="http://www.w3.org/2000/svg"
   xmlns:svg="http://www.w3.org/2000/svg"><sodipodi:namedview
   id="namedview27"
   pagecolor="#ffffff"
   bordercolor="#666666"
   borderopacity="1.0"
   inkscape:pageshadow="2"
   inkscape:pageopacity="0.0"
   inkscape:pagecheckerboard="0"
   inkscape:document-units="mm"
   showgrid="false"
   inkscape:zoom="1.1621431"
   inkscape:cx="105.40871"
   inkscape:cy="177.68897"
   inkscape:window-width="1366"
   inkscape:window-height="705"
   inkscape:window-x="-8"
   inkscape:window-y="-8"
   inkscape:window-maximized="1"
   inkscape:current-layer="Camada_x0020_1" />
 <defs
   id="defs4">
  <style
   type="text/css"
   id="style2">
   <![CDATA[
    .fil0 {fill:#666666}
   ]]>
  </style>
 </defs>
 <g
   id="Camada_x0020_1"
   inkscape:label="Camada 1"
   inkscape:groupmode="layer">
  <metadata
   id="CorelCorpID_0Corel-Layer" />
  <g
   id="_2181920443136"
   transform="matrix(2.3175491,0,0,2.3175491,-6023.8365,-6023.8487)">
   <path
   class="fil0"
   d="m 2757.72,6443.12 h 166.8 c 1.17,-5.73 2.6,-7.25 4.05,-11.81 0.78,-2.46 0.9,-4.07 1.64,-6.23 0.65,-1.92 1.9,-4.18 2.62,-6.32 l 9.31,-24.12 c 2.07,-4.16 0.92,-6.89 3.65,-12.22 1.3,-2.51 1.32,-3.01 2.25,-5.51 l 11.67,-26.4 c 1.76,-2.71 0.26,0.65 1.59,-2.65 0.7,-1.71 0.73,-3.81 1.55,-6.3 2.45,-7.44 17.29,-33.28 18.64,-39.32 1.35,-5.93 8.02,-17.12 11.14,-22.82 1.25,-2.28 1.48,-3.21 2.49,-5.35 l 16.72,-31.58 c 4.56,-9.56 10.79,-18.31 15.95,-27.63 l 3.14,-4.61 c 1.47,-2.36 1.91,-3.32 3.37,-5.62 l 15.35,-24.99 c 0.14,-0.2 0.3,-0.47 0.44,-0.67 10.12,-14.28 15.07,-15.9 19.63,-24.73 l 19.25,-27.98 c 6.22,-8.46 14.84,-21.18 22.16,-28.23 l 3.95,-3.88 c 0.57,-0.54 1.17,-1.11 1.78,-1.64 l 27.21,-33.08 c 0.14,-0.18 0.34,-0.45 0.49,-0.63 4.5,-5.41 10.89,-10.08 14.47,-15.56 3.44,-5.27 8.61,-8.8 12.45,-13.45 l 17.28,-19.65 c 8.54,-8.33 19.46,-14.03 26.93,-23.51 l 4.6,-5.3 c 0.19,-0.15 0.44,-0.36 0.63,-0.5 0.18,-0.15 0.44,-0.36 0.62,-0.51 l 2.53,-2 c 3.34,-2.47 1.27,-0.66 4.28,-3.53 l 1.14,-1.1 c 0.24,-0.21 0.97,-0.83 1.2,-1.04 l 6.88,-5.44 c 1.83,-1.48 2.56,-2.37 4.71,-4.22 0.83,-0.72 0.98,-0.84 1.79,-1.59 l 15.16,-13.89 c 3.41,-2.96 5.11,-6.01 9.16,-7.4 l 88.9,-61.18 c 0.19,-0.14 0.47,-0.32 0.66,-0.46 l 3.99,-2.61 c 4.04,-1.9 2.51,-0.59 6.09,-3.01 6.58,-4.45 14.93,-7.92 22.18,-11.58 6.67,-3.37 2.54,-3.66 13.4,-4.19 2.46,-3.42 4.2,-3.79 7.8,-5.95 l 3.08,-2.39 c 2.5,-1.68 4,-1.73 6.92,-3.23 5.02,-2.59 1.17,-1.14 7.7,-2.73 3.38,-0.81 1.33,-0.2 3.08,-1.11 0.2,-0.11 0.45,-0.32 0.65,-0.43 0.22,-0.12 0.47,-0.33 0.68,-0.45 7.33,-4.09 14.72,-10.42 22.67,-11.34 8.55,-0.99 11.7,-7.87 20.23,-9.7 8.48,-1.81 12.86,-6.58 21.08,-9.02 l 10.29,-4.25 c 4.43,-1.31 8.58,-1.32 11.89,-3.52 0.58,-0.38 -0.23,-0.44 2.86,-1.65 l 20.28,-5.7 c 5.07,-1.37 2.81,-1.96 6.62,-3.25 3.34,-1.14 5.99,-0.42 9.18,-1.26 4.33,-1.15 2.11,-1.79 6.29,-3.45 l 15.17,-5.17 c 10,-1.83 18.7,-7.14 31,-9.43 6.23,-1.17 2.92,-1.24 6.77,-2.97 3.95,-1.76 4.53,-0.68 8.8,-1.66 4.52,-1.04 2.86,-2.03 6.48,-3.32 3.79,-1.35 6.23,-0.23 9.18,-1.12 4.01,-1.22 -2.92,2.89 2.37,-1.56 2.86,-2.42 -0.95,-0.75 3.23,-2.53 3.39,-1.44 5.73,-0.32 8.98,-1.39 3.31,-1.1 1.31,-2.18 6.29,-3.63 3.73,-1.08 4.42,-0.36 8.09,-1.94 3.52,-1.51 2.99,-1.71 7.22,-2.93 11.41,-3.26 16.55,-7.64 30.39,-9.96 5.42,-0.91 2.39,-1.32 6.55,-3.17 3.47,-1.55 4.76,-0.76 8.61,-1.76 4.22,-1.1 3,-1.78 6.34,-3.37 4.21,-2 6.97,-1.14 11.31,-3.29 2.28,-1.13 -1.1,-0.33 4.1,-1.68 11.64,-3.03 9.19,-3.51 14.99,-5.06 7.26,-1.94 19.38,-7.06 30.63,-9.74 5.3,-1.26 3.26,-1.58 6.67,-3.14 2.66,-1.22 5.53,-1.18 8.15,-2.04 5.17,-1.72 16.83,-7.68 21.46,-8.51 9.98,-1.77 6.75,-3.24 15.13,-4.96 9.54,-1.96 22.4,-9.18 31.86,-8.74 2.27,4.89 4.33,7.48 4.85,13.51 1.07,12.45 2.88,4.88 4.49,13.41 2.86,15.09 1.94,1.33 4.79,13.1 1.42,5.88 3.59,6.05 5.42,12.11 l 4.57,13.49 c 1.18,4.3 1.5,2.5 3.07,5.65 1.16,2.33 1.21,4.46 2.11,6.95 1.52,4.09 1.75,2.03 2.98,6.01 0.89,2.87 0.82,5.28 1.64,7.41 1.18,3.04 1.25,1.8 2.91,6.02 l 5.26,13.93 c 1.24,4.49 1.37,2.18 3.06,5.53 2.68,5.33 0.39,5.46 5.26,12.48 l 21.04,50.73 c 1.72,3.47 1.9,2.05 3.2,5.72 l 8.46,19.57 c 0.98,2.48 0.9,4.77 1.92,7.13 1.4,3.25 1.31,0.63 3.01,6.06 2.26,7.22 3.2,6.61 5.64,12.03 l 17.35,36.27 c 1.19,2.32 1.16,4.24 2.45,6.55 1.43,2.58 1.87,1.6 3.53,5.28 1.55,3.43 1.07,2.84 2.85,6.12 1.57,2.9 1.42,3.01 2.6,6.36 3.53,10.04 8.81,18.5 13.96,27.41 l 5.45,10.13 c 0.13,0.23 0.31,0.5 0.44,0.71 5.2,8.26 6.93,13.3 11.09,21.3 1.29,2.48 0.95,4 2.13,6.83 1.06,2.53 9.1,15.56 12.28,23.59 l 15.81,29.87 c 1.6,3.91 1.57,2.78 3.01,6.1 1.28,2.95 0.86,3.14 2.89,6.11 l 11.43,19.81 c 0.12,0.24 0.26,0.54 0.38,0.76 l 1.19,2.2 c 1.99,3.29 1.62,1.69 3.17,5.6 0.4,1.05 0.82,2.48 1.24,3.32 1.29,2.65 0.27,0.43 1.78,2.79 2.49,3.91 4.99,6.6 6.65,10.97 1.09,2.83 0.06,1.16 1.46,3.3 0.14,0.21 0.37,0.44 0.51,0.64 0.14,0.2 0.4,0.4 0.54,0.59 l 40.08,70.75 c 1.58,1.9 2.55,2.19 3.74,4.84 l 11.45,20.12 c 1.82,2.63 0.06,-0.41 1.74,2.62 0.67,1.21 0.94,2.12 1.56,3.06 0.13,0.23 0.32,0.5 0.47,0.71 5.69,7.94 8.54,17.51 15.55,24.75 l 17.06,27.54 c 0.14,0.2 0.35,0.47 0.49,0.66 l 4.62,7.62 c 0.5,0.79 1.51,1.92 1.96,2.56 2.06,2.84 1.33,2.88 3.54,5.48 4.14,4.92 1.13,-0.06 3.67,4.9 l 1.65,3.03 c 1.64,2.78 0.13,-0.42 1.55,2.8 l 5.22,9.53 c 0.14,0.22 0.29,0.52 0.43,0.73 2.01,3.06 2.83,2.45 4.68,7.33 3.52,9.29 10.53,15.38 14.1,21.94 l 27.55,39.45 c 0.12,0.24 0.26,0.54 0.38,0.76 l 16.24,23.91 h 196.25 c -0.28,-7.21 -6.49,-13.03 -11.08,-18.16 -3.81,-4.23 -2.19,-5.23 -5.31,-9.22 l -9.71,-12.73 c -4.19,-7.82 -7,-10.36 -11.83,-17.25 l -12.19,-14.65 c -0.16,-0.18 -0.36,-0.44 -0.52,-0.61 -0.17,-0.18 -0.38,-0.43 -0.54,-0.61 -5.95,-6.54 -10.35,-14.94 -15.44,-22.44 -0.77,-1.12 -2.37,-3.33 -3.28,-4.56 -0.15,-0.19 -0.35,-0.46 -0.5,-0.65 -0.15,-0.2 -0.35,-0.44 -0.5,-0.64 -0.15,-0.18 -0.38,-0.42 -0.53,-0.6 -5.24,-6.4 -15.53,-26.4 -18.63,-29.41 -1.38,-1.34 -0.12,0.34 -1.71,-1.65 -1.78,-2.23 -0.16,-0.23 -1.7,-2.85 l -2.63,-4.19 c -0.12,-0.22 -0.27,-0.51 -0.4,-0.73 -1.33,-2.35 -1.06,-2.02 -2.54,-4.09 l -11.81,-17.2 c -0.7,-0.96 -2.82,-3.89 -3.28,-4.61 l -34.5,-55.15 c -2.63,-4.8 -5.99,-6.97 -8.44,-12.83 -1.05,-2.51 -0.73,-3 -2.4,-5.27 l -6.47,-9.35 c -0.8,-1.72 -1.19,-3.2 -2.06,-4.58 l -1.94,-2.46 c -3.81,-5.37 -7.4,-10.06 -9.88,-16.11 -2.47,-6.06 -2.4,-4.14 -6.04,-9.27 -3.19,-4.49 -2.45,-7.47 0.91,-11.39 1.9,-2.23 2.8,-2.59 4.41,-4.53 8.3,-9.94 16.65,-19.96 26.11,-28.74 l 20.93,-21.62 c 0.18,-0.15 0.45,-0.34 0.63,-0.49 0.16,-0.13 1.08,-0.79 1.27,-0.95 1.8,-1.49 0.03,0.24 2.28,-2.15 l 16.49,-15.99 c 2.14,-2.26 1.18,-2.51 3.27,-5.59 2.51,-3.72 6.25,-6.2 9.39,-9.67 1.62,-1.8 2.6,-2.9 4.39,-4.61 5.44,-5.2 15.49,-15.49 19.58,-21.85 0.33,-0.49 1.67,-2.66 1.77,-2.78 1.18,-1.56 0.81,-1.03 2.12,-2.14 l 2.5,-2 c 0.06,-0.05 2.2,-2.18 2.26,-2.26 l 29.05,-31.36 c 2.86,-2.94 6.58,-5.54 9.25,-8.67 l 8.91,-8.95 c 2.99,-2.36 6.13,-6.83 9.11,-9.93 l 22.45,-23.41 c 1.43,-1.4 3.11,-2.89 4.79,-4.3 l 75.21,-81.25 c 6.88,-6.65 6.79,-7.38 14.67,-0.53 l 7.25,7.07 c 0.6,0.72 0.52,0.82 1.44,1.94 l 20.93,20.57 c 1.29,1.47 1.49,2.28 3.48,4.38 1.63,1.72 2.43,2.21 4.09,3.76 2.22,2.06 1.21,1.17 3.21,3.43 l 24.02,22.99 c 0.17,0.16 0.4,0.41 0.57,0.57 l 9.65,10.45 c 2.54,2.9 5.2,5.39 7.99,7.79 l 20.04,20.14 c 0.74,0.79 1.27,1.24 2.2,2.25 1.68,1.81 1.51,2.17 4.02,3.99 2.36,1.71 0.12,1.66 5.52,2.17 0.58,5.08 0.98,4.77 3.66,7.52 1.64,1.68 4.37,4 6.01,5.31 l 9.32,9.55 c 0.17,0.16 0.4,0.4 0.57,0.57 l 8.58,8.21 c 0.17,0.17 0.4,0.42 0.57,0.58 l 4.1,3.64 c 0.17,0.17 0.39,0.41 0.56,0.57 l 13.05,13.79 c 0.23,0.23 0.9,0.9 1.11,1.14 l 3.91,5.07 c 4.94,6.38 19.51,20.04 26.04,26.48 l 9.39,9.76 c 0.95,1.14 0.68,0.96 1.49,1.83 l 45.65,44.96 c 2.16,2.39 3.51,3.44 5.6,5.52 l 36.9,36.98 c 4.42,5.6 2.5,7.33 -0.99,14.22 -2.74,5.42 -11.17,22.07 -15.65,26.75 -2,-2.57 2.27,-0.82 0,-3.47 -2.72,3.2 -3.93,8.4 -6.22,12 l -10.51,16.34 c -0.14,0.21 -0.31,0.49 -0.45,0.68 l -6.59,9.13 c -3.2,3.84 1.71,-4.98 -1.21,1.86 -2.43,5.7 0.06,3.76 -4.49,9.22 l -2.63,2.94 c -0.15,0.17 -0.38,0.41 -0.53,0.58 l -35.05,54.47 c -4.83,6.43 -8.05,15.06 -14.12,24.01 -0.18,0.27 -0.74,0.96 -0.94,1.23 l -6.18,9.47 c -0.15,0.19 -0.35,0.46 -0.5,0.66 l -8.88,12.21 c -7.34,8.03 -9.85,16.08 -15.98,23.3 -2.05,2.42 -0.74,-0.1 -3.19,3.56 l -4.01,5.97 c -1.62,1.98 -0.28,0.29 -1.48,1.89 -1.04,1.38 -2.13,2.91 -2.83,3.98 l -8.57,12.6 c -0.15,0.19 -0.4,0.4 -0.55,0.58 l -7.46,10.46 c -6.22,7.31 -27.21,34.78 -27.48,39.41 h 197.72 l 15.62,-24.9 c 3.61,-6.26 9.07,-10.74 12.92,-17.07 l 28.6,-44.44 c 2.21,-5.22 0.52,-3.16 3.86,-6.96 l 32.51,-51.38 c 6.06,-5.87 9.95,-15.31 14.26,-21.71 l 13.55,-22.2 c 3.66,-4.33 5.96,-10.5 9.25,-15.4 l 6.36,-10.45 c 1.09,-2.06 0.91,-2.85 1.95,-4.86 l 6.77,-11.27 c 0.98,-2.54 0.79,-3.84 0.92,-6.52 6.66,-2.31 2.78,-2.76 9.75,-12.88 l 7.28,-10.52 c 1.5,-2.19 1.13,-2.06 2.39,-4.39 l 13.03,-22.84 c 2.2,-5.95 6.05,-10.78 8.89,-16.81 l 17.58,-34.76 c 0.15,-0.18 0.39,-0.41 0.53,-0.59 0.15,-0.21 0.38,-0.45 0.52,-0.67 l 13.21,-23.79 c 3.52,-6.31 -0.9,-1.32 5.28,-9.05 l 20.4,-40.27 c 2.32,-5.54 2.57,-1.55 4.88,-7.1 0.79,-1.91 0.56,-2.08 1.54,-4.17 l 6.01,-11.97 c 1.85,-4.14 0.71,-4.91 3.26,-9.1 l 12,-23.91 c 1.72,-7.16 7.42,-17.96 11.17,-24.51 l 11.7,-25.42 c 1.62,-4.74 2.33,-3.36 4.03,-6.9 2.06,-4.27 0.76,-4.2 3.56,-8.74 3.85,-6.24 5.18,-16.86 9.41,-22.96 l 2.8,-6.35 c 1.29,-3.1 1.13,-1.83 2.45,-4.12 2.24,-3.85 1.54,-6.01 3.69,-9.77 l 10.73,-23.95 c 2.48,-5.77 3.96,-10.99 7.63,-16.9 2.54,-4.09 1.69,-2.56 3.42,-7.63 l 6.69,-14.7 c 2.57,-3.95 1.65,-6.71 4.55,-11.11 3.41,-5.18 1.4,0.2 2.75,-8.07 1.18,-7.22 2.5,-3.81 3.97,-8.42 0.59,-1.81 0.37,-3.08 0.78,-4.93 1.15,-5.28 11.37,-25.61 12.56,-29.94 0.39,-1.4 0.73,-3.82 1.07,-4.74 1.94,-5.36 -0.41,-0.07 2.75,-3.98 3.17,-3.93 1.33,-3.97 2.59,-9.37 1.11,-4.75 2.48,-3.66 3.71,-8.61 0.47,-1.91 0.39,-3.2 0.77,-4.95 1.13,-5.13 0.35,-1.54 2.08,-4.77 l 1.54,-3.98 c 1.17,-4.4 3.6,-6.86 5.65,-11.23 l 0.94,-1.93 c 8.68,0.04 5.57,1.39 9.69,3.02 2.44,0.95 8.56,1.72 15.71,4.51 l 9.22,4.23 c 1.92,1.19 1.97,1.1 4.69,1.53 8.12,1.29 4.82,1.37 10.15,3.54 3.1,1.27 7.3,1.12 11,2.5 4.14,1.55 3.7,2.04 9.93,3.41 6.24,1.38 5.12,2.72 9.37,4.04 l 22.06,4.49 c 8.07,0.65 5.25,1.81 9.47,3.58 5.02,2.12 5.33,-0.36 10.52,2.91 5.97,3.77 31.78,10.98 39.81,13.9 l 8.78,3.47 c 4.07,1.57 4.98,3.07 9.74,3.73 5.67,0.78 6.28,0.66 10.66,2.73 l 19.93,6.99 c 7.13,1.66 3.89,1.59 9.19,4.01 1.81,0.83 3.03,0.97 4.92,1.73 3.56,1.45 2.22,1.21 4.3,2.38 4.68,2.63 5.74,0.97 10.93,2.45 9.26,2.67 -3.72,0.21 12.62,4.23 3.9,0.96 2.92,2.17 6.49,3.43 4.75,1.68 5.86,0.03 11.01,2.63 4.43,2.24 10.52,2.27 15.44,4.75 7.84,3.95 8.99,2.64 14.42,5.66 5,2.79 8.57,1.25 12.84,4.05 l 6.94,2.7 c 4.34,0.66 6,1.09 9.91,2.74 3.93,1.64 6.47,1.6 10.2,3.15 5.72,2.36 1.31,1.93 10.03,3.37 7.04,1.16 13.23,4.32 19.34,7.52 l 19.46,7.39 c 5.12,2.35 2.59,1.97 9.41,3.93 5.98,1.71 2.86,2.48 8.94,4.47 l 56.19,24.57 c 6.39,5.12 19.19,8.55 25.24,13.96 5.93,5.3 16.49,9.1 22.77,14.14 l 38.96,24.75 c 7.47,6.03 21.76,12.81 27.78,19.13 4.19,4.4 11.14,7.75 16.07,11 0.87,0.57 1.28,0.94 1.91,1.42 l 14.01,10.72 c 0.22,0.13 0.53,0.26 0.74,0.39 l 41.77,36.43 c 4.89,3.63 8.48,11.92 19.65,19.41 3.07,2.07 4.51,3.61 6.99,6.41 2.78,3.13 4.2,3.71 7.11,6.34 11.06,9.93 19.84,21.97 30.77,31.92 l 16.39,19.39 c 0.16,0.18 0.36,0.43 0.51,0.63 4,4.74 8.04,11.34 12.36,15.48 l 21.67,24.25 c 1.47,2.1 1.8,2.13 2.98,3.76 l 7.9,12.22 c 2.2,2.48 4.43,4.68 6.36,7.07 l 11.13,15.77 c 0.21,0.32 1.38,1.89 1.45,1.97 l 25.36,37.46 c 1.08,2.22 3.74,4.86 5.64,7.54 l 10.15,16.64 c 2.47,2.99 3.05,4.85 5.19,8.3 2.15,3.45 0.45,0.51 2.18,4.76 1.39,3.39 0.59,1.33 2.43,4.02 l 13.23,20.21 c 2.49,4.89 5.3,7.55 7.32,12.78 0.79,2.03 0.85,3.22 1.74,5.1 l 16.74,30.25 c 1.91,4.7 2.01,4.41 4.03,8.25 l 8.25,18.6 c 1.08,2.04 1.02,1.32 2.23,4.49 0.92,2.36 0.76,2.62 1.89,4.83 0.27,0.52 1.91,3.32 2.5,4.22 l 2.07,2.64 c 4.83,4.84 1.85,4.27 4.59,10.66 l 7.74,19.01 c 1.91,7.19 4.78,12.27 8.32,18.61 2.17,3.86 1.11,6.01 3.31,10.21 1.69,3.25 0.91,-0.13 2.28,4.17 0.8,2.54 0.46,3.39 1.11,5.67 1.47,5 2.75,2.57 3.92,9.32 1.63,9.52 1.16,4.2 3.74,9.87 1.66,3.66 0.7,6.84 2.77,10.79 2.84,5.4 0.69,-0.65 2.39,4.14 1,2.8 -0.35,1.84 1.42,5.12 h 165.31 c 0.26,-5.42 -4.88,-23.56 -6.75,-28.29 l -9.82,-33.09 c -1.41,-6.82 -4,-10.79 -6.28,-18.01 l -12.79,-29.41 c -0.73,-1.83 -0.49,-1.76 -1.03,-3.36 l -0.59,-1.74 c -0.12,-0.26 -0.25,-0.54 -0.37,-0.8 -2.64,-5.83 -2.3,-8.51 -4.42,-13.56 -1.44,-3.48 -1.64,-1.24 -3.08,-5.72 -0.82,-2.53 -0.61,-3.94 -1.49,-6.48 l -9.78,-20.63 c -0.03,-0.04 -1.28,-1.37 -1.54,-1.71 -1.98,-2.64 -1.41,-2.97 -2.23,-6.25 -1.3,-5.23 -0.74,-2.4 -2.31,-5.91 l -17.49,-38.46 c -3.62,-6.11 -5.3,-13.99 -9.05,-20.21 -1.68,-2.77 -1.51,-2.83 -3.02,-5.97 l -5.85,-10.84 c -1.43,-2.28 -1.55,-1.32 -3.31,-4.38 -0.79,-1.38 -0.71,-1.59 -1.5,-3.02 -2.64,-4.78 -5.9,-8.77 -7.43,-14.04 l -5.31,-11.56 c -4.15,-8.56 -10.81,-18.13 -16.49,-25.75 l -25.39,-41.86 c -1.36,-2.84 -0.02,-0.44 -1.61,-2.81 l -5.61,-6.59 c -1.47,-1.76 -0.34,-0.24 -1.75,-2.77 l -19.41,-27.56 c -1.87,-2.84 -2.08,-2.63 -3.9,-5.01 l -37.39,-51.08 c -1.13,-1.42 0.08,-0.03 -1.52,-1.78 -2.29,-2.5 -1.98,-1.77 -4.13,-4.9 -1.75,-2.55 -3.08,-5.75 -5.52,-7.68 l -16.12,-17.68 c -1.36,-1.83 -0.38,-0.69 -1.93,-2.47 -0.65,-0.75 -1.51,-1.56 -2.15,-2.32 -0.63,-0.73 -0.9,-1.16 -1.5,-1.91 l -21.22,-23.32 c -0.18,-0.15 -0.46,-0.34 -0.64,-0.49 l -57.5,-57.88 c -1.37,-1.51 -2.56,-2.35 -4.11,-3.63 l -17.99,-15.58 c -6.66,-4.76 -11.99,-10.63 -18.54,-15.07 l -52.6,-44.66 c -1.57,-1.19 -0.06,-0.09 -2.04,-1.15 -0.23,-0.12 -0.55,-0.23 -0.78,-0.35 l -9.77,-7.13 c -1.19,-0.88 -1.34,-0.97 -2.59,-1.86 l -7.44,-4.88 c -3.84,-2.16 -2.81,-2.28 -5.09,-3.86 l -40.65,-26.61 c -17.26,-8.73 -33.34,-20.92 -50.55,-29.96 -2.9,-1.51 -7.31,-5.15 -13.37,-7.83 l -43.75,-23.35 c -2.76,-1.55 -3.64,-1.27 -6.45,-2.47 -3.49,-1.48 -1.97,-1.44 -5.99,-2.96 l -11.83,-4.98 c -10.33,-2.68 -22.43,-11.06 -35.37,-14.95 -3.53,-1.07 -2.28,-1.01 -5.7,-2.28 l -25.12,-8.47 c -3.92,-2.14 -2.64,-0.91 -6.94,-2.2 -3.97,-1.19 -1.22,-0.94 -5.68,-3.05 -3.78,-1.79 -8.1,-2.36 -12.39,-4.41 -7,-3.37 -21.96,-6.26 -25.85,-7.83 -2.98,-1.19 -2.51,-1.64 -5.75,-3.02 l -6.8,-3.15 c -3.97,-2.16 -7.65,-1.7 -11.78,-2.83 -7.66,-2.09 -13.87,-6.68 -25.03,-8.54 -7.61,-1.27 -19.83,-7.84 -25.75,-8.94 -9.85,-1.81 -6.64,-2.72 -12.54,-4.26 -3.33,-0.88 -4.28,-0.16 -7.59,-1.47 -1.62,-0.64 -3.02,-1.89 -5.12,-2.61 -7.41,-2.59 -5.65,0.55 -12.75,-3.99 -1.27,-0.81 -0.03,-0.39 -2.88,-1.54 l -34.72,-11.17 c -13.72,-6.13 -6.03,-1.95 -13.38,-4.47 -5.61,-1.93 -0.31,-1.22 -5.66,-3.15 l -19.49,-5.25 c -9.7,-1.48 -19.89,-6.95 -25.53,-8.3 l -12.31,-4.31 c -1.28,-0.5 -16.79,-3.85 -25.4,-8.2 l -33.17,-10.66 c -2.55,-0.65 -4.74,-0.37 -6.91,-1.05 -5.85,-1.88 -0.57,-3.11 -12.9,-4.18 -5.14,-0.44 -7.1,-3.7 -12.1,-4.54 -3.45,-0.59 -3.56,-0.1 -6.48,-2.04 -4.4,-2.92 -8.06,-2.71 -11.67,-5.05 -3.93,-2.56 -7.52,-2.87 -11.76,-4.88 -3.43,-1.64 -8.88,-2.5 -11.63,-5.24 -3.07,-3.06 -1.6,-1.13 -3,-5.25 -1.27,-3.74 -0.59,-2.82 -2.62,-6 l -5.83,-11.13 c -1.06,-2.14 -1.25,-3.97 -2.21,-5.52 -2.66,-4.27 -1.04,1.11 -3.73,-5.25 l -8.2,-16.16 c -2.4,-3.56 -0.96,-3.16 -2.58,-6.59 -0.51,-1.05 -1.43,-2.22 -1.71,-2.8 -0.92,-1.89 -0.37,-0.71 -0.99,-2.62 l -8.56,-17.08 c -1,-2.64 -0.75,-4.82 -0.84,-7.7 -8.53,-1.64 -2.47,0.78 -5.32,-3.78 -2.55,-4.07 -3.38,-8.68 -5.51,-12.5 l -48.18,-94.85 c -3.03,-4.57 -6.59,-15.06 -8.69,-18.17 L 5157,5274.7 c -1.43,-3.46 -1.79,-3.72 -2.86,-6.25 l -14.46,-30.14 c 2.52,-1.88 1.9,-0.83 3.86,-2.94 0.21,-0.23 0.76,-0.96 0.97,-1.22 l 26.6,-30.53 c 2.14,-2.33 3.7,-3.66 5.85,-6.4 7.53,-9.56 13.48,-14.48 18.95,-21.33 l 11.06,-13.52 c 2.14,-2.75 2.45,-4.35 4.78,-7.55 l 20.48,-31.15 c 1.01,-1.64 -0.07,0.01 1.35,-1.93 0.19,-0.26 0.8,-0.98 1,-1.25 l 6.29,-8.14 c 5.48,-7 7.89,-14.59 13.22,-21.49 l 6.49,-10.43 c 1.44,-2.32 0.97,-0.9 2.36,-3.12 l 9.72,-15.97 c 1.42,-2 4.16,-7.16 4.75,-8.99 3.03,-9.29 9.79,-15.64 13.4,-24.63 l 15.06,-30.89 c 1.06,-4.14 2.18,-4.27 3.92,-8.21 0.95,-2.11 0.99,-3.61 1.65,-5.18 l 23.1,-51.64 c 2.48,-5.62 3.58,-2.64 4.93,-10.16 1.09,-6.05 2.76,-5.96 4.56,-12.32 l 1,-2.71 c 4.69,-8.55 2.28,1.06 4.31,-14.04 1.15,-8.64 1.67,-1.76 3.69,-8.88 1.01,-3.57 0.45,-7.55 2.06,-11.64 2.19,-5.6 3.04,-14.19 5.54,-20.31 l 7.58,-30.31 c 1.1,-4.03 2.99,-5.61 3.56,-9.57 0.58,-3.94 0,-7.66 1,-11.68 1.11,-4.48 2.29,-4.76 2.83,-10.49 1.12,-11.48 4.64,-25.99 4.92,-33.54 0.15,-4.08 0.41,-8.58 1.28,-12.08 1.34,-5.32 2.37,-2.36 2.99,-9.13 0.79,-8.63 1.68,-14.68 3.4,-22.32 1.46,-6.51 0.48,-16.65 2.42,-23.56 1.89,-6.76 2.85,-14.04 4.61,-20.94 25.24,-4.13 149.27,3.91 177.51,-3.69 5.04,-1.36 4.53,-1.48 11.17,-1.73 9.87,-0.36 4.23,-1.94 22.35,-3.99 l 20.32,-6.45 c 4.3,-1.85 -0.34,-0.66 4.52,-2.2 1.73,-0.54 2.68,-0.43 4.62,-1.06 4.8,-1.55 3.16,-2.46 8.29,-4.91 14.03,-6.68 9.29,-6 16.01,-9.63 0.49,-0.26 1.37,-0.65 2.23,-1.13 1.19,-0.68 1.69,-1.07 2.07,-1.3 l 7.83,-4.5 c 2.94,-1.83 1.31,-0.6 4.42,-2.17 5.01,-2.53 0.72,-0.25 4.07,-2.88 l 19.22,-15.48 c 0.18,-0.17 0.42,-0.39 0.59,-0.58 7.39,-7.97 7.17,-5.01 11.27,-10.08 l 4.59,-5.42 c 3.34,-3.88 -1.38,0.94 1.56,-1.71 8.76,-7.93 13,-16.49 19.47,-22.98 l 4.58,-5.7 c 0.14,-0.22 0.34,-0.49 0.47,-0.7 l 4.47,-6.51 c 1.12,-1.56 0.34,-0.4 1.31,-2.18 3.11,-5.7 3.17,-4.01 5.55,-11.56 0.98,-3.11 0.13,-0.65 1.98,-3.08 0.14,-0.18 0.4,-0.41 0.54,-0.61 l 8.57,-16.13 c 3.6,-5.12 1.72,-3.9 4.04,-9.41 5.96,-14.13 0.94,-8.27 6.52,-19.18 2.29,-4.48 0.73,-5.92 1.79,-10.88 0.69,-3.24 2.64,-4.95 3.69,-9.46 7.55,-32.31 4.69,-103.95 4.67,-137.52 V 3919.4 c -0.04,-16.37 0.38,-33.75 -1.48,-50.1 -2.16,-18.98 -0.45,-46.19 -4.67,-60.04 -4.55,-14.85 0.78,-33.29 -5.74,-46.91 -3.69,-7.69 0.59,-23.45 -4.07,-34.02 -2.64,-6.01 -1.1,-15.68 -3.51,-22.19 -3.58,-9.72 -3.19,-10.69 -3.62,-21.71 -0.45,-11.41 -4.03,-9.97 -4.54,-21.2 -0.31,-6.71 -0.93,-6.08 -2.63,-11.13 -1.11,-3.3 -1.4,-7.45 -1.77,-10.44 -1.35,-11.17 -3.6,-6.58 -4.73,-20.99 -0.57,-7.17 -1.81,-5.5 -3.55,-9.99 -1.25,-3.25 -1.11,-7.43 -1.72,-10.45 -1.23,-6.19 -2.01,-4.27 -3.18,-10.4 -3.8,-19.9 -2.24,-3.68 -5.52,-20.22 -0.96,-4.85 -2.21,-5.27 -3.38,-8.91 -1.28,-3.98 -0.85,-7.27 -2.43,-11.11 l -3.38,-8.89 c -2.53,-8.37 -3.03,-1.18 -4.55,-8.51 l -4.13,-15.31 c -1.99,-6.23 -4.73,-3.93 -5.8,-12.58 -1.28,-10.29 -1.36,-1.89 -4.02,-9.72 -2.36,-6.96 1.21,-3.41 -4.72,-6.99 -0.19,-4.91 0.08,-8.26 -2.64,-11.81 -0.15,-0.19 -0.4,-0.42 -0.55,-0.59 -4.02,-4.86 -1.51,-8.56 -4.9,-14.03 -3.03,-4.92 -0.72,-1.53 -2.53,-7.09 -0.82,-2.5 -0.95,-2.18 -1.14,-2.55 l -5.56,-13.45 c -1.73,-3.31 -1.04,-5.22 -2.57,-8.67 -1.87,-4.22 -1.79,-1.1 -3.21,-6.82 -1.44,-5.8 -4.65,-10.69 -7.62,-14.86 l -20.76,-43.99 c -2.76,-6.29 -2.77,-3.05 -5.55,-11.19 l -17.99,-31.16 c -4.18,-8.89 -6.3,-9.31 -8.3,-12.99 -2.03,-3.75 -0.61,-3.59 -3.49,-7.85 -0.53,-0.8 -1.6,-2.39 -2.25,-3.32 -2.24,-3.12 -3.58,-2.85 -4.91,-5.96 -2.6,-6.07 -7.42,-11.2 -10.47,-16.61 l -4.94,-8.73 c -0.15,-0.19 -0.41,-0.41 -0.56,-0.59 l -10.15,-18.86 c -0.2,-0.24 -1.51,-1.73 -1.63,-1.85 -0.17,-0.17 -0.42,-0.4 -0.59,-0.57 -3.26,-3.11 -4.86,-6.53 -7.32,-10.3 -1.68,-2.6 -2.15,-3.66 -3.97,-6.12 l -5.19,-5.94 c -3.74,-5.85 2.61,-1.26 -10.75,-18.46 l -36.86,-48.26 c -0.15,-0.17 -0.37,-0.42 -0.53,-0.58 -6.12,-6.28 -11.1,-14.55 -17.32,-20.64 -8.88,-8.73 -16.81,-19.37 -25.1,-28.61 l -7.84,-8.95 c -0.96,-1.02 -0.95,-0.92 -1.84,-1.62 -0.18,-0.15 -0.47,-0.32 -0.65,-0.47 -0.19,-0.14 -0.48,-0.32 -0.67,-0.46 -2.58,-1.95 -3.05,-3.22 -4.92,-6.08 l -31.75,-33.18 c -2.36,-2.13 -3.46,-3.85 -5.27,-6.03 l -75.21,-69.02 c -0.17,-0.17 -0.41,-0.41 -0.57,-0.58 -0.16,-0.16 -0.39,-0.42 -0.55,-0.58 -4.17,-4.19 -9.45,-4.28 -16.57,-11.38 l -24.51,-20.13 c -0.19,-0.15 -0.45,-0.36 -0.63,-0.53 -3.48,-2.89 -6.2,-6.56 -10.42,-8.17 -5.84,-2.23 -10.45,-6.84 -15.56,-10.53 l -4.94,-4.17 c -3.64,-3.46 -7.9,-4.55 -12.17,-7.84 -1.25,-0.97 -0.49,-0.29 -1.85,-1.57 -2.38,-2.24 -0.59,-1.7 -4.2,-3.38 l -13.32,-8.1 c -2.55,-1.7 -4.34,-2.41 -6.94,-4.25 -0.19,-0.14 -2.96,-2.14 -3.27,-2.41 -5.2,-4.43 4.78,4.38 -1.17,-1.1 -0.16,-0.15 -0.36,-0.41 -0.54,-0.56 l -1.08,-1.02 c -3.07,-2.11 -6.81,-2.29 -10.88,-4.93 -0.2,-0.14 -0.48,-0.31 -0.68,-0.43 -1.07,-0.68 -1.48,-0.88 -2.76,-1.71 -2.36,-1.56 -4.59,-2.81 -6.67,-4.51 -4.56,-3.71 -0.88,-1.31 -7.01,-4.09 -2.09,-0.94 -1.59,-0.84 -3.49,-2.14 l -8.93,-6.51 c -9.42,-4.29 -19.8,-9.22 -28.24,-15.67 -4.67,-3.58 -1.93,-1.35 -7.14,-3.88 l -14.12,-8.27 c -6.32,-3.86 -9.48,-3.77 -14.89,-6.46 l -28.5,-15.06 c -3.78,-2.23 -4.62,-1.25 -8.35,-2.88 l -13.84,-7.33 c -4.7,-2.35 -11.13,-3.86 -15.98,-6.5 -4.86,-2.65 -1.01,-2.28 -8.16,-3.24 -8.76,-1.18 -17.79,-7.04 -22.64,-8.72 -4.76,-1.66 -4.61,0.07 -8.62,-2.44 l -14.01,-7.21 c -2.95,-1.29 -5.06,-0.99 -8.62,-2.67 l -14.79,-6.41 c -4.91,-1.54 -4.28,-0.7 -8.51,-2.63 -7.17,-3.26 -17.47,-6.82 -24.61,-7.94 -9.1,-1.42 -16.67,-5.85 -25.49,-8.1 -2.71,-0.7 -5.32,-0.84 -8.42,-1.66 -5.26,-1.37 -3.29,-1.86 -7.87,-3.18 -3.65,-1.06 -6.27,-0.9 -9.6,-1.69 -4.84,-1.16 -2.92,-1.68 -8.33,-2.93 -3.47,-0.79 -6.13,-0.35 -9.53,-0.87 -6.17,-0.92 1.15,-1.75 -17.26,-4.91 -6.85,-1.17 -9.43,-3.59 -16.62,-4.48 -4.72,-0.58 -5.94,-0.1 -9.58,-1.59 -10.74,-4.35 -23.62,-6.32 -34.97,-8.3 -5.12,-0.89 -3.8,-0.96 -8.54,-2.65 -6.43,-2.29 -11.94,-0.95 -18.25,-2.98 -10.08,-3.26 -26.95,-2.81 -38.18,-5.5 -13.81,-3.3 -30.23,-0.55 -44,-5.22 -11.62,-3.92 -41.07,-1.2 -56.1,-4.17 -19.6,-3.87 -83.46,-1.64 -106.76,-1.53 -15.47,0.08 -24.15,3.26 -40.27,3.44 -21.78,0.23 -39.52,4.53 -61.56,4.62 -11.74,0.05 -8.83,1.32 -17.22,3.47 -6.74,1.73 -14.65,0.37 -21.6,1.25 -4.9,0.61 -11.36,3.33 -16.43,4.4 l -36.51,6.95 c -6.45,1.6 -11.21,2.72 -18.16,4.08 -13.94,2.76 -49.29,10 -60.35,15.67 -5.33,2.72 -12.92,1.55 -18.19,4.27 -7.55,3.89 -8.55,2.03 -15.67,5.47 -4.7,2.27 -9.2,1.09 -17.76,4.7 -5.91,2.51 -6.22,0.56 -15.88,5.33 -3.82,1.89 -4.78,0.87 -8.98,2.19 -3.97,1.26 -3.26,2.26 -7.6,3.48 l -24.22,8.39 c -3.99,1.78 -7.48,1.39 -11.19,3.45 l -4.9,1.95 c -7.72,2.29 -12.09,5.97 -19.35,8.54 -6.13,2.17 -14.2,4.15 -19.16,7.61 -2.59,1.8 0.4,0.41 -3.24,2.27 l -26.32,11.78 c -2.66,1.46 -5.05,2.26 -7.49,3.66 l -37.75,17.32 c -5.51,1.97 -8.78,4.94 -13.43,7.67 -2.91,1.71 -4.32,1.74 -7.45,3.72 l -47.8,28.24 c -2.39,1.75 -3.57,2.77 -6.47,4.6 -2.58,1.62 -5.33,2.53 -7.23,4.17 -5.11,4.44 1.98,0.39 -5.76,3.98 l -16.11,10.98 c -6.11,5.08 -5.86,-0.8 -7.93,6.79 -8.79,0.81 -4.93,0.05 -9.44,3.77 -4.48,3.71 -10.17,5.12 -14.49,8.99 l -2.41,2.11 c -0.18,0.15 -0.44,0.35 -0.61,0.5 l -18.51,13.74 c -1.07,0.61 -1.15,0.63 -2.16,1.3 -1.54,1.01 -1.03,0.89 -3.34,2.27 l -13.19,10.45 c -0.16,0.16 -0.38,0.43 -0.54,0.59 l -54.77,42.45 c -5.06,4.31 -11.57,8.41 -15.76,13.36 -4.22,4.99 -12.51,14.19 -17.87,17.69 l -6.02,5.4 c -1.65,1.65 -4.61,5.34 -5.85,6.38 -3.17,2.66 -2.81,1 -6.51,4.75 l -12.22,11.26 c -7.78,8.97 -17.19,16.55 -24.92,25.43 l -6.05,6.23 c -0.17,0.15 -0.42,0.37 -0.59,0.52 l -36.08,40.02 c -2.6,3.78 0.28,0.52 -2.97,3.67 -4.54,4.4 -15.73,19.37 -24.44,28.18 l -7.27,9.58 c -2.48,2.71 -0.32,-0.45 -2.64,2.9 -1.21,1.75 -0.86,1.89 -2.07,3.51 -0.61,0.8 -1.71,1.68 -2.72,2.84 -4,4.54 -5.79,9.37 -9.66,13.88 -4.12,4.79 -6.32,8.14 -10.24,13.27 l -19.41,26.44 c -1.65,2.03 -1.29,1.29 -2.77,3.81 l -16.29,23.94 c -2.1,3.63 -1.97,3.34 -4.24,8.11 l -4.91,6.54 c -3.65,3.6 -5.03,9.39 -8.02,14.19 l -25.46,45.15 c -3.14,5.66 -6.18,8.79 -8.78,14.5 l -8.19,15.31 c -1.39,2.76 -2.35,5.2 -3.53,9.11 l -3.75,7.46 c -1.79,4.02 -2.7,4.97 -4.11,8.15 -1.53,3.42 -1.27,5.07 -2.99,8.16 l -7.36,12.62 c -0.16,0.31 -0.56,1.23 -0.72,1.53 l -10.54,25.34 c -0.81,1.57 -1.11,1.07 -2.16,3.38 -1.16,2.56 -0.51,1.94 -1.26,4.5 -1.68,5.91 -1.72,1.2 -3.9,8.43 l -6.44,16.96 c -1.3,2.96 -1.98,3.04 -3.5,7.71 -1.04,3.2 -0.62,2.25 -1.88,4.69 l -4.43,12.41 c -0.66,1.25 -1.62,2.52 -2.33,4.31 -0.7,1.76 -0.71,2.87 -1.41,4.29 -1.23,2.54 0.17,-0.13 -1.32,1.93 -2.9,3.95 -3.25,10.31 -5.57,14.46 -2.47,4.4 -3.93,20.73 -7.75,26 -3.71,5.11 -1.88,1.41 -3.44,8.46 -1.8,8.15 -1.89,2.82 -4.11,7.06 -1.63,3.13 -0.48,7.16 -1.33,10.95 -0.86,3.89 -2.64,3.86 -3.69,7.35 -1.01,3.4 -0.46,6.82 -1.79,10.67 -4.49,12.98 -2.94,15.88 -4.39,19.42 -1.72,4.21 -1.66,0.63 -2.9,7.99 -1.84,10.9 -4.06,11.46 -5.31,18.03 -0.79,4.21 -0.3,7.48 -1.44,11.07 -1.18,3.69 -1.92,3.03 -2.89,8.1 -0.56,2.94 -0.68,7.87 -1.41,10.96 -0.7,3 -2,6.08 -2.54,8.66 -1.45,6.94 -0.73,13.94 -2.06,20.65 l -7.35,39.73 c -1.05,8.04 -0.7,13.52 -2.96,20.41 l -2.77,19.41 c -0.51,16.02 -4.12,27.19 -4.44,42.55 -0.27,12.7 -1.14,30.63 -2.82,43.19 -3.48,26.02 -1.65,63.82 -1.64,92.15 v 466.49 c 0,18.19 -0.09,28.76 3.03,43.81 1.39,6.74 0.98,14.47 3.1,20.35 1.09,3.02 2.03,5.32 2.52,8.78 1.21,8.24 1.14,7.66 3.89,13.84 l 4.53,12.41 c 4.16,13.06 10.55,19.21 15.83,30.8 l 3.78,7.63 c 2.31,5.87 1.3,2.43 4.35,6.82 16.03,23.1 24.49,30.7 44.14,49.82 1.1,1.07 0.83,0.97 1.57,1.83 5.12,5.95 17.66,12.96 24.72,18.86 3.95,3.3 10.99,5.14 15.01,8.5 4.02,3.33 17.81,9.8 22.92,11.49 13.4,4.43 12.96,0.84 12.92,22.36 l 0.2,93.97 c 0.11,15.86 2.81,25.22 5.57,40.03 0.94,4.98 2.33,4.07 3.71,8.26 2.25,6.89 8.12,30.14 11.69,35.37 3,4.4 1.56,3.69 3.45,7.91 l 23.41,35.66 c 4.12,6.78 10.34,12.88 15.59,19.13 l 16.86,17.77 c 3.88,3.84 9.12,7.09 12.49,11.09 5.8,6.86 14.17,9.54 18.54,13.99 0.18,0.17 0.35,0.46 0.51,0.64 0.15,0.17 0.31,0.47 0.46,0.63 1.8,1.97 0.26,0.92 2.89,2.16 5.81,2.76 4.21,3.11 11.71,4.93 l 25.17,11.13 c 3.34,1.44 5.74,1.6 8.67,2.56 3.69,1.2 4.69,2.64 8.29,3.86 3.3,1.11 5.57,1.31 8.64,2.53 6.52,2.57 10.87,2.2 18.29,4.02 22.66,5.56 62.92,4.04 89.87,4.04 8.03,0 26.53,-3.16 31.15,4.78 0.94,1.59 1.9,6.31 2.84,8.63 1.47,3.66 1.34,5.44 3.69,8.47 l 4.12,7.08 c 1.63,3.54 2.13,2.58 4.02,7.12 l 4,7.15 c 1.45,2.72 0.59,1.79 2.3,4.45 l 5.47,11.35 c 2.23,3.77 1.57,4.63 4.12,8.2 l 24.84,40.07 c 0.92,1.7 0.81,2.26 1.73,3.92 4.05,7.21 10.03,13.24 13.98,20.6 2.65,4.94 6.46,8.17 9.93,13.52 l 9.31,11 c 6.09,4.96 15.54,22.34 20.4,28.67 l 1.5,1.89 c 1.07,1.19 0.1,0.28 1.71,1.67 6,5.16 14.35,14.4 18.81,21.32 2.8,4.36 7.1,7.38 10.69,12.98 5.65,8.82 20.35,16.95 20.7,26.85 0.24,6.92 -3.75,11 -6.06,16.76 l -25.16,51.07 c -3.74,7.25 -3.38,8.79 -9.56,19.58 -5.45,9.52 -5.43,13.21 -7.11,16.51 -3.35,6.65 -7.62,17 -11.82,22.64 -5.35,7.2 -5.88,15.53 -12.6,22.26 -4.49,4.48 -1.3,0.73 -3.41,7.42 -1.09,3.47 -2.47,4.6 -3.98,8.48 l -7.81,15.74 c -1.76,3.24 -1.64,4.71 -3.01,8.31 l -19.63,39.62 c -3.39,5.47 -6.09,13.49 -9.81,19.2 l -5.71,11.21 c -2,4.39 -1.14,3.48 -3.62,7.55 -6,9.83 0.47,6.76 -11.89,11.28 l -27.53,8.44 c -3.17,1.05 -5.41,2.94 -7.38,3.65 -3.74,1.35 -5.79,0.51 -10.16,2.36 l -35.79,11.4 c -1.74,0.33 -18.73,8.23 -24.96,9.37 l -26.26,8.56 c -8.58,2.83 -17.85,4.5 -26.27,8.41 l -57.92,19.28 c -1.91,0.88 -1.52,0.67 -4.05,1.48 -3.03,0.98 -5.77,1.93 -8.33,2.9 -13.29,5.03 -42.26,12.23 -51.56,17.75 -4.3,2.55 -9.01,2.27 -14.2,3.67 -4.72,1.27 -0.17,0.07 -3.92,1.75 -3.72,1.67 -6.26,1.32 -9.74,2.64 -3.37,1.26 -3.74,2.36 -8.02,3.18 -6.58,1.26 -3.84,0.2 -8.75,2.42 -3.36,1.5 -5.42,1.48 -8.78,2.56 -3.34,1.06 -4.44,2.43 -8.28,3.8 -3.18,1.15 -5.97,1.11 -8.9,2.34 -4.18,1.74 0.06,0.55 -4.36,2.27 l -30.84,9.66 c -6.63,2.09 -19.55,9.68 -23.88,10.25 -5.73,0.77 -4.86,-0.37 -9.08,2.51 -5.96,4.07 -12.02,4.53 -19.17,7.55 l -22.07,10.52 c -4.95,3.77 0.46,1.41 -7.72,3.01 -5.68,1.09 -3.87,2.08 -9.11,3.55 l -24.73,10.13 c -2.31,1.27 -2.17,1.39 -4.29,2.45 l -40.44,22.06 c -6.92,4.55 -11.8,5.29 -19.36,10.82 l -10.49,6.39 c -2.52,1.33 -2.16,1.22 -4.3,2.45 -1.6,0.91 -1.96,0.88 -3.85,1.83 -4.12,2.04 -1.49,1.47 -5.12,3.7 l -1.55,0.76 c -3.27,1.65 -4.15,3.19 -7.95,4.51 -5.68,1.97 -2.51,-0.67 -7.5,3.33 l -20.08,15.62 c -7.51,7.22 -27.84,16.9 -37.48,26.43 -1.48,1.46 -1.2,1.15 -3.01,2.55 -12.45,9.72 -12.87,8.19 -26.52,20.51 -1.27,1.14 -0.61,0.6 -1.88,1.49 -0.19,0.14 -0.49,0.29 -0.69,0.43 l -18.65,14.93 c -0.16,0.17 -0.38,0.41 -0.54,0.59 -0.17,0.16 -0.37,0.43 -0.52,0.6 l -9.25,8.6 c -3.13,3.05 -3.35,2.96 -6.68,5.58 -2.98,2.34 -3.72,2.41 -6.71,4.51 -1.37,0.97 -4.57,3.65 -6.11,5.06 l -11.74,11.75 c -4.3,3.48 -8.94,6.65 -12.47,11 -1.39,1.7 -3.11,4.51 -4.84,6.43 l -14.22,14.77 c -0.66,0.6 -0.8,0.59 -1.86,1.41 l -6.83,5.6 c -6.83,7 -13.33,15.44 -21.07,21.45 -8.78,6.82 -26.15,27.87 -33.2,37.33 l -7.57,9.17 c -1.86,2.17 -3.24,3.86 -5.12,6.05 -0.15,0.17 -0.38,0.42 -0.53,0.6 l -1,1.26 c -4.29,5.31 -8.37,11.87 -13.51,16.64 l -6.26,7.19 c -5.08,7.74 -13.61,20.18 -20.27,26.7 -4.38,4.29 -5.91,9.49 -9.5,14.01 -3.12,3.94 -6.63,8.28 -9.92,12.43 l -32.14,48.42 c -0.12,0.24 -0.28,0.51 -0.41,0.76 -1.91,3.86 -1.44,4.11 -3.74,7.44 l -9.46,13.99 c -1.44,2.28 -3.15,5.21 -4.61,7.75 -1.62,2.83 -2.12,4.86 -3.72,7.48 l -15.41,24.79 c -1.3,1.77 -0.97,0.31 -2.24,3.17 -2.22,4.99 -4.15,12.07 -7.29,16.39 l -10.19,20.26 c -0.93,2.35 -0.48,2.59 -1.13,4.68 -1.15,3.71 -2.22,2.43 -4.26,5.21 l -8.44,16.41 c -2.45,5.12 0.13,3.91 -3.46,8.72 l -2.18,3.6 c -0.8,1.9 -0.32,1.61 -1.59,3.92 -1.47,2.7 -1.17,1.1 -2.48,4.26 l -5.48,11.13 c -1.02,1.97 -0.94,2.38 -2.27,4.45 -3.8,5.96 -5.77,13.25 -7.77,20.41 l -9.49,25.22 c -1.55,3.32 -2.64,3 -4.11,8.04 -2.89,9.84 -7.74,15.53 -9.32,25.53 l -5.73,16.5 c -0.91,2.46 -2.41,5.33 -3.35,8.97 l -8.9,25.87 c -0.88,3.56 -0.6,6.71 -2.2,10.03 -2.26,4.66 -1.69,1.9 -2.6,8.96 -1.2,9.26 -4.83,8.3 -4.14,18.18 z m 1919.32,-709.24 3.7,3.83 c 2.65,3.15 1.05,1.51 4.38,4.39 3.57,3.06 5.4,5.29 8.57,8.25 l 34.05,34.28 c 3.01,3.06 6.11,4.77 9.13,7.63 3.09,2.94 5.68,6.22 8.69,9.21 1.72,1.72 2.3,2.18 4.03,3.8 2.15,2.03 2.52,2.64 4.37,4.58 5.15,5.39 17.93,18.43 24.16,22.94 3.76,2.74 -0.6,-1.66 2.12,2.09 l 19.31,20.09 c 0.21,0.15 0.49,0.32 0.69,0.46 0.19,0.14 0.49,0.3 0.69,0.44 l 3.16,3.2 c 2.54,3.89 5.51,5.47 8.52,8.46 l 13.53,14.41 c 7.97,9.24 17.59,16.71 25.76,25.78 4.22,4.67 8.78,10.98 13.8,15.15 0.18,0.14 0.46,0.33 0.63,0.48 0.19,0.15 0.45,0.36 0.64,0.51 l 50.68,51.08 c 9.29,7.15 16.6,17.29 24.95,25.49 l 1.74,1.54 c 0.18,0.15 0.46,0.34 0.65,0.49 0.18,0.15 0.46,0.34 0.64,0.49 0.19,0.16 0.45,0.38 0.64,0.53 4.76,4.02 4.5,2.7 7.71,-2.24 1.22,-1.91 0.71,-0.89 1.38,-1.99 1.83,-3 0.77,-1.66 2.03,-4.63 1.67,-3.92 1.44,-2.05 3,-4.84 1.53,-2.73 0.63,-2.43 1.9,-4.92 l 5.59,-9.91 c 0.15,-0.32 0.68,-1.19 0.84,-1.5 l 11.07,-22.45 c 4.26,-10.11 5.49,-9.28 9.41,-19.69 1,-2.65 0.57,-2.39 1.96,-4.81 1.46,-2.51 1.1,-0.91 2.55,-4.07 l 4.44,-10.21 c 2.03,-5.93 2.32,-5.53 4.6,-9.95 l 11.33,-24.49 c 2.35,-4.36 6.43,-9.52 7.82,-14.27 0.7,-2.4 0.33,-2.93 1.43,-5.46 l 15.02,-35.54 c 1.65,-3 2.4,-7.55 4.31,-10.12 l 15.39,-35.06 c 0.91,-2.09 1.26,-3.94 2.18,-5.63 3.24,-5.98 7.03,-12.28 8.66,-19.16 1.85,-7.81 2.06,-3.05 4.16,-10.49 1.25,-4.42 2.79,-6.45 3.93,-10.79 2.06,-7.92 1.16,-4.88 3.95,-10.5 1.07,-2.17 0.86,-2.52 1.75,-5.02 l 8.84,-20.08 c 2.28,-7.42 3.44,-7.99 5.14,-16.43 1.03,-5.11 1.28,-1.71 3.33,-6.64 1.98,-4.74 4.83,-9.77 5.37,-13.69 1.55,-11.36 1.37,-2.62 4.15,-10.16 3.69,-9.95 3.28,-15.13 9.13,-26.59 2.83,-5.55 4.05,-16.85 7.22,-21.97 2.7,-4.36 0.87,1.52 2.65,-4.02 2.17,-6.8 0.09,-13.18 -2.78,-18.11 -1.63,-2.79 -0.78,-2.69 -2.63,-5.36 -3,-4.32 -0.78,0.54 -2.95,-3.48 -1.36,-2.51 -0.71,-3.03 -2.05,-5.81 l -4.11,-10.45 c -1.36,-4 -0.77,-1.33 -2.57,-4.29 l -26.09,-53.33 c -2.83,-5.21 -1.81,-6.78 -3.8,-11.03 l -54.71,-104.89 c -3.24,-6.94 0.88,-4.56 -6.73,-8.43 -9.68,4.97 -18.29,19.98 -27.04,27.1 -1.44,1.17 -1.93,1.27 -3.21,2.38 -0.17,0.15 -0.41,0.38 -0.58,0.53 l -1.13,1.15 c -0.17,0.17 -0.41,0.4 -0.58,0.57 l -5.96,6.24 c -0.86,0.96 -1.87,2.02 -2.76,2.88 l -13.36,13.4 c -11.43,14.14 -10.74,12.25 -21.27,23.58 -12.4,13.35 -24.59,26.88 -38.11,39.12 l -58.86,63.03 c -3.62,3.87 -7.17,7.15 -10.48,10.75 l -53.42,57.37 c -7.11,7.75 -15.66,14.7 -21.78,23 -6.35,8.64 -14.08,14.69 -21.37,22.2 -3.96,4.08 -7.16,7.29 -11.07,11.3 -4.09,4.19 -6.11,7.75 -10.93,11.5 l -38.24,39 c -3.7,2.91 -2.84,1.73 -2.9,7.8 z m -482.52,270.91 c 4.08,-1.99 6.7,-6.67 9.56,-9.68 1.16,-1.21 1.27,-1.41 2.13,-2.36 l 54.36,-58.79 c 2.6,-3.46 4.44,-5.9 8.1,-8.21 5.29,-3.32 8.62,-7.54 12.74,-12.14 2.75,-3.07 5.54,-5.68 8.28,-8.46 l 15.39,-17.1 c 0.15,-0.16 0.35,-0.43 0.51,-0.59 l 1.11,-1.1 c 4.29,-3.7 7.42,-4.53 10.83,-9.27 2.03,-2.83 1.19,-2.64 3.7,-5.3 l 36.49,-39.63 c 0.15,-0.17 0.37,-0.43 0.54,-0.6 l 28.09,-28.93 c 0.15,-0.18 0.34,-0.45 0.49,-0.62 l 0.99,-1.24 c 5.06,-5.8 11.84,-9.79 16.41,-15.91 l 19.66,-20.77 c 4.16,-3.85 7.29,-9.24 11.88,-12.82 l 5.33,-4.58 c 0.18,-0.17 0.4,-0.41 0.56,-0.58 l 4.47,-4.61 c 0.16,-0.15 0.42,-0.38 0.58,-0.51 0.33,-0.3 1.86,-1.29 2.15,-1.52 l 0.13,-7.83 c -5.29,-2.73 -15.37,-11.74 -19.12,-16.06 l -5.79,-6.56 c -0.01,-0.02 -1.48,-1.85 -1.5,-1.88 l -20.78,-21.74 c -0.14,-0.16 -0.37,-0.41 -0.52,-0.57 l -13.21,-12.38 c -3.62,-2.87 -4.18,-5.5 -7.57,-8.09 l -5.82,-5.63 c -3.02,-4.13 -11.98,-10.02 -16.38,-14.77 l -20.55,-20.93 c -0.26,-0.22 -1.01,-0.83 -1.27,-1.03 l -1.99,-1.41 c -1.68,-1.29 -1.4,-1.05 -2.75,-2.63 l -20.77,-21.82 c -6.51,-5.88 -11.66,-12.3 -18.33,-17.55 -4.09,-3.2 -6.72,-8.1 -10.82,-11.49 l -55.39,-55.32 c -0.45,-0.43 -1.91,-1.71 -2.47,-2.15 -2.3,-1.77 -1.31,-0.57 -3.09,-2.38 -6.98,-7.06 -13.9,-14.86 -21.61,-20.97 -1.32,-1.04 -1.89,-1.6 -2.64,-2.67 l -0.82,-1.4 c -0.95,-1.53 -0.28,-0.74 -1.31,-2.15 -1.69,-2.32 -3.32,-3.38 -5.34,-4.92 -0.89,-0.68 -1.79,-1.36 -2.34,-1.97 -0.15,-0.15 -0.36,-0.42 -0.5,-0.58 l -28.89,-29.24 c -0.14,-0.19 -0.32,-0.47 -0.48,-0.66 -6.21,-8.21 -15.63,-14.57 -20.47,-19.9 l -9.7,-11.57 c -1.15,-1.09 -1.99,-1.74 -2.87,-2.83 -0.15,-0.19 -0.34,-0.47 -0.49,-0.66 l -9.78,-10.41 c -0.67,-0.89 -0.84,-1.57 -1.91,-2.78 -9.95,0.87 -6.79,8.41 -10.76,15.35 l -5,8.41 c -2.85,3.84 -4.74,11.06 -8.13,16.44 -8,12.67 -22.98,51.74 -32.34,68.52 l -20.74,42.03 c -0.86,2.12 -0.55,2.66 -1.72,4.98 l -12.27,21.09 c -2.05,4.21 -5.65,11.2 -5.79,15.94 -0.2,6.8 0.8,7.62 2.65,12.34 1.83,4.68 1.14,6.61 2,12.1 1.32,8.45 2.35,2.01 4.64,9.51 l 6.7,20.14 c 1.9,3.57 0.53,-1.19 2.05,4.91 l 5.8,15.18 c 2.05,5.88 3.01,2.92 3.86,9.75 0.24,1.9 0.12,4.63 0.55,6.34 l 6.43,14.43 c 2.1,3.28 1.23,0.28 2.15,4.95 1.66,8.35 2.7,8.02 5.23,16.01 1.85,5.81 3.09,2.77 4.71,8.54 1.34,4.79 -0.12,1.43 1.72,4.83 l 2.17,4.76 c 2.38,6.72 4.83,7.01 6.93,13.72 l 26.39,63.41 c 2.01,4.87 3.14,3.42 4.82,9.45 l 12.23,29.41 c 3.2,6.07 5.23,13.02 8.91,19.03 2.26,3.67 2.38,4.89 4.26,9.12 l 15.16,33.07 c 1.09,2.35 0.99,3.79 2.01,5.9 l 9.14,18.83 c 4.35,9.17 11.09,15.86 14.16,25.71 2.5,7.99 6.16,9.25 9.22,18.85 0.92,2.85 6.79,11.6 9.4,18.64 1.31,3.54 3.23,6.36 6.25,8.56 z M 4562.56,5618 c 2.26,-2.24 1.99,-1.24 3.96,-4.12 l 13.78,-15.52 c 0.17,-0.16 0.4,-0.4 0.56,-0.56 0.17,-0.16 0.4,-0.4 0.56,-0.56 l 46.49,-48.57 c 9.26,-10.24 17.49,-21 28.06,-30.16 l 28.38,-29.78 c 2.48,-2.38 2.58,-3.11 4.68,-5.36 3.31,-3.53 2.89,-1.61 6.03,-4.12 16.97,-13.56 6.16,-17.42 -1.46,-13.45 -5.19,2.71 3.13,1.71 -5.62,3.37 l -17.97,1.22 c -2.49,0.33 -1.64,0.17 -3.54,0.73 l -4.34,1.31 c -8.37,1.65 -27.77,2.32 -36.91,2.45 -13.57,0.19 -20.46,2.24 -36.93,2.23 -14.42,0 -25.29,-0.38 -37.38,-1.81 -10.49,-1.23 -26.39,-0.48 -37.57,-0.71 l -105.4,-12.75 c 0.68,3.29 1.17,3.89 3.15,6.29 l 19.28,18.71 c 2.84,3.06 2.49,4.51 3.93,6.24 0.13,0.16 0.37,0.39 0.51,0.54 0.15,0.15 0.42,0.34 0.57,0.48 0.16,0.15 0.45,0.33 0.62,0.48 l 23.44,22.37 c 0.17,0.15 0.44,0.35 0.61,0.5 l 31.34,32.51 c 0.17,0.15 0.44,0.34 0.61,0.5 l 1.23,1.06 c 3.72,3.32 1.06,1.02 5.03,3.73 2.24,1.52 3.52,3.35 5.18,5.07 l 50.56,51.3 c 2.85,3.16 5.4,3.38 8.56,6.38 z M 5420.8,4505.29 c 12.83,0.56 132.97,0.9 139.2,-0.5 4.17,-0.94 2.83,-1.86 6.45,-3.31 2.91,-1.17 6.21,-1.05 9.03,-2.24 4.29,-1.81 0.36,-1.39 7.25,-3.11 3.9,-0.98 1.31,0.44 3.81,-1.43 l 10.65,-10.48 c 4.06,-4.56 14.27,-15.1 16.64,-20.15 0.52,-1.09 0.82,-2.63 1.49,-4.11 1.11,-2.49 1.17,-1.8 2.05,-3.63 l 5.45,-15.63 c 2.68,-19.11 1.05,-386.83 1.06,-438.53 0.01,-5.32 -1.09,-6.5 -6.41,-6.5 -45.38,0 -113.63,-1.29 -156.28,0.14 -5.58,9.5 -6.84,118.47 -7,130.57 l -2.81,30.67 c -1.22,10.34 -0.58,23.3 -1.47,33.23 -0.94,10.69 -2.3,22.27 -2.64,32.23 -0.38,10.99 -1.2,44.25 -3.86,55.44 -0.74,3.1 -1.2,1.64 -1.51,7.18 -0.62,10.76 0.45,24.02 -0.87,34.36 -1.29,10.13 -3.83,17.86 -3.98,30.6 -0.44,36.47 -4.68,33.65 -5.18,45.8 -1.16,27.76 -1.86,15.37 -3.46,30.4 -1.96,18.28 0.49,12.27 -4.17,30.26 z m -1567.93,-466.19 0.7,82.74 c 0.61,8.42 2.22,14.99 3.16,24.41 1.63,16.43 0.27,35.58 2.41,52.68 0.95,7.63 2.63,14.72 2.89,23.58 0.18,6.16 -0.25,22.15 1.28,26.83 2.67,8.2 3.58,11.07 3.71,22.39 0.48,44.99 1.57,22.87 3.87,37.77 1.5,9.68 -0.1,28.64 1.17,40.65 1.26,12.01 3.55,1.71 4.3,35.8 0.28,12.57 1.73,9.55 2.88,11.82 2.89,5.75 1.17,28.95 2.09,39.63 0.54,6.26 1.91,5.65 2.97,11.19 1.46,7.56 1.12,17.03 1.57,25.68 0.56,10.73 2.56,15.47 3.76,24.21 1.09,7.84 0.56,16.12 2.37,24.49 2.01,9.37 2.55,14.67 3.14,25.15 l 6.97,47.56 c 2.43,7.59 1.64,15.52 2.78,24.35 1.08,8.22 2.87,8.05 4.08,24.11 1.29,17.06 3.29,13.27 4.12,22.52 0.32,3.76 0.32,7.93 1.35,11.43 1.25,4.21 2.75,5.51 3.29,11.03 0.43,4.25 0.2,8.95 0.77,13.16 0.78,5.82 2.16,4.96 3.39,9.69 2.19,8.54 -1.38,4.28 4.27,23.96 1.22,4.29 0.91,7.47 1.5,12.28 0.87,7.05 2.32,3.78 3.89,8.71 1.21,3.8 0.44,8.64 0.87,12.75 0.75,7.12 2.3,4.67 3.71,10.74 0.97,4.09 0.59,8.38 1.19,12.67 l 9.57,32.86 234.38,-0.01 c 3.47,-13.87 2.67,-6.76 5.26,-15.05 2.32,-7.4 0.76,-1.28 3.52,-6.52 2.32,-4.41 0.38,-3.51 3.51,-7.75 l 22.61,-34.5 c 5.91,-6.75 16.07,-21.75 24.65,-28.01 10.42,-7.59 3.25,-3.62 9.14,-7.78 2.54,-1.8 3.18,-2.46 4.91,-4.63 4.96,-6.17 16.06,-12.19 24.83,-19.13 l 5.2,-3.74 c 5.47,-3.95 14.93,-7.52 18.19,-9.93 6.53,-4.81 2.07,-1.83 8.9,-3.88 5.49,-1.64 2.35,-1.84 6.8,-3.44 2.56,-0.91 6.31,-0.64 9.53,-1.85 3.79,-1.42 1.72,-2.03 7.17,-3.08 3.14,-0.62 7.69,-0.6 9.97,-1.48 12.02,-4.67 4.94,-1.84 16.98,-4.45 24.87,-5.4 11.27,-2.68 36.72,-4.45 30.74,-2.13 183.97,-1.91 206.67,1.38 6.11,0.89 10.55,2.61 16.5,3.54 15.37,2.41 27.56,8.17 33.54,9.44 4.39,0.94 4.37,0.22 8.05,2.14 l 7.14,5.24 c 2.41,0.37 3.3,1.46 6.84,2.34 8.37,2.06 1.51,-0.86 7.33,3.56 l 36.01,23.34 13.77,13.02 c 10.99,9.38 19.04,20.3 28.03,31.26 l 13.49,16.55 c 0.13,0.22 0.27,0.52 0.4,0.75 l 13.71,24.44 c 2.33,3.66 2.5,2 3.23,7.76 0.91,7.09 0.07,4.07 2.56,8.88 5.01,9.67 6.71,20.99 7.82,23.55 3.7,8.55 2.31,8.87 4.06,17.3 0.62,2.98 1.44,5.34 2.25,8.93 1.8,7.87 1.27,11.97 1.86,20.63 0.43,6.21 1.83,12.52 1.97,19.07 0.22,10.36 -1.43,39.93 -4.63,49.24 -0.96,2.8 -1.55,6.26 -2.02,9.25 -0.53,3.31 -0.69,5.52 -1.74,8.36 -1.78,4.88 -1.86,1.79 -2.96,8.14 -1.07,6.04 0.02,2.68 -2.8,7.2 -2.65,4.24 -1.05,3.97 -2.37,9.03 -3.09,11.9 -20.01,35.49 -27.2,47.53 l -9.68,12.7 c -9.63,12.7 -29.91,34.21 -42.43,42.65 -2.69,1.81 -4.3,2.36 -7.06,4.21 -0.87,0.58 -2.01,1.48 -3.22,2.33 l -17.3,9.8 c -4.35,2.2 -2.61,2.51 -6.72,4.33 -4.29,1.89 -2.43,0.07 -6.66,3.24 l -22.3,10.38 c -4.26,0.98 -5.99,-0.01 -9.45,1.73 -8.65,4.34 -9.08,2.18 -16.75,4.59 l -5.22,2.47 c -1.3,0.5 -1.34,0.45 -2.66,0.79 -10.79,2.75 -47.66,5.1 -59.78,5.1 -32.24,-0.01 -148.73,1.85 -171.29,-1.04 -6.46,-0.83 -11.04,-2.06 -18.3,-2.97 -3.09,-0.39 -6.09,-0.5 -9.18,-0.89 l -35.17,-8.93 c -5.25,-0.92 -10.4,-3.59 -15.27,-5.83 l -27.24,-15.2 c -2.85,-1.7 -4.76,-2.06 -7.41,-3.8 -0.19,-0.12 -0.44,-0.33 -0.63,-0.46 -0.2,-0.14 -0.44,-0.36 -0.64,-0.49 -0.19,-0.14 -0.45,-0.34 -0.64,-0.48 -0.21,-0.14 -0.48,-0.32 -0.67,-0.46 -0.2,-0.14 -0.48,-0.31 -0.7,-0.44 l -26.21,-21.79 c -0.29,-0.28 -2.25,-2.22 -2.82,-2.82 l -23.86,-25.31 c -10.63,-11.73 -17.53,-25.04 -25.13,-38.73 l -4.18,-7.02 c -1.86,-3.08 -2.83,-2.92 -4.3,-6.06 l -3.01,-3.59 c -1.78,-1.72 1.31,-0.26 -2.73,-1.63 l -0.74,-9.49 -156.4,-0.16 c 0.62,6.39 4.17,12.02 7.48,16.3 l 11.94,17.37 c 0.58,0.8 1.69,2.44 2.24,3.35 l 60.27,75.87 c 3.1,3.07 4.16,4.13 6,8.82 0.9,3.21 11.37,12.13 14.9,15.18 1.37,1.18 2.69,1.97 4.08,3.58 0.69,0.81 0.56,0.83 1.39,1.93 1.33,1.74 0.67,1 2.08,2.52 6.55,7.08 14.21,12.4 20.92,19.34 4.89,5.04 12.38,9.61 16.3,15.18 2,2.83 1.07,1.68 4.71,3.95 5.01,3.13 5.01,4.03 8.82,6.95 3.76,2.85 8.49,4.91 11.25,7.81 5.62,5.93 12.18,9.04 19.12,13.36 l 41.77,26.41 c 6.37,3.95 9.68,7.06 16.56,10.05 5.53,2.38 14.57,6.8 18.91,10.5 3.2,2.74 -0.56,1.07 4.86,2.54 l 33.03,14.09 c 6.04,1.56 12.34,4.86 17.39,7.35 l 37.66,10.75 c 1.36,0.28 4.44,0.96 6.18,1.61 2.34,0.87 1.93,1.24 5.81,2.1 6.68,1.48 7.53,0.63 13.59,3.14 5.07,2.1 7.29,1.93 13.94,2.15 8.76,0.28 7.18,1.83 12.82,3.58 4.64,1.44 9.46,0.4 14.66,1.32 4.25,0.77 6.9,3.15 11.7,3.83 5.12,0.72 9.28,0.45 14.2,1.45 6.15,1.26 3.81,3.06 13.66,3.29 10.83,0.27 19.1,0.52 28.71,2.28 8.49,1.56 20.99,1.94 30.62,2.06 18.29,0.2 46.06,1.37 62.4,-1.5 9.08,-1.6 19.34,-2.77 29.29,-2.77 19.83,-0.02 9.23,-4.21 28.01,-4.47 l 13.23,-2.95 c 4.17,-2.39 7.94,-1.32 13.67,-1.65 8.52,-0.49 17.65,-3.88 27.05,-5.33 7.01,-1.1 5.66,-2.9 12.15,-3.62 6.35,-0.71 8.21,-0.28 13.84,-2.22 4.11,-1.42 7.83,-2.61 11.2,-4.43 4.06,-2.19 0.34,-1.24 5.2,-2.39 8.28,-1.97 16.08,-5.72 24,-8.53 5.9,-2.09 6.4,-1.13 11.42,-4.39 3.09,-2.01 4,-0.9 7.57,-2.53 0.26,-0.13 0.53,-0.29 0.78,-0.42 l 20.02,-8.76 c 4.93,-1.83 1.31,-1.03 4.82,-3.06 3.23,-1.88 3.02,-0.44 6.85,-2.14 l 10.14,-5.81 c 7.05,-5.71 7.37,0.73 8.24,-7.4 11.14,-0.33 11.86,-3.66 24.15,-10.28 l 5.55,-3.31 c 1.8,-1.02 0.59,-0.14 2.24,-1.37 l 14.62,-9.73 c 0.53,-0.29 1.62,-1.06 2.13,-1.37 1.98,-1.2 1.38,-0.74 3.58,-1.85 2.21,-1.13 0.3,0 2.28,-1.25 l 10.83,-6 c 5.3,-3.17 8.59,-7.62 14.06,-10.43 6.56,-3.39 7.7,-6.34 12.51,-9.94 l 1.33,-0.98 c 0.2,-0.15 0.46,-0.36 0.64,-0.51 l 12.42,-11.09 c 1.45,-1.4 5.67,-6.1 5.84,-6.23 l 12.25,-7.05 34.54,-33.64 c 9,-7.56 16.96,-17.1 24.07,-26.41 l 17.85,-18.93 c 0.6,-0.7 2.37,-2.77 2.59,-3.09 l 14.44,-18.89 c 4.13,-3.33 7.75,-9.19 10.47,-13.25 l 4.53,-6.76 c 6.09,-10.84 14.35,-18.49 19.92,-30.54 1.69,-3.68 0.42,-1.01 2.57,-3.82 l 9.45,-15.44 c 1.78,-3.88 0.57,-5.8 3.28,-8.65 2.66,-2.79 2.66,-4.55 6.75,-10.21 0.15,-0.2 0.32,-0.49 0.47,-0.71 l 2.59,-4.11 c 2.81,-4.42 1.58,-5.33 8.52,-16.1 2.16,-3.36 0.95,-0.13 2.47,-4.49 l 9.85,-21.44 c 1.54,-4.93 1.15,-4.73 3.88,-7.92 2.72,-3.15 0.73,-0.77 2.61,-4.39 l 16.36,-39.87 c 2.73,-11.14 5.6,-12.71 8.76,-22.13 1.27,-3.78 0.86,-6.81 1.88,-10.75 l 4.53,-13.28 c 2.53,-6.34 2.58,-2.04 5.22,-13.33 1.1,-4.71 2.3,-4.86 3.51,-8.73 1.26,-4.07 0.47,-7.9 1.45,-12.17 1.18,-5.12 1.99,-3.52 3.15,-9.05 0.57,-2.69 0.88,-7.94 1.65,-10.71 1.08,-3.87 2.65,-4.98 3.25,-8.77 0.59,-3.65 0.18,-8.04 0.68,-11.91 l 5.52,-31.23 c 1.55,-7.53 3.72,-13.52 3.95,-21.51 0.2,-6.95 0.09,-6 1.96,-10.72 2.58,-6.52 2,-13.21 2.77,-21.74 0.71,-8 4.04,-11.48 4.32,-20.1 0.28,-8.24 2.5,-14.98 3.54,-22.51 0.9,-6.61 0.88,-17.01 2.24,-22.57 3.16,-12.98 5.08,-28.37 7.3,-41.76 1.49,-9.05 0.41,-14.16 3.06,-22.63 2.06,-6.59 2.69,-13.57 2.84,-21.4 0.08,-3.98 -0.02,-8.23 1.09,-11.76 3.05,-9.72 2.85,-22.17 4.35,-32.25 0.82,-5.41 1.74,-6.3 2.34,-9.97 0.61,-3.81 0.34,-8.67 0.81,-12.78 0.92,-7.92 0.59,-15.53 1.92,-22.78 2.03,-11.22 2.12,-9.35 2.5,-22.37 0.76,-25.37 3.77,-30.43 4.62,-45.82 0.48,-8.65 0.72,-15.36 1.29,-23.49 0.48,-6.87 2.74,-13.37 3.21,-21.26 0.48,-7.91 0.3,-16.68 0.38,-24.68 0.1,-10.94 2.09,-13.73 3.27,-22.25 1.96,-14.06 1.09,-31.5 3.56,-45.39 2.61,-14.77 2.7,-30.79 2.93,-47.55 0.24,-16.86 2.5,-29.11 3.56,-45.75 0.39,-6.13 2.95,-38.13 1.59,-44.68 -0.69,-3.37 -0.43,-2.72 -3.39,-3.67 -13.3,-4.21 -35.99,-4.08 -48.7,-7.12 l -21.71,-3.73 c -8.14,-0.65 -8.81,-3.81 -30.21,-4.5 -15.76,-0.51 -42.84,-8.08 -59.25,-9.19 l -29.23,-5.51 c -5.58,-2.32 -6.84,-3.03 -13.7,-3.87 -7.98,-0.97 -7.73,-1.66 -13.61,-3.26 -5.13,-1.38 -11.23,-0.41 -16.6,-1.68 -6.71,-1.61 -4.07,-2.99 -13.04,-3.77 -7.06,-0.61 -5.98,-2.13 -12.69,-3.82 -4.87,-1.22 -9.71,-1.47 -14.26,-2.55 -9.67,-2.27 -17.89,-5.65 -27.45,-7.42 -5.15,-0.95 -8.13,-2.84 -13.44,-4.31 l -91.56,-29.39 c -4.13,-1.44 -3.14,-1.87 -5.81,-2.97 -2.91,-1.18 -4.46,-0.73 -7.23,-1.83 l -18.46,-7.17 c -2.41,-1.15 -4.45,-1.19 -6.94,-2.12 -6.85,-2.54 -9.45,-6.31 -16.95,-7.8 -7.23,-1.44 -5.56,-2.94 -12.01,-4.78 l -36.45,-15.89 c -2.52,-1.59 1.35,0.05 -2.64,-1.85 l -8.36,-3.85 c -3.8,-2.55 -8.03,-2.87 -12.27,-5.64 -5.09,-3.32 -12.34,-5.18 -17.61,-8.18 -4.34,-2.47 -7.37,-2.99 -10.77,-5.87 -2.63,-2.25 -1.86,-1.32 -4.99,-2.83 l -35.38,-17.42 c -3.03,-1.52 -2,-1.74 -5.58,-3.38 -5.45,-2.5 -10.76,-7.18 -16.48,-9.27 -4.15,-1.5 -2.92,-0.15 -6.52,-2.38 l -57.67,-36.25 c -1.92,-1.24 -3.04,-2.32 -5.27,-3.66 -3.13,-1.88 -2.15,-1.28 -4.69,-3.1 -2.91,-2.09 -2.97,-1.6 -5.89,-3.14 -3.15,-1.65 -0.44,-0.24 -2.76,-1.73 l -6.37,-4.7 c -6.42,-5.67 -15.23,-9.6 -22.71,-14.36 -6.55,-4.17 -11.72,-9.82 -19.91,-14.68 l -32,-21.51 c -0.16,-0.18 -0.35,-0.46 -0.5,-0.63 -0.17,-0.18 -0.38,-0.44 -0.55,-0.62 -7.73,-7.79 -17.82,-13.9 -25.84,-21.22 l -14.23,-11.5 c -1.7,-1.5 -3.01,-2.85 -4.73,-4.25 l -73.52,-64.05 c -4.17,-3.57 -7.76,-3.39 -14.05,-3.24 -11,0.26 -22.12,-0.58 -32.98,2.11 l -65.27,12.19 c -3.54,0.95 -3,1.8 -5.59,3.07 -3.6,1.78 -9.25,1.5 -13.57,3.24 l -14.01,4 c -2.71,1.14 -2.39,1.96 -4.74,2.87 -2.78,1.06 -4.59,0.45 -7.63,1.48 -3.41,1.15 -1.57,1.49 -5.95,2.91 l -13.01,3.92 c -3.8,1.82 -2.89,0.83 -6.85,2.14 -3.4,1.13 -2.21,1.48 -5.9,3.01 -2.18,0.89 -4.45,1.21 -6.78,2.19 -11.5,4.85 -9.85,2.15 -20.45,9.71 l -1.29,0.97 c -0.18,0.13 -0.43,0.35 -0.61,0.47 -0.19,0.13 -0.43,0.35 -0.62,0.47 l -27.77,14.63 c -2.06,1.25 -0.77,0.34 -3.02,1.41 l -40.68,23.37 c -4.12,3.2 0.12,1.46 -4.26,4.46 l -29.71,22.85 c -2.69,1.73 -2.14,1.03 -4.75,3.21 l -3.65,3.04 c -0.18,0.14 -0.43,0.36 -0.61,0.51 l -29.1,23.51 c -11.78,10.9 -22.77,24.07 -33.01,36.4 l -60.11,77.53 c -2.54,3.24 -4.6,6.35 -7.16,9.55 l -1.91,2.84 c -0.79,1.51 -0.61,1.73 -1.36,3.15 -4.97,9.24 -7.72,7.52 -11.66,13.99 -11.11,18.31 -14.19,15.87 -21.73,26.12 l -16.4,22.81 c -3.4,5.08 -13.03,15.27 -14.02,19.96 z m 1263.92,-154.87 c 11.59,-1.42 13.88,2.19 21.98,3.58 9.65,1.64 12.69,1 21.9,3.81 9.55,2.92 19.97,-0.07 27.72,3.89 3.88,1.99 -2.09,0.61 4.25,1.9 4.05,0.83 8.69,0.56 12.64,1.05 8.82,1.1 11.81,3.24 21.74,3.8 10.06,0.58 14.18,0.75 22.9,3.15 7.28,2 16.19,1.79 24.16,2.05 12.35,0.44 9.46,3.74 21.5,4.1 1.13,-7.58 1.12,-117.01 -0.04,-125.39 -1.4,-10.03 -3.27,3.26 -4.33,-32.38 -0.41,-13.59 -2.52,-9.83 -3.91,-16.1 -1.36,-6.17 -0.14,-13.18 -1.25,-19.25 -1.28,-7.03 -3.45,-6.81 -4.14,-16.07 -1.14,-15.1 -3.22,-5.54 -4.28,-15.57 -1.97,-18.67 -1.76,-5.54 -5.46,-25.31 -1.05,-5.6 -1.23,-3.01 -2.86,-6.97 -2.35,-5.72 -0.88,-9.13 -4.44,-15.91 -1.87,-3.57 -1.17,-4.09 -2.44,-7.94 -1.6,-4.85 -2.74,-2.89 -2.43,-9.2 0.75,-6.69 -1.49,-8.83 -3.77,-14.5 l -4.25,-9.04 c -0.95,-2.08 -1.12,-3.7 -1.54,-5.37 -1.71,-6.92 -2.18,-3.24 -4.48,-8.61 -6.26,-14.62 -12.52,-30.74 -20.72,-44.28 l -14.62,-25.62 c -3.99,-7.44 -5.86,-9.54 -10.33,-15.32 -1.33,-1.73 -1.39,-2.15 -2.75,-3.98 l -12.46,-19.92 c -2.15,-4.18 -1.94,-4.54 -5.64,-7.96 -5.6,-5.19 -9.11,-12.39 -14.13,-18.2 l -1.75,-1.7 c -4.74,-4.94 1.44,3.15 -1.48,-1.65 l -17.49,-22.93 c -4.17,-4.6 -7.66,-9.48 -11.25,-14.45 l -6.06,-8.48 c -0.17,-0.17 -0.42,-0.37 -0.58,-0.53 l -27.31,-26.47 c -1.29,-1.16 -0.48,-0.33 -1.75,-1.56 l -15.22,-13.95 c -1.91,-1.58 -0.41,-0.36 -1.91,-1.5 l -4.19,-3.51 c -4.14,-3.89 -9.59,-7.48 -12.89,-11.59 l -3.4,-3.44 c -14.14,-11.75 -38.99,-31.29 -53.27,-39.62 l -23.4,-15.69 c -2.01,-1.2 -2.26,-1.67 -4,-2.63 -6.57,-3.65 -15.93,-6.74 -21.68,-10.91 -1.8,-1.3 0.06,-0.17 -1.78,-1.49 -1.38,-1 -0.55,-0.48 -2.08,-1.3 l -55.87,-28.6 c -5.28,-1.13 -5.48,-2.46 -9.6,-4.03 l -9.71,-3.85 c -3.79,-1.97 -6.66,-0.98 -10.78,-2.77 -2.61,-1.14 -2.04,-1.59 -4.17,-2.38 -2.52,-0.95 -3.31,-0.4 -5.7,-1.14 -2.01,-0.63 -1.59,-0.58 -2.49,-1.17 -0.29,-0.19 -1.44,-1.4 -1.66,-1.59 -1.68,-1.38 -1.84,-1.46 -4.1,-1.86 l -10.84,-3.01 c -3.45,-1.75 -6.83,-1.74 -12.02,-1.86 -0.81,-1.36 -1.69,-2.82 -2.55,-4.12 -4.26,-0.13 -8.48,-0.1 -11.71,-1.09 -6.91,-2.09 -1.23,-2.87 -8.41,-3.55 -4.11,-0.39 -8.37,0.3 -12.01,-0.93 -5.89,-1.96 -1.34,-3.03 -8.12,-3.66 -8.91,-0.82 -13.52,-0.46 -21.53,-3.48 -4.83,-1.81 -16.43,-1.13 -23.26,-1.67 -6.87,-0.56 -12.39,-2.81 -20.62,-3.81 l -46.51,-3.02 c -8.19,-0.05 -14.56,-0.97 -23.46,-1.04 -34.62,-0.26 -163.56,-1.74 -196.81,1.32 -13.06,1.19 -55.04,5.89 -65.65,8.3 l -21.62,3.21 c -9.03,1.53 -2.66,2.38 -19.97,4.75 -4.12,0.56 -5.18,2.15 -8.68,3.32 -3.47,1.15 -6.64,0.82 -10.92,1.62 -6.81,1.29 -3.36,1.91 -8.8,3.38 -5.22,1.41 -5.3,-0.5 -9.54,2.48 -5.51,3.87 -0.48,2 -9.03,3.48 l -19.2,6.33 c -5.41,2.94 -4.24,1.14 -9.55,2.95 -3.32,1.13 -2.58,2.71 -7.74,4.34 -1.9,0.6 -2.56,0.55 -4.39,1.26 l -34.15,14.99 c -3.84,2.38 1.09,0.33 -4.51,2.31 l -40.01,21.38 c -4.25,3.11 -11.62,5.72 -15.43,9.24 -1.79,1.66 -1.5,1.75 -3.51,3.05 l -7.78,4.5 c -3.46,1.91 -1.64,1.06 -3.91,2.91 -2.74,2.23 0.49,0.02 -3.34,2.09 l -43.79,30.22 c -0.83,0.69 -2.67,2.18 -3.67,3.11 -2.01,1.83 -0.56,0.82 -2.83,2.66 l -26.85,22.45 c -2.32,2.23 -1.59,1.02 -3.7,2.94 l -3.24,3.69 c -3.28,4.1 -5.35,7.18 -9.98,9.58 -0.23,0.13 -0.54,0.25 -0.78,0.38 l -1.55,0.86 c -5.67,3.7 -17.64,16.32 -21.77,22.23 -1.52,2.19 -0.68,1.47 -2.21,3.23 -1.33,1.55 0.35,-0.38 -1.66,1.62 l -14.03,14.07 c -9.74,12.18 -5.18,9.15 -8.41,12.79 -0.14,0.16 -0.41,0.37 -0.55,0.52 l -37.53,44.01 c -3.85,5.97 -10.26,11.73 -12.42,16.42 l -47.26,91.86 c -2.28,4.13 -2.4,2.36 -5.29,7.93 l -1.67,2.77 c -1.83,3.97 -1.03,5.75 -5.12,13.99 l -13.31,37 c -1.19,3.64 -0.92,6.98 -2.18,10.29 -1.67,4.43 -2.17,1.99 -3.48,8.69 l -5.13,19.55 c -1,3.92 -1.99,6.33 -3.09,9.19 l -11.39,62.4 c -0.75,9.34 -2.64,12.92 -2.53,23.58 9.96,-3.77 18.19,-17.1 25.59,-24.99 2.16,-2.31 3.34,-4.24 5.45,-6.83 10.88,-13.24 27.91,-27.04 32.49,-32.44 l 13.1,-12.61 c 2.19,-2.47 4.45,-2.86 6.95,-5.47 l 9.68,-9.22 c 3.35,-2.62 3.28,-3.9 7.1,-6.15 2.32,-1.35 2.27,-1.43 4.09,-2.76 5.85,-4.25 8.82,-8.29 13.1,-11.39 l 1.36,-0.98 c 0.2,-0.16 0.43,-0.4 0.62,-0.56 0.24,-0.21 0.86,-0.92 1.09,-1.14 1.68,-1.48 1.62,-1.27 3.95,-2.57 l 8.34,-5.34 c 6.9,-5.98 30.49,-20.45 41.61,-28.75 3.21,-2.4 -0.08,-0.41 4.55,-1.91 9.63,-3.15 23.08,-13.92 33.37,-19.39 l 7.3,-3.8 c 6.01,-2.24 11.3,-7.11 16.86,-8.89 1.94,-0.63 2.4,-0.41 4.51,-1.22 l 21.58,-10.85 c 2.11,-1.32 4.28,-1.18 13,-6.01 5.2,-2.87 6.51,-4.71 12.93,-5.77 5.73,-0.95 5.94,-1.91 10.21,-3.5 3.02,-1.14 6,-1.3 9.5,-2.85 l 27.92,-11.12 c 3.34,-1.35 6.48,-0.73 10.45,-1.83 4.95,-1.37 1.79,-2.24 9.82,-3.51 4.71,-0.75 6.74,-0.4 10.43,-2.16 3.86,-1.84 -1.35,-0.84 4.65,-1.95 1.88,-0.35 4.4,-0.3 6.43,-0.57 l 28.87,-8.8 c 4.71,-1.06 7.3,-0.31 11.57,-1.96 12.09,-4.64 12.55,-1.49 22.16,-3.73 10.55,-2.46 0.31,-1.94 21.29,-4.09 l 22.26,-3.36 c 6.5,-1.69 16.11,-1.71 23.8,-1.75 17.67,-0.11 32.98,-1.11 50.35,-1.23 24.24,-0.15 21.55,-0.33 37.12,6.36 l 12.09,6.63 c 0.6,0.5 0.77,0.74 1.89,1.52 l 11.27,11.01 c 4.55,6.44 9.23,7.52 13.36,12.35 2.55,2.96 3.44,4.38 6.29,7.17 2.07,2.04 4.22,3.81 6.47,5.8 l 34.39,30.55 c 5.85,6.58 27.68,25.05 34.33,29.39 l 45.42,34.21 c 7.97,4.34 13.54,10.67 21.42,15.41 l 29.02,21.23 c 1.3,0.84 2.27,1.23 3.52,2.1 l 31.41,20.08 c 0.19,0.13 0.45,0.33 0.65,0.47 0.21,0.14 0.47,0.34 0.68,0.46 l 7.11,3.98 c 4.9,3.85 9.34,7.95 15.19,10.62 2.33,1.06 2.74,0.7 4.93,1.85 l 7.53,4.72 c 5.36,3.1 11.4,5.53 16.35,9.35 1.66,1.28 1.36,1.67 3.61,3.02 3.94,2.37 8.22,3.42 12.21,6.94 3.65,3.23 6.95,4.51 11.71,7.06 5.81,3.12 6.31,1.97 13.39,6.79 2.84,1.94 3.99,3.01 8.09,3.93 7.28,1.63 11.13,5.35 17.55,8.44 1.77,0.85 3.14,1.05 4.86,1.85 l 10.31,5.29 c 4.46,1.99 8,2.39 12.12,4.86 l 7.76,4.55 c 4.79,3.51 4.41,1.68 9.3,4.03 l 8.1,4.17 c 3.41,1.91 3.73,3.05 8.73,4.26 8.35,2.03 5.05,2.94 13.97,5.07 l 12.86,6.61 c 4.31,3.11 4.54,2.09 11.33,2.34 3.67,5.91 2.36,3.15 10.48,4.62 5.5,0.99 5.74,2.9 11.21,4.55 6.06,1.81 4.05,3.24 11.16,4.41 11.61,1.91 38.01,13.76 40.45,14.17 9.33,1.57 6.65,3.27 11.33,4.37 1.06,0.26 7.78,-0.28 8.14,1.17 0.11,0.51 1,1.11 1.2,1.3 4.66,4.39 12.55,1.74 17.64,4.54 2.36,1.3 1.72,2.31 5.42,2.87 2.38,0.37 5.22,-0.04 7.65,0.28 6.5,0.84 2.96,1.08 6.62,2.74 4.33,1.97 9.85,1.13 15.46,2.42 4.88,1.12 6.43,2.27 13.63,3.34 7.9,1.17 3.52,3.13 13,4.58 5.53,0.85 10.74,0.77 15.25,1.95 5.12,1.35 8.63,3.44 14.74,2.02 z m -1444.8,-515.61 c -0.8,4.28 -0.67,4.56 -2.97,7.45 l -20.16,35.84 c -2.45,6.57 1.49,1.96 -3.64,8.45 -2.26,2.85 -1.2,3.08 -4.78,8.81 -3.02,4.79 -1.08,4.19 -4.08,8.09 -3.82,4.98 -1.57,2.65 -3.56,6.71 -1.99,4.08 -1.66,1.21 -3.22,5.79 -3.93,11.59 -2.2,2.79 -4.88,9.66 -1.48,3.82 0.25,1.81 -2.67,6.05 -5.83,8.42 -5.77,12.23 -7.91,16.74 -1.64,3.51 -1.52,1.05 -3.11,5.62 l -5.42,13.79 c -1.57,4.23 -2.04,2.51 -3.45,6.6 -1.12,3.23 -0.58,5.1 -1.48,7.86 -0.98,3.01 -1.96,2 -3.51,6.14 -0.91,2.44 -0.81,4.5 -1.93,7.07 -1.59,3.6 -1.49,1.05 -3.2,6.84 -6.05,20.62 -24.48,62.83 -28.18,84.34 l -8.66,29.64 c -1.35,6.92 -1.05,9.25 -3.47,15.68 l -6.44,32.13 c -0.45,13.11 -1.74,6.97 -3.87,14.87 -1.49,5.5 -0.33,12.54 -1.03,18.58 -0.81,7.09 -3.91,3.39 -4.29,14.56 -1.1,32.94 -4.34,8.97 -4.57,33.64 -0.37,39.4 -7.11,13.14 -4.33,52.87 20.56,0 142.6,2.16 151.17,-0.81 l 0.97,-3.96 c 0.2,-1.62 0.09,-3.92 0.11,-5.62 0.03,-3.76 0.53,-6 0.81,-8.97 0.75,-7.9 0.39,-11.08 1.77,-18.27 2.29,-11.93 0.45,-25.65 1.96,-38.38 0.84,-7.03 3.26,-9.37 3.72,-16 0.46,-6.39 0.22,-13.97 1.09,-19.34 1.3,-7.92 3.25,-6.13 3.73,-16.49 0.15,-3.41 0.3,-6.13 0.85,-8.96 1.51,-7.78 3.04,-6.18 4.46,-6.72 -0.11,-9.4 4.64,-13.99 5.21,-23.47 0.47,-7.82 0.99,-7.23 2.63,-13.32 1.27,-4.75 0.92,-8.95 1.86,-14.26 0.94,-5.35 3.08,-5.96 4.31,-11.04 0.58,-2.4 0.51,-4.44 1.13,-6.77 0.56,-2.1 1.12,-2.47 2.25,-5.53 1.92,-5.17 1.26,-6.78 4,-11.55 3.18,-5.57 0.62,-6.6 4.02,-11.7 5.94,-8.9 -0.57,-4.81 6.52,-16.81 1.45,-2.47 1.15,-3.28 1.8,-5.76 1.97,-7.38 3.02,-3.15 4.52,-10.97 1.46,-7.62 2.66,-5.74 4.84,-14.28 1.13,-4.42 3.31,-3.48 4.18,-7.95 1.89,-9.74 1.45,-5.56 4.09,-11.88 0.89,-2.15 0.49,-3.64 1.6,-6.34 1.62,-3.95 1.32,-0.87 2.8,-4.87 1.03,-2.82 0.35,-4.07 1.72,-6.52 1.94,-3.47 -1.05,-1.33 4.15,-2.65 0.05,-1.58 -0.01,-4.24 0.29,-5.71 l 11.8,-22.43 c 1.87,-2.41 2.57,-7.46 5.14,-12.59 l 10.56,-18.46 c 0.11,-0.27 0.22,-0.58 0.35,-0.84 l 4.29,-7.9 c 0.12,-0.26 0.24,-0.57 0.37,-0.82 2.34,-4.46 7.43,-8.2 9.79,-12.43 l 8.33,-15.37 c 4.86,-6.96 5.61,-11.58 10.04,-18.04 0.14,-0.2 0.34,-0.46 0.48,-0.66 l 3.74,-6.31 c 0.76,-1.3 1.69,-2.52 2.19,-3.51 0.86,-1.66 0.92,-2.55 1.69,-4.01 3,-5.72 1.42,-0.61 4.44,-6.8 3.12,-6.38 5.69,-8.19 10.22,-12.98 l 17.99,-22.28 c 1.81,-2.11 1.47,-1.59 3.21,-3.5 8.35,-9.2 14.17,-18.02 22.69,-26.52 5.52,-5.51 9.44,-12.04 15.33,-17.1 l 11.62,-11.87 c 9.34,-10.21 -4.72,1.49 17,-17.72 l 18.1,-16.59 c 3.18,-3.52 12.43,-9.88 18.45,-16.25 4.59,-4.85 9.6,-10.1 15.09,-13.78 l 2.05,-1.47 c 0.19,-0.15 0.44,-0.37 0.62,-0.53 0.19,-0.16 0.41,-0.39 0.59,-0.54 l 13.11,-10.3 c 2.46,-1.97 4.81,-3.75 7.07,-5.15 4.63,-2.87 7.69,-7.03 13.01,-9.45 4.61,-2.09 3.42,-1.56 6.98,-4.29 7.37,-5.64 28.78,-21.61 35.48,-23.89 l 5.17,-2.55 c 8.61,-7.1 18.12,-11.35 27.48,-17.33 l 48.15,-26.58 c 5.73,-2.25 4.45,-2.73 7.97,-4.29 3,-1.35 5.1,-1.41 8.36,-2.96 2.8,-1.34 6.62,-2.35 8.72,-3.68 9,-5.67 -0.74,-0.32 15.6,-7.73 5.25,-2.37 12.17,-3.64 17.11,-5.53 l 15.66,-7.54 c 3.21,-1.23 5.97,-0.78 9.61,-1.84 2.95,-0.86 3.73,-2.37 8.7,-3.61 6.14,-1.52 3.3,-0.59 8.1,-3.02 l 17.73,-5.81 c 3.21,-0.64 7.14,-0.52 9.97,-1.37 4.03,-1.21 2.32,-2.01 7.87,-3.26 3.8,-0.86 7.22,-0.32 10.9,-1.51 5.17,-1.66 1.5,-1.96 8.7,-2.88 11.34,-1.45 11.02,-3.62 18.16,-5.01 3.99,-0.78 7.64,-0.49 10.73,-1.5 l 18.71,-4.69 c 6.85,-1.28 11.97,-3.38 19.59,-3.81 3.9,-0.23 6.7,-0.06 10.54,-0.74 5.7,-1.01 4.84,-1.89 9.63,-2.58 l 63.74,-5.89 c 16.25,-0.1 29.88,-0.97 45.86,-1.12 32.81,-0.34 207.75,-1.14 229.93,2.94 7.44,1.38 12.48,2.38 20.68,2.69 9.76,0.38 8.66,3.83 18.93,4.24 8.08,0.31 14.12,-0.09 21.02,1.71 13.71,3.55 23.3,3.03 28.86,6.01 2.73,1.46 6.21,1.88 9.65,2.21 8.77,0.85 10.04,4.1 18.81,4.66 7.2,0.46 38.95,9.09 45.42,12.03 3.78,1.72 5.29,1.63 9.57,2.55 l 33.87,12.26 c 13.34,5.58 16.54,4.91 33.83,13.22 l 19.79,9.3 c 12.81,6.89 27.31,10.44 39.33,18.81 l 19.42,10.8 c 7.89,5.34 25.04,12.47 29.75,16.15 l 1.26,1.01 c 0.2,0.14 0.48,0.33 0.67,0.47 0.2,0.15 0.49,0.32 0.69,0.46 0.2,0.13 0.49,0.3 0.7,0.43 1.53,1.06 1.47,1.1 3.17,2.36 l 32.89,24.97 c 10.09,5.47 5.78,1.87 17.9,11.42 2.36,1.86 1.05,1.14 2.93,2.65 1.56,1.23 1.78,1.17 3.33,2.22 1.76,1.21 1.78,1.36 3.98,2.82 l 23.41,19.16 c 1.73,1.79 0.45,0.54 1.56,1.85 3.45,4.09 8.97,6.52 12.87,10.51 10,10.24 22.39,15.63 31.01,27.11 6.84,9.11 14.9,16.06 23.71,23.41 l 4.89,4.94 c 5.68,7.43 13.14,12.9 18.55,19.55 0.15,0.19 0.36,0.44 0.53,0.62 l 11.33,14.39 c 6.27,7.74 12.75,14.89 18.12,23.36 2.61,4.14 2.3,3.73 5.1,7.19 0.9,1.11 1.94,2.38 2.5,3.13 0.15,0.2 0.36,0.45 0.5,0.65 l 22.83,33.02 c 3.56,4.52 5.33,10.17 8.99,14.48 l 1.99,2.68 c 5.08,9.37 15.29,18.6 18.66,29.67 1.91,6.3 5.61,9.26 8.52,14.77 l 10.25,18.85 c 2.14,4.96 4.59,11.08 7.87,15.34 2.25,2.91 0.57,0.21 2.1,3.7 l 11.53,24.21 c 2.62,4.63 1.14,4.55 2.57,8.91 1.64,5.01 2,-1.19 4.31,8.11 1.69,6.74 1.85,3.54 3.53,7.34 1.67,3.78 0.16,5.93 2.18,8.91 l 8.41,15.28 c 1.22,6.78 0.21,4.62 3.48,9.61 l 2.54,7.72 c 1.34,3.69 2.26,2.56 3.06,8.4 1.3,9.64 3.77,8.73 4.82,18.97 0.4,3.99 0.77,3.19 2.49,5.72 1.64,2.44 -0.03,-1.04 1.29,2.26 1.43,3.56 0.76,6.01 1.8,9.57 1.73,6.01 2.45,0.09 3.33,9.28 1.03,10.85 3.98,10.23 5.1,18.07 1.88,13.09 3.74,13.75 4.49,18.98 0.53,3.59 0.1,7.01 0.9,10.43 2.25,9.57 3.64,3.8 3.97,18.64 0.14,6.22 8.64,27.24 9.51,49.09 0.3,7.58 -0.04,16.17 0.51,23.55 l 2.41,8.31 c 0.89,3.67 0.67,7.81 0.82,11.85 0.52,14.54 0.87,29.97 1.22,45.37 10.18,4.16 25.72,2.34 37.51,2.34 24.42,0 108.21,2.4 121.67,-1.08 l -1.44,-37.39 c -0.56,-3.98 -2.17,-6.87 -2.74,-10.49 -2.63,-17.01 1.18,-18.12 -4.68,-35.59 -1.13,-3.37 -1.07,-7.71 -1.58,-11.92 -0.66,-5.3 -0.91,-6.86 -2.22,-11.14 -2.41,-7.86 -0.74,-16.74 -2.76,-24.49 -1.47,-5.63 -2.85,-2.64 -4.23,-8.59 l -4.7,-22.27 c -0.76,-4.64 -1.42,-6.47 -2.74,-10.74 l -5.12,-20.68 c -1.08,-3.73 -0.98,-7.8 -2.25,-11.21 l -6.63,-20.18 c -1.48,-3.67 -2.13,-5.88 -3.62,-9.54 l -1.09,-2.31 c -2.8,-6.15 -8.45,-31.31 -14.53,-42.54 l -9.62,-24.01 c -0.93,-2.11 -0.81,-3.1 -1.56,-5.18 l -10.71,-26.22 c -1.14,-1.92 -0.26,0.36 -1.23,-2.27 -0.92,-2.43 -0.55,-3.43 -1.17,-5.81 -1.48,-5.66 -6.33,-11.03 -8.67,-16.72 l -4.53,-8.87 c -0.97,-2.35 -0.52,-3.06 -1.52,-5.31 l -4.09,-9.5 c -1.15,-3.25 -3.34,-3.3 -5.08,-8.12 l -17.13,-29.64 c -0.85,-1.65 -1.15,-3.08 -2.09,-4.68 l -13.93,-26.45 c -0.79,-1.62 -1.63,-2.34 -2.68,-3.97 l -25.34,-40.72 c -0.28,-0.49 -1.31,-2 -1.34,-2.04 -1.01,-1.72 -0.21,-0.11 -1.24,-2.28 -3.36,-7.15 -9.62,-12.51 -13.96,-19.4 l -5.23,-8.3 c -1.8,-3.12 -0.86,-1.33 -2.8,-3.74 l -10,-13.47 c -1.3,-1.57 -0.45,-0.52 -1.5,-1.92 -0.45,-0.6 -2.65,-3.59 -2.86,-3.92 l -5.71,-8.72 c -1.06,-1.13 -0.47,-0.59 -1.05,-1.22 -1.36,-1.46 0.16,0.08 -1.62,-1.67 -0.17,-0.16 -0.42,-0.37 -0.58,-0.53 l -2.75,-2.93 c -2.46,-2.79 -3.5,-3.62 -6.2,-7.16 l -12.13,-14.65 c -2.41,-3.37 -3.33,-4.79 -6.15,-7.39 -6.79,-6.26 -9.34,-11.86 -15.02,-17.41 -2.76,-2.7 -0.71,-0.38 -3.11,-3.53 -1.16,-1.53 0.2,0 -1.47,-1.93 l -11.39,-12.09 c -1.67,-2.05 -1.19,-1.61 -3.19,-3.55 -1.42,-1.38 -2.39,-2.13 -3.53,-3.22 -4.73,-4.49 -7.88,-10.06 -13.73,-13.39 -4.14,-2.35 -4.81,-5.68 -10.39,-9.67 -3.21,-2.31 -0.7,-0.1 -2.86,-3.36 l -34.09,-33.27 c -3.44,-3.39 -6.58,-6.95 -10.93,-9.41 l -12.01,-10.05 c -3.88,-4.81 -11.2,-10.77 -16.48,-13.99 l -40.08,-31.36 c -0.17,-0.15 -0.43,-0.36 -0.61,-0.51 -0.19,-0.15 -0.46,-0.36 -0.64,-0.51 l -44.66,-32.47 c -0.72,-0.58 -1.33,-1.01 -1.94,-1.47 -3.54,-2.6 -0.52,-0.95 -4.3,-2.65 -2.29,-1.03 -2.81,-0.83 -4.5,-2.03 l -19.6,-12.98 c -2.85,-1.25 -1.79,-0.47 -4.13,-2.38 -6.09,-5.01 -6.74,-4.38 -12.69,-7.55 l -11.78,-8.14 c -2.2,-1.4 -2.38,-0.89 -4.61,-2.13 l -21.9,-11.69 c -2.03,-0.91 -3.24,-0.88 -4.95,-1.87 -3.95,-2.3 -0.04,-0.86 -3.61,-2.96 -1.05,-0.61 -3.6,-1.28 -4.95,-1.79 l -13.28,-6.91 c -5.01,-2.88 -12.49,-5.01 -18.34,-8.57 -11.66,-7.11 -24.17,-11.09 -36.21,-17.38 -6.1,-3.18 -11.26,-6.58 -17.95,-8.64 -6.78,-2.09 -3.38,-2.9 -8.94,-4.29 -4.74,-1.2 -7.2,-0.79 -10.8,-3.08 -4.87,-3.09 -5.18,-0.92 -10.22,-3.16 -8.81,-3.92 -21.12,-6.44 -29.76,-10.5 -5.2,-2.44 -23.01,-5.89 -30.7,-9.63 l -20.37,-6.25 c -6.57,-1.12 -5.73,-0.64 -10.58,-3.01 -4.75,-2.32 -4.51,-1.17 -9.83,-2.27 -5.57,-1.15 -4.15,-2.93 -9.34,-3.88 -7.11,-1.3 -10.53,-1.41 -16.69,-3.73 -1.74,-0.66 -2.82,-0.78 -5.44,-1.05 -9.45,-0.98 -12.6,-4.29 -22.29,-4.68 -14.63,-0.58 -14.95,-3.22 -23.5,-3.76 -8.61,-0.53 -15.25,-2.4 -22.67,-4.03 -7.53,-1.67 -16,-1.54 -24.19,-2.69 -4.11,-0.57 -6.6,-1.8 -11.33,-2.18 l -39.2,-1.54 c -16.88,-0.23 -30.7,-3.49 -49.2,-3.57 -28.59,-0.14 -79.76,-2.06 -105.97,1.77 -12.69,1.85 -25.8,1.96 -38.35,2.1 l -10.16,0.84 c -14.31,4.6 -31.7,1.89 -46.43,6.34 -9.81,2.96 -18.87,1.83 -22.93,4.17 -2.03,1.16 -0.18,1.21 -3.95,2.21 -5.88,1.58 -13.54,-0.03 -19.43,1.03 -5.54,0.99 -3.07,2.37 -9.53,3.67 -3.97,0.81 -8.16,0.58 -11.74,1.8 -6.05,2.05 -0.88,2.53 -10.01,3.18 -6.28,0.44 -6.58,0.41 -10.66,3.15 -4.84,3.26 -4.11,1.62 -10.72,2.15 -10.1,0.8 -2.8,2.34 -9.41,4.13 -2.8,0.76 -9.5,0.35 -12.94,0.74 -6.66,0.75 -5.46,2.42 -10.23,3.41 -5.83,1.22 -5.9,-0.21 -11.28,2.29 -9.22,4.3 -21.2,6.68 -30.26,9.99 -4.36,1.6 -7.1,1.26 -11.24,2.44 -3.46,0.99 -5.67,3.26 -8.92,4.2 -2.3,0.66 -3.41,0.41 -5.65,1.2 -4.71,1.67 -0.91,0.8 -4.13,2.43 -3.09,1.57 -6.62,1.77 -10.12,3.39 l -87.87,38.5 c -6.65,4.25 -15.65,7.3 -22.88,10.86 l -17.55,9.29 c -2.96,1.37 -1.76,1.23 -4.09,2.55 l -16.02,8.47 c -0.17,0.14 -0.39,0.4 -0.57,0.55 l -17.69,10.42 c -1.49,0.95 -2.55,1.6 -4.02,2.6 l -11.02,5.97 c -1.75,0.86 0,-0.03 -2.53,1.01 -4.26,1.78 -0.51,-0.58 -4,2.29 l -5.95,4.19 c -1.24,0.83 0.09,0.13 -2.02,1.47 l -9.48,6.14 c -0.21,0.14 -0.53,0.27 -0.75,0.4 l -19.41,16.28 c -4.45,4.42 -3.2,1.69 -8.24,5.02 l -15.77,12.23 c -0.27,0.19 -1.02,0.75 -1.29,0.95 -1.74,1.24 -0.43,0.39 -1.97,1.34 -13.57,8.36 -29.42,21.99 -41.9,32 -2.59,2.08 -4.64,4.5 -7.13,6.27 l -35.8,30.22 c -7.38,6.85 -19.18,16.07 -24.69,22.29 l -21.16,21.56 c -0.19,0.14 -0.5,0.3 -0.68,0.43 l -32.39,37.87 c -10.08,9.88 -4.46,2.47 -13.67,13.15 -0.4,0.47 -2.7,2.86 -3.31,3.48 l -5.81,7.48 c -0.99,1.41 -1.95,2.52 -2.81,3.86 l -8.44,11.87 c -1.18,2.21 -1.12,2.12 -2.54,4.18 l -8.49,11.65 c -1.31,1.53 -1.52,1.29 -3.17,3.52 -7.1,9.51 -10.66,11.36 -17.28,22.98 -0.81,1.4 -1.68,2.97 -2.8,4.07 l -29.11,44.54 c -2.37,2.76 -3.81,4.5 -5.87,7.58 z m 20.92,808.46 0.97,-4.21 c -4.17,-4.99 -5.15,-36.42 -5.29,-42.08 -1,-42.07 -4.18,-91.85 -4.18,-130.85 -1.8,-0.95 -1.46,-0.73 -2.25,-2.58 l -158.87,0.34 c -2.88,5.55 -1.14,316.07 -1.14,351.26 0,27.07 -1.92,62.33 0.68,88.44 0.43,4.32 1.37,4.69 2.63,8.21 l 8.35,17.1 c 0.14,0.17 0.4,0.36 0.53,0.54 3.03,3.99 -0.05,2.59 4.43,7.92 l 26.07,23.23 c 8.69,2.11 2.72,0.03 7.68,3.24 3.89,2.51 4.81,1.16 9.67,2.08 5.01,0.95 3.69,1.94 7.61,3.19 6.59,2.1 120.66,1.14 130.96,0.79 0.24,-6.84 0.11,-15.95 -0.37,-22.76 -0.55,-7.76 -3.69,-8.14 -4.02,-17.81 -0.27,-7.48 -0.36,-14.99 -0.64,-22.48 -0.34,-9.02 -2.02,-10.22 -3.37,-17.62 -1.13,-6.18 -2.94,-53.59 -4.82,-62.83 -1.72,-8.43 -1.16,-10.28 -2.01,-19.15 -1.87,-19.73 -2.54,-16.43 -3.94,-40.62 -0.89,-15.54 -3.69,-24.41 -4.12,-39.84 -0.38,-13.59 -0.32,-28.26 -2.72,-40.69 -1.64,-8.56 -3.01,-33.56 -1.84,-42.82 z m 665.15,794.99 c 2.64,2.23 -1.4,0.25 8.93,7.62 6.43,4.6 18.82,9.33 26.52,10.15 22.39,2.36 135.7,0.97 166.81,0.98 11.37,0.01 24.66,0.42 34.07,-2.62 15.17,-4.91 7.34,-1.95 19.67,-8.35 3.56,-1.85 2.89,-2.74 5.26,-3.38 2.33,-8 14.82,-15.46 19.26,-23.39 6.27,-11.19 9.31,-17.8 10.4,-31.35 0.75,-9.33 3.7,-7.59 0.95,-17.88 -1.19,-4.49 -0.74,-13.75 -2.76,-17.69 -1.68,-3.23 -2.1,-1.01 -3.31,-6.09 -2.61,-10.91 -3.84,-11.92 -8.66,-17.59 -0.56,-0.65 -1.17,-1.37 -2.03,-2.39 -6.44,-7.62 -19.31,-19.06 -28.54,-22.86 -9.51,-3.91 -13.93,-5.19 -25.29,-5.37 -27.14,-0.47 -54.51,-0.13 -81.66,-0.13 -22.74,0 -84.13,-1.14 -104.11,0.33 -6.4,0.47 -22.51,8.47 -28.05,12.36 l -3.41,2.24 c -1.74,1.28 -0.25,0.13 -2.23,2.05 -0.16,0.16 -0.39,0.41 -0.55,0.57 l -11.41,12.11 c -2.91,3.55 -8.97,13.26 -10.01,17.32 -1.13,4.41 0.11,3.6 -2.38,7.38 -2.36,3.6 -2.16,1.21 -2.57,7.57 -0.39,6.37 -0.35,13.83 -0.24,20.24 0.11,7.06 -0.4,14.35 2.21,19.59 3.52,7.08 3.88,15.1 13.73,26.54 1.33,1.54 3.19,3.71 4.72,5.24 2.74,2.73 2.96,2.01 4.68,6.8 z m -595.94,-219.56 c 0.82,-5.81 -0.83,-9.17 -2.14,-13.95 -1.14,-4.16 -2.14,-8.32 -1.61,-13.73 -8.76,-7.35 -2.64,-19.49 -7.54,-28.25 -4.25,-7.62 -2.88,-18.64 -3.24,-27.2 l -62.35,0.32 c 0,14.41 -0.7,81.92 0.51,93.25 0.69,6.42 2.44,6.25 3.93,12 2.16,8.33 5.92,13.03 10.03,19.42 l 11.21,12.47 c 1.52,1.41 2.37,2.29 4.05,3.78 6.58,5.82 4.35,3.61 9.13,5.61 3.75,1.57 1.87,1.46 4.58,2.99 l 16.2,5.67 c 7.72,1.05 22.02,1.15 29.77,0.28 -0.07,-4.92 -1.15,-3.17 -2.37,-8.08 -0.77,-3.04 -0.66,-6.14 -1.08,-9.34 -0.91,-7.08 -3.46,-6.55 -4.18,-16.87 -1.36,-19.36 -6.98,-23.88 -4.9,-38.37 z"
   id="path7" />
   <path
   class="fil0"
   d="m 4671.06,4688 -7.14,-5.23 c -3.69,-1.93 -3.66,-1.21 -8.05,-2.15 -5.98,-1.28 -18.18,-7.02 -33.54,-9.44 -5.95,-0.94 -10.39,-2.65 -16.5,-3.54 -22.7,-3.29 -175.93,-3.52 -206.66,-1.38 -25.46,1.77 -11.85,-0.95 -36.73,4.45 -12.05,2.62 -4.96,-0.21 -16.98,4.45 -2.28,0.89 -6.83,0.86 -9.97,1.48 -5.45,1.05 -3.37,1.66 -7.17,3.08 -3.22,1.2 -6.97,0.94 -9.53,1.85 -4.45,1.6 -1.31,1.79 -6.8,3.44 -6.83,2.05 -2.38,-0.93 -8.9,3.89 -3.26,2.4 -12.72,5.97 -18.19,9.92 l -5.2,3.75 c -8.77,6.93 -19.87,12.95 -24.83,19.12 -1.74,2.17 -2.37,2.84 -4.9,4.63 -5.9,4.16 1.27,0.2 -9.14,7.78 -8.59,6.26 -18.75,21.26 -24.66,28.01 l -22.61,34.5 c -3.12,4.25 -1.19,3.34 -3.51,7.74 -2.76,5.25 -1.2,-0.88 -3.52,6.53 -2.6,8.29 -1.79,1.17 -5.26,15.05 l -234.38,0.01 -9.57,-32.86 c -0.6,-4.29 -0.22,-8.58 -1.18,-12.67 -1.43,-6.06 -2.97,-3.62 -3.72,-10.74 -0.43,-4.11 0.33,-8.95 -0.87,-12.74 -1.57,-4.95 -3.02,-1.68 -3.88,-8.71 -0.6,-4.83 -0.29,-7.99 -1.52,-12.29 -5.64,-19.67 -2.07,-15.42 -4.27,-23.96 -1.22,-4.73 -2.6,-3.87 -3.38,-9.69 -0.57,-4.22 -0.33,-8.91 -0.76,-13.16 -0.56,-5.51 -2.05,-6.82 -3.3,-11.04 -1.03,-3.49 -1.02,-7.66 -1.36,-11.42 -0.82,-9.25 -2.82,-5.46 -4.11,-22.53 -1.21,-16.05 -3,-15.88 -4.07,-24.11 -1.15,-8.83 -0.36,-16.75 -2.79,-24.33 l -6.97,-47.57 c -0.59,-10.48 -1.13,-15.78 -3.14,-25.15 -1.8,-8.37 -1.28,-16.65 -2.36,-24.5 -1.21,-8.73 -3.21,-13.47 -3.77,-24.2 -0.45,-8.64 -0.11,-18.13 -1.57,-25.69 -1.07,-5.53 -2.42,-4.91 -2.97,-11.18 -0.92,-10.68 0.8,-33.88 -2.1,-39.63 -1.15,-2.28 -2.58,0.75 -2.86,-11.82 -0.76,-34.1 -3.05,-23.79 -4.31,-35.8 -1.26,-12.01 0.32,-30.97 -1.17,-40.65 -2.3,-14.9 -3.38,7.22 -3.87,-37.77 -0.12,-11.33 -1.04,-14.19 -3.71,-22.39 -1.53,-4.67 -1.1,-20.67 -1.28,-26.83 -0.26,-8.86 -1.94,-15.95 -2.89,-23.59 -2.15,-17.09 -0.77,-36.24 -2.41,-52.67 -0.94,-9.42 -2.55,-15.99 -3.16,-24.41 l -0.7,-82.74 c -1.67,0.86 -4.73,-0.07 -5.22,9.91 l 2.65,39.31 c 1.98,14.88 0.92,37.23 2.02,53.79 0.51,7.67 1.56,17.06 2.59,25.62 0.91,7.49 0.78,18.03 1.07,26.87 0.41,12.5 0.49,17 3.58,28.02 1.42,5.1 -0.49,31.82 2.48,42.17 2.69,9.39 2.13,22.64 3.34,32.21 l 9.09,103.47 c 0.37,9.75 2.1,16.02 3.29,24.58 1.25,8.99 0.79,17.6 1.69,26.69 0.64,6.54 3.56,13.94 4.14,21.56 0.82,10.65 0.47,16.06 2.87,25.54 2.16,8.52 1.59,16.23 2.43,25.76 0.75,8.53 3.12,14.95 3.91,24.17 0.74,8.53 0.46,18.11 2.74,25.44 2.51,8.06 2.23,14.79 3.3,24.25 1,8.71 2.88,6.51 3.68,24.56 1.08,24.21 2.99,11.14 4.29,23.49 2.03,19.2 0.72,7.95 3.92,24.05 l 7.49,48.81 c 4.05,9.09 1.37,17.25 4.27,23.81 2.08,4.69 2.84,2.02 3.11,10.73 0.13,4.38 0.05,9.21 1.51,12.68 2.01,4.76 2.9,1.39 3.1,10.82 0.44,20.15 4.03,3.18 4.52,23.56 0.21,8.24 2.02,5.3 3.76,10.15 2.88,8 -1.51,7.96 4.33,15.67 2.08,2.75 0.96,0.21 2.23,4.57 l 236.45,0.3 6.48,-11.03 c 1.08,-4.02 0.11,-7.54 6.56,-16.5 0.12,-0.16 1.72,-1.83 2,-2.24 1.42,-2.05 0.99,-3.26 2.34,-6.32 l 3.2,-5.95 c 2.24,-4.6 -1.8,-3.07 4.85,-4.37 1.08,-12.47 21.69,-34.25 30.99,-43.86 5.04,-5.2 6.19,-4.94 10.07,-7.97 l 30.8,-26.2 c 4.08,-2.7 7.01,-4.21 11.01,-6.81 l 20.69,-11.46 c 2.2,-0.89 2.6,-0.78 4.85,-1.2 2.46,-0.45 23.72,-9.07 27.89,-9.4 16.13,-1.27 5.36,1.29 14.76,-3.66 4.81,-2.52 11.56,-0.88 17.15,-2.23 6.05,-1.47 3.39,-3.25 15.1,-3.47 49.41,-0.92 99.36,-0.24 148.83,-0.24 20.32,0 54.95,-2.1 71.93,3.3 3.58,1.14 3.05,0.94 7.51,1.3 l 7.28,1.82 c 8.69,5.38 5.1,1.39 15.11,3.47 6.27,1.31 1.33,0.99 6.14,3 2.62,1.1 5.64,0.96 8.38,1.66 6.48,1.65 3.56,4.15 15.64,4.7 z"
   id="path9" />
   <path
   class="fil0"
   d="m 3692.91,4177.08 c -1.17,9.27 0.19,34.26 1.85,42.82 2.4,12.43 2.33,27.1 2.71,40.69 0.43,15.43 3.23,24.3 4.13,39.84 1.39,24.19 2.05,20.88 3.93,40.62 0.85,8.87 0.29,10.72 2,19.15 1.89,9.24 3.7,56.65 4.83,62.83 1.36,7.39 3.03,8.59 3.37,17.63 0.28,7.48 0.37,14.99 0.64,22.47 0.34,9.67 3.47,10.05 4.02,17.81 0.49,6.82 0.62,15.93 0.36,22.76 -10.29,0.35 -124.36,1.31 -130.95,-0.79 -3.92,-1.25 -2.6,-2.24 -7.61,-3.19 -4.86,-0.92 -5.79,0.43 -9.67,-2.08 -4.96,-3.21 1,-1.13 -7.68,-3.24 l -26.07,-23.23 c -4.47,-5.33 -1.4,-3.93 -4.43,-7.92 -0.13,-0.17 -0.39,-0.37 -0.53,-0.54 l -8.36,-17.1 c -1.25,-3.52 -2.19,-3.89 -2.62,-8.2 -2.6,-26.12 -0.67,-61.38 -0.67,-88.44 0,-35.21 -1.74,-345.72 1.13,-351.27 l 158.87,-0.35 c 0.78,1.86 0.46,1.64 2.25,2.59 0,39 3.18,88.79 4.18,130.85 0.14,5.65 1.12,37.09 5.29,42.08 1.56,-12.84 -1.36,-31.85 -2.2,-44.32 -0.99,-14.72 -1.63,-30.32 -1.79,-45.83 -0.18,-18.03 -0.56,-76.94 -5.51,-87.23 -9.94,-1.9 -157.28,-1.62 -163.96,0.37 -1.78,8.64 -0.78,74.81 -0.77,89.1 v 270.72 c 0,17.12 -2.08,76.44 1.12,88.96 1.31,5.12 1.98,2.52 3.51,7.36 4.59,14.45 1.51,1.7 7.21,14.72 2.07,4.73 11.6,16.58 14.93,19.19 7.1,5.58 13.63,10.48 21.1,13.71 3.76,1.62 5.3,0.83 8.78,2.32 17.35,7.44 42.43,5.05 62.24,5.05 14.91,0 29.83,0 44.74,0 11.41,0 35.89,2.56 43.23,-2.78 0.66,-13.48 -3.59,-14.46 -4.34,-40.03 -0.1,-3.36 0.18,-7.44 -0.59,-10.64 -0.46,-1.94 -2.14,-4.68 -2.79,-7.82 -1.22,-5.94 -1.17,-14.39 -1.58,-20.73 -0.49,-7.55 -2.36,-12.28 -3.22,-19.06 -0.93,-7.4 -0.72,-14.88 -0.98,-22.31 -0.52,-14.76 -4.14,-24.98 -4.68,-40.21 -0.66,-18.4 -3.7,-31.68 -4.18,-41.46 -0.72,-14.86 -2.57,-26.23 -3.93,-39.81 -1.68,-16.79 -0.67,-52.64 -2.98,-64.96 z"
   id="path11" />
   <path
   class="fil0"
   d="m 3697.82,3688.93 c -1.42,0.54 -2.95,-1.07 -4.46,6.71 -0.55,2.83 -0.7,5.56 -0.86,8.97 -0.47,10.35 -2.43,8.57 -3.71,16.48 -0.88,5.37 -0.64,12.95 -1.1,19.33 -0.47,6.64 -2.89,8.99 -3.72,16.01 -1.51,12.73 0.33,26.45 -1.96,38.38 -1.38,7.19 -1.02,10.38 -1.77,18.27 -0.28,2.97 -0.77,5.21 -0.81,8.96 -0.02,1.71 0.08,4 -0.1,5.63 l -0.98,3.96 c -8.57,2.97 -130.61,0.8 -151.17,0.8 -2.78,-39.72 3.97,-13.46 4.33,-52.86 0.22,-24.67 3.47,-0.7 4.57,-33.64 0.37,-11.17 3.48,-7.48 4.3,-14.56 0.69,-6.04 -0.47,-13.07 1.02,-18.58 2.13,-7.89 3.43,-1.75 3.88,-14.88 l 6.43,-32.11 c 2.42,-6.44 2.13,-8.77 3.47,-15.68 l 8.66,-29.66 c 3.7,-21.51 22.13,-63.71 28.18,-84.32 1.71,-5.8 1.61,-3.25 3.2,-6.84 1.13,-2.57 1.02,-4.64 1.93,-7.08 1.55,-4.14 2.53,-3.13 3.51,-6.14 0.9,-2.76 0.36,-4.62 1.48,-7.87 1.41,-4.08 1.88,-2.36 3.46,-6.58 l 5.41,-13.81 c 1.6,-4.56 1.47,-2.1 3.12,-5.6 2.13,-4.52 2.07,-8.33 7.89,-16.75 2.93,-4.23 1.2,-2.23 2.69,-6.05 2.67,-6.86 0.94,1.94 4.88,-9.66 1.55,-4.58 1.22,-1.71 3.21,-5.79 1.99,-4.06 -0.26,-1.73 3.56,-6.7 3,-3.92 1.07,-3.31 4.08,-8.11 3.58,-5.71 2.53,-5.95 4.78,-8.8 5.13,-6.49 1.2,-1.89 3.63,-8.45 l 20.17,-35.84 c 2.31,-2.89 2.17,-3.17 2.97,-7.44 -0.35,0.17 -0.83,0.07 -1.03,0.58 l -8,10.88 c -2.51,3.74 -5.56,6.97 -7.23,11.41 -3.04,8.09 -8.14,14.23 -9.64,18.39 l -7.03,12.43 c -3.75,4.01 -0.85,0.83 -2.88,6.79 l -9.37,18.89 c -1.58,3.6 -1.76,2.35 -3.56,6.58 l -12.61,26.42 c -2.64,4.84 -4.11,12.33 -7.57,16.24 -4.02,4.53 -1.77,-1.02 -4.14,9.45 -0.99,4.41 1.21,-2.59 -0.54,2.02 -1.15,3.03 -2.23,2.6 -3.11,4.6 -1.24,2.81 -0.21,5.18 -1.75,8.57 -1.6,3.51 -2.2,0.94 -3.19,5.24 -1.48,6.41 1.53,2.95 -2.23,8.56 -6.02,8.99 0.05,6.43 -4.61,14.23 -3.89,6.51 -1.49,8.39 -4.85,14.24 l -7.34,21.86 c -2.31,9.84 -1.3,-3.9 -4.88,13.55 l -1.31,3.7 c -2.58,4.47 -2.33,-1.3 -3.11,10.76 -0.43,6.83 -0.59,4.34 -2.56,8.08 -2.7,5.13 -1.39,10 -3.29,16.02 l -4.06,15.01 c -1.84,5.9 -3.03,0.7 -4.03,14.59 -0.68,9.5 -3.11,7.42 -4.18,14.79 -0.45,3.12 -0.19,6.37 -0.87,9.44 -1.13,5.11 -1.68,2.56 -3.03,6.66 -1.76,5.38 0.01,12.03 -2.41,16.89 -2.77,5.59 -3.31,0.03 -3.47,14.82 -0.17,17.08 -1.5,10.83 -3.72,15.67 -2.76,6.02 0.37,21.04 -1.83,27.57 -3.01,8.92 -3.25,-3.98 -3.76,25.02 -0.45,25.42 -4.92,12.77 -4.05,33.94 7.57,4.99 27.13,2.32 38.36,2.32 33.55,0 98.44,1.63 125.42,-0.37 -2.31,-23.9 2.98,-83.83 7.84,-110.15 1.16,-6.28 1.58,-11.22 2.06,-18.58 0.45,-6.82 3.25,-2.63 3.39,-16.81 z"
   id="path13" />
   <path
   class="fil0"
   d="m 4358.06,4972.06 c -1.71,-4.78 -1.94,-4.06 -4.68,-6.79 -1.53,-1.53 -3.4,-3.7 -4.72,-5.24 -9.85,-11.44 -10.21,-19.46 -13.73,-26.54 -2.61,-5.24 -2.1,-12.52 -2.21,-19.59 -0.11,-6.41 -0.16,-13.88 0.25,-20.24 0.4,-6.36 0.19,-3.97 2.57,-7.58 2.48,-3.76 1.25,-2.96 2.37,-7.37 1.04,-4.06 7.1,-13.78 10.01,-17.33 l 11.41,-12.1 c 0.16,-0.16 0.39,-0.41 0.55,-0.57 1.98,-1.92 0.5,-0.76 2.22,-2.05 l 3.41,-2.24 c 5.55,-3.89 21.66,-11.89 28.06,-12.36 19.98,-1.48 81.37,-0.33 104.11,-0.33 27.16,0 54.52,-0.33 81.66,0.12 11.36,0.19 15.78,1.47 25.28,5.38 9.24,3.8 22.11,15.24 28.55,22.86 0.86,1.02 1.47,1.74 2.03,2.39 4.82,5.67 6.06,6.68 8.65,17.58 1.22,5.1 1.65,2.87 3.31,6.11 2.03,3.93 1.58,13.19 2.78,17.69 2.74,10.29 -0.22,8.54 -0.96,17.86 -1.09,13.55 -4.13,20.17 -10.41,31.37 -4.44,7.92 -16.92,15.38 -19.26,23.38 7.89,-3.33 23.29,-21.07 25.85,-28.03 2.9,-7.88 2.18,-2.74 3.94,-7.15 0.87,-2.2 0.9,-6.23 1.61,-8.63 3.12,-10.68 4.48,-1.67 3.6,-28.84 -0.61,-18.65 -1.68,-8.37 -3.9,-17.48 -1.1,-4.53 0.12,-5.28 -2.55,-9.7 -5.65,-9.36 0.79,-1.81 -7.67,-12.45 -6.08,-7.64 -5.73,-10.25 -15.15,-17.26 -2.31,-1.73 -3.56,-2.48 -5.91,-4.15 -0.19,-0.14 -0.44,-0.34 -0.63,-0.48 -0.19,-0.13 -0.43,-0.35 -0.62,-0.48 -0.19,-0.14 -0.45,-0.35 -0.64,-0.49 l -11.08,-6.81 c -5.99,-2.38 -18.35,-6.9 -24.44,-7.73 -16.29,-2.22 -143.04,-0.9 -170.19,-0.78 -20.26,0.09 -10.48,2.1 -26.82,4.36 -6.89,0.95 -3.13,1.45 -7.39,3.49 -5.49,2.62 -2.53,-1.45 -13.95,7.37 -10.67,8.24 -17.5,16.23 -22.39,26.01 -3.12,6.23 -2.35,1.06 -6.25,10.51 -4.01,9.73 -7.84,22.93 -6.45,36.13 2.79,26.66 7.72,35.83 22.39,52.98 2.42,2.82 3.2,3.9 7.39,5.2 z"
   id="path15" />
   <path
   class="fil0"
   d="m 4112.85,5116.56 c -1.83,-4.69 -2.9,-5.73 -5.99,-8.82 l -60.28,-75.86 c -0.55,-0.9 -1.66,-2.55 -2.24,-3.34 l -11.94,-17.39 c -3.31,-4.27 -6.85,-9.9 -7.48,-16.28 l 156.41,0.16 0.74,9.48 c 4.02,1.37 0.94,-0.08 2.71,1.63 l 3.02,3.59 c -0.17,-6.11 -0.3,-6.19 -2.4,-10.53 -2.27,-4.69 -1.06,-6.6 -4.6,-9.03 -3.79,-2.45 -104.12,-1 -122.76,-1 -12.21,0 -31.15,-2.49 -40.19,2.01 2.51,10.55 3.14,4.21 5.92,14.41 1.71,6.25 -0.32,1.19 2.14,4.21 l 8.44,11.69 c 9.49,11.59 5.44,7.79 11.66,16.33 l 1.4,1.99 c 1.02,1.38 0.11,0.22 1.45,1.86 l 17.94,23.41 c 10.72,16.6 2.95,4.12 11.99,14.87 2.38,2.84 4.41,5.17 6.71,7.85 l 21.56,25.28 c 2.66,2.64 1.3,2.41 5.79,3.48 z"
   id="path17" />
   <path
   class="fil0"
   d="m 3714.93,4815.45 c 1.01,0.95 9.48,5.28 11.46,6.17 14.5,6.52 33.7,10.49 50.53,8.09 3.52,-13.77 -0.9,-12.27 -3.07,-21.96 -1.11,-4.95 -4.5,-18.98 -3.92,-23.41 -2.05,-2.71 -1.7,-5.11 -2.19,-8.95 -0.75,-5.89 -2.48,-7.69 -3.36,-14.87 -0.14,-1.14 -0.32,-3.29 -0.58,-4.29 -0.1,-0.37 -0.2,-0.68 -0.31,-1.01 -0.1,-0.32 -0.3,-0.69 -0.39,-0.94 l -0.98,-1.77 c -2.08,14.49 3.55,19 4.9,38.38 0.72,10.31 3.27,9.78 4.19,16.85 0.41,3.22 0.3,6.3 1.07,9.36 1.23,4.89 2.3,3.15 2.38,8.07 -7.76,0.87 -22.06,0.77 -29.79,-0.28 l -16.18,-5.67 c -2.71,-1.53 -0.83,-1.42 -4.59,-2.98 -4.78,-2.01 -2.54,0.2 -9.13,-5.62 -1.67,-1.48 -2.53,-2.37 -4.05,-3.78 l -11.21,-12.47 c -4.11,-6.39 -7.87,-11.09 -10.03,-19.42 -1.49,-5.75 -3.23,-5.59 -3.92,-12 -1.22,-11.32 -0.52,-78.84 -0.52,-93.25 l 62.35,-0.32 c 0.36,8.55 -1.01,19.58 3.25,27.21 4.89,8.75 -1.23,20.89 7.54,28.25 0.08,-6.72 -2.92,-15.52 -4.27,-29.11 l -5.26,-27.59 c -5.03,-1.75 -58.74,-2.73 -65.92,0.39 -2.41,7.71 -1.04,76.06 0.16,87.7 1.86,18.03 3.73,20.1 10.57,34.18 1.95,4.03 6.48,9.03 9.71,12.8 3.83,4.48 8.78,7.05 11.56,12.24 z"
   id="path19" />
   <path
   class="fil0"
   d="m 3714.93,4815.45 c -2.78,-5.19 -7.73,-7.76 -11.56,-12.24 -3.23,-3.77 -7.76,-8.77 -9.71,-12.8 -6.84,-14.08 -8.71,-16.15 -10.57,-34.18 -1.2,-11.64 -2.57,-79.99 -0.16,-87.7 7.18,-3.12 60.89,-2.14 65.92,-0.39 l 5.26,27.59 c 1.35,13.59 4.35,22.39 4.27,29.11 -0.54,5.4 0.46,9.56 1.6,13.72 1.31,4.78 2.97,8.13 2.14,13.95 l 0.98,1.77 c 0.09,0.25 0.29,0.62 0.39,0.94 0.11,0.33 0.21,0.64 0.31,1.01 0.26,1 0.44,3.15 0.58,4.29 0.88,7.18 2.61,8.98 3.36,14.87 0.49,3.84 0.14,6.24 2.19,8.95 2.32,-13.3 -4.29,-29.71 -4.4,-30.51 -0.8,-5.46 -0.33,-12.28 -1.15,-17.73 -0.84,-5.55 -3.56,-5.31 -3.92,-12.52 -1.34,-26.82 -4.33,-14.9 -4.52,-31.51 -0.07,-6.84 -4.04,-26.1 -8.25,-28.34 -2.18,-1.54 -57.24,-2.23 -62.79,-0.69 -8.92,2.46 -6.53,14.42 -6.52,24.89 l 0.08,64.86 c 0.34,7.68 1.86,7.02 3.28,11.55 1.82,5.78 -0.08,8.4 2.93,13.91 1.5,2.76 1.04,0.69 2.66,5.45 l 2.87,5.96 c 5.19,8.16 2.97,7.51 13.99,18.32 3.06,3.01 5.02,5.9 10.74,7.47 z"
   id="path21" />
  </g>
 </g>
</svg>
